<?xml version="1.0" encoding="UTF-8" standalone="no"?>
<svg
   width="800"
   height="350"
   version="1.1"
   id="svg12"
   sodipodi:docname="Aishwarya_Marathi.svg"
   xmlns:inkscape="http://www.inkscape.org/namespaces/inkscape"
   xmlns:sodipodi="http://sodipodi.sourceforge.net/DTD/sodipodi-0.dtd"
   xmlns="http://www.w3.org/2000/svg"
   xmlns:svg="http://www.w3.org/2000/svg">
  <defs
     id="defs16" />
  <sodipodi:namedview
     id="namedview14"
     pagecolor="#ffffff"
     bordercolor="#000000"
     borderopacity="0.25"
     inkscape:showpageshadow="2"
     inkscape:pageopacity="0.0"
     inkscape:pagecheckerboard="0"
     inkscape:deskcolor="#d1d1d1" />
  <g
     font-family="Lohit Devanagari"
     font-size="32"
     text-anchor="middle"
     fill="#000"
     id="g10">
    <g
       aria-label="ऐश्वर्या रूपाला मोहीनी,"
       id="text2">
      <path
         d="m 274.40625,81.0625 v -1.875 h 11.40625 l -6.25,-7.0625 1.875,-1.65625 6.6875,8.71875 h 2.46875 v 1.875 h -2.3125 v 6.03125 q 0,1.375 -0.71875,2.65625 -0.6875,1.25 -1.96875,2.125 l -1.25,-1.65625 q 0.875,-0.75 1.375,-1.5625 0.5,-0.84375 0.5,-1.625 V 81.0625 h -7.5 v 8.3125 q 0,0.5 0.4375,1.21875 0.4375,0.71875 1.21875,1.5 l 6.875,6.4375 q 0.71875,0.71875 1.09375,1.375 0.375,0.625 0.375,1.125 0,0.9375 -0.6875,1.71875 -0.6875,0.78125 -1.8125,1.21875 L 284.5625,102.5 q 0.875,-0.15625 1.4375,-0.5625 0.5625,-0.40625 0.5625,-0.90625 0,-0.3125 -0.3125,-0.8125 -0.3125,-0.5 -0.875,-1.0625 l -6.84375,-6.4375 q -0.875,-0.75 -1.375,-1.625 -0.5,-0.875 -0.5,-1.75 V 81.0625 Z"
         id="path18" />
      <path
         d="m 297.8125,84.40625 q 0.78125,-0.46875 1.21875,-1.03125 0.4375,-0.5625 0.4375,-1.0625 0,-0.71875 -0.59375,-1.1875 -0.59375,-0.46875 -1.46875,-0.46875 -0.8125,0 -1.34375,0.4375 -0.53125,0.4375 -0.53125,1 0,0.6875 0.625,1.3125 0.625,0.625 1.65625,1 z m -1.90625,11.53125 q -1.625,-1.1875 -1.625,-2.8125 0,-1.625 1.625,-2.78125 1.65625,-1.15625 4,-1.15625 0.75,0 1.59375,0.28125 0.84375,0.25 1.71875,0.75 l -0.625,1.65625 q -0.875,-0.40625 -1.5625,-0.59375 -0.6875,-0.21875 -1.125,-0.21875 -1.46875,0 -2.53125,0.59375 -1.03125,0.59375 -1.03125,1.46875 0,0.8125 1.03125,1.34375 Q 298.4375,95 299.90625,95 q 1.4375,0 2.65625,-0.65625 1.25,-0.65625 1.90625,-1.84375 v -3.53125 l -6.4375,-2.5 L 291.5625,90 290.53125,88.34375 295.9375,85.4375 Q 294.8125,84.90625 294.125,84 q -0.6875,-0.90625 -0.6875,-1.90625 0,-1.375 1.21875,-2.34375 1.25,-0.96875 2.9375,-0.96875 1.625,0 2.78125,1.03125 1.1875,1.03125 1.1875,2.5 0,0.625 -0.5,1.40625 -0.5,0.75 -1.375,1.5 l 4.78125,1.875 V 81.0625 H 303 v -1.875 h 7.09375 v 1.875 H 306.5625 V 100 h -2.09375 v -5.1875 q -0.75,1.0625 -1.96875,1.6875 -1.1875,0.59375 -2.59375,0.59375 -2.34375,0 -4,-1.15625 z"
         id="path20" />
      <path
         d="m 317.6875,93.96875 q 1.625,0 3.0625,-0.875 1.46875,-0.90625 2.34375,-2.46875 v -9.5625 h -7.0625 q 0.78125,0.96875 1.21875,2.0625 0.4375,1.0625 0.4375,2.09375 0,1.8125 -1.4375,3.21875 -1.40625,1.40625 -3.5625,1.78125 0.3125,1.625 1.71875,2.6875 1.40625,1.0625 3.28125,1.0625 z M 309.25,81.0625 v -1.875 h 19.46875 v 1.875 H 325.1875 V 100 h -2.09375 v -6.4375 q -1.21875,1.1875 -2.625,1.84375 -1.375,0.625 -2.78125,0.625 -3,0 -5.15625,-2.15625 -2.125,-2.1875 -2.125,-5.3125 2.375,0 3.78125,-0.90625 1.40625,-0.9375 1.40625,-2.4375 0,-1 -0.53125,-2.0625 -0.53125,-1.09375 -1.53125,-2.09375 z"
         id="path22" />
      <path
         d="m 327.875,81.0625 v -1.875 h 9.15625 v 1.875 h -3.5625 V 100 h -2.0625 V 81.0625 Z"
         id="path24" />
      <path
         d="m 332.59375,79.1875 q -1.0625,-0.90625 -1.65625,-1.96875 -0.625,-1.09375 -0.625,-2.1875 0,-1.90625 1.46875,-3.21875 1.4375,-1.34375 3.53125,-1.34375 0.5625,0 1.125,0.09375 0.5625,0.09375 1.15625,0.3125 v 1.875 q -0.875,-0.34375 -1.4375,-0.46875 -0.5625,-0.15625 -0.84375,-0.15625 -1.21875,0 -2.0625,0.84375 -0.84375,0.84375 -0.84375,2.0625 0,1.15625 0.78125,2.28125 0.78125,1.09375 2.125,1.875 z"
         id="path26" />
      <path
         d="m 346.0625,81.0625 v -1.875 h 24.59375 v 1.875 h -14.5 v 5 h 4.15625 q 0.5,-0.59375 1.28125,-0.90625 0.78125,-0.34375 1.65625,-0.34375 2.25,0 3.8125,1.90625 1.59375,1.875 1.59375,4.53125 0,1.96875 -0.75,3.90625 -0.75,1.9375 -2.15625,3.59375 l -1.6875,-1.25 q 1.21875,-1.21875 1.84375,-2.8125 0.65625,-1.625 0.65625,-3.4375 0,-1.78125 -0.96875,-3.0625 -0.96875,-1.28125 -2.34375,-1.28125 -1.0625,0 -1.78125,0.78125 -0.71875,0.78125 -0.71875,1.90625 0,0.84375 0.4375,1.65625 0.4375,0.8125 1.21875,1.46875 l -1.25,1.25 Q 360,93.125 359.3125,92.03125 q -0.65625,-1.09375 -0.65625,-2.21875 0,-0.5 0.15625,-1.03125 Q 359,88.25 359.28125,87.71875 h -3.125 q -0.1875,1.09375 -1.125,1.8125 -0.9375,0.6875 -2.1875,0.6875 -0.34375,0 -0.5625,-0.0625 Q 352.09375,90.09375 352,90 l 6.46875,8.75 -1.6875,1.25 L 347,86.6875 l 1.6875,-1.46875 q 0.65625,1.4375 1.53125,2.28125 0.90625,0.84375 1.78125,0.84375 0.875,0 1.46875,-0.53125 0.625,-0.53125 0.625,-1.34375 V 81.0625 Z"
         id="path28" />
      <path
         d="m 377.625,91.875 q 1.28125,0 2.40625,-0.78125 1.125,-0.78125 1.75,-2.125 V 81.0625 h -7.6875 v 7.5 q 0,1.375 1.03125,2.34375 1.03125,0.96875 2.5,0.96875 z M 372,88.5625 v -7.5 h -2.1875 v -1.875 h 17.59375 v 1.875 H 383.875 V 100 h -2.09375 v -7.90625 q -0.90625,0.90625 -2,1.40625 -1.0625,0.46875 -2.15625,0.46875 -2.34375,0 -4,-1.5625 Q 372,90.8125 372,88.5625 Z"
         id="path30" />
      <path
         d="m 386.5625,81.0625 v -1.875 h 9.15625 v 1.875 h -3.5625 V 100 h -2.0625 V 81.0625 Z"
         id="path32" />
      <path
         d="m 394.875,81.0625 v -1.875 h 23.53125 v 1.875 H 414.875 V 100 h -2.0625 V 87.53125 q -1.8125,0 -3.375,1.625 -1.5625,1.59375 -2.25,4.1875 l -1.875,-0.625 q 0.15625,-1 0.5,-1.8125 0.34375,-0.8125 0.75,-1.3125 -0.65625,-1 -1.65625,-1.53125 -1,-0.53125 -2.09375,-0.53125 -1.71875,0 -2.9375,1.21875 -1.21875,1.21875 -1.21875,2.9375 0,1.875 1.875,3.71875 1.90625,1.8125 5,2.9375 l -0.84375,1.875 q -3.65625,-1.34375 -5.90625,-3.6875 -2.21875,-2.34375 -2.21875,-4.84375 0,-2.59375 1.8125,-4.40625 1.84375,-1.84375 4.4375,-1.84375 1.53125,0 2.90625,0.625 1.375,0.59375 2.28125,1.65625 0.9375,-1.0625 2.1875,-1.65625 1.25,-0.625 2.625,-0.625 v -4.375 z"
         id="path34" />
      <path
         d="m 417.59375,81.0625 v -1.875 H 426.75 v 1.875 h -3.5625 V 100 H 421.125 V 81.0625 Z"
         id="path36" />
      <path
         d="m 441.59375,87.9375 h 7.5 v -6.875 h -7.5 z m -5.8125,-6.875 v -1.875 h 18.9375 v 1.875 h -3.5625 V 100 h -2.0625 V 90 h -7.5 v 1.46875 q 0,0.5 -0.1875,0.875 -0.1875,0.375 -0.4375,0.375 -0.71875,0 -2.4375,-1.5625 -1.71875,-1.5625 -1.71875,-2.1875 0,-0.40625 0.3125,-0.71875 0.3125,-0.3125 0.71875,-0.3125 h 1.6875 v -6.875 z"
         id="path38" />
      <path
         d="m 453.875,81.0625 v -1.875 h 3.375 l -7.53125,-9.15625 1.4375,-1.25 8.15625,10.40625 h 3.71875 v 1.875 h -3.5625 V 100 h -2.0625 V 81.0625 Z"
         id="path40" />
      <path
         d="m 462.1875,81.0625 v -1.875 H 479.5 v 1.875 h -3.34375 v 5 H 467.625 q -0.40625,0 -0.71875,0.1875 -0.3125,0.1875 -0.3125,0.4375 0,0.84375 0.625,1.625 0.625,0.78125 1.65625,1.28125 0.65625,-0.28125 1.4375,-0.4375 0.8125,-0.1875 1.6875,-0.1875 2.34375,0 3.96875,1.34375 1.65625,1.3125 1.65625,3.25 0,1.0625 -0.4375,1.96875 -0.4375,0.875 -1.25,1.34375 l -1.65625,-1.4375 q 0.59375,-0.34375 0.90625,-0.84375 0.34375,-0.5 0.34375,-1.03125 0,-1.0625 -1.03125,-1.78125 -1.03125,-0.71875 -2.5,-0.71875 -2.25,0 -3.84375,1.03125 -1.5625,1.03125 -1.5625,2.5 0,1.90625 2.6875,3.25 2.6875,1.3125 6.46875,1.3125 l -0.4375,1.875 q -4.46875,0 -7.65625,-1.875 Q 464.5,97.25 464.5,94.59375 q 0,-1.21875 0.59375,-2.28125 0.625,-1.0625 1.6875,-1.6875 -1.0625,-0.90625 -1.6875,-1.9375 -0.59375,-1.03125 -0.59375,-2 0,-1.125 0.90625,-1.90625 0.9375,-0.8125 2.21875,-0.8125 h 6.46875 V 81.0625 Z"
         id="path42" />
      <path
         d="m 478.65625,81.0625 v -1.875 h 3.53125 q -0.53125,-3 -1.96875,-4.9375 -1.40625,-1.9375 -3.03125,-1.9375 -1.21875,0 -2.0625,0.8125 -0.84375,0.78125 -0.84375,1.90625 0,1 0.4375,2 0.4375,0.96875 1.21875,1.75 h -2.28125 q -0.71875,-0.71875 -1.09375,-1.6875 -0.375,-0.96875 -0.375,-2.0625 0,-1.90625 1.46875,-3.21875 1.4375,-1.34375 3.53125,-1.34375 2.40625,0 4.40625,2.46875 2,2.46875 2.65625,6.25 h 3.5625 v 1.875 H 484.25 V 100 h -2.0625 V 81.0625 Z"
         id="path44" />
      <path
         d="m 488,87.53125 q 0,-0.4375 0.4375,-0.75 0.4375,-0.3125 1.03125,-0.3125 h 11 V 81.0625 h -13.5 v -1.875 h 19.125 v 1.875 H 502.5625 V 100 h -2.09375 V 88.5625 h -6.03125 q -0.5,0 -0.875,0.25 -0.375,0.25 -0.375,0.5625 v 2.09375 q 0,0.5 -0.3125,0.875 -0.3125,0.375 -0.71875,0.375 -0.71875,0 -2.4375,-2.15625 Q 488,88.375 488,87.53125 Z"
         id="path46" />
      <path
         d="m 505.25,81.0625 v -1.875 h 3.53125 q -0.53125,-3 -1.96875,-4.9375 -1.40625,-1.9375 -3.03125,-1.9375 -1.21875,0 -2.0625,0.8125 -0.84375,0.78125 -0.84375,1.90625 0,1 0.4375,2 0.4375,0.96875 1.21875,1.75 H 500.25 q -0.71875,-0.71875 -1.09375,-1.6875 -0.375,-0.96875 -0.375,-2.0625 0,-1.90625 1.46875,-3.21875 1.4375,-1.34375 3.53125,-1.34375 2.40625,0 4.40625,2.46875 2,2.46875 2.65625,6.25 h 3.5625 v 1.875 h -3.5625 V 100 h -2.0625 V 81.0625 Z"
         id="path48" />
      <path
         d="m 514.5,104 1.65625,-7.28125 h 3.03125 L 516.0625,104 Z"
         id="path50" />
    </g>
    <g
       aria-label="मराठी भाषेला जणू रानी."
       id="text4">
      <path
         d="m 268.60937,137.9375 h 7.5 v -6.875 h -7.5 z m -5.8125,-6.875 v -1.875 h 18.9375 v 1.875 h -3.5625 V 150 h -2.0625 v -10 h -7.5 v 1.46875 q 0,0.5 -0.1875,0.875 -0.1875,0.375 -0.4375,0.375 -0.71875,0 -2.4375,-1.5625 -1.71875,-1.5625 -1.71875,-2.1875 0,-0.40625 0.3125,-0.71875 0.3125,-0.3125 0.71875,-0.3125 h 1.6875 v -6.875 z"
         id="path53" />
      <path
         d="m 280.89062,131.0625 v -1.875 h 14.46875 v 1.875 h -2.8125 v 4.78125 q 0,1.9375 -1.3125,3.28125 -1.28125,1.3125 -3.0625,1.3125 -0.25,0 -0.6875,-0.0937 -0.40625,-0.125 -1,-0.34375 1.34375,2.34375 3.15625,4.5 1.84375,2.125 4.125,4.03125 L 292.54687,150 q -3.34375,-2.78125 -6.03125,-6.3125 -2.6875,-3.5625 -4.59375,-7.625 l 1.875,-1.03125 q 0.53125,1.5 1.71875,2.40625 1.21875,0.90625 2.65625,0.90625 0.9375,0 1.59375,-0.71875 0.6875,-0.71875 0.6875,-1.78125 v -4.78125 z"
         id="path55" />
      <path
         d="m 294.51562,131.0625 v -1.875 h 9.15625 v 1.875 h -3.5625 V 150 h -2.0625 v -18.9375 z"
         id="path57" />
      <path
         d="m 313.35937,149.78125 q -3.25,0 -6,-2.78125 -2.75,-2.8125 -2.75,-6.15625 0,-2.40625 1.5625,-4.09375 1.59375,-1.71875 3.84375,-1.71875 h 5.21875 v -3.96875 h -12.40625 v -1.875 h 18.96875 v 1.875 h -4.5 v 6.03125 h -7.28125 q -1.375,0 -2.34375,1.125 -0.96875,1.09375 -0.96875,2.625 0,2.53125 2.09375,4.71875 2.09375,2.15625 4.5625,2.15625 1.78125,0 3.0625,-1.3125 1.28125,-1.34375 1.28125,-3.28125 0,-1.15625 -0.65625,-2.34375 -0.625,-1.21875 -1.8125,-2.21875 l 1.65625,-1.25 q 1.375,1.15625 2.125,2.6875 0.78125,1.5 0.78125,3.125 0,2.75 -1.90625,4.71875 -1.875,1.9375 -4.53125,1.9375 z"
         id="path59" />
      <path
         d="m 320.95312,131.0625 v -1.875 h 3.53125 q -0.53125,-3 -1.96875,-4.9375 -1.40625,-1.9375 -3.03125,-1.9375 -1.21875,0 -2.0625,0.8125 -0.84375,0.78125 -0.84375,1.90625 0,1 0.4375,2 0.4375,0.96875 1.21875,1.75 h -2.28125 q -0.71875,-0.71875 -1.09375,-1.6875 -0.375,-0.96875 -0.375,-2.0625 0,-1.90625 1.46875,-3.21875 1.4375,-1.34375 3.53125,-1.34375 2.40625,0 4.40625,2.46875 2,2.46875 2.65625,6.25 h 3.5625 v 1.875 h -3.5625 V 150 h -2.0625 v -18.9375 z"
         id="path61" />
      <path
         d="m 343.26562,139.8125 q 0,-0.34375 0.28125,-0.59375 0.3125,-0.25 0.75,-0.25 h 1.65625 v -6.03125 q 0,-0.875 -0.5625,-1.46875 -0.53125,-0.625 -1.3125,-0.625 -0.78125,0 -1.34375,0.4375 -0.53125,0.4375 -0.53125,1.03125 0,0.71875 0.53125,1.1875 0.5625,0.46875 1.34375,0.46875 v 2.09375 q -1.625,0 -2.78125,-1.09375 -1.15625,-1.125 -1.15625,-2.65625 0,-1.46875 1.15625,-2.5 1.15625,-1.03125 2.78125,-1.03125 1.625,0 2.78125,1.21875 1.1875,1.21875 1.1875,2.9375 v 6.03125 h 6.84375 v -7.90625 h -5.40625 v -1.875 h 11.03125 v 1.875 h -3.53125 V 150 h -2.09375 v -8.9375 h -6.84375 v 1.65625 q 0,0.34375 -0.3125,0.59375 -0.3125,0.25 -0.75,0.25 -0.625,0 -2.1875,-1.5625 -1.53125,-1.5625 -1.53125,-2.1875 z"
         id="path63" />
      <path
         d="m 359.67187,131.0625 v -1.875 h 9.15625 v 1.875 h -3.5625 V 150 h -2.0625 v -18.9375 z"
         id="path65" />
      <path
         d="m 379.92187,137.9375 v -6.875 h -7.28125 z m -4.375,3.75 q 1.28125,0 2.40625,-0.375 1.125,-0.375 1.96875,-1.09375 l -7.6875,-7.0625 v 5.1875 q 0,1.375 0.96875,2.375 0.96875,0.96875 2.34375,0.96875 z m -7.5625,-10.625 v -1.875 h 17.5625 v 1.875 h -3.5625 V 150 h -2.0625 v -7.5 q -0.875,0.625 -2,0.9375 -1.125,0.3125 -2.375,0.3125 -2.25,0 -3.84375,-1.5625 -1.5625,-1.59375 -1.5625,-3.84375 v -7.28125 z"
         id="path67" />
      <path
         d="m 379.54687,129.125 -7.6875,-9.15625 1.4375,-1.25 8.3125,10.40625 z"
         id="path69" />
      <path
         d="m 384.70312,131.0625 v -1.875 h 23.53125 v 1.875 h -3.53125 V 150 h -2.0625 v -12.46875 q -1.8125,0 -3.375,1.625 -1.5625,1.59375 -2.25,4.1875 l -1.875,-0.625 q 0.15625,-1 0.5,-1.8125 0.34375,-0.8125 0.75,-1.3125 -0.65625,-1 -1.65625,-1.53125 -1,-0.53125 -2.09375,-0.53125 -1.71875,0 -2.9375,1.21875 -1.21875,1.21875 -1.21875,2.9375 0,1.875 1.875,3.71875 1.90625,1.8125 5,2.9375 l -0.84375,1.875 q -3.65625,-1.34375 -5.90625,-3.6875 -2.21875,-2.34375 -2.21875,-4.84375 0,-2.59375 1.8125,-4.40625 1.84375,-1.84375 4.4375,-1.84375 1.53125,0 2.90625,0.625 1.375,0.59375 2.28125,1.65625 0.9375,-1.0625 2.1875,-1.65625 1.25,-0.625 2.625,-0.625 v -4.375 z"
         id="path71" />
      <path
         d="m 407.42187,131.0625 v -1.875 h 9.15625 v 1.875 h -3.5625 V 150 h -2.0625 v -18.9375 z"
         id="path73" />
      <path
         d="m 435.67187,147.5 q -2.25,0 -4.6875,-3 -2.4375,-3.03125 -4.25,-8.03125 l 1.875,-0.8125 q 1.59375,4.4375 3.53125,7.125 1.9375,2.65625 3.53125,2.65625 1.03125,0 1.75,-0.78125 0.75,-0.8125 0.75,-1.9375 0,-1.78125 -0.9375,-3.65625 -0.90625,-1.90625 -2.59375,-3.625 h 8.9375 v -4.375 h -17.96875 v -1.875 h 23.59375 v 1.875 h -3.53125 V 150 h -2.09375 v -12.46875 h -5 q 0.84375,1.15625 1.25,2.5 0.40625,1.3125 0.40625,2.6875 0,2 -1.34375,3.40625 -1.3125,1.375 -3.21875,1.375 z"
         id="path75" />
      <path
         d="m 455.76562,142.9375 q 1.125,0 1.90625,-0.90625 0.78125,-0.9375 0.78125,-2.21875 v -8.75 h -5.625 v 8.75 q 0,1.28125 0.84375,2.21875 0.875,0.90625 2.09375,0.90625 z m 0,2.0625 q -2.09375,0 -3.5625,-1.5 -1.4375,-1.53125 -1.4375,-3.6875 v -8.75 h -2.40625 v -1.875 h 21.75 v 1.875 h -3.53125 V 150 h -2.09375 v -18.9375 h -3.9375 v 8.75 q 0,2.15625 -1.4375,3.6875 -1.40625,1.5 -3.34375,1.5 z"
         id="path77" />
      <path
         d="m 464.57812,159.15625 q -1.78125,0 -3.0625,-1.3125 -1.3125,-1.28125 -1.3125,-3.0625 0,-2.0625 1.53125,-3.53125 1.5,-1.46875 3.65625,-1.46875 2.71875,0 5.21875,2.34375 2.53125,2.375 3.9375,6.1875 l -1.84375,0.84375 q -1.21875,-3.28125 -3.21875,-5.28125 -2,-2 -4.09375,-2 -1.28125,0 -2.1875,0.84375 -0.90625,0.875 -0.90625,2.0625 0,0.96875 0.65625,1.625 0.65625,0.65625 1.625,0.65625 0.5,0 1.09375,-0.28125 0.59375,-0.25 1.1875,-0.75 l 1.03125,1.875 q -0.875,0.625 -1.71875,0.9375 -0.84375,0.3125 -1.59375,0.3125 z"
         id="path79" />
      <path
         d="m 479.14062,131.0625 v -1.875 h 14.46875 v 1.875 h -2.8125 v 4.78125 q 0,1.9375 -1.3125,3.28125 -1.28125,1.3125 -3.0625,1.3125 -0.25,0 -0.6875,-0.0937 -0.40625,-0.125 -1,-0.34375 1.34375,2.34375 3.15625,4.5 1.84375,2.125 4.125,4.03125 L 490.79687,150 q -3.34375,-2.78125 -6.03125,-6.3125 -2.6875,-3.5625 -4.59375,-7.625 l 1.875,-1.03125 q 0.53125,1.5 1.71875,2.40625 1.21875,0.90625 2.65625,0.90625 0.9375,0 1.59375,-0.71875 0.6875,-0.71875 0.6875,-1.78125 v -4.78125 z"
         id="path81" />
      <path
         d="m 492.76562,131.0625 v -1.875 h 9.15625 v 1.875 h -3.5625 V 150 h -2.0625 v -18.9375 z"
         id="path83" />
      <path
         d="m 502.10937,137.53125 q 0,-0.4375 0.4375,-0.75 0.4375,-0.3125 1.03125,-0.3125 h 11 v -5.40625 h -13.5 v -1.875 h 19.125 v 1.875 h -3.53125 V 150 h -2.09375 v -11.4375 h -6.03125 q -0.5,0 -0.875,0.25 -0.375,0.25 -0.375,0.5625 v 2.09375 q 0,0.5 -0.3125,0.875 -0.3125,0.375 -0.71875,0.375 -0.71875,0 -2.4375,-2.15625 -1.71875,-2.1875 -1.71875,-3.03125 z"
         id="path85" />
      <path
         d="m 519.35937,131.0625 v -1.875 h 3.53125 q -0.53125,-3 -1.96875,-4.9375 -1.40625,-1.9375 -3.03125,-1.9375 -1.21875,0 -2.0625,0.8125 -0.84375,0.78125 -0.84375,1.90625 0,1 0.4375,2 0.4375,0.96875 1.21875,1.75 h -2.28125 q -0.71875,-0.71875 -1.09375,-1.6875 -0.375,-0.96875 -0.375,-2.0625 0,-1.90625 1.46875,-3.21875 1.4375,-1.34375 3.53125,-1.34375 2.40625,0 4.40625,2.46875 2,2.46875 2.65625,6.25 h 3.5625 v 1.875 h -3.5625 V 150 h -2.0625 v -18.9375 z"
         id="path87" />
      <path
         d="m 530.42187,150 v -3.28125 h 2.65625 V 150 Z"
         id="path89" />
    </g>
    <g
       aria-label="सुंदरतेचा सागर गहन,"
       id="text6">
      <path
         d="m 278.57812,181.0625 v -1.875 h 23 v 1.875 h -3.53125 V 200 h -2.09375 v -10 h -8.875 q -0.84375,0.625 -1.9375,0.625 -0.25,0 -0.5,-0.0625 -0.21875,-0.0625 -0.34375,-0.125 l 6.25,8.71875 -1.65625,1.0625 -9.375,-13.3125 1.6875,-1.25 q 0.65625,1.40625 1.53125,2.25 0.90625,0.84375 1.78125,0.84375 0.875,0 1.46875,-0.59375 0.625,-0.59375 0.625,-1.46875 v -5.625 z m 9.90625,6.875 h 7.46875 v -6.875 h -7.28125 v 5.625 q 0,0.65625 -0.1875,1.25 z"
         id="path92" />
      <path
         d="m 294.89062,208.53125 q -2.25,0 -4.6875,-1.09375 -2.46875,-1.0625 -4.875,-3.0625 l 1.46875,-1.875 q 2.28125,1.90625 4.375,2.90625 2.0625,1.03125 3.71875,1.03125 1.8125,0 3.09375,-0.90625 1.28125,-0.90625 1.28125,-2.1875 0,-1.0625 -0.65625,-1.78125 -0.6875,-0.71875 -1.625,-0.71875 -1,0 -1.875,0.375 -0.875,0.375 -1.46875,1.0625 l -1.4375,-1.4375 q 0.8125,-1 2.0625,-1.53125 1.25,-0.5625 2.71875,-0.5625 1.78125,0 3.09375,1.3125 1.28125,1.34375 1.28125,3.28125 0,2.15625 -1.90625,3.65625 -1.90625,1.53125 -4.5625,1.53125 z"
         id="path94" />
      <path
         d="M 295.60937,174.03125 V 171.125 h 3.125 v 2.90625 z"
         id="path96" />
      <path
         d="m 300.48437,181.0625 v -1.875 h 18 v 1.875 h -3.3125 v 5.40625 h -8.125 q -1.21875,0 -2.0625,0.875 -0.84375,0.84375 -0.84375,2.03125 0,2.25 2.375,3.84375 2.375,1.59375 5.75,1.59375 0,-1.46875 0.65625,-2.5 0.65625,-1.0625 1.625,-1.0625 0.6875,0 1.15625,0.5 0.5,0.46875 0.5,1.1875 0,0.8125 -0.5,1.65625 -0.5,0.84375 -1.375,1.4375 l 2.28125,3.96875 -1.875,0.84375 -2.28125,-4.1875 q -4.3125,0 -7.375,-2.125 -3.03125,-2.15625 -3.03125,-5.15625 0,-2.0625 1.4375,-3.5 1.46875,-1.46875 3.5625,-1.46875 h 6.03125 v -3.34375 z"
         id="path98" />
      <path
         d="m 317.64062,181.0625 v -1.875 h 14.46875 v 1.875 h -2.8125 v 4.78125 q 0,1.9375 -1.3125,3.28125 -1.28125,1.3125 -3.0625,1.3125 -0.25,0 -0.6875,-0.0937 -0.40625,-0.125 -1,-0.34375 1.34375,2.34375 3.15625,4.5 1.84375,2.125 4.125,4.03125 L 329.29687,200 q -3.34375,-2.78125 -6.03125,-6.3125 -2.6875,-3.5625 -4.59375,-7.625 l 1.875,-1.03125 q 0.53125,1.5 1.71875,2.40625 1.21875,0.90625 2.65625,0.90625 0.9375,0 1.59375,-0.71875 0.6875,-0.71875 0.6875,-1.78125 v -4.78125 z"
         id="path100" />
      <path
         d="m 333.01562,189.8125 q 0,-2 1.28125,-3.375 1.28125,-1.40625 3.0625,-1.40625 h 8.125 v -3.96875 h -14.21875 v -1.875 h 19.84375 v 1.875 h -3.53125 V 200 h -2.09375 v -12.90625 h -8.125 q -0.9375,0 -1.625,0.8125 -0.65625,0.78125 -0.65625,1.90625 0,2 1.40625,4.28125 1.4375,2.28125 4,4.4375 l -1.25,1.46875 q -2.9375,-2.5 -4.59375,-5.15625 -1.625,-2.65625 -1.625,-5.03125 z"
         id="path102" />
      <path
         d="m 345.14062,179.1875 -7.6875,-9.15625 1.4375,-1.25 8.3125,10.40625 z"
         id="path104" />
      <path
         d="m 350.26562,181.0625 v -1.875 h 20.75 v 1.875 h -3.53125 V 200 h -2.09375 v -7.5 q -1.25,1.75 -2.71875,2.75 -1.46875,1 -2.875,1 -2.09375,0 -3.5625,-1.4375 -1.4375,-1.46875 -1.4375,-3.5625 0,-1.5 0.59375,-2.71875 0.59375,-1.21875 1.6875,-1.84375 h -6.03125 v -2.09375 h 12.28125 v 2.09375 h -2.90625 q -1.59375,0.59375 -2.59375,1.84375 -0.96875,1.21875 -0.96875,2.71875 0,1.21875 0.84375,2.09375 0.875,0.84375 2.09375,0.84375 1.3125,0 2.8125,-1.28125 1.5,-1.3125 2.78125,-3.53125 v -8.3125 z"
         id="path106" />
      <path
         d="m 370.17187,181.0625 v -1.875 h 9.15625 v 1.875 h -3.5625 V 200 h -2.0625 v -18.9375 z"
         id="path108" />
      <path
         d="m 388.35937,181.0625 v -1.875 h 23 v 1.875 h -3.53125 V 200 h -2.09375 v -10 h -8.875 q -0.84375,0.625 -1.9375,0.625 -0.25,0 -0.5,-0.0625 -0.21875,-0.0625 -0.34375,-0.125 l 6.25,8.71875 -1.65625,1.0625 -9.375,-13.3125 1.6875,-1.25 q 0.65625,1.40625 1.53125,2.25 0.90625,0.84375 1.78125,0.84375 0.875,0 1.46875,-0.59375 0.625,-0.59375 0.625,-1.46875 v -5.625 z m 9.90625,6.875 h 7.46875 v -6.875 h -7.28125 v 5.625 q 0,0.65625 -0.1875,1.25 z"
         id="path110" />
      <path
         d="m 410.51562,181.0625 v -1.875 h 9.15625 v 1.875 h -3.5625 V 200 h -2.0625 v -18.9375 z"
         id="path112" />
      <path
         d="m 418.82812,181.0625 v -1.875 h 17 v 1.875 h -3.53125 V 200 h -2.0625 v -18.9375 h -5.21875 V 191.25 q 0,0.5 -0.3125,0.875 -0.3125,0.375 -0.71875,0.375 -0.78125,0 -2.46875,-1.9375 -1.6875,-1.96875 -1.6875,-2.84375 0,-0.3125 0.25,-0.5625 0.25,-0.25 0.5625,-0.25 h 1.46875 q 0.34375,0 0.59375,-0.3125 0.25,-0.3125 0.25,-0.75 v -4.78125 z"
         id="path114" />
      <path
         d="m 434.98437,181.0625 v -1.875 h 14.46875 v 1.875 h -2.8125 v 4.78125 q 0,1.9375 -1.3125,3.28125 -1.28125,1.3125 -3.0625,1.3125 -0.25,0 -0.6875,-0.0937 -0.40625,-0.125 -1,-0.34375 1.34375,2.34375 3.15625,4.5 1.84375,2.125 4.125,4.03125 L 446.64062,200 q -3.34375,-2.78125 -6.03125,-6.3125 -2.6875,-3.5625 -4.59375,-7.625 l 1.875,-1.03125 q 0.53125,1.5 1.71875,2.40625 1.21875,0.90625 2.65625,0.90625 0.9375,0 1.59375,-0.71875 0.6875,-0.71875 0.6875,-1.78125 v -4.78125 z"
         id="path116" />
      <path
         d="m 458.48437,181.0625 v -1.875 h 17 v 1.875 h -3.53125 V 200 h -2.0625 v -18.9375 h -5.21875 V 191.25 q 0,0.5 -0.3125,0.875 -0.3125,0.375 -0.71875,0.375 -0.78125,0 -2.46875,-1.9375 -1.6875,-1.96875 -1.6875,-2.84375 0,-0.3125 0.25,-0.5625 0.25,-0.25 0.5625,-0.25 h 1.46875 q 0.34375,0 0.59375,-0.3125 0.25,-0.3125 0.25,-0.75 v -4.78125 z"
         id="path118" />
      <path
         d="m 474.64062,181.0625 v -1.875 h 17.3125 v 1.875 h -3.34375 v 5 h -8.53125 q -0.40625,0 -0.71875,0.1875 -0.3125,0.1875 -0.3125,0.4375 0,0.84375 0.625,1.625 0.625,0.78125 1.65625,1.28125 0.65625,-0.28125 1.4375,-0.4375 0.8125,-0.1875 1.6875,-0.1875 2.34375,0 3.96875,1.34375 1.65625,1.3125 1.65625,3.25 0,1.0625 -0.4375,1.96875 -0.4375,0.875 -1.25,1.34375 l -1.65625,-1.4375 q 0.59375,-0.34375 0.90625,-0.84375 0.34375,-0.5 0.34375,-1.03125 0,-1.0625 -1.03125,-1.78125 -1.03125,-0.71875 -2.5,-0.71875 -2.25,0 -3.84375,1.03125 -1.5625,1.03125 -1.5625,2.5 0,1.90625 2.6875,3.25 2.6875,1.3125 6.46875,1.3125 l -0.4375,1.875 q -4.46875,0 -7.65625,-1.875 -3.15625,-1.90625 -3.15625,-4.5625 0,-1.21875 0.59375,-2.28125 0.625,-1.0625 1.6875,-1.6875 -1.0625,-0.90625 -1.6875,-1.9375 -0.59375,-1.03125 -0.59375,-2 0,-1.125 0.90625,-1.90625 0.9375,-0.8125 2.21875,-0.8125 h 6.46875 v -2.90625 z"
         id="path120" />
      <path
         d="m 492.14062,187.53125 q 0,-0.4375 0.4375,-0.75 0.4375,-0.3125 1.03125,-0.3125 h 11 v -5.40625 h -13.5 v -1.875 h 19.125 v 1.875 h -3.53125 V 200 h -2.09375 v -11.4375 h -6.03125 q -0.5,0 -0.875,0.25 -0.375,0.25 -0.375,0.5625 v 2.09375 q 0,0.5 -0.3125,0.875 -0.3125,0.375 -0.71875,0.375 -0.71875,0 -2.4375,-2.15625 -1.71875,-2.1875 -1.71875,-3.03125 z"
         id="path122" />
      <path
         d="m 510.32812,204 1.65625,-7.28125 h 3.03125 L 511.89062,204 Z"
         id="path124" />
    </g>
    <g
       aria-label="मराठी मातीचा सुगंध जणू आनंदधन."
       id="text8">
      <path
         d="m 202.84375,237.9375 h 7.5 v -6.875 h -7.5 z m -5.8125,-6.875 v -1.875 h 18.9375 v 1.875 h -3.5625 V 250 h -2.0625 v -10 h -7.5 v 1.46875 q 0,0.5 -0.1875,0.875 -0.1875,0.375 -0.4375,0.375 -0.71875,0 -2.4375,-1.5625 -1.71875,-1.5625 -1.71875,-2.1875 0,-0.40625 0.3125,-0.71875 0.3125,-0.3125 0.71875,-0.3125 h 1.6875 v -6.875 z"
         id="path127" />
      <path
         d="m 215.125,231.0625 v -1.875 h 14.46875 v 1.875 h -2.8125 v 4.78125 q 0,1.9375 -1.3125,3.28125 -1.28125,1.3125 -3.0625,1.3125 -0.25,0 -0.6875,-0.0937 -0.40625,-0.125 -1,-0.34375 1.34375,2.34375 3.15625,4.5 1.84375,2.125 4.125,4.03125 L 226.78125,250 q -3.34375,-2.78125 -6.03125,-6.3125 -2.6875,-3.5625 -4.59375,-7.625 l 1.875,-1.03125 q 0.53125,1.5 1.71875,2.40625 1.21875,0.90625 2.65625,0.90625 0.9375,0 1.59375,-0.71875 0.6875,-0.71875 0.6875,-1.78125 v -4.78125 z"
         id="path129" />
      <path
         d="m 228.75,231.0625 v -1.875 h 9.15625 v 1.875 h -3.5625 V 250 h -2.0625 v -18.9375 z"
         id="path131" />
      <path
         d="m 247.59375,249.78125 q -3.25,0 -6,-2.78125 -2.75,-2.8125 -2.75,-6.15625 0,-2.40625 1.5625,-4.09375 Q 242,235.03125 244.25,235.03125 h 5.21875 V 231.0625 H 237.0625 v -1.875 h 18.96875 v 1.875 h -4.5 v 6.03125 H 244.25 q -1.375,0 -2.34375,1.125 -0.96875,1.09375 -0.96875,2.625 0,2.53125 2.09375,4.71875 2.09375,2.15625 4.5625,2.15625 1.78125,0 3.0625,-1.3125 1.28125,-1.34375 1.28125,-3.28125 0,-1.15625 -0.65625,-2.34375 -0.625,-1.21875 -1.8125,-2.21875 l 1.65625,-1.25 q 1.375,1.15625 2.125,2.6875 0.78125,1.5 0.78125,3.125 0,2.75 -1.90625,4.71875 -1.875,1.9375 -4.53125,1.9375 z"
         id="path133" />
      <path
         d="m 255.1875,231.0625 v -1.875 h 3.53125 q -0.53125,-3 -1.96875,-4.9375 -1.40625,-1.9375 -3.03125,-1.9375 -1.21875,0 -2.0625,0.8125 -0.84375,0.78125 -0.84375,1.90625 0,1 0.4375,2 0.4375,0.96875 1.21875,1.75 h -2.28125 q -0.71875,-0.71875 -1.09375,-1.6875 -0.375,-0.96875 -0.375,-2.0625 0,-1.90625 1.46875,-3.21875 1.4375,-1.34375 3.53125,-1.34375 2.40625,0 4.40625,2.46875 2,2.46875 2.65625,6.25 h 3.5625 v 1.875 h -3.5625 V 250 h -2.0625 v -18.9375 z"
         id="path135" />
      <path
         d="m 279.1875,237.9375 h 7.5 v -6.875 h -7.5 z m -5.8125,-6.875 v -1.875 h 18.9375 v 1.875 H 288.75 V 250 h -2.0625 v -10 h -7.5 v 1.46875 q 0,0.5 -0.1875,0.875 -0.1875,0.375 -0.4375,0.375 -0.71875,0 -2.4375,-1.5625 -1.71875,-1.5625 -1.71875,-2.1875 0,-0.40625 0.3125,-0.71875 0.3125,-0.3125 0.71875,-0.3125 h 1.6875 v -6.875 z"
         id="path137" />
      <path
         d="m 291.46875,231.0625 v -1.875 h 9.15625 v 1.875 h -3.5625 V 250 H 295 v -18.9375 z"
         id="path139" />
      <path
         d="m 301.53125,239.8125 q 0,-2 1.28125,-3.375 1.28125,-1.40625 3.0625,-1.40625 H 314 v -3.96875 h -14.21875 v -1.875 H 319.625 v 1.875 h -3.53125 V 250 H 314 v -12.90625 h -8.125 q -0.9375,0 -1.625,0.8125 -0.65625,0.78125 -0.65625,1.90625 0,2 1.40625,4.28125 1.4375,2.28125 4,4.4375 L 307.75,250 q -2.9375,-2.5 -4.59375,-5.15625 -1.625,-2.65625 -1.625,-5.03125 z"
         id="path141" />
      <path
         d="m 318.78125,231.0625 v -1.875 h 3.53125 q -0.53125,-3 -1.96875,-4.9375 -1.40625,-1.9375 -3.03125,-1.9375 -1.21875,0 -2.0625,0.8125 -0.84375,0.78125 -0.84375,1.90625 0,1 0.4375,2 0.4375,0.96875 1.21875,1.75 h -2.28125 q -0.71875,-0.71875 -1.09375,-1.6875 -0.375,-0.96875 -0.375,-2.0625 0,-1.90625 1.46875,-3.21875 1.4375,-1.34375 3.53125,-1.34375 2.40625,0 4.40625,2.46875 2,2.46875 2.65625,6.25 h 3.5625 v 1.875 H 324.375 V 250 h -2.0625 v -18.9375 z"
         id="path143" />
      <path
         d="m 327.09375,231.0625 v -1.875 h 20.75 v 1.875 H 344.3125 V 250 h -2.09375 v -7.5 q -1.25,1.75 -2.71875,2.75 -1.46875,1 -2.875,1 -2.09375,0 -3.5625,-1.4375 -1.4375,-1.46875 -1.4375,-3.5625 0,-1.5 0.59375,-2.71875 0.59375,-1.21875 1.6875,-1.84375 H 327.875 v -2.09375 h 12.28125 v 2.09375 H 337.25 q -1.59375,0.59375 -2.59375,1.84375 -0.96875,1.21875 -0.96875,2.71875 0,1.21875 0.84375,2.09375 0.875,0.84375 2.09375,0.84375 1.3125,0 2.8125,-1.28125 1.5,-1.3125 2.78125,-3.53125 v -8.3125 z"
         id="path145" />
      <path
         d="m 347,231.0625 v -1.875 h 9.15625 v 1.875 h -3.5625 V 250 h -2.0625 v -18.9375 z"
         id="path147" />
      <path
         d="m 365.1875,231.0625 v -1.875 h 23 v 1.875 h -3.53125 V 250 h -2.09375 v -10 h -8.875 q -0.84375,0.625 -1.9375,0.625 -0.25,0 -0.5,-0.0625 -0.21875,-0.0625 -0.34375,-0.125 l 6.25,8.71875 -1.65625,1.0625 -9.375,-13.3125 1.6875,-1.25 q 0.65625,1.40625 1.53125,2.25 0.90625,0.84375 1.78125,0.84375 0.875,0 1.46875,-0.59375 0.625,-0.59375 0.625,-1.46875 v -5.625 z m 9.90625,6.875 h 7.46875 v -6.875 h -7.28125 v 5.625 q 0,0.65625 -0.1875,1.25 z"
         id="path149" />
      <path
         d="m 381.5,258.53125 q -2.25,0 -4.6875,-1.09375 -2.46875,-1.0625 -4.875,-3.0625 l 1.46875,-1.875 q 2.28125,1.90625 4.375,2.90625 2.0625,1.03125 3.71875,1.03125 1.8125,0 3.09375,-0.90625 1.28125,-0.90625 1.28125,-2.1875 0,-1.0625 -0.65625,-1.78125 -0.6875,-0.71875 -1.625,-0.71875 -1,0 -1.875,0.375 -0.875,0.375 -1.46875,1.0625 l -1.4375,-1.4375 q 0.8125,-1 2.0625,-1.53125 1.25,-0.5625 2.71875,-0.5625 1.78125,0 3.09375,1.3125 1.28125,1.34375 1.28125,3.28125 0,2.15625 -1.90625,3.65625 -1.90625,1.53125 -4.5625,1.53125 z"
         id="path151" />
      <path
         d="m 387.34375,231.0625 v -1.875 h 17 v 1.875 H 400.8125 V 250 H 398.75 v -18.9375 h -5.21875 V 241.25 q 0,0.5 -0.3125,0.875 -0.3125,0.375 -0.71875,0.375 -0.78125,0 -2.46875,-1.9375 -1.6875,-1.96875 -1.6875,-2.84375 0,-0.3125 0.25,-0.5625 0.25,-0.25 0.5625,-0.25 h 1.46875 q 0.34375,0 0.59375,-0.3125 0.25,-0.3125 0.25,-0.75 v -4.78125 z"
         id="path153" />
      <path
         d="m 398.4375,224.0625 v -2.90625 h 3.125 v 2.90625 z"
         id="path155" />
      <path
         d="m 412.53125,246.46875 q -2.34375,0 -4,-1.28125 -1.625,-1.3125 -1.625,-3.09375 0,-1.125 0.4375,-2.0625 0.4375,-0.9375 1.21875,-1.46875 -1.65625,-1.15625 -2.59375,-2.65625 -0.9375,-1.5 -0.9375,-2.96875 0,-1.78125 1.21875,-3.0625 1.25,-1.3125 2.9375,-1.3125 1.78125,0 2.875,0.96875 1.09375,0.9375 1.09375,2.5625 0,1.375 -1.125,2.375 -1.09375,0.96875 -2.625,0.96875 v -2.09375 q 0.6875,0 1.15625,-0.375 0.5,-0.375 0.5,-0.875 0,-0.5625 -0.5625,-1 -0.53125,-0.4375 -1.3125,-0.4375 -0.875,0 -1.46875,0.65625 -0.59375,0.65625 -0.59375,1.625 0,1.21875 0.8125,2.375 0.84375,1.15625 2.28125,2 0.6875,-0.28125 1.46875,-0.4375 0.78125,-0.1875 1.65625,-0.1875 h 1.25 l 1.25,2.0625 h -2.28125 q -1.90625,0 -3.25,1 -1.34375,0.96875 -1.34375,2.34375 0,0.96875 1.03125,1.625 1.0625,0.65625 2.53125,0.65625 1.65625,0 3.34375,-1.09375 1.71875,-1.09375 3.09375,-3.0625 v -9.15625 h -4.5625 v -1.875 h 10.1875 v 1.875 H 421.0625 V 250 h -2.09375 v -6.875 q -1.34375,1.59375 -3.03125,2.46875 -1.65625,0.875 -3.40625,0.875 z"
         id="path157" />
      <path
         d="m 443.6875,247.5 q -2.25,0 -4.6875,-3 -2.4375,-3.03125 -4.25,-8.03125 l 1.875,-0.8125 q 1.59375,4.4375 3.53125,7.125 1.9375,2.65625 3.53125,2.65625 1.03125,0 1.75,-0.78125 0.75,-0.8125 0.75,-1.9375 0,-1.78125 -0.9375,-3.65625 -0.90625,-1.90625 -2.59375,-3.625 h 8.9375 v -4.375 H 433.625 v -1.875 h 23.59375 v 1.875 H 453.6875 V 250 h -2.09375 v -12.46875 h -5 q 0.84375,1.15625 1.25,2.5 0.40625,1.3125 0.40625,2.6875 0,2 -1.34375,3.40625 -1.3125,1.375 -3.21875,1.375 z"
         id="path159" />
      <path
         d="m 463.78125,242.9375 q 1.125,0 1.90625,-0.90625 0.78125,-0.9375 0.78125,-2.21875 v -8.75 h -5.625 v 8.75 q 0,1.28125 0.84375,2.21875 0.875,0.90625 2.09375,0.90625 z m 0,2.0625 q -2.09375,0 -3.5625,-1.5 -1.4375,-1.53125 -1.4375,-3.6875 v -8.75 H 456.375 v -1.875 h 21.75 v 1.875 h -3.53125 V 250 H 472.5 v -18.9375 h -3.9375 v 8.75 q 0,2.15625 -1.4375,3.6875 -1.40625,1.5 -3.34375,1.5 z"
         id="path161" />
      <path
         d="m 472.59375,259.15625 q -1.78125,0 -3.0625,-1.3125 -1.3125,-1.28125 -1.3125,-3.0625 0,-2.0625 1.53125,-3.53125 1.5,-1.46875 3.65625,-1.46875 2.71875,0 5.21875,2.34375 2.53125,2.375 3.9375,6.1875 l -1.84375,0.84375 Q 479.5,255.875 477.5,253.875 q -2,-2 -4.09375,-2 -1.28125,0 -2.1875,0.84375 -0.90625,0.875 -0.90625,2.0625 0,0.96875 0.65625,1.625 0.65625,0.65625 1.625,0.65625 0.5,0 1.09375,-0.28125 0.59375,-0.25 1.1875,-0.75 l 1.03125,1.875 q -0.875,0.625 -1.71875,0.9375 -0.84375,0.3125 -1.59375,0.3125 z"
         id="path163" />
      <path
         d="m 497.25,248.53125 q -2.5,0 -4.84375,-2.0625 -2.34375,-2.09375 -4.09375,-5.84375 l 1.46875,-1.25 q 1.5625,3.375 3.5,5.25 1.96875,1.84375 3.96875,1.84375 1.3125,0 2.21875,-1.09375 0.90625,-1.125 0.90625,-2.65625 0,-1.46875 -1.03125,-2.5 -1.03125,-1.03125 -2.5,-1.03125 -0.46875,0 -1,0.0937 -0.5,0.0937 -1.09375,0.3125 l -0.8125,-1.875 q 1.875,-0.15625 3.3125,-1.34375 1.46875,-1.21875 1.46875,-2.59375 0,-1.125 -0.875,-1.90625 -0.84375,-0.8125 -2.03125,-0.8125 -1,0 -2.21875,0.78125 -1.21875,0.75 -2.375,2.125 l -1.4375,-1.4375 q 1.0625,-1.59375 2.65625,-2.46875 1.625,-0.875 3.375,-0.875 2.0625,0 3.5,1.34375 1.46875,1.3125 1.46875,3.25 0,1.125 -0.5,2.15625 -0.5,1.03125 -1.34375,1.78125 1.40625,0.84375 2.78125,1.25 1.375,0.40625 2.625,0.40625 0.3125,0 0.84375,-0.1875 0.53125,-0.21875 1.21875,-0.625 v -7.5 h -3.75 v -1.875 h 17.90625 v 1.875 h -3.53125 V 250 H 514.9375 V 231.0625 H 508.5 V 250 h -2.09375 v -9.375 q -0.5,0.4375 -1.03125,0.65625 -0.5,0.1875 -1.03125,0.1875 -0.875,0 -1.59375,-0.15625 -0.71875,-0.1875 -1.125,-0.46875 0.40625,0.34375 0.625,0.9375 0.21875,0.59375 0.21875,1.34375 0,2.25 -1.53125,3.84375 -1.5,1.5625 -3.6875,1.5625 z"
         id="path165" />
      <path
         d="m 520.75,237.53125 q 0,-0.4375 0.4375,-0.75 0.4375,-0.3125 1.03125,-0.3125 h 11 v -5.40625 h -13.5 v -1.875 h 19.125 v 1.875 H 535.3125 V 250 h -2.09375 v -11.4375 h -6.03125 q -0.5,0 -0.875,0.25 -0.375,0.25 -0.375,0.5625 v 2.09375 q 0,0.5 -0.3125,0.875 -0.3125,0.375 -0.71875,0.375 -0.71875,0 -2.4375,-2.15625 Q 520.75,238.375 520.75,237.53125 Z"
         id="path167" />
      <path
         d="m 532.96875,224.0625 v -2.90625 h 3.125 v 2.90625 z"
         id="path169" />
      <path
         d="m 537.75,231.0625 v -1.875 h 18 v 1.875 h -3.3125 v 5.40625 h -8.125 q -1.21875,0 -2.0625,0.875 -0.84375,0.84375 -0.84375,2.03125 0,2.25 2.375,3.84375 2.375,1.59375 5.75,1.59375 0,-1.46875 0.65625,-2.5 0.65625,-1.0625 1.625,-1.0625 0.6875,0 1.15625,0.5 0.5,0.46875 0.5,1.1875 0,0.8125 -0.5,1.65625 -0.5,0.84375 -1.375,1.4375 L 553.875,250 552,250.84375 l -2.28125,-4.1875 q -4.3125,0 -7.375,-2.125 -3.03125,-2.15625 -3.03125,-5.15625 0,-2.0625 1.4375,-3.5 1.46875,-1.46875 3.5625,-1.46875 h 6.03125 v -3.34375 z"
         id="path171" />
      <path
         d="m 563.9375,246.46875 q -2.34375,0 -4,-1.28125 -1.625,-1.3125 -1.625,-3.09375 0,-1.125 0.4375,-2.0625 0.4375,-0.9375 1.21875,-1.46875 -1.65625,-1.15625 -2.59375,-2.65625 -0.9375,-1.5 -0.9375,-2.96875 0,-1.78125 1.21875,-3.0625 1.25,-1.3125 2.9375,-1.3125 1.78125,0 2.875,0.96875 1.09375,0.9375 1.09375,2.5625 0,1.375 -1.125,2.375 -1.09375,0.96875 -2.625,0.96875 v -2.09375 q 0.6875,0 1.15625,-0.375 0.5,-0.375 0.5,-0.875 0,-0.5625 -0.5625,-1 -0.53125,-0.4375 -1.3125,-0.4375 -0.875,0 -1.46875,0.65625 -0.59375,0.65625 -0.59375,1.625 0,1.21875 0.8125,2.375 0.84375,1.15625 2.28125,2 0.6875,-0.28125 1.46875,-0.4375 0.78125,-0.1875 1.65625,-0.1875 H 566 l 1.25,2.0625 h -2.28125 q -1.90625,0 -3.25,1 -1.34375,0.96875 -1.34375,2.34375 0,0.96875 1.03125,1.625 1.0625,0.65625 2.53125,0.65625 1.65625,0 3.34375,-1.09375 1.71875,-1.09375 3.09375,-3.0625 v -9.15625 h -4.5625 v -1.875 H 576 v 1.875 h -3.53125 V 250 H 570.375 v -6.875 q -1.34375,1.59375 -3.03125,2.46875 -1.65625,0.875 -3.40625,0.875 z"
         id="path173" />
      <path
         d="m 576.1875,237.53125 q 0,-0.4375 0.4375,-0.75 0.4375,-0.3125 1.03125,-0.3125 h 11 v -5.40625 h -13.5 v -1.875 h 19.125 v 1.875 H 590.75 V 250 h -2.09375 V 238.5625 H 582.625 q -0.5,0 -0.875,0.25 -0.375,0.25 -0.375,0.5625 v 2.09375 q 0,0.5 -0.3125,0.875 -0.3125,0.375 -0.71875,0.375 -0.71875,0 -2.4375,-2.15625 -1.71875,-2.1875 -1.71875,-3.03125 z"
         id="path175" />
      <path
         d="m 596.1875,250 v -3.28125 h 2.65625 V 250 Z"
         id="path177" />
    </g>
  </g>
</svg>
