<?xml version="1.0" encoding="UTF-8" standalone="no"?>
<svg
   width="800"
   height="350"
   version="1.1"
   id="svg12"
   sodipodi:docname="AnilHindi.svg"
   xmlns:inkscape="http://www.inkscape.org/namespaces/inkscape"
   xmlns:sodipodi="http://sodipodi.sourceforge.net/DTD/sodipodi-0.dtd"
   xmlns="http://www.w3.org/2000/svg"
   xmlns:svg="http://www.w3.org/2000/svg">
  <defs
     id="defs16" />
  <sodipodi:namedview
     id="namedview14"
     pagecolor="#ffffff"
     bordercolor="#000000"
     borderopacity="0.25"
     inkscape:showpageshadow="2"
     inkscape:pageopacity="0.0"
     inkscape:pagecheckerboard="0"
     inkscape:deskcolor="#d1d1d1" />
  <g
     font-family="Lohit Devanagari"
     font-size="32"
     text-anchor="middle"
     fill="#000"
     id="g10">
    <g
       aria-label="अनिल शिकतो हिंदी भाषा,"
       id="text2">
      <path
         d="m 260.5625,98.53125 q -2.5,0 -4.84375,-2.0625 Q 253.375,94.375 251.625,90.625 l 1.53125,-0.875 q 1.5,3.1875 3.4375,4.96875 1.9375,1.75 3.96875,1.75 1.28125,0 2.1875,-0.9375 0.9375,-0.96875 0.9375,-2.34375 0,-1.6875 -1.0625,-2.84375 -1.03125,-1.15625 -2.46875,-1.15625 -0.46875,0 -1,0.09375 -0.5,0.09375 -1.09375,0.3125 l -0.84375,-1.875 q 1.875,-0.15625 3.3125,-1.28125 1.4375,-1.15625 1.4375,-2.46875 0,-1.1875 -0.71875,-2.03125 -0.71875,-0.875 -1.71875,-0.875 -1.21875,0 -2.53125,0.78125 -1.3125,0.75 -2.46875,2.125 l -1.46875,-1.4375 q 1.09375,-1.59375 2.78125,-2.46875 1.71875,-0.875 3.6875,-0.875 1.90625,0 3.21875,1.40625 1.34375,1.375 1.34375,3.375 0,1.0625 -0.5,2.03125 -0.5,0.96875 -1.375,1.71875 1.59375,0.90625 2.8125,1.40625 1.21875,0.46875 1.96875,0.46875 0.46875,0 1.15625,-0.25 0.6875,-0.28125 1.5625,-0.78125 v -7.5 h -3.75 v -1.875 h 9.375 v 1.875 h -3.5625 V 100 h -2.0625 v -9.375 q -0.5,0.4375 -1.03125,0.65625 -0.5,0.1875 -1.0625,0.1875 -0.875,0 -1.59375,-0.15625 -0.6875,-0.1875 -1.09375,-0.46875 0.40625,0.34375 0.59375,0.9375 0.21875,0.59375 0.21875,1.34375 0,2.25 -1.53125,3.84375 -1.5,1.5625 -3.65625,1.5625 z"
         id="path18" />
      <path
         d="m 274.5,81.0625 v -1.875 h 3.53125 q -0.28125,-0.375 -0.46875,-1.0625 -0.15625,-0.6875 -0.15625,-1.625 0,-2.5 1.9375,-4.25 1.96875,-1.78125 4.71875,-1.78125 3.28125,0 6.65625,2.4375 3.375,2.4375 5.59375,6.3125 h -2.46875 q -1.75,-3 -4.46875,-4.9375 -2.6875,-1.96875 -5.3125,-1.96875 -1.90625,0 -3.25,1.25 -1.34375,1.21875 -1.34375,2.9375 0,0.9375 0.15625,1.625 0.1875,0.6875 0.46875,1.0625 h 3.5625 v 1.875 h -3.5625 V 100 h -2.0625 V 81.0625 Z"
         id="path20" />
      <path
         d="m 283.84375,87.53125 q 0,-0.4375 0.4375,-0.75 0.4375,-0.3125 1.03125,-0.3125 h 11 V 81.0625 h -13.5 v -1.875 h 19.125 v 1.875 h -3.53125 V 100 H 296.3125 V 88.5625 h -6.03125 q -0.5,0 -0.875,0.25 -0.375,0.25 -0.375,0.5625 v 2.09375 q 0,0.5 -0.3125,0.875 -0.3125,0.375 -0.71875,0.375 -0.71875,0 -2.4375,-2.15625 -1.71875,-2.1875 -1.71875,-3.03125 z"
         id="path22" />
      <path
         d="m 301.09375,81.0625 v -1.875 H 324.625 v 1.875 h -3.53125 V 100 h -2.0625 V 87.53125 q -1.8125,0 -3.375,1.625 -1.5625,1.59375 -2.25,4.1875 l -1.875,-0.625 q 0.15625,-1 0.5,-1.8125 0.34375,-0.8125 0.75,-1.3125 -0.65625,-1 -1.65625,-1.53125 -1,-0.53125 -2.09375,-0.53125 -1.71875,0 -2.9375,1.21875 -1.21875,1.21875 -1.21875,2.9375 0,1.875 1.875,3.71875 1.90625,1.8125 5,2.9375 l -0.84375,1.875 Q 307.25,98.875 305,96.53125 q -2.21875,-2.34375 -2.21875,-4.84375 0,-2.59375 1.8125,-4.40625 1.84375,-1.84375 4.4375,-1.84375 1.53125,0 2.90625,0.625 1.375,0.59375 2.28125,1.65625 0.9375,-1.0625 2.1875,-1.65625 1.25,-0.625 2.625,-0.625 v -4.375 z"
         id="path24" />
      <path
         d="m 333.6875,81.0625 v -1.875 h 3.46875 q -0.0625,-0.03125 -0.0937,-1.125 0,-0.75 0,-1.6875 0,-2.78125 2.28125,-4.375 2.28125,-1.5625 6,-1.53125 5.78125,0 9.375,2.4375 3.59375,2.4375 5.8125,6.3125 h -2.46875 q -1.75,-3 -4.6875,-4.9375 -2.90625,-1.96875 -8.03125,-1.96875 -3.1875,0 -4.625,1.0625 -1.53125,1.125 -1.59375,3 -0.0312,1.28125 0,1.6875 0.15625,0.78125 0.0937,1.125 h 3.625 v 1.875 h -3.5625 V 100 h -2.0625 V 81.0625 Z"
         id="path26" />
      <path
         d="m 354.1875,81.0625 v -1.875 h 9.78125 v 1.875 H 360.4375 V 100 h -2.09375 V 81.0625 Z m -5.625,4.78125 q 1.03125,0 1.9375,-0.625 0.90625,-0.625 1.40625,-1.65625 -0.46875,-1.21875 -1.28125,-1.96875 -0.78125,-0.75 -1.65625,-0.75 -1.03125,0 -1.78125,0.8125 -0.71875,0.78125 -0.71875,1.90625 0,0.96875 0.59375,1.625 0.625,0.65625 1.5,0.65625 z M 352.71875,100 343.375,92.09375 344.40625,90.625 q 0.90625,0.75 1.4375,1.125 0.53125,0.34375 0.84375,0.34375 2.34375,0 3.96875,-1.8125 1.65625,-1.84375 1.65625,-4.4375 -0.53125,0.96875 -1.5625,1.53125 -1.03125,0.5625 -2.1875,0.5625 -1.71875,0 -2.9375,-1.28125 -1.21875,-1.3125 -1.21875,-3.09375 0,-2 1.3125,-3.375 1.34375,-1.40625 3.25,-1.40625 2.25,0 3.84375,2.09375 1.59375,2.0625 1.59375,4.96875 0,3.21875 -1.90625,5.46875 -1.90625,2.25 -4.5625,2.25 l 6.03125,4.96875 z"
         id="path28" />
      <path
         d="m 363.125,81.0625 v -1.875 h 24.25 v 1.875 h -11 v 5.625 q 0.6875,-1.15625 1.84375,-1.8125 1.15625,-0.6875 2.53125,-0.6875 2,0 3.375,1.65625 1.40625,1.625 1.40625,3.96875 0,2 -1.03125,3.96875 -1.03125,1.9375 -2.90625,3.5 l -1.875,-1.25 q 1.75,-1.21875 2.75,-2.875 1,-1.65625 1,-3.34375 0,-1.46875 -0.8125,-2.5 -0.78125,-1.03125 -1.90625,-1.03125 -1.4375,0 -2.6875,1.09375 -1.21875,1.09375 -1.6875,2.84375 V 100 h -2.0625 v -6.25 q -0.75,0.875 -1.84375,1.375 -1.0625,0.5 -2.3125,0.5 -2.25,0 -3.84375,-1.5625 -1.5625,-1.59375 -1.5625,-3.84375 0,-2.5 1.8125,-4.25 1.84375,-1.78125 4.40625,-1.78125 0.75,0 1.28125,0.125 0.5625,0.09375 0.8125,0.28125 l -0.40625,2.09375 q -0.375,-0.21875 -0.8125,-0.3125 -0.40625,-0.09375 -0.875,-0.09375 -1.6875,0 -2.9375,1.15625 -1.21875,1.15625 -1.21875,2.78125 0,1.375 0.96875,2.375 1,0.96875 2.375,0.96875 1.1875,0 2.3125,-0.71875 1.125,-0.75 1.84375,-2 V 81.0625 Z"
         id="path30" />
      <path
         d="m 388.28125,89.8125 q 0,-2 1.28125,-3.375 1.28125,-1.40625 3.0625,-1.40625 h 8.125 V 81.0625 h -14.21875 v -1.875 H 406.375 v 1.875 h -3.53125 V 100 H 400.75 V 87.09375 h -8.125 q -0.9375,0 -1.625,0.8125 -0.65625,0.78125 -0.65625,1.90625 0,2 1.40625,4.28125 1.4375,2.28125 4,4.4375 L 394.5,100 q -2.9375,-2.5 -4.59375,-5.15625 -1.625,-2.65625 -1.625,-5.03125 z"
         id="path32" />
      <path
         d="m 405.53125,81.0625 v -1.875 h 3.375 l -7.53125,-9.15625 1.4375,-1.25 8.15625,10.40625 h 3.71875 v 1.875 H 411.125 V 100 h -2.0625 V 81.0625 Z"
         id="path34" />
      <path
         d="m 444.09375,73.78125 v -3.125 h 3.125 v 3.125 z m -20.375,7.28125 v -1.875 H 427.25 q -0.28125,-0.375 -0.46875,-1.0625 -0.15625,-0.6875 -0.15625,-1.625 0,-2.5 1.9375,-4.25 1.96875,-1.78125 4.71875,-1.78125 3.28125,0 6.4375,2.21875 3.1875,2.21875 5.40625,6.09375 h -2.28125 q -1.75,-3 -4.3125,-4.71875 -2.53125,-1.75 -5.25,-1.75 -1.90625,0 -3.25,1.25 -1.34375,1.21875 -1.34375,2.9375 0,0.9375 0.15625,1.625 0.1875,0.6875 0.46875,1.0625 h 3.5625 v 1.875 h -3.5625 V 100 H 427.25 V 81.0625 Z"
         id="path36" />
      <path
         d="m 432.03125,81.0625 v -1.875 h 17.3125 v 1.875 H 446 v 5 h -8.53125 q -0.40625,0 -0.71875,0.1875 -0.3125,0.1875 -0.3125,0.4375 0,0.84375 0.625,1.625 0.625,0.78125 1.65625,1.28125 0.65625,-0.28125 1.4375,-0.4375 0.8125,-0.1875 1.6875,-0.1875 2.34375,0 3.96875,1.34375 1.65625,1.3125 1.65625,3.25 0,1.0625 -0.4375,1.96875 -0.4375,0.875 -1.25,1.34375 L 444.125,95.4375 q 0.59375,-0.34375 0.90625,-0.84375 0.34375,-0.5 0.34375,-1.03125 0,-1.0625 -1.03125,-1.78125 -1.03125,-0.71875 -2.5,-0.71875 -2.25,0 -3.84375,1.03125 -1.5625,1.03125 -1.5625,2.5 0,1.90625 2.6875,3.25 2.6875,1.3125 6.46875,1.3125 l -0.4375,1.875 q -4.46875,0 -7.65625,-1.875 -3.15625,-1.90625 -3.15625,-4.5625 0,-1.21875 0.59375,-2.28125 0.625,-1.0625 1.6875,-1.6875 -1.0625,-0.90625 -1.6875,-1.9375 -0.59375,-1.03125 -0.59375,-2 0,-1.125 0.90625,-1.90625 0.9375,-0.8125 2.21875,-0.8125 h 6.46875 V 81.0625 Z"
         id="path38" />
      <path
         d="m 448.25,81.0625 v -1.875 h 18 v 1.875 h -3.3125 v 5.40625 h -8.125 q -1.21875,0 -2.0625,0.875 -0.84375,0.84375 -0.84375,2.03125 0,2.25 2.375,3.84375 2.375,1.59375 5.75,1.59375 0,-1.46875 0.65625,-2.5 0.65625,-1.0625 1.625,-1.0625 0.6875,0 1.15625,0.5 0.5,0.46875 0.5,1.1875 0,0.8125 -0.5,1.65625 -0.5,0.84375 -1.375,1.4375 L 464.375,100 l -1.875,0.84375 -2.28125,-4.1875 q -4.3125,0 -7.375,-2.125 -3.03125,-2.15625 -3.03125,-5.15625 0,-2.0625 1.4375,-3.5 1.46875,-1.46875 3.5625,-1.46875 h 6.03125 V 81.0625 Z"
         id="path40" />
      <path
         d="m 465.40625,81.0625 v -1.875 h 3.53125 q -0.53125,-3 -1.96875,-4.9375 -1.40625,-1.9375 -3.03125,-1.9375 -1.21875,0 -2.0625,0.8125 -0.84375,0.78125 -0.84375,1.90625 0,1 0.4375,2 0.4375,0.96875 1.21875,1.75 h -2.28125 q -0.71875,-0.71875 -1.09375,-1.6875 -0.375,-0.96875 -0.375,-2.0625 0,-1.90625 1.46875,-3.21875 1.4375,-1.34375 3.53125,-1.34375 2.40625,0 4.40625,2.46875 2,2.46875 2.65625,6.25 h 3.5625 v 1.875 H 471 V 100 h -2.0625 V 81.0625 Z"
         id="path42" />
      <path
         d="m 487.71875,89.8125 q 0,-0.34375 0.28125,-0.59375 0.3125,-0.25 0.75,-0.25 h 1.65625 V 82.9375 q 0,-0.875 -0.5625,-1.46875 -0.53125,-0.625 -1.3125,-0.625 -0.78125,0 -1.34375,0.4375 -0.53125,0.4375 -0.53125,1.03125 0,0.71875 0.53125,1.1875 0.5625,0.46875 1.34375,0.46875 v 2.09375 q -1.625,0 -2.78125,-1.09375 -1.15625,-1.125 -1.15625,-2.65625 0,-1.46875 1.15625,-2.5 1.15625,-1.03125 2.78125,-1.03125 1.625,0 2.78125,1.21875 1.1875,1.21875 1.1875,2.9375 v 6.03125 h 6.84375 V 81.0625 h -5.40625 v -1.875 h 11.03125 v 1.875 H 501.4375 V 100 h -2.09375 V 91.0625 H 492.5 v 1.65625 q 0,0.34375 -0.3125,0.59375 -0.3125,0.25 -0.75,0.25 -0.625,0 -2.1875,-1.5625 -1.53125,-1.5625 -1.53125,-2.1875 z"
         id="path44" />
      <path
         d="m 504.125,81.0625 v -1.875 h 9.15625 v 1.875 h -3.5625 V 100 h -2.0625 V 81.0625 Z"
         id="path46" />
      <path
         d="m 524.375,87.9375 v -6.875 h -7.28125 z m -4.375,3.75 q 1.28125,0 2.40625,-0.375 1.125,-0.375 1.96875,-1.09375 l -7.6875,-7.0625 v 5.1875 q 0,1.375 0.96875,2.375 Q 518.625,91.6875 520,91.6875 Z m -7.5625,-10.625 v -1.875 H 530 v 1.875 h -3.5625 V 100 h -2.0625 v -7.5 q -0.875,0.625 -2,0.9375 Q 521.25,93.75 520,93.75 q -2.25,0 -3.84375,-1.5625 -1.5625,-1.59375 -1.5625,-3.84375 V 81.0625 Z"
         id="path48" />
      <path
         d="m 529.15625,81.0625 v -1.875 h 9.15625 v 1.875 H 534.75 V 100 h -2.0625 V 81.0625 Z"
         id="path50" />
      <path
         d="m 538.40625,104 1.65625,-7.28125 h 3.03125 L 539.96875,104 Z"
         id="path52" />
    </g>
    <g
       aria-label="शुद्ध उच्चार करतो साधा."
       id="text4">
      <path
         d="m 277.96875,131.0625 v -1.875 H 287.75 v 1.875 h -3.53125 V 150 H 282.125 v -18.9375 z m -5.625,4.78125 q 1.03125,0 1.9375,-0.625 0.90625,-0.625 1.40625,-1.65625 -0.46875,-1.21875 -1.28125,-1.96875 -0.78125,-0.75 -1.65625,-0.75 -1.03125,0 -1.78125,0.8125 -0.71875,0.78125 -0.71875,1.90625 0,0.96875 0.59375,1.625 0.625,0.65625 1.5,0.65625 z M 276.5,150 l -9.34375,-7.90625 1.03125,-1.46875 q 0.90625,0.75 1.4375,1.125 0.53125,0.34375 0.84375,0.34375 2.34375,0 3.96875,-1.8125 1.65625,-1.84375 1.65625,-4.4375 -0.53125,0.96875 -1.5625,1.53125 -1.03125,0.5625 -2.1875,0.5625 -1.71875,0 -2.9375,-1.28125 -1.21875,-1.3125 -1.21875,-3.09375 0,-2 1.3125,-3.375 1.34375,-1.40625 3.25,-1.40625 2.25,0 3.84375,2.09375 1.59375,2.0625 1.59375,4.96875 0,3.21875 -1.90625,5.46875 -1.90625,2.25 -4.5625,2.25 l 6.03125,4.96875 z"
         id="path55" />
      <path
         d="m 281.0625,158.53125 q -2.25,0 -4.6875,-1.09375 -2.46875,-1.0625 -4.875,-3.0625 l 1.46875,-1.875 q 2.28125,1.90625 4.375,2.90625 2.0625,1.03125 3.71875,1.03125 1.8125,0 3.09375,-0.90625 1.28125,-0.90625 1.28125,-2.1875 0,-1.0625 -0.65625,-1.78125 -0.6875,-0.71875 -1.625,-0.71875 -1,0 -1.875,0.375 -0.875,0.375 -1.46875,1.0625 l -1.4375,-1.4375 q 0.8125,-1 2.0625,-1.53125 1.25,-0.5625 2.71875,-0.5625 1.78125,0 3.09375,1.3125 1.28125,1.34375 1.28125,3.28125 0,2.15625 -1.90625,3.65625 -1.90625,1.53125 -4.5625,1.53125 z"
         id="path57" />
      <path
         d="m 299.90625,150.625 q 1.5625,0 2.875,-0.65625 1.3125,-0.6875 2.125,-1.84375 l -0.15625,-1.0625 -0.25,-1.625 q -0.59375,0.1875 -1.15625,0.3125 -0.5625,0.0937 -1.125,0.0937 -0.59375,0 -1.34375,-0.15625 -0.75,-0.1875 -1.5625,-0.46875 -1.0625,0.375 -1.6875,1.0625 -0.625,0.6875 -0.625,1.4375 0,1.1875 0.84375,2.0625 0.875,0.84375 2.0625,0.84375 z m -13,-19.5625 v -1.875 H 310.625 v 1.875 h -3.21875 v 5.40625 h -8.3125 q -0.96875,0 -1.625,0.625 -0.65625,0.59375 -0.65625,1.46875 0,1.90625 1.875,3.65625 1.90625,1.75 3.9375,1.75 0.46875,0 0.875,-0.0937 0.40625,-0.125 0.78125,-0.3125 0.21875,-1.25 0.96875,-2.09375 0.78125,-0.84375 1.75,-0.84375 0.6875,0 1.15625,0.5625 0.5,0.53125 0.5,1.3125 0,0.71875 -0.5625,1.40625 -0.5625,0.65625 -1.5,1.09375 0,1.25 0.65625,3.375 0.6875,2.09375 2.03125,4.96875 H 307 q -0.53125,-0.9375 -0.90625,-1.78125 Q 305.75,150.75 305.53125,150 q -1.0625,1.09375 -2.5625,1.6875 -1.46875,0.59375 -3.0625,0.59375 -1.78125,0 -3.125,-1.125 -1.34375,-1.125 -1.65625,-2.8125 -2.8125,0 -4.84375,-1.5 -2,-1.53125 -2,-3.71875 0,-1.375 0.96875,-2.34375 0.96875,-0.96875 2.34375,-0.96875 0.71875,0 1.40625,0.375 0.71875,0.375 1.3125,1.0625 l -1.25,1.25 q -0.375,-0.28125 -0.75,-0.4375 -0.375,-0.1875 -0.71875,-0.1875 -0.5,0 -0.875,0.375 -0.375,0.375 -0.375,0.875 0,1.46875 1.4375,2.5 1.46875,1.03125 3.5625,1.03125 0.34375,-0.84375 0.96875,-1.5625 0.65625,-0.71875 1.53125,-1.125 -1.09375,-0.75 -2.125,-2.5 -1,-1.78125 -1,-2.90625 0,-1.71875 1.28125,-2.9375 1.3125,-1.21875 3.09375,-1.21875 h 6.25 v -3.34375 z"
         id="path59" />
      <path
         d="m 319.65625,131.0625 v -1.875 h 20.53125 v 1.875 H 335.75 q 0.625,0.71875 0.9375,1.59375 0.3125,0.875 0.3125,1.75 0,1.375 -0.5625,2.5 -0.5625,1.09375 -1.53125,1.65625 1.34375,0.4375 2.125,1.8125 0.8125,1.375 0.8125,3.1875 0,2.40625 -1.65625,4.125 -1.65625,1.6875 -3.96875,1.6875 Q 329,149.375 326,146 q -2.96875,-3.40625 -5.21875,-9.53125 l 1.6875,-0.75 q 2,5.5 4.5625,8.53125 2.5625,3.03125 5.1875,3.03125 1.4375,0 2.46875,-1.09375 1.0625,-1.09375 1.0625,-2.625 0,-1.71875 -1,-2.9375 -0.96875,-1.25 -2.34375,-1.25 H 328.25 l -0.8125,-1.84375 H 332 q 1.21875,0 2.0625,-0.90625 0.84375,-0.9375 0.84375,-2.21875 0,-0.875 -0.5,-1.75 -0.5,-0.875 -1.375,-1.59375 z"
         id="path61" />
      <path
         d="m 339.375,131.0625 v -1.875 h 21.09375 v 1.875 H 356.9375 V 150 h -2.09375 v -7.28125 q -1.15625,2.03125 -2.78125,3.21875 -1.625,1.15625 -3.25,1.15625 -1.71875,0 -2.9375,-0.96875 -1.21875,-1 -1.21875,-2.375 0,-0.4375 0.15625,-0.84375 0.15625,-0.4375 0.46875,-0.8125 H 340.5 V 140 h 4.5625 q -0.21875,-0.28125 -0.3125,-0.65625 -0.0937,-0.375 -0.0937,-0.78125 0,-0.625 0.3125,-1.1875 0.34375,-0.5625 0.9375,-0.90625 H 340.5 v -2.0625 h 11.4375 v 2.0625 h -2.71875 q -1.1875,0.34375 -1.9375,0.9375 -0.75,0.5625 -0.75,1.15625 0,0.375 0.1875,0.75 0.21875,0.375 0.625,0.6875 h 3.75 v 2.09375 h -3.125 q -0.65625,0.25 -1.0625,0.71875 -0.375,0.4375 -0.375,0.9375 0,0.59375 0.65625,1.03125 0.65625,0.4375 1.625,0.4375 1.75,0 3.40625,-1.59375 1.65625,-1.625 2.625,-4.25 v -8.3125 z"
         id="path63" />
      <path
         d="m 359.625,131.0625 v -1.875 h 9.15625 v 1.875 h -3.5625 V 150 h -2.0625 v -18.9375 z"
         id="path65" />
      <path
         d="m 367.9375,131.0625 v -1.875 h 14.46875 v 1.875 h -2.8125 v 4.78125 q 0,1.9375 -1.3125,3.28125 -1.28125,1.3125 -3.0625,1.3125 -0.25,0 -0.6875,-0.0937 -0.40625,-0.125 -1,-0.34375 1.34375,2.34375 3.15625,4.5 1.84375,2.125 4.125,4.03125 L 379.59375,150 q -3.34375,-2.78125 -6.03125,-6.3125 -2.6875,-3.5625 -4.59375,-7.625 l 1.875,-1.03125 q 0.53125,1.5 1.71875,2.40625 1.21875,0.90625 2.65625,0.90625 0.9375,0 1.59375,-0.71875 0.6875,-0.71875 0.6875,-1.78125 v -4.78125 z"
         id="path67" />
      <path
         d="m 391.4375,131.0625 v -1.875 h 24.25 v 1.875 h -11 v 5.625 q 0.6875,-1.15625 1.84375,-1.8125 1.15625,-0.6875 2.53125,-0.6875 2,0 3.375,1.65625 1.40625,1.625 1.40625,3.96875 0,2 -1.03125,3.96875 -1.03125,1.9375 -2.90625,3.5 l -1.875,-1.25 q 1.75,-1.21875 2.75,-2.875 1,-1.65625 1,-3.34375 0,-1.46875 -0.8125,-2.5 -0.78125,-1.03125 -1.90625,-1.03125 -1.4375,0 -2.6875,1.09375 -1.21875,1.09375 -1.6875,2.84375 V 150 h -2.0625 v -6.25 q -0.75,0.875 -1.84375,1.375 -1.0625,0.5 -2.3125,0.5 -2.25,0 -3.84375,-1.5625 -1.5625,-1.59375 -1.5625,-3.84375 0,-2.5 1.8125,-4.25 1.84375,-1.78125 4.40625,-1.78125 0.75,0 1.28125,0.125 0.5625,0.0937 0.8125,0.28125 l -0.40625,2.09375 q -0.375,-0.21875 -0.8125,-0.3125 -0.40625,-0.0937 -0.875,-0.0937 -1.6875,0 -2.9375,1.15625 -1.21875,1.15625 -1.21875,2.78125 0,1.375 0.96875,2.375 1,0.96875 2.375,0.96875 1.1875,0 2.3125,-0.71875 1.125,-0.75 1.84375,-2 v -9.78125 z"
         id="path69" />
      <path
         d="m 414.84375,131.0625 v -1.875 h 14.46875 v 1.875 H 426.5 v 4.78125 q 0,1.9375 -1.3125,3.28125 -1.28125,1.3125 -3.0625,1.3125 -0.25,0 -0.6875,-0.0937 -0.40625,-0.125 -1,-0.34375 1.34375,2.34375 3.15625,4.5 1.84375,2.125 4.125,4.03125 L 426.5,150 q -3.34375,-2.78125 -6.03125,-6.3125 -2.6875,-3.5625 -4.59375,-7.625 l 1.875,-1.03125 q 0.53125,1.5 1.71875,2.40625 1.21875,0.90625 2.65625,0.90625 0.9375,0 1.59375,-0.71875 0.6875,-0.71875 0.6875,-1.78125 v -4.78125 z"
         id="path71" />
      <path
         d="m 430.21875,139.8125 q 0,-2 1.28125,-3.375 1.28125,-1.40625 3.0625,-1.40625 h 8.125 v -3.96875 h -14.21875 v -1.875 h 19.84375 v 1.875 h -3.53125 V 150 h -2.09375 v -12.90625 h -8.125 q -0.9375,0 -1.625,0.8125 -0.65625,0.78125 -0.65625,1.90625 0,2 1.40625,4.28125 1.4375,2.28125 4,4.4375 L 436.4375,150 q -2.9375,-2.5 -4.59375,-5.15625 -1.625,-2.65625 -1.625,-5.03125 z"
         id="path73" />
      <path
         d="m 447.46875,131.0625 v -1.875 h 3.375 l -7.53125,-9.15625 1.4375,-1.25 8.15625,10.40625 h 3.71875 v 1.875 h -3.5625 V 150 H 451 v -18.9375 z"
         id="path75" />
      <path
         d="m 465.65625,131.0625 v -1.875 h 23 v 1.875 H 485.125 V 150 h -2.09375 v -10 h -8.875 q -0.84375,0.625 -1.9375,0.625 -0.25,0 -0.5,-0.0625 Q 471.5,140.5 471.375,140.4375 l 6.25,8.71875 -1.65625,1.0625 -9.375,-13.3125 1.6875,-1.25 q 0.65625,1.40625 1.53125,2.25 0.90625,0.84375 1.78125,0.84375 0.875,0 1.46875,-0.59375 0.625,-0.59375 0.625,-1.46875 v -5.625 z m 9.90625,6.875 h 7.46875 v -6.875 H 475.75 v 5.625 q 0,0.65625 -0.1875,1.25 z"
         id="path77" />
      <path
         d="m 487.8125,131.0625 v -1.875 h 9.15625 v 1.875 h -3.5625 V 150 h -2.0625 v -18.9375 z"
         id="path79" />
      <path
         d="m 505.15625,146.46875 q -2.34375,0 -4,-1.28125 -1.625,-1.3125 -1.625,-3.09375 0,-1.125 0.4375,-2.0625 0.4375,-0.9375 1.21875,-1.46875 -1.65625,-1.15625 -2.59375,-2.65625 -0.9375,-1.5 -0.9375,-2.96875 0,-1.78125 1.21875,-3.0625 1.25,-1.3125 2.9375,-1.3125 1.78125,0 2.875,0.96875 1.09375,0.9375 1.09375,2.5625 0,1.375 -1.125,2.375 -1.09375,0.96875 -2.625,0.96875 v -2.09375 q 0.6875,0 1.15625,-0.375 0.5,-0.375 0.5,-0.875 0,-0.5625 -0.5625,-1 -0.53125,-0.4375 -1.3125,-0.4375 -0.875,0 -1.46875,0.65625 -0.59375,0.65625 -0.59375,1.625 0,1.21875 0.8125,2.375 0.84375,1.15625 2.28125,2 0.6875,-0.28125 1.46875,-0.4375 0.78125,-0.1875 1.65625,-0.1875 h 1.25 l 1.25,2.0625 h -2.28125 q -1.90625,0 -3.25,1 -1.34375,0.96875 -1.34375,2.34375 0,0.96875 1.03125,1.625 1.0625,0.65625 2.53125,0.65625 1.65625,0 3.34375,-1.09375 1.71875,-1.09375 3.09375,-3.0625 v -9.15625 h -4.5625 v -1.875 h 10.1875 v 1.875 H 513.6875 V 150 h -2.09375 v -6.875 q -1.34375,1.59375 -3.03125,2.46875 -1.65625,0.875 -3.40625,0.875 z"
         id="path81" />
      <path
         d="m 516.375,131.0625 v -1.875 h 9.15625 v 1.875 h -3.5625 V 150 h -2.0625 v -18.9375 z"
         id="path83" />
      <path
         d="m 527.4375,150 v -3.28125 h 2.65625 V 150 Z"
         id="path85" />
    </g>
    <g
       aria-label="शब्दांचा अर्थ तो जाणतो,"
       id="text6">
      <path
         d="m 272.35937,181.0625 v -1.875 h 9.78125 v 1.875 h -3.53125 V 200 h -2.09375 v -18.9375 z m -5.625,4.78125 q 1.03125,0 1.9375,-0.625 0.90625,-0.625 1.40625,-1.65625 -0.46875,-1.21875 -1.28125,-1.96875 -0.78125,-0.75 -1.65625,-0.75 -1.03125,0 -1.78125,0.8125 -0.71875,0.78125 -0.71875,1.90625 0,0.96875 0.59375,1.625 0.625,0.65625 1.5,0.65625 z M 270.89062,200 l -9.34375,-7.90625 1.03125,-1.46875 q 0.90625,0.75 1.4375,1.125 0.53125,0.34375 0.84375,0.34375 2.34375,0 3.96875,-1.8125 1.65625,-1.84375 1.65625,-4.4375 -0.53125,0.96875 -1.5625,1.53125 -1.03125,0.5625 -2.1875,0.5625 -1.71875,0 -2.9375,-1.28125 -1.21875,-1.3125 -1.21875,-3.09375 0,-2 1.3125,-3.375 1.34375,-1.40625 3.25,-1.40625 2.25,0 3.84375,2.09375 1.59375,2.0625 1.59375,4.96875 0,3.21875 -1.90625,5.46875 -1.90625,2.25 -4.5625,2.25 l 6.03125,4.96875 z"
         id="path88" />
      <path
         d="m 281.29687,181.0625 v -1.875 h 12.28125 v 1.875 z m 7.46875,12.90625 q 0.9375,0 1.75,-0.3125 0.8125,-0.34375 1.375,-0.9375 l -6.21875,-4.59375 q -0.3125,0.375 -0.46875,0.90625 -0.15625,0.53125 -0.15625,1.1875 0,1.53125 1.09375,2.65625 1.09375,1.09375 2.625,1.09375 z m 0,2.0625 q -2.40625,0 -4.125,-1.6875 -1.6875,-1.71875 -1.6875,-4.125 0,-2.5625 1.8125,-4.40625 1.84375,-1.84375 4.4375,-1.84375 0.5625,0 1.09375,0.125 0.53125,0.0937 0.96875,0.3125 v 2.0625 q -0.28125,-0.1875 -0.84375,-0.28125 -0.53125,-0.125 -1.21875,-0.125 -0.75,0 -1.375,0.21875 -0.625,0.1875 -1.125,0.625 l 6.4375,4.78125 0.84375,-1.0625 v 2.71875 q -0.875,1.28125 -2.28125,2 -1.375,0.6875 -2.9375,0.6875 z"
         id="path90" />
      <path
         d="m 292.48437,181.0625 v -1.875 h 18 v 1.875 h -3.3125 v 5.40625 h -8.125 q -1.21875,0 -2.0625,0.875 -0.84375,0.84375 -0.84375,2.03125 0,2.25 2.375,3.84375 2.375,1.59375 5.75,1.59375 0,-1.46875 0.65625,-2.5 0.65625,-1.0625 1.625,-1.0625 0.6875,0 1.15625,0.5 0.5,0.46875 0.5,1.1875 0,0.8125 -0.5,1.65625 -0.5,0.84375 -1.375,1.4375 l 2.28125,3.96875 -1.875,0.84375 -2.28125,-4.1875 q -4.3125,0 -7.375,-2.125 -3.03125,-2.15625 -3.03125,-5.15625 0,-2.0625 1.4375,-3.5 1.46875,-1.46875 3.5625,-1.46875 h 6.03125 v -3.34375 z"
         id="path92" />
      <path
         d="m 309.64062,181.0625 v -1.875 h 9.15625 v 1.875 h -3.5625 V 200 h -2.0625 v -18.9375 z"
         id="path94" />
      <path
         d="m 312.82812,174 v -2.90625 h 3.125 V 174 Z"
         id="path96" />
      <path
         d="m 317.95312,181.0625 v -1.875 h 20.75 v 1.875 h -3.53125 V 200 h -2.09375 v -7.5 q -1.25,1.75 -2.71875,2.75 -1.46875,1 -2.875,1 -2.09375,0 -3.5625,-1.4375 -1.4375,-1.46875 -1.4375,-3.5625 0,-1.5 0.59375,-2.71875 0.59375,-1.21875 1.6875,-1.84375 h -6.03125 v -2.09375 h 12.28125 v 2.09375 h -2.90625 q -1.59375,0.59375 -2.59375,1.84375 -0.96875,1.21875 -0.96875,2.71875 0,1.21875 0.84375,2.09375 0.875,0.84375 2.09375,0.84375 1.3125,0 2.8125,-1.28125 1.5,-1.3125 2.78125,-3.53125 v -8.3125 z"
         id="path98" />
      <path
         d="m 337.85937,181.0625 v -1.875 h 9.15625 v 1.875 h -3.5625 V 200 h -2.0625 v -18.9375 z"
         id="path100" />
      <path
         d="m 366.10937,198.53125 q -2.5,0 -4.84375,-2.0625 -2.34375,-2.09375 -4.09375,-5.84375 l 1.53125,-0.875 q 1.5,3.1875 3.4375,4.96875 1.9375,1.75 3.96875,1.75 1.28125,0 2.1875,-0.9375 0.9375,-0.96875 0.9375,-2.34375 0,-1.6875 -1.0625,-2.84375 -1.03125,-1.15625 -2.46875,-1.15625 -0.46875,0 -1,0.0937 -0.5,0.0937 -1.09375,0.3125 l -0.84375,-1.875 q 1.875,-0.15625 3.3125,-1.28125 1.4375,-1.15625 1.4375,-2.46875 0,-1.1875 -0.71875,-2.03125 -0.71875,-0.875 -1.71875,-0.875 -1.21875,0 -2.53125,0.78125 -1.3125,0.75 -2.46875,2.125 l -1.46875,-1.4375 q 1.09375,-1.59375 2.78125,-2.46875 1.71875,-0.875 3.6875,-0.875 1.90625,0 3.21875,1.40625 1.34375,1.375 1.34375,3.375 0,1.0625 -0.5,2.03125 -0.5,0.96875 -1.375,1.71875 1.59375,0.90625 2.8125,1.40625 1.21875,0.46875 1.96875,0.46875 0.46875,0 1.15625,-0.25 0.6875,-0.28125 1.5625,-0.78125 v -7.5 h -3.75 v -1.875 h 9.375 v 1.875 h -3.5625 V 200 h -2.0625 v -9.375 q -0.5,0.4375 -1.03125,0.65625 -0.5,0.1875 -1.0625,0.1875 -0.875,0 -1.59375,-0.15625 -0.6875,-0.1875 -1.09375,-0.46875 0.40625,0.34375 0.59375,0.9375 0.21875,0.59375 0.21875,1.34375 0,2.25 -1.53125,3.84375 -1.5,1.5625 -3.65625,1.5625 z"
         id="path102" />
      <path
         d="m 389.82812,195.84375 q -2.96875,0 -5.28125,-2.0625 -2.3125,-2.0625 -2.84375,-5.21875 0.34375,0.125 1.03125,0.15625 0.71875,0.0312 2.09375,0.0312 2.25,0 3.8125,-1.28125 1.59375,-1.28125 1.59375,-3.0625 0,-1.5625 -1,-2.65625 -0.96875,-1.09375 -2.34375,-1.09375 -1.1875,0 -2.0625,0.65625 -0.84375,0.65625 -0.84375,1.625 0,0.78125 0.71875,1.34375 0.75,0.53125 1.78125,0.53125 v 2.09375 q -2.0625,0 -3.3125,-1.09375 -1.25,-1.09375 -1.25,-2.875 0,-1.78125 1.4375,-3.0625 1.46875,-1.3125 3.53125,-1.3125 2.25,0 3.84375,1.71875 1.59375,1.6875 1.59375,4.125 0,2.65625 -2.25,4.5625 -2.25,1.875 -5.46875,1.875 0.625,1.34375 2.03125,2.125 1.4375,0.78125 3.1875,0.78125 1.6875,0 3.46875,-1.03125 1.8125,-1.03125 3.375,-2.90625 v -8.75 h -2.0625 v -1.875 h 7.6875 v 1.875 h -3.53125 V 200 h -2.09375 v -7.5 q -1.5625,1.59375 -3.375,2.46875 -1.78125,0.875 -3.46875,0.875 z"
         id="path104" />
      <path
         d="m 396.01562,179.1875 q -1.0625,-0.90625 -1.65625,-1.96875 -0.625,-1.09375 -0.625,-2.1875 0,-1.90625 1.46875,-3.21875 1.4375,-1.34375 3.53125,-1.34375 0.5625,0 1.125,0.0937 0.5625,0.0937 1.15625,0.3125 v 1.875 q -0.875,-0.34375 -1.4375,-0.46875 -0.5625,-0.15625 -0.84375,-0.15625 -1.21875,0 -2.0625,0.84375 -0.84375,0.84375 -0.84375,2.0625 0,1.15625 0.78125,2.28125 0.78125,1.09375 2.125,1.875 z"
         id="path106" />
      <path
         d="m 413.07812,189.8125 q 0,-2 1.28125,-3.375 1.28125,-1.40625 3.0625,-1.40625 h 8.125 v -3.96875 h -14.21875 v -1.875 h 19.84375 v 1.875 h -3.53125 V 200 h -2.09375 v -12.90625 h -8.125 q -0.9375,0 -1.625,0.8125 -0.65625,0.78125 -0.65625,1.90625 0,2 1.40625,4.28125 1.4375,2.28125 4,4.4375 l -1.25,1.46875 q -2.9375,-2.5 -4.59375,-5.15625 -1.625,-2.65625 -1.625,-5.03125 z"
         id="path108" />
      <path
         d="m 430.32812,181.0625 v -1.875 h 3.375 l -7.53125,-9.15625 1.4375,-1.25 8.15625,10.40625 h 3.71875 v 1.875 h -3.5625 V 200 h -2.0625 v -18.9375 z"
         id="path110" />
      <path
         d="m 458.57812,197.5 q -2.25,0 -4.6875,-3 -2.4375,-3.03125 -4.25,-8.03125 l 1.875,-0.8125 q 1.59375,4.4375 3.53125,7.125 1.9375,2.65625 3.53125,2.65625 1.03125,0 1.75,-0.78125 0.75,-0.8125 0.75,-1.9375 0,-1.78125 -0.9375,-3.65625 -0.90625,-1.90625 -2.59375,-3.625 h 8.9375 v -4.375 h -17.96875 v -1.875 h 23.59375 v 1.875 h -3.53125 V 200 h -2.09375 v -12.46875 h -5 q 0.84375,1.15625 1.25,2.5 0.40625,1.3125 0.40625,2.6875 0,2 -1.34375,3.40625 -1.3125,1.375 -3.21875,1.375 z"
         id="path112" />
      <path
         d="m 471.26562,181.0625 v -1.875 h 9.15625 v 1.875 h -3.5625 V 200 h -2.0625 v -18.9375 z"
         id="path114" />
      <path
         d="m 486.98437,192.9375 q 1.125,0 1.90625,-0.90625 0.78125,-0.9375 0.78125,-2.21875 v -8.75 h -5.625 v 8.75 q 0,1.28125 0.84375,2.21875 0.875,0.90625 2.09375,0.90625 z m 0,2.0625 q -2.09375,0 -3.5625,-1.5 -1.4375,-1.53125 -1.4375,-3.6875 v -8.75 h -2.40625 v -1.875 h 21.75 v 1.875 h -3.53125 V 200 h -2.09375 v -18.9375 h -3.9375 v 8.75 q 0,2.15625 -1.4375,3.6875 -1.40625,1.5 -3.34375,1.5 z"
         id="path116" />
      <path
         d="m 502.23437,189.8125 q 0,-2 1.28125,-3.375 1.28125,-1.40625 3.0625,-1.40625 h 8.125 v -3.96875 h -14.21875 v -1.875 h 19.84375 v 1.875 h -3.53125 V 200 h -2.09375 v -12.90625 h -8.125 q -0.9375,0 -1.625,0.8125 -0.65625,0.78125 -0.65625,1.90625 0,2 1.40625,4.28125 1.4375,2.28125 4,4.4375 l -1.25,1.46875 q -2.9375,-2.5 -4.59375,-5.15625 -1.625,-2.65625 -1.625,-5.03125 z"
         id="path118" />
      <path
         d="m 519.48437,181.0625 v -1.875 h 3.375 l -7.53125,-9.15625 1.4375,-1.25 8.15625,10.40625 h 3.71875 v 1.875 h -3.5625 V 200 h -2.0625 v -18.9375 z"
         id="path120" />
      <path
         d="m 528.73437,204 1.65625,-7.28125 h 3.03125 L 530.29687,204 Z"
         id="path122" />
    </g>
    <g
       aria-label="हिंदीत मन तो वांछतो."
       id="text8">
      <path
         d="m 297.07812,223.78125 v -3.125 h 3.125 v 3.125 z m -20.375,7.28125 v -1.875 h 3.53125 q -0.28125,-0.375 -0.46875,-1.0625 -0.15625,-0.6875 -0.15625,-1.625 0,-2.5 1.9375,-4.25 1.96875,-1.78125 4.71875,-1.78125 3.28125,0 6.4375,2.21875 3.1875,2.21875 5.40625,6.09375 h -2.28125 q -1.75,-3 -4.3125,-4.71875 -2.53125,-1.75 -5.25,-1.75 -1.90625,0 -3.25,1.25 -1.34375,1.21875 -1.34375,2.9375 0,0.9375 0.15625,1.625 0.1875,0.6875 0.46875,1.0625 h 3.5625 v 1.875 h -3.5625 V 250 h -2.0625 v -18.9375 z"
         id="path125" />
      <path
         d="m 285.01562,231.0625 v -1.875 h 17.3125 v 1.875 h -3.34375 v 5 h -8.53125 q -0.40625,0 -0.71875,0.1875 -0.3125,0.1875 -0.3125,0.4375 0,0.84375 0.625,1.625 0.625,0.78125 1.65625,1.28125 0.65625,-0.28125 1.4375,-0.4375 0.8125,-0.1875 1.6875,-0.1875 2.34375,0 3.96875,1.34375 1.65625,1.3125 1.65625,3.25 0,1.0625 -0.4375,1.96875 -0.4375,0.875 -1.25,1.34375 l -1.65625,-1.4375 q 0.59375,-0.34375 0.90625,-0.84375 0.34375,-0.5 0.34375,-1.03125 0,-1.0625 -1.03125,-1.78125 -1.03125,-0.71875 -2.5,-0.71875 -2.25,0 -3.84375,1.03125 -1.5625,1.03125 -1.5625,2.5 0,1.90625 2.6875,3.25 2.6875,1.3125 6.46875,1.3125 l -0.4375,1.875 q -4.46875,0 -7.65625,-1.875 -3.15625,-1.90625 -3.15625,-4.5625 0,-1.21875 0.59375,-2.28125 0.625,-1.0625 1.6875,-1.6875 -1.0625,-0.90625 -1.6875,-1.9375 -0.59375,-1.03125 -0.59375,-2 0,-1.125 0.90625,-1.90625 0.9375,-0.8125 2.21875,-0.8125 h 6.46875 v -2.90625 z"
         id="path127" />
      <path
         d="m 301.23437,231.0625 v -1.875 h 18 v 1.875 h -3.3125 v 5.40625 h -8.125 q -1.21875,0 -2.0625,0.875 -0.84375,0.84375 -0.84375,2.03125 0,2.25 2.375,3.84375 2.375,1.59375 5.75,1.59375 0,-1.46875 0.65625,-2.5 0.65625,-1.0625 1.625,-1.0625 0.6875,0 1.15625,0.5 0.5,0.46875 0.5,1.1875 0,0.8125 -0.5,1.65625 -0.5,0.84375 -1.375,1.4375 l 2.28125,3.96875 -1.875,0.84375 -2.28125,-4.1875 q -4.3125,0 -7.375,-2.125 -3.03125,-2.15625 -3.03125,-5.15625 0,-2.0625 1.4375,-3.5 1.46875,-1.46875 3.5625,-1.46875 h 6.03125 v -3.34375 z"
         id="path129" />
      <path
         d="m 318.39062,231.0625 v -1.875 h 3.53125 q -0.53125,-3 -1.96875,-4.9375 -1.40625,-1.9375 -3.03125,-1.9375 -1.21875,0 -2.0625,0.8125 -0.84375,0.78125 -0.84375,1.90625 0,1 0.4375,2 0.4375,0.96875 1.21875,1.75 h -2.28125 q -0.71875,-0.71875 -1.09375,-1.6875 -0.375,-0.96875 -0.375,-2.0625 0,-1.90625 1.46875,-3.21875 1.4375,-1.34375 3.53125,-1.34375 2.40625,0 4.40625,2.46875 2,2.46875 2.65625,6.25 h 3.5625 v 1.875 h -3.5625 V 250 h -2.0625 v -18.9375 z"
         id="path131" />
      <path
         d="m 328.45312,239.8125 q 0,-2 1.28125,-3.375 1.28125,-1.40625 3.0625,-1.40625 h 8.125 v -3.96875 h -14.21875 v -1.875 h 19.84375 v 1.875 h -3.53125 V 250 h -2.09375 v -12.90625 h -8.125 q -0.9375,0 -1.625,0.8125 -0.65625,0.78125 -0.65625,1.90625 0,2 1.40625,4.28125 1.4375,2.28125 4,4.4375 l -1.25,1.46875 q -2.9375,-2.5 -4.59375,-5.15625 -1.625,-2.65625 -1.625,-5.03125 z"
         id="path133" />
      <path
         d="m 361.39062,237.9375 h 7.5 v -6.875 h -7.5 z m -5.8125,-6.875 v -1.875 h 18.9375 v 1.875 h -3.5625 V 250 h -2.0625 v -10 h -7.5 v 1.46875 q 0,0.5 -0.1875,0.875 -0.1875,0.375 -0.4375,0.375 -0.71875,0 -2.4375,-1.5625 -1.71875,-1.5625 -1.71875,-2.1875 0,-0.40625 0.3125,-0.71875 0.3125,-0.3125 0.71875,-0.3125 h 1.6875 v -6.875 z"
         id="path135" />
      <path
         d="m 374.70312,237.53125 q 0,-0.4375 0.4375,-0.75 0.4375,-0.3125 1.03125,-0.3125 h 11 v -5.40625 h -13.5 v -1.875 h 19.125 v 1.875 h -3.53125 V 250 h -2.09375 v -11.4375 h -6.03125 q -0.5,0 -0.875,0.25 -0.375,0.25 -0.375,0.5625 v 2.09375 q 0,0.5 -0.3125,0.875 -0.3125,0.375 -0.71875,0.375 -0.71875,0 -2.4375,-2.15625 -1.71875,-2.1875 -1.71875,-3.03125 z"
         id="path137" />
      <path
         d="m 403.57812,239.8125 q 0,-2 1.28125,-3.375 1.28125,-1.40625 3.0625,-1.40625 h 8.125 v -3.96875 h -14.21875 v -1.875 h 19.84375 v 1.875 h -3.53125 V 250 h -2.09375 v -12.90625 h -8.125 q -0.9375,0 -1.625,0.8125 -0.65625,0.78125 -0.65625,1.90625 0,2 1.40625,4.28125 1.4375,2.28125 4,4.4375 l -1.25,1.46875 q -2.9375,-2.5 -4.59375,-5.15625 -1.625,-2.65625 -1.625,-5.03125 z"
         id="path139" />
      <path
         d="m 420.82812,231.0625 v -1.875 h 3.375 l -7.53125,-9.15625 1.4375,-1.25 8.15625,10.40625 h 3.71875 v 1.875 h -3.5625 V 250 h -2.0625 v -18.9375 z"
         id="path141" />
      <path
         d="m 439.01562,231.0625 v -1.875 h 17.8125 v 1.875 h -3.5625 V 250 h -2.0625 v -6.65625 q -0.84375,1 -2,1.5625 -1.125,0.53125 -2.375,0.53125 -2.59375,0 -4.4375,-1.65625 -1.8125,-1.65625 -1.8125,-3.96875 0,-2.34375 1.8125,-3.96875 1.84375,-1.65625 4.4375,-1.65625 0.75,0 1.4375,0.21875 0.6875,0.1875 1.28125,0.625 l -1.0625,1.65625 q -0.375,-0.28125 -0.78125,-0.4375 -0.40625,-0.1875 -0.875,-0.1875 -1.71875,0 -2.9375,1.09375 -1.21875,1.09375 -1.21875,2.65625 0,1.4375 1.21875,2.5 1.21875,1.03125 2.9375,1.03125 1.21875,0 2.375,-0.8125 1.15625,-0.84375 2,-2.3125 v -9.15625 z"
         id="path143" />
      <path
         d="m 455.98437,231.0625 v -1.875 h 9.15625 v 1.875 h -3.5625 V 250 h -2.0625 v -18.9375 z"
         id="path145" />
      <path
         d="m 459.17187,224 v -2.90625 h 3.125 V 224 Z"
         id="path147" />
      <path
         d="m 481.04687,243.125 q 1.1875,-0.8125 1.84375,-2.03125 0.65625,-1.21875 0.65625,-2.53125 0,-0.96875 -0.71875,-1.625 -0.71875,-0.65625 -1.78125,-0.65625 -0.9375,0 -1.625,0.71875 -0.65625,0.71875 -0.65625,1.75 0,1.3125 0.59375,2.46875 0.625,1.15625 1.6875,1.90625 z m -6.65625,3.75 q 1.34375,0 2.65625,-0.53125 1.34375,-0.53125 2.5625,-1.53125 -1.4375,-1.4375 -2.1875,-3 -0.71875,-1.5625 -0.71875,-3.0625 0,-1.71875 0.90625,-3 0.9375,-1.3125 2.40625,-1.5625 v -3.125 h -10 q -0.78125,0.65625 -1.21875,1.46875 -0.4375,0.8125 -0.4375,1.65625 0,1.21875 1.09375,2.0625 1.125,0.84375 2.65625,0.84375 h 2.28125 v 2.09375 h -1.65625 q -1.375,0 -2.375,1.15625 -0.96875,1.15625 -0.96875,2.78125 0,1.5625 1.46875,2.65625 1.46875,1.09375 3.53125,1.09375 z m 0,2.09375 q -2.90625,0 -5,-1.6875 -2.0625,-1.71875 -2.0625,-4.15625 0,-1.5 0.59375,-2.75 0.625,-1.28125 1.6875,-2.03125 -1.53125,-0.6875 -2.4375,-1.8125 -0.875,-1.125 -0.875,-2.34375 0,-1.03125 0.3125,-1.875 0.34375,-0.84375 0.9375,-1.25 h -3.25 v -1.875 h 23 v 1.875 h -5.1875 v 3.125 q 1.53125,0.28125 2.53125,1.53125 1,1.21875 1,2.84375 0,3.65625 -3.65625,7.03125 -3.625,3.375 -7.59375,3.375 z"
         id="path149" />
      <path
         d="m 488.20312,239.8125 q 0,-2 1.28125,-3.375 1.28125,-1.40625 3.0625,-1.40625 h 8.125 v -3.96875 h -14.21875 v -1.875 h 19.84375 v 1.875 h -3.53125 V 250 h -2.09375 v -12.90625 h -8.125 q -0.9375,0 -1.625,0.8125 -0.65625,0.78125 -0.65625,1.90625 0,2 1.40625,4.28125 1.4375,2.28125 4,4.4375 l -1.25,1.46875 q -2.9375,-2.5 -4.59375,-5.15625 -1.625,-2.65625 -1.625,-5.03125 z"
         id="path151" />
      <path
         d="m 505.45312,231.0625 v -1.875 h 3.375 l -7.53125,-9.15625 1.4375,-1.25 8.15625,10.40625 h 3.71875 v 1.875 h -3.5625 V 250 h -2.0625 v -18.9375 z"
         id="path153" />
      <path
         d="m 516.51562,250 v -3.28125 h 2.65625 V 250 Z"
         id="path155" />
    </g>
  </g>
</svg>
