<?xml version="1.0" encoding="UTF-8" standalone="no"?>
<svg
   width="800"
   height="350"
   version="1.1"
   id="svg12"
   sodipodi:docname="ChotuRunning.svg"
   xmlns:inkscape="http://www.inkscape.org/namespaces/inkscape"
   xmlns:sodipodi="http://sodipodi.sourceforge.net/DTD/sodipodi-0.dtd"
   xmlns="http://www.w3.org/2000/svg"
   xmlns:svg="http://www.w3.org/2000/svg">
  <defs
     id="defs16" />
  <sodipodi:namedview
     id="namedview14"
     pagecolor="#ffffff"
     bordercolor="#000000"
     borderopacity="0.25"
     inkscape:showpageshadow="2"
     inkscape:pageopacity="0.0"
     inkscape:pagecheckerboard="0"
     inkscape:deskcolor="#d1d1d1" />
  <g
     font-family="Lohit Devanagari"
     font-size="32"
     text-anchor="middle"
     fill="#000"
     id="g10">
    <g
       aria-label="चोटू लागली, पाय जळला,"
       id="text2">
      <path
         d="m 251.29687,81.0625 v -1.875 h 20.75 v 1.875 h -3.53125 V 100 h -2.09375 v -7.5 q -1.25,1.75 -2.71875,2.75 -1.46875,1 -2.875,1 -2.09375,0 -3.5625,-1.4375 -1.4375,-1.46875 -1.4375,-3.5625 0,-1.5 0.59375,-2.71875 0.59375,-1.21875 1.6875,-1.84375 h -6.03125 v -2.09375 h 12.28125 v 2.09375 h -2.90625 q -1.59375,0.59375 -2.59375,1.84375 -0.96875,1.21875 -0.96875,2.71875 0,1.21875 0.84375,2.09375 0.875,0.84375 2.09375,0.84375 1.3125,0 2.8125,-1.28125 1.5,-1.3125 2.78125,-3.53125 v -8.3125 z"
         id="path18" />
      <path
         d="m 271.20312,81.0625 v -1.875 h 3.375 l -7.53125,-9.15625 1.4375,-1.25 8.15625,10.40625 h 3.71875 v 1.875 h -3.5625 V 100 h -2.0625 V 81.0625 Z"
         id="path20" />
      <path
         d="m 290.07812,99.59375 q -3.625,0 -6.1875,-2.5625 -2.5625,-2.5625 -2.5625,-6.1875 0,-2.34375 1.4375,-3.96875 1.46875,-1.65625 3.5625,-1.65625 h 5.625 V 81.0625 h -12.4375 v -1.875 h 18.5 v 1.875 h -4 v 6.25 h -7.6875 q -1.21875,0 -2.0625,1.03125 -0.84375,1.03125 -0.84375,2.5 0,2.75 1.9375,4.71875 1.96875,1.9375 4.71875,1.9375 1.75,0 3.1875,-0.78125 1.4375,-0.78125 2.21875,-2.125 l 1.65625,1.4375 q -0.9375,1.625 -2.84375,2.59375 -1.90625,0.96875 -4.21875,0.96875 z"
         id="path22" />
      <path
         d="m 289.32812,108.65625 q -1.78125,0 -3.0625,-1.3125 -1.3125,-1.28125 -1.3125,-3.0625 0,-2.0625 1.53125,-3.53125 1.5,-1.46875 3.65625,-1.46875 2.71875,0 5.21875,2.34375 2.53125,2.375 3.9375,6.1875 l -1.84375,0.84375 q -1.21875,-3.28125 -3.21875,-5.28125 -2,-2 -4.09375,-2 -1.28125,0 -2.1875,0.84375 -0.90625,0.875 -0.90625,2.0625 0,0.96875 0.65625,1.625 0.65625,0.65625 1.625,0.65625 0.5,0 1.09375,-0.28125 0.59375,-0.25 1.1875,-0.75 l 1.03125,1.875 q -0.875,0.625 -1.71875,0.9375 -0.84375,0.3125 -1.59375,0.3125 z"
         id="path24" />
      <path
         d="m 307.04687,81.0625 v -1.875 h 23.53125 v 1.875 h -3.53125 V 100 h -2.0625 V 87.53125 q -1.8125,0 -3.375,1.625 -1.5625,1.59375 -2.25,4.1875 l -1.875,-0.625 q 0.15625,-1 0.5,-1.8125 0.34375,-0.8125 0.75,-1.3125 -0.65625,-1 -1.65625,-1.53125 -1,-0.53125 -2.09375,-0.53125 -1.71875,0 -2.9375,1.21875 -1.21875,1.21875 -1.21875,2.9375 0,1.875 1.875,3.71875 1.90625,1.8125 5,2.9375 l -0.84375,1.875 q -3.65625,-1.34375 -5.90625,-3.6875 -2.21875,-2.34375 -2.21875,-4.84375 0,-2.59375 1.8125,-4.40625 1.84375,-1.84375 4.4375,-1.84375 1.53125,0 2.90625,0.625 1.375,0.59375 2.28125,1.65625 0.9375,-1.0625 2.1875,-1.65625 1.25,-0.625 2.625,-0.625 v -4.375 z"
         id="path26" />
      <path
         d="m 329.76562,81.0625 v -1.875 h 9.15625 v 1.875 h -3.5625 V 100 h -2.0625 V 81.0625 Z"
         id="path28" />
      <path
         d="m 338.07812,81.0625 v -1.875 h 17 v 1.875 h -3.53125 V 100 h -2.0625 V 81.0625 h -5.21875 V 91.25 q 0,0.5 -0.3125,0.875 -0.3125,0.375 -0.71875,0.375 -0.78125,0 -2.46875,-1.9375 -1.6875,-1.96875 -1.6875,-2.84375 0,-0.3125 0.25,-0.5625 0.25,-0.25 0.5625,-0.25 h 1.46875 q 0.34375,0 0.59375,-0.3125 0.25,-0.3125 0.25,-0.75 V 81.0625 Z"
         id="path30" />
      <path
         d="m 354.23437,81.0625 v -1.875 h 23.53125 v 1.875 h -3.53125 V 100 h -2.0625 V 87.53125 q -1.8125,0 -3.375,1.625 -1.5625,1.59375 -2.25,4.1875 l -1.875,-0.625 q 0.15625,-1 0.5,-1.8125 0.34375,-0.8125 0.75,-1.3125 -0.65625,-1 -1.65625,-1.53125 -1,-0.53125 -2.09375,-0.53125 -1.71875,0 -2.9375,1.21875 -1.21875,1.21875 -1.21875,2.9375 0,1.875 1.875,3.71875 1.90625,1.8125 5,2.9375 l -0.84375,1.875 q -3.65625,-1.34375 -5.90625,-3.6875 -2.21875,-2.34375 -2.21875,-4.84375 0,-2.59375 1.8125,-4.40625 1.84375,-1.84375 4.4375,-1.84375 1.53125,0 2.90625,0.625 1.375,0.59375 2.28125,1.65625 0.9375,-1.0625 2.1875,-1.65625 1.25,-0.625 2.625,-0.625 v -4.375 z"
         id="path32" />
      <path
         d="m 376.95312,81.0625 v -1.875 h 3.53125 q -0.53125,-3 -1.96875,-4.9375 -1.40625,-1.9375 -3.03125,-1.9375 -1.21875,0 -2.0625,0.8125 -0.84375,0.78125 -0.84375,1.90625 0,1 0.4375,2 0.4375,0.96875 1.21875,1.75 h -2.28125 q -0.71875,-0.71875 -1.09375,-1.6875 -0.375,-0.96875 -0.375,-2.0625 0,-1.90625 1.46875,-3.21875 1.4375,-1.34375 3.53125,-1.34375 2.40625,0 4.40625,2.46875 2,2.46875 2.65625,6.25 h 3.5625 v 1.875 h -3.5625 V 100 h -2.0625 V 81.0625 Z"
         id="path34" />
      <path
         d="m 386.20312,104 1.65625,-7.28125 h 3.03125 L 387.76562,104 Z"
         id="path36" />
      <path
         d="m 414.17187,91.875 q 1.28125,0 2.40625,-0.78125 1.125,-0.78125 1.75,-2.125 V 81.0625 h -7.6875 v 7.5 q 0,1.375 1.03125,2.34375 1.03125,0.96875 2.5,0.96875 z m -5.625,-3.3125 v -7.5 h -2.1875 v -1.875 h 17.59375 v 1.875 h -3.53125 V 100 h -2.09375 v -7.90625 q -0.90625,0.90625 -2,1.40625 -1.0625,0.46875 -2.15625,0.46875 -2.34375,0 -4,-1.5625 -1.625,-1.59375 -1.625,-3.84375 z"
         id="path38" />
      <path
         d="m 423.10937,81.0625 v -1.875 h 9.15625 v 1.875 h -3.5625 V 100 h -2.0625 V 81.0625 Z"
         id="path40" />
      <path
         d="m 439.85937,93.96875 q 1.625,0 3.0625,-0.875 1.46875,-0.90625 2.34375,-2.46875 v -9.5625 h -7.0625 q 0.78125,0.96875 1.21875,2.0625 0.4375,1.0625 0.4375,2.09375 0,1.8125 -1.4375,3.21875 -1.40625,1.40625 -3.5625,1.78125 0.3125,1.625 1.71875,2.6875 1.40625,1.0625 3.28125,1.0625 z m -8.4375,-12.90625 v -1.875 h 19.46875 v 1.875 h -3.53125 V 100 h -2.09375 v -6.4375 q -1.21875,1.1875 -2.625,1.84375 -1.375,0.625 -2.78125,0.625 -3,0 -5.15625,-2.15625 -2.125,-2.1875 -2.125,-5.3125 2.375,0 3.78125,-0.90625 1.40625,-0.9375 1.40625,-2.4375 0,-1 -0.53125,-2.0625 -0.53125,-1.09375 -1.53125,-2.09375 z"
         id="path42" />
      <path
         d="m 469.98437,97.5 q -2.25,0 -4.6875,-3 -2.4375,-3.03125 -4.25,-8.03125 l 1.875,-0.8125 q 1.59375,4.4375 3.53125,7.125 1.9375,2.65625 3.53125,2.65625 1.03125,0 1.75,-0.78125 0.75,-0.8125 0.75,-1.9375 0,-1.78125 -0.9375,-3.65625 -0.90625,-1.90625 -2.59375,-3.625 h 8.9375 v -4.375 h -17.96875 v -1.875 h 23.59375 v 1.875 h -3.53125 V 100 h -2.09375 V 87.53125 h -5 q 0.84375,1.15625 1.25,2.5 0.40625,1.3125 0.40625,2.6875 0,2 -1.34375,3.40625 -1.3125,1.375 -3.21875,1.375 z"
         id="path44" />
      <path
         d="m 499.42187,95.84375 q 1.3125,0 2.21875,-1.3125 0.90625,-1.34375 0.90625,-3.28125 0,-1.78125 -0.90625,-3.0625 -0.90625,-1.28125 -2.21875,-1.28125 -1.125,0 -2.1875,1.21875 -1.0625,1.21875 -1.5625,3.125 0.75,2.09375 1.78125,3.34375 1.0625,1.25 1.96875,1.25 z M 490.07812,95.625 q 0.90625,0 1.875,-1.125 1,-1.15625 1.65625,-3.03125 -0.53125,-2.03125 -1.53125,-3.28125 -0.96875,-1.28125 -2,-1.28125 -1.46875,0 -2.5,1.34375 -1.03125,1.3125 -1.03125,3.1875 0,1.75 1.03125,2.96875 1.03125,1.21875 2.5,1.21875 z m -7.40625,-14.5625 v -1.875 h 23.78125 v 1.875 h -6.1875 v 3.96875 q 1.90625,0.3125 3.125,2.09375 1.25,1.75 1.25,4.125 0,2.6875 -1.53125,4.59375 -1.5,1.875 -3.6875,1.875 -1.28125,0 -2.59375,-1.125 -1.3125,-1.125 -2.1875,-3.03125 -0.875,1.90625 -2.125,3.03125 -1.25,1.125 -2.4375,1.125 -2.34375,0 -4,-1.8125 -1.625,-1.84375 -1.625,-4.46875 0,-2.6875 1.625,-4.53125 1.65625,-1.875 4,-1.875 1.4375,0 2.6875,1.03125 1.25,1 1.875,2.6875 0.59375,-1.53125 1.53125,-2.53125 0.9375,-1 2,-1.1875 V 81.0625 Z"
         id="path46" />
      <path
         d="m 505.64062,81.0625 v -1.875 h 23.53125 v 1.875 h -3.53125 V 100 h -2.0625 V 87.53125 q -1.8125,0 -3.375,1.625 -1.5625,1.59375 -2.25,4.1875 l -1.875,-0.625 q 0.15625,-1 0.5,-1.8125 0.34375,-0.8125 0.75,-1.3125 -0.65625,-1 -1.65625,-1.53125 -1,-0.53125 -2.09375,-0.53125 -1.71875,0 -2.9375,1.21875 -1.21875,1.21875 -1.21875,2.9375 0,1.875 1.875,3.71875 1.90625,1.8125 5,2.9375 l -0.84375,1.875 q -3.65625,-1.34375 -5.90625,-3.6875 -2.21875,-2.34375 -2.21875,-4.84375 0,-2.59375 1.8125,-4.40625 1.84375,-1.84375 4.4375,-1.84375 1.53125,0 2.90625,0.625 1.375,0.59375 2.28125,1.65625 0.9375,-1.0625 2.1875,-1.65625 1.25,-0.625 2.625,-0.625 v -4.375 z"
         id="path48" />
      <path
         d="m 528.35937,81.0625 v -1.875 h 9.15625 v 1.875 h -3.5625 V 100 h -2.0625 V 81.0625 Z"
         id="path50" />
      <path
         d="m 537.60937,104 1.65625,-7.28125 h 3.03125 L 539.17187,104 Z"
         id="path52" />
    </g>
    <g
       aria-label="धावणे थांबले, श्वास गेला."
       id="text4">
      <path
         d="m 267.4375,146.46875 q -2.34375,0 -4,-1.28125 -1.625,-1.3125 -1.625,-3.09375 0,-1.125 0.4375,-2.0625 0.4375,-0.9375 1.21875,-1.46875 -1.65625,-1.15625 -2.59375,-2.65625 -0.9375,-1.5 -0.9375,-2.96875 0,-1.78125 1.21875,-3.0625 1.25,-1.3125 2.9375,-1.3125 1.78125,0 2.875,0.96875 1.09375,0.9375 1.09375,2.5625 0,1.375 -1.125,2.375 -1.09375,0.96875 -2.625,0.96875 v -2.09375 q 0.6875,0 1.15625,-0.375 0.5,-0.375 0.5,-0.875 0,-0.5625 -0.5625,-1 -0.53125,-0.4375 -1.3125,-0.4375 -0.875,0 -1.46875,0.65625 -0.59375,0.65625 -0.59375,1.625 0,1.21875 0.8125,2.375 0.84375,1.15625 2.28125,2 0.6875,-0.28125 1.46875,-0.4375 0.78125,-0.1875 1.65625,-0.1875 h 1.25 l 1.25,2.0625 h -2.28125 q -1.90625,0 -3.25,1 -1.34375,0.96875 -1.34375,2.34375 0,0.96875 1.03125,1.625 1.0625,0.65625 2.53125,0.65625 1.65625,0 3.34375,-1.09375 1.71875,-1.09375 3.09375,-3.0625 v -9.15625 h -4.5625 v -1.875 H 279.5 v 1.875 h -3.53125 V 150 H 273.875 v -6.875 q -1.34375,1.59375 -3.03125,2.46875 -1.65625,0.875 -3.40625,0.875 z"
         id="path55" />
      <path
         d="m 278.65625,131.0625 v -1.875 h 9.15625 v 1.875 H 284.25 V 150 h -2.0625 v -18.9375 z"
         id="path57" />
      <path
         d="m 286.96875,131.0625 v -1.875 h 17.8125 v 1.875 h -3.5625 V 150 h -2.0625 v -6.65625 q -0.84375,1 -2,1.5625 -1.125,0.53125 -2.375,0.53125 -2.59375,0 -4.4375,-1.65625 -1.8125,-1.65625 -1.8125,-3.96875 0,-2.34375 1.8125,-3.96875 1.84375,-1.65625 4.4375,-1.65625 0.75,0 1.4375,0.21875 0.6875,0.1875 1.28125,0.625 l -1.0625,1.65625 q -0.375,-0.28125 -0.78125,-0.4375 -0.40625,-0.1875 -0.875,-0.1875 -1.71875,0 -2.9375,1.09375 -1.21875,1.09375 -1.21875,2.65625 0,1.4375 1.21875,2.5 1.21875,1.03125 2.9375,1.03125 1.21875,0 2.375,-0.8125 1.15625,-0.84375 2,-2.3125 v -9.15625 z"
         id="path59" />
      <path
         d="m 311.34375,142.9375 q 1.125,0 1.90625,-0.90625 0.78125,-0.9375 0.78125,-2.21875 v -8.75 h -5.625 v 8.75 q 0,1.28125 0.84375,2.21875 0.875,0.90625 2.09375,0.90625 z m 0,2.0625 q -2.09375,0 -3.5625,-1.5 -1.4375,-1.53125 -1.4375,-3.6875 v -8.75 h -2.40625 v -1.875 h 21.75 v 1.875 h -3.53125 V 150 h -2.09375 v -18.9375 h -3.9375 v 8.75 q 0,2.15625 -1.4375,3.6875 -1.40625,1.5 -3.34375,1.5 z"
         id="path61" />
      <path
         d="m 319.75,129.1875 -7.6875,-9.15625 1.4375,-1.25 8.3125,10.40625 z"
         id="path63" />
      <path
         d="m 344.5,145.84375 q -2.96875,0 -5.28125,-2.0625 -2.3125,-2.0625 -2.84375,-5.21875 0.34375,0.125 1.03125,0.15625 0.71875,0.0312 2.09375,0.0312 2.25,0 3.8125,-1.28125 1.59375,-1.28125 1.59375,-3.0625 0,-1.5625 -1,-2.65625 -0.96875,-1.09375 -2.34375,-1.09375 -1.1875,0 -2.0625,0.65625 -0.84375,0.65625 -0.84375,1.625 0,0.78125 0.71875,1.34375 0.75,0.53125 1.78125,0.53125 v 2.09375 q -2.0625,0 -3.3125,-1.09375 -1.25,-1.09375 -1.25,-2.875 0,-1.78125 1.4375,-3.0625 1.46875,-1.3125 3.53125,-1.3125 2.25,0 3.84375,1.71875 1.59375,1.6875 1.59375,4.125 0,2.65625 -2.25,4.5625 -2.25,1.875 -5.46875,1.875 0.625,1.34375 2.03125,2.125 1.4375,0.78125 3.1875,0.78125 1.6875,0 3.46875,-1.03125 1.8125,-1.03125 3.375,-2.90625 v -8.75 h -2.0625 v -1.875 h 7.6875 v 1.875 H 353.4375 V 150 h -2.09375 v -7.5 q -1.5625,1.59375 -3.375,2.46875 -1.78125,0.875 -3.46875,0.875 z"
         id="path65" />
      <path
         d="m 356.125,131.0625 v -1.875 h 9.15625 v 1.875 h -3.5625 V 150 h -2.0625 v -18.9375 z"
         id="path67" />
      <path
         d="m 359.3125,124 v -2.90625 h 3.125 V 124 Z"
         id="path69" />
      <path
         d="m 371.875,143.34375 q 0.75,0 1.375,-0.1875 0.625,-0.21875 1.125,-0.65625 l -5.625,-4.5625 q -0.28125,0.375 -0.46875,0.90625 -0.15625,0.5 -0.15625,1.15625 0,1.375 1.09375,2.375 1.125,0.96875 2.65625,0.96875 z M 366.0625,140 q 0,-2.46875 1.8125,-4.25 1.84375,-1.78125 4.40625,-1.78125 0.8125,0 1.5,0.1875 0.6875,0.15625 1.21875,0.4375 l -0.625,1.6875 q -0.46875,-0.21875 -1,-0.3125 -0.5,-0.125 -1.09375,-0.125 -0.90625,0 -1.5625,0.25 -0.625,0.21875 -0.9375,0.59375 l 6.0625,4.5625 0.625,-0.8125 v -9.375 H 364.4375 v -1.875 h 17.625 v 1.875 h -3.53125 V 150 h -2.0625 v -6.65625 q -1,1 -2.1875,1.5625 -1.1875,0.53125 -2.40625,0.53125 -2.40625,0 -4.125,-1.59375 Q 366.0625,142.25 366.0625,140 Z"
         id="path71" />
      <path
         d="m 381.21875,131.0625 v -1.875 H 404.75 v 1.875 h -3.53125 V 150 h -2.0625 v -12.46875 q -1.8125,0 -3.375,1.625 -1.5625,1.59375 -2.25,4.1875 l -1.875,-0.625 q 0.15625,-1 0.5,-1.8125 0.34375,-0.8125 0.75,-1.3125 -0.65625,-1 -1.65625,-1.53125 -1,-0.53125 -2.09375,-0.53125 -1.71875,0 -2.9375,1.21875 Q 385,139.96875 385,141.6875 q 0,1.875 1.875,3.71875 1.90625,1.8125 5,2.9375 l -0.84375,1.875 q -3.65625,-1.34375 -5.90625,-3.6875 -2.21875,-2.34375 -2.21875,-4.84375 0,-2.59375 1.8125,-4.40625 1.84375,-1.84375 4.4375,-1.84375 1.53125,0 2.90625,0.625 1.375,0.59375 2.28125,1.65625 0.9375,-1.0625 2.1875,-1.65625 1.25,-0.625 2.625,-0.625 v -4.375 z"
         id="path73" />
      <path
         d="m 398.8125,129.1875 -7.6875,-9.15625 1.4375,-1.25 8.3125,10.40625 z"
         id="path75" />
      <path
         d="m 404.875,154 1.65625,-7.28125 h 3.03125 L 406.4375,154 Z"
         id="path77" />
      <path
         d="m 433.09375,134.40625 q 0.78125,-0.46875 1.21875,-1.03125 0.4375,-0.5625 0.4375,-1.0625 0,-0.71875 -0.59375,-1.1875 -0.59375,-0.46875 -1.46875,-0.46875 -0.8125,0 -1.34375,0.4375 -0.53125,0.4375 -0.53125,1 0,0.6875 0.625,1.3125 0.625,0.625 1.65625,1 z m -1.90625,11.53125 q -1.625,-1.1875 -1.625,-2.8125 0,-1.625 1.625,-2.78125 1.65625,-1.15625 4,-1.15625 0.75,0 1.59375,0.28125 0.84375,0.25 1.71875,0.75 l -0.625,1.65625 q -0.875,-0.40625 -1.5625,-0.59375 -0.6875,-0.21875 -1.125,-0.21875 -1.46875,0 -2.53125,0.59375 -1.03125,0.59375 -1.03125,1.46875 0,0.8125 1.03125,1.34375 1.0625,0.53125 2.53125,0.53125 1.4375,0 2.65625,-0.65625 1.25,-0.65625 1.90625,-1.84375 v -3.53125 l -6.4375,-2.5 -6.46875,3.53125 -1.03125,-1.65625 5.40625,-2.90625 q -1.125,-0.53125 -1.8125,-1.4375 -0.6875,-0.90625 -0.6875,-1.90625 0,-1.375 1.21875,-2.34375 1.25,-0.96875 2.9375,-0.96875 1.625,0 2.78125,1.03125 1.1875,1.03125 1.1875,2.5 0,0.625 -0.5,1.40625 -0.5,0.75 -1.375,1.5 l 4.78125,1.875 v -6.03125 h -1.46875 v -1.875 h 7.09375 v 1.875 h -3.53125 V 150 H 439.75 v -5.1875 q -0.75,1.0625 -1.96875,1.6875 -1.1875,0.59375 -2.59375,0.59375 -2.34375,0 -4,-1.15625 z"
         id="path79" />
      <path
         d="m 444.53125,131.0625 v -1.875 h 9.15625 v 1.875 H 450.125 V 150 h -2.0625 v -18.9375 z"
         id="path81" />
      <path
         d="m 452.84375,131.0625 v -1.875 h 23 v 1.875 H 472.3125 V 150 h -2.09375 v -10 h -8.875 q -0.84375,0.625 -1.9375,0.625 -0.25,0 -0.5,-0.0625 -0.21875,-0.0625 -0.34375,-0.125 l 6.25,8.71875 -1.65625,1.0625 -9.375,-13.3125 1.6875,-1.25 q 0.65625,1.40625 1.53125,2.25 0.90625,0.84375 1.78125,0.84375 0.875,0 1.46875,-0.59375 0.625,-0.59375 0.625,-1.46875 v -5.625 z m 9.90625,6.875 h 7.46875 v -6.875 h -7.28125 v 5.625 q 0,0.65625 -0.1875,1.25 z"
         id="path83" />
      <path
         d="m 484.875,131.0625 v -1.875 h 17 v 1.875 h -3.53125 V 150 h -2.0625 V 131.0625 H 491.0625 V 141.25 q 0,0.5 -0.3125,0.875 -0.3125,0.375 -0.71875,0.375 -0.78125,0 -2.46875,-1.9375 -1.6875,-1.96875 -1.6875,-2.84375 0,-0.3125 0.25,-0.5625 0.25,-0.25 0.5625,-0.25 h 1.46875 q 0.34375,0 0.59375,-0.3125 0.25,-0.3125 0.25,-0.75 v -4.78125 z"
         id="path85" />
      <path
         d="m 495.875,129.1875 -7.6875,-9.15625 1.4375,-1.25 8.3125,10.40625 z"
         id="path87" />
      <path
         d="m 501.03125,131.0625 v -1.875 h 23.53125 v 1.875 h -3.53125 V 150 h -2.0625 v -12.46875 q -1.8125,0 -3.375,1.625 -1.5625,1.59375 -2.25,4.1875 l -1.875,-0.625 q 0.15625,-1 0.5,-1.8125 0.34375,-0.8125 0.75,-1.3125 -0.65625,-1 -1.65625,-1.53125 -1,-0.53125 -2.09375,-0.53125 -1.71875,0 -2.9375,1.21875 -1.21875,1.21875 -1.21875,2.9375 0,1.875 1.875,3.71875 1.90625,1.8125 5,2.9375 l -0.84375,1.875 q -3.65625,-1.34375 -5.90625,-3.6875 -2.21875,-2.34375 -2.21875,-4.84375 0,-2.59375 1.8125,-4.40625 1.84375,-1.84375 4.4375,-1.84375 1.53125,0 2.90625,0.625 1.375,0.59375 2.28125,1.65625 0.9375,-1.0625 2.1875,-1.65625 1.25,-0.625 2.625,-0.625 v -4.375 z"
         id="path89" />
      <path
         d="m 523.75,131.0625 v -1.875 h 9.15625 v 1.875 h -3.5625 V 150 h -2.0625 v -18.9375 z"
         id="path91" />
      <path
         d="m 534.8125,150 v -3.28125 h 2.65625 V 150 Z"
         id="path93" />
    </g>
    <g
       aria-label="आराम करा, मनाला सांग,"
       id="text6">
      <path
         d="m 263.51562,198.53125 q -2.5,0 -4.84375,-2.0625 -2.34375,-2.09375 -4.09375,-5.84375 l 1.46875,-1.25 q 1.5625,3.375 3.5,5.25 1.96875,1.84375 3.96875,1.84375 1.3125,0 2.21875,-1.09375 0.90625,-1.125 0.90625,-2.65625 0,-1.46875 -1.03125,-2.5 -1.03125,-1.03125 -2.5,-1.03125 -0.46875,0 -1,0.0937 -0.5,0.0937 -1.09375,0.3125 l -0.8125,-1.875 q 1.875,-0.15625 3.3125,-1.34375 1.46875,-1.21875 1.46875,-2.59375 0,-1.125 -0.875,-1.90625 -0.84375,-0.8125 -2.03125,-0.8125 -1,0 -2.21875,0.78125 -1.21875,0.75 -2.375,2.125 l -1.4375,-1.4375 q 1.0625,-1.59375 2.65625,-2.46875 1.625,-0.875 3.375,-0.875 2.0625,0 3.5,1.34375 1.46875,1.3125 1.46875,3.25 0,1.125 -0.5,2.15625 -0.5,1.03125 -1.34375,1.78125 1.40625,0.84375 2.78125,1.25 1.375,0.40625 2.625,0.40625 0.3125,0 0.84375,-0.1875 0.53125,-0.21875 1.21875,-0.625 v -7.5 h -3.75 v -1.875 h 17.90625 v 1.875 h -3.53125 V 200 h -2.09375 v -18.9375 h -6.4375 V 200 h -2.09375 v -9.375 q -0.5,0.4375 -1.03125,0.65625 -0.5,0.1875 -1.03125,0.1875 -0.875,0 -1.59375,-0.15625 -0.71875,-0.1875 -1.125,-0.46875 0.40625,0.34375 0.625,0.9375 0.21875,0.59375 0.21875,1.34375 0,2.25 -1.53125,3.84375 -1.5,1.5625 -3.6875,1.5625 z"
         id="path96" />
      <path
         d="m 285.98437,181.0625 v -1.875 h 14.46875 v 1.875 h -2.8125 v 4.78125 q 0,1.9375 -1.3125,3.28125 -1.28125,1.3125 -3.0625,1.3125 -0.25,0 -0.6875,-0.0937 -0.40625,-0.125 -1,-0.34375 1.34375,2.34375 3.15625,4.5 1.84375,2.125 4.125,4.03125 L 297.64062,200 q -3.34375,-2.78125 -6.03125,-6.3125 -2.6875,-3.5625 -4.59375,-7.625 l 1.875,-1.03125 q 0.53125,1.5 1.71875,2.40625 1.21875,0.90625 2.65625,0.90625 0.9375,0 1.59375,-0.71875 0.6875,-0.71875 0.6875,-1.78125 v -4.78125 z"
         id="path98" />
      <path
         d="m 299.60937,181.0625 v -1.875 h 9.15625 v 1.875 h -3.5625 V 200 h -2.0625 v -18.9375 z"
         id="path100" />
      <path
         d="m 313.73437,187.9375 h 7.5 v -6.875 h -7.5 z m -5.8125,-6.875 v -1.875 h 18.9375 v 1.875 h -3.5625 V 200 h -2.0625 v -10 h -7.5 v 1.46875 q 0,0.5 -0.1875,0.875 -0.1875,0.375 -0.4375,0.375 -0.71875,0 -2.4375,-1.5625 -1.71875,-1.5625 -1.71875,-2.1875 0,-0.40625 0.3125,-0.71875 0.3125,-0.3125 0.71875,-0.3125 h 1.6875 v -6.875 z"
         id="path102" />
      <path
         d="m 335.89062,181.0625 v -1.875 h 24.25 v 1.875 h -11 v 5.625 q 0.6875,-1.15625 1.84375,-1.8125 1.15625,-0.6875 2.53125,-0.6875 2,0 3.375,1.65625 1.40625,1.625 1.40625,3.96875 0,2 -1.03125,3.96875 -1.03125,1.9375 -2.90625,3.5 l -1.875,-1.25 q 1.75,-1.21875 2.75,-2.875 1,-1.65625 1,-3.34375 0,-1.46875 -0.8125,-2.5 -0.78125,-1.03125 -1.90625,-1.03125 -1.4375,0 -2.6875,1.09375 -1.21875,1.09375 -1.6875,2.84375 V 200 h -2.0625 v -6.25 q -0.75,0.875 -1.84375,1.375 -1.0625,0.5 -2.3125,0.5 -2.25,0 -3.84375,-1.5625 -1.5625,-1.59375 -1.5625,-3.84375 0,-2.5 1.8125,-4.25 1.84375,-1.78125 4.40625,-1.78125 0.75,0 1.28125,0.125 0.5625,0.0937 0.8125,0.28125 l -0.40625,2.09375 q -0.375,-0.21875 -0.8125,-0.3125 -0.40625,-0.0937 -0.875,-0.0937 -1.6875,0 -2.9375,1.15625 -1.21875,1.15625 -1.21875,2.78125 0,1.375 0.96875,2.375 1,0.96875 2.375,0.96875 1.1875,0 2.3125,-0.71875 1.125,-0.75 1.84375,-2 v -9.78125 z"
         id="path104" />
      <path
         d="m 359.29687,181.0625 v -1.875 h 14.46875 v 1.875 h -2.8125 v 4.78125 q 0,1.9375 -1.3125,3.28125 -1.28125,1.3125 -3.0625,1.3125 -0.25,0 -0.6875,-0.0937 -0.40625,-0.125 -1,-0.34375 1.34375,2.34375 3.15625,4.5 1.84375,2.125 4.125,4.03125 L 370.95312,200 q -3.34375,-2.78125 -6.03125,-6.3125 -2.6875,-3.5625 -4.59375,-7.625 l 1.875,-1.03125 q 0.53125,1.5 1.71875,2.40625 1.21875,0.90625 2.65625,0.90625 0.9375,0 1.59375,-0.71875 0.6875,-0.71875 0.6875,-1.78125 v -4.78125 z"
         id="path106" />
      <path
         d="m 372.92187,181.0625 v -1.875 h 9.15625 v 1.875 h -3.5625 V 200 h -2.0625 v -18.9375 z"
         id="path108" />
      <path
         d="m 382.17187,204 1.65625,-7.28125 h 3.03125 L 383.73437,204 Z"
         id="path110" />
      <path
         d="m 408.14062,187.9375 h 7.5 v -6.875 h -7.5 z m -5.8125,-6.875 v -1.875 h 18.9375 v 1.875 h -3.5625 V 200 h -2.0625 v -10 h -7.5 v 1.46875 q 0,0.5 -0.1875,0.875 -0.1875,0.375 -0.4375,0.375 -0.71875,0 -2.4375,-1.5625 -1.71875,-1.5625 -1.71875,-2.1875 0,-0.40625 0.3125,-0.71875 0.3125,-0.3125 0.71875,-0.3125 h 1.6875 v -6.875 z"
         id="path112" />
      <path
         d="m 421.45312,187.53125 q 0,-0.4375 0.4375,-0.75 0.4375,-0.3125 1.03125,-0.3125 h 11 v -5.40625 h -13.5 v -1.875 h 19.125 v 1.875 h -3.53125 V 200 h -2.09375 v -11.4375 h -6.03125 q -0.5,0 -0.875,0.25 -0.375,0.25 -0.375,0.5625 v 2.09375 q 0,0.5 -0.3125,0.875 -0.3125,0.375 -0.71875,0.375 -0.71875,0 -2.4375,-2.15625 -1.71875,-2.1875 -1.71875,-3.03125 z"
         id="path114" />
      <path
         d="m 438.70312,181.0625 v -1.875 h 9.15625 v 1.875 h -3.5625 V 200 h -2.0625 v -18.9375 z"
         id="path116" />
      <path
         d="m 447.01562,181.0625 v -1.875 h 23.53125 v 1.875 h -3.53125 V 200 h -2.0625 v -12.46875 q -1.8125,0 -3.375,1.625 -1.5625,1.59375 -2.25,4.1875 l -1.875,-0.625 q 0.15625,-1 0.5,-1.8125 0.34375,-0.8125 0.75,-1.3125 -0.65625,-1 -1.65625,-1.53125 -1,-0.53125 -2.09375,-0.53125 -1.71875,0 -2.9375,1.21875 -1.21875,1.21875 -1.21875,2.9375 0,1.875 1.875,3.71875 1.90625,1.8125 5,2.9375 l -0.84375,1.875 q -3.65625,-1.34375 -5.90625,-3.6875 -2.21875,-2.34375 -2.21875,-4.84375 0,-2.59375 1.8125,-4.40625 1.84375,-1.84375 4.4375,-1.84375 1.53125,0 2.90625,0.625 1.375,0.59375 2.28125,1.65625 0.9375,-1.0625 2.1875,-1.65625 1.25,-0.625 2.625,-0.625 v -4.375 z"
         id="path118" />
      <path
         d="m 469.73437,181.0625 v -1.875 h 9.15625 v 1.875 h -3.5625 V 200 h -2.0625 v -18.9375 z"
         id="path120" />
      <path
         d="m 487.92187,181.0625 v -1.875 h 23 v 1.875 h -3.53125 V 200 h -2.09375 v -10 h -8.875 q -0.84375,0.625 -1.9375,0.625 -0.25,0 -0.5,-0.0625 -0.21875,-0.0625 -0.34375,-0.125 l 6.25,8.71875 -1.65625,1.0625 -9.375,-13.3125 1.6875,-1.25 q 0.65625,1.40625 1.53125,2.25 0.90625,0.84375 1.78125,0.84375 0.875,0 1.46875,-0.59375 0.625,-0.59375 0.625,-1.46875 v -5.625 z m 9.90625,6.875 h 7.46875 v -6.875 h -7.28125 v 5.625 q 0,0.65625 -0.1875,1.25 z"
         id="path122" />
      <path
         d="m 510.07812,181.0625 v -1.875 h 9.15625 v 1.875 h -3.5625 V 200 h -2.0625 v -18.9375 z"
         id="path124" />
      <path
         d="m 513.26562,174 v -2.90625 h 3.125 V 174 Z"
         id="path126" />
      <path
         d="m 518.39062,181.0625 v -1.875 h 17 v 1.875 h -3.53125 V 200 h -2.0625 v -18.9375 h -5.21875 V 191.25 q 0,0.5 -0.3125,0.875 -0.3125,0.375 -0.71875,0.375 -0.78125,0 -2.46875,-1.9375 -1.6875,-1.96875 -1.6875,-2.84375 0,-0.3125 0.25,-0.5625 0.25,-0.25 0.5625,-0.25 h 1.46875 q 0.34375,0 0.59375,-0.3125 0.25,-0.3125 0.25,-0.75 v -4.78125 z"
         id="path128" />
      <path
         d="m 535.48437,204 1.65625,-7.28125 h 3.03125 L 537.04687,204 Z"
         id="path130" />
    </g>
    <g
       aria-label="नव्याने धावूया, उद्या सकाळी जांग."
       id="text8">
      <path
         d="m 206.14062,237.53125 q 0,-0.4375 0.4375,-0.75 0.4375,-0.3125 1.03125,-0.3125 h 11 v -5.40625 h -13.5 v -1.875 h 19.125 v 1.875 h -3.53125 V 250 h -2.09375 v -11.4375 h -6.03125 q -0.5,0 -0.875,0.25 -0.375,0.25 -0.375,0.5625 v 2.09375 q 0,0.5 -0.3125,0.875 -0.3125,0.375 -0.71875,0.375 -0.71875,0 -2.4375,-2.15625 -1.71875,-2.1875 -1.71875,-3.03125 z"
         id="path133" />
      <path
         d="m 223.39062,231.0625 v -1.875 h 11.65625 v 1.875 z m 7.46875,14.375 q -2.40625,0 -4.125,-1.71875 -1.6875,-1.75 -1.6875,-4.15625 0,-2.40625 1.6875,-4.09375 1.71875,-1.6875 4.125,-1.6875 0.9375,0 1.78125,0.21875 0.84375,0.1875 1.5625,0.59375 l -0.84375,1.875 q -0.40625,-0.28125 -1.0625,-0.4375 -0.625,-0.1875 -1.4375,-0.1875 -1.53125,0 -2.625,1.09375 -1.09375,1.0625 -1.09375,2.625 0,1.65625 1.09375,2.84375 1.09375,1.15625 2.625,1.15625 1,0 2.21875,-0.78125 1.21875,-0.78125 2.375,-2.15625 v 2.71875 q -1,1 -2.1875,1.5625 -1.1875,0.53125 -2.40625,0.53125 z"
         id="path135" />
      <path
         d="m 242.64062,243.96875 q 1.625,0 3.0625,-0.875 1.46875,-0.90625 2.34375,-2.46875 v -9.5625 h -7.0625 q 0.78125,0.96875 1.21875,2.0625 0.4375,1.0625 0.4375,2.09375 0,1.8125 -1.4375,3.21875 -1.40625,1.40625 -3.5625,1.78125 0.3125,1.625 1.71875,2.6875 1.40625,1.0625 3.28125,1.0625 z m -8.4375,-12.90625 v -1.875 h 19.46875 v 1.875 h -3.53125 V 250 h -2.09375 v -6.4375 q -1.21875,1.1875 -2.625,1.84375 -1.375,0.625 -2.78125,0.625 -3,0 -5.15625,-2.15625 -2.125,-2.1875 -2.125,-5.3125 2.375,0 3.78125,-0.90625 1.40625,-0.9375 1.40625,-2.4375 0,-1 -0.53125,-2.0625 -0.53125,-1.09375 -1.53125,-2.09375 z"
         id="path137" />
      <path
         d="m 252.82812,231.0625 v -1.875 h 9.15625 v 1.875 h -3.5625 V 250 h -2.0625 v -18.9375 z"
         id="path139" />
      <path
         d="m 262.17187,237.53125 q 0,-0.4375 0.4375,-0.75 0.4375,-0.3125 1.03125,-0.3125 h 11 v -5.40625 h -13.5 v -1.875 h 19.125 v 1.875 h -3.53125 V 250 h -2.09375 v -11.4375 h -6.03125 q -0.5,0 -0.875,0.25 -0.375,0.25 -0.375,0.5625 v 2.09375 q 0,0.5 -0.3125,0.875 -0.3125,0.375 -0.71875,0.375 -0.71875,0 -2.4375,-2.15625 -1.71875,-2.1875 -1.71875,-3.03125 z"
         id="path141" />
      <path
         d="m 274.29687,229.1875 -7.6875,-9.15625 1.4375,-1.25 8.3125,10.40625 z"
         id="path143" />
      <path
         d="m 298.32812,246.46875 q -2.34375,0 -4,-1.28125 -1.625,-1.3125 -1.625,-3.09375 0,-1.125 0.4375,-2.0625 0.4375,-0.9375 1.21875,-1.46875 -1.65625,-1.15625 -2.59375,-2.65625 -0.9375,-1.5 -0.9375,-2.96875 0,-1.78125 1.21875,-3.0625 1.25,-1.3125 2.9375,-1.3125 1.78125,0 2.875,0.96875 1.09375,0.9375 1.09375,2.5625 0,1.375 -1.125,2.375 -1.09375,0.96875 -2.625,0.96875 v -2.09375 q 0.6875,0 1.15625,-0.375 0.5,-0.375 0.5,-0.875 0,-0.5625 -0.5625,-1 -0.53125,-0.4375 -1.3125,-0.4375 -0.875,0 -1.46875,0.65625 -0.59375,0.65625 -0.59375,1.625 0,1.21875 0.8125,2.375 0.84375,1.15625 2.28125,2 0.6875,-0.28125 1.46875,-0.4375 0.78125,-0.1875 1.65625,-0.1875 h 1.25 l 1.25,2.0625 h -2.28125 q -1.90625,0 -3.25,1 -1.34375,0.96875 -1.34375,2.34375 0,0.96875 1.03125,1.625 1.0625,0.65625 2.53125,0.65625 1.65625,0 3.34375,-1.09375 1.71875,-1.09375 3.09375,-3.0625 v -9.15625 h -4.5625 v -1.875 h 10.1875 v 1.875 h -3.53125 V 250 h -2.09375 v -6.875 q -1.34375,1.59375 -3.03125,2.46875 -1.65625,0.875 -3.40625,0.875 z"
         id="path145" />
      <path
         d="m 309.54687,231.0625 v -1.875 h 9.15625 v 1.875 h -3.5625 V 250 h -2.0625 v -18.9375 z"
         id="path147" />
      <path
         d="m 317.85937,231.0625 v -1.875 h 17.8125 v 1.875 h -3.5625 V 250 h -2.0625 v -6.65625 q -0.84375,1 -2,1.5625 -1.125,0.53125 -2.375,0.53125 -2.59375,0 -4.4375,-1.65625 -1.8125,-1.65625 -1.8125,-3.96875 0,-2.34375 1.8125,-3.96875 1.84375,-1.65625 4.4375,-1.65625 0.75,0 1.4375,0.21875 0.6875,0.1875 1.28125,0.625 l -1.0625,1.65625 q -0.375,-0.28125 -0.78125,-0.4375 -0.40625,-0.1875 -0.875,-0.1875 -1.71875,0 -2.9375,1.09375 -1.21875,1.09375 -1.21875,2.65625 0,1.4375 1.21875,2.5 1.21875,1.03125 2.9375,1.03125 1.21875,0 2.375,-0.8125 1.15625,-0.84375 2,-2.3125 v -9.15625 z"
         id="path149" />
      <path
         d="m 330.45312,257.90625 q -1.78125,0 -3.0625,-1.3125 -1.3125,-1.28125 -1.3125,-3.0625 0,-2.0625 1.53125,-3.53125 1.5,-1.46875 3.65625,-1.46875 2.71875,0 5.21875,2.34375 2.53125,2.375 3.9375,6.1875 l -1.84375,0.84375 q -1.21875,-3.28125 -3.21875,-5.28125 -2,-2 -4.09375,-2 -1.28125,0 -2.1875,0.84375 -0.90625,0.875 -0.90625,2.0625 0,0.96875 0.65625,1.625 0.65625,0.65625 1.625,0.65625 0.5,0 1.09375,-0.28125 0.59375,-0.25 1.1875,-0.75 l 1.03125,1.875 q -0.875,0.625 -1.71875,0.9375 -0.84375,0.3125 -1.59375,0.3125 z"
         id="path151" />
      <path
         d="m 343.26562,243.96875 q 1.625,0 3.0625,-0.875 1.46875,-0.90625 2.34375,-2.46875 v -9.5625 h -7.0625 q 0.78125,0.96875 1.21875,2.0625 0.4375,1.0625 0.4375,2.09375 0,1.8125 -1.4375,3.21875 -1.40625,1.40625 -3.5625,1.78125 0.3125,1.625 1.71875,2.6875 1.40625,1.0625 3.28125,1.0625 z m -8.4375,-12.90625 v -1.875 h 19.46875 v 1.875 h -3.53125 V 250 h -2.09375 v -6.4375 q -1.21875,1.1875 -2.625,1.84375 -1.375,0.625 -2.78125,0.625 -3,0 -5.15625,-2.15625 -2.125,-2.1875 -2.125,-5.3125 2.375,0 3.78125,-0.90625 1.40625,-0.9375 1.40625,-2.4375 0,-1 -0.53125,-2.0625 -0.53125,-1.09375 -1.53125,-2.09375 z"
         id="path153" />
      <path
         d="m 353.45312,231.0625 v -1.875 h 9.15625 v 1.875 h -3.5625 V 250 h -2.0625 v -18.9375 z"
         id="path155" />
      <path
         d="m 362.70312,254 1.65625,-7.28125 h 3.03125 L 364.26562,254 Z"
         id="path157" />
      <path
         d="m 382.85937,231.0625 v -1.875 h 20.53125 v 1.875 h -4.4375 q 0.625,0.71875 0.9375,1.59375 0.3125,0.875 0.3125,1.75 0,1.375 -0.5625,2.5 -0.5625,1.09375 -1.53125,1.65625 1.34375,0.4375 2.125,1.8125 0.8125,1.375 0.8125,3.1875 0,2.40625 -1.65625,4.125 -1.65625,1.6875 -3.96875,1.6875 -3.21875,0 -6.21875,-3.375 -2.96875,-3.40625 -5.21875,-9.53125 l 1.6875,-0.75 q 2,5.5 4.5625,8.53125 2.5625,3.03125 5.1875,3.03125 1.4375,0 2.46875,-1.09375 1.0625,-1.09375 1.0625,-2.625 0,-1.71875 -1,-2.9375 -0.96875,-1.25 -2.34375,-1.25 h -4.15625 l -0.8125,-1.84375 h 4.5625 q 1.21875,0 2.0625,-0.90625 0.84375,-0.9375 0.84375,-2.21875 0,-0.875 -0.5,-1.75 -0.5,-0.875 -1.375,-1.59375 z"
         id="path159" />
      <path
         d="m 411.79687,246.25 q 2.125,0 4.3125,-1.1875 2.1875,-1.21875 4.03125,-3.375 v -10.625 h -5.625 v 4.59375 h -6.25 q -0.875,0 -1.46875,0.46875 -0.59375,0.46875 -0.59375,1.1875 0,0.65625 0.8125,1.28125 0.84375,0.59375 2.09375,0.78125 0.375,-0.1875 1.28125,-0.28125 0.90625,-0.125 2.46875,-0.125 l 1.25,1.875 h -2.9375 q -1.28125,0 -2.21875,0.8125 -0.90625,0.78125 -0.90625,1.90625 0,1.125 1.09375,1.90625 1.125,0.78125 2.65625,0.78125 z m -9.21875,-15.1875 v -1.875 h 23.15625 v 1.875 h -3.53125 V 250 h -2.0625 v -5.625 q -1.9375,1.90625 -4.09375,2.9375 -2.15625,1.03125 -4.25,1.03125 -2.40625,0 -4.125,-1.375 -1.6875,-1.40625 -1.6875,-3.40625 0,-0.9375 0.3125,-1.65625 0.34375,-0.71875 0.9375,-1.0625 -1.40625,-0.5 -2.28125,-1.46875 -0.84375,-1 -0.84375,-2.0625 0,-1.46875 1.21875,-2.5 1.25,-1.03125 2.9375,-1.03125 h 4.15625 v -2.71875 z"
         id="path161" />
      <path
         d="m 424.92187,231.0625 v -1.875 h 9.15625 v 1.875 h -3.5625 V 250 h -2.0625 v -18.9375 z"
         id="path163" />
      <path
         d="m 443.10937,231.0625 v -1.875 h 23 v 1.875 h -3.53125 V 250 h -2.09375 v -10 h -8.875 q -0.84375,0.625 -1.9375,0.625 -0.25,0 -0.5,-0.0625 -0.21875,-0.0625 -0.34375,-0.125 l 6.25,8.71875 -1.65625,1.0625 -9.375,-13.3125 1.6875,-1.25 q 0.65625,1.40625 1.53125,2.25 0.90625,0.84375 1.78125,0.84375 0.875,0 1.46875,-0.59375 0.625,-0.59375 0.625,-1.46875 v -5.625 z m 9.90625,6.875 h 7.46875 v -6.875 h -7.28125 v 5.625 q 0,0.65625 -0.1875,1.25 z"
         id="path165" />
      <path
         d="m 465.26562,231.0625 v -1.875 h 24.25 v 1.875 h -11 v 5.625 q 0.6875,-1.15625 1.84375,-1.8125 1.15625,-0.6875 2.53125,-0.6875 2,0 3.375,1.65625 1.40625,1.625 1.40625,3.96875 0,2 -1.03125,3.96875 -1.03125,1.9375 -2.90625,3.5 l -1.875,-1.25 q 1.75,-1.21875 2.75,-2.875 1,-1.65625 1,-3.34375 0,-1.46875 -0.8125,-2.5 -0.78125,-1.03125 -1.90625,-1.03125 -1.4375,0 -2.6875,1.09375 -1.21875,1.09375 -1.6875,2.84375 V 250 h -2.0625 v -6.25 q -0.75,0.875 -1.84375,1.375 -1.0625,0.5 -2.3125,0.5 -2.25,0 -3.84375,-1.5625 -1.5625,-1.59375 -1.5625,-3.84375 0,-2.5 1.8125,-4.25 1.84375,-1.78125 4.40625,-1.78125 0.75,0 1.28125,0.125 0.5625,0.0937 0.8125,0.28125 l -0.40625,2.09375 q -0.375,-0.21875 -0.8125,-0.3125 -0.40625,-0.0937 -0.875,-0.0937 -1.6875,0 -2.9375,1.15625 -1.21875,1.15625 -1.21875,2.78125 0,1.375 0.96875,2.375 1,0.96875 2.375,0.96875 1.1875,0 2.3125,-0.71875 1.125,-0.75 1.84375,-2 v -9.78125 z"
         id="path167" />
      <path
         d="m 488.67187,231.0625 v -1.875 h 9.15625 v 1.875 h -3.5625 V 250 h -2.0625 v -18.9375 z"
         id="path169" />
      <path
         d="m 513.73437,245.84375 q 1.3125,0 2.21875,-1.3125 0.90625,-1.34375 0.90625,-3.28125 0,-1.78125 -0.90625,-3.0625 -0.90625,-1.28125 -2.21875,-1.28125 -1.125,0 -2.1875,1.21875 -1.0625,1.21875 -1.5625,3.125 0.75,2.09375 1.78125,3.34375 1.0625,1.25 1.96875,1.25 z m -9.34375,-0.21875 q 0.90625,0 1.875,-1.125 1,-1.15625 1.65625,-3.03125 -0.53125,-2.03125 -1.53125,-3.28125 -0.96875,-1.28125 -2,-1.28125 -1.46875,0 -2.5,1.34375 -1.03125,1.3125 -1.03125,3.1875 0,1.75 1.03125,2.96875 1.03125,1.21875 2.5,1.21875 z m -7.40625,-14.5625 v -1.875 h 23.78125 v 1.875 h -6.1875 v 3.96875 q 1.90625,0.3125 3.125,2.09375 1.25,1.75 1.25,4.125 0,2.6875 -1.53125,4.59375 -1.5,1.875 -3.6875,1.875 -1.28125,0 -2.59375,-1.125 -1.3125,-1.125 -2.1875,-3.03125 -0.875,1.90625 -2.125,3.03125 -1.25,1.125 -2.4375,1.125 -2.34375,0 -4,-1.8125 -1.625,-1.84375 -1.625,-4.46875 0,-2.6875 1.625,-4.53125 1.65625,-1.875 4,-1.875 1.4375,0 2.6875,1.03125 1.25,1 1.875,2.6875 0.59375,-1.53125 1.53125,-2.53125 0.9375,-1 2,-1.1875 v -3.96875 z"
         id="path171" />
      <path
         d="m 519.95312,231.0625 v -1.875 h 3.53125 q -0.53125,-3 -1.96875,-4.9375 -1.40625,-1.9375 -3.03125,-1.9375 -1.21875,0 -2.0625,0.8125 -0.84375,0.78125 -0.84375,1.90625 0,1 0.4375,2 0.4375,0.96875 1.21875,1.75 h -2.28125 q -0.71875,-0.71875 -1.09375,-1.6875 -0.375,-0.96875 -0.375,-2.0625 0,-1.90625 1.46875,-3.21875 1.4375,-1.34375 3.53125,-1.34375 2.40625,0 4.40625,2.46875 2,2.46875 2.65625,6.25 h 3.5625 v 1.875 h -3.5625 V 250 h -2.0625 v -18.9375 z"
         id="path173" />
      <path
         d="m 548.20312,247.5 q -2.25,0 -4.6875,-3 -2.4375,-3.03125 -4.25,-8.03125 l 1.875,-0.8125 q 1.59375,4.4375 3.53125,7.125 1.9375,2.65625 3.53125,2.65625 1.03125,0 1.75,-0.78125 0.75,-0.8125 0.75,-1.9375 0,-1.78125 -0.9375,-3.65625 -0.90625,-1.90625 -2.59375,-3.625 h 8.9375 v -4.375 h -17.96875 v -1.875 h 23.59375 v 1.875 h -3.53125 V 250 h -2.09375 v -12.46875 h -5 q 0.84375,1.15625 1.25,2.5 0.40625,1.3125 0.40625,2.6875 0,2 -1.34375,3.40625 -1.3125,1.375 -3.21875,1.375 z"
         id="path175" />
      <path
         d="m 560.89062,231.0625 v -1.875 h 9.15625 v 1.875 h -3.5625 V 250 h -2.0625 v -18.9375 z"
         id="path177" />
      <path
         d="m 564.07812,224 v -2.90625 h 3.125 V 224 Z"
         id="path179" />
      <path
         d="m 569.20312,231.0625 v -1.875 h 17 v 1.875 h -3.53125 V 250 h -2.0625 v -18.9375 h -5.21875 V 241.25 q 0,0.5 -0.3125,0.875 -0.3125,0.375 -0.71875,0.375 -0.78125,0 -2.46875,-1.9375 -1.6875,-1.96875 -1.6875,-2.84375 0,-0.3125 0.25,-0.5625 0.25,-0.25 0.5625,-0.25 h 1.46875 q 0.34375,0 0.59375,-0.3125 0.25,-0.3125 0.25,-0.75 v -4.78125 z"
         id="path181" />
      <path
         d="m 588.10937,250 v -3.28125 h 2.65625 V 250 Z"
         id="path183" />
    </g>
  </g>
</svg>
