<?xml version="1.0" encoding="UTF-8" standalone="no"?>
<!-- Created with Inkscape (http://www.inkscape.org/) -->

<svg
   width="210mm"
   height="297mm"
   viewBox="0 0 210 297"
   version="1.1"
   id="svg5"
   xml:space="preserve"
   inkscape:version="1.2.2 (b0a8486, 2022-12-01)"
   sodipodi:docname="drawing-51.svg"
   xmlns:inkscape="http://www.inkscape.org/namespaces/inkscape"
   xmlns:sodipodi="http://sodipodi.sourceforge.net/DTD/sodipodi-0.dtd"
   xmlns="http://www.w3.org/2000/svg"
   xmlns:svg="http://www.w3.org/2000/svg"><sodipodi:namedview
     id="namedview7"
     pagecolor="#ffffff"
     bordercolor="#000000"
     borderopacity="0.25"
     inkscape:showpageshadow="2"
     inkscape:pageopacity="0.0"
     inkscape:pagecheckerboard="0"
     inkscape:deskcolor="#d1d1d1"
     inkscape:document-units="mm"
     showgrid="false"
     inkscape:zoom="0.914906"
     inkscape:cx="397.85508"
     inkscape:cy="562.35285"
     inkscape:window-width="3770"
     inkscape:window-height="2096"
     inkscape:window-x="0"
     inkscape:window-y="0"
     inkscape:window-maximized="1"
     inkscape:current-layer="layer1" /><defs
     id="defs2" /><g
     inkscape:label="Layer 1"
     inkscape:groupmode="layer"
     id="layer1"><path
       style="color:#000000;fill:#000000;-inkscape-stroke:none"
       d="m 22.390625,55.550781 c -2.720244,0.07068 -5.309373,0.468097 -7.556641,1.564453 -2.247267,1.096357 -4.149404,2.893652 -5.4921871,5.75 l -0.00781,0.01367 v 0.01563 C 8.8850457,112.45903 9.134884,162.02515 9.1113281,211.58984 v 0.004 l 0.00195,0.006 c 0.6209854,4.82052 -0.5881457,11.23272 -0.34375,16.90234 0.1221978,2.83481 0.608079,5.4871 1.8769527,7.66211 1.268874,2.17502 3.321661,3.86948 6.556641,4.78321 l 0.0098,0.002 h 0.0098 c 54.708499,0.31787 109.426404,-0.0406 164.128904,0.19531 5.50164,1.92449 11.36672,0.60761 15.39844,-2.69531 4.03245,-3.30352 6.22574,-8.5997 4.38281,-14.60352 0.15252,-47.00049 0.32169,-94.00396 -0.15625,-141.003903 v -0.002 c -0.1478,-4.507159 0.8122,-10.235701 0.39063,-15.332032 -0.21079,-2.548165 -0.7675,-4.939879 -1.98633,-6.941406 -1.21883,-2.001526 -3.10092,-3.609328 -5.94727,-4.585937 l -0.0117,-0.0039 h -0.0117 C 141.82302,55.907953 90.230405,55.489996 38.644531,56.103516 h -0.0039 -0.002 c -4.833701,0.466906 -10.807559,-0.6941 -16.248047,-0.552735 z m 0.0039,0.142578 c 5.417356,-0.140764 11.390379,1.0229 16.257813,0.552735 l -0.0059,0.002 c 51.578762,-0.613435 103.165476,-0.19758 154.748046,-0.128906 2.81396,0.96756 4.66204,2.548832 5.86328,4.521484 1.20256,1.9748 1.75711,4.344038 1.9668,6.878906 0.41932,5.069073 -0.53891,10.793192 -0.39063,15.324219 0.47793,46.99863 0.30877,94.00142 0.15625,141.00195 v 0.01 l 0.002,0.0117 c 1.8389,5.96005 -0.33281,11.19635 -4.33203,14.47265 -3.99923,3.27631 -9.82594,4.58322 -15.28516,2.66407 L 181.36328,241 h -0.0117 c -54.69833,-0.23592 -109.411167,0.12435 -164.113279,-0.19336 -3.203038,-0.90579 -5.217994,-2.57088 -6.46875,-4.71484 -1.2513768,-2.14503 -1.7357623,-4.77339 -1.8574216,-7.59571 -0.2432895,-5.64396 0.9673092,-12.05462 0.3417969,-16.91406 0.023523,-49.55546 -0.2259799,-99.11067 0.2226562,-148.664061 1.3302235,-2.824514 3.2018975,-4.593691 5.4199215,-5.675782 2.220586,-1.083339 4.789369,-1.478445 7.498047,-1.548828 z m 163.251949,1.222657 c -7.69648,-0.07846 -15.4672,1.093112 -23.17187,0.30664 h -0.002 -0.004 C 113.50804,57.000211 64.542873,56.923145 15.582031,57.355469 h -0.02539 l -0.01953,0.01563 c -5.16795,4.249473 -5.9740868,9.952552 -5.7207027,15.966797 0.2533837,6.014244 1.5572447,12.351639 0.6289067,17.908203 v 0.0059 0.0059 c -0.44553,47.586128 -0.359152,95.185248 -0.0039,142.775388 v 0.0234 l 0.01172,0.0176 c 3.842473,5.5297 9.427629,6.42536 15.386719,6.18359 5.959089,-0.24176 12.308699,-1.60949 17.724609,-0.62695 h 0.0059 0.0059 c 49.888823,0.53147 99.801348,0.21711 149.695308,0.12891 v -0.14258 l 0.0312,0.13672 c 2.95754,-1.38246 4.76421,-3.34492 5.82422,-5.66016 1.06001,-2.31524 1.37598,-4.98068 1.36914,-7.7793 -0.0137,-5.59723 -1.31635,-11.73347 -0.59375,-16.66797 v -0.004 -0.006 c 0.60256,-43.33263 0.0446,-86.67296 0.20899,-130.007814 v -0.0039 -0.0039 c -0.418,-3.805136 0.41112,-8.5717 0.0879,-12.765625 -0.16162,-2.096963 -0.61123,-4.052668 -1.6582,-5.673828 -1.04698,-1.62116 -2.69025,-2.902687 -5.21875,-3.648438 l -0.006,-0.002 h -0.004 c -2.54429,-0.422571 -5.10052,-0.589082 -7.66602,-0.615234 z m -0.002,0.144531 c 2.55912,0.02548 5.10696,0.190786 7.64063,0.611328 2.49936,0.738147 4.10675,1.994139 5.13476,3.585937 1.02866,1.592807 1.47615,3.525949 1.63672,5.609375 0.32094,4.164252 -0.50771,8.9227 -0.0879,12.759766 0,0.0013 0,0.0026 0,0.0039 1.3e-4,0.0012 -1.3e-4,0.0027 0,0.0039 -0.16428,43.333844 0.3935,86.672524 -0.20898,130.000004 -0.72624,4.97423 0.57817,11.10723 0.59179,16.67968 0.007,2.78762 -0.30829,5.43349 -1.35547,7.72071 -1.046,2.28464 -2.82115,4.21234 -5.74609,5.58203 -49.88724,0.0883 -99.791829,0.40247 -149.671875,-0.12891 -5.455518,-0.98621 -11.80698,0.38608 -17.744141,0.62695 -5.935906,0.24083 -11.440747,-0.64219 -15.25,-6.11132 -0.355058,-47.57985 -0.441522,-95.16885 0.0039,-142.744144 l -0.002,0.0098 C 11.520762,85.674147 10.211675,79.329818 9.9589844,73.332031 9.706579,67.341016 10.503659,61.710794 15.613281,57.498047 64.560112,57.066063 113.51353,57.142865 162.46094,57.365234 c 7.72855,0.78891 15.50234,-0.381172 23.18359,-0.304687 z M 125.47656,73.0625 c -0.19019,-0.04854 -0.35458,-0.06768 -0.46679,0.01953 -0.0561,0.04361 -0.0839,0.117878 -0.0781,0.197266 0.006,0.07939 0.0385,0.168355 0.0977,0.27539 0.11824,0.214072 0.34586,0.503871 0.72656,0.896485 l 0.0195,0.01758 0.0254,0.0039 c 0.46986,0.04933 0.77674,0.03841 0.97266,-0.01953 0.098,-0.02897 0.16994,-0.07068 0.21484,-0.132813 0.0449,-0.06213 0.0528,-0.141507 0.0332,-0.21289 -0.0392,-0.142766 -0.16438,-0.277949 -0.33007,-0.414063 -0.1657,-0.136113 -0.37507,-0.269096 -0.58985,-0.380859 -0.21477,-0.111763 -0.43481,-0.20146 -0.625,-0.25 z m -0.3789,0.132812 c 0.0368,-0.02859 0.16936,-0.03865 0.34375,0.0059 0.17438,0.04451 0.38659,0.130485 0.59375,0.238281 0.20715,0.107796 0.40909,0.23761 0.56445,0.365234 0.15536,0.127625 0.26241,0.258981 0.28516,0.341797 0.0114,0.04141 0.007,0.06416 -0.0117,0.08984 -0.0186,0.02568 -0.0609,0.0565 -0.14063,0.08008 -0.15468,0.04575 -0.4528,0.05702 -0.89062,0.01367 -0.35934,-0.373226 -0.5836,-0.655634 -0.6875,-0.84375 -0.0533,-0.09646 -0.0768,-0.170634 -0.0801,-0.216797 -0.003,-0.04616 0.005,-0.05993 0.0234,-0.07422 z m -38.250004,0.158204 c -0.08968,0.01626 -0.166771,0.07846 -0.242187,0.166015 -0.150833,0.175108 -0.30379,0.46864 -0.462891,0.837891 -0.0183,0.04247 -0.03434,0.111866 -0.05273,0.15625 -1.100958,0.02882 -2.185588,0.248532 -2.708985,0.904297 -0.298907,0.374501 -0.406021,0.879146 -0.230468,1.505859 0.175552,0.626713 0.628332,1.380153 1.451171,2.291016 l 0.08008,0.08984 0.04102,-0.113281 c 0.112473,-0.322616 0.341128,-1.147728 0.623047,-2.080078 0.257628,-0.852013 0.560614,-1.754478 0.849609,-2.464844 0.119603,-0.0018 0.226111,-0.0391 0.345704,-0.03516 0.239017,0.0079 0.435952,0.07121 0.666015,0.09961 0.04451,0.538461 0.07014,1.226887 0.05469,2.208985 l -0.002,0.0957 0.0918,-0.02539 c 1.006361,-0.263748 1.620472,-0.537785 1.945313,-0.818359 0.16242,-0.140287 0.253739,-0.284737 0.273437,-0.433594 0.0197,-0.148856 -0.03677,-0.291903 -0.142578,-0.416015 -0.211608,-0.248225 -0.618243,-0.444608 -1.128906,-0.591797 -0.276968,-0.07983 -0.627168,-0.09721 -0.951172,-0.142578 -0.0014,-0.01571 -4.77e-4,-0.05104 -0.002,-0.06641 -0.05338,-0.555768 -0.130972,-0.882985 -0.255859,-1.052734 -0.06244,-0.08487 -0.152505,-0.131498 -0.242188,-0.115234 z m 0.02539,0.140625 c 0.03524,-0.0064 0.05874,0.0023 0.101562,0.06055 0.08565,0.116416 0.175995,0.433664 0.228516,0.980469 6.88e-4,0.0072 -6.78e-4,0.02401 0,0.03125 -0.227304,-0.02737 -0.422564,-0.08988 -0.658203,-0.09766 -0.102659,-0.0034 -0.195868,0.02876 -0.298828,0.0293 0.0098,-0.02326 0.01953,-0.06132 0.0293,-0.08398 0.156637,-0.363534 0.309804,-0.650266 0.439453,-0.800781 0.06482,-0.07526 0.122963,-0.11275 0.158203,-0.11914 z m 25.572263,0.419921 c -0.33112,-0.180464 -0.73885,-0.155657 -1.14843,0.0059 -0.40959,0.161517 -0.82643,0.46042 -1.19336,0.839844 -0.73387,0.758846 -1.27088,1.84853 -1.08594,2.853515 0.0925,0.502493 0.36853,0.980453 0.88476,1.371094 0.51624,0.390641 1.26997,0.696184 2.32227,0.867187 l 0.0625,0.0098 0.0176,-0.06055 0.3457,-1.117187 0.24805,-0.994141 v -0.002 c 0.25298,-1.141476 0.30361,-1.987869 0.21094,-2.599609 -0.0927,-0.611741 -0.33294,-0.993364 -0.66407,-1.173829 z m -0.0684,0.125 c 0.28267,0.154056 0.50324,0.485741 0.5918,1.070313 0.0886,0.584572 0.0397,1.416113 -0.21094,2.546875 l 0.002,-0.002 -0.24805,0.990234 -0.32227,1.042969 c -0.99419,-0.170621 -1.72256,-0.456196 -2.20117,-0.818359 -0.49132,-0.371788 -0.74381,-0.812436 -0.83008,-1.28125 -0.17254,-0.937629 0.33853,-1.994039 1.04883,-2.728516 0.35515,-0.367238 0.75809,-0.653066 1.14258,-0.804688 0.38449,-0.151621 0.74468,-0.16968 1.02734,-0.01563 z m -13.548825,0.13086 c -0.207269,-0.05211 -0.41488,-0.01136 -0.599609,0.101562 -0.184729,0.112922 -0.347149,0.2965 -0.476563,0.533203 -0.517657,0.946816 -0.517481,2.761007 0.916016,4.535157 l 0.0059,0.0078 0.0098,0.0059 c 0.782704,0.518384 1.475486,0.545601 2.005856,0.279296 0.53037,-0.266304 0.89266,-0.814151 1.05078,-1.419921 0.15812,-0.605771 0.11508,-1.274093 -0.1875,-1.792969 -0.2973,-0.50982 -0.85649,-0.859492 -1.679683,-0.851563 C 99.60269,74.734803 99.23042,74.27106 98.828125,74.169922 Z m -0.0332,0.138672 c 0.33804,0.08498 0.708299,0.485253 0.972656,1.345703 l 0.01758,0.05078 h 0.05273 c 0.806269,-0.0203 1.311309,0.309465 1.589839,0.787109 0.27854,0.477645 0.32568,1.111281 0.17579,1.685547 -0.1499,0.574267 -0.49537,1.083576 -0.97852,1.326172 -0.48087,0.241449 -1.103618,0.225962 -1.851563,-0.265625 -1.39341,-1.732967 -1.375698,-3.488732 -0.896484,-4.365234 0.120088,-0.219646 0.268233,-0.384163 0.425781,-0.480469 0.157549,-0.09631 0.323168,-0.126476 0.492188,-0.08398 z m -12.757813,0.353515 c -0.284762,0.710823 -0.57743,1.577164 -0.828125,2.40625 -0.262805,0.869137 -0.462463,1.579234 -0.578125,1.931641 -0.732951,-0.836687 -1.186357,-1.553351 -1.34375,-2.115234 -0.166274,-0.59359 -0.06415,-1.037185 0.207032,-1.376954 0.46573,-0.583513 1.487759,-0.805948 2.542968,-0.845703 z m 1.314453,0.07031 c 0.308956,0.04432 0.645705,0.05911 0.908204,0.134765 0.496806,0.143196 0.885021,0.340978 1.060546,0.546875 0.08776,0.102949 0.123018,0.201593 0.109375,0.304688 -0.01364,0.103095 -0.08085,0.219847 -0.226562,0.345703 -0.277843,0.239981 -0.8859,0.501781 -1.800781,0.751953 0.0115,-0.900781 -0.0093,-1.566908 -0.05078,-2.083984 z m 4.845704,0.986328 c -0.142497,0.06535 -0.258442,0.184665 -0.335938,0.355469 -0.0775,0.170804 -0.118989,0.392334 -0.119141,0.673828 -3.03e-4,0.562988 0.163052,1.365607 0.550782,2.484375 l 0.01172,0.03516 0.03516,0.01172 c 1.046502,0.298858 1.786937,0.384307 2.294922,0.318359 0.507985,-0.06595 0.793058,-0.299576 0.875,-0.621094 0.08194,-0.321517 -0.02765,-0.708144 -0.240235,-1.105468 -0.06353,-0.118733 -0.186648,-0.2286 -0.267578,-0.347657 0.03174,-0.153506 0.126072,-0.391628 0.128906,-0.505859 0.0037,-0.150354 -0.01642,-0.269796 -0.06055,-0.363281 -0.04412,-0.09349 -0.117095,-0.158565 -0.203125,-0.189453 -0.172058,-0.06178 -0.378159,2.85e-4 -0.59375,0.117187 -0.01102,0.006 -0.02213,0.0191 -0.0332,0.02539 -0.326618,-0.303916 -0.673085,-0.584776 -1.009765,-0.751953 -0.381495,-0.18943 -0.74821,-0.267425 -1.033203,-0.136719 z m 0.06055,0.128906 c 0.22103,-0.10137 0.54593,-0.04512 0.908204,0.134766 0.313267,0.155551 0.64573,0.426317 0.958984,0.714844 -0.168724,0.110261 -0.342006,0.22622 -0.5,0.382812 -0.205141,0.203322 -0.387581,0.432869 -0.511719,0.652344 -0.124137,0.219475 -0.195561,0.430111 -0.15039,0.611328 0.02259,0.09061 0.07978,0.170761 0.166015,0.224609 0.08623,0.05385 0.1988,0.08354 0.341797,0.08984 0.285994,0.01261 0.695479,-0.06584 1.277344,-0.267578 l 0.0332,-0.01172 0.01172,-0.0293 c 0.11216,-0.294654 0.111186,-0.435525 0.166015,-0.652343 0.05238,0.08188 0.140346,0.159404 0.183594,0.240234 0.203617,0.380559 0.295682,0.740364 0.228516,1.003906 -0.06717,0.263543 -0.281739,0.454073 -0.75586,0.515625 -0.465423,0.06042 -1.189193,-0.02776 -2.195312,-0.310547 -0.371526,-1.082659 -0.533487,-1.871757 -0.533203,-2.398437 1.44e-4,-0.267609 0.03958,-0.470014 0.105468,-0.615235 0.06589,-0.14522 0.155111,-0.234471 0.265625,-0.285156 z m 29.935548,0.199219 c -0.45025,0.01262 -0.87096,0.10473 -1.18945,0.300781 -0.3185,0.196051 -0.5304,0.507567 -0.53516,0.933594 -0.005,0.426027 0.18787,0.960924 0.64453,1.632812 l 0.0254,0.03711 0.0449,-0.0059 c 1.24234,-0.197301 2.11876,-0.429635 2.71289,-0.675781 0.59414,-0.246145 0.91238,-0.505807 1.01563,-0.783203 0.0516,-0.138698 0.0447,-0.279207 -0.01,-0.408203 -0.0545,-0.128996 -0.15451,-0.247026 -0.2832,-0.353516 -0.25737,-0.212979 -0.63688,-0.384977 -1.06641,-0.503906 -0.42952,-0.118928 -0.90912,-0.186446 -1.35937,-0.173828 z m -15.86719,0.04687 c -0.19334,-0.05868 -0.41571,0.02149 -0.64062,0.166016 -0.22492,0.144528 -0.45543,0.359669 -0.65821,0.601562 -0.0167,0.01991 -0.0247,0.04225 -0.041,0.0625 -0.12581,-0.07546 -0.24745,-0.187363 -0.3711,-0.242187 -0.34296,-0.152073 -0.66868,-0.218365 -0.92773,-0.126954 -0.12952,0.04571 -0.24053,0.132705 -0.31445,0.263672 -0.0739,0.130967 -0.11267,0.302633 -0.11524,0.517578 -0.005,0.429891 0.13524,1.041418 0.47657,1.894532 l 0.0195,0.04883 0.0469,-0.0039 c 0.92992,0.246065 1.5943,0.331457 2.04883,0.294921 0.22921,-0.01842 0.40726,-0.06723 0.54102,-0.144531 0.13375,-0.0773 0.22337,-0.186551 0.26367,-0.3125 0.0804,-0.251357 -0.0217,-0.551499 -0.21094,-0.857422 l 0.0117,-0.0039 0.01,-0.03516 c 0.18028,-0.694369 0.23945,-1.184514 0.21094,-1.523438 -0.0143,-0.169462 -0.0506,-0.301834 -0.10937,-0.402343 -0.0588,-0.10051 -0.14357,-0.167926 -0.24024,-0.197266 z m -0.041,0.136719 c 0.0625,0.01896 0.11442,0.05796 0.1582,0.132812 0.0438,0.07485 0.0768,0.186582 0.0898,0.341797 0.0252,0.299733 -0.0354,0.777314 -0.19922,1.425781 -0.18583,-0.266113 -0.40982,-0.536975 -0.68945,-0.777343 -0.16961,-0.145793 -0.35696,-0.2338 -0.53906,-0.351563 0.0128,-0.0158 0.0182,-0.03325 0.0312,-0.04883 0.19521,-0.232871 0.41714,-0.438698 0.625,-0.572266 0.20786,-0.133567 0.39846,-0.18832 0.52344,-0.15039 z m 17.22851,0.126953 c 0.4159,0.115157 0.78284,0.283925 1.01563,0.476562 0.11639,0.09632 0.19789,0.198592 0.24023,0.298828 0.0423,0.100237 0.0473,0.198703 0.008,0.304688 -0.0789,0.21197 -0.3582,0.461984 -0.93554,0.701172 -0.56596,0.234471 -1.43193,0.45674 -2.62891,0.65039 -0.41915,-0.630768 -0.6057,-1.135697 -0.60156,-1.505859 0.004,-0.381173 0.18043,-0.638181 0.4668,-0.814453 0.57272,-0.352545 1.60374,-0.341642 2.43554,-0.111328 z m -7.84179,0.08984 c -0.29698,0.07838 -0.53914,0.330889 -0.66602,0.785156 -0.12688,0.454267 -0.14913,1.115687 -0.0234,2.044922 l 0.006,0.04297 0.043,0.01367 c 0.94459,0.327511 1.64009,0.458879 2.14258,0.449219 0.50249,-0.0097 0.81969,-0.164276 0.97265,-0.417969 0.15297,-0.253692 0.13403,-0.583888 0.0156,-0.923828 -0.1184,-0.33994 -0.33843,-0.69573 -0.60938,-1.013672 -0.0183,-0.02152 -0.0437,-0.03158 -0.0625,-0.05273 0.10283,-0.124696 0.28789,-0.312948 0.34766,-0.404297 0.0747,-0.114123 0.11785,-0.203626 0.13477,-0.28125 0.008,-0.03881 0.0103,-0.0755 0,-0.111328 -0.0103,-0.03582 -0.0355,-0.06909 -0.0664,-0.08789 -0.0618,-0.03759 -0.13198,-0.03253 -0.21094,-0.01758 -0.079,0.01495 -0.16764,0.04395 -0.26758,0.08594 -0.16226,0.06817 -0.35646,0.181504 -0.54687,0.296875 -0.0866,-0.06247 -0.15972,-0.161221 -0.24805,-0.210938 -0.32773,-0.184471 -0.66396,-0.275649 -0.96093,-0.197265 z m 0.0352,0.138671 c 0.2436,-0.0643 0.54688,0.0099 0.85547,0.183594 0.065,0.03656 0.12078,0.113659 0.18555,0.158203 -0.23298,0.149545 -0.4628,0.318423 -0.64844,0.480469 -0.18726,0.163458 -0.33086,0.314715 -0.38867,0.455078 -0.0289,0.07018 -0.0352,0.150761 0.01,0.212891 0.045,0.06213 0.12284,0.08876 0.22071,0.09766 0.19572,0.0178 0.50702,-0.03281 0.99609,-0.173828 l 0.0176,-0.0059 0.0137,-0.01367 c 0.22064,-0.226152 0.28738,-0.334116 0.42969,-0.5 0.014,0.01595 0.0331,0.0229 0.0469,0.03906 0.26146,0.306804 0.47159,0.651652 0.58203,0.96875 0.11045,0.317099 0.11751,0.601374 -0.004,0.802735 -0.12141,0.20136 -0.37876,0.340482 -0.85352,0.349609 -0.46412,0.0089 -1.14171,-0.123289 -2.04492,-0.431641 -0.11398,-0.882323 -0.0959,-1.524366 0.0195,-1.9375 0.1183,-0.423544 0.3189,-0.62125 0.5625,-0.685547 z m -20.886718,0.01367 c 0.05175,0.01858 0.09044,0.05225 0.121094,0.117188 0.03065,0.06494 0.04829,0.163106 0.04492,0.298828 -0.0019,0.07739 -0.07642,0.263338 -0.09375,0.365234 -0.168582,-0.228984 -0.308465,-0.467018 -0.517578,-0.673828 -0.0025,-0.0024 -0.0053,-0.0034 -0.0078,-0.0059 0.185815,-0.09504 0.355123,-0.13675 0.453125,-0.101563 z m 22.902348,0.01172 c 0.0631,-0.01196 0.10274,-0.0021 0.10937,0.002 0.003,0.002 0.003,-8.39e-4 0.004,0.0039 0.001,0.0047 0.003,0.01776 -0.002,0.04102 -0.0101,0.04651 -0.0456,0.125959 -0.11523,0.232422 -0.055,0.08412 -0.23937,0.270952 -0.33789,0.390625 -0.1201,-0.125607 -0.25122,-0.221599 -0.38281,-0.326172 0.16999,-0.100785 0.34419,-0.204779 0.48437,-0.263672 0.0941,-0.03952 0.17708,-0.06812 0.24024,-0.08008 z m 8.15429,0.04492 c -0.36374,0.02896 -0.72612,0.283476 -0.80859,0.728516 -0.0825,0.445039 0.11002,1.060766 0.80273,1.830078 l 0.0586,0.06445 0.0527,-0.06836 c 0.66242,-0.875551 0.83279,-1.516201 0.73438,-1.949218 -0.0984,-0.433018 -0.4761,-0.634429 -0.83985,-0.605469 z m -22.14257,0.0332 c 0.20003,-0.07059 0.49649,-0.0214 0.82226,0.123047 0.11602,0.05144 0.23366,0.1607 0.35352,0.232422 -0.14241,0.191904 -0.28698,0.388035 -0.3711,0.582031 -0.11066,0.255209 -0.16203,0.498719 -0.0918,0.695313 0.0351,0.0983 0.10349,0.181689 0.20312,0.236328 0.0996,0.05464 0.22788,0.08294 0.38672,0.08203 0.28852,-0.0017 0.7223,-0.127066 1.25781,-0.339844 0.006,0.01002 0.0212,0.01932 0.0273,0.0293 0.17928,0.289198 0.25439,0.555571 0.19531,0.740234 -0.0295,0.09233 -0.089,0.16986 -0.19727,0.232422 -0.10825,0.06256 -0.26751,0.107726 -0.48242,0.125 -0.42151,0.03388 -1.07524,-0.04965 -1.98047,-0.287109 -0.32269,-0.816961 -0.46167,-1.414199 -0.45703,-1.802734 0.002,-0.198276 0.0394,-0.345946 0.0977,-0.449219 0.0583,-0.103273 0.13631,-0.163925 0.23633,-0.199219 z m -9.492193,0.09375 c 0.01072,0.01044 0.02255,0.01486 0.0332,0.02539 0.23285,0.230286 0.394306,0.491488 0.572265,0.746093 -0.04919,0.221328 -0.06035,0.385618 -0.18164,0.708985 -0.546666,0.185877 -0.943641,0.262796 -1.189454,0.251953 -0.126546,-0.0056 -0.213785,-0.03233 -0.271484,-0.06836 -0.0577,-0.03603 -0.08892,-0.08011 -0.103516,-0.138672 -0.0292,-0.117132 0.0214,-0.301974 0.136719,-0.50586 0.11532,-0.203885 0.291036,-0.425597 0.488281,-0.621093 0.165415,-0.163947 0.344306,-0.291773 0.515625,-0.398438 z m 31.646483,0.01563 c 0.30635,-0.02439 0.60408,0.127075 0.6875,0.494141 0.0772,0.339684 -0.12394,0.936026 -0.65625,1.695312 -0.55344,-0.668683 -0.77626,-1.225608 -0.71094,-1.578125 0.0707,-0.381718 0.37335,-0.586938 0.67969,-0.611328 z m -25.55469,0.162109 c -0.1522,-0.01 -0.30587,0.07665 -0.455074,0.201172 -0.149207,0.124521 -0.295378,0.293522 -0.417969,0.476563 -0.12259,0.18304 -0.222617,0.378099 -0.277343,0.558594 -0.05473,0.180494 -0.06954,0.351251 0.0098,0.478515 0.03965,0.06363 0.1061,0.109569 0.1875,0.13086 0.0814,0.02129 0.177109,0.01949 0.292969,-0.0039 0.231721,-0.0468 0.543702,-0.179657 0.966802,-0.433593 l 0.0293,-0.01953 0.006,-0.0332 c 0.0588,-0.466174 0.0517,-0.786783 -0.006,-1.003906 -0.0288,-0.108562 -0.0715,-0.19214 -0.1289,-0.251953 -0.0574,-0.05981 -0.13093,-0.09463 -0.20704,-0.09961 z m 16.53125,0.06641 c 0.14686,0.112237 0.29201,0.220492 0.42579,0.361328 -0.13562,0.158297 -0.20143,0.259923 -0.41211,0.476562 -0.46645,0.132895 -0.77387,0.179829 -0.92578,0.166016 -0.0774,-0.007 -0.10739,-0.02822 -0.11524,-0.03906 -0.008,-0.01084 -0.013,-0.02835 0.006,-0.07422 0.0378,-0.09174 0.16947,-0.245103 0.34961,-0.402344 0.18014,-0.157241 0.40885,-0.323543 0.63867,-0.470703 0.0117,-0.0075 0.0215,-0.01022 0.0332,-0.01758 z m -16.54101,0.07813 c 0.044,0.0029 0.0784,0.0164 0.11328,0.05273 0.0349,0.03633 0.0692,0.09686 0.0937,0.189453 0.0472,0.177954 0.0522,0.486554 0.002,0.914063 -0.39249,0.23181 -0.690876,0.362793 -0.886716,0.402343 -0.101609,0.02052 -0.178516,0.01945 -0.230468,0.0059 -0.05195,-0.01359 -0.08079,-0.03698 -0.101563,-0.07031 -0.04155,-0.06667 -0.04117,-0.197831 0.0078,-0.359375 0.04898,-0.161544 0.141662,-0.34806 0.257812,-0.521484 0.11615,-0.173424 0.255587,-0.33457 0.390625,-0.447266 0.135037,-0.112696 0.265497,-0.17177 0.353517,-0.166015 z m 4.70508,0.01563 c 0.17664,0.114137 0.35622,0.199737 0.52148,0.341797 0.26085,0.224221 0.46366,0.475199 0.63867,0.71875 -0.4896,0.188503 -0.90615,0.314995 -1.15234,0.316406 -0.14208,8.14e-4 -0.24507,-0.02533 -0.31641,-0.06445 -0.0713,-0.03912 -0.11412,-0.09146 -0.13867,-0.160157 -0.0491,-0.137399 -0.0154,-0.351655 0.0879,-0.589843 0.0795,-0.183406 0.22015,-0.37562 0.35938,-0.5625 z M 36.236328,167.46094 c -0.136953,-0.0527 -0.290561,-0.0366 -0.445312,0.0254 -0.154752,0.062 -0.314409,0.16905 -0.476563,0.31054 -0.324307,0.283 -0.656864,0.70317 -0.951172,1.17383 -0.106037,0.16958 -0.162795,0.3543 -0.255859,0.53321 -0.135695,0.10063 -0.29085,0.14453 -0.416016,0.26367 -0.77719,0.73978 -1.329003,1.8127 -1.251953,2.85742 0.07705,1.04472 0.797313,2.0468 2.515625,2.61914 l 0.02148,0.008 0.02148,-0.008 c 1.324841,-0.42565 2.680221,-0.2446 3.833984,0.22852 1.153763,0.47311 2.103711,1.24099 2.615235,1.97656 0.255761,0.36778 0.40045,0.72573 0.412109,1.0293 0.01166,0.30357 -0.09919,0.55205 -0.375,0.73242 -0.551616,0.36074 -1.799289,0.41663 -3.957031,-0.19922 l -0.07422,-0.0215 -0.01563,0.0762 c -0.06838,0.34669 0.126445,0.67507 0.496094,0.96875 0.369649,0.29367 0.921358,0.56671 1.613281,0.82617 1.383846,0.51892 3.326748,0.97945 5.466797,1.39062 4.280098,0.82236 9.345088,1.44026 12.238281,1.875 l 0.125,0.0195 -0.04883,-0.11718 c -0.383641,-0.92053 -1.19874,-1.30483 -2.09375,-1.45899 -0.89369,-0.15393 -1.877253,-0.0882 -2.638672,-0.11719 h -0.0039 c -1.316312,-0.13858 -2.284854,-0.25669 -2.962891,-0.35742 -0.678917,-0.10085 -1.073884,-0.19085 -1.210937,-0.25586 -0.01371,-0.007 -0.01174,-0.006 -0.01953,-0.0117 0.0089,-0.005 0.0085,-0.007 0.02344,-0.0137 0.03379,-0.014 0.08138,-0.028 0.140625,-0.043 0.236992,-0.0598 0.655589,-0.11926 1.1875,-0.17968 2.127646,-0.24169 6.089134,-0.5176 8.158203,-1.22852 l 0.01758,-0.006 0.01367,-0.0156 c 0.709664,-0.84003 1.182425,-1.50327 1.460938,-2.02735 0.278512,-0.52408 0.366762,-0.91071 0.283203,-1.19726 -0.08356,-0.28655 -0.345789,-0.44458 -0.699219,-0.50196 -0.35343,-0.0574 -0.807934,-0.0252 -1.332031,0.0606 -1.048195,0.17154 -2.368435,0.56228 -3.626953,0.93164 -1.248717,0.36649 -2.431793,0.7069 -3.222657,0.79492 -1.675415,-1.95505 -4.238803,-2.15077 -6.701172,-2.51757 -1.239331,-0.18462 -2.455521,-0.41372 -3.523437,-0.92774 -1.066768,-0.51347 -1.987429,-1.30942 -2.652344,-2.63672 -0.04494,-1.02149 -0.224041,-1.79292 -0.501953,-2.34375 -0.201541,-0.39946 -0.496712,-0.56767 -0.78125,-0.75586 0.0049,-0.17734 0.07897,-0.51924 0.07031,-0.66406 -0.01914,-0.31993 -0.06917,-0.56381 -0.148438,-0.74414 -0.07927,-0.18033 -0.191172,-0.29883 -0.328125,-0.35156 z m -0.05078,0.13281 c 0.09462,0.0364 0.179053,0.1204 0.248047,0.27734 0.06899,0.15695 0.118226,0.38422 0.136718,0.69336 0.0068,0.11373 -0.0548,0.3973 -0.05664,0.53321 -0.0677,-0.0359 -0.109225,-0.14809 -0.179688,-0.17383 -0.642564,-0.2347 -1.347954,0.0224 -2.001953,0.43945 0.059,-0.10534 0.08899,-0.21704 0.152344,-0.31836 0.288709,-0.4617 0.61574,-0.87178 0.923828,-1.14062 0.154044,-0.13442 0.304703,-0.23195 0.4375,-0.28516 0.132797,-0.0532 0.245225,-0.0618 0.339844,-0.0254 z m 0.09961,1.46484 c 0.08113,0.0296 0.131604,0.16063 0.208985,0.20508 -0.01896,0.58007 -0.0382,1.16988 -0.232422,2.16211 -0.874023,0.50118 -1.508102,0.72323 -1.917969,0.73438 -0.208082,0.006 -0.357729,-0.0375 -0.466797,-0.11524 -0.109067,-0.0777 -0.181026,-0.19085 -0.220703,-0.33984 -0.07935,-0.29799 -0.02044,-0.73437 0.134766,-1.20899 0.09569,-0.2926 0.273249,-0.59363 0.427734,-0.89453 0.672418,-0.48824 1.420641,-0.77884 2.066406,-0.54297 z m 0.337891,0.33008 c 0.238871,0.17287 0.493619,0.29904 0.671875,0.65235 0.268169,0.53151 0.450362,1.28626 0.492187,2.31054 l 0.002,0.0156 0.0059,0.0137 c 0.678597,1.35691 1.631603,2.17992 2.722656,2.70508 1.091054,0.52516 2.319605,0.7543 3.5625,0.93945 2.485791,0.3703 5.019709,0.56059 6.650391,2.5 l 0.02344,0.0293 0.03906,-0.004 c 0.816373,-0.0874 2.014672,-0.4372 3.273437,-0.80664 1.258765,-0.36944 2.57462,-0.75872 3.607422,-0.92773 0.516401,-0.0845 0.96353,-0.1134 1.289063,-0.0605 0.325532,0.0528 0.518427,0.17558 0.583984,0.40039 0.06556,0.22481 -0.0029,0.58079 -0.273438,1.08984 -0.268089,0.50447 -0.734461,1.16151 -1.429687,1.98633 -2.030471,0.69293 -5.978915,0.97675 -8.109375,1.21875 -0.533787,0.0606 -0.951295,0.11757 -1.205078,0.18164 -0.06345,0.016 -0.118283,0.0327 -0.16211,0.0508 -0.04383,0.0181 -0.07915,0.0355 -0.107421,0.0684 -0.01414,0.0165 -0.02493,0.0399 -0.02734,0.0664 -0.0024,0.0266 0.0049,0.0531 0.01758,0.0723 0.02539,0.0383 0.06211,0.0586 0.107422,0.0801 0.181248,0.086 0.56739,0.16618 1.25,0.26758 0.68261,0.10141 1.654631,0.21849 2.974609,0.35742 h 0.002 0.002 c 0.774499,0.0299 1.752131,-0.0328 2.623047,0.11719 0.813776,0.14017 1.496061,0.49714 1.88086,1.24609 -2.917378,-0.43427 -7.839671,-1.03697 -12.048828,-1.8457 -2.136294,-0.41046 -4.074646,-0.87347 -5.44336,-1.38672 -0.684357,-0.25662 -1.227263,-0.52749 -1.576172,-0.80469 -0.315792,-0.25088 -0.415233,-0.49771 -0.40039,-0.75 2.074138,0.57268 3.331465,0.55709 3.941406,0.15821 0.312902,-0.20463 0.452659,-0.51358 0.439453,-0.85742 -0.0132,-0.34385 -0.169457,-0.72284 -0.435547,-1.10547 -0.532178,-0.76527 -1.503282,-1.54415 -2.68164,-2.02735 -1.167625,-0.47879 -2.541544,-0.65707 -3.892579,-0.23437 -1.674965,-0.56089 -2.337506,-1.50714 -2.410156,-2.49219 -0.0728,-0.98709 0.457433,-2.02681 1.208985,-2.74219 0.06155,-0.0586 0.138957,-0.073 0.203125,-0.12695 -0.113533,0.23947 -0.263476,0.47351 -0.339844,0.70703 -0.159798,0.48865 -0.228999,0.94253 -0.136719,1.28906 0.04614,0.17327 0.135987,0.32061 0.275391,0.41993 0.139403,0.0993 0.324315,0.14884 0.554687,0.14257 0.460744,-0.0125 1.110112,-0.23978 2.015625,-0.76367 l 0.02734,-0.0176 0.0078,-0.0312 c 0.190757,-0.96502 0.197748,-1.51309 0.22461,-2.10156 z m -1.138672,3.58008 c -0.105508,0.0364 -0.179302,0.13015 -0.236328,0.24219 -0.05703,0.11204 -0.09816,0.24786 -0.119141,0.38476 -0.02098,0.1369 -0.02194,0.27475 0,0.39453 0.02194,0.11979 0.06795,0.22826 0.164063,0.28321 0.09611,0.055 0.223217,0.034 0.357422,-0.0547 0.134205,-0.0887 0.288992,-0.24521 0.476562,-0.49805 l 0.02344,-0.0332 -0.01367,-0.0352 c -0.1067,-0.27768 -0.21218,-0.45801 -0.31836,-0.56836 -0.106179,-0.11034 -0.228476,-0.15162 -0.333984,-0.11523 z m 0.04687,0.13672 c 0.04925,-0.017 0.102065,-0.0106 0.185547,0.0762 0.07759,0.0806 0.170485,0.24875 0.265625,0.48438 -0.165562,0.21672 -0.309058,0.36552 -0.41211,0.43359 -0.11043,0.0729 -0.168369,0.0709 -0.207031,0.0488 -0.03866,-0.0221 -0.07579,-0.0855 -0.09375,-0.1836 -0.01796,-0.0981 -0.01705,-0.22369 0.002,-0.34765 0.019,-0.12397 0.05568,-0.2478 0.103516,-0.3418 0.04784,-0.094 0.106997,-0.15293 0.15625,-0.16992 z m 18.390625,5.625 c -0.176522,0.0296 -0.319613,0.14537 -0.425781,0.29687 -0.106168,0.1515 -0.177195,0.34014 -0.210938,0.53516 -0.03374,0.19502 -0.03058,0.39555 0.01953,0.57031 0.05011,0.17477 0.14955,0.32805 0.308594,0.40625 0.159045,0.0782 0.367427,0.0762 0.619141,-0.0254 0.251714,-0.10158 0.551983,-0.30266 0.910156,-0.63672 l 0.04102,-0.0371 -0.02734,-0.0488 c -0.228239,-0.41865 -0.446346,-0.69546 -0.652344,-0.86329 -0.205997,-0.16782 -0.405509,-0.22691 -0.582031,-0.19726 z m 0.02539,0.14062 c 0.129295,-0.0217 0.282424,0.0178 0.466796,0.16797 0.172867,0.14084 0.371045,0.40381 0.578125,0.76953 -0.321565,0.29113 -0.599221,0.4862 -0.8125,0.57227 -0.227116,0.0916 -0.3893,0.0856 -0.503906,0.0293 -0.114605,-0.0564 -0.191894,-0.16826 -0.234375,-0.31641 -0.04248,-0.14815 -0.04622,-0.32905 -0.01563,-0.50586 0.03059,-0.17681 0.09653,-0.3487 0.1875,-0.47852 0.09097,-0.12981 0.204689,-0.21656 0.333985,-0.23828 z m -6.941407,0.14063 c -0.05734,0.0199 -0.09684,0.0709 -0.113281,0.125 -0.01644,0.0541 -0.01644,0.11294 -0.0078,0.17773 0.01726,0.12958 0.07084,0.28208 0.146484,0.43946 0.15128,0.31475 0.380962,0.64307 0.626953,0.76367 0.0615,0.0301 0.127898,0.0469 0.193359,0.041 0.06546,-0.006 0.128751,-0.0375 0.179688,-0.0898 0.101874,-0.10479 0.163197,-0.28529 0.193359,-0.57031 l 0.002,-0.0332 -0.02148,-0.0234 c -0.324897,-0.33543 -0.57442,-0.553 -0.763672,-0.6836 -0.09463,-0.0653 -0.173856,-0.10971 -0.24414,-0.13476 -0.07028,-0.0251 -0.134069,-0.0316 -0.191407,-0.0117 z m 0.04687,0.13476 c 0.0124,-0.004 0.04326,-0.007 0.0957,0.0117 0.05244,0.0187 0.12492,0.0565 0.212891,0.11719 0.169093,0.11668 0.408136,0.33088 0.710938,0.64063 -0.0308,0.23846 -0.08704,0.39398 -0.144532,0.45312 -0.03073,0.0316 -0.05781,0.044 -0.08984,0.0469 -0.03203,0.003 -0.07029,-0.005 -0.115235,-0.0274 -0.179761,-0.0881 -0.420155,-0.39915 -0.5625,-0.69531 -0.07117,-0.14808 -0.12083,-0.29384 -0.134765,-0.39844 -0.007,-0.0523 -0.0033,-0.0935 0.0039,-0.11719 0.0072,-0.0237 0.01104,-0.0269 0.02344,-0.0312 z m -14.519531,6.07618 c -0.544451,0.008 -1.181783,0.14919 -1.552734,0.51757 -0.185476,0.1842 -0.300716,0.42995 -0.291016,0.73047 0.0094,0.29276 0.145017,0.63885 0.417969,1.03907 0.03562,0.4547 0.144701,0.75532 0.316406,0.92968 0.173108,0.17579 0.408035,0.21052 0.642578,0.14649 0.469087,-0.12807 0.97609,-0.61162 1.332031,-1.13477 0.177971,-0.26157 0.318004,-0.53316 0.388672,-0.78125 0.07067,-0.24809 0.07603,-0.4795 -0.03906,-0.64648 -0.07068,-0.10254 -0.260882,-0.0965 -0.414063,-0.125 0.03269,-0.022 0.08423,-0.0443 0.109375,-0.0664 0.07386,-0.065 0.120191,-0.13623 0.125,-0.21289 0.0048,-0.0767 -0.0367,-0.14415 -0.0957,-0.19336 -0.059,-0.0492 -0.137093,-0.0873 -0.230469,-0.11719 -0.18675,-0.0598 -0.436758,-0.0898 -0.708984,-0.0859 z m 0.002,0.14257 c 0.260141,-0.004 0.497752,0.0275 0.66211,0.0801 0.08218,0.0263 0.146551,0.0589 0.183593,0.0898 0.03704,0.0309 0.04638,0.0529 0.04492,0.0762 -0.0015,0.0233 -0.01865,0.0626 -0.07617,0.11328 -0.03965,0.0349 -0.123096,0.0762 -0.199218,0.11719 -0.03476,0.001 -0.03874,-0.0278 -0.07617,-0.0234 -0.326614,0.0378 -0.771889,0.18828 -1.359375,0.47461 -0.0076,0.004 -0.01,0.002 -0.01758,0.006 l 0.04687,0.13476 c 0.0083,-0.002 0.0093,-0.004 0.01758,-0.006 0.632913,-0.13727 1.075697,-0.27299 1.359375,-0.40234 0.02882,-0.0131 0.03868,-0.026 0.06445,-0.0391 0.210061,-0.001 0.37945,0.0264 0.443359,0.11914 0.07743,0.11234 0.08416,0.29851 0.01953,0.52539 -0.06463,0.22688 -0.1958,0.48834 -0.367187,0.74023 -0.342774,0.5038 -0.848618,0.96606 -1.251953,1.07618 -0.201667,0.055 -0.368013,0.0306 -0.503906,-0.10743 -0.135894,-0.138 -0.244012,-0.40485 -0.277344,-0.84765 v -0.0195 l -0.01172,-0.0176 c -0.278112,-0.39934 -0.39387,-0.72575 -0.402344,-0.98828 -0.0085,-0.26253 0.0858,-0.46388 0.248047,-0.625 0.324501,-0.32226 0.932843,-0.46916 1.453125,-0.47657 z m 16.892578,0.21094 c -0.639875,-0.0929 -1.366209,0.13425 -1.691406,0.75977 -0.325197,0.62552 -0.23526,1.62238 0.695313,3.04297 l 0.04102,0.0605 0.05859,-0.041 c 1.549382,-1.05786 2.112965,-1.94897 2.113281,-2.62696 1.58e-4,-0.33899 -0.146664,-0.61867 -0.371094,-0.82031 -0.224429,-0.20164 -0.525765,-0.32854 -0.845703,-0.375 z m -0.01953,0.14258 c 0.296022,0.043 0.570637,0.15919 0.769531,0.33789 0.198894,0.1787 0.322405,0.41614 0.322266,0.71484 -2.73e-4,0.58544 -0.523132,1.43353 -1.984375,2.45118 -0.859138,-1.34771 -0.937249,-2.2723 -0.652344,-2.82032 0.291357,-0.56043 0.952878,-0.76956 1.544922,-0.68359 z m -11.214844,0.66016 c -0.227173,0.0655 -0.394957,0.29127 -0.46875,0.68554 -0.07379,0.39428 -0.06122,0.96756 0.07031,1.78125 l 0.0059,0.0391 0.03516,0.0156 c 0.707533,0.3077 1.225398,0.44047 1.59961,0.44336 0.374212,0.003 0.615393,-0.13501 0.71875,-0.35742 0.103356,-0.22241 0.07367,-0.5078 -0.02734,-0.80664 -0.101015,-0.29884 -0.27799,-0.61458 -0.490234,-0.89844 -0.212245,-0.28386 -0.459089,-0.53541 -0.708985,-0.70508 -0.249895,-0.16967 -0.507201,-0.26274 -0.734375,-0.19726 z m 13.148438,0.11328 c -0.228085,0.0705 -0.396781,0.29533 -0.464844,0.68359 -0.06806,0.38826 -0.04513,0.94909 0.103516,1.74024 l 0.0078,0.0391 0.03711,0.0137 c 0.725333,0.27834 1.252969,0.39172 1.632812,0.38281 0.379843,-0.009 0.621193,-0.14982 0.722656,-0.37109 0.101464,-0.22127 0.0674,-0.49968 -0.04102,-0.78906 -0.108419,-0.28938 -0.294376,-0.59244 -0.515625,-0.86329 -0.221249,-0.27084 -0.479032,-0.51007 -0.736328,-0.66796 -0.257297,-0.1579 -0.518009,-0.2385 -0.746094,-0.16797 z m -13.107422,0.0254 c 0.162915,-0.047 0.381651,0.0205 0.613281,0.17773 0.231631,0.15727 0.471325,0.39843 0.675781,0.67188 0.01862,0.0249 0.02496,0.0527 0.04297,0.0781 -0.02475,-0.01 -0.04635,-0.0306 -0.07227,-0.0312 -0.113961,-0.003 -0.216097,0.0661 -0.314454,0.16016 -0.09836,0.094 -0.191376,0.21978 -0.269531,0.35351 -0.07815,0.13374 -0.140839,0.27537 -0.173828,0.40625 -0.03299,0.13088 -0.04156,0.25356 0.01953,0.34961 0.03054,0.048 0.0803,0.0858 0.140625,0.0996 0.06032,0.0139 0.12995,0.009 0.208985,-0.0117 0.158069,-0.0413 0.362239,-0.14765 0.638672,-0.33984 l 0.02734,-0.0195 0.0039,-0.0332 c 0.0241,-0.27453 0.0037,-0.4421 -0.02344,-0.5918 0.0822,0.14873 0.191836,0.29627 0.240234,0.43945 0.0946,0.27985 0.109632,0.53055 0.03125,0.69922 -0.07838,0.16867 -0.246751,0.27607 -0.58789,0.27344 -0.332054,-0.003 -0.832855,-0.13188 -1.501953,-0.41797 -0.12098,-0.77284 -0.135255,-1.33398 -0.06836,-1.69141 0.0686,-0.3665 0.206226,-0.52531 0.369141,-0.57226 z m 13.150391,0.11133 c 0.166777,-0.0516 0.390341,0.008 0.628906,0.15429 0.20886,0.12817 0.417853,0.33611 0.611328,0.55664 -0.116837,0.004 -0.226937,0.0629 -0.328125,0.15821 -0.107253,0.10106 -0.206159,0.23592 -0.287109,0.38086 -0.08095,0.14493 -0.143244,0.30081 -0.171875,0.44336 -0.02863,0.14254 -0.02886,0.27694 0.04492,0.37695 0.03689,0.05 0.09321,0.0864 0.160157,0.10156 0.06695,0.0152 0.145224,0.0112 0.234375,-0.01 0.178302,-0.042 0.408149,-0.1541 0.714843,-0.35938 l 0.03125,-0.0195 v -0.0371 c 0.0063,-0.24643 -0.02855,-0.37951 -0.05664,-0.53125 0.07979,0.13463 0.18948,0.26623 0.238281,0.39648 0.101101,0.26985 0.123233,0.51513 0.04687,0.68164 -0.07636,0.16652 -0.247603,0.27895 -0.595703,0.28711 -0.338653,0.008 -0.851564,-0.10503 -1.537109,-0.36328 -0.1368,-0.75016 -0.161028,-1.29613 -0.09961,-1.64648 0.06302,-0.35949 0.198458,-0.51875 0.365235,-0.57031 z m 7.541015,0.22461 c -0.453051,-0.12259 -0.993724,-0.0529 -1.279297,0.32421 -0.142786,0.18855 -0.214795,0.45037 -0.179687,0.78516 0.03511,0.3348 0.174593,0.74295 0.457031,1.24023 l 0.0332,0.0566 0.05859,-0.0254 c 1.181072,-0.51908 1.654819,-1.03159 1.705078,-1.48046 0.02513,-0.22444 -0.0641,-0.42327 -0.212891,-0.57618 -0.148789,-0.1529 -0.355505,-0.26292 -0.582031,-0.32421 z m -22.74414,0.0273 c -0.423179,-0.10516 -0.929485,-0.0202 -1.201172,0.34961 -0.271688,0.36985 -0.283066,0.9994 0.228515,1.93945 l 0.0332,0.0606 0.06055,-0.0293 c 1.109887,-0.53345 1.559326,-1.03819 1.613282,-1.4707 0.02698,-0.21626 -0.05368,-0.40873 -0.191407,-0.55274 -0.137724,-0.144 -0.331379,-0.24429 -0.542968,-0.29687 z m 22.707031,0.10937 c 0.205907,0.0557 0.39167,0.15773 0.517578,0.28711 0.125908,0.12939 0.191946,0.28168 0.171875,0.46094 -0.03907,0.34891 -0.462433,0.8301 -1.554688,1.32617 -0.244403,-0.4475 -0.383695,-0.8276 -0.414062,-1.11718 -0.03223,-0.30731 0.03176,-0.52695 0.150391,-0.6836 0.237262,-0.31329 0.717091,-0.38486 1.128906,-0.27344 z m -22.740235,0.0293 c 0.189814,0.0472 0.358692,0.13865 0.472657,0.25781 0.113965,0.11916 0.173915,0.26263 0.152343,0.43555 -0.04134,0.33136 -0.478129,0.80322 -1.46875,1.30273 -0.440734,-0.855 -0.427126,-1.40421 -0.208984,-1.70117 0.226815,-0.30876 0.673107,-0.38925 1.052734,-0.29492 z m 7.398438,0.004 c -0.516987,-0.0983 -1.285375,0.16341 -2.341797,1.08008 l -0.06055,0.0527 0.05859,0.0547 c 0.918213,0.84728 1.658864,1.05537 2.189453,0.91992 0.530589,-0.13545 0.830072,-0.61086 0.867188,-1.07422 0.01856,-0.23168 -0.0288,-0.46391 -0.146485,-0.65234 -0.11768,-0.18843 -0.307913,-0.3317 -0.566406,-0.38086 z m -0.02734,0.14062 c 0.221979,0.0422 0.374166,0.15871 0.472656,0.31641 0.09849,0.1577 0.141448,0.35912 0.125,0.56445 -0.03289,0.41066 -0.294404,0.82847 -0.759765,0.94727 -0.449808,0.11483 -1.121272,-0.0743 -1.976563,-0.83399 0.990429,-0.83537 1.708339,-1.07598 2.138672,-0.99414 z m 17.75,0.10742 c -0.165462,0.092 -0.27891,0.30483 -0.339844,0.65625 -0.06093,0.35143 -0.06881,0.85007 0,1.54102 l 0.0039,0.0449 0.04297,0.0156 c 0.482269,0.17316 0.841599,0.21985 1.107422,0.16992 0.265823,-0.0499 0.436457,-0.20719 0.511719,-0.41016 0.150525,-0.40593 -0.03282,-0.97487 -0.3125,-1.41601 -0.139838,-0.22058 -0.307045,-0.40749 -0.480469,-0.52539 -0.173423,-0.11791 -0.36774,-0.1682 -0.533203,-0.0762 z m -5.736328,0.0879 c -0.196236,0.006 -0.388388,0.11903 -0.541016,0.35547 -0.152627,0.23644 -0.273819,0.59632 -0.351562,1.11914 l -0.0078,0.0469 0.04102,0.0254 c 0.506049,0.29597 0.898456,0.45572 1.201172,0.51367 0.302716,0.058 0.524385,0.0126 0.664062,-0.11328 0.139678,-0.12592 0.18488,-0.31956 0.169922,-0.52539 -0.01496,-0.20583 -0.08926,-0.43097 -0.199218,-0.64063 -0.109958,-0.20965 -0.256577,-0.40474 -0.423829,-0.54882 -0.167251,-0.14409 -0.356498,-0.23837 -0.552734,-0.23243 z m 5.806641,0.0371 c 0.10597,-0.0589 0.233599,-0.0331 0.382812,0.0684 0.149213,0.10145 0.307408,0.27805 0.439453,0.48633 0.264091,0.41657 0.419286,0.96421 0.298828,1.28906 -0.06023,0.16243 -0.178007,0.27586 -0.404296,0.31836 -0.215992,0.0406 -0.548622,-0.007 -0.984375,-0.15625 -0.06048,-0.64606 -0.05728,-1.13208 -0.002,-1.45117 0.05734,-0.33069 0.163562,-0.49575 0.269532,-0.55469 z m -8.699219,0.0762 c 0.03051,0.001 0.05401,0.01 0.08203,0.0352 0.02802,0.0257 0.05845,0.0714 0.08398,0.14063 0.04831,0.13092 0.0746,0.36375 0.07031,0.68359 -0.275391,0.17996 -0.491484,0.287 -0.632812,0.32031 -0.07458,0.0176 -0.129731,0.0184 -0.167969,0.01 -0.03824,-0.009 -0.06107,-0.0238 -0.07813,-0.0469 -0.03411,-0.0462 -0.04608,-0.14317 -0.02148,-0.26562 0.02459,-0.12245 0.08327,-0.26623 0.158204,-0.40039 0.07493,-0.13417 0.166931,-0.26018 0.259765,-0.34766 0.09283,-0.0875 0.185066,-0.1311 0.246094,-0.1289 z m 2.896484,0.0293 c 0.146178,-0.004 0.305057,0.07 0.455078,0.19922 0.150022,0.12924 0.288123,0.31042 0.390625,0.50586 0.102503,0.19544 0.170577,0.40485 0.183594,0.58399 0.01302,0.17913 -0.02654,0.32315 -0.123047,0.41015 -0.09651,0.087 -0.263718,0.13122 -0.541015,0.0781 -0.265145,-0.0508 -0.639597,-0.20799 -1.105469,-0.47461 0.07619,-0.47102 0.185658,-0.8122 0.314453,-1.01172 0.135254,-0.20953 0.279604,-0.28659 0.425781,-0.29102 z m -16.044922,0.0547 c 0.02288,5.4e-4 0.03843,0.007 0.05859,0.0273 0.02017,0.0206 0.04284,0.0588 0.06055,0.1211 0.03343,0.11759 0.04175,0.33282 0.01953,0.625 -0.24798,0.1686 -0.440567,0.27086 -0.5625,0.30273 -0.0643,0.0168 -0.109762,0.0164 -0.138672,0.01 -0.02891,-0.007 -0.04304,-0.0168 -0.05469,-0.0352 -0.02329,-0.0366 -0.02841,-0.12555 0,-0.23828 0.02841,-0.11273 0.08568,-0.24504 0.158203,-0.36914 0.07252,-0.1241 0.159044,-0.24091 0.244141,-0.32227 0.0851,-0.0813 0.169084,-0.12217 0.214843,-0.12109 z m 24.238282,1.42969 c -0.123503,-0.0288 -0.253029,-0.0221 -0.367188,0.0293 -0.114159,0.0514 -0.210043,0.15094 -0.259765,0.29102 -0.09944,0.28017 -0.02604,0.71156 0.355468,1.3418 l 0.04297,0.0703 0.06445,-0.0508 c 0.515531,-0.42397 0.691488,-0.80846 0.666016,-1.11328 -0.02547,-0.30483 -0.254948,-0.51078 -0.501953,-0.56836 z m -0.03125,0.14062 c 0.193707,0.0452 0.372584,0.20019 0.392578,0.43946 0.01771,0.21192 -0.177776,0.52962 -0.546875,0.87695 -0.271203,-0.50544 -0.373994,-0.90009 -0.306641,-1.08984 0.03772,-0.10628 0.102536,-0.17055 0.183594,-0.20704 0.08106,-0.0365 0.18049,-0.0421 0.277344,-0.0195 z m -30.669922,4.13672 -0.05664,0.0391 c -0.490688,0.33452 -0.744467,0.85119 -0.986328,1.36914 -0.180924,-0.067 -0.369381,-0.14997 -0.535156,-0.1914 -0.318943,-0.0797 -0.601028,-0.10363 -0.800781,0.0195 -0.09988,0.0616 -0.17266,0.16165 -0.205079,0.29492 -0.03242,0.13327 -0.02915,0.3001 0.01172,0.50586 0.08174,0.41153 0.313356,0.98756 0.746094,1.79688 l 0.08789,0.16406 0.04492,-0.17969 c 0.182457,-0.73175 0.390907,-1.51838 0.703125,-2.24023 0.132459,0.0509 0.252682,0.0826 0.386719,0.13867 0.349902,0.14641 0.694671,0.30006 0.984375,0.4043 0.144852,0.0521 0.274978,0.0929 0.388672,0.11328 0.113695,0.0204 0.212646,0.0247 0.294922,-0.0137 0.08228,-0.0384 0.129608,-0.13104 0.125,-0.23632 -0.0046,-0.10528 -0.046,-0.23195 -0.126953,-0.39844 -0.161915,-0.33297 -0.484645,-0.8228 -1.021485,-1.53125 z m 23.02539,0.041 c -0.04948,0.0212 -0.08186,0.0771 -0.08594,0.13086 -0.0041,0.0538 0.0086,0.11421 0.0332,0.18945 0.04923,0.15047 0.154172,0.36183 0.335938,0.66406 l 0.01172,0.0195 0.01953,0.01 c 0.26296,0.11696 0.438759,0.16934 0.564453,0.17187 0.06285,0.001 0.118904,-0.009 0.160156,-0.0469 0.04125,-0.0378 0.05423,-0.0964 0.04883,-0.14649 -0.0108,-0.10014 -0.07348,-0.20252 -0.15625,-0.31445 -0.08277,-0.11193 -0.190175,-0.22961 -0.302734,-0.33594 -0.11256,-0.10632 -0.228567,-0.20048 -0.333985,-0.26562 -0.05271,-0.0326 -0.102783,-0.0588 -0.15039,-0.0742 -0.04761,-0.0154 -0.09505,-0.0232 -0.144532,-0.002 z m 0.05469,0.13086 c -0.0023,9.9e-4 0.01425,-0.002 0.04492,0.008 0.03068,0.01 0.07274,0.0299 0.11914,0.0586 0.0928,0.0574 0.205337,0.14877 0.3125,0.25 0.107164,0.10123 0.211049,0.21355 0.28711,0.31641 0.07606,0.10286 0.122204,0.20009 0.126953,0.24414 0.0024,0.022 -0.0017,0.0233 -0.0039,0.0254 -0.0022,0.002 -0.01833,0.0106 -0.06055,0.01 -0.08082,-0.002 -0.249129,-0.0493 -0.486328,-0.15235 -0.167633,-0.28139 -0.269259,-0.48903 -0.310547,-0.61523 -0.02138,-0.0653 -0.029,-0.11105 -0.02734,-0.13281 0.0017,-0.0218 3.71e-4,-0.0127 -0.002,-0.0117 z m -23.099609,0.0469 c 0.485413,0.64697 0.807877,1.13099 0.953125,1.42969 0.07661,0.15754 0.11023,0.27209 0.113281,0.3418 0.0031,0.0697 -0.0091,0.0838 -0.04297,0.0996 -0.0339,0.0158 -0.108728,0.0219 -0.208984,0.004 -0.100256,-0.018 -0.224433,-0.0568 -0.365235,-0.10742 -0.281602,-0.10132 -0.626706,-0.25318 -0.978515,-0.40039 -0.12144,-0.0508 -0.234174,-0.0798 -0.355469,-0.12695 0.221754,-0.47125 0.460563,-0.93153 0.884766,-1.24024 z m 5.847656,0.25977 c -0.124464,0.0173 -0.237779,0.0713 -0.316406,0.16797 -0.157255,0.19325 -0.179175,0.52335 -0.04492,1.02734 0.134252,0.50399 0.43052,1.1891 0.945312,2.10547 l 0.01953,0.0352 0.04102,0.002 c 0.362307,0.0125 0.506624,-0.082 0.759766,-0.12305 0.0156,0.0639 0.01282,0.14054 0.06055,0.18164 0.04311,0.0371 0.102077,0.0556 0.164062,0.0508 0.06199,-0.005 0.12731,-0.0276 0.199219,-0.0703 0.07818,-0.0464 0.19555,-0.18213 0.294922,-0.27734 0.01593,-0.008 0.05912,-0.003 0.07422,-0.0117 0.04827,-0.0279 0.02493,-0.0849 0.06445,-0.11719 0.04135,-0.0451 0.06422,-0.0502 0.109375,-0.10352 l 0.02148,-0.0254 -0.0059,-0.0332 c -0.0037,-0.0216 -0.0099,-0.0243 -0.01367,-0.0449 0.09421,-0.14639 0.256444,-0.27041 0.242187,-0.44531 -0.04926,-0.6043 -0.632296,-1.29639 -1.265625,-1.77344 -0.316664,-0.23853 -0.647658,-0.42051 -0.941406,-0.50391 -0.146874,-0.0417 -0.283739,-0.0583 -0.408203,-0.041 z m 0.01953,0.14062 c 0.09689,-0.0135 0.215863,-8.6e-4 0.349609,0.0371 0.267494,0.076 0.588137,0.25163 0.894532,0.48242 0.61279,0.46158 1.166739,1.15168 1.208984,1.66993 0.0091,0.1118 -0.110087,0.17929 -0.148437,0.27343 -0.04349,-0.17763 -0.08515,-0.36787 -0.142579,-0.46093 -0.04147,-0.0672 -0.08834,-0.11727 -0.142578,-0.14649 -0.05424,-0.0292 -0.116754,-0.0349 -0.171875,-0.0195 -0.110241,0.0307 -0.1928,0.12655 -0.265625,0.24414 -0.07282,0.11759 -0.13251,0.26268 -0.175781,0.41211 -0.04327,0.14943 -0.0707,0.30184 -0.07031,0.43555 1.8e-5,0.006 0.0057,0.009 0.0059,0.0156 -0.225317,0.0358 -0.348376,0.11385 -0.671875,0.10547 -0.492461,-0.88288 -0.785608,-1.55636 -0.912109,-2.03125 -0.129082,-0.48458 -0.09094,-0.76703 0.01758,-0.90039 0.05426,-0.0667 0.127715,-0.1037 0.224609,-0.11719 z m 9.054688,0.52539 c -0.346359,0.0543 -0.690569,0.17168 -0.970704,0.34375 -0.280134,0.17207 -0.499798,0.40159 -0.582031,0.6836 -0.08223,0.282 -0.02071,0.60824 0.234375,0.95312 0.255089,0.34489 0.703005,0.71279 1.402344,1.10156 l 0.04297,0.0254 0.03906,-0.0332 c 0.66173,-0.60086 1.073918,-1.10334 1.298828,-1.51953 0.224911,-0.41619 0.26394,-0.75342 0.160157,-1.01172 -0.103784,-0.25829 -0.346119,-0.42211 -0.638672,-0.50586 -0.292553,-0.0837 -0.63997,-0.0914 -0.986328,-0.0371 z m 0.02148,0.14063 c 0.329548,-0.0516 0.660206,-0.0409 0.925781,0.0351 0.265576,0.076 0.46182,0.21506 0.544922,0.42188 0.0831,0.20682 0.05862,0.49664 -0.154297,0.89062 -0.206542,0.38221 -0.61038,0.86322 -1.230469,1.4336 -0.649006,-0.36846 -1.081923,-0.71629 -1.310546,-1.02539 -0.236462,-0.3197 -0.279772,-0.59402 -0.210938,-0.83008 0.06883,-0.23606 0.257493,-0.44181 0.517578,-0.60156 0.260085,-0.15976 0.588421,-0.2726 0.917969,-0.32422 z m -11.830078,0.0234 c -0.227173,0.0655 -0.394957,0.28931 -0.46875,0.68359 -0.07379,0.39428 -0.06122,0.96951 0.07031,1.7832 l 0.0059,0.0371 0.03516,0.0156 c 0.707533,0.30769 1.225397,0.44047 1.599609,0.44336 0.374212,0.003 0.615394,-0.13501 0.71875,-0.35743 0.103357,-0.22241 0.07367,-0.5078 -0.02734,-0.80664 -0.101016,-0.29884 -0.27799,-0.61262 -0.490235,-0.89648 -0.212244,-0.28386 -0.459089,-0.53736 -0.708984,-0.70703 -0.249896,-0.16967 -0.507202,-0.26079 -0.734375,-0.19531 z m 7.039062,0 c -0.227173,0.0655 -0.394957,0.28931 -0.46875,0.68359 -0.07379,0.39428 -0.06318,0.96951 0.06836,1.7832 l 0.0078,0.0371 0.03516,0.0156 c 0.707534,0.30769 1.225398,0.44047 1.59961,0.44336 0.374212,0.003 0.615394,-0.13501 0.71875,-0.35743 0.103356,-0.22241 0.07367,-0.5078 -0.02734,-0.80664 -0.101015,-0.29884 -0.27799,-0.61262 -0.490234,-0.89648 -0.212245,-0.28386 -0.459089,-0.53736 -0.708985,-0.70703 -0.249895,-0.16967 -0.507202,-0.26079 -0.734375,-0.19531 z m -11.746093,0.0469 c 0.146176,0.0365 0.321074,0.11438 0.484375,0.17383 -0.289478,0.67315 -0.487702,1.37794 -0.648438,2.05078 -0.345467,-0.67363 -0.585871,-1.22778 -0.654297,-1.57227 -0.03829,-0.19278 -0.03893,-0.33758 -0.01367,-0.4414 0.02526,-0.10382 0.07206,-0.16671 0.140625,-0.20899 0.137139,-0.0846 0.386777,-0.0781 0.691407,-0.002 z m 4.748046,0.0898 c 0.162916,-0.047 0.381651,0.0205 0.613282,0.17774 0.23163,0.15727 0.471325,0.39843 0.675781,0.67187 0.01862,0.0249 0.02496,0.0527 0.04297,0.0781 -0.02447,-0.01 -0.04472,-0.0307 -0.07031,-0.0312 -0.11396,-0.003 -0.21805,0.0681 -0.316406,0.16211 -0.09836,0.094 -0.191377,0.21783 -0.269531,0.35156 -0.07816,0.13374 -0.140839,0.27732 -0.173828,0.4082 -0.03299,0.13088 -0.04156,0.25356 0.01953,0.34961 0.03054,0.048 0.0803,0.0838 0.140625,0.0977 0.06032,0.0138 0.12995,0.009 0.208984,-0.0117 0.158069,-0.0413 0.362239,-0.14766 0.638672,-0.33984 l 0.02734,-0.0176 0.0039,-0.0332 c 0.02418,-0.27544 0.0039,-0.44391 -0.02344,-0.59375 0.08219,0.14872 0.191836,0.29627 0.240234,0.43945 0.0946,0.27985 0.109632,0.53055 0.03125,0.69922 -0.07838,0.16867 -0.246751,0.27802 -0.587891,0.27539 -0.332057,-0.003 -0.832846,-0.13383 -1.501953,-0.41992 -0.120979,-0.77284 -0.135255,-1.33399 -0.06836,-1.69141 0.0686,-0.36651 0.206225,-0.52531 0.36914,-0.57227 z m 7.03711,0 c 0.162915,-0.047 0.381651,0.0205 0.613281,0.17774 0.231631,0.15727 0.473278,0.39843 0.677734,0.67187 0.01864,0.0249 0.02494,0.0527 0.04297,0.0781 -0.02475,-0.01 -0.04635,-0.0306 -0.07227,-0.0312 -0.113961,-0.003 -0.216097,0.0681 -0.314454,0.16211 -0.09836,0.094 -0.193329,0.21783 -0.271484,0.35156 -0.07815,0.13374 -0.138886,0.27732 -0.171875,0.4082 -0.03299,0.13088 -0.04351,0.25356 0.01758,0.34961 0.03054,0.048 0.08226,0.0838 0.142578,0.0977 0.06032,0.0138 0.127997,0.009 0.207032,-0.0117 0.158069,-0.0413 0.364192,-0.14766 0.640625,-0.33984 l 0.02734,-0.0176 0.002,-0.0332 c 0.0241,-0.27453 0.0056,-0.4421 -0.02148,-0.5918 0.08172,0.14809 0.190093,0.29494 0.238281,0.4375 0.0946,0.27985 0.111585,0.53055 0.0332,0.69922 -0.07838,0.16867 -0.246751,0.27802 -0.58789,0.27539 -0.332057,-0.003 -0.832846,-0.13383 -1.501953,-0.41992 -0.12098,-0.77284 -0.135255,-1.33399 -0.06836,-1.69141 0.0686,-0.36651 0.204273,-0.52531 0.367188,-0.57227 z m 7.445312,0.0176 c -0.256988,0.0438 -0.489569,0.24007 -0.658203,0.61328 -0.168633,0.37322 -0.281294,0.92668 -0.3125,1.71875 l -0.002,0.0469 0.04297,0.0215 c 0.721713,0.34881 1.268941,0.5122 1.68164,0.54297 0.4127,0.0308 0.697824,-0.0765 0.859375,-0.2793 0.161552,-0.20274 0.194254,-0.48406 0.146485,-0.78125 -0.04652,-0.2894 -0.173314,-0.59713 -0.341797,-0.88085 0.0089,-0.0372 0.03149,-0.076 0.01172,-0.10938 -0.03392,-0.0573 -0.09468,-0.0743 -0.15625,-0.082 -0.0034,-4.2e-4 -0.0083,3.5e-4 -0.01172,0 -0.150929,-0.21168 -0.307203,-0.42577 -0.494141,-0.56641 -0.242366,-0.18233 -0.508637,-0.28798 -0.765625,-0.24414 z m 0.02539,0.14063 c 0.202664,-0.0346 0.431072,0.0489 0.654297,0.21679 0.147361,0.11086 0.26997,0.29271 0.398437,0.45899 -0.008,9e-4 -0.0133,-0.001 -0.02148,0 -0.163762,0.0209 -0.365831,0.0726 -0.574219,0.14062 -0.208388,0.068 -0.422377,0.15318 -0.603515,0.24414 -0.181138,0.091 -0.328586,0.18317 -0.414063,0.28516 -0.04274,0.051 -0.07503,0.11148 -0.06641,0.17773 0.0086,0.0663 0.06,0.11765 0.126953,0.15235 0.133912,0.0694 0.358308,0.10366 0.732422,0.10742 h 0.01953 l 0.01758,-0.0117 c 0.453362,-0.27295 0.748011,-0.47823 0.925781,-0.63281 0.051,-0.0444 0.07239,-0.078 0.105469,-0.11524 0.134712,0.24588 0.25283,0.50463 0.291016,0.74219 0.0439,0.27313 0.0094,0.50905 -0.117188,0.66797 -0.126635,0.15893 -0.352383,0.25519 -0.736328,0.22656 -0.372465,-0.0278 -0.901579,-0.1906 -1.582031,-0.51367 0.03466,-0.74288 0.139315,-1.27949 0.291016,-1.61523 0.15648,-0.34632 0.35007,-0.49668 0.552734,-0.53125 z m 3.083984,0.16601 c -0.10088,0.024 -0.192259,0.0833 -0.257812,0.17578 -0.06555,0.0925 -0.106727,0.21577 -0.125,0.37305 -0.03655,0.31456 0.0195,0.76823 0.201172,1.41211 l 0.0098,0.0352 0.0332,0.0117 c 0.660099,0.2547 1.134233,0.36796 1.470704,0.37695 0.168235,0.004 0.30241,-0.0173 0.408203,-0.0644 0.105793,-0.0472 0.182269,-0.12258 0.222656,-0.21485 0.08077,-0.18454 0.02888,-0.41371 -0.08594,-0.65234 -0.11482,-0.23864 -0.298597,-0.49138 -0.511718,-0.71875 -0.213121,-0.22737 -0.455923,-0.42873 -0.69336,-0.56641 -0.237437,-0.13768 -0.470114,-0.21598 -0.671875,-0.16797 z m 0.0332,0.13867 c 0.140564,-0.0334 0.345239,0.0241 0.566407,0.15235 0.221167,0.12825 0.457132,0.32233 0.662109,0.54101 0.204977,0.21869 0.380344,0.46333 0.486328,0.6836 0.105984,0.22027 0.136487,0.41325 0.08398,0.5332 -0.02625,0.06 -0.07163,0.10551 -0.150391,0.14063 -0.07876,0.0351 -0.191867,0.0568 -0.345703,0.0527 -0.299643,-0.008 -0.761541,-0.11983 -1.386719,-0.35742 -0.167217,-0.60655 -0.223223,-1.04646 -0.191406,-1.32031 0.01636,-0.14079 0.05442,-0.24016 0.101562,-0.30664 0.04714,-0.0665 0.103547,-0.10242 0.173828,-0.11915 z m 2.328125,0.22657 c -0.114767,0.0472 -0.199186,0.15792 -0.21875,0.3125 -0.03913,0.30915 0.134833,0.79903 0.677735,1.56445 l 0.04883,0.0664 0.05859,-0.0566 c 0.446187,-0.42433 0.541586,-0.85099 0.447265,-1.19141 -0.09432,-0.34042 -0.364806,-0.58839 -0.630859,-0.68359 -0.133026,-0.0476 -0.268045,-0.0589 -0.382813,-0.0117 z m 0.05469,0.13281 c 0.06934,-0.0285 0.171428,-0.0256 0.28125,0.0137 0.219643,0.0786 0.461086,0.29746 0.541016,0.58594 0.07054,0.2546 -0.05943,0.58345 -0.359375,0.92773 -0.42353,-0.63936 -0.620547,-1.11639 -0.59375,-1.32812 0.01474,-0.11643 0.06152,-0.17069 0.130859,-0.19922 z m -4.326172,0.15039 c 0.01893,0.0282 0.04453,0.0453 0.0625,0.0742 -0.02739,0.0374 -0.06425,0.0813 -0.134766,0.14258 -0.162019,0.14088 -0.452789,0.3441 -0.884765,0.60547 -0.348091,-0.005 -0.567631,-0.044 -0.652344,-0.0879 -0.04349,-0.0225 -0.04774,-0.0366 -0.04883,-0.0449 -0.0011,-0.008 0.0042,-0.0318 0.0332,-0.0664 0.05808,-0.0693 0.196233,-0.16317 0.369141,-0.25 0.172907,-0.0868 0.379847,-0.16836 0.582031,-0.23438 0.202184,-0.066 0.399456,-0.11566 0.548828,-0.13476 0.05195,-0.007 0.08758,-0.005 0.125,-0.004 z M 37.421875,195.75 c 0.02288,5.4e-4 0.03843,0.005 0.05859,0.0254 0.02017,0.0206 0.04284,0.0608 0.06055,0.12305 0.03342,0.11757 0.04174,0.33095 0.01953,0.62304 -0.24798,0.1686 -0.440567,0.27087 -0.5625,0.30274 -0.0643,0.0168 -0.109763,0.0183 -0.138672,0.0117 -0.02891,-0.007 -0.04304,-0.0188 -0.05469,-0.0371 -0.02329,-0.0366 -0.02841,-0.12556 0,-0.23828 0.02841,-0.11273 0.08568,-0.24504 0.158204,-0.36914 0.07252,-0.12411 0.160997,-0.23896 0.246093,-0.32032 0.0851,-0.0814 0.167131,-0.12217 0.212891,-0.12109 z m 7.039062,0 c 0.02288,5.4e-4 0.03843,0.005 0.05859,0.0254 0.02017,0.0206 0.04284,0.0608 0.06055,0.12305 0.03342,0.11757 0.04174,0.33095 0.01953,0.62304 -0.24798,0.1686 -0.440567,0.27087 -0.5625,0.30274 -0.0643,0.0168 -0.111715,0.0183 -0.140625,0.0117 -0.02891,-0.007 -0.04109,-0.0188 -0.05273,-0.0371 -0.02329,-0.0366 -0.02841,-0.12556 0,-0.23828 0.02841,-0.11273 0.08568,-0.24504 0.158203,-0.36914 0.07252,-0.12411 0.159044,-0.23896 0.244141,-0.32032 0.0851,-0.0814 0.169084,-0.12217 0.214843,-0.12109 z m -3.697265,0.10742 c 0.02385,-0.007 0.04215,-0.005 0.06641,0.008 0.02426,0.0131 0.05525,0.0409 0.08789,0.0937 0.05926,0.096 0.117664,0.29469 0.167968,0.5586 -0.01699,0.0187 -0.01296,0.0447 -0.0332,0.0625 -0.05857,0.0656 -0.09396,0.0873 -0.144531,0.13672 -0.110506,0.057 -0.380526,0.0503 -0.548828,0.0859 5.95e-4,-0.11328 0.02116,-0.25265 0.06055,-0.38867 0.04019,-0.13879 0.09663,-0.27438 0.160156,-0.37695 0.06353,-0.10257 0.135894,-0.16639 0.183594,-0.17969 z m -0.0293,1.02344 c -0.03435,0.0266 -0.09249,0.0982 -0.121094,0.11523 -0.05959,0.0354 -0.105859,0.0484 -0.136719,0.0508 -0.03086,0.002 -0.04555,-0.003 -0.06055,-0.0156 -0.01276,-0.011 -0.0152,-0.0646 -0.02539,-0.0937 0.106862,-0.0224 0.256599,-0.0246 0.34375,-0.0566 z m 84.261715,25.97266 c -0.1584,0.01 -0.31046,0.11496 -0.43359,0.29492 -0.12313,0.17995 -0.22087,0.43824 -0.27539,0.77148 -0.10904,0.66648 -0.0413,1.63907 0.39258,2.9082 l 0.0586,0.16993 0.0742,-0.16407 c 0.60238,-1.33287 0.79829,-2.31918 0.77539,-2.97851 -0.0114,-0.32967 -0.0763,-0.57776 -0.17969,-0.74805 -0.10338,-0.17028 -0.2537,-0.26395 -0.41211,-0.2539 z m -24.1582,0.0703 c -0.0488,-0.0149 -0.10995,-0.006 -0.15234,0.0293 -0.0424,0.0358 -0.0685,0.0861 -0.0859,0.15235 -0.0349,0.13257 -0.0407,0.33487 -0.0156,0.64258 l 0.002,0.0234 0.0156,0.0176 c 0.22022,0.24689 0.38244,0.39563 0.50782,0.47461 0.0627,0.0395 0.11719,0.0645 0.17187,0.0684 0.0547,0.004 0.11158,-0.0233 0.14063,-0.0664 0.0581,-0.0862 0.0442,-0.19445 0.0176,-0.32031 -0.0267,-0.12586 -0.0763,-0.26944 -0.13867,-0.41015 -0.0623,-0.14071 -0.13758,-0.27743 -0.21484,-0.38672 -0.0773,-0.1093 -0.15052,-0.19481 -0.24805,-0.22461 z m 15.06836,0.008 c -0.0496,0.0234 -0.0753,0.0809 -0.0762,0.13477 -8.4e-4,0.0539 0.013,0.11343 0.041,0.18945 0.0561,0.15204 0.17154,0.36948 0.36524,0.67578 l 0.0117,0.0176 0.0195,0.008 c 0.26189,0.11684 0.43293,0.17044 0.55664,0.17188 0.0619,7.2e-4 0.11887,-0.0123 0.1582,-0.0527 0.0393,-0.0405 0.047,-0.0986 0.0391,-0.14844 -0.0159,-0.0997 -0.0815,-0.20145 -0.16796,-0.31445 -0.0865,-0.113 -0.19536,-0.23262 -0.31055,-0.33984 -0.11519,-0.10723 -0.23592,-0.20223 -0.3418,-0.26758 -0.0529,-0.0327 -0.10116,-0.0589 -0.14844,-0.0742 -0.0473,-0.0154 -0.0969,-0.0234 -0.14648,0 z m 9.09766,0.0645 c 0.0992,-0.006 0.19638,0.0458 0.28125,0.18555 0.0849,0.13979 0.14928,0.36479 0.16015,0.67773 0.0193,0.55468 -0.22937,1.48524 -0.67773,2.58399 -0.303,-1.03979 -0.43137,-1.94056 -0.33985,-2.5 0.052,-0.31754 0.14672,-0.55623 0.25391,-0.71289 0.10719,-0.15667 0.22309,-0.22809 0.32227,-0.23438 z m -24.20899,0.0645 c 0.0294,0.009 0.10416,0.0714 0.17383,0.16992 0.0697,0.0986 0.14209,0.22791 0.20117,0.36133 0.0591,0.13341 0.10523,0.27108 0.12891,0.38281 0.0237,0.11173 0.0121,0.19885 0.004,0.21094 -0.004,0.006 0.004,0.005 -0.0117,0.004 -0.0161,-0.001 -0.054,-0.0144 -0.10547,-0.0469 -0.0991,-0.0624 -0.2556,-0.20427 -0.45899,-0.42969 -0.0209,-0.2801 -0.0137,-0.47379 0.0117,-0.57031 0.0132,-0.0503 0.0315,-0.0737 0.0391,-0.0801 0.008,-0.006 0.003,-0.006 0.0176,-0.002 z m 15.17383,0 c -0.005,0.002 0.009,-0.002 0.0391,0.008 0.0301,0.01 0.0724,0.0297 0.11914,0.0586 0.0935,0.0577 0.20837,0.14956 0.31836,0.25196 0.11,0.10239 0.21489,0.21574 0.29492,0.32031 0.08,0.10456 0.1331,0.20472 0.14063,0.25195 0.004,0.0236 -0.001,0.0248 -0.002,0.0254 -5.6e-4,5.8e-4 -0.0125,0.0102 -0.0527,0.01 -0.077,-9e-4 -0.2422,-0.0493 -0.47851,-0.15235 -0.18063,-0.28777 -0.29388,-0.49711 -0.3418,-0.62695 -0.0247,-0.0669 -0.0336,-0.11547 -0.0332,-0.13867 3.6e-4,-0.0232 0.001,-0.0102 -0.004,-0.008 z m -0.78711,0.25586 c -0.10653,0.0455 -0.18,0.16331 -0.25,0.33984 -0.07,0.17653 -0.1298,0.4169 -0.16992,0.71875 -0.0802,0.60371 -0.0787,1.45028 0.10742,2.5 l 0.14063,0.008 c 0.36517,-1.2816 0.5011,-2.1861 0.51171,-2.76172 0.005,-0.2878 -0.0181,-0.49232 -0.0683,-0.6289 -0.0251,-0.0683 -0.0563,-0.12105 -0.10352,-0.15625 -0.0472,-0.0352 -0.1147,-0.0423 -0.16797,-0.0195 z m -21.828124,0.0527 c -0.286527,-0.0245 -0.589669,0.0585 -0.863282,0.28711 -0.547224,0.45731 -0.974936,1.46853 -1.011718,3.3125 l -0.002,0.0879 0.08594,-0.0156 c 1.658362,-0.29594 2.513326,-0.90837 2.847656,-1.56446 0.334331,-0.65609 0.13606,-1.34316 -0.287109,-1.74804 -0.211585,-0.20245 -0.483004,-0.33492 -0.769531,-0.35938 z m 21.882814,0.0781 c 0.0154,-0.007 0.0147,-0.006 0.0273,0.004 0.0126,0.009 0.0352,0.0388 0.0547,0.0918 0.0389,0.10593 0.0657,0.2984 0.0606,0.57617 -0.008,0.43245 -0.18688,1.25866 -0.39453,2.12109 -0.0746,-0.70108 -0.1386,-1.40547 -0.0801,-1.8457 0.0389,-0.29301 0.0982,-0.52437 0.16211,-0.68555 0.0639,-0.16117 0.13919,-0.2486 0.16992,-0.26171 z m 3.25586,0.0195 c -0.25141,-0.035 -0.48927,0.0273 -0.67774,0.16406 -0.37693,0.27356 -0.54381,0.83756 -0.24804,1.46484 0.29577,0.62728 1.04405,1.31984 2.49218,1.90039 l 0.0996,0.041 -0.002,-0.10938 c -0.0481,-1.59579 -0.43333,-2.5502 -0.91016,-3.04687 -0.23841,-0.24834 -0.5025,-0.37908 -0.7539,-0.41406 z m -25.146487,0.041 c 0.250625,0.0224 0.487026,0.14175 0.677734,0.32422 0.381417,0.36494 0.565445,0.97826 0.259766,1.57813 -0.297549,0.58391 -1.099305,1.15771 -2.646484,1.45703 0.01154,-0.36927 0.08516,-0.58563 0.126953,-0.88477 -0.0043,0.0383 -0.01595,0.0774 0.002,0.11328 0.02808,0.0564 0.08034,0.0991 0.150391,0.13086 0.140105,0.0636 0.361391,0.0952 0.703125,0.0957 h 0.02734 l 0.01953,-0.0176 c 0.31185,-0.27226 0.504131,-0.47751 0.611328,-0.63477 0.0536,-0.0786 0.08702,-0.1439 0.09961,-0.20703 0.01259,-0.0631 -5.68e-4,-0.13036 -0.04102,-0.17383 -0.04045,-0.0435 -0.09528,-0.0613 -0.154296,-0.0684 -0.05902,-0.007 -0.125613,-0.003 -0.197266,0.008 -0.143307,0.0223 -0.31088,0.0754 -0.476563,0.14453 -0.165682,0.0691 -0.327604,0.15565 -0.460937,0.24804 -0.127949,0.0887 -0.224443,0.17967 -0.271484,0.28516 0.159586,-1.06089 0.435332,-1.83033 0.80664,-2.14063 0.247539,-0.20686 0.513047,-0.28021 0.763672,-0.25781 z m 25.128907,0.0977 c 0.21662,0.0303 0.44812,0.146 0.66797,0.375 0.42408,0.44172 0.78315,1.34253 0.85156,2.8164 -1.32713,-0.55866 -2.03536,-1.20294 -2.29883,-1.76171 -0.27327,-0.57958 -0.11491,-1.05825 0.20313,-1.28907 0.15902,-0.1154 0.35955,-0.17092 0.57617,-0.14062 z m -8.50586,0.0273 c -0.20043,-0.0718 -0.43029,-0.0324 -0.63672,0.14453 -0.41285,0.35392 -0.77137,1.23041 -0.93945,2.95508 l -0.008,0.0801 0.0801,-0.002 c 1.14285,-0.0204 1.77933,-0.47374 2.05469,-1.03907 0.27536,-0.56533 0.19655,-1.22655 -0.0547,-1.67187 -0.12561,-0.22266 -0.29566,-0.39497 -0.49609,-0.4668 z m -0.0488,0.13477 c 0.15554,0.0557 0.3062,0.20076 0.41992,0.40234 0.22745,0.40316 0.30373,1.02377 0.0527,1.53906 -0.24201,0.49688 -0.80755,0.89098 -1.83789,0.9375 0.17235,-1.62328 0.52724,-2.46695 0.87109,-2.76171 0.17642,-0.15124 0.33861,-0.17293 0.49414,-0.11719 z m -24.220701,0.0273 c -0.385646,-0.0618 -0.794068,-0.0321 -1.15625,0.0684 -0.362183,0.10049 -0.68173,0.27128 -0.892578,0.50391 -0.210849,0.23262 -0.3094,0.53502 -0.214844,0.86133 0.189112,0.65261 1.093814,1.38866 3.214844,2.11523 l 0.06055,0.0215 0.02734,-0.0586 c 0.356118,-0.76002 0.493066,-1.38002 0.470703,-1.88086 -0.02236,-0.50084 -0.207506,-0.88178 -0.484375,-1.14844 -0.276868,-0.26665 -0.639744,-0.42057 -1.02539,-0.48242 z m -0.02734,0.14258 c 0.362695,0.058 0.704011,0.20155 0.955078,0.44336 0.251067,0.24181 0.418488,0.58123 0.439453,1.05078 0.02015,0.45136 -0.119963,1.03829 -0.439453,1.74414 -2.034327,-0.71029 -2.893011,-1.43709 -3.052734,-1.98828 -0.08111,-0.2799 -0.0041,-0.51779 0.18164,-0.72266 0.185693,-0.20487 0.483813,-0.3679 0.826172,-0.46289 0.34236,-0.095 0.727149,-0.12244 1.089844,-0.0644 z m 26.537105,0.40039 c -0.25038,0.0547 -0.46404,0.26213 -0.60156,0.64648 -0.13752,0.38436 -0.206,0.94929 -0.17773,1.75196 v 0.0449 l 0.041,0.0195 c 0.73303,0.32511 1.28215,0.46918 1.68946,0.48438 0.40731,0.0152 0.68037,-0.10598 0.82422,-0.31836 0.14384,-0.21238 0.15465,-0.49671 0.0859,-0.79493 -0.0585,-0.25368 -0.19717,-0.51544 -0.34961,-0.76562 0.0428,-0.0532 0.0962,-0.10995 0.11914,-0.1543 0.038,-0.0735 0.0537,-0.14556 0.0234,-0.20898 -0.0302,-0.0634 -0.0953,-0.0922 -0.16211,-0.10156 -0.0668,-0.009 -0.14498,-0.003 -0.23242,0.0117 -0.0246,0.004 -0.0598,0.0217 -0.0859,0.0273 -0.13298,-0.15039 -0.25548,-0.32194 -0.40429,-0.42578 -0.2507,-0.17495 -0.51915,-0.27153 -0.76954,-0.2168 z m 9.79883,0 c -0.25039,0.0547 -0.46403,0.26213 -0.60156,0.64648 -0.13753,0.38436 -0.20795,0.9493 -0.17969,1.75196 l 0.002,0.0449 0.041,0.0195 c 0.73303,0.3251 1.28215,0.46918 1.68945,0.48438 0.40731,0.0152 0.68038,-0.10598 0.82422,-0.31836 0.14385,-0.21238 0.15466,-0.49671 0.0859,-0.79493 -0.0585,-0.25368 -0.19718,-0.51544 -0.34961,-0.76562 0.0428,-0.0532 0.0962,-0.10995 0.11914,-0.1543 0.038,-0.0735 0.0537,-0.14556 0.0234,-0.20898 -0.0302,-0.0634 -0.0953,-0.0922 -0.16211,-0.10156 -0.0668,-0.009 -0.14498,-0.003 -0.23242,0.0117 -0.0246,0.004 -0.0598,0.0217 -0.0859,0.0273 -0.13298,-0.15039 -0.25549,-0.32194 -0.4043,-0.42578 -0.25069,-0.17495 -0.51914,-0.27153 -0.76953,-0.2168 z m -9.76758,0.13867 c 0.19416,-0.0424 0.42473,0.0337 0.65625,0.19531 0.12054,0.0841 0.22284,0.23196 0.33594,0.35352 -0.12365,0.0352 -0.2387,0.0612 -0.375,0.11719 -0.22204,0.0912 -0.44941,0.20386 -0.64258,0.32422 -0.19317,0.12035 -0.35289,0.24478 -0.4414,0.37304 -0.0443,0.0641 -0.0733,0.13278 -0.0664,0.20508 0.007,0.0723 0.0542,0.13741 0.125,0.18164 0.14165,0.0885 0.382,0.12929 0.7793,0.12891 h 0.0234 l 0.0195,-0.0156 c 0.47389,-0.35227 0.77601,-0.61418 0.96679,-0.81445 0.13191,0.2256 0.26004,0.45853 0.31055,0.67773 0.0635,0.27549 0.0472,0.51875 -0.0645,0.6836 -0.11165,0.16484 -0.32351,0.26995 -0.70117,0.25586 -0.36685,-0.0137 -0.89776,-0.15749 -1.58985,-0.45899 -0.0216,-0.75583 0.0421,-1.30409 0.16602,-1.65039 0.12756,-0.35652 0.30389,-0.5142 0.49804,-0.55664 z m 9.79883,0 c 0.19416,-0.0424 0.42474,0.0338 0.65625,0.19531 0.12054,0.0841 0.22284,0.23196 0.33594,0.35352 -0.12365,0.0352 -0.2387,0.0612 -0.375,0.11719 -0.22204,0.0912 -0.44941,0.20386 -0.64258,0.32422 -0.19316,0.12035 -0.3529,0.24478 -0.4414,0.37304 -0.0443,0.0641 -0.0734,0.13279 -0.0664,0.20508 0.007,0.0723 0.0542,0.13741 0.125,0.18164 0.14165,0.0885 0.38199,0.12929 0.7793,0.12891 h 0.0234 l 0.0195,-0.0156 c 0.47387,-0.35227 0.77602,-0.61419 0.96679,-0.81445 0.1319,0.2256 0.26004,0.45853 0.31055,0.67773 0.0635,0.27549 0.0472,0.51875 -0.0644,0.6836 -0.11166,0.16484 -0.32351,0.26995 -0.70118,0.25586 -0.36684,-0.0137 -0.89776,-0.15749 -1.58984,-0.45899 -0.0216,-0.75583 0.0421,-1.30409 0.16602,-1.65039 0.12756,-0.35652 0.30388,-0.5142 0.49804,-0.55664 z m -33.363279,0.0156 c -0.237464,0.033 -0.442508,0.22357 -0.574219,0.58593 -0.13171,0.36237 -0.200519,0.90309 -0.18164,1.6836 v 0.041 l 0.03516,0.0195 c 0.678174,0.37573 1.188622,0.56279 1.568359,0.61132 0.379738,0.0485 0.639488,-0.0469 0.777344,-0.24414 0.137856,-0.19724 0.148879,-0.47335 0.08789,-0.76758 -0.06099,-0.29422 -0.196422,-0.61129 -0.373047,-0.90429 -0.06966,-0.11556 -0.165339,-0.19245 -0.246094,-0.29688 4.36e-4,-0.001 0.0015,-0.005 0.002,-0.006 0.03444,-0.0943 0.05368,-0.16419 0.05469,-0.22461 5.02e-4,-0.0302 -0.0035,-0.0601 -0.01758,-0.0879 -0.01406,-0.0277 -0.04252,-0.0516 -0.07227,-0.0605 -0.05949,-0.0179 -0.108168,0.004 -0.160156,0.0312 -0.01895,0.01 -0.04048,0.03 -0.06055,0.043 -0.04492,-0.0438 -0.0788,-0.11239 -0.125,-0.1504 -0.230986,-0.19001 -0.47738,-0.30642 -0.714844,-0.27343 z m 15.408199,0.13672 c -0.45838,-0.22213 -1.09875,-0.0246 -1.58593,0.30859 -0.2436,0.16661 -0.44939,0.36863 -0.57422,0.58398 -0.12484,0.21535 -0.16817,0.45186 -0.0644,0.66016 0.10371,0.2083 0.34343,0.3742 0.74218,0.47852 0.39876,0.10431 0.96245,0.14978 1.74024,0.10937 l 0.0508,-0.004 0.0137,-0.0488 c 0.17541,-0.61397 0.21186,-1.07338 0.14648,-1.41407 -0.0654,-0.34068 -0.23955,-0.56276 -0.46875,-0.67382 z m -15.388668,0.006 c 0.176532,-0.0245 0.391445,0.0661 0.605469,0.24218 0.03583,0.0295 0.06417,0.0854 0.09961,0.11914 -0.11991,0.0979 -0.256005,0.2311 -0.388672,0.37891 -0.135368,0.15082 -0.266869,0.31429 -0.369141,0.46484 -0.102272,0.15056 -0.176759,0.28329 -0.197266,0.39649 -0.01025,0.0566 -0.0069,0.12091 0.04102,0.16406 0.04794,0.0432 0.112473,0.0452 0.181641,0.0312 0.138335,-0.0278 0.336415,-0.12579 0.640625,-0.32031 l 0.01367,-0.01 0.0098,-0.0137 c 0.195485,-0.33794 0.290019,-0.54716 0.367188,-0.73047 0.0629,0.0848 0.139823,0.14037 0.195312,0.23242 0.169575,0.28131 0.298892,0.58839 0.355469,0.86133 0.05658,0.27295 0.03663,0.50883 -0.06641,0.65625 -0.103039,0.14743 -0.293136,0.23021 -0.642578,0.18555 -0.340025,-0.0435 -0.832537,-0.22937 -1.47461,-0.58008 -0.01336,-0.73621 0.05182,-1.26101 0.169922,-1.58594 0.121444,-0.33411 0.282453,-0.46766 0.458984,-0.49218 z m 27.326168,0.0742 c -0.13508,-0.0182 -0.26795,0.008 -0.36718,0.0899 -0.0992,0.082 -0.1565,0.21693 -0.15235,0.38867 0.008,0.34348 0.24042,0.84653 0.86133,1.55664 l 0.0644,0.0742 0.0508,-0.084 c 0.70678,-1.17562 0.0833,-1.95242 -0.45704,-2.02539 z m -19.382808,0.0391 c -0.09223,-0.009 -0.182289,0.0325 -0.283203,0.0918 -0.100915,0.0593 -0.20779,0.14188 -0.306641,0.23047 -0.04869,0.0436 -0.08257,0.0893 -0.125,0.13477 -0.03018,-0.0202 -0.06218,-0.0581 -0.0918,-0.0762 -0.243777,-0.14865 -0.47004,-0.23355 -0.65039,-0.15821 -0.09018,0.0377 -0.157226,0.12041 -0.189454,0.23242 -0.03223,0.11202 -0.03543,0.25634 -0.0098,0.43946 0.05133,0.36624 0.220489,0.89477 0.550781,1.64258 l 0.01172,0.0273 0.02539,0.01 c 0.645576,0.26319 1.091318,0.37021 1.394532,0.36132 0.151606,-0.004 0.269702,-0.0391 0.355468,-0.10547 0.08577,-0.0664 0.132449,-0.16277 0.142579,-0.26953 0.02026,-0.21351 -0.08241,-0.46924 -0.244141,-0.74023 -0.161727,-0.27099 -0.387012,-0.55562 -0.632813,-0.81055 -0.0705,-0.0731 -0.144071,-0.11264 -0.216796,-0.17969 0.06573,-0.0257 0.09425,-0.025 0.173828,-0.0605 l 0.02344,-0.01 0.01172,-0.0215 c 0.12387,-0.23036 0.185208,-0.38811 0.201172,-0.50586 0.008,-0.0589 0.0052,-0.11142 -0.01953,-0.15625 -0.02472,-0.0448 -0.07498,-0.0714 -0.121094,-0.0762 z m 7.382808,0.01 c 0.18899,0.0916 0.33167,0.26501 0.39063,0.57227 0.0566,0.29479 0.017,0.72908 -0.13672,1.29297 -0.72767,0.0328 -1.27524,-0.006 -1.63867,-0.10157 -0.37643,-0.0985 -0.57066,-0.24808 -0.64844,-0.40429 -0.0778,-0.15622 -0.0513,-0.33395 0.0586,-0.52344 0.10984,-0.18949 0.30149,-0.38192 0.53125,-0.53906 0.45951,-0.31429 1.06538,-0.48004 1.44335,-0.29688 z m 11.98047,0.0937 c 0.39432,0.0532 0.87101,0.65221 0.38282,1.64649 -0.47418,-0.58636 -0.73418,-1.06407 -0.74024,-1.31446 -0.003,-0.1397 0.0394,-0.22206 0.10156,-0.27343 0.0621,-0.0514 0.15075,-0.0728 0.25586,-0.0586 z m -19.37695,0.0391 c 0.0127,0.001 0.0074,-4.1e-4 0.0098,0.004 0.0024,0.004 0.0095,0.025 0.0039,0.0664 -0.0107,0.0789 -0.06924,0.23131 -0.177735,0.4375 -0.100039,0.0439 -0.141749,0.0476 -0.216796,0.0742 -0.07132,-0.061 -0.140375,-0.12379 -0.210938,-0.17579 0.03832,-0.0408 0.06696,-0.0813 0.111328,-0.12109 0.09282,-0.0832 0.193529,-0.16017 0.283203,-0.21289 0.08967,-0.0527 0.171861,-0.0749 0.197266,-0.0723 z m 3.86914,0.0703 c -0.13149,-0.003 -0.25774,0.0337 -0.34961,0.11914 -0.0919,0.0854 -0.14171,0.21791 -0.13086,0.3789 0.0217,0.32199 0.26915,0.76805 0.89844,1.36524 l 0.0664,0.0644 0.0449,-0.082 c 0.31887,-0.58186 0.3255,-1.04151 0.17773,-1.35742 -0.14776,-0.31592 -0.44404,-0.48189 -0.70703,-0.48828 z m -10.810546,0.0234 c 1.21e-4,0.002 4.6e-5,0.001 0,0.004 -2.86e-4,0.0172 -0.01627,0.064 -0.02539,0.0996 -0.01794,-0.0206 -0.03445,-0.0427 -0.05273,-0.0625 0.01127,-0.007 0.02737,-0.0203 0.03711,-0.0254 0.0293,-0.0152 0.03694,-0.0142 0.04102,-0.0156 z m 23.998046,0.0996 c 0.0426,0.006 0.051,0.0158 0.0527,0.0195 0.002,0.004 0.006,0.0281 -0.0215,0.082 -0.01,0.0187 -0.0438,0.0541 -0.0606,0.0781 -0.0458,-0.0674 -0.10983,-0.1066 -0.16015,-0.16992 4.8e-4,-8e-5 0.001,8e-5 0.002,0 0.0788,-0.0133 0.14488,-0.0157 0.1875,-0.01 z m 9.79883,0 c 0.0426,0.006 0.051,0.0158 0.0527,0.0195 0.002,0.004 0.006,0.0281 -0.0215,0.082 -0.01,0.0187 -0.0438,0.0541 -0.0605,0.0781 -0.0458,-0.0674 -0.10983,-0.1066 -0.16015,-0.16992 4.8e-4,-8e-5 0.001,8e-5 0.002,0 0.0788,-0.0133 0.14488,-0.0157 0.1875,-0.01 z m -28.244142,0.0195 c 0.09699,-0.0405 0.291221,0.009 0.519531,0.14843 0.02209,0.0135 0.04769,0.0437 0.07031,0.0586 -0.0086,0.0111 -0.02333,0.0222 -0.03125,0.0332 -0.06483,0.0896 -0.116731,0.16917 -0.0957,0.26367 0.01051,0.0473 0.05223,0.09 0.09961,0.10547 0.04738,0.0155 0.100687,0.0137 0.166016,0.004 0.0557,-0.008 0.16895,-0.0612 0.246093,-0.0859 0.09229,0.0818 0.182065,0.13382 0.271485,0.22656 0.239169,0.24805 0.45902,0.52472 0.613281,0.7832 0.154262,0.25849 0.239207,0.50046 0.224609,0.6543 -0.0073,0.0769 -0.03442,0.13048 -0.08789,0.17188 -0.05347,0.0414 -0.139308,0.0703 -0.271485,0.0742 -0.25855,0.008 -0.692706,-0.0968 -1.30664,-0.34375 -0.314954,-0.71875 -0.484244,-1.23886 -0.53125,-1.57422 -0.02397,-0.17099 -0.0178,-0.29669 0.0059,-0.37891 0.02366,-0.0822 0.05893,-0.12036 0.107422,-0.14062 z m 5.255862,0 c 0.20427,0.005 0.45335,0.13948 0.57812,0.40625 0.1093,0.23367 0.0512,0.62231 -0.15039,1.07617 -0.47836,-0.49379 -0.74829,-0.90868 -0.76367,-1.13672 -0.009,-0.1275 0.0269,-0.20877 0.0859,-0.26367 0.059,-0.0549 0.14786,-0.0845 0.25,-0.082 z m -11.000003,0.002 c 0.03853,0.0412 0.07215,0.0877 0.109375,0.13281 -0.06766,0.17048 -0.181411,0.40666 -0.384765,0.75977 -0.286403,0.18152 -0.481865,0.27399 -0.576172,0.29297 -0.0483,0.01 -0.06216,6.9e-4 -0.05859,0.004 0.0036,0.003 -0.0021,-2.3e-4 0.0039,-0.0332 0.01195,-0.0659 0.07636,-0.19832 0.173829,-0.3418 0.09747,-0.14348 0.225859,-0.30264 0.357421,-0.44922 0.129513,-0.14429 0.263658,-0.27447 0.375,-0.36523 z m 23.849613,0.0352 c 0.0644,0.0776 0.14195,0.12611 0.19922,0.21094 0.008,0.0112 0.008,0.0238 0.0156,0.0352 -0.009,0.009 -0.008,0.0136 -0.0176,0.0234 -0.17483,0.18603 -0.4872,0.4518 -0.94922,0.79687 -0.36505,-0.003 -0.59347,-0.0465 -0.68164,-0.10156 -0.0455,-0.0284 -0.0563,-0.05 -0.0586,-0.0742 -0.002,-0.0242 0.008,-0.0615 0.041,-0.10938 0.0661,-0.0957 0.21377,-0.21892 0.39843,-0.33398 0.18467,-0.11505 0.40598,-0.22417 0.6211,-0.3125 0.15904,-0.0653 0.29734,-0.10077 0.43164,-0.13477 z m 9.79883,0 c 0.0644,0.0776 0.14195,0.12611 0.19921,0.21094 0.008,0.0112 0.008,0.0238 0.0156,0.0352 -0.009,0.009 -0.008,0.0136 -0.0176,0.0234 -0.17482,0.18603 -0.48722,0.4518 -0.94922,0.79687 -0.36505,-0.003 -0.59347,-0.0465 -0.68164,-0.10156 -0.0455,-0.0284 -0.0563,-0.05 -0.0586,-0.0742 -0.002,-0.0242 0.008,-0.0615 0.041,-0.10938 0.0661,-0.0957 0.21378,-0.21893 0.39844,-0.33398 0.18466,-0.11505 0.40599,-0.22417 0.62109,-0.3125 0.15905,-0.0653 0.29734,-0.10077 0.43165,-0.13477 z m -29.976568,0.22266 c 0.03956,0.005 0.06153,0.0161 0.06836,0.0234 0.0068,0.007 0.01049,0.0138 0.0039,0.0469 -0.0066,0.033 -0.029,0.087 -0.07617,0.15625 -0.09111,0.13366 -0.279841,0.33159 -0.568359,0.58594 -0.307911,-0.003 -0.516884,-0.0354 -0.615235,-0.0801 -0.05136,-0.0233 -0.07373,-0.0459 -0.08203,-0.0625 -0.0083,-0.0166 -0.0095,-0.0336 0.002,-0.0625 0.02292,-0.0578 0.108093,-0.14762 0.230469,-0.23242 0.122376,-0.0848 0.279995,-0.16672 0.4375,-0.23242 0.157505,-0.0657 0.317196,-0.11516 0.443359,-0.13477 0.06308,-0.01 0.116686,-0.0125 0.15625,-0.008 z m 2.771485,0.0371 c 0.05,0.0364 0.09927,0.0852 0.15039,0.12695 -0.0378,0.0101 -0.11485,0.0447 -0.142578,0.0488 -0.05284,0.008 -0.08694,0.004 -0.09961,0 -0.01267,-0.004 -0.0035,0.002 -0.0039,0 -7.71e-4,-0.003 0.01427,-0.071 0.07031,-0.14844 0.0061,-0.008 0.01867,-0.0187 0.02539,-0.0273 z"
       id="path378" /></g></svg>
