<?xml version="1.0" encoding="UTF-8" standalone="no"?>
<!-- Created with Inkscape (http://www.inkscape.org/) -->

<svg
   width="210mm"
   height="297mm"
   viewBox="0 0 210 297"
   version="1.1"
   id="svg5"
   xml:space="preserve"
   inkscape:version="1.2.2 (b0a8486, 2022-12-01)"
   sodipodi:docname="drawing.svg"
   xmlns:inkscape="http://www.inkscape.org/namespaces/inkscape"
   xmlns:sodipodi="http://sodipodi.sourceforge.net/DTD/sodipodi-0.dtd"
   xmlns="http://www.w3.org/2000/svg"
   xmlns:svg="http://www.w3.org/2000/svg"><sodipodi:namedview
     id="namedview7"
     pagecolor="#ffffff"
     bordercolor="#000000"
     borderopacity="0.25"
     inkscape:showpageshadow="2"
     inkscape:pageopacity="0.0"
     inkscape:pagecheckerboard="0"
     inkscape:deskcolor="#d1d1d1"
     inkscape:document-units="mm"
     showgrid="false"
     inkscape:zoom="0.914906"
     inkscape:cx="396.76207"
     inkscape:cy="562.35285"
     inkscape:window-width="3770"
     inkscape:window-height="2096"
     inkscape:window-x="0"
     inkscape:window-y="0"
     inkscape:window-maximized="1"
     inkscape:current-layer="layer1" /><defs
     id="defs2" /><g
     inkscape:label="Layer 1"
     inkscape:groupmode="layer"
     id="layer1"><path
       style="fill:#000000;stroke-width:0.143374"
       d="m 18.098636,236.12962 c -2.859116,-0.27491 -4.813229,-1.24995 -6.235819,-3.11145 -0.694706,-0.90906 -1.134493,-1.90923 -1.510524,-3.43528 l -0.311962,-1.26604 V 143.7903 c 0,-79.919354 0.01314,-84.587437 0.241097,-85.64364 0.509505,-2.360724 1.757888,-4.408005 3.354048,-5.500455 0.910221,-0.622978 2.528936,-1.168567 3.995486,-1.346682 1.722196,-0.209164 174.932488,-0.209164 176.654678,0 1.39713,0.169684 2.98865,0.690848 3.97027,1.300115 1.63043,1.011975 2.9753,3.108206 3.51099,5.472549 0.22124,0.976527 0.23903,6.315818 0.28062,84.228663 0.0289,54.08259 -0.003,83.78531 -0.0923,84.89891 -0.25104,3.14567 -0.85981,4.80007 -2.36341,6.4228 -1.46825,1.58457 -3.04516,2.27073 -5.78085,2.51545 -1.91909,0.17166 -173.925145,0.16345 -175.712314,-0.008 z m 176.048994,-1.18916 c 4.15317,-0.50476 6.23245,-2.71281 6.69125,-7.10563 0.10922,-1.04564 0.14058,-24.95354 0.11161,-85.08715 l -0.0403,-83.632874 -0.3075,-1.165428 c -0.40518,-1.535517 -0.90286,-2.491566 -1.80238,-3.462359 -0.81789,-0.882694 -1.71391,-1.411808 -3.06555,-1.810291 -0.85495,-0.252049 -5.06415,-0.264468 -89.63845,-0.264468 -84.727691,0 -88.781945,0.01202 -89.638446,0.265679 -1.510541,0.447365 -2.573134,1.068614 -3.409955,1.993645 -0.82726,0.914461 -1.264111,1.791824 -1.656126,3.326131 -0.236464,0.925499 -0.24736,4.698044 -0.24736,85.643645 0,80.48508 0.01207,84.72341 0.243835,85.64364 0.85886,3.41007 2.846146,5.22511 6.176636,5.64126 1.514751,0.18927 175.027516,0.20322 176.582736,0.0142 z M 87.549138,222.52797 c -0.08604,-0.11189 -0.271597,-0.69282 -0.412342,-1.29094 l -0.255903,-1.08751 -0.192963,0.4345 c -0.29168,0.65679 -0.681331,0.56856 -1.041107,-0.23575 -0.189516,-0.42368 -0.323546,-0.58807 -0.36432,-0.44684 -0.440884,1.52702 -0.821432,2.38313 -1.059334,2.38313 -0.07148,0 -0.197326,-0.13582 -0.279645,-0.30182 -0.117784,-0.23751 -0.09429,-0.38826 0.110289,-0.70749 0.359013,-0.56025 0.676191,-1.48009 0.788125,-2.28566 0.05176,-0.3725 0.15182,-0.77215 0.222356,-0.8881 0.195173,-0.32083 0.764498,0.45136 0.880875,1.19478 0.142178,0.90821 0.306947,0.86287 0.586445,-0.1614 0.138797,-0.50865 0.312379,-0.94533 0.385738,-0.97038 0.358819,-0.12257 0.518221,0.27157 0.627708,1.55212 0.06293,0.73604 0.234226,1.67854 0.380652,2.09442 0.146427,0.4159 0.232003,0.79312 0.190166,0.83827 -0.134912,0.14561 -0.406112,0.0875 -0.56674,-0.12133 z m 8.924345,-0.0197 c -0.70538,-0.43011 -0.861284,-1.27888 -0.388588,-2.11555 0.537048,-0.95056 1.561473,-1.17114 2.009773,-0.43276 0.451154,0.7431 -0.39089,1.56772 -1.310266,1.28316 -0.519372,-0.16075 -0.571079,0.12898 -0.107372,0.60159 0.311374,0.31738 0.798892,0.33209 1.725144,0.0521 0.227786,-0.0689 0.310525,-0.0311 0.310525,0.14169 0,0.54184 -1.578064,0.87288 -2.239216,0.46975 z m 0.91682,-1.80358 c 0.247614,-0.10255 0.290468,-0.43966 0.07422,-0.5839 -0.07924,-0.0529 -0.298591,0.0131 -0.487438,0.1467 -0.51098,0.36134 -0.199463,0.69092 0.413214,0.4372 z m -4.96525,1.51739 c -0.197352,-0.15573 -0.267898,-0.39017 -0.267898,-0.89029 0,-1.12643 0.832141,-1.75364 1.828652,-1.37831 0.29517,0.11117 0.310525,0.08 0.310525,-0.63047 0,-1.19323 0.258873,-2.27684 0.53061,-2.22108 0.297437,0.0611 0.386439,1.52114 0.157028,2.57607 -0.143094,0.65802 -0.128284,0.84013 0.127181,1.56393 0.353128,1.00051 0.35434,1.04262 0.02999,1.04262 -0.158927,0 -0.326778,-0.17587 -0.433678,-0.45439 l -0.174399,-0.4544 -0.359887,0.37046 c -0.353243,0.36359 -0.969525,0.68728 -1.308575,0.68728 -0.09441,0 -0.292209,-0.0951 -0.439553,-0.21142 z m 1.069465,-0.71949 c 0.119362,-0.1024 0.319678,-0.36225 0.445149,-0.57745 0.224467,-0.38498 0.221984,-0.39252 -0.154671,-0.47022 -0.452722,-0.0934 -0.804675,0.0816 -1.014255,0.50418 -0.299585,0.60412 0.208429,0.9856 0.723777,0.54349 z m 22.321462,0.61256 c -0.24006,-0.48408 -0.0282,-5.34158 0.23297,-5.34158 0.25012,0 0.246,-0.049 0.25363,3.01589 0.005,1.97847 -0.0356,2.6436 -0.16108,2.64378 -0.0922,1.4e-4 -0.23869,-0.143 -0.32552,-0.31809 z m 5.14407,0.0667 c -0.071,-0.14835 -0.20541,-0.52474 -0.29857,-0.83644 -0.21681,-0.72545 -0.4674,-0.68045 -1.08614,0.19505 -0.84166,1.19091 -0.91418,1.04198 -0.96121,-1.97421 -0.0283,-1.81155 0.005,-2.64379 0.10692,-2.64379 0.28375,0 0.41735,0.77488 0.41735,2.4207 v 1.65657 l 0.37953,-0.38203 c 0.20874,-0.21012 0.51989,-0.45998 0.69145,-0.55523 0.26924,-0.14949 0.35688,-0.12084 0.64047,0.20939 0.27108,0.31568 0.52152,1.17859 0.5589,1.92576 0.0132,0.26304 -0.32076,0.2513 -0.4487,-0.0158 z m 4.66313,-0.12576 c -0.0908,-0.25766 -0.10314,-1.2509 -0.0349,-2.80357 0.0873,-1.98738 0.14159,-2.40453 0.31269,-2.40453 0.17562,0 0.20807,0.38398 0.21398,2.53207 0.004,1.39264 0.0349,2.62864 0.069,2.74665 0.0347,0.12008 -0.0441,0.23964 -0.17908,0.2715 -0.16097,0.038 -0.28784,-0.0757 -0.38169,-0.34212 z m -36.75691,-0.044 c -0.486355,-0.57999 -0.185982,-1.59781 0.601185,-2.03712 0.923481,-0.51538 1.567363,-0.14934 1.966409,1.11794 0.11608,0.36864 0.25532,0.78755 0.309423,0.93091 0.152543,0.40419 -0.437662,0.33497 -0.635057,-0.0745 -0.08886,-0.18432 -0.181579,-0.36022 -0.206044,-0.39089 -0.02447,-0.0307 -0.238186,0.12013 -0.474935,0.33513 -0.513612,0.46641 -1.224019,0.52034 -1.560981,0.11851 z m 1.279129,-0.70901 c 0.519503,-0.47177 0.569191,-0.9549 0.09821,-0.9549 -0.413171,0 -1.053698,0.53473 -1.053698,0.87966 0,0.57889 0.368887,0.60795 0.955491,0.0752 z m 11.690661,0.72074 c -0.0382,-0.14336 -0.089,-0.59452 -0.11281,-1.00257 -0.0343,-0.58784 0.003,-0.75165 0.17911,-0.78891 0.23424,-0.0495 0.39402,0.58143 0.39712,1.56806 0.002,0.52583 -0.33899,0.69006 -0.46342,0.22342 z m 3.37735,-0.0745 c -0.0644,-0.18432 -0.16076,-0.55218 -0.21422,-0.81748 -0.0535,-0.26531 -0.14828,-0.51644 -0.2107,-0.55807 -0.10614,-0.0708 -0.60206,0.4956 -1.12994,1.29051 -0.38702,0.58279 -0.58152,0.17367 -0.46684,-0.98202 0.10855,-1.0939 0.27083,-1.33473 0.51295,-0.76124 l 0.16272,0.38545 0.38213,-0.45152 c 0.41356,-0.48866 0.6911,-0.56442 0.92996,-0.25381 0.17915,0.23297 0.58103,2.19777 0.48414,2.36695 -0.1249,0.21812 -0.33296,0.11702 -0.4502,-0.21877 z m 4.12617,0.0419 c -0.64105,-0.22178 -0.76585,-0.32362 -0.80273,-0.65498 -0.0573,-0.51456 0.28933,-0.52142 1.09917,-0.0218 0.70569,0.43538 0.85254,0.45337 1.14282,0.1401 0.16286,-0.17576 0.21688,-0.54678 0.21688,-1.48946 v -1.2554 h -0.7443 c -0.56746,0 -0.76527,-0.059 -0.83259,-0.24832 -0.15118,-0.4252 0.12155,-0.52244 1.15646,-0.41239 l 0.99473,0.10578 -0.0456,1.78041 c -0.0426,1.66165 -0.0674,1.79936 -0.37144,2.0648 -0.39165,0.34187 -0.80567,0.33988 -1.81337,-0.009 z m 3.03625,-0.005 c -0.43212,-0.46636 -0.34849,-0.99945 0.25979,-1.65592 0.44212,-0.47714 0.63144,-0.57826 1.0827,-0.57826 0.35084,0 0.6203,0.0934 0.75165,0.26065 0.19842,0.25258 0.80411,1.8613 0.80411,2.13573 0,0.31626 -0.43891,0.0988 -0.68615,-0.34003 -0.22478,-0.39889 -0.28286,-0.43407 -0.35973,-0.2179 -0.11594,0.32608 -0.76476,0.69362 -1.22446,0.69362 -0.19353,0 -0.47609,-0.13405 -0.62791,-0.29789 z m 1.11174,-0.45125 c 0.22983,-0.13275 0.68241,-0.86577 0.68241,-1.10528 0,-0.045 -0.17469,-0.0819 -0.38821,-0.0819 -0.25014,0 -0.52759,0.157 -0.7801,0.44144 -0.32789,0.36936 -0.36316,0.47883 -0.21594,0.67026 0.2068,0.26892 0.34175,0.28343 0.70184,0.0754 z m 3.80565,0.41401 c -0.16583,-0.66781 -0.0987,-1.75011 0.1086,-1.75011 0.23077,0 0.52148,1.27136 0.40275,1.76136 -0.10236,0.42244 -0.40531,0.41578 -0.51135,-0.0112 z m 4.88143,0.0372 c -0.43213,-0.46636 -0.34849,-0.99945 0.25979,-1.65592 0.44211,-0.47714 0.63143,-0.57826 1.0827,-0.57826 0.35084,0 0.62029,0.0934 0.75165,0.26065 0.19842,0.25258 0.8041,1.8613 0.8041,2.13573 0,0.31626 -0.4389,0.0988 -0.68615,-0.34003 -0.22478,-0.39889 -0.28286,-0.43407 -0.35973,-0.2179 -0.11594,0.32608 -0.76475,0.69362 -1.22446,0.69362 -0.19353,0 -0.47609,-0.13405 -0.6279,-0.29789 z m 1.11174,-0.45125 c 0.22983,-0.13275 0.68241,-0.86577 0.68241,-1.10528 0,-0.045 -0.1747,-0.0819 -0.38822,-0.0819 -0.25013,0 -0.52759,0.157 -0.7801,0.44144 -0.32788,0.36936 -0.36315,0.47883 -0.21594,0.67026 0.2068,0.26892 0.34176,0.28343 0.70185,0.0754 z m -21.75574,-2.54111 c -0.25618,-0.30552 -0.2561,-0.31527 0.005,-0.52097 0.23504,-0.18548 0.30237,-0.17237 0.58471,0.11389 0.1755,0.17793 0.31909,0.41237 0.31909,0.52096 0,0.30898 -0.61882,0.23139 -0.90836,-0.11388 z m 15.64108,0.15047 c -0.29532,-0.18565 -0.31717,-0.6696 -0.0355,-0.78626 0.22492,-0.0932 0.76005,0.43617 0.76005,0.7518 0,0.23078 -0.38323,0.24901 -0.72456,0.0345 z M 48.925062,192.68035 c -0.132836,-0.14407 -0.371865,-0.45591 -0.531177,-0.69296 -0.331962,-0.49397 -0.546808,-0.4267 -0.676771,0.2119 -0.06223,0.30575 -0.173581,0.44512 -0.355647,0.44512 -0.215163,0 -0.264122,-0.10514 -0.26009,-0.55854 0.01059,-1.19034 0.364853,-3.49039 0.557391,-3.61881 0.363222,-0.24227 0.460039,0.11174 0.294035,1.0751 -0.08768,0.50885 -0.126951,0.96022 -0.08726,1.00306 0.03969,0.0428 0.332117,-0.25488 0.64984,-0.66157 0.804497,-1.02979 1.33626,-1.55866 1.567203,-1.55866 0.471697,0 0.273922,0.4656 -0.634559,1.49385 -0.534325,0.60477 -0.9715,1.14176 -0.9715,1.19331 0,0.0516 0.286408,0.40726 0.636463,0.79046 0.528053,0.57805 0.607452,0.73445 0.466141,0.91821 -0.221372,0.28787 -0.359204,0.27934 -0.654067,-0.0405 z M 32.141895,192.3165 c -0.133169,-0.53656 -0.103081,-3.32008 0.03759,-3.47764 0.06948,-0.0778 0.14711,-0.30907 0.172514,-0.51387 0.05396,-0.43503 0.212948,-0.44465 1.415269,-0.0856 1.731805,0.51714 2.363812,1.22643 1.735726,1.94796 -0.170629,0.19602 -0.48875,0.39871 -0.706936,0.45043 -0.218186,0.0517 -0.396703,0.12084 -0.396703,0.1536 0,0.0328 0.279473,0.33759 0.621052,0.67739 0.575605,0.57261 0.818638,1.17566 0.473796,1.17566 -0.139102,0 -1.375962,-1.09066 -2.224854,-1.96187 -0.486739,-0.49953 -0.401459,-0.95099 0.148931,-0.78843 1.001091,0.29567 1.910051,0.0381 1.544253,-0.43755 -0.228444,-0.29706 -1.430895,-0.71718 -1.882882,-0.65785 l -0.362605,0.0476 -0.02142,1.85957 c -0.01825,1.58434 -0.05452,1.86649 -0.245093,1.90627 -0.137578,0.0287 -0.25638,-0.0851 -0.30864,-0.29564 z m 4.528377,-0.0377 c -0.492667,-0.5317 -0.483212,-1.58323 0.01742,-1.93725 0.566383,-0.40051 1.237763,-0.45369 1.866255,-0.14782 0.724684,0.35267 1.034983,0.95529 0.784773,1.52407 -0.397743,0.90416 -2.032104,1.24776 -2.668447,0.561 z m 1.838718,-0.46205 c 0.457769,-0.34604 0.388276,-0.77361 -0.172652,-1.06229 -0.387418,-0.19938 -0.547053,-0.21344 -0.832102,-0.0733 -0.418212,0.20564 -0.640359,0.7384 -0.461499,1.10677 0.161987,0.33362 1.040186,0.35086 1.466253,0.0288 z m 1.870479,0.44358 -0.355868,-0.38406 0.09803,-1.96183 c 0.05391,-1.07901 0.150596,-2.021 0.214852,-2.09331 0.06426,-0.0723 0.217126,-0.0899 0.339714,-0.0392 0.164322,0.0681 0.204546,0.22001 0.153089,0.57833 -0.03839,0.26731 -0.107119,0.86443 -0.152738,1.32693 l -0.08294,0.84092 0.835252,-0.008 c 1.00986,-0.0103 1.389199,0.27179 1.389199,1.03295 0,0.40473 -0.08577,0.55684 -0.448538,0.79555 -0.66105,0.43499 -1.541642,0.39613 -1.990048,-0.0878 z m 1.669664,-0.44578 c 0.119282,-0.12873 0.216876,-0.25799 0.216876,-0.28725 0,-0.0292 -0.09759,-0.15852 -0.216876,-0.28725 -0.276321,-0.29821 -0.73994,-0.29896 -1.133016,-0.002 -0.247999,0.18747 -0.279585,0.28795 -0.163864,0.52131 0.17846,0.35987 0.982787,0.394 1.29688,0.055 z m 1.659724,0.46425 c -0.492667,-0.5317 -0.483212,-1.58323 0.01742,-1.93725 0.566383,-0.40051 1.237763,-0.45369 1.866255,-0.14782 0.724684,0.35267 1.034982,0.95529 0.784773,1.52407 -0.397743,0.90416 -2.032104,1.24776 -2.668447,0.561 z m 1.838718,-0.46205 c 0.457769,-0.34604 0.388276,-0.77361 -0.172652,-1.06229 -0.387418,-0.19938 -0.547053,-0.21344 -0.832102,-0.0733 -0.418212,0.20564 -0.640359,0.7384 -0.461499,1.10677 0.161987,0.33362 1.040185,0.35086 1.466253,0.0288 z m 5.075953,0.49661 c -0.370764,-0.57128 -0.269361,-1.0706 0.337601,-1.6624 0.656582,-0.64018 1.342593,-0.72906 1.773582,-0.2298 0.225369,0.26107 0.848238,1.82281 0.848238,2.12682 0,0.053 -0.129605,0.0964 -0.28801,0.0964 -0.19182,0 -0.339046,-0.14591 -0.440815,-0.43689 l -0.152802,-0.43689 -0.461063,0.43689 c -0.581228,0.55076 -1.297548,0.59766 -1.616731,0.10586 z m 1.157163,-0.48364 c 0.21572,-0.12039 0.457825,-0.42201 0.538012,-0.67026 0.14117,-0.43704 0.132686,-0.45136 -0.267332,-0.45136 -0.671264,0 -1.425908,1.02074 -0.918125,1.24187 0.09488,0.0413 0.191125,0.0804 0.213871,0.0869 0.02275,0.006 0.217855,-0.0867 0.433574,-0.20713 z m 2.737286,0.39707 c -0.125717,-0.22969 -0.363347,-0.80635 -0.528065,-1.28148 -0.279773,-0.807 -0.2843,-0.88001 -0.06877,-1.10908 0.214325,-0.22779 0.244832,-0.22467 0.429303,0.0439 0.109219,0.15902 0.198581,0.43388 0.198581,0.6108 0,0.49354 0.272722,1.22655 0.489796,1.31645 0.203284,0.0842 0.910915,-0.89554 1.162372,-1.60932 0.149157,-0.42339 0.518928,-0.5123 0.645867,-0.15529 0.07975,0.22428 -0.664462,1.58964 -1.235399,2.2665 -0.387104,0.45892 -0.815015,0.42665 -1.093688,-0.0825 z m 2.992507,0.25854 c -0.0501,-0.0875 -0.125068,-0.56348 -0.166599,-1.05779 -0.06918,-0.82342 -0.05365,-0.89418 0.185423,-0.84449 0.43219,0.0898 0.629654,2.06134 0.206462,2.06134 -0.07381,0 -0.175188,-0.0716 -0.225286,-0.15906 z m -0.235728,-2.98072 c -0.310842,-0.19539 -0.311562,-0.67192 -0.0012,-0.80045 0.258255,-0.10695 0.725769,0.37901 0.725769,0.75441 0,0.24077 -0.376686,0.26471 -0.72456,0.046 z m 7.121635,-3.64106 c -0.04444,-0.12499 0.0054,-0.71081 0.110678,-1.30183 0.14923,-0.83747 0.248666,-1.08646 0.450661,-1.12844 0.239812,-0.0498 0.252194,0.0197 0.165676,0.93112 -0.105231,1.10848 -0.284355,1.72639 -0.500454,1.72639 -0.08017,0 -0.18212,-0.10226 -0.226561,-0.22724 z m -2.519518,-1.15045 c -0.569125,-0.2256 -0.840645,-0.61889 -0.603769,-0.87453 0.124427,-0.13429 0.2406,-0.11984 0.497578,0.0619 0.337601,0.23873 0.720975,0.31994 1.308701,0.27722 0.484905,-0.0353 0.23287,-0.30622 -0.717287,-0.77118 -0.947237,-0.46352 -1.373515,-0.88282 -1.250174,-1.22971 0.122677,-0.34502 0.920513,-0.7033 1.566139,-0.7033 0.473683,0 0.565691,0.0485 0.565691,0.29789 0,0.23788 -0.09201,0.2979 -0.456662,0.2979 -0.251164,0 -0.566478,0.0867 -0.700697,0.19257 -0.219621,0.17332 -0.17111,0.2292 0.484923,0.55855 1.311069,0.65821 1.80369,1.32397 1.3081,1.76786 -0.291606,0.26119 -1.472822,0.33483 -2.002543,0.12485 z m -12.50933,-0.12234 c -0.05024,-0.0877 -0.04928,-0.46231 0.0022,-0.8324 0.07993,-0.57525 0.04225,-0.75269 -0.259668,-1.22288 -0.346602,-0.53977 -0.70576,-2.00687 -0.555524,-2.26922 0.18606,-0.3249 0.473516,-0.0908 0.61358,0.49973 0.226529,0.95506 0.249923,1.00538 0.467387,1.00538 0.224782,0 1.016022,-0.78162 1.329107,-1.31295 0.140164,-0.23787 0.278083,-0.31377 0.444697,-0.24472 0.421899,0.17484 0.263299,0.61263 -0.491744,1.35737 -0.70243,0.69284 -0.740353,0.76958 -0.901829,1.82481 -0.09271,0.60586 -0.201144,1.15845 -0.240961,1.22798 -0.09988,0.17441 -0.297561,0.15834 -0.407191,-0.0331 z m -13.22031,-0.20261 c -0.04169,-0.11725 -0.118982,-0.78751 -0.171757,-1.48945 -0.09297,-1.23664 -0.08679,-1.27627 0.199049,-1.27627 0.221205,0 0.295002,0.0915 0.295002,0.36559 v 0.3656 l 0.338756,-0.3656 c 0.371243,-0.40065 0.920345,-0.47901 1.161274,-0.1657 0.191461,0.24897 0.06615,0.39589 -0.337666,0.39589 -0.179074,0 -0.466594,0.20116 -0.681504,0.4768 -0.300736,0.38572 -0.35864,0.58224 -0.303136,1.02885 0.086,0.69198 -0.30532,1.21186 -0.500018,0.66429 z m 22.715154,0.032 c -0.07944,-0.10513 -0.166392,-0.75981 -0.193227,-1.45484 -0.04284,-1.10968 -0.01936,-1.26984 0.192728,-1.31419 0.167406,-0.035 0.24152,0.0443 0.24152,0.25831 0,0.38575 0.05378,0.38494 0.546534,-0.008 0.279906,-0.22334 0.502603,-0.28853 0.753475,-0.22058 0.468215,0.12683 0.471661,0.53763 0.0045,0.53763 -0.563819,0 -1.007887,0.64277 -1.056233,1.52885 -0.04183,0.76666 -0.226562,1.02076 -0.489307,0.67305 z M 32.05316,182.74833 c 0,-0.93724 -0.05939,-1.7437 -0.131984,-1.79212 -0.25159,-0.1678 0.02386,-0.52024 0.525246,-0.67204 1.433281,-0.43395 2.626349,-0.6181 2.916979,-0.45024 0.16209,0.0936 0.275436,0.27015 0.251881,0.39228 -0.03209,0.16639 -0.285015,0.23207 -1.00891,0.26201 -0.531344,0.022 -1.198974,0.1487 -1.483623,0.2816 -0.476032,0.22227 -0.517543,0.29004 -0.517543,0.84503 0,0.69234 0.0015,0.69281 1.332864,0.42806 0.687939,-0.1368 0.918601,-0.13544 1.049843,0.006 0.237144,0.25593 0.02677,0.36866 -1.296786,0.6949 -1.093922,0.26964 -1.102665,0.27555 -1.080401,0.72946 0.04132,0.84252 0.0021,0.97894 -0.281543,0.97894 -0.259939,0 -0.276023,-0.0993 -0.276023,-1.70409 z m 6.687284,1.33849 c -0.492667,-0.5317 -0.483212,-1.58323 0.01742,-1.93725 0.566382,-0.40051 1.237762,-0.45369 1.866254,-0.14782 0.724685,0.35267 1.034983,0.95529 0.784773,1.52407 -0.397743,0.90416 -2.032104,1.24776 -2.668447,0.561 z m 1.838718,-0.46205 c 0.457769,-0.34604 0.388276,-0.77361 -0.172652,-1.06229 -0.387418,-0.19938 -0.547053,-0.21344 -0.832102,-0.0733 -0.418212,0.20564 -0.640359,0.7384 -0.461499,1.10677 0.161987,0.33362 1.040186,0.35086 1.466253,0.0288 z m 1.548835,-0.21498 c 0,-0.806 0.0449,-1.04261 0.197851,-1.04261 0.112003,0 0.219014,0.17772 0.246629,0.4096 l 0.04878,0.4096 0.270914,-0.48313 c 0.343466,-0.61252 0.891965,-0.68179 0.891965,-0.11266 0,0.48104 0.08035,0.46918 0.504218,-0.0745 0.369245,-0.47359 0.654137,-0.56463 0.826268,-0.26405 0.200027,0.34929 0.435996,2.05227 0.297196,2.14485 -0.198041,0.13209 -0.403228,-0.15157 -0.50745,-0.70154 -0.13029,-0.6875 -0.32811,-0.68396 -0.776227,0.0139 -0.448354,0.69823 -0.791246,0.72587 -0.896152,0.0722 l -0.07123,-0.44383 -0.304707,0.55736 c -0.493419,0.90253 -0.728051,0.74615 -0.728051,-0.48527 z m 9.798815,0.74473 c -0.202633,-0.21868 -0.276023,-0.49648 -0.276023,-1.04481 0,-0.68283 0.03848,-0.77223 0.448537,-1.04206 0.714118,-0.4699 1.611336,-0.33775 2.277189,0.33541 0.814396,0.82333 -0.109034,2.04935 -1.543556,2.04935 -0.44611,0 -0.710731,-0.087 -0.906147,-0.29789 z m 1.901451,-0.52975 c 0.168703,-0.12753 0.306732,-0.31822 0.306732,-0.42376 0,-0.28897 -0.450231,-0.67048 -0.906131,-0.76782 -0.695336,-0.14846 -1.317431,0.75148 -0.860416,1.24471 0.234504,0.25308 1.096218,0.22172 1.459815,-0.0531 z m 1.75815,0.4713 c -0.534682,-0.57704 -0.460055,-2.17573 0.101564,-2.17573 0.25068,0 0.270176,0.067 0.194006,0.66675 -0.04657,0.36671 -0.04837,0.76887 -0.004,0.89367 0.223222,0.62779 1.035063,-0.11002 1.311965,-1.19233 0.07275,-0.28437 0.221335,-0.51704 0.33018,-0.51704 0.228403,0 0.295645,0.28442 0.396159,1.67564 0.05431,0.75166 0.02867,1.00538 -0.101585,1.00538 -0.259479,0 -0.505454,-0.31799 -0.505454,-0.65343 0,-0.27411 -0.02803,-0.26765 -0.379532,0.0875 -0.5876,0.59374 -0.936856,0.64823 -1.343314,0.20957 z m 2.550915,-4.78826 c -0.417485,-0.11406 -2.686605,-0.44386 -5.042489,-0.7329 -2.355885,-0.28904 -4.653776,-0.5978 -5.106425,-0.68615 -1.165119,-0.2274 -3.758135,-0.93996 -5.359848,-1.47288 -0.749421,-0.24935 -1.618894,-0.45329 -1.93216,-0.45321 -0.808046,1.5e-4 -5.062199,-0.58782 -5.434479,-0.75118 -0.35887,-0.15747 -0.419668,-0.70257 -0.09343,-0.83768 0.119402,-0.0494 0.771223,0.008 1.448491,0.12812 0.677268,0.11991 1.202685,0.18703 1.167592,0.14916 -0.03509,-0.0379 -0.795597,-0.42442 -1.690012,-0.859 -1.597384,-0.77613 -1.81912,-0.97234 -1.570423,-1.38966 0.100979,-0.16944 0.483141,-0.0327 2.026721,0.72535 3.323262,1.63198 4.21518,1.94713 5.92216,2.09249 0.834969,0.0711 1.912717,0.13315 2.394994,0.13787 l 0.876869,0.009 -0.402576,-0.49484 c -0.221416,-0.27215 -0.583247,-0.94241 -0.80407,-1.48945 -0.385818,-0.95578 -0.420505,-0.99472 -0.888327,-0.99707 -0.617884,-0.003 -1.498047,-0.53667 -1.871275,-1.13438 l -0.288513,-0.46205 -0.524663,0.51891 c -0.462615,0.45755 -0.589307,0.50956 -1.071267,0.43979 -0.675952,-0.0978 -1.536427,-0.72428 -1.923621,-1.40041 -0.212792,-0.37157 -0.352884,-0.48052 -0.516941,-0.40202 -0.43301,0.20721 -1.246494,0.23639 -1.735409,0.0623 -0.27121,-0.0966 -0.78759,-0.50502 -1.147511,-0.9076 l -0.654401,-0.73196 -1.18621,-7.5e-4 c -0.967932,-5.9e-4 -1.227727,-0.0503 -1.411826,-0.26985 -0.200947,-0.23964 -0.203248,-0.30352 -0.02104,-0.58427 0.185791,-0.28627 0.296428,-0.30773 1.204809,-0.23371 l 1.00023,0.0815 0.01354,-1.10209 c 0.01552,-1.26304 0.221709,-2.07826 0.700733,-2.7705 0.655528,-0.94731 1.458282,-1.14422 2.528997,-0.62035 0.772789,0.37811 1.191622,0.79285 1.538966,1.52392 0.230753,0.48568 0.265491,0.83208 0.238988,2.38312 -0.03307,1.93554 0.106565,2.58263 0.694155,3.21677 0.419265,0.45249 0.738514,0.38561 1.359739,-0.28483 0.756713,-0.81667 1.099444,-0.7914 2.020732,0.14894 0.401299,0.4096 0.806836,0.74473 0.901194,0.74473 0.09436,0 0.279721,-0.14415 0.411918,-0.32034 0.184641,-0.24609 0.326547,-0.297 0.612181,-0.21963 0.574214,0.15553 0.875168,0.58177 1.190181,1.68564 0.317366,1.11212 0.803275,2.28138 0.946581,2.2778 0.130453,-0.003 0.339141,-0.1824 0.547584,-0.47003 0.152499,-0.21044 0.123465,-0.37007 -0.187947,-1.0333 -0.21174,-0.45095 -0.396767,-1.13662 -0.435246,-1.61293 -0.0565,-0.69936 -0.01575,-0.90978 0.261393,-1.34983 0.594802,-0.94441 1.822517,-0.72979 2.542564,0.44448 0.434332,0.70832 0.473765,1.88855 0.100522,3.00874 l -0.23939,0.71846 0.529762,0.58551 c 0.77353,0.85492 1.614722,1.30316 2.09997,1.11899 0.397574,-0.1509 0.493553,-0.30728 1.067304,-1.73903 0.405773,-1.01257 1.014822,-1.51163 1.671334,-1.36949 0.227719,0.0493 0.821451,0.3516 1.319405,0.67176 0.497955,0.32016 0.94529,0.58211 0.994081,0.58211 0.04879,0 0.05654,-0.31837 0.01723,-0.70749 -0.05334,-0.52794 -0.004,-0.83979 0.194539,-1.2288 0.353722,-0.69318 0.798952,-0.85038 1.779656,-0.62838 0.90607,0.2051 1.075671,0.11464 1.207562,-0.64409 0.124784,-0.71786 0.622757,-1.06235 1.177309,-0.81445 0.224747,0.10046 0.447881,0.31613 0.495852,0.47925 0.235733,0.80157 -0.394005,2.54932 -1.047044,2.90592 -0.605755,0.33078 -1.431998,0.24038 -1.841414,-0.20147 -0.200117,-0.21597 -0.363848,-0.35917 -0.363848,-0.31822 0,0.17945 -0.26469,1.55173 -0.33966,1.76096 -0.06488,0.18106 0.01961,0.23087 0.391595,0.23087 0.619946,0 0.914145,0.28125 0.914145,0.87393 0,0.6957 -0.339424,0.94249 -1.452182,1.05583 -0.52966,0.0539 -1.233627,0.19308 -1.564372,0.30917 -0.489742,0.17191 -0.758697,0.17872 -1.44912,0.0367 -0.929829,-0.19124 -2.273059,-0.25743 -7.058284,-0.34784 -2.92113,-0.0552 -3.124737,-0.0428 -2.553212,0.15606 1.639605,0.57035 3.148144,0.79703 12.860243,1.93245 0.963995,0.1127 1.353453,0.37513 1.133129,0.76354 -0.198045,0.34913 -0.378843,0.36509 -1.296317,0.11444 z m -9.108757,-4.16449 c -0.178277,-0.2048 -0.395645,-0.37236 -0.48304,-0.37236 -0.0874,0 -0.304764,0.16756 -0.483041,0.37236 l -0.324137,0.37237 h 0.807178 0.807178 z m 6.94065,-0.0671 c 0.14539,-0.14491 -0.90717,-0.88708 -1.412885,-0.99623 -0.361287,-0.078 -0.42662,-0.0275 -0.670889,0.5181 -0.148843,0.33248 -0.232433,0.64572 -0.185757,0.69609 0.109791,0.1185 2.126266,-0.0752 2.269531,-0.21796 z m -19.024479,-6.14723 c 0.367817,-0.56673 0.274055,-0.64011 -0.750927,-0.58765 -0.531516,0.0272 -0.966391,0.10612 -0.966391,0.17537 0,0.0693 0.163639,0.26483 0.363641,0.43461 0.483414,0.41038 1.079222,0.40056 1.353677,-0.0223 z m 0.258381,-2.20104 c 0.06636,-0.36864 0.211526,-0.78037 0.3226,-0.91497 0.176833,-0.21427 0.177026,-0.3091 0.0016,-0.76233 -0.21613,-0.55824 -1.007542,-1.30161 -1.385742,-1.30161 -0.128109,0 -0.445276,0.0958 -0.704814,0.21279 -0.400675,0.18068 -0.503032,0.3324 -0.678254,1.00538 -0.205264,0.78837 -0.263649,1.30885 -0.23573,2.10146 l 0.01462,0.41519 1.272555,-0.0428 1.272555,-0.0428 z M 113.11191,75.031942 c -0.0885,-0.03904 -0.48889,-0.536442 -0.88963,-1.105334 -0.40074,-0.568891 -0.77095,-1.034347 -0.82268,-1.034347 -0.18962,0 -0.39274,0.400001 -0.52451,1.032916 -0.18763,0.901242 -0.68597,1.205399 -0.98545,0.601466 -0.1115,-0.224837 -0.0775,-0.911621 0.13315,-2.690213 0.15558,-1.313565 0.28287,-2.603839 0.28287,-2.867276 0,-0.630437 0.34318,-1.141039 0.76689,-1.141039 0.29171,0 0.3372,0.06856 0.3372,0.508207 0,0.279514 -0.0926,1.030756 -0.20586,1.669428 -0.11323,0.638674 -0.15407,1.217124 -0.0908,1.285447 0.0633,0.06832 0.41474,-0.26401 0.78097,-0.738519 0.36622,-0.474509 1.07303,-1.315166 1.57068,-1.868126 0.89799,-0.997786 1.29849,-1.199203 1.64369,-0.826648 0.20662,0.222984 0.21823,0.863884 0.0157,0.863884 -0.21386,0 -1.81929,1.693124 -2.47443,2.609575 l -0.55349,0.774262 0.55385,0.653906 c 0.30462,0.359648 0.55385,0.702485 0.55385,0.761858 0,0.05937 0.18632,0.21193 0.41404,0.339018 0.84063,0.469146 0.37035,1.557923 -0.50603,1.171535 z m -13.512984,-0.48584 c -0.960697,-0.470895 -1.16424,-0.89245 -1.149837,-2.381419 0.0068,-0.705752 0.08446,-2.180804 0.172515,-3.277895 0.167744,-2.089937 0.297568,-2.425222 0.850403,-2.196273 0.210278,0.08709 0.232268,0.221633 0.156012,0.954613 -0.04882,0.469283 -0.129303,1.514622 -0.17885,2.322978 l -0.09009,1.469734 0.332362,-0.116767 c 0.471259,-0.165562 1.917949,-0.127082 2.367969,0.06298 0.46158,0.194946 0.93043,0.98195 0.93113,1.562964 6.9e-4,0.568431 -0.85949,1.496608 -1.58973,1.7154 -0.76223,0.228375 -1.14968,0.203364 -1.801888,-0.116319 z m 1.880854,-0.987411 c 0.64985,-0.362674 0.48964,-1.221018 -0.27691,-1.483585 -0.29492,-0.101022 -1.354338,0.161369 -1.627599,0.403119 -0.256131,0.226594 -0.209944,0.575256 0.127566,0.962982 0.358263,0.411569 1.155543,0.464282 1.776943,0.117484 z m -15.94955,0.860261 c -0.0555,-0.14336 -0.118742,-1.480595 -0.140537,-2.971636 -0.03203,-2.191168 -0.0023,-2.744432 0.155153,-2.885437 0.107126,-0.09595 0.194775,-0.431994 0.194775,-0.746761 0,-0.835533 0.340108,-0.987657 1.321851,-0.591239 0.417272,0.16849 0.88256,0.306345 1.033973,0.306345 0.151414,0 0.757668,0.200759 1.347233,0.446132 1.946908,0.81029 2.480126,1.911429 1.386609,2.863465 -0.274888,0.239324 -0.795817,0.516632 -1.157618,0.616241 l -0.657821,0.181106 1.054111,1.018165 c 0.919181,0.887841 1.05411,1.08256 1.05411,1.521221 0,0.657954 -0.352054,0.672996 -0.905757,0.0387 -0.222944,-0.255394 -1.026404,-1.003638 -1.785467,-1.662762 -0.759063,-0.659125 -1.427346,-1.271229 -1.485075,-1.360229 -0.05773,-0.089 -0.08878,-0.362896 -0.06901,-0.608656 0.04358,-0.541552 0.431954,-0.654558 1.054847,-0.306929 0.521188,0.29087 1.26114,0.297406 1.883782,0.01664 0.860198,-0.387888 0.543962,-0.887241 -0.944899,-1.492045 -0.894688,-0.36344 -2.078995,-0.494914 -2.372534,-0.263384 -0.08978,0.07082 -0.108274,1.0817 -0.05241,2.864919 0.04889,1.560639 0.03214,2.868517 -0.03863,3.016146 -0.06873,0.14336 -0.271394,0.260655 -0.450368,0.260655 -0.179462,0 -0.370667,-0.116905 -0.426319,-0.260655 z m 7.705444,0.04265 C 92.62707,74.17593 92.364172,73.549656 92.364172,72.385504 V 71.417117 L 93.019391,70.9306 c 0.949841,-0.705282 2.017935,-0.763246 3.070112,-0.16661 0.951422,0.539503 1.43379,1.253701 1.328298,1.966692 -0.09924,0.670755 -0.799075,1.432088 -1.58057,1.719467 -0.767631,0.28228 -2.012896,0.287761 -2.601557,0.01145 z m 2.365466,-0.886644 c 0.257329,-0.116039 0.574848,-0.387179 0.705596,-0.602535 0.333089,-0.548632 0.07398,-1.015422 -0.785008,-1.414225 -0.787498,-0.365612 -1.191824,-0.298943 -1.779385,0.293404 -0.494272,0.498302 -0.551619,1.187969 -0.136068,1.636442 0.334101,0.36057 1.295137,0.40244 1.994865,0.08691 z m 9.07539,0.880247 c -0.60302,-0.282758 -0.86521,-0.980566 -0.82197,-2.187653 l 0.0336,-0.937001 0.75296,-0.485181 c 0.58733,-0.37846 0.90823,-0.485181 1.45887,-0.485181 1.37918,0 2.82559,1.16498 2.82559,2.275806 0,0.595729 -0.96955,1.65017 -1.7256,1.876689 -0.75677,0.226734 -1.97655,0.19895 -2.52342,-0.05748 z m 2.59402,-1.004397 c 0.67851,-0.498658 0.79972,-0.778623 0.54729,-1.264111 -0.24188,-0.465182 -1.35836,-0.982449 -1.83318,-0.849311 -0.96254,0.269897 -1.49,1.469974 -0.9289,2.113422 0.23189,0.265915 0.44368,0.335127 1.02552,0.335127 0.53332,0 0.85762,-0.09139 1.18927,-0.335127 z m 8.65908,1.067922 c -0.32738,-0.205786 -0.65571,-0.924218 -0.65485,-1.43289 9.7e-4,-0.60683 0.55631,-1.500956 1.23979,-1.996356 0.49497,-0.35876 0.7372,-0.431404 1.43851,-0.431404 0.7582,0 0.87595,0.04264 1.16666,0.42246 0.33856,0.442338 1.40389,3.293953 1.30284,3.487358 -0.11052,0.211519 -0.68977,0.111218 -0.91604,-0.158616 -0.12468,-0.14868 -0.29445,-0.480132 -0.37728,-0.736559 l -0.1506,-0.466232 -0.42366,0.520749 c -0.23301,0.286412 -0.59767,0.617863 -0.81035,0.736558 -0.44399,0.247787 -1.45933,0.278516 -1.81502,0.05493 z m 1.86285,-1.336432 c 0.46522,-0.413853 0.95714,-1.503989 0.76987,-1.706095 -0.0375,-0.0405 -0.37188,-0.01241 -0.74301,0.06242 -0.52416,0.105681 -0.79077,0.270245 -1.19438,0.737207 -0.36578,0.423209 -0.4924,0.680572 -0.42776,0.869447 0.21957,0.641518 0.89806,0.657262 1.59528,0.03702 z m 4.25521,0.943383 c -0.23269,-0.304661 -0.52209,-0.924646 -0.64311,-1.377746 -0.12102,-0.453101 -0.31241,-1.036073 -0.42532,-1.295496 -0.25272,-0.580694 -0.19624,-1.231211 0.1258,-1.448828 0.42935,-0.29013 0.69715,0.06786 0.88863,1.18789 0.20806,1.217019 0.39257,1.740628 0.72921,2.06942 0.22772,0.222413 0.26462,0.222248 0.47252,-0.0021 0.46308,-0.499764 0.97547,-1.314062 1.38576,-2.202261 0.44666,-0.966954 0.82281,-1.223958 1.1293,-0.771603 0.12067,0.178105 0.13345,0.366683 0.0424,0.625212 -0.21314,0.605025 -1.32211,2.379524 -1.93699,3.099437 -0.74149,0.868153 -1.17217,0.896432 -1.76817,0.116099 z m 4.75299,0.293272 c -0.0527,-0.14336 -0.13052,-0.914153 -0.17285,-1.712873 -0.0742,-1.399503 -0.0665,-1.452218 0.211,-1.452218 0.15837,0 0.31954,0.05518 0.35817,0.12263 0.1747,0.305065 0.45323,2.241452 0.39479,2.74457 -0.0537,0.461928 -0.11941,0.558546 -0.38006,0.558546 -0.17334,0 -0.35831,-0.117295 -0.41105,-0.260655 z m -0.11733,-4.766329 c -0.55893,-0.240595 -0.79437,-0.779743 -0.50488,-1.156188 0.27768,-0.361091 0.77189,-0.260156 1.15934,0.236782 0.66964,0.858865 0.32609,1.341487 -0.65446,0.919406 z"
       id="path213" /></g></svg>
