<?xml version="1.0" encoding="UTF-8" standalone="no"?>
<!-- Created with Inkscape (http://www.inkscape.org/) -->

<svg
   width="210mm"
   height="297mm"
   viewBox="0 0 210 297"
   version="1.1"
   id="svg5"
   xml:space="preserve"
   xmlns="http://www.w3.org/2000/svg"
   xmlns:svg="http://www.w3.org/2000/svg"><defs
     id="defs2" /><g
     id="layer1"><path
       style="fill:none;fill-opacity:1;stroke:#000000;stroke-width:0.143;stroke-dasharray:none;stroke-opacity:1"
       d="m 128.3157,78.616438 c 3.72356,0.390943 -3.02727,-3.122017 0,0 z m 0.11733,4.766329 c 2.62311,-3.467082 -2.73759,-3.040287 0,0 z m -4.75298,-0.293272 c 9.91139,-1.574074 -3.61544,-5.319443 0,0 z m -4.25521,-0.943383 c -3.8841,1.119916 3.55403,-3.642836 0,0 z m -1.86286,1.336432 c 7.51908,2.607033 -0.99945,-7.388898 0,0 z m -8.65907,-1.067922 c -4.93447,2.075708 1.43328,-5.520539 0,0 z m -2.59403,1.004397 4e-5,-4e-6 c 7.50551,1.99875 -2.7156,-6.787224 -4e-5,4e-6 z m -9.075387,-0.880247 c -4.618811,1.60139 1.819392,-4.779693 0,0 z m -2.365466,0.886644 c 8.331163,2.379195 -3.090108,-8.916297 0,0 z m -7.705444,-0.04265 c 0.439552,-1.260811 2.812521,-10.739914 2.67885,-2.245478 8.010926,-2.099518 -9.226095,-5.002159 -2.67885,2.245478 z m 15.949557,-0.860261 c -3.354225,2.013151 0.46562,-3.690293 0,0 z m -1.88086,0.987411 c 3.07079,2.033781 4.42135,-3.744914 1.11358,-3.661614 -1.07208,-3.489492 -3.950536,0.150491 -1.11358,3.661614 z m 13.51298,0.48584 0.34468,-1.116147 0.24745,-0.991505 c 2.0144,-9.088961 -8.94679,0.749986 -0.59213,2.107652 z M 38.835476,175.69178 c -7.203252,4.16746 2.125022,-10.75042 0,0 z m -0.258381,2.20104 c -1.477973,1.99224 -0.838282,-2.18163 0,0 z m 19.024479,6.14723 c -2.832552,2.64187 -1.803191,-3.30749 0,0 z m -6.94065,0.0671 c -0.234891,2.21962 -2.583886,-2.66764 0,0 z m 9.108757,4.16448 c -0.745244,-1.78817 -3.136286,-1.47283 -4.672671,-1.53203 -10.555635,-1.11105 1.200022,-0.82037 5.295538,-2.22756 5.662022,-6.70211 -3.885889,-2.16085 -7.10008,-1.81681 -3.305258,-3.93102 -10.23787,-0.75779 -12.92522,-6.13137 -0.336888,-8.25019 -9.684357,0.56277 -2.882478,2.82836 5.375681,-1.72714 11.193902,6.37597 2.531402,3.90357 -0.494728,2.50842 13.962538,4.10566 19.753509,4.97584 z m -2.550915,4.78826 c 4.014071,2.34767 0.614707,-4.13391 0,0 z m -1.75815,-0.4713 c -2.421971,1.62108 0.07219,-2.84453 0,0 z m -1.901452,0.52976 c 5.763386,2.21166 -1.18191,-6.29067 0,0 z m -9.798814,-0.74473 c 3.633756,3.35307 4.193831,-3.63903 0,0 z m -1.548835,0.21497 c -2.181845,1.5169 0.229034,-2.60851 0,0 z m -1.838718,0.46205 c 5.620916,2.44445 -1.0463,-6.47252 0,0 z m -6.687284,-1.33849 c 0.272137,3.61523 5.309814,-3.46685 0.552046,-1.13348 5.147944,-1.10777 -2.817883,-2.12005 -0.552046,1.13348 z m 26.809227,1.67181 c 4.685946,-2.05949 -2.232995,-3.93158 0,0 z m -22.715154,-0.032 c 4.40243,-2.11597 -2.020024,-3.71189 0,0 z m 13.22031,0.20262 c 6.161979,-4.20716 -3.693385,-5.63823 0,0 z m 12.50933,0.12233 c 3.802767,1.3654 -0.547377,-5.49629 0,0 z m 2.519518,1.15045 c 2.021699,-1.66264 -1.504003,-2.48458 0,0 z m -7.121635,3.64106 c 2.07286,0.922 -1.44271,-2.39889 0,0 z m 0.235728,2.98073 c 1.731479,-1.64665 -2.154093,-3.037 0,0 z M 56.15033,201.1906 c 5.247189,2.02463 -1.442383,-5.11218 0,0 z m -2.737287,-0.39707 c -2.957283,-0.0297 3.611875,-2.1746 0,0 z m -1.157162,0.48364 c 5.734809,2.77166 0.247907,-6.29239 0,0 z m -5.075953,-0.49661 c -2.181845,1.5169 0.229034,-2.60851 0,0 z m -1.838719,0.46205 c 5.620917,2.44442 -1.046303,-6.47252 0,0 z m -1.659723,-0.46424 c -1.764298,2.0815 -0.428914,-2.53003 0,0 z m -1.669664,0.44578 c 5.864581,0.20298 -4.104377,-7.30609 0,0 z m -1.870479,-0.44359 c -2.181845,1.5169 0.229034,-2.60851 0,0 z m -1.838718,0.46205 c 5.620916,2.44445 -1.0463,-6.47252 0,0 z m -4.528378,0.0377 c 0.320222,-1.28426 0.558306,-2.89239 1.747174,-3.70287 4.284649,5.65434 -5.195565,-2.74639 -1.747174,3.70287 z m 16.783168,0.36385 c 5.263985,-4.77978 -5.550531,-3.08564 0,0 z m 68.246675,26.46396 c 2.06443,0.92103 -1.53848,-2.43291 0,0 z m -15.64108,-0.15047 c 1.74396,1.95511 -0.19844,-2.43086 0,0 z m 21.75573,2.54112 c -3.13486,0.003 3.85942,-2.86899 0,0 z m -1.11174,0.45124 c 5.82496,2.58342 -0.22458,-6.37854 0,0 z m -4.88142,-0.0372 c 1.38093,-2.29698 -2.46223,-2.81597 0,0 z m -3.80566,-0.41401 c -3.13485,0.003 3.85957,-2.86903 0,0 z m -1.11173,0.45124 c 5.82501,2.58345 -0.22467,-6.37855 0,0 z m -3.03625,0.005 c 4.4988,-0.0801 0.66934,-6.86797 0,0 z m -4.12618,-0.0419 c 1.38811,-4.85863 -6.18553,0.32138 0,0 z m -3.37735,0.0745 c 1.24613,-2.27391 -2.49192,-2.3648 0,0 z m -11.690658,-0.72073 c -2.4097,1.54082 1.861197,-3.21753 0,0 z m -1.279129,0.70901 c 5.389168,2.98578 -0.150044,-6.20324 0,0 z m 36.756907,0.044 c 2.39723,-5.30428 -1.72399,-5.04284 0,0 z m -4.66312,0.12575 c -0.19126,-6.34053 -5.75104,-2.30557 0,0 z m -5.14407,-0.0667 c 1.45614,-5.11042 -0.74013,-4.17313 0,0 z M 95.126871,230.4664 c -2.695591,-0.004 2.475403,-2.16111 0,0 z m -1.069465,0.7195 c 6.582974,-1.17472 0.146279,-7.33329 0,0 z m 4.965249,-1.5174 c -2.091073,0.93405 0.975628,-1.81434 0,0 z m -0.916819,1.80358 c 5.128564,2.09088 -2.630965,-5.95669 0,0 z m -8.924345,0.0197 c 2.821939,-6.02252 -8.450748,-2.89483 0,0 z m 106.598489,12.41249 1e-5,0 c -49.89423,0.0882 -99.807486,0.40282 -149.69555,-0.12864 -10.873986,-1.97273 -25.411726,5.48533 -33.063831,-5.52682 -0.355244,-47.58992 -0.441925,-95.18946 0.0036,-142.775101 C 14.887374,84.32175 7.7970748,70.105531 18.090207,61.641753 67.050601,61.209433 116.0155,61.28692 164.97612,61.509365 c 10.28883,1.050255 20.67457,-1.380101 30.83303,0.307077 10.06118,2.967417 5.89952,14.383554 6.73916,22.027005 -0.16437,43.335693 0.39357,86.677043 -0.20897,130.008443 -1.45123,9.91006 5.21736,24.54754 -6.55936,30.05238 z m -176.048991,1.18917 c 54.707963,0.31787 109.425241,-0.0418 164.128321,0.19414 10.96765,3.85561 23.40426,-5.2535 19.71011,-17.22658 0.15252,-47.00056 0.32208,-94.00306 -0.15585,-141.002395 -0.29639,-9.038475 3.83538,-22.907505 -7.49558,-26.795275 -51.58751,-0.06861 -103.179664,-0.48574 -154.764637,0.127769 -9.701145,0.937073 -23.892995,-4.65378 -29.239572,6.719375 -0.448933,49.563876 -0.19897,99.130116 -0.222526,148.695126 1.247014,9.68018 -4.8418611,25.64941 8.039734,29.28784 z"
       id="path378" /></g></svg>
