<?xml version="1.0" encoding="UTF-8" standalone="no"?>
<!-- Created with Inkscape (http://www.inkscape.org/) -->

<svg
   width="210mm"
   height="297mm"
   viewBox="0 0 210 297"
   version="1.1"
   id="svg5"
   xml:space="preserve"
   xmlns="http://www.w3.org/2000/svg"
   xmlns:svg="http://www.w3.org/2000/svg"><defs
     id="defs2"><rect
       x="325.83804"
       y="282.73085"
       width="119.52344"
       height="27.061867"
       id="rect1411" /><rect
       x="159.51946"
       y="344.51968"
       width="550.8848"
       height="305.75204"
       id="rect2250" /><rect
       x="625.96509"
       y="365.79492"
       width="5.4138075"
       height="29.485611"
       id="rect2244" /><rect
       x="167.42242"
       y="371.22581"
       width="508.06107"
       height="277.20573"
       id="rect2238" /><rect
       x="358.37015"
       y="611.65778"
       width="129.81183"
       height="29.88268"
       id="rect2232" /><rect
       x="221.18051"
       y="543.31486"
       width="160.56977"
       height="60.730282"
       id="rect2220" /><rect
       x="361.24783"
       y="382.126"
       width="131.97223"
       height="29.541115"
       id="rect2160" /></defs><g
     id="layer1"><text
       xml:space="preserve"
       transform="scale(0.26458333)"
       id="text2158"
       style="white-space:pre;shape-inside:url(#rect2160);display:inline;fill:#000000;stroke-width:0.540472" /><g
       aria-label="Robokavi"
       transform="scale(1.0637, 0.940115)"
       id="text2166"
       style="font-style:italic;font-size:7.24638px;-inkscape-font-specification:'sans-serif, Italic';stroke-width:0.32637"><path
         d="m 85.593902,83.590562 q 0.215835,0.07784 0.382134,0.332598 0.166298,0.254755 0.297214,0.700578 l 0.435208,1.443614 H 85.940653 L 85.53729,84.712194 q -0.155684,-0.53074 -0.36798,-0.704116 -0.212297,-0.173375 -0.636889,-0.173375 h -0.77842 l -0.445822,2.232649 h -0.714731 l 1.057943,-5.282639 h 1.613452 q 0.905798,0 1.273778,0.378595 0.371518,0.378595 0.219373,1.142862 -0.10261,0.498896 -0.399825,0.827955 -0.297215,0.32906 -0.764267,0.456437 z m -1.348081,-2.218496 -0.375057,1.875284 h 0.898721 q 0.516588,0 0.827956,-0.237064 0.311367,-0.240603 0.406901,-0.704116 0.092,-0.463514 -0.127378,-0.69704 -0.215835,-0.237064 -0.732422,-0.237064 z"
         id="path1415" /><path
         d="m 89.510769,82.560925 q -0.523664,0 -0.909336,0.41044 -0.385672,0.406901 -0.527202,1.118094 -0.141531,0.711192 0.07784,1.121632 0.219372,0.406901 0.746575,0.406901 0.520126,0 0.905797,-0.41044 0.38921,-0.410439 0.530741,-1.118093 0.141531,-0.704116 -0.08138,-1.114556 -0.222911,-0.413978 -0.743037,-0.413978 z m 0.109686,-0.55197 q 0.849185,0 1.224242,0.55197 0.375057,0.551971 0.180452,1.528534 -0.194605,0.973024 -0.792573,1.528533 -0.594429,0.55197 -1.443615,0.55197 -0.852723,0 -1.224242,-0.55197 -0.371518,-0.555509 -0.176913,-1.528533 0.194605,-0.976563 0.785496,-1.528534 0.59443,-0.55197 1.447153,-0.55197 z"
         id="path1417" /><path
         d="m 94.949091,84.089459 q 0.141531,-0.71827 -0.07076,-1.125171 -0.212296,-0.410439 -0.728884,-0.410439 -0.516588,0 -0.895183,0.410439 -0.378595,0.406901 -0.520126,1.125171 -0.145069,0.718269 0.06723,1.128708 0.215834,0.406901 0.732422,0.406901 0.516587,0 0.891644,-0.406901 0.378595,-0.410439 0.523664,-1.128708 z m -1.938972,-1.383465 q 0.275985,-0.353827 0.622735,-0.523664 0.346751,-0.173375 0.781958,-0.173375 0.721808,0 1.057944,0.5732 0.339674,0.5732 0.152145,1.507304 -0.187528,0.934103 -0.753652,1.507303 -0.566123,0.5732 -1.28793,0.5732 -0.435208,0 -0.714731,-0.169837 -0.275985,-0.173375 -0.41044,-0.527202 l -0.120301,0.594429 h -0.65458 l 1.100402,-5.50555 h 0.65458 z"
         id="path1419" /><path
         d="m 98.543976,82.560925 q -0.523664,0 -0.909336,0.41044 -0.385672,0.406901 -0.527203,1.118094 -0.14153,0.711192 0.07784,1.121632 0.219373,0.406901 0.746576,0.406901 0.520126,0 0.905797,-0.41044 0.38921,-0.410439 0.530741,-1.118093 0.141531,-0.704116 -0.08138,-1.114556 -0.222911,-0.413978 -0.743037,-0.413978 z m 0.109686,-0.55197 q 0.849185,0 1.224242,0.55197 0.375056,0.551971 0.180456,1.528534 -0.194609,0.973024 -0.792577,1.528533 -0.59443,0.55197 -1.443615,0.55197 -0.852723,0 -1.224242,-0.55197 -0.371518,-0.555509 -0.176913,-1.528533 0.194605,-0.976563 0.785496,-1.528534 0.59443,-0.55197 1.447153,-0.55197 z"
         id="path1421" /><path
         d="m 101.81688,80.561802 h 0.65458 l -0.65105,3.251671 2.28573,-1.708985 h 0.83149 l -2.47325,1.854055 1.76914,2.108809 h -0.84919 l -1.6276,-1.935434 -0.38568,1.935434 h -0.65458 z"
         id="path1423" /><path
         d="m 107.01106,84.075305 q -0.78903,0 -1.13225,0.180452 -0.33967,0.180452 -0.42459,0.61566 -0.0708,0.34675 0.11676,0.55197 0.18753,0.201681 0.58028,0.201681 0.54136,0 0.94472,-0.382133 0.40336,-0.385672 0.53074,-1.02256 l 0.0318,-0.14507 z m 1.35162,-0.268908 -0.4529,2.260955 h -0.65104 l 0.1203,-0.601506 q -0.29368,0.360904 -0.66166,0.534279 -0.36798,0.169837 -0.84918,0.169837 -0.60858,0 -0.89872,-0.339674 -0.29014,-0.343212 -0.17692,-0.916412 0.13446,-0.668733 0.64751,-1.008408 0.51659,-0.339674 1.40469,-0.339674 h 0.91288 l 0.0142,-0.06369 q 0.0885,-0.449361 -0.15922,-0.693502 -0.24414,-0.247679 -0.77842,-0.247679 -0.33968,0 -0.67935,0.08138 -0.33614,0.08138 -0.6652,0.24414 l 0.1203,-0.601506 q 0.38568,-0.137992 0.73243,-0.20522 0.35029,-0.07076 0.66873,-0.07076 0.8598,0 1.19594,0.445822 0.33613,0.445822 0.15568,1.35162 z"
         id="path1425" /><path
         d="m 109.57631,82.104488 h 0.68996 l 0.5732,3.325975 1.90359,-3.325975 h 0.68996 l -2.27865,3.962864 h -0.88456 z"
         id="path1427" /><path
         d="m 114.33174,82.104488 h 0.65104 l -0.79257,3.962864 h -0.65104 z m 0.30783,-1.542686 h 0.65104 l -0.16276,0.824417 h -0.65104 z"
         id="path1429" /></g><text
       xml:space="preserve"
       transform="scale(0.26458333)"
       id="text2218"
       style="white-space:pre;shape-inside:url(#rect2220);display:inline;fill:#000000;stroke-width:0.540472" /><g
       aria-label="From YoursRobokavi"
       transform="scale(1.5206098,0.65763091)"
       id="text2226"
       style="font-style:italic;font-size:4.82794px;-inkscape-font-specification:'sans-serif, Italic';stroke-width:0.217447"><path
         d="m 26.924529,235.79432 h 2.022643 l -0.08015,0.40075 h -1.546449 l -0.207451,1.03726 h 1.395577 l -0.08015,0.40075 h -1.395576 l -0.337107,1.68082 h -0.476194 z"
         id="path1432" /><path
         d="m 30.604419,237.0791 q -0.06601,-0.0424 -0.148516,-0.0613 -0.08015,-0.0212 -0.183877,-0.0212 -0.367753,0 -0.612922,0.24045 -0.245169,0.2381 -0.33475,0.686 l -0.278172,1.39086 h -0.436118 l 0.528056,-2.64028 h 0.436118 l -0.08251,0.41019 q 0.186234,-0.24045 0.426688,-0.35597 0.242812,-0.11787 0.556345,-0.11787 0.04479,0 0.09665,0.007 0.05422,0.005 0.11787,0.0165 z"
         id="path1434" /><path
         d="m 31.99528,236.97773 q -0.348894,0 -0.60585,0.27346 -0.256956,0.2711 -0.351251,0.74493 -0.0943,0.47384 0.05186,0.74729 0.146159,0.2711 0.49741,0.2711 0.346537,0 0.603493,-0.27345 0.259313,-0.27346 0.353609,-0.74494 0.0943,-0.46912 -0.05422,-0.74258 -0.148516,-0.27581 -0.495053,-0.27581 z m 0.07308,-0.36776 q 0.565775,0 0.815658,0.36776 0.249884,0.36775 0.120227,1.01839 -0.129656,0.64828 -0.528056,1.01839 -0.396042,0.36776 -0.961816,0.36776 -0.568132,0 -0.815658,-0.36776 -0.247526,-0.37011 -0.117869,-1.01839 0.129656,-0.65064 0.523341,-1.01839 0.396042,-0.36776 0.964173,-0.36776 z"
         id="path1436" /><path
         d="m 35.941555,237.18046 q 0.221595,-0.29231 0.473836,-0.4314 0.254598,-0.13909 0.561059,-0.13909 0.412544,0 0.577562,0.28996 0.167374,0.28761 0.06129,0.82038 l -0.318248,1.59359 h -0.436118 l 0.315891,-1.57945 q 0.07544,-0.37954 -0.02357,-0.56342 -0.09665,-0.18387 -0.372468,-0.18387 -0.337107,0 -0.577561,0.22395 -0.240454,0.22395 -0.315891,0.61056 l -0.299389,1.49223 h -0.436118 l 0.315891,-1.57945 q 0.07544,-0.3819 -0.02357,-0.56342 -0.09665,-0.18387 -0.377183,-0.18387 -0.332392,0 -0.572846,0.22631 -0.240454,0.22395 -0.315891,0.6082 l -0.299389,1.49223 h -0.436117 l 0.528056,-2.64028 h 0.436117 l -0.08251,0.41019 q 0.198021,-0.24281 0.426688,-0.35832 0.231024,-0.11552 0.516269,-0.11552 0.287602,0 0.459691,0.14616 0.174447,0.14616 0.214523,0.42433 z"
         id="path1438" /><path
         d="m 39.937336,235.79432 h 0.511554 l 0.686001,1.44744 1.258848,-1.44744 h 0.511554 l -1.614814,1.84348 -0.334749,1.6761 h -0.478551 l 0.33475,-1.6761 z"
         id="path1440" /><path
         d="m 43.494641,236.97773 q -0.348894,0 -0.60585,0.27346 -0.256956,0.2711 -0.351251,0.74493 -0.0943,0.47384 0.05186,0.74729 0.146159,0.2711 0.49741,0.2711 0.346537,0 0.603493,-0.27345 0.259313,-0.27346 0.353609,-0.74494 0.0943,-0.46912 -0.05422,-0.74258 -0.148516,-0.27581 -0.495053,-0.27581 z m 0.07308,-0.36776 q 0.565775,0 0.815658,0.36776 0.249884,0.36775 0.120227,1.01839 -0.129656,0.64828 -0.528056,1.01839 -0.396042,0.36776 -0.961816,0.36776 -0.568132,0 -0.815658,-0.36776 -0.247526,-0.37011 -0.117869,-1.01839 0.129656,-0.65064 0.523341,-1.01839 0.396042,-0.36776 0.964173,-0.36776 z"
         id="path1442" /><path
         d="m 45.121242,238.27194 0.320605,-1.59832 h 0.43376 l -0.31589,1.58181 q -0.07544,0.37483 0.033,0.56342 0.10844,0.18624 0.400757,0.18624 0.351251,0 0.598778,-0.22396 0.249883,-0.22395 0.327677,-0.61056 l 0.299389,-1.49695 h 0.43376 l -0.528056,2.64028 h -0.43376 l 0.08015,-0.40547 q -0.205094,0.24046 -0.438475,0.35833 -0.231025,0.11551 -0.50684,0.11551 -0.454977,0 -0.634138,-0.28289 -0.179162,-0.28289 -0.07072,-0.82744 z m 1.423865,-1.66197 z"
         id="path1444" /><path
         d="m 49.99633,237.0791 q -0.06601,-0.0424 -0.148515,-0.0613 -0.08015,-0.0212 -0.183877,-0.0212 -0.367753,0 -0.612922,0.24045 -0.245169,0.2381 -0.33475,0.686 l -0.278172,1.39086 h -0.436118 l 0.528056,-2.64028 h 0.436118 l -0.08251,0.41019 q 0.186234,-0.24045 0.426688,-0.35597 0.242812,-0.11787 0.556345,-0.11787 0.04479,0 0.09665,0.007 0.05422,0.005 0.11787,0.0165 z"
         id="path1446" /><path
         d="m 52.198135,236.75142 -0.08015,0.41018 q -0.165018,-0.0943 -0.353609,-0.14144 -0.188592,-0.0472 -0.400757,-0.0472 -0.322963,0 -0.504482,0.099 -0.181519,0.099 -0.221595,0.29703 -0.03065,0.15088 0.06836,0.2381 0.09901,0.0849 0.431403,0.16266 l 0.141444,0.033 q 0.44319,0.099 0.601135,0.28052 0.157945,0.17917 0.0943,0.50213 -0.07308,0.36775 -0.407829,0.58228 -0.33475,0.21452 -0.843947,0.21452 -0.212165,0 -0.43376,-0.0424 -0.221595,-0.0401 -0.459692,-0.12259 l 0.08958,-0.4479 q 0.21688,0.12494 0.436118,0.18859 0.221595,0.0613 0.450262,0.0613 0.306461,0 0.492695,-0.10373 0.186234,-0.10608 0.223952,-0.29703 0.03536,-0.1768 -0.06601,-0.2711 -0.09901,-0.0943 -0.485623,-0.18152 l -0.143801,-0.0354 q -0.384255,-0.0849 -0.530413,-0.25931 -0.143801,-0.1768 -0.08251,-0.48327 0.07544,-0.37246 0.379541,-0.5752 0.304103,-0.20274 0.789726,-0.20274 0.240454,0 0.445547,0.0354 0.205093,0.0354 0.370111,0.10608 z"
         id="path1448" /><path
         d="m 28.218737,243.69866 q 0.143801,0.0519 0.254599,0.22159 0.110797,0.16973 0.198021,0.46677 l 0.289959,0.96181 h -0.511554 l -0.268743,-0.90288 q -0.103725,-0.35361 -0.245169,-0.46912 -0.141443,-0.11551 -0.424331,-0.11551 h -0.518626 l -0.297031,1.48751 h -0.476194 l 0.704861,-3.51959 H 27.9995 q 0.603492,0 0.848661,0.25225 0.247526,0.25224 0.146158,0.76143 -0.06836,0.3324 -0.266385,0.55163 -0.198021,0.21924 -0.509197,0.30411 z m -0.898166,-1.47809 -0.249884,1.24942 h 0.598778 q 0.344179,0 0.55163,-0.15795 0.20745,-0.1603 0.2711,-0.46912 0.06129,-0.30882 -0.08487,-0.4644 -0.143801,-0.15795 -0.487981,-0.15795 z"
         id="path1450" /><path
         d="m 30.828371,243.01266 q -0.348894,0 -0.60585,0.27345 -0.256956,0.2711 -0.351251,0.74494 -0.0943,0.47383 0.05186,0.74729 0.146158,0.2711 0.49741,0.2711 0.346537,0 0.603492,-0.27346 0.259314,-0.27345 0.353609,-0.74493 0.0943,-0.46912 -0.05422,-0.74258 -0.148515,-0.27581 -0.495052,-0.27581 z m 0.07308,-0.36776 q 0.565774,0 0.815658,0.36776 0.249884,0.36775 0.120227,1.01839 -0.129657,0.64828 -0.528056,1.01839 -0.396042,0.36776 -0.961816,0.36776 -0.568132,0 -0.815658,-0.36776 -0.247526,-0.37011 -0.11787,-1.01839 0.129657,-0.65064 0.523342,-1.01839 0.396041,-0.36776 0.964173,-0.36776 z"
         id="path1452" /><path
         d="m 34.451683,244.03105 q 0.0943,-0.47855 -0.04715,-0.74965 -0.141443,-0.27346 -0.485623,-0.27346 -0.344179,0 -0.59642,0.27346 -0.252241,0.2711 -0.346537,0.74965 -0.09665,0.47855 0.04479,0.75201 0.143801,0.2711 0.48798,0.2711 0.344179,0 0.594063,-0.2711 0.252241,-0.27346 0.348894,-0.75201 z m -1.291851,-0.92174 q 0.183876,-0.23574 0.414901,-0.3489 0.231024,-0.11551 0.520984,-0.11551 0.480908,0 0.70486,0.3819 0.22631,0.3819 0.101368,1.00425 -0.124942,0.62235 -0.502125,1.00425 -0.377182,0.3819 -0.858091,0.3819 -0.289959,0 -0.476193,-0.11316 -0.183876,-0.11551 -0.273457,-0.35125 l -0.08015,0.39604 H 32.27581 l 0.733149,-3.6681 h 0.436117 z"
         id="path1454" /><path
         d="m 36.846794,243.01266 q -0.348894,0 -0.60585,0.27345 -0.256956,0.2711 -0.351251,0.74494 -0.0943,0.47383 0.05186,0.74729 0.146159,0.2711 0.49741,0.2711 0.346537,0 0.603493,-0.27346 0.259313,-0.27345 0.353608,-0.74493 0.0943,-0.46912 -0.05422,-0.74258 -0.148515,-0.27581 -0.495052,-0.27581 z m 0.07308,-0.36776 q 0.565774,0 0.815658,0.36776 0.249884,0.36775 0.120227,1.01839 -0.129657,0.64828 -0.528056,1.01839 -0.396042,0.36776 -0.961816,0.36776 -0.568132,0 -0.815658,-0.36776 -0.247526,-0.37011 -0.11787,-1.01839 0.129657,-0.65064 0.523342,-1.01839 0.396042,-0.36776 0.964173,-0.36776 z"
         id="path1456" /><path
         d="m 39.027382,241.68073 h 0.436117 l -0.43376,2.16644 1.522876,-1.13862 h 0.553987 l -1.647817,1.23528 1.178696,1.405 h -0.565774 l -1.084401,-1.28949 -0.256956,1.28949 h -0.436117 z"
         id="path1458" /><path
         d="m 42.488034,244.02162 q -0.525698,0 -0.754366,0.12023 -0.226309,0.12022 -0.282887,0.41018 -0.04715,0.23103 0.07779,0.36776 0.124942,0.13437 0.386613,0.13437 0.360681,0 0.629423,-0.2546 0.268743,-0.25696 0.353609,-0.68129 l 0.02122,-0.0966 z m 0.900524,-0.17916 -0.301746,1.50637 h -0.43376 l 0.08015,-0.40076 q -0.195664,0.24046 -0.440833,0.35597 -0.245168,0.11316 -0.565774,0.11316 -0.405471,0 -0.598777,-0.22631 -0.193307,-0.22867 -0.11787,-0.61057 0.08958,-0.44555 0.431403,-0.67186 0.344179,-0.22631 0.935885,-0.22631 h 0.608207 l 0.0094,-0.0424 q 0.05893,-0.29939 -0.106082,-0.46205 -0.16266,-0.16501 -0.518627,-0.16501 -0.226309,0 -0.452619,0.0542 -0.223952,0.0542 -0.44319,0.16266 l 0.08015,-0.40076 q 0.256955,-0.0919 0.48798,-0.13673 0.233382,-0.0471 0.445547,-0.0471 0.572846,0 0.796799,0.29703 0.223952,0.29703 0.103725,0.90053 z"
         id="path1460" /><path
         d="m 44.197145,242.70855 h 0.459691 l 0.381898,2.21595 1.268277,-2.21595 h 0.459691 l -1.51816,2.64028 h -0.589349 z"
         id="path1462" /><path
         d="m 47.365479,242.70855 h 0.43376 l -0.528056,2.64028 h -0.43376 z m 0.205093,-1.02782 h 0.43376 l -0.10844,0.54927 h -0.43376 z"
         id="path1464" /></g><g
       aria-label="Made in jalihal"
       transform="matrix(0.381592 0 0 0.662137 -35.436 -227.275)"
       id="text2230"
       style="font-style:italic;font-size:12px;font-family:C059;-inkscape-font-specification:'C059, Italic';white-space:pre;shape-inside:url(#rect2232);stroke-width:0.540472"><path
         d="m 362.72709,613.3382 h -2.904 l -0.06,0.564 h 0.312 c 0.78,0 0.948,0.06 0.948,0.324 0,0.096 -0.036,0.3 -0.12,0.588 l -1.224,4.584 c -0.456,1.704 -0.696,2.016 -1.56,2.04 l -0.06,0.564 h 3 l 0.06,-0.564 c -0.732,0 -1.068,-0.204 -1.068,-0.66 0,-0.264 0.012,-0.312 0.276,-1.38 l 1.236,-4.62 0.744,7.224 h 0.432 l 4.632,-7.392 -1.584,5.916 c -0.168,0.624 -0.18,0.636 -0.276,0.744 -0.12,0.12 -0.372,0.156 -1.008,0.168 h -0.048 l -0.06,0.564 h 3.804 l 0.072,-0.564 h -0.312 c -0.78,0 -0.948,-0.06 -0.948,-0.324 0,-0.096 0.048,-0.312 0.12,-0.588 l 1.524,-5.712 c 0.168,-0.636 0.168,-0.636 0.276,-0.744 0.12,-0.12 0.372,-0.156 1.008,-0.168 h 0.048 l 0.06,-0.564 h -2.592 l -4.092,6.48 z"
         id="path1467" /><path
         d="m 374.45107,616.5422 -0.324,1.08 c -0.084,-0.744 -0.684,-1.26 -1.464,-1.26 -0.744,0 -1.416,0.372 -1.98,1.104 -0.612,0.792 -0.972,1.8 -0.972,2.76 0,1.176 0.708,1.956 1.776,1.956 0.756,0 1.224,-0.3 1.824,-1.164 -0.048,0.18 -0.06,0.264 -0.06,0.384 0,0.468 0.3,0.78 0.732,0.78 0.528,0 0.984,-0.288 1.404,-0.876 0.252,-0.348 0.444,-0.684 0.588,-0.996 l -0.372,-0.204 c -0.456,0.924 -0.876,1.416 -1.188,1.416 -0.144,0 -0.252,-0.132 -0.252,-0.3 0,-0.132 0.048,-0.336 0.132,-0.648 l 1.2,-4.032 z m -1.584,0.48 c 0.564,0 0.912,0.396 0.912,1.068 0,0.696 -0.24,1.644 -0.612,2.4 -0.372,0.744 -0.804,1.08 -1.404,1.08 -0.6,0 -0.96,-0.444 -0.96,-1.176 0,-1.056 0.468,-2.292 1.104,-2.952 0.264,-0.276 0.6,-0.42 0.96,-0.42 z"
         id="path1469" /><path
         d="m 382.99507,620.1062 c -0.696,1.128 -0.996,1.44 -1.392,1.44 -0.192,0 -0.3,-0.12 -0.3,-0.336 0,-0.156 0.06,-0.432 0.18,-0.852 l 2.136,-7.2 -2.388,0.18 -0.048,0.432 h 0.372 c 0.492,0 0.684,0.108 0.684,0.372 0,0.12 -0.036,0.276 -0.108,0.528 l -0.792,2.664 c -0.096,-0.276 -0.168,-0.408 -0.3,-0.54 -0.252,-0.264 -0.66,-0.432 -1.08,-0.432 -1.728,0 -3.336,1.848 -3.336,3.84 0,1.176 0.756,1.98 1.884,1.98 0.816,0 1.416,-0.336 1.944,-1.116 -0.012,0.096 -0.012,0.216 -0.012,0.264 0,0.552 0.288,0.852 0.816,0.852 0.756,0 1.416,-0.588 2.1,-1.86 z m -3,-3.204 c 0.588,0 1.02,0.456 1.02,1.08 0,0.648 -0.3,1.74 -0.684,2.472 -0.408,0.78 -0.9,1.164 -1.476,1.164 -0.648,0 -1.068,-0.516 -1.068,-1.296 0,-0.684 0.252,-1.56 0.636,-2.232 0.456,-0.792 0.972,-1.188 1.572,-1.188 z"
         id="path1471" /><path
         d="m 387.98704,620.6102 c -0.708,0.732 -1.224,1.008 -1.86,1.008 -0.72,0 -1.164,-0.48 -1.164,-1.248 0,-0.084 0.012,-0.252 0.024,-0.408 1.416,-0.336 1.632,-0.408 2.184,-0.648 0.936,-0.408 1.44,-1.02 1.44,-1.716 0,-0.732 -0.576,-1.236 -1.428,-1.236 -1.752,0 -3.336,1.776 -3.336,3.744 0,1.296 0.78,2.076 2.076,2.076 0.924,0 1.704,-0.408 2.352,-1.248 z m -2.94,-1.116 c 0.276,-1.62 1.008,-2.652 1.896,-2.652 0.396,0 0.66,0.276 0.66,0.684 0,0.576 -0.372,1.092 -1.032,1.452 -0.432,0.252 -0.732,0.348 -1.524,0.516 z"
         id="path1473" /><path
         d="m 395.35502,616.3622 -2.304,0.18 -0.048,0.432 h 0.288 c 0.492,0 0.684,0.108 0.684,0.372 0,0.12 -0.024,0.252 -0.108,0.528 l -0.696,2.34 c -0.228,0.768 -0.264,0.936 -0.264,1.212 0,0.42 0.36,0.744 0.816,0.744 0.528,0 1.02,-0.276 1.5,-0.828 0.216,-0.24 0.408,-0.504 0.744,-1.02 l -0.372,-0.204 c -0.624,0.948 -1.128,1.452 -1.452,1.452 -0.12,0 -0.204,-0.108 -0.204,-0.252 0,-0.12 0.048,-0.336 0.144,-0.672 z m -0.216,-2.928 c -0.36,0 -0.648,0.288 -0.648,0.648 0,0.348 0.288,0.648 0.636,0.648 0.372,0 0.66,-0.288 0.66,-0.648 0,-0.36 -0.288,-0.648 -0.648,-0.648 z"
         id="path1475" /><path
         d="m 399.327,616.3622 -2.172,0.18 -0.048,0.432 h 0.288 c 0.492,0 0.684,0.108 0.684,0.372 0,0.12 -0.024,0.252 -0.108,0.528 l -1.224,4.128 h 1.044 l 0.492,-1.668 c 0.312,-1.044 0.456,-1.38 0.888,-2.016 0.516,-0.768 1.152,-1.236 1.668,-1.236 0.276,0 0.48,0.216 0.48,0.492 0,0.216 -0.048,0.456 -0.18,0.84 l -0.636,1.872 c -0.156,0.48 -0.216,0.744 -0.216,0.996 0,0.516 0.36,0.9 0.828,0.9 0.768,0 1.56,-0.648 2.208,-1.8 l -0.348,-0.252 c -0.612,0.96 -1.116,1.44 -1.5,1.44 -0.108,0 -0.204,-0.096 -0.204,-0.228 0,-0.132 0.036,-0.276 0.228,-0.804 l 0.564,-1.656 c 0.192,-0.552 0.288,-1.008 0.288,-1.356 0,-0.636 -0.516,-1.164 -1.152,-1.164 -0.708,0 -1.416,0.516 -2.22,1.62 z"
         id="path1477" /><path
         d="m 410.59498,616.3622 -2.436,0.18 -0.048,0.432 h 0.42 c 0.492,0 0.684,0.108 0.684,0.384 0,0.108 -0.024,0.228 -0.108,0.516 l -0.912,3.084 c -0.072,0.24 -0.18,0.612 -0.3,1.104 -0.132,0.504 -0.288,0.948 -0.468,1.296 -0.18,0.372 -0.54,0.66 -0.828,0.66 -0.132,0 -0.252,-0.096 -0.252,-0.216 0,-0.048 0.024,-0.108 0.06,-0.168 0.084,-0.168 0.096,-0.204 0.096,-0.324 0,-0.336 -0.24,-0.564 -0.576,-0.564 -0.396,0 -0.672,0.288 -0.672,0.72 0,0.588 0.48,0.96 1.224,0.96 0.648,0 1.248,-0.3 1.716,-0.84 0.36,-0.444 0.468,-0.684 0.972,-2.424 z m -0.192,-2.928 c -0.36,0 -0.648,0.288 -0.648,0.648 0,0.348 0.288,0.648 0.636,0.648 0.372,0 0.66,-0.288 0.66,-0.648 0,-0.36 -0.288,-0.648 -0.648,-0.648 z"
         id="path1479" /><path
         d="m 415.77896,616.5422 -0.324,1.08 c -0.084,-0.744 -0.684,-1.26 -1.464,-1.26 -0.744,0 -1.416,0.372 -1.98,1.104 -0.612,0.792 -0.972,1.8 -0.972,2.76 0,1.176 0.708,1.956 1.776,1.956 0.756,0 1.224,-0.3 1.824,-1.164 -0.048,0.18 -0.06,0.264 -0.06,0.384 0,0.468 0.3,0.78 0.732,0.78 0.528,0 0.984,-0.288 1.404,-0.876 0.252,-0.348 0.444,-0.684 0.588,-0.996 l -0.372,-0.204 c -0.456,0.924 -0.876,1.416 -1.188,1.416 -0.144,0 -0.252,-0.132 -0.252,-0.3 0,-0.132 0.048,-0.336 0.132,-0.648 l 1.2,-4.032 z m -1.584,0.48 c 0.564,0 0.912,0.396 0.912,1.068 0,0.696 -0.24,1.644 -0.612,2.4 -0.372,0.744 -0.804,1.08 -1.404,1.08 -0.6,0 -0.96,-0.444 -0.96,-1.176 0,-1.056 0.468,-2.292 1.104,-2.952 0.264,-0.276 0.6,-0.42 0.96,-0.42 z"
         id="path1481" /><path
         d="m 421.44296,613.1582 -2.388,0.18 -0.048,0.432 h 0.372 c 0.492,0 0.684,0.108 0.684,0.372 0,0.12 -0.036,0.276 -0.108,0.528 l -1.524,5.148 c -0.288,0.984 -0.324,1.14 -0.324,1.524 0,0.516 0.3,0.84 0.78,0.84 0.756,0 1.524,-0.636 2.244,-1.86 l -0.372,-0.204 c -0.624,0.948 -1.14,1.452 -1.476,1.452 -0.132,0 -0.216,-0.096 -0.216,-0.252 0,-0.144 0,-0.156 0.156,-0.66 z"
         id="path1483" /><path
         d="m 424.68293,616.3622 -2.304,0.18 -0.048,0.432 h 0.288 c 0.492,0 0.684,0.108 0.684,0.372 0,0.12 -0.024,0.252 -0.108,0.528 l -0.696,2.34 c -0.228,0.768 -0.264,0.936 -0.264,1.212 0,0.42 0.36,0.744 0.816,0.744 0.528,0 1.02,-0.276 1.5,-0.828 0.216,-0.24 0.408,-0.504 0.744,-1.02 l -0.372,-0.204 c -0.624,0.948 -1.128,1.452 -1.452,1.452 -0.12,0 -0.204,-0.108 -0.204,-0.252 0,-0.12 0.048,-0.336 0.144,-0.672 z m -0.216,-2.928 c -0.36,0 -0.648,0.288 -0.648,0.648 0,0.348 0.288,0.648 0.636,0.648 0.372,0 0.66,-0.288 0.66,-0.648 0,-0.36 -0.288,-0.648 -0.648,-0.648 z"
         id="path1485" /><path
         d="m 429.56691,613.1582 -2.388,0.18 -0.048,0.432 h 0.372 c 0.492,0 0.684,0.108 0.684,0.372 0,0.12 -0.036,0.264 -0.108,0.528 l -2.172,7.332 h 1.044 l 0.492,-1.668 c 0.312,-1.056 0.456,-1.392 0.888,-2.016 0.552,-0.804 1.152,-1.236 1.716,-1.236 0.324,0 0.528,0.192 0.528,0.504 0,0.204 -0.048,0.432 -0.18,0.828 l -0.636,1.872 c -0.156,0.48 -0.216,0.744 -0.216,0.996 0,0.516 0.36,0.9 0.84,0.9 0.744,0 1.536,-0.648 2.184,-1.776 l -0.348,-0.252 c -0.624,0.96 -1.104,1.416 -1.476,1.416 -0.12,0 -0.216,-0.096 -0.216,-0.228 0,-0.132 0.036,-0.252 0.228,-0.804 l 0.564,-1.656 c 0.192,-0.54 0.288,-1.008 0.288,-1.344 0,-0.672 -0.516,-1.176 -1.212,-1.176 -0.744,0 -1.44,0.504 -2.256,1.62 z"
         id="path1487" /><path
         d="m 437.99089,616.5422 -0.324,1.08 c -0.084,-0.744 -0.684,-1.26 -1.464,-1.26 -0.744,0 -1.416,0.372 -1.98,1.104 -0.612,0.792 -0.972,1.8 -0.972,2.76 0,1.176 0.708,1.956 1.776,1.956 0.756,0 1.224,-0.3 1.824,-1.164 -0.048,0.18 -0.06,0.264 -0.06,0.384 0,0.468 0.3,0.78 0.732,0.78 0.528,0 0.984,-0.288 1.404,-0.876 0.252,-0.348 0.444,-0.684 0.588,-0.996 l -0.372,-0.204 c -0.456,0.924 -0.876,1.416 -1.188,1.416 -0.144,0 -0.252,-0.132 -0.252,-0.3 0,-0.132 0.048,-0.336 0.132,-0.648 l 1.2,-4.032 z m -1.584,0.48 c 0.564,0 0.912,0.396 0.912,1.068 0,0.696 -0.24,1.644 -0.612,2.4 -0.372,0.744 -0.804,1.08 -1.404,1.08 -0.6,0 -0.96,-0.444 -0.96,-1.176 0,-1.056 0.468,-2.292 1.104,-2.952 0.264,-0.276 0.6,-0.42 0.96,-0.42 z"
         id="path1489" /><path
         d="m 443.65488,613.1582 -2.388,0.18 -0.048,0.432 h 0.372 c 0.492,0 0.684,0.108 0.684,0.372 0,0.12 -0.036,0.276 -0.108,0.528 l -1.524,5.148 c -0.288,0.984 -0.324,1.14 -0.324,1.524 0,0.516 0.3,0.84 0.78,0.84 0.756,0 1.524,-0.636 2.244,-1.86 l -0.372,-0.204 c -0.624,0.948 -1.14,1.452 -1.476,1.452 -0.132,0 -0.216,-0.096 -0.216,-0.252 0,-0.144 0,-0.156 0.156,-0.66 z"
         id="path1491" /></g><text
       xml:space="preserve"
       transform="scale(0.26458333)"
       id="text2236"
       style="font-style:italic;font-variant:normal;font-weight:normal;font-stretch:normal;font-size:18.2473px;font-family:sans-serif;-inkscape-font-specification:'sans-serif, Italic';font-variant-ligatures:normal;font-variant-caps:normal;font-variant-numeric:normal;font-variant-east-asian:normal;white-space:pre;shape-inside:url(#rect2238);display:inline;fill:#000000;stroke-width:0.540472" /><text
       xml:space="preserve"
       transform="scale(0.26458333)"
       id="text2242"
       style="font-style:italic;font-variant:normal;font-weight:normal;font-stretch:normal;font-size:18.2473px;font-family:sans-serif;-inkscape-font-specification:'sans-serif, Italic';font-variant-ligatures:normal;font-variant-caps:normal;font-variant-numeric:normal;font-variant-east-asian:normal;white-space:pre;shape-inside:url(#rect2244);display:inline;fill:#000000;stroke-width:0.540472" /><text
       xml:space="preserve"
       transform="scale(0.26458333)"
       id="text2248"
       style="font-style:italic;font-variant:normal;font-weight:normal;font-stretch:normal;font-size:18.2473px;font-family:sans-serif;-inkscape-font-specification:'sans-serif, Italic';font-variant-ligatures:normal;font-variant-caps:normal;font-variant-numeric:normal;font-variant-east-asian:normal;white-space:pre;shape-inside:url(#rect2250);display:inline;fill:#000000;stroke-width:0.540472" /><rect
       style="fill:none;stroke-width:0.143"
       id="rect2455"
       width="153.89862"
       height="127.67593"
       x="27.438206"
       y="61.676933" /><rect
       style="fill:none;stroke-width:0.143"
       id="rect2459"
       width="174.48433"
       height="139.80504"
       x="19.126198"
       y="53.035069" /><rect
       style="fill:none;stroke-width:0.143"
       id="rect2461"
       width="3.9323308"
       height="10.225641"
       x="107.24046"
       y="53.564877" /><rect
       style="fill:none;stroke-width:0.143"
       id="rect2465"
       width="142.62126"
       height="140.58789"
       x="33.852386"
       y="57.850788" /><rect
       style="fill:none;stroke-width:0.143"
       id="rect2467"
       width="3.6386206"
       height="2.777823"
       x="172.62831"
       y="196.86394" /><rect
       style="fill:none;stroke-width:0.143"
       id="rect2469"
       width="171.22415"
       height="142.00673"
       x="22.927488"
       y="50.781403"
       ry="7.7652521" /><rect
       style="fill:none;stroke-width:0.143"
       id="rect2471"
       width="9.9500065"
       height="13.386418"
       x="182.27783"
       y="50.826591"
       ry="4.9750032" /><rect
       style="fill:none;stroke-width:0.143"
       id="rect2473"
       width="127.70869"
       height="128.07584"
       x="40.107288"
       y="68.122749"
       ry="4.9750032" /><rect
       style="fill:none;stroke-width:0.143"
       id="rect2475"
       width="8.1583719"
       height="1.9633414"
       x="165.47871"
       y="193.25922"
       ry="0.98167068" /><rect
       style="fill:none;stroke-width:0.153349"
       id="rect2477"
       width="164.06212"
       height="138.43816"
       x="25.159689"
       y="56.225216"
       ry="0.98167068" /><path
       id="rect2495"
       style="fill:none;stroke-width:0.156326"
       d="M 26.191061,64.487518 H 190.12442 c 0.54384,0 0.98167,0.437825 0.98167,0.981671 V 196.5804 c 0,0.54385 -0.43783,0.98167 -0.98167,0.98167 H 26.191061 c -0.543845,0 -0.98167,-0.43782 -0.98167,-0.98167 V 65.469189 c 0,-0.543846 0.437825,-0.981671 0.98167,-0.981671 z" /><text
       xml:space="preserve"
       transform="scale(0.26458333)"
       id="text1409"
       style="white-space:pre;shape-inside:url(#rect1411);display:inline;fill:#000000;stroke-width:0.540472" /><path
       id="rect3502"
       style="fill:none;stroke-width:0.143"
       d="M 31.68581,71.812019 H 177.43465 V 193.71668 H 31.68581 Z" /></g></svg>
