<?xml version="1.0" encoding="UTF-8" standalone="no"?>
<svg
   width="800"
   height="350"
   version="1.1"
   id="svg12"
   sodipodi:docname="gita_marathi.svg"
   xmlns:inkscape="http://www.inkscape.org/namespaces/inkscape"
   xmlns:sodipodi="http://sodipodi.sourceforge.net/DTD/sodipodi-0.dtd"
   xmlns="http://www.w3.org/2000/svg"
   xmlns:svg="http://www.w3.org/2000/svg">
  <defs
     id="defs16" />
  <sodipodi:namedview
     id="namedview14"
     pagecolor="#ffffff"
     bordercolor="#000000"
     borderopacity="0.25"
     inkscape:showpageshadow="2"
     inkscape:pageopacity="0.0"
     inkscape:pagecheckerboard="0"
     inkscape:deskcolor="#d1d1d1" />
  <g
     font-family="Lohit Devanagari"
     font-size="32"
     text-anchor="middle"
     fill="#000"
     id="g10">
    <g
       aria-label="गीता ज्ञानदासी, मराठी माझी भाषा,"
       id="text2">
      <path
         d="m 201.53125,81.0625 v -1.875 h 17 v 1.875 H 215 V 100 h -2.0625 V 81.0625 h -5.21875 V 91.25 q 0,0.5 -0.3125,0.875 -0.3125,0.375 -0.71875,0.375 -0.78125,0 -2.46875,-1.9375 -1.6875,-1.96875 -1.6875,-2.84375 0,-0.3125 0.25,-0.5625 0.25,-0.25 0.5625,-0.25 h 1.46875 q 0.34375,0 0.59375,-0.3125 0.25,-0.3125 0.25,-0.75 V 81.0625 Z"
         id="path18" />
      <path
         d="m 217.6875,81.0625 v -1.875 h 3.53125 q -0.53125,-3 -1.96875,-4.9375 -1.40625,-1.9375 -3.03125,-1.9375 -1.21875,0 -2.0625,0.8125 -0.84375,0.78125 -0.84375,1.90625 0,1 0.4375,2 0.4375,0.96875 1.21875,1.75 h -2.28125 q -0.71875,-0.71875 -1.09375,-1.6875 -0.375,-0.96875 -0.375,-2.0625 0,-1.90625 1.46875,-3.21875 1.4375,-1.34375 3.53125,-1.34375 2.40625,0 4.40625,2.46875 2,2.46875 2.65625,6.25 h 3.5625 v 1.875 h -3.5625 V 100 h -2.0625 V 81.0625 Z"
         id="path20" />
      <path
         d="m 227.75,89.8125 q 0,-2 1.28125,-3.375 1.28125,-1.40625 3.0625,-1.40625 h 8.125 V 81.0625 H 226 v -1.875 h 19.84375 v 1.875 H 242.3125 V 100 h -2.09375 V 87.09375 h -8.125 q -0.9375,0 -1.625,0.8125 -0.65625,0.78125 -0.65625,1.90625 0,2 1.40625,4.28125 1.4375,2.28125 4,4.4375 L 233.96875,100 Q 231.03125,97.5 229.375,94.84375 227.75,92.1875 227.75,89.8125 Z"
         id="path22" />
      <path
         d="m 245,81.0625 v -1.875 h 9.15625 v 1.875 h -3.5625 V 100 h -2.0625 V 81.0625 Z"
         id="path24" />
      <path
         d="m 263.1875,81.0625 v -1.875 h 23.03125 v 1.875 H 282.6875 V 100 H 280.625 V 86.0625 h -12.09375 q -0.40625,0 -0.71875,0.1875 -0.3125,0.1875 -0.3125,0.4375 0,0.875 1.15625,2.21875 1.1875,1.3125 1.96875,1.3125 0.46875,0 0.96875,-0.09375 0.53125,-0.125 1.125,-0.3125 0.5625,-0.21875 1.03125,-0.3125 0.46875,-0.125 0.84375,-0.125 0.9375,0 1.59375,1 0.6875,0.96875 0.6875,2.34375 0,2.09375 -1.78125,3.5625 -1.75,1.4375 -4.25,1.4375 0.375,0.8125 1.40625,1.4375 1.03125,0.59375 2.53125,0.84375 l -1.4375,1.46875 q -1.34375,-0.375 -2.53125,-1.125 -1.1875,-0.71875 -2.0625,-1.8125 -1.625,0 -2.78125,-0.78125 -1.15625,-0.78125 -1.15625,-1.90625 0,-0.78125 0.53125,-1.3125 0.53125,-0.5625 1.34375,-0.5625 0.4375,0 1.1875,0.625 0.78125,0.59375 1.71875,1.65625 2.1875,-0.21875 3.6875,-1.21875 1.5,-1.03125 1.5,-2.3125 0,-0.59375 -0.3125,-1.03125 -0.3125,-0.4375 -0.71875,-0.4375 -0.15625,0 -0.53125,0.125 -0.34375,0.09375 -0.9375,0.3125 -0.5625,0.1875 -1.03125,0.3125 -0.46875,0.09375 -0.84375,0.09375 -1.3125,0 -3.15625,-2 -1.8125,-2 -1.8125,-3.4375 0,-1.125 0.90625,-1.90625 0.90625,-0.78125 2.1875,-0.78125 H 280.625 V 81.0625 Z"
         id="path26" />
      <path
         d="m 285.40625,81.0625 v -1.875 h 9.15625 v 1.875 H 291 V 100 h -2.0625 V 81.0625 Z"
         id="path28" />
      <path
         d="m 294.75,87.53125 q 0,-0.4375 0.4375,-0.75 0.4375,-0.3125 1.03125,-0.3125 h 11 V 81.0625 h -13.5 v -1.875 h 19.125 v 1.875 H 309.3125 V 100 h -2.09375 V 88.5625 h -6.03125 q -0.5,0 -0.875,0.25 -0.375,0.25 -0.375,0.5625 v 2.09375 q 0,0.5 -0.3125,0.875 -0.3125,0.375 -0.71875,0.375 -0.71875,0 -2.4375,-2.15625 Q 294.75,88.375 294.75,87.53125 Z"
         id="path30" />
      <path
         d="m 311.75,81.0625 v -1.875 h 18 v 1.875 h -3.3125 v 5.40625 h -8.125 q -1.21875,0 -2.0625,0.875 -0.84375,0.84375 -0.84375,2.03125 0,2.25 2.375,3.84375 2.375,1.59375 5.75,1.59375 0,-1.46875 0.65625,-2.5 0.65625,-1.0625 1.625,-1.0625 0.6875,0 1.15625,0.5 0.5,0.46875 0.5,1.1875 0,0.8125 -0.5,1.65625 -0.5,0.84375 -1.375,1.4375 L 327.875,100 326,100.84375 l -2.28125,-4.1875 q -4.3125,0 -7.375,-2.125 -3.03125,-2.15625 -3.03125,-5.15625 0,-2.0625 1.4375,-3.5 1.46875,-1.46875 3.5625,-1.46875 h 6.03125 V 81.0625 Z"
         id="path32" />
      <path
         d="m 328.90625,81.0625 v -1.875 h 9.15625 v 1.875 H 334.5 V 100 h -2.0625 V 81.0625 Z"
         id="path34" />
      <path
         d="m 337.21875,81.0625 v -1.875 h 23 v 1.875 H 356.6875 V 100 h -2.09375 V 90 h -8.875 q -0.84375,0.625 -1.9375,0.625 -0.25,0 -0.5,-0.0625 -0.21875,-0.0625 -0.34375,-0.125 l 6.25,8.71875 -1.65625,1.0625 -9.375,-13.3125 1.6875,-1.25 q 0.65625,1.40625 1.53125,2.25 0.90625,0.84375 1.78125,0.84375 0.875,0 1.46875,-0.59375 0.625,-0.59375 0.625,-1.46875 v -5.625 z m 9.90625,6.875 h 7.46875 v -6.875 h -7.28125 v 5.625 q 0,0.65625 -0.1875,1.25 z"
         id="path36" />
      <path
         d="m 359.375,81.0625 v -1.875 h 3.53125 q -0.53125,-3 -1.96875,-4.9375 -1.40625,-1.9375 -3.03125,-1.9375 -1.21875,0 -2.0625,0.8125 Q 355,73.90625 355,75.03125 q 0,1 0.4375,2 0.4375,0.96875 1.21875,1.75 H 354.375 q -0.71875,-0.71875 -1.09375,-1.6875 -0.375,-0.96875 -0.375,-2.0625 0,-1.90625 1.46875,-3.21875 1.4375,-1.34375 3.53125,-1.34375 2.40625,0 4.40625,2.46875 2,2.46875 2.65625,6.25 h 3.5625 v 1.875 h -3.5625 V 100 h -2.0625 V 81.0625 Z"
         id="path38" />
      <path
         d="m 368.625,104 1.65625,-7.28125 h 3.03125 L 370.1875,104 Z"
         id="path40" />
      <path
         d="m 394.59375,87.9375 h 7.5 v -6.875 h -7.5 z m -5.8125,-6.875 v -1.875 h 18.9375 v 1.875 h -3.5625 V 100 h -2.0625 V 90 h -7.5 v 1.46875 q 0,0.5 -0.1875,0.875 -0.1875,0.375 -0.4375,0.375 -0.71875,0 -2.4375,-1.5625 -1.71875,-1.5625 -1.71875,-2.1875 0,-0.40625 0.3125,-0.71875 0.3125,-0.3125 0.71875,-0.3125 h 1.6875 v -6.875 z"
         id="path42" />
      <path
         d="m 406.875,81.0625 v -1.875 h 14.46875 v 1.875 h -2.8125 v 4.78125 q 0,1.9375 -1.3125,3.28125 -1.28125,1.3125 -3.0625,1.3125 -0.25,0 -0.6875,-0.09375 -0.40625,-0.125 -1,-0.34375 1.34375,2.34375 3.15625,4.5 1.84375,2.125 4.125,4.03125 L 418.53125,100 Q 415.1875,97.21875 412.5,93.6875 q -2.6875,-3.5625 -4.59375,-7.625 l 1.875,-1.03125 q 0.53125,1.5 1.71875,2.40625 1.21875,0.90625 2.65625,0.90625 0.9375,0 1.59375,-0.71875 0.6875,-0.71875 0.6875,-1.78125 V 81.0625 Z"
         id="path44" />
      <path
         d="m 420.5,81.0625 v -1.875 h 9.15625 v 1.875 h -3.5625 V 100 h -2.0625 V 81.0625 Z"
         id="path46" />
      <path
         d="m 439.34375,99.78125 q -3.25,0 -6,-2.78125 -2.75,-2.8125 -2.75,-6.15625 0,-2.40625 1.5625,-4.09375 Q 433.75,85.03125 436,85.03125 h 5.21875 V 81.0625 H 428.8125 v -1.875 h 18.96875 v 1.875 h -4.5 v 6.03125 H 436 q -1.375,0 -2.34375,1.125 -0.96875,1.09375 -0.96875,2.625 0,2.53125 2.09375,4.71875 2.09375,2.15625 4.5625,2.15625 1.78125,0 3.0625,-1.3125 1.28125,-1.34375 1.28125,-3.28125 0,-1.15625 -0.65625,-2.34375 -0.625,-1.21875 -1.8125,-2.21875 l 1.65625,-1.25 Q 444.25,88.46875 445,90 q 0.78125,1.5 0.78125,3.125 0,2.75 -1.90625,4.71875 -1.875,1.9375 -4.53125,1.9375 z"
         id="path48" />
      <path
         d="m 446.9375,81.0625 v -1.875 h 3.53125 q -0.53125,-3 -1.96875,-4.9375 -1.40625,-1.9375 -3.03125,-1.9375 -1.21875,0 -2.0625,0.8125 -0.84375,0.78125 -0.84375,1.90625 0,1 0.4375,2 0.4375,0.96875 1.21875,1.75 h -2.28125 q -0.71875,-0.71875 -1.09375,-1.6875 -0.375,-0.96875 -0.375,-2.0625 0,-1.90625 1.46875,-3.21875 1.4375,-1.34375 3.53125,-1.34375 2.40625,0 4.40625,2.46875 2,2.46875 2.65625,6.25 h 3.5625 v 1.875 h -3.5625 V 100 h -2.0625 V 81.0625 Z"
         id="path50" />
      <path
         d="m 470.9375,87.9375 h 7.5 v -6.875 h -7.5 z m -5.8125,-6.875 v -1.875 h 18.9375 v 1.875 H 480.5 V 100 h -2.0625 V 90 h -7.5 v 1.46875 q 0,0.5 -0.1875,0.875 -0.1875,0.375 -0.4375,0.375 -0.71875,0 -2.4375,-1.5625 -1.71875,-1.5625 -1.71875,-2.1875 0,-0.40625 0.3125,-0.71875 0.3125,-0.3125 0.71875,-0.3125 h 1.6875 v -6.875 z"
         id="path52" />
      <path
         d="m 483.21875,81.0625 v -1.875 h 9.15625 v 1.875 h -3.5625 V 100 H 486.75 V 81.0625 Z"
         id="path54" />
      <path
         d="m 506.875,90.4375 q 0.46875,0 1.15625,-0.21875 0.6875,-0.21875 1.5625,-0.625 V 81.0625 H 503.75 v 5 h -7.28125 q -0.40625,0 -0.71875,0.1875 -0.3125,0.1875 -0.3125,0.4375 0,0.78125 0.9375,1.96875 0.9375,1.15625 1.5625,1.15625 0.625,0 1.75,-0.40625 1.15625,-0.4375 1.78125,-0.4375 0.59375,0 1.125,0.1875 0.53125,0.15625 0.96875,0.4375 0.5625,0.40625 1.40625,0.625 0.875,0.21875 1.90625,0.21875 z m -5,11.03125 q -1.375,-0.625 -2.53125,-1.4375 -1.125,-0.78125 -2.03125,-1.6875 -1.625,0 -2.8125,-0.71875 -1.15625,-0.75 -1.15625,-1.78125 0,-0.71875 0.46875,-1.1875 0.5,-0.46875 1.21875,-0.46875 0.875,0 1.75,0.53125 0.90625,0.53125 1.5625,1.53125 1.78125,-0.3125 2.96875,-1.40625 1.1875,-1.125 1.1875,-2.53125 0,-0.5 -0.3125,-0.875 -0.3125,-0.375 -0.71875,-0.375 -0.625,0 -1.78125,0.40625 -1.125,0.40625 -1.75,0.40625 -1.125,0 -2.875,-1.9375 -1.71875,-1.96875 -1.71875,-3.25 0,-1.125 0.90625,-1.90625 0.9375,-0.8125 2.21875,-0.8125 h 5.21875 V 81.0625 h -10.15625 v -1.875 h 23.65625 v 1.875 h -3.53125 V 100 h -2.0625 v -8.3125 q -0.6875,0.28125 -1.375,0.46875 -0.6875,0.15625 -1.34375,0.15625 -0.59375,0 -1.15625,-0.09375 -0.5625,-0.125 -1.125,-0.34375 0,2.34375 -1.375,3.875 -1.375,1.53125 -3.84375,1.96875 1.0625,0.875 1.9375,1.46875 0.90625,0.5625 1.625,0.8125 z"
         id="path56" />
      <path
         d="m 514.375,81.0625 v -1.875 h 3.53125 q -0.53125,-3 -1.96875,-4.9375 -1.40625,-1.9375 -3.03125,-1.9375 -1.21875,0 -2.0625,0.8125 Q 510,73.90625 510,75.03125 q 0,1 0.4375,2 0.4375,0.96875 1.21875,1.75 H 509.375 q -0.71875,-0.71875 -1.09375,-1.6875 -0.375,-0.96875 -0.375,-2.0625 0,-1.90625 1.46875,-3.21875 1.4375,-1.34375 3.53125,-1.34375 2.40625,0 4.40625,2.46875 2,2.46875 2.65625,6.25 h 3.5625 v 1.875 h -3.5625 V 100 h -2.0625 V 81.0625 Z"
         id="path58" />
      <path
         d="m 536.6875,89.8125 q 0,-0.34375 0.28125,-0.59375 0.3125,-0.25 0.75,-0.25 H 539.375 V 82.9375 q 0,-0.875 -0.5625,-1.46875 -0.53125,-0.625 -1.3125,-0.625 -0.78125,0 -1.34375,0.4375 -0.53125,0.4375 -0.53125,1.03125 0,0.71875 0.53125,1.1875 0.5625,0.46875 1.34375,0.46875 v 2.09375 q -1.625,0 -2.78125,-1.09375 -1.15625,-1.125 -1.15625,-2.65625 0,-1.46875 1.15625,-2.5 1.15625,-1.03125 2.78125,-1.03125 1.625,0 2.78125,1.21875 1.1875,1.21875 1.1875,2.9375 v 6.03125 h 6.84375 V 81.0625 h -5.40625 v -1.875 h 11.03125 v 1.875 h -3.53125 V 100 h -2.09375 v -8.9375 h -6.84375 v 1.65625 q 0,0.34375 -0.3125,0.59375 -0.3125,0.25 -0.75,0.25 -0.625,0 -2.1875,-1.5625 -1.53125,-1.5625 -1.53125,-2.1875 z"
         id="path60" />
      <path
         d="m 553.09375,81.0625 v -1.875 H 562.25 v 1.875 h -3.5625 V 100 H 556.625 V 81.0625 Z"
         id="path62" />
      <path
         d="m 573.34375,87.9375 v -6.875 h -7.28125 z m -4.375,3.75 q 1.28125,0 2.40625,-0.375 1.125,-0.375 1.96875,-1.09375 l -7.6875,-7.0625 v 5.1875 q 0,1.375 0.96875,2.375 0.96875,0.96875 2.34375,0.96875 z m -7.5625,-10.625 v -1.875 h 17.5625 v 1.875 h -3.5625 V 100 h -2.0625 v -7.5 q -0.875,0.625 -2,0.9375 -1.125,0.3125 -2.375,0.3125 -2.25,0 -3.84375,-1.5625 -1.5625,-1.59375 -1.5625,-3.84375 V 81.0625 Z"
         id="path64" />
      <path
         d="m 578.125,81.0625 v -1.875 h 9.15625 v 1.875 h -3.5625 V 100 h -2.0625 V 81.0625 Z"
         id="path66" />
      <path
         d="m 587.375,104 1.65625,-7.28125 h 3.03125 L 588.9375,104 Z"
         id="path68" />
    </g>
    <g
       aria-label="ज्ञानरूपी सागर, तीच माझी आशा."
       id="text4">
      <path
         d="m 207.54687,131.0625 v -1.875 h 23.03125 v 1.875 h -3.53125 V 150 h -2.0625 v -13.9375 h -12.09375 q -0.40625,0 -0.71875,0.1875 -0.3125,0.1875 -0.3125,0.4375 0,0.875 1.15625,2.21875 1.1875,1.3125 1.96875,1.3125 0.46875,0 0.96875,-0.0937 0.53125,-0.125 1.125,-0.3125 0.5625,-0.21875 1.03125,-0.3125 0.46875,-0.125 0.84375,-0.125 0.9375,0 1.59375,1 0.6875,0.96875 0.6875,2.34375 0,2.09375 -1.78125,3.5625 -1.75,1.4375 -4.25,1.4375 0.375,0.8125 1.40625,1.4375 1.03125,0.59375 2.53125,0.84375 l -1.4375,1.46875 q -1.34375,-0.375 -2.53125,-1.125 -1.1875,-0.71875 -2.0625,-1.8125 -1.625,0 -2.78125,-0.78125 -1.15625,-0.78125 -1.15625,-1.90625 0,-0.78125 0.53125,-1.3125 0.53125,-0.5625 1.34375,-0.5625 0.4375,0 1.1875,0.625 0.78125,0.59375 1.71875,1.65625 2.1875,-0.21875 3.6875,-1.21875 1.5,-1.03125 1.5,-2.3125 0,-0.59375 -0.3125,-1.03125 -0.3125,-0.4375 -0.71875,-0.4375 -0.15625,0 -0.53125,0.125 -0.34375,0.0937 -0.9375,0.3125 -0.5625,0.1875 -1.03125,0.3125 -0.46875,0.0937 -0.84375,0.0937 -1.3125,0 -3.15625,-2 -1.8125,-2 -1.8125,-3.4375 0,-1.125 0.90625,-1.90625 0.90625,-0.78125 2.1875,-0.78125 h 12.09375 v -2.90625 z"
         id="path71" />
      <path
         d="m 229.76562,131.0625 v -1.875 h 9.15625 v 1.875 h -3.5625 V 150 h -2.0625 v -18.9375 z"
         id="path73" />
      <path
         d="m 239.10937,137.53125 q 0,-0.4375 0.4375,-0.75 0.4375,-0.3125 1.03125,-0.3125 h 11 v -5.40625 h -13.5 v -1.875 h 19.125 v 1.875 h -3.53125 V 150 h -2.09375 v -11.4375 h -6.03125 q -0.5,0 -0.875,0.25 -0.375,0.25 -0.375,0.5625 v 2.09375 q 0,0.5 -0.3125,0.875 -0.3125,0.375 -0.71875,0.375 -0.71875,0 -2.4375,-2.15625 -1.71875,-2.1875 -1.71875,-3.03125 z"
         id="path75" />
      <path
         d="m 256.35937,131.0625 v -1.875 h 24.59375 v 1.875 h -14.5 v 5 h 4.15625 q 0.5,-0.59375 1.28125,-0.90625 0.78125,-0.34375 1.65625,-0.34375 2.25,0 3.8125,1.90625 1.59375,1.875 1.59375,4.53125 0,1.96875 -0.75,3.90625 -0.75,1.9375 -2.15625,3.59375 l -1.6875,-1.25 q 1.21875,-1.21875 1.84375,-2.8125 0.65625,-1.625 0.65625,-3.4375 0,-1.78125 -0.96875,-3.0625 -0.96875,-1.28125 -2.34375,-1.28125 -1.0625,0 -1.78125,0.78125 -0.71875,0.78125 -0.71875,1.90625 0,0.84375 0.4375,1.65625 0.4375,0.8125 1.21875,1.46875 l -1.25,1.25 q -1.15625,-0.84375 -1.84375,-1.9375 -0.65625,-1.09375 -0.65625,-2.21875 0,-0.5 0.15625,-1.03125 0.1875,-0.53125 0.46875,-1.0625 h -3.125 q -0.1875,1.09375 -1.125,1.8125 -0.9375,0.6875 -2.1875,0.6875 -0.34375,0 -0.5625,-0.0625 -0.1875,-0.0625 -0.28125,-0.15625 l 6.46875,8.75 -1.6875,1.25 -9.78125,-13.3125 1.6875,-1.46875 q 0.65625,1.4375 1.53125,2.28125 0.90625,0.84375 1.78125,0.84375 0.875,0 1.46875,-0.53125 0.625,-0.53125 0.625,-1.34375 v -5.40625 z"
         id="path77" />
      <path
         d="m 287.92187,141.875 q 1.28125,0 2.40625,-0.78125 1.125,-0.78125 1.75,-2.125 v -7.90625 h -7.6875 v 7.5 q 0,1.375 1.03125,2.34375 1.03125,0.96875 2.5,0.96875 z m -5.625,-3.3125 v -7.5 h -2.1875 v -1.875 h 17.59375 v 1.875 h -3.53125 V 150 h -2.09375 v -7.90625 q -0.90625,0.90625 -2,1.40625 -1.0625,0.46875 -2.15625,0.46875 -2.34375,0 -4,-1.5625 -1.625,-1.59375 -1.625,-3.84375 z"
         id="path79" />
      <path
         d="m 296.85937,131.0625 v -1.875 h 3.53125 q -0.53125,-3 -1.96875,-4.9375 -1.40625,-1.9375 -3.03125,-1.9375 -1.21875,0 -2.0625,0.8125 -0.84375,0.78125 -0.84375,1.90625 0,1 0.4375,2 0.4375,0.96875 1.21875,1.75 h -2.28125 q -0.71875,-0.71875 -1.09375,-1.6875 -0.375,-0.96875 -0.375,-2.0625 0,-1.90625 1.46875,-3.21875 1.4375,-1.34375 3.53125,-1.34375 2.40625,0 4.40625,2.46875 2,2.46875 2.65625,6.25 h 3.5625 v 1.875 h -3.5625 V 150 h -2.0625 v -18.9375 z"
         id="path81" />
      <path
         d="m 315.04687,131.0625 v -1.875 h 23 v 1.875 h -3.53125 V 150 h -2.09375 v -10 h -8.875 q -0.84375,0.625 -1.9375,0.625 -0.25,0 -0.5,-0.0625 -0.21875,-0.0625 -0.34375,-0.125 l 6.25,8.71875 -1.65625,1.0625 -9.375,-13.3125 1.6875,-1.25 q 0.65625,1.40625 1.53125,2.25 0.90625,0.84375 1.78125,0.84375 0.875,0 1.46875,-0.59375 0.625,-0.59375 0.625,-1.46875 v -5.625 z m 9.90625,6.875 h 7.46875 v -6.875 h -7.28125 v 5.625 q 0,0.65625 -0.1875,1.25 z"
         id="path83" />
      <path
         d="m 337.20312,131.0625 v -1.875 h 9.15625 v 1.875 h -3.5625 V 150 h -2.0625 v -18.9375 z"
         id="path85" />
      <path
         d="m 345.51562,131.0625 v -1.875 h 17 v 1.875 h -3.53125 V 150 h -2.0625 v -18.9375 h -5.21875 V 141.25 q 0,0.5 -0.3125,0.875 -0.3125,0.375 -0.71875,0.375 -0.78125,0 -2.46875,-1.9375 -1.6875,-1.96875 -1.6875,-2.84375 0,-0.3125 0.25,-0.5625 0.25,-0.25 0.5625,-0.25 h 1.46875 q 0.34375,0 0.59375,-0.3125 0.25,-0.3125 0.25,-0.75 v -4.78125 z"
         id="path87" />
      <path
         d="m 361.67187,131.0625 v -1.875 h 14.46875 v 1.875 h -2.8125 v 4.78125 q 0,1.9375 -1.3125,3.28125 -1.28125,1.3125 -3.0625,1.3125 -0.25,0 -0.6875,-0.0937 -0.40625,-0.125 -1,-0.34375 1.34375,2.34375 3.15625,4.5 1.84375,2.125 4.125,4.03125 L 373.32812,150 q -3.34375,-2.78125 -6.03125,-6.3125 -2.6875,-3.5625 -4.59375,-7.625 l 1.875,-1.03125 q 0.53125,1.5 1.71875,2.40625 1.21875,0.90625 2.65625,0.90625 0.9375,0 1.59375,-0.71875 0.6875,-0.71875 0.6875,-1.78125 v -4.78125 z"
         id="path89" />
      <path
         d="m 376.23437,154 1.65625,-7.28125 h 3.03125 L 377.79687,154 Z"
         id="path91" />
      <path
         d="m 398.14062,139.8125 q 0,-2 1.28125,-3.375 1.28125,-1.40625 3.0625,-1.40625 h 8.125 v -3.96875 h -14.21875 v -1.875 h 19.84375 v 1.875 h -3.53125 V 150 h -2.09375 v -12.90625 h -8.125 q -0.9375,0 -1.625,0.8125 -0.65625,0.78125 -0.65625,1.90625 0,2 1.40625,4.28125 1.4375,2.28125 4,4.4375 l -1.25,1.46875 q -2.9375,-2.5 -4.59375,-5.15625 -1.625,-2.65625 -1.625,-5.03125 z"
         id="path93" />
      <path
         d="m 415.39062,131.0625 v -1.875 h 3.53125 q -0.53125,-3 -1.96875,-4.9375 -1.40625,-1.9375 -3.03125,-1.9375 -1.21875,0 -2.0625,0.8125 -0.84375,0.78125 -0.84375,1.90625 0,1 0.4375,2 0.4375,0.96875 1.21875,1.75 h -2.28125 q -0.71875,-0.71875 -1.09375,-1.6875 -0.375,-0.96875 -0.375,-2.0625 0,-1.90625 1.46875,-3.21875 1.4375,-1.34375 3.53125,-1.34375 2.40625,0 4.40625,2.46875 2,2.46875 2.65625,6.25 h 3.5625 v 1.875 h -3.5625 V 150 h -2.0625 v -18.9375 z"
         id="path95" />
      <path
         d="m 423.70312,131.0625 v -1.875 h 20.75 v 1.875 h -3.53125 V 150 h -2.09375 v -7.5 q -1.25,1.75 -2.71875,2.75 -1.46875,1 -2.875,1 -2.09375,0 -3.5625,-1.4375 -1.4375,-1.46875 -1.4375,-3.5625 0,-1.5 0.59375,-2.71875 0.59375,-1.21875 1.6875,-1.84375 h -6.03125 v -2.09375 h 12.28125 v 2.09375 h -2.90625 q -1.59375,0.59375 -2.59375,1.84375 -0.96875,1.21875 -0.96875,2.71875 0,1.21875 0.84375,2.09375 0.875,0.84375 2.09375,0.84375 1.3125,0 2.8125,-1.28125 1.5,-1.3125 2.78125,-3.53125 v -8.3125 z"
         id="path97" />
      <path
         d="m 459.29687,137.9375 h 7.5 v -6.875 h -7.5 z m -5.8125,-6.875 v -1.875 h 18.9375 v 1.875 h -3.5625 V 150 h -2.0625 v -10 h -7.5 v 1.46875 q 0,0.5 -0.1875,0.875 -0.1875,0.375 -0.4375,0.375 -0.71875,0 -2.4375,-1.5625 -1.71875,-1.5625 -1.71875,-2.1875 0,-0.40625 0.3125,-0.71875 0.3125,-0.3125 0.71875,-0.3125 h 1.6875 v -6.875 z"
         id="path99" />
      <path
         d="m 471.57812,131.0625 v -1.875 h 9.15625 v 1.875 h -3.5625 V 150 h -2.0625 v -18.9375 z"
         id="path101" />
      <path
         d="m 495.23437,140.4375 q 0.46875,0 1.15625,-0.21875 0.6875,-0.21875 1.5625,-0.625 v -8.53125 h -5.84375 v 5 h -7.28125 q -0.40625,0 -0.71875,0.1875 -0.3125,0.1875 -0.3125,0.4375 0,0.78125 0.9375,1.96875 0.9375,1.15625 1.5625,1.15625 0.625,0 1.75,-0.40625 1.15625,-0.4375 1.78125,-0.4375 0.59375,0 1.125,0.1875 0.53125,0.15625 0.96875,0.4375 0.5625,0.40625 1.40625,0.625 0.875,0.21875 1.90625,0.21875 z m -5,11.03125 q -1.375,-0.625 -2.53125,-1.4375 -1.125,-0.78125 -2.03125,-1.6875 -1.625,0 -2.8125,-0.71875 -1.15625,-0.75 -1.15625,-1.78125 0,-0.71875 0.46875,-1.1875 0.5,-0.46875 1.21875,-0.46875 0.875,0 1.75,0.53125 0.90625,0.53125 1.5625,1.53125 1.78125,-0.3125 2.96875,-1.40625 1.1875,-1.125 1.1875,-2.53125 0,-0.5 -0.3125,-0.875 -0.3125,-0.375 -0.71875,-0.375 -0.625,0 -1.78125,0.40625 -1.125,0.40625 -1.75,0.40625 -1.125,0 -2.875,-1.9375 -1.71875,-1.96875 -1.71875,-3.25 0,-1.125 0.90625,-1.90625 0.9375,-0.8125 2.21875,-0.8125 h 5.21875 v -2.90625 h -10.15625 v -1.875 h 23.65625 v 1.875 h -3.53125 V 150 h -2.0625 v -8.3125 q -0.6875,0.28125 -1.375,0.46875 -0.6875,0.15625 -1.34375,0.15625 -0.59375,0 -1.15625,-0.0937 -0.5625,-0.125 -1.125,-0.34375 0,2.34375 -1.375,3.875 -1.375,1.53125 -3.84375,1.96875 1.0625,0.875 1.9375,1.46875 0.90625,0.5625 1.625,0.8125 z"
         id="path103" />
      <path
         d="m 502.73437,131.0625 v -1.875 h 3.53125 q -0.53125,-3 -1.96875,-4.9375 -1.40625,-1.9375 -3.03125,-1.9375 -1.21875,0 -2.0625,0.8125 -0.84375,0.78125 -0.84375,1.90625 0,1 0.4375,2 0.4375,0.96875 1.21875,1.75 h -2.28125 q -0.71875,-0.71875 -1.09375,-1.6875 -0.375,-0.96875 -0.375,-2.0625 0,-1.90625 1.46875,-3.21875 1.4375,-1.34375 3.53125,-1.34375 2.40625,0 4.40625,2.46875 2,2.46875 2.65625,6.25 h 3.5625 v 1.875 h -3.5625 V 150 h -2.0625 v -18.9375 z"
         id="path105" />
      <path
         d="m 531.01562,148.53125 q -2.5,0 -4.84375,-2.0625 -2.34375,-2.09375 -4.09375,-5.84375 l 1.46875,-1.25 q 1.5625,3.375 3.5,5.25 1.96875,1.84375 3.96875,1.84375 1.3125,0 2.21875,-1.09375 0.90625,-1.125 0.90625,-2.65625 0,-1.46875 -1.03125,-2.5 -1.03125,-1.03125 -2.5,-1.03125 -0.46875,0 -1,0.0937 -0.5,0.0937 -1.09375,0.3125 l -0.8125,-1.875 q 1.875,-0.15625 3.3125,-1.34375 1.46875,-1.21875 1.46875,-2.59375 0,-1.125 -0.875,-1.90625 -0.84375,-0.8125 -2.03125,-0.8125 -1,0 -2.21875,0.78125 -1.21875,0.75 -2.375,2.125 l -1.4375,-1.4375 q 1.0625,-1.59375 2.65625,-2.46875 1.625,-0.875 3.375,-0.875 2.0625,0 3.5,1.34375 1.46875,1.3125 1.46875,3.25 0,1.125 -0.5,2.15625 -0.5,1.03125 -1.34375,1.78125 1.40625,0.84375 2.78125,1.25 1.375,0.40625 2.625,0.40625 0.3125,0 0.84375,-0.1875 0.53125,-0.21875 1.21875,-0.625 v -7.5 h -3.75 v -1.875 h 17.90625 v 1.875 h -3.53125 V 150 h -2.09375 v -18.9375 h -6.4375 V 150 h -2.09375 v -9.375 q -0.5,0.4375 -1.03125,0.65625 -0.5,0.1875 -1.03125,0.1875 -0.875,0 -1.59375,-0.15625 -0.71875,-0.1875 -1.125,-0.46875 0.40625,0.34375 0.625,0.9375 0.21875,0.59375 0.21875,1.34375 0,2.25 -1.53125,3.84375 -1.5,1.5625 -3.6875,1.5625 z"
         id="path107" />
      <path
         d="m 565.67187,131.0625 v -1.875 h 9.78125 v 1.875 h -3.53125 V 150 h -2.09375 v -18.9375 z m -5.625,4.78125 q 1.03125,0 1.9375,-0.625 0.90625,-0.625 1.40625,-1.65625 -0.46875,-1.21875 -1.28125,-1.96875 -0.78125,-0.75 -1.65625,-0.75 -1.03125,0 -1.78125,0.8125 -0.71875,0.78125 -0.71875,1.90625 0,0.96875 0.59375,1.625 0.625,0.65625 1.5,0.65625 z M 564.20312,150 l -9.34375,-7.90625 1.03125,-1.46875 q 0.90625,0.75 1.4375,1.125 0.53125,0.34375 0.84375,0.34375 2.34375,0 3.96875,-1.8125 1.65625,-1.84375 1.65625,-4.4375 -0.53125,0.96875 -1.5625,1.53125 -1.03125,0.5625 -2.1875,0.5625 -1.71875,0 -2.9375,-1.28125 -1.21875,-1.3125 -1.21875,-3.09375 0,-2 1.3125,-3.375 1.34375,-1.40625 3.25,-1.40625 2.25,0 3.84375,2.09375 1.59375,2.0625 1.59375,4.96875 0,3.21875 -1.90625,5.46875 -1.90625,2.25 -4.5625,2.25 l 6.03125,4.96875 z"
         id="path109" />
      <path
         d="m 574.60937,131.0625 v -1.875 h 9.15625 v 1.875 h -3.5625 V 150 h -2.0625 v -18.9375 z"
         id="path111" />
      <path
         d="m 585.67187,150 v -3.28125 h 2.65625 V 150 Z"
         id="path113" />
    </g>
    <g
       aria-label="भावनांचा प्रवाह, शब्दांचा सुंदर साज,"
       id="text6">
      <path
         d="m 196.60937,189.8125 q 0,-0.34375 0.28125,-0.59375 0.3125,-0.25 0.75,-0.25 h 1.65625 v -6.03125 q 0,-0.875 -0.5625,-1.46875 -0.53125,-0.625 -1.3125,-0.625 -0.78125,0 -1.34375,0.4375 -0.53125,0.4375 -0.53125,1.03125 0,0.71875 0.53125,1.1875 0.5625,0.46875 1.34375,0.46875 v 2.09375 q -1.625,0 -2.78125,-1.09375 -1.15625,-1.125 -1.15625,-2.65625 0,-1.46875 1.15625,-2.5 1.15625,-1.03125 2.78125,-1.03125 1.625,0 2.78125,1.21875 1.1875,1.21875 1.1875,2.9375 v 6.03125 h 6.84375 v -7.90625 h -5.40625 v -1.875 h 11.03125 v 1.875 h -3.53125 V 200 h -2.09375 v -8.9375 h -6.84375 v 1.65625 q 0,0.34375 -0.3125,0.59375 -0.3125,0.25 -0.75,0.25 -0.625,0 -2.1875,-1.5625 -1.53125,-1.5625 -1.53125,-2.1875 z"
         id="path116" />
      <path
         d="m 213.01562,181.0625 v -1.875 h 9.15625 v 1.875 h -3.5625 V 200 h -2.0625 v -18.9375 z"
         id="path118" />
      <path
         d="m 221.32812,181.0625 v -1.875 h 17.8125 v 1.875 h -3.5625 V 200 h -2.0625 v -6.65625 q -0.84375,1 -2,1.5625 -1.125,0.53125 -2.375,0.53125 -2.59375,0 -4.4375,-1.65625 -1.8125,-1.65625 -1.8125,-3.96875 0,-2.34375 1.8125,-3.96875 1.84375,-1.65625 4.4375,-1.65625 0.75,0 1.4375,0.21875 0.6875,0.1875 1.28125,0.625 l -1.0625,1.65625 q -0.375,-0.28125 -0.78125,-0.4375 -0.40625,-0.1875 -0.875,-0.1875 -1.71875,0 -2.9375,1.09375 -1.21875,1.09375 -1.21875,2.65625 0,1.4375 1.21875,2.5 1.21875,1.03125 2.9375,1.03125 1.21875,0 2.375,-0.8125 1.15625,-0.84375 2,-2.3125 v -9.15625 z"
         id="path120" />
      <path
         d="m 239.32812,187.53125 q 0,-0.4375 0.4375,-0.75 0.4375,-0.3125 1.03125,-0.3125 h 11 v -5.40625 h -13.5 v -1.875 h 19.125 v 1.875 h -3.53125 V 200 h -2.09375 v -11.4375 h -6.03125 q -0.5,0 -0.875,0.25 -0.375,0.25 -0.375,0.5625 v 2.09375 q 0,0.5 -0.3125,0.875 -0.3125,0.375 -0.71875,0.375 -0.71875,0 -2.4375,-2.15625 -1.71875,-2.1875 -1.71875,-3.03125 z"
         id="path122" />
      <path
         d="m 256.57812,181.0625 v -1.875 h 9.15625 v 1.875 h -3.5625 V 200 h -2.0625 v -18.9375 z"
         id="path124" />
      <path
         d="m 259.76562,174 v -2.90625 h 3.125 V 174 Z"
         id="path126" />
      <path
         d="m 264.89062,181.0625 v -1.875 h 20.75 v 1.875 h -3.53125 V 200 h -2.09375 v -7.5 q -1.25,1.75 -2.71875,2.75 -1.46875,1 -2.875,1 -2.09375,0 -3.5625,-1.4375 -1.4375,-1.46875 -1.4375,-3.5625 0,-1.5 0.59375,-2.71875 0.59375,-1.21875 1.6875,-1.84375 h -6.03125 v -2.09375 h 12.28125 v 2.09375 h -2.90625 q -1.59375,0.59375 -2.59375,1.84375 -0.96875,1.21875 -0.96875,2.71875 0,1.21875 0.84375,2.09375 0.875,0.84375 2.09375,0.84375 1.3125,0 2.8125,-1.28125 1.5,-1.3125 2.78125,-3.53125 v -8.3125 z"
         id="path128" />
      <path
         d="m 284.79687,181.0625 v -1.875 h 9.15625 v 1.875 h -3.5625 V 200 h -2.0625 v -18.9375 z"
         id="path130" />
      <path
         d="m 311.82812,192.09375 q 0.0937,0 0.5,-0.0937 l 0.75,-0.125 3.125,-2.0625 v -8.75 h -7.90625 v 7.5 q 0,1.4375 1.03125,2.5 1.0625,1.03125 2.5,1.03125 z m -8.84375,-11.03125 v -1.875 h 18.84375 v 1.875 h -3.53125 V 200 h -2.09375 v -7.90625 L 305.79687,200 l -1.25,-1.65625 6.25,-4.59375 q -2,-0.5 -3.28125,-1.9375 -1.28125,-1.46875 -1.28125,-3.25 v -7.5 z"
         id="path132" />
      <path
         d="m 320.98437,181.0625 v -1.875 h 17.8125 v 1.875 h -3.5625 V 200 h -2.0625 v -6.65625 q -0.84375,1 -2,1.5625 -1.125,0.53125 -2.375,0.53125 -2.59375,0 -4.4375,-1.65625 -1.8125,-1.65625 -1.8125,-3.96875 0,-2.34375 1.8125,-3.96875 1.84375,-1.65625 4.4375,-1.65625 0.75,0 1.4375,0.21875 0.6875,0.1875 1.28125,0.625 l -1.0625,1.65625 q -0.375,-0.28125 -0.78125,-0.4375 -0.40625,-0.1875 -0.875,-0.1875 -1.71875,0 -2.9375,1.09375 -1.21875,1.09375 -1.21875,2.65625 0,1.4375 1.21875,2.5 1.21875,1.03125 2.9375,1.03125 1.21875,0 2.375,-0.8125 1.15625,-0.84375 2,-2.3125 v -9.15625 z"
         id="path134" />
      <path
         d="m 337.95312,181.0625 v -1.875 h 9.15625 v 1.875 h -3.5625 V 200 h -2.0625 v -18.9375 z"
         id="path136" />
      <path
         d="m 346.26562,181.0625 v -1.875 h 17.3125 v 1.875 h -3.34375 v 5 h -8.53125 q -0.40625,0 -0.71875,0.1875 -0.3125,0.1875 -0.3125,0.4375 0,0.84375 0.625,1.625 0.625,0.78125 1.65625,1.28125 0.65625,-0.28125 1.4375,-0.4375 0.8125,-0.1875 1.6875,-0.1875 2.34375,0 3.96875,1.34375 1.65625,1.3125 1.65625,3.25 0,1.0625 -0.4375,1.96875 -0.4375,0.875 -1.25,1.34375 l -1.65625,-1.4375 q 0.59375,-0.34375 0.90625,-0.84375 0.34375,-0.5 0.34375,-1.03125 0,-1.0625 -1.03125,-1.78125 -1.03125,-0.71875 -2.5,-0.71875 -2.25,0 -3.84375,1.03125 -1.5625,1.03125 -1.5625,2.5 0,1.90625 2.6875,3.25 2.6875,1.3125 6.46875,1.3125 l -0.4375,1.875 q -4.46875,0 -7.65625,-1.875 -3.15625,-1.90625 -3.15625,-4.5625 0,-1.21875 0.59375,-2.28125 0.625,-1.0625 1.6875,-1.6875 -1.0625,-0.90625 -1.6875,-1.9375 -0.59375,-1.03125 -0.59375,-2 0,-1.125 0.90625,-1.90625 0.9375,-0.8125 2.21875,-0.8125 h 6.46875 v -2.90625 z"
         id="path138" />
      <path
         d="m 363.67187,204 1.65625,-7.28125 h 3.03125 L 365.23437,204 Z"
         id="path140" />
      <path
         d="m 396.01562,181.0625 v -1.875 h 9.78125 v 1.875 h -3.53125 V 200 h -2.09375 v -18.9375 z m -5.625,4.78125 q 1.03125,0 1.9375,-0.625 0.90625,-0.625 1.40625,-1.65625 -0.46875,-1.21875 -1.28125,-1.96875 -0.78125,-0.75 -1.65625,-0.75 -1.03125,0 -1.78125,0.8125 -0.71875,0.78125 -0.71875,1.90625 0,0.96875 0.59375,1.625 0.625,0.65625 1.5,0.65625 z M 394.54687,200 l -9.34375,-7.90625 1.03125,-1.46875 q 0.90625,0.75 1.4375,1.125 0.53125,0.34375 0.84375,0.34375 2.34375,0 3.96875,-1.8125 1.65625,-1.84375 1.65625,-4.4375 -0.53125,0.96875 -1.5625,1.53125 -1.03125,0.5625 -2.1875,0.5625 -1.71875,0 -2.9375,-1.28125 -1.21875,-1.3125 -1.21875,-3.09375 0,-2 1.3125,-3.375 1.34375,-1.40625 3.25,-1.40625 2.25,0 3.84375,2.09375 1.59375,2.0625 1.59375,4.96875 0,3.21875 -1.90625,5.46875 -1.90625,2.25 -4.5625,2.25 l 6.03125,4.96875 z"
         id="path142" />
      <path
         d="m 404.95312,181.0625 v -1.875 h 12.28125 v 1.875 z m 7.46875,12.90625 q 0.9375,0 1.75,-0.3125 0.8125,-0.34375 1.375,-0.9375 l -6.21875,-4.59375 q -0.3125,0.375 -0.46875,0.90625 -0.15625,0.53125 -0.15625,1.1875 0,1.53125 1.09375,2.65625 1.09375,1.09375 2.625,1.09375 z m 0,2.0625 q -2.40625,0 -4.125,-1.6875 -1.6875,-1.71875 -1.6875,-4.125 0,-2.5625 1.8125,-4.40625 1.84375,-1.84375 4.4375,-1.84375 0.5625,0 1.09375,0.125 0.53125,0.0937 0.96875,0.3125 v 2.0625 q -0.28125,-0.1875 -0.84375,-0.28125 -0.53125,-0.125 -1.21875,-0.125 -0.75,0 -1.375,0.21875 -0.625,0.1875 -1.125,0.625 l 6.4375,4.78125 0.84375,-1.0625 v 2.71875 q -0.875,1.28125 -2.28125,2 -1.375,0.6875 -2.9375,0.6875 z"
         id="path144" />
      <path
         d="m 416.14062,181.0625 v -1.875 h 18 v 1.875 h -3.3125 v 5.40625 h -8.125 q -1.21875,0 -2.0625,0.875 -0.84375,0.84375 -0.84375,2.03125 0,2.25 2.375,3.84375 2.375,1.59375 5.75,1.59375 0,-1.46875 0.65625,-2.5 0.65625,-1.0625 1.625,-1.0625 0.6875,0 1.15625,0.5 0.5,0.46875 0.5,1.1875 0,0.8125 -0.5,1.65625 -0.5,0.84375 -1.375,1.4375 l 2.28125,3.96875 -1.875,0.84375 -2.28125,-4.1875 q -4.3125,0 -7.375,-2.125 -3.03125,-2.15625 -3.03125,-5.15625 0,-2.0625 1.4375,-3.5 1.46875,-1.46875 3.5625,-1.46875 h 6.03125 v -3.34375 z"
         id="path146" />
      <path
         d="m 433.29687,181.0625 v -1.875 h 9.15625 v 1.875 h -3.5625 V 200 h -2.0625 v -18.9375 z"
         id="path148" />
      <path
         d="m 436.48437,174 v -2.90625 h 3.125 V 174 Z"
         id="path150" />
      <path
         d="m 441.60937,181.0625 v -1.875 h 20.75 v 1.875 h -3.53125 V 200 h -2.09375 v -7.5 q -1.25,1.75 -2.71875,2.75 -1.46875,1 -2.875,1 -2.09375,0 -3.5625,-1.4375 -1.4375,-1.46875 -1.4375,-3.5625 0,-1.5 0.59375,-2.71875 0.59375,-1.21875 1.6875,-1.84375 h -6.03125 v -2.09375 h 12.28125 v 2.09375 h -2.90625 q -1.59375,0.59375 -2.59375,1.84375 -0.96875,1.21875 -0.96875,2.71875 0,1.21875 0.84375,2.09375 0.875,0.84375 2.09375,0.84375 1.3125,0 2.8125,-1.28125 1.5,-1.3125 2.78125,-3.53125 v -8.3125 z"
         id="path152" />
      <path
         d="m 461.51562,181.0625 v -1.875 h 9.15625 v 1.875 h -3.5625 V 200 h -2.0625 v -18.9375 z"
         id="path154" />
      <path
         d="m 479.70312,181.0625 v -1.875 h 23 v 1.875 h -3.53125 V 200 h -2.09375 v -10 h -8.875 q -0.84375,0.625 -1.9375,0.625 -0.25,0 -0.5,-0.0625 -0.21875,-0.0625 -0.34375,-0.125 l 6.25,8.71875 -1.65625,1.0625 -9.375,-13.3125 1.6875,-1.25 q 0.65625,1.40625 1.53125,2.25 0.90625,0.84375 1.78125,0.84375 0.875,0 1.46875,-0.59375 0.625,-0.59375 0.625,-1.46875 v -5.625 z m 9.90625,6.875 h 7.46875 v -6.875 h -7.28125 v 5.625 q 0,0.65625 -0.1875,1.25 z"
         id="path156" />
      <path
         d="m 496.01562,208.53125 q -2.25,0 -4.6875,-1.09375 -2.46875,-1.0625 -4.875,-3.0625 l 1.46875,-1.875 q 2.28125,1.90625 4.375,2.90625 2.0625,1.03125 3.71875,1.03125 1.8125,0 3.09375,-0.90625 1.28125,-0.90625 1.28125,-2.1875 0,-1.0625 -0.65625,-1.78125 -0.6875,-0.71875 -1.625,-0.71875 -1,0 -1.875,0.375 -0.875,0.375 -1.46875,1.0625 l -1.4375,-1.4375 q 0.8125,-1 2.0625,-1.53125 1.25,-0.5625 2.71875,-0.5625 1.78125,0 3.09375,1.3125 1.28125,1.34375 1.28125,3.28125 0,2.15625 -1.90625,3.65625 -1.90625,1.53125 -4.5625,1.53125 z"
         id="path158" />
      <path
         d="M 496.73437,174.03125 V 171.125 h 3.125 v 2.90625 z"
         id="path160" />
      <path
         d="m 501.60937,181.0625 v -1.875 h 18 v 1.875 h -3.3125 v 5.40625 h -8.125 q -1.21875,0 -2.0625,0.875 -0.84375,0.84375 -0.84375,2.03125 0,2.25 2.375,3.84375 2.375,1.59375 5.75,1.59375 0,-1.46875 0.65625,-2.5 0.65625,-1.0625 1.625,-1.0625 0.6875,0 1.15625,0.5 0.5,0.46875 0.5,1.1875 0,0.8125 -0.5,1.65625 -0.5,0.84375 -1.375,1.4375 l 2.28125,3.96875 -1.875,0.84375 -2.28125,-4.1875 q -4.3125,0 -7.375,-2.125 -3.03125,-2.15625 -3.03125,-5.15625 0,-2.0625 1.4375,-3.5 1.46875,-1.46875 3.5625,-1.46875 h 6.03125 v -3.34375 z"
         id="path162" />
      <path
         d="m 518.76562,181.0625 v -1.875 h 14.46875 v 1.875 h -2.8125 v 4.78125 q 0,1.9375 -1.3125,3.28125 -1.28125,1.3125 -3.0625,1.3125 -0.25,0 -0.6875,-0.0937 -0.40625,-0.125 -1,-0.34375 1.34375,2.34375 3.15625,4.5 1.84375,2.125 4.125,4.03125 L 530.42187,200 q -3.34375,-2.78125 -6.03125,-6.3125 -2.6875,-3.5625 -4.59375,-7.625 l 1.875,-1.03125 q 0.53125,1.5 1.71875,2.40625 1.21875,0.90625 2.65625,0.90625 0.9375,0 1.59375,-0.71875 0.6875,-0.71875 0.6875,-1.78125 v -4.78125 z"
         id="path164" />
      <path
         d="m 542.26562,181.0625 v -1.875 h 23 v 1.875 h -3.53125 V 200 h -2.09375 v -10 h -8.875 q -0.84375,0.625 -1.9375,0.625 -0.25,0 -0.5,-0.0625 -0.21875,-0.0625 -0.34375,-0.125 l 6.25,8.71875 -1.65625,1.0625 -9.375,-13.3125 1.6875,-1.25 q 0.65625,1.40625 1.53125,2.25 0.90625,0.84375 1.78125,0.84375 0.875,0 1.46875,-0.59375 0.625,-0.59375 0.625,-1.46875 v -5.625 z m 9.90625,6.875 h 7.46875 v -6.875 h -7.28125 v 5.625 q 0,0.65625 -0.1875,1.25 z"
         id="path166" />
      <path
         d="m 564.42187,181.0625 v -1.875 h 9.15625 v 1.875 h -3.5625 V 200 h -2.0625 v -18.9375 z"
         id="path168" />
      <path
         d="m 582.79687,197.5 q -2.25,0 -4.6875,-3 -2.4375,-3.03125 -4.25,-8.03125 l 1.875,-0.8125 q 1.59375,4.4375 3.53125,7.125 1.9375,2.65625 3.53125,2.65625 1.03125,0 1.75,-0.78125 0.75,-0.8125 0.75,-1.9375 0,-1.78125 -0.9375,-3.65625 -0.90625,-1.90625 -2.59375,-3.625 h 8.9375 v -4.375 h -17.96875 v -1.875 h 23.59375 v 1.875 h -3.53125 V 200 h -2.09375 v -12.46875 h -5 q 0.84375,1.15625 1.25,2.5 0.40625,1.3125 0.40625,2.6875 0,2 -1.34375,3.40625 -1.3125,1.375 -3.21875,1.375 z"
         id="path170" />
      <path
         d="m 596.42187,204 1.65625,-7.28125 h 3.03125 L 597.98437,204 Z"
         id="path172" />
    </g>
    <g
       aria-label="गीता मराठीत, अमृत झाले साज."
       id="text8">
      <path
         d="m 217.15625,231.0625 v -1.875 h 17 v 1.875 H 230.625 V 250 h -2.0625 v -18.9375 h -5.21875 V 241.25 q 0,0.5 -0.3125,0.875 -0.3125,0.375 -0.71875,0.375 -0.78125,0 -2.46875,-1.9375 -1.6875,-1.96875 -1.6875,-2.84375 0,-0.3125 0.25,-0.5625 0.25,-0.25 0.5625,-0.25 h 1.46875 q 0.34375,0 0.59375,-0.3125 0.25,-0.3125 0.25,-0.75 v -4.78125 z"
         id="path175" />
      <path
         d="m 233.3125,231.0625 v -1.875 h 3.53125 q -0.53125,-3 -1.96875,-4.9375 -1.40625,-1.9375 -3.03125,-1.9375 -1.21875,0 -2.0625,0.8125 -0.84375,0.78125 -0.84375,1.90625 0,1 0.4375,2 0.4375,0.96875 1.21875,1.75 h -2.28125 q -0.71875,-0.71875 -1.09375,-1.6875 -0.375,-0.96875 -0.375,-2.0625 0,-1.90625 1.46875,-3.21875 1.4375,-1.34375 3.53125,-1.34375 2.40625,0 4.40625,2.46875 2,2.46875 2.65625,6.25 h 3.5625 v 1.875 h -3.5625 V 250 h -2.0625 v -18.9375 z"
         id="path177" />
      <path
         d="m 243.375,239.8125 q 0,-2 1.28125,-3.375 1.28125,-1.40625 3.0625,-1.40625 h 8.125 V 231.0625 H 241.625 v -1.875 h 19.84375 v 1.875 H 257.9375 V 250 h -2.09375 v -12.90625 h -8.125 q -0.9375,0 -1.625,0.8125 -0.65625,0.78125 -0.65625,1.90625 0,2 1.40625,4.28125 1.4375,2.28125 4,4.4375 l -1.25,1.46875 q -2.9375,-2.5 -4.59375,-5.15625 -1.625,-2.65625 -1.625,-5.03125 z"
         id="path179" />
      <path
         d="m 260.625,231.0625 v -1.875 h 9.15625 v 1.875 h -3.5625 V 250 h -2.0625 v -18.9375 z"
         id="path181" />
      <path
         d="m 284.625,237.9375 h 7.5 v -6.875 h -7.5 z m -5.8125,-6.875 v -1.875 H 297.75 v 1.875 h -3.5625 V 250 h -2.0625 v -10 h -7.5 v 1.46875 q 0,0.5 -0.1875,0.875 -0.1875,0.375 -0.4375,0.375 -0.71875,0 -2.4375,-1.5625 -1.71875,-1.5625 -1.71875,-2.1875 0,-0.40625 0.3125,-0.71875 0.3125,-0.3125 0.71875,-0.3125 h 1.6875 v -6.875 z"
         id="path183" />
      <path
         d="m 296.90625,231.0625 v -1.875 H 311.375 v 1.875 h -2.8125 v 4.78125 q 0,1.9375 -1.3125,3.28125 -1.28125,1.3125 -3.0625,1.3125 -0.25,0 -0.6875,-0.0937 -0.40625,-0.125 -1,-0.34375 1.34375,2.34375 3.15625,4.5 1.84375,2.125 4.125,4.03125 L 308.5625,250 q -3.34375,-2.78125 -6.03125,-6.3125 -2.6875,-3.5625 -4.59375,-7.625 l 1.875,-1.03125 q 0.53125,1.5 1.71875,2.40625 1.21875,0.90625 2.65625,0.90625 0.9375,0 1.59375,-0.71875 0.6875,-0.71875 0.6875,-1.78125 v -4.78125 z"
         id="path185" />
      <path
         d="m 310.53125,231.0625 v -1.875 h 9.15625 v 1.875 H 316.125 V 250 h -2.0625 v -18.9375 z"
         id="path187" />
      <path
         d="m 329.375,249.78125 q -3.25,0 -6,-2.78125 -2.75,-2.8125 -2.75,-6.15625 0,-2.40625 1.5625,-4.09375 1.59375,-1.71875 3.84375,-1.71875 H 331.25 v -3.96875 h -12.40625 v -1.875 h 18.96875 v 1.875 h -4.5 v 6.03125 h -7.28125 q -1.375,0 -2.34375,1.125 -0.96875,1.09375 -0.96875,2.625 0,2.53125 2.09375,4.71875 2.09375,2.15625 4.5625,2.15625 1.78125,0 3.0625,-1.3125 1.28125,-1.34375 1.28125,-3.28125 0,-1.15625 -0.65625,-2.34375 -0.625,-1.21875 -1.8125,-2.21875 l 1.65625,-1.25 q 1.375,1.15625 2.125,2.6875 0.78125,1.5 0.78125,3.125 0,2.75 -1.90625,4.71875 -1.875,1.9375 -4.53125,1.9375 z"
         id="path189" />
      <path
         d="m 336.96875,231.0625 v -1.875 H 340.5 q -0.53125,-3 -1.96875,-4.9375 -1.40625,-1.9375 -3.03125,-1.9375 -1.21875,0 -2.0625,0.8125 -0.84375,0.78125 -0.84375,1.90625 0,1 0.4375,2 0.4375,0.96875 1.21875,1.75 h -2.28125 q -0.71875,-0.71875 -1.09375,-1.6875 -0.375,-0.96875 -0.375,-2.0625 0,-1.90625 1.46875,-3.21875 1.4375,-1.34375 3.53125,-1.34375 2.40625,0 4.40625,2.46875 2,2.46875 2.65625,6.25 h 3.5625 v 1.875 h -3.5625 V 250 H 340.5 v -18.9375 z"
         id="path191" />
      <path
         d="m 347.03125,239.8125 q 0,-2 1.28125,-3.375 1.28125,-1.40625 3.0625,-1.40625 h 8.125 v -3.96875 h -14.21875 v -1.875 H 365.125 v 1.875 h -3.53125 V 250 H 359.5 v -12.90625 h -8.125 q -0.9375,0 -1.625,0.8125 -0.65625,0.78125 -0.65625,1.90625 0,2 1.40625,4.28125 1.4375,2.28125 4,4.4375 L 353.25,250 q -2.9375,-2.5 -4.59375,-5.15625 -1.625,-2.65625 -1.625,-5.03125 z"
         id="path193" />
      <path
         d="m 365.21875,254 1.65625,-7.28125 h 3.03125 L 366.78125,254 Z"
         id="path195" />
      <path
         d="m 395.4375,248.53125 q -2.5,0 -4.84375,-2.0625 Q 388.25,244.375 386.5,240.625 l 1.53125,-0.875 q 1.5,3.1875 3.4375,4.96875 1.9375,1.75 3.96875,1.75 1.28125,0 2.1875,-0.9375 0.9375,-0.96875 0.9375,-2.34375 0,-1.6875 -1.0625,-2.84375 -1.03125,-1.15625 -2.46875,-1.15625 -0.46875,0 -1,0.0937 -0.5,0.0937 -1.09375,0.3125 l -0.84375,-1.875 q 1.875,-0.15625 3.3125,-1.28125 1.4375,-1.15625 1.4375,-2.46875 0,-1.1875 -0.71875,-2.03125 -0.71875,-0.875 -1.71875,-0.875 -1.21875,0 -2.53125,0.78125 -1.3125,0.75 -2.46875,2.125 l -1.46875,-1.4375 q 1.09375,-1.59375 2.78125,-2.46875 1.71875,-0.875 3.6875,-0.875 1.90625,0 3.21875,1.40625 1.34375,1.375 1.34375,3.375 0,1.0625 -0.5,2.03125 -0.5,0.96875 -1.375,1.71875 1.59375,0.90625 2.8125,1.40625 1.21875,0.46875 1.96875,0.46875 0.46875,0 1.15625,-0.25 0.6875,-0.28125 1.5625,-0.78125 v -7.5 h -3.75 v -1.875 h 9.375 v 1.875 h -3.5625 V 250 h -2.0625 v -9.375 q -0.5,0.4375 -1.03125,0.65625 -0.5,0.1875 -1.0625,0.1875 -0.875,0 -1.59375,-0.15625 -0.6875,-0.1875 -1.09375,-0.46875 0.40625,0.34375 0.59375,0.9375 0.21875,0.59375 0.21875,1.34375 0,2.25 -1.53125,3.84375 -1.5,1.5625 -3.65625,1.5625 z"
         id="path197" />
      <path
         d="m 415.1875,237.9375 h 7.5 v -6.875 h -7.5 z m -5.8125,-6.875 v -1.875 h 18.9375 v 1.875 H 424.75 V 250 h -2.0625 v -10 h -7.5 v 1.46875 q 0,0.5 -0.1875,0.875 -0.1875,0.375 -0.4375,0.375 -0.71875,0 -2.4375,-1.5625 -1.71875,-1.5625 -1.71875,-2.1875 0,-0.40625 0.3125,-0.71875 0.3125,-0.3125 0.71875,-0.3125 h 1.6875 v -6.875 z"
         id="path199" />
      <path
         d="m 422.625,258.53125 q -2.15625,0 -3.65625,-1.40625 -1.53125,-1.375 -1.53125,-3.375 0,-1.90625 1.65625,-3.25 1.625,-1.34375 3.96875,-1.34375 h 1.84375 v 1.875 h -1.84375 q -1.46875,0 -2.5,0.78125 -1.0625,0.8125 -1.0625,1.9375 0,1.125 0.9375,1.90625 0.90625,0.78125 2.1875,0.78125 1.21875,0 2.25,-0.375 1,-0.375 1.71875,-1.0625 l 1.03125,1.875 q -0.96875,0.78125 -2.25,1.21875 -1.28125,0.4375 -2.75,0.4375 z"
         id="path201" />
      <path
         d="m 429.21875,239.8125 q 0,-2 1.28125,-3.375 1.28125,-1.40625 3.0625,-1.40625 h 8.125 v -3.96875 h -14.21875 v -1.875 h 19.84375 v 1.875 h -3.53125 V 250 h -2.09375 v -12.90625 h -8.125 q -0.9375,0 -1.625,0.8125 -0.65625,0.78125 -0.65625,1.90625 0,2 1.40625,4.28125 1.4375,2.28125 4,4.4375 L 435.4375,250 q -2.9375,-2.5 -4.59375,-5.15625 -1.625,-2.65625 -1.625,-5.03125 z"
         id="path203" />
      <path
         d="m 471.6875,240.4375 q 0.46875,0 1.15625,-0.21875 0.6875,-0.21875 1.5625,-0.625 v -8.53125 h -5.84375 v 5 h -7.28125 q -0.40625,0 -0.71875,0.1875 -0.3125,0.1875 -0.3125,0.4375 0,0.78125 0.9375,1.96875 0.9375,1.15625 1.5625,1.15625 0.625,0 1.75,-0.40625 1.15625,-0.4375 1.78125,-0.4375 0.59375,0 1.125,0.1875 0.53125,0.15625 0.96875,0.4375 0.5625,0.40625 1.40625,0.625 0.875,0.21875 1.90625,0.21875 z m -5,11.03125 q -1.375,-0.625 -2.53125,-1.4375 -1.125,-0.78125 -2.03125,-1.6875 -1.625,0 -2.8125,-0.71875 -1.15625,-0.75 -1.15625,-1.78125 0,-0.71875 0.46875,-1.1875 0.5,-0.46875 1.21875,-0.46875 0.875,0 1.75,0.53125 0.90625,0.53125 1.5625,1.53125 1.78125,-0.3125 2.96875,-1.40625 1.1875,-1.125 1.1875,-2.53125 0,-0.5 -0.3125,-0.875 -0.3125,-0.375 -0.71875,-0.375 -0.625,0 -1.78125,0.40625 -1.125,0.40625 -1.75,0.40625 -1.125,0 -2.875,-1.9375 -1.71875,-1.96875 -1.71875,-3.25 0,-1.125 0.90625,-1.90625 0.9375,-0.8125 2.21875,-0.8125 H 466.5 v -2.90625 h -10.15625 v -1.875 H 480 v 1.875 h -3.53125 V 250 h -2.0625 v -8.3125 q -0.6875,0.28125 -1.375,0.46875 -0.6875,0.15625 -1.34375,0.15625 -0.59375,0 -1.15625,-0.0937 -0.5625,-0.125 -1.125,-0.34375 0,2.34375 -1.375,3.875 -1.375,1.53125 -3.84375,1.96875 1.0625,0.875 1.9375,1.46875 0.90625,0.5625 1.625,0.8125 z"
         id="path205" />
      <path
         d="m 479.1875,231.0625 v -1.875 h 9.15625 v 1.875 h -3.5625 V 250 h -2.0625 v -18.9375 z"
         id="path207" />
      <path
         d="m 487.5,231.0625 v -1.875 h 23.53125 v 1.875 H 507.5 V 250 h -2.0625 v -12.46875 q -1.8125,0 -3.375,1.625 -1.5625,1.59375 -2.25,4.1875 l -1.875,-0.625 q 0.15625,-1 0.5,-1.8125 0.34375,-0.8125 0.75,-1.3125 -0.65625,-1 -1.65625,-1.53125 -1,-0.53125 -2.09375,-0.53125 -1.71875,0 -2.9375,1.21875 -1.21875,1.21875 -1.21875,2.9375 0,1.875 1.875,3.71875 1.90625,1.8125 5,2.9375 l -0.84375,1.875 q -3.65625,-1.34375 -5.90625,-3.6875 -2.21875,-2.34375 -2.21875,-4.84375 0,-2.59375 1.8125,-4.40625 1.84375,-1.84375 4.4375,-1.84375 1.53125,0 2.90625,0.625 1.375,0.59375 2.28125,1.65625 0.9375,-1.0625 2.1875,-1.65625 1.25,-0.625 2.625,-0.625 v -4.375 z"
         id="path209" />
      <path
         d="m 505.09375,229.1875 -7.6875,-9.15625 1.4375,-1.25 8.3125,10.40625 z"
         id="path211" />
      <path
         d="m 520.09375,231.0625 v -1.875 h 23 v 1.875 H 539.5625 V 250 h -2.09375 v -10 h -8.875 q -0.84375,0.625 -1.9375,0.625 -0.25,0 -0.5,-0.0625 -0.21875,-0.0625 -0.34375,-0.125 l 6.25,8.71875 -1.65625,1.0625 -9.375,-13.3125 1.6875,-1.25 q 0.65625,1.40625 1.53125,2.25 0.90625,0.84375 1.78125,0.84375 0.875,0 1.46875,-0.59375 0.625,-0.59375 0.625,-1.46875 v -5.625 z M 530,237.9375 h 7.46875 v -6.875 h -7.28125 v 5.625 q 0,0.65625 -0.1875,1.25 z"
         id="path213" />
      <path
         d="m 542.25,231.0625 v -1.875 h 9.15625 v 1.875 h -3.5625 V 250 h -2.0625 v -18.9375 z"
         id="path215" />
      <path
         d="m 560.625,247.5 q -2.25,0 -4.6875,-3 -2.4375,-3.03125 -4.25,-8.03125 l 1.875,-0.8125 q 1.59375,4.4375 3.53125,7.125 1.9375,2.65625 3.53125,2.65625 1.03125,0 1.75,-0.78125 0.75,-0.8125 0.75,-1.9375 0,-1.78125 -0.9375,-3.65625 -0.90625,-1.90625 -2.59375,-3.625 h 8.9375 v -4.375 H 550.5625 v -1.875 h 23.59375 v 1.875 H 570.625 V 250 h -2.09375 v -12.46875 h -5 q 0.84375,1.15625 1.25,2.5 0.40625,1.3125 0.40625,2.6875 0,2 -1.34375,3.40625 -1.3125,1.375 -3.21875,1.375 z"
         id="path217" />
      <path
         d="m 576.0625,250 v -3.28125 h 2.65625 V 250 Z"
         id="path219" />
    </g>
  </g>
</svg>
