<?xml version="1.0" encoding="UTF-8" standalone="no"?>
<svg
   width="800"
   height="350"
   version="1.1"
   id="svg12"
   sodipodi:docname="KartiMath.svg"
   xmlns:inkscape="http://www.inkscape.org/namespaces/inkscape"
   xmlns:sodipodi="http://sodipodi.sourceforge.net/DTD/sodipodi-0.dtd"
   xmlns="http://www.w3.org/2000/svg"
   xmlns:svg="http://www.w3.org/2000/svg">
  <defs
     id="defs16" />
  <sodipodi:namedview
     id="namedview14"
     pagecolor="#ffffff"
     bordercolor="#000000"
     borderopacity="0.25"
     inkscape:showpageshadow="2"
     inkscape:pageopacity="0.0"
     inkscape:pagecheckerboard="0"
     inkscape:deskcolor="#d1d1d1" />
  <g
     font-family="Lohit Devanagari"
     font-size="32"
     text-anchor="middle"
     fill="#000"
     id="g10">
    <g
       aria-label="कार्डांच्या राशीत गणिताचा खेळ,"
       id="text2">
      <path
         d="m 218.34375,81.0625 v -1.875 h 24.25 v 1.875 h -11 v 5.625 q 0.6875,-1.15625 1.84375,-1.8125 1.15625,-0.6875 2.53125,-0.6875 2,0 3.375,1.65625 1.40625,1.625 1.40625,3.96875 0,2 -1.03125,3.96875 -1.03125,1.9375 -2.90625,3.5 l -1.875,-1.25 q 1.75,-1.21875 2.75,-2.875 1,-1.65625 1,-3.34375 0,-1.46875 -0.8125,-2.5 -0.78125,-1.03125 -1.90625,-1.03125 -1.4375,0 -2.6875,1.09375 -1.21875,1.09375 -1.6875,2.84375 V 100 h -2.0625 v -6.25 q -0.75,0.875 -1.84375,1.375 -1.0625,0.5 -2.3125,0.5 -2.25,0 -3.84375,-1.5625 -1.5625,-1.59375 -1.5625,-3.84375 0,-2.5 1.8125,-4.25 1.84375,-1.78125 4.40625,-1.78125 0.75,0 1.28125,0.125 0.5625,0.09375 0.8125,0.28125 L 227.875,86.6875 q -0.375,-0.21875 -0.8125,-0.3125 -0.40625,-0.09375 -0.875,-0.09375 -1.6875,0 -2.9375,1.15625 -1.21875,1.15625 -1.21875,2.78125 0,1.375 0.96875,2.375 1,0.96875 2.375,0.96875 1.1875,0 2.3125,-0.71875 1.125,-0.75 1.84375,-2 V 81.0625 Z"
         id="path18" />
      <path
         d="m 241.75,81.0625 v -1.875 h 9.15625 v 1.875 h -3.5625 V 100 h -2.0625 V 81.0625 Z"
         id="path20" />
      <path
         d="m 262.5,99.59375 q -3.28125,0 -6.40625,-2.46875 Q 253,94.625 251.0625,90.4375 l 1.65625,-1.0625 q 1.75,3.71875 4.375,5.9375 Q 259.75,97.5 262.5,97.5 q 1.6875,0 2.90625,-1.28125 1.25,-1.28125 1.25,-3.09375 0,-0.5 -0.3125,-0.875 -0.3125,-0.375 -0.71875,-0.375 -0.6875,0 -1.90625,0.4375 -1.1875,0.40625 -1.84375,0.40625 -1.59375,0 -3.5,-2 -1.90625,-2 -1.90625,-3.625 0,-1.125 0.78125,-1.90625 0.78125,-0.78125 1.90625,-0.78125 h 5.625 V 81.0625 H 250.0625 v -1.875 h 20.53125 v 1.875 H 266.875 v 5.40625 h -7.71875 q -0.25,0 -0.4375,0.1875 -0.1875,0.1875 -0.1875,0.4375 0,0.875 1.25,2.21875 1.25,1.3125 2.09375,1.3125 0.65625,0 1.84375,-0.40625 1.21875,-0.40625 1.90625,-0.40625 1.28125,0 2.1875,0.96875 0.9375,0.96875 0.9375,2.34375 0,2.6875 -1.84375,4.59375 -1.84375,1.875 -4.40625,1.875 z"
         id="path22" />
      <path
         d="m 269.78125,81.0625 v -1.875 h 9.15625 v 1.875 H 275.375 V 100 h -2.0625 V 81.0625 Z"
         id="path24" />
      <path
         d="M 276.15625,76.28125 V 74 h 2.3125 v 2.28125 z M 273.25,79.1875 q -0.90625,-0.90625 -1.375,-1.96875 -0.5,-1.09375 -0.5,-2.1875 0,-1.90625 1.3125,-3.21875 1.28125,-1.34375 3.0625,-1.34375 0.96875,0 1.65625,0.09375 0.6875,0.09375 1.0625,0.3125 v 1.65625 Q 278,72.3125 277.34375,72.21875 276.65625,72.125 275.75,72.125 q -0.96875,0 -1.625,0.84375 -0.65625,0.84375 -0.65625,2.0625 0,1 0.53125,2.09375 0.53125,1.0625 1.53125,2.0625 z"
         id="path26" />
      <path
         d="m 278.09375,81.0625 v -1.875 h 15.75 v 1.875 z M 287.625,96.25 q -2.09375,0 -3.5625,-1.4375 -1.4375,-1.46875 -1.4375,-3.5625 0,-1.40625 0.59375,-2.59375 0.59375,-1.21875 1.6875,-1.96875 H 278.875 v -2.09375 h 12.0625 v 2.09375 h -2.5 q -1.6875,0.78125 -2.71875,2.03125 -1.03125,1.25 -1.03125,2.53125 0,1.21875 0.84375,2.09375 0.875,0.84375 2.09375,0.84375 1.40625,0 3.1875,-1.65625 1.78125,-1.6875 3.46875,-4.59375 V 91.25 q -1.625,2.34375 -3.40625,3.6875 -1.75,1.3125 -3.25,1.3125 z"
         id="path28" />
      <path
         d="m 301.46875,93.96875 q 1.625,0 3.0625,-0.875 Q 306,92.1875 306.875,90.625 v -9.5625 h -7.0625 q 0.78125,0.96875 1.21875,2.0625 0.4375,1.0625 0.4375,2.09375 0,1.8125 -1.4375,3.21875 -1.40625,1.40625 -3.5625,1.78125 0.3125,1.625 1.71875,2.6875 1.40625,1.0625 3.28125,1.0625 z m -8.4375,-12.90625 v -1.875 H 312.5 v 1.875 h -3.53125 V 100 H 306.875 v -6.4375 q -1.21875,1.1875 -2.625,1.84375 -1.375,0.625 -2.78125,0.625 -3,0 -5.15625,-2.15625 -2.125,-2.1875 -2.125,-5.3125 2.375,0 3.78125,-0.90625 1.40625,-0.9375 1.40625,-2.4375 0,-1 -0.53125,-2.0625 -0.53125,-1.09375 -1.53125,-2.09375 z"
         id="path30" />
      <path
         d="m 311.65625,81.0625 v -1.875 h 9.15625 v 1.875 H 317.25 V 100 h -2.0625 V 81.0625 Z"
         id="path32" />
      <path
         d="m 329.84375,81.0625 v -1.875 h 14.46875 v 1.875 H 341.5 v 4.78125 q 0,1.9375 -1.3125,3.28125 -1.28125,1.3125 -3.0625,1.3125 -0.25,0 -0.6875,-0.09375 -0.40625,-0.125 -1,-0.34375 1.34375,2.34375 3.15625,4.5 1.84375,2.125 4.125,4.03125 L 341.5,100 q -3.34375,-2.78125 -6.03125,-6.3125 -2.6875,-3.5625 -4.59375,-7.625 l 1.875,-1.03125 q 0.53125,1.5 1.71875,2.40625 1.21875,0.90625 2.65625,0.90625 0.9375,0 1.59375,-0.71875 0.6875,-0.71875 0.6875,-1.78125 V 81.0625 Z"
         id="path34" />
      <path
         d="m 343.46875,81.0625 v -1.875 h 9.15625 v 1.875 h -3.5625 V 100 H 347 V 81.0625 Z"
         id="path36" />
      <path
         d="m 363.96875,81.0625 v -1.875 H 373.75 v 1.875 h -3.53125 V 100 H 368.125 V 81.0625 Z m -5.625,4.78125 q 1.03125,0 1.9375,-0.625 0.90625,-0.625 1.40625,-1.65625 -0.46875,-1.21875 -1.28125,-1.96875 -0.78125,-0.75 -1.65625,-0.75 -1.03125,0 -1.78125,0.8125 -0.71875,0.78125 -0.71875,1.90625 0,0.96875 0.59375,1.625 0.625,0.65625 1.5,0.65625 z M 362.5,100 353.15625,92.09375 354.1875,90.625 q 0.90625,0.75 1.4375,1.125 0.53125,0.34375 0.84375,0.34375 2.34375,0 3.96875,-1.8125 1.65625,-1.84375 1.65625,-4.4375 -0.53125,0.96875 -1.5625,1.53125 -1.03125,0.5625 -2.1875,0.5625 -1.71875,0 -2.9375,-1.28125 -1.21875,-1.3125 -1.21875,-3.09375 0,-2 1.3125,-3.375 1.34375,-1.40625 3.25,-1.40625 2.25,0 3.84375,2.09375 1.59375,2.0625 1.59375,4.96875 0,3.21875 -1.90625,5.46875 -1.90625,2.25 -4.5625,2.25 l 6.03125,4.96875 z"
         id="path38" />
      <path
         d="m 372.90625,81.0625 v -1.875 h 3.53125 q -0.53125,-3 -1.96875,-4.9375 -1.40625,-1.9375 -3.03125,-1.9375 -1.21875,0 -2.0625,0.8125 -0.84375,0.78125 -0.84375,1.90625 0,1 0.4375,2 0.4375,0.96875 1.21875,1.75 h -2.28125 q -0.71875,-0.71875 -1.09375,-1.6875 -0.375,-0.96875 -0.375,-2.0625 0,-1.90625 1.46875,-3.21875 1.4375,-1.34375 3.53125,-1.34375 2.40625,0 4.40625,2.46875 2,2.46875 2.65625,6.25 h 3.5625 v 1.875 H 378.5 V 100 h -2.0625 V 81.0625 Z"
         id="path40" />
      <path
         d="m 382.96875,89.8125 q 0,-2 1.28125,-3.375 1.28125,-1.40625 3.0625,-1.40625 h 8.125 V 81.0625 h -14.21875 v -1.875 h 19.84375 v 1.875 h -3.53125 V 100 H 395.4375 V 87.09375 h -8.125 q -0.9375,0 -1.625,0.8125 -0.65625,0.78125 -0.65625,1.90625 0,2 1.40625,4.28125 1.4375,2.28125 4,4.4375 L 389.1875,100 q -2.9375,-2.5 -4.59375,-5.15625 -1.625,-2.65625 -1.625,-5.03125 z"
         id="path42" />
      <path
         d="m 410.09375,81.0625 v -1.875 h 17 v 1.875 H 423.5625 V 100 H 421.5 V 81.0625 h -5.21875 V 91.25 q 0,0.5 -0.3125,0.875 -0.3125,0.375 -0.71875,0.375 -0.78125,0 -2.46875,-1.9375 -1.6875,-1.96875 -1.6875,-2.84375 0,-0.3125 0.25,-0.5625 0.25,-0.25 0.5625,-0.25 h 1.46875 q 0.34375,0 0.59375,-0.3125 0.25,-0.3125 0.25,-0.75 V 81.0625 Z"
         id="path44" />
      <path
         d="m 426.25,81.0625 v -1.875 h 3.46875 q -0.0625,-0.03125 -0.0937,-1.125 0,-0.75 0,-1.6875 0,-2.78125 2.28125,-4.375 2.28125,-1.5625 6,-1.53125 5.78125,0 9.375,2.4375 3.59375,2.4375 5.8125,6.3125 H 450.625 q -1.75,-3 -4.6875,-4.9375 -2.90625,-1.96875 -8.03125,-1.96875 -3.1875,0 -4.625,1.0625 -1.53125,1.125 -1.59375,3 -0.0312,1.28125 0,1.6875 0.15625,0.78125 0.0937,1.125 h 3.625 v 1.875 h -3.5625 V 100 h -2.0625 V 81.0625 Z"
         id="path46" />
      <path
         d="m 441.96875,92.9375 q 1.125,0 1.90625,-0.90625 0.78125,-0.9375 0.78125,-2.21875 v -8.75 h -5.625 v 8.75 q 0,1.28125 0.84375,2.21875 0.875,0.90625 2.09375,0.90625 z m 0,2.0625 q -2.09375,0 -3.5625,-1.5 -1.4375,-1.53125 -1.4375,-3.6875 v -8.75 h -2.40625 v -1.875 h 21.75 v 1.875 h -3.53125 V 100 H 450.6875 V 81.0625 H 446.75 v 8.75 q 0,2.15625 -1.4375,3.6875 -1.40625,1.5 -3.34375,1.5 z"
         id="path48" />
      <path
         d="m 457.21875,89.8125 q 0,-2 1.28125,-3.375 1.28125,-1.40625 3.0625,-1.40625 h 8.125 V 81.0625 h -14.21875 v -1.875 h 19.84375 v 1.875 h -3.53125 V 100 H 469.6875 V 87.09375 h -8.125 q -0.9375,0 -1.625,0.8125 -0.65625,0.78125 -0.65625,1.90625 0,2 1.40625,4.28125 1.4375,2.28125 4,4.4375 L 463.4375,100 q -2.9375,-2.5 -4.59375,-5.15625 -1.625,-2.65625 -1.625,-5.03125 z"
         id="path50" />
      <path
         d="m 474.46875,81.0625 v -1.875 h 9.15625 v 1.875 h -3.5625 V 100 H 478 V 81.0625 Z"
         id="path52" />
      <path
         d="m 482.78125,81.0625 v -1.875 h 20.75 v 1.875 H 500 V 100 h -2.09375 v -7.5 q -1.25,1.75 -2.71875,2.75 -1.46875,1 -2.875,1 -2.09375,0 -3.5625,-1.4375 -1.4375,-1.46875 -1.4375,-3.5625 0,-1.5 0.59375,-2.71875 0.59375,-1.21875 1.6875,-1.84375 h -6.03125 v -2.09375 h 12.28125 v 2.09375 h -2.90625 q -1.59375,0.59375 -2.59375,1.84375 Q 489.375,89.75 489.375,91.25 q 0,1.21875 0.84375,2.09375 0.875,0.84375 2.09375,0.84375 1.3125,0 2.8125,-1.28125 1.5,-1.3125 2.78125,-3.53125 v -8.3125 z"
         id="path54" />
      <path
         d="m 502.6875,81.0625 v -1.875 h 9.15625 v 1.875 h -3.5625 V 100 h -2.0625 V 81.0625 Z"
         id="path56" />
      <path
         d="m 533.96875,98.125 q 2.34375,0 4.46875,-1.3125 2.125,-1.34375 3.4375,-3.6875 v -1.65625 q -0.8125,0.71875 -1.6875,1.09375 -0.84375,0.375 -1.625,0.375 -2.09375,0 -3.5625,-1.3125 -1.4375,-1.3125 -1.4375,-3.15625 0,-1.875 1.4375,-3.1875 1.46875,-1.3125 3.5625,-1.3125 0.78125,0 1.46875,0.1875 0.6875,0.15625 1.21875,0.4375 v 2.09375 q -0.8125,-0.28125 -1.5,-0.4375 -0.6875,-0.1875 -1.1875,-0.1875 -1.21875,0 -2.09375,0.71875 -0.84375,0.6875 -0.84375,1.6875 0,1 0.84375,1.6875 0.875,0.6875 2.09375,0.6875 0.65625,0 1.5,-0.4375 0.875,-0.4375 1.8125,-1.21875 v -8.125 h -11.4375 v 4.59375 q 0,2 -1.125,3.40625 -1.09375,1.375 -2.625,1.375 -0.28125,0 -0.5625,-0.0625 -0.28125,-0.0625 -0.46875,-0.15625 1.28125,3.59375 3.5625,5.75 2.3125,2.15625 4.75,2.15625 z M 520.875,81.0625 v -1.875 H 547.5 v 1.875 h -3.53125 V 100 H 541.875 v -4.15625 q -1.375,1.9375 -3.46875,3.0625 Q 536.3125,100 533.96875,100 q -3.625,0 -6.9375,-3.8125 Q 523.75,92.34375 522.125,86.28125 l 1.65625,-0.84375 q 0.46875,1.34375 1.25,2.125 0.8125,0.78125 1.65625,0.78125 0.71875,0 1.1875,-0.78125 0.46875,-0.78125 0.46875,-1.90625 V 81.0625 Z"
         id="path58" />
      <path
         d="m 541.46875,79.1875 -7.6875,-9.15625 1.4375,-1.25 8.3125,10.40625 z"
         id="path60" />
      <path
         d="m 563.40625,95.84375 q 1.3125,0 2.21875,-1.3125 0.90625,-1.34375 0.90625,-3.28125 0,-1.78125 -0.90625,-3.0625 -0.90625,-1.28125 -2.21875,-1.28125 -1.125,0 -2.1875,1.21875 -1.0625,1.21875 -1.5625,3.125 0.75,2.09375 1.78125,3.34375 1.0625,1.25 1.96875,1.25 z M 554.0625,95.625 q 0.90625,0 1.875,-1.125 1,-1.15625 1.65625,-3.03125 -0.53125,-2.03125 -1.53125,-3.28125 -0.96875,-1.28125 -2,-1.28125 -1.46875,0 -2.5,1.34375 -1.03125,1.3125 -1.03125,3.1875 0,1.75 1.03125,2.96875 1.03125,1.21875 2.5,1.21875 z m -7.40625,-14.5625 v -1.875 h 23.78125 v 1.875 H 564.25 v 3.96875 q 1.90625,0.3125 3.125,2.09375 1.25,1.75 1.25,4.125 0,2.6875 -1.53125,4.59375 -1.5,1.875 -3.6875,1.875 -1.28125,0 -2.59375,-1.125 -1.3125,-1.125 -2.1875,-3.03125 -0.875,1.90625 -2.125,3.03125 -1.25,1.125 -2.4375,1.125 -2.34375,0 -4,-1.8125 -1.625,-1.84375 -1.625,-4.46875 0,-2.6875 1.625,-4.53125 1.65625,-1.875 4,-1.875 1.4375,0 2.6875,1.03125 1.25,1 1.875,2.6875 0.59375,-1.53125 1.53125,-2.53125 0.9375,-1 2,-1.1875 V 81.0625 Z"
         id="path62" />
      <path
         d="m 570.5625,104 1.65625,-7.28125 H 575.25 L 572.125,104 Z"
         id="path64" />
    </g>
    <g
       aria-label="जोडणी, वजाबाकी, मनाला भेट."
       id="text4">
      <path
         d="m 229.89062,147.5 q -2.25,0 -4.6875,-3 -2.4375,-3.03125 -4.25,-8.03125 l 1.875,-0.8125 q 1.59375,4.4375 3.53125,7.125 1.9375,2.65625 3.53125,2.65625 1.03125,0 1.75,-0.78125 0.75,-0.8125 0.75,-1.9375 0,-1.78125 -0.9375,-3.65625 -0.90625,-1.90625 -2.59375,-3.625 h 8.9375 v -4.375 h -17.96875 v -1.875 h 23.59375 v 1.875 h -3.53125 V 150 h -2.09375 v -12.46875 h -5 q 0.84375,1.15625 1.25,2.5 0.40625,1.3125 0.40625,2.6875 0,2 -1.34375,3.40625 -1.3125,1.375 -3.21875,1.375 z"
         id="path67" />
      <path
         d="m 242.57812,131.0625 v -1.875 h 3.375 l -7.53125,-9.15625 1.4375,-1.25 8.15625,10.40625 h 3.71875 v 1.875 h -3.5625 V 150 h -2.0625 v -18.9375 z"
         id="path69" />
      <path
         d="m 263.32812,149.59375 q -3.28125,0 -6.40625,-2.46875 -3.09375,-2.5 -5.03125,-6.6875 l 1.65625,-1.0625 q 1.75,3.71875 4.375,5.9375 2.65625,2.1875 5.40625,2.1875 1.6875,0 2.90625,-1.28125 1.25,-1.28125 1.25,-3.09375 0,-0.5 -0.3125,-0.875 -0.3125,-0.375 -0.71875,-0.375 -0.6875,0 -1.90625,0.4375 -1.1875,0.40625 -1.84375,0.40625 -1.59375,0 -3.5,-2 -1.90625,-2 -1.90625,-3.625 0,-1.125 0.78125,-1.90625 0.78125,-0.78125 1.90625,-0.78125 h 5.625 v -3.34375 h -14.71875 v -1.875 h 20.53125 v 1.875 h -3.71875 v 5.40625 h -7.71875 q -0.25,0 -0.4375,0.1875 -0.1875,0.1875 -0.1875,0.4375 0,0.875 1.25,2.21875 1.25,1.3125 2.09375,1.3125 0.65625,0 1.84375,-0.40625 1.21875,-0.40625 1.90625,-0.40625 1.28125,0 2.1875,0.96875 0.9375,0.96875 0.9375,2.34375 0,2.6875 -1.84375,4.59375 -1.84375,1.875 -4.40625,1.875 z"
         id="path71" />
      <path
         d="m 278.01562,142.9375 q 1.125,0 1.90625,-0.90625 0.78125,-0.9375 0.78125,-2.21875 v -8.75 h -5.625 v 8.75 q 0,1.28125 0.84375,2.21875 0.875,0.90625 2.09375,0.90625 z m 0,2.0625 q -2.09375,0 -3.5625,-1.5 -1.4375,-1.53125 -1.4375,-3.6875 v -8.75 h -2.40625 v -1.875 h 21.75 v 1.875 h -3.53125 V 150 h -2.09375 v -18.9375 h -3.9375 v 8.75 q 0,2.15625 -1.4375,3.6875 -1.40625,1.5 -3.34375,1.5 z"
         id="path73" />
      <path
         d="m 291.51562,131.0625 v -1.875 h 3.53125 q -0.53125,-3 -1.96875,-4.9375 -1.40625,-1.9375 -3.03125,-1.9375 -1.21875,0 -2.0625,0.8125 -0.84375,0.78125 -0.84375,1.90625 0,1 0.4375,2 0.4375,0.96875 1.21875,1.75 h -2.28125 q -0.71875,-0.71875 -1.09375,-1.6875 -0.375,-0.96875 -0.375,-2.0625 0,-1.90625 1.46875,-3.21875 1.4375,-1.34375 3.53125,-1.34375 2.40625,0 4.40625,2.46875 2,2.46875 2.65625,6.25 h 3.5625 v 1.875 h -3.5625 V 150 h -2.0625 v -18.9375 z"
         id="path75" />
      <path
         d="m 300.76562,154 1.65625,-7.28125 h 3.03125 L 302.32812,154 Z"
         id="path77" />
      <path
         d="m 320.92187,131.0625 v -1.875 h 17.8125 v 1.875 h -3.5625 V 150 h -2.0625 v -6.65625 q -0.84375,1 -2,1.5625 -1.125,0.53125 -2.375,0.53125 -2.59375,0 -4.4375,-1.65625 -1.8125,-1.65625 -1.8125,-3.96875 0,-2.34375 1.8125,-3.96875 1.84375,-1.65625 4.4375,-1.65625 0.75,0 1.4375,0.21875 0.6875,0.1875 1.28125,0.625 l -1.0625,1.65625 q -0.375,-0.28125 -0.78125,-0.4375 -0.40625,-0.1875 -0.875,-0.1875 -1.71875,0 -2.9375,1.09375 -1.21875,1.09375 -1.21875,2.65625 0,1.4375 1.21875,2.5 1.21875,1.03125 2.9375,1.03125 1.21875,0 2.375,-0.8125 1.15625,-0.84375 2,-2.3125 v -9.15625 z"
         id="path79" />
      <path
         d="m 347.95312,147.5 q -2.25,0 -4.6875,-3 -2.4375,-3.03125 -4.25,-8.03125 l 1.875,-0.8125 q 1.59375,4.4375 3.53125,7.125 1.9375,2.65625 3.53125,2.65625 1.03125,0 1.75,-0.78125 0.75,-0.8125 0.75,-1.9375 0,-1.78125 -0.9375,-3.65625 -0.90625,-1.90625 -2.59375,-3.625 h 8.9375 v -4.375 h -17.96875 v -1.875 h 23.59375 v 1.875 h -3.53125 V 150 h -2.09375 v -12.46875 h -5 q 0.84375,1.15625 1.25,2.5 0.40625,1.3125 0.40625,2.6875 0,2 -1.34375,3.40625 -1.3125,1.375 -3.21875,1.375 z"
         id="path81" />
      <path
         d="m 360.64062,131.0625 v -1.875 h 9.15625 v 1.875 h -3.5625 V 150 h -2.0625 v -18.9375 z"
         id="path83" />
      <path
         d="m 376.39062,143.34375 q 0.75,0 1.375,-0.1875 0.625,-0.21875 1.125,-0.65625 l -5.625,-4.5625 q -0.28125,0.375 -0.46875,0.90625 -0.15625,0.5 -0.15625,1.15625 0,1.375 1.09375,2.375 1.125,0.96875 2.65625,0.96875 z M 370.57812,140 q 0,-2.46875 1.8125,-4.25 1.84375,-1.78125 4.40625,-1.78125 0.8125,0 1.5,0.1875 0.6875,0.15625 1.21875,0.4375 l -0.625,1.6875 q -0.46875,-0.21875 -1,-0.3125 -0.5,-0.125 -1.09375,-0.125 -0.90625,0 -1.5625,0.25 -0.625,0.21875 -0.9375,0.59375 l 6.0625,4.5625 0.625,-0.8125 v -9.375 h -12.03125 v -1.875 h 17.625 v 1.875 h -3.53125 V 150 h -2.0625 v -6.65625 q -1,1 -2.1875,1.5625 -1.1875,0.53125 -2.40625,0.53125 -2.40625,0 -4.125,-1.59375 Q 370.57812,142.25 370.57812,140 Z"
         id="path85" />
      <path
         d="m 385.73437,131.0625 v -1.875 h 9.15625 v 1.875 h -3.5625 V 150 h -2.0625 v -18.9375 z"
         id="path87" />
      <path
         d="m 394.04687,131.0625 v -1.875 h 24.25 v 1.875 h -11 v 5.625 q 0.6875,-1.15625 1.84375,-1.8125 1.15625,-0.6875 2.53125,-0.6875 2,0 3.375,1.65625 1.40625,1.625 1.40625,3.96875 0,2 -1.03125,3.96875 -1.03125,1.9375 -2.90625,3.5 l -1.875,-1.25 q 1.75,-1.21875 2.75,-2.875 1,-1.65625 1,-3.34375 0,-1.46875 -0.8125,-2.5 -0.78125,-1.03125 -1.90625,-1.03125 -1.4375,0 -2.6875,1.09375 -1.21875,1.09375 -1.6875,2.84375 V 150 h -2.0625 v -6.25 q -0.75,0.875 -1.84375,1.375 -1.0625,0.5 -2.3125,0.5 -2.25,0 -3.84375,-1.5625 -1.5625,-1.59375 -1.5625,-3.84375 0,-2.5 1.8125,-4.25 1.84375,-1.78125 4.40625,-1.78125 0.75,0 1.28125,0.125 0.5625,0.0937 0.8125,0.28125 l -0.40625,2.09375 q -0.375,-0.21875 -0.8125,-0.3125 -0.40625,-0.0937 -0.875,-0.0937 -1.6875,0 -2.9375,1.15625 -1.21875,1.15625 -1.21875,2.78125 0,1.375 0.96875,2.375 1,0.96875 2.375,0.96875 1.1875,0 2.3125,-0.71875 1.125,-0.75 1.84375,-2 v -9.78125 z"
         id="path89" />
      <path
         d="m 417.45312,131.0625 v -1.875 h 3.53125 q -1.125,-3.0625 -3.875,-4.96875 -2.75,-1.90625 -6.125,-1.90625 -2,0 -3.375,1 -1.40625,0.96875 -1.40625,2.34375 0,1.125 0.4375,2.125 0.4375,0.96875 1.21875,1.625 h -2.28125 q -0.6875,-0.59375 -1.0625,-1.5625 -0.375,-0.96875 -0.375,-2.1875 0,-2.15625 2.03125,-3.65625 2,-1.53125 4.8125,-1.53125 4,0 7.3125,2.40625 3.34375,2.375 4.75,6.3125 h 3.5625 v 1.875 h -3.5625 V 150 h -2.0625 v -18.9375 z"
         id="path91" />
      <path
         d="m 426.70312,154 1.65625,-7.28125 h 3.03125 L 428.26562,154 Z"
         id="path93" />
      <path
         d="m 452.67187,137.9375 h 7.5 v -6.875 h -7.5 z m -5.8125,-6.875 v -1.875 h 18.9375 v 1.875 h -3.5625 V 150 h -2.0625 v -10 h -7.5 v 1.46875 q 0,0.5 -0.1875,0.875 -0.1875,0.375 -0.4375,0.375 -0.71875,0 -2.4375,-1.5625 -1.71875,-1.5625 -1.71875,-2.1875 0,-0.40625 0.3125,-0.71875 0.3125,-0.3125 0.71875,-0.3125 h 1.6875 v -6.875 z"
         id="path95" />
      <path
         d="m 465.98437,137.53125 q 0,-0.4375 0.4375,-0.75 0.4375,-0.3125 1.03125,-0.3125 h 11 v -5.40625 h -13.5 v -1.875 h 19.125 v 1.875 h -3.53125 V 150 h -2.09375 v -11.4375 h -6.03125 q -0.5,0 -0.875,0.25 -0.375,0.25 -0.375,0.5625 v 2.09375 q 0,0.5 -0.3125,0.875 -0.3125,0.375 -0.71875,0.375 -0.71875,0 -2.4375,-2.15625 -1.71875,-2.1875 -1.71875,-3.03125 z"
         id="path97" />
      <path
         d="m 483.23437,131.0625 v -1.875 h 9.15625 v 1.875 h -3.5625 V 150 h -2.0625 v -18.9375 z"
         id="path99" />
      <path
         d="m 491.54687,131.0625 v -1.875 h 23.53125 v 1.875 h -3.53125 V 150 h -2.0625 v -12.46875 q -1.8125,0 -3.375,1.625 -1.5625,1.59375 -2.25,4.1875 l -1.875,-0.625 q 0.15625,-1 0.5,-1.8125 0.34375,-0.8125 0.75,-1.3125 -0.65625,-1 -1.65625,-1.53125 -1,-0.53125 -2.09375,-0.53125 -1.71875,0 -2.9375,1.21875 -1.21875,1.21875 -1.21875,2.9375 0,1.875 1.875,3.71875 1.90625,1.8125 5,2.9375 l -0.84375,1.875 q -3.65625,-1.34375 -5.90625,-3.6875 -2.21875,-2.34375 -2.21875,-4.84375 0,-2.59375 1.8125,-4.40625 1.84375,-1.84375 4.4375,-1.84375 1.53125,0 2.90625,0.625 1.375,0.59375 2.28125,1.65625 0.9375,-1.0625 2.1875,-1.65625 1.25,-0.625 2.625,-0.625 v -4.375 z"
         id="path101" />
      <path
         d="m 514.26562,131.0625 v -1.875 h 9.15625 v 1.875 h -3.5625 V 150 h -2.0625 v -18.9375 z"
         id="path103" />
      <path
         d="m 536.57812,139.8125 q 0,-0.34375 0.28125,-0.59375 0.3125,-0.25 0.75,-0.25 h 1.65625 v -6.03125 q 0,-0.875 -0.5625,-1.46875 -0.53125,-0.625 -1.3125,-0.625 -0.78125,0 -1.34375,0.4375 -0.53125,0.4375 -0.53125,1.03125 0,0.71875 0.53125,1.1875 0.5625,0.46875 1.34375,0.46875 v 2.09375 q -1.625,0 -2.78125,-1.09375 -1.15625,-1.125 -1.15625,-2.65625 0,-1.46875 1.15625,-2.5 1.15625,-1.03125 2.78125,-1.03125 1.625,0 2.78125,1.21875 1.1875,1.21875 1.1875,2.9375 v 6.03125 h 6.84375 v -7.90625 h -5.40625 v -1.875 h 11.03125 v 1.875 h -3.53125 V 150 h -2.09375 v -8.9375 h -6.84375 v 1.65625 q 0,0.34375 -0.3125,0.59375 -0.3125,0.25 -0.75,0.25 -0.625,0 -2.1875,-1.5625 -1.53125,-1.5625 -1.53125,-2.1875 z"
         id="path105" />
      <path
         d="m 547.82812,129.1875 -7.6875,-9.15625 1.4375,-1.25 8.3125,10.40625 z"
         id="path107" />
      <path
         d="m 563.54687,149.59375 q -3.625,0 -6.1875,-2.5625 -2.5625,-2.5625 -2.5625,-6.1875 0,-2.34375 1.4375,-3.96875 1.46875,-1.65625 3.5625,-1.65625 h 5.625 v -4.15625 h -12.4375 v -1.875 h 18.5 v 1.875 h -4 v 6.25 h -7.6875 q -1.21875,0 -2.0625,1.03125 -0.84375,1.03125 -0.84375,2.5 0,2.75 1.9375,4.71875 1.96875,1.9375 4.71875,1.9375 1.75,0 3.1875,-0.78125 1.4375,-0.78125 2.21875,-2.125 l 1.65625,1.4375 q -0.9375,1.625 -2.84375,2.59375 -1.90625,0.96875 -4.21875,0.96875 z"
         id="path109" />
      <path
         d="m 573.39062,150 v -3.28125 h 2.65625 V 150 Z"
         id="path111" />
    </g>
    <g
       aria-label="गुणाकाराचा सरळ मार्ग दाखवेल,"
       id="text6">
      <path
         d="m 219.54687,181.0625 v -1.875 h 17 v 1.875 h -3.53125 V 200 h -2.0625 v -18.9375 h -5.21875 V 191.25 q 0,0.5 -0.3125,0.875 -0.3125,0.375 -0.71875,0.375 -0.78125,0 -2.46875,-1.9375 -1.6875,-1.96875 -1.6875,-2.84375 0,-0.3125 0.25,-0.5625 0.25,-0.25 0.5625,-0.25 h 1.46875 q 0.34375,0 0.59375,-0.3125 0.25,-0.3125 0.25,-0.75 v -4.78125 z"
         id="path114" />
      <path
         d="m 229.85937,208.53125 q -2.25,0 -4.6875,-1.09375 -2.46875,-1.0625 -4.875,-3.0625 l 1.46875,-1.875 q 2.28125,1.90625 4.375,2.90625 2.0625,1.03125 3.71875,1.03125 1.8125,0 3.09375,-0.90625 1.28125,-0.90625 1.28125,-2.1875 0,-1.0625 -0.65625,-1.78125 -0.6875,-0.71875 -1.625,-0.71875 -1,0 -1.875,0.375 -0.875,0.375 -1.46875,1.0625 l -1.4375,-1.4375 q 0.8125,-1 2.0625,-1.53125 1.25,-0.5625 2.71875,-0.5625 1.78125,0 3.09375,1.3125 1.28125,1.34375 1.28125,3.28125 0,2.15625 -1.90625,3.65625 -1.90625,1.53125 -4.5625,1.53125 z"
         id="path116" />
      <path
         d="m 243.10937,192.9375 q 1.125,0 1.90625,-0.90625 0.78125,-0.9375 0.78125,-2.21875 v -8.75 h -5.625 v 8.75 q 0,1.28125 0.84375,2.21875 0.875,0.90625 2.09375,0.90625 z m 0,2.0625 q -2.09375,0 -3.5625,-1.5 -1.4375,-1.53125 -1.4375,-3.6875 v -8.75 h -2.40625 v -1.875 h 21.75 v 1.875 h -3.53125 V 200 h -2.09375 v -18.9375 h -3.9375 v 8.75 q 0,2.15625 -1.4375,3.6875 -1.40625,1.5 -3.34375,1.5 z"
         id="path118" />
      <path
         d="m 256.60937,181.0625 v -1.875 h 9.15625 v 1.875 h -3.5625 V 200 h -2.0625 v -18.9375 z"
         id="path120" />
      <path
         d="m 264.92187,181.0625 v -1.875 h 24.25 v 1.875 h -11 v 5.625 q 0.6875,-1.15625 1.84375,-1.8125 1.15625,-0.6875 2.53125,-0.6875 2,0 3.375,1.65625 1.40625,1.625 1.40625,3.96875 0,2 -1.03125,3.96875 -1.03125,1.9375 -2.90625,3.5 l -1.875,-1.25 q 1.75,-1.21875 2.75,-2.875 1,-1.65625 1,-3.34375 0,-1.46875 -0.8125,-2.5 -0.78125,-1.03125 -1.90625,-1.03125 -1.4375,0 -2.6875,1.09375 -1.21875,1.09375 -1.6875,2.84375 V 200 h -2.0625 v -6.25 q -0.75,0.875 -1.84375,1.375 -1.0625,0.5 -2.3125,0.5 -2.25,0 -3.84375,-1.5625 -1.5625,-1.59375 -1.5625,-3.84375 0,-2.5 1.8125,-4.25 1.84375,-1.78125 4.40625,-1.78125 0.75,0 1.28125,0.125 0.5625,0.0937 0.8125,0.28125 l -0.40625,2.09375 q -0.375,-0.21875 -0.8125,-0.3125 -0.40625,-0.0937 -0.875,-0.0937 -1.6875,0 -2.9375,1.15625 -1.21875,1.15625 -1.21875,2.78125 0,1.375 0.96875,2.375 1,0.96875 2.375,0.96875 1.1875,0 2.3125,-0.71875 1.125,-0.75 1.84375,-2 v -9.78125 z"
         id="path122" />
      <path
         d="m 288.32812,181.0625 v -1.875 h 9.15625 v 1.875 h -3.5625 V 200 h -2.0625 v -18.9375 z"
         id="path124" />
      <path
         d="m 296.64062,181.0625 v -1.875 h 14.46875 v 1.875 h -2.8125 v 4.78125 q 0,1.9375 -1.3125,3.28125 -1.28125,1.3125 -3.0625,1.3125 -0.25,0 -0.6875,-0.0937 -0.40625,-0.125 -1,-0.34375 1.34375,2.34375 3.15625,4.5 1.84375,2.125 4.125,4.03125 L 308.29687,200 q -3.34375,-2.78125 -6.03125,-6.3125 -2.6875,-3.5625 -4.59375,-7.625 l 1.875,-1.03125 q 0.53125,1.5 1.71875,2.40625 1.21875,0.90625 2.65625,0.90625 0.9375,0 1.59375,-0.71875 0.6875,-0.71875 0.6875,-1.78125 v -4.78125 z"
         id="path126" />
      <path
         d="m 310.26562,181.0625 v -1.875 h 9.15625 v 1.875 h -3.5625 V 200 h -2.0625 v -18.9375 z"
         id="path128" />
      <path
         d="m 318.57812,181.0625 v -1.875 h 20.75 v 1.875 h -3.53125 V 200 h -2.09375 v -7.5 q -1.25,1.75 -2.71875,2.75 -1.46875,1 -2.875,1 -2.09375,0 -3.5625,-1.4375 -1.4375,-1.46875 -1.4375,-3.5625 0,-1.5 0.59375,-2.71875 0.59375,-1.21875 1.6875,-1.84375 h -6.03125 v -2.09375 h 12.28125 v 2.09375 h -2.90625 q -1.59375,0.59375 -2.59375,1.84375 -0.96875,1.21875 -0.96875,2.71875 0,1.21875 0.84375,2.09375 0.875,0.84375 2.09375,0.84375 1.3125,0 2.8125,-1.28125 1.5,-1.3125 2.78125,-3.53125 v -8.3125 z"
         id="path130" />
      <path
         d="m 338.48437,181.0625 v -1.875 h 9.15625 v 1.875 h -3.5625 V 200 h -2.0625 v -18.9375 z"
         id="path132" />
      <path
         d="m 356.67187,181.0625 v -1.875 h 23 v 1.875 h -3.53125 V 200 h -2.09375 v -10 h -8.875 q -0.84375,0.625 -1.9375,0.625 -0.25,0 -0.5,-0.0625 -0.21875,-0.0625 -0.34375,-0.125 l 6.25,8.71875 -1.65625,1.0625 -9.375,-13.3125 1.6875,-1.25 q 0.65625,1.40625 1.53125,2.25 0.90625,0.84375 1.78125,0.84375 0.875,0 1.46875,-0.59375 0.625,-0.59375 0.625,-1.46875 v -5.625 z m 9.90625,6.875 h 7.46875 v -6.875 h -7.28125 v 5.625 q 0,0.65625 -0.1875,1.25 z"
         id="path134" />
      <path
         d="m 378.82812,181.0625 v -1.875 h 14.46875 v 1.875 h -2.8125 v 4.78125 q 0,1.9375 -1.3125,3.28125 -1.28125,1.3125 -3.0625,1.3125 -0.25,0 -0.6875,-0.0937 -0.40625,-0.125 -1,-0.34375 1.34375,2.34375 3.15625,4.5 1.84375,2.125 4.125,4.03125 L 390.48437,200 q -3.34375,-2.78125 -6.03125,-6.3125 -2.6875,-3.5625 -4.59375,-7.625 l 1.875,-1.03125 q 0.53125,1.5 1.71875,2.40625 1.21875,0.90625 2.65625,0.90625 0.9375,0 1.59375,-0.71875 0.6875,-0.71875 0.6875,-1.78125 v -4.78125 z"
         id="path136" />
      <path
         d="m 409.20312,195.84375 q 1.3125,0 2.21875,-1.3125 0.90625,-1.34375 0.90625,-3.28125 0,-1.78125 -0.90625,-3.0625 -0.90625,-1.28125 -2.21875,-1.28125 -1.125,0 -2.1875,1.21875 -1.0625,1.21875 -1.5625,3.125 0.75,2.09375 1.78125,3.34375 1.0625,1.25 1.96875,1.25 z m -9.34375,-0.21875 q 0.90625,0 1.875,-1.125 1,-1.15625 1.65625,-3.03125 -0.53125,-2.03125 -1.53125,-3.28125 -0.96875,-1.28125 -2,-1.28125 -1.46875,0 -2.5,1.34375 -1.03125,1.3125 -1.03125,3.1875 0,1.75 1.03125,2.96875 1.03125,1.21875 2.5,1.21875 z m -7.40625,-14.5625 v -1.875 h 23.78125 v 1.875 h -6.1875 v 3.96875 q 1.90625,0.3125 3.125,2.09375 1.25,1.75 1.25,4.125 0,2.6875 -1.53125,4.59375 -1.5,1.875 -3.6875,1.875 -1.28125,0 -2.59375,-1.125 -1.3125,-1.125 -2.1875,-3.03125 -0.875,1.90625 -2.125,3.03125 -1.25,1.125 -2.4375,1.125 -2.34375,0 -4,-1.8125 -1.625,-1.84375 -1.625,-4.46875 0,-2.6875 1.625,-4.53125 1.65625,-1.875 4,-1.875 1.4375,0 2.6875,1.03125 1.25,1 1.875,2.6875 0.59375,-1.53125 1.53125,-2.53125 0.9375,-1 2,-1.1875 v -3.96875 z"
         id="path138" />
      <path
         d="m 431.10937,187.9375 h 7.5 v -6.875 h -7.5 z m -5.8125,-6.875 v -1.875 h 18.9375 v 1.875 h -3.5625 V 200 h -2.0625 v -10 h -7.5 v 1.46875 q 0,0.5 -0.1875,0.875 -0.1875,0.375 -0.4375,0.375 -0.71875,0 -2.4375,-1.5625 -1.71875,-1.5625 -1.71875,-2.1875 0,-0.40625 0.3125,-0.71875 0.3125,-0.3125 0.71875,-0.3125 h 1.6875 v -6.875 z"
         id="path140" />
      <path
         d="m 443.39062,181.0625 v -1.875 h 9.15625 v 1.875 h -3.5625 V 200 h -2.0625 v -18.9375 z"
         id="path142" />
      <path
         d="m 451.70312,181.0625 v -1.875 h 17 v 1.875 h -3.53125 V 200 h -2.0625 v -18.9375 h -5.21875 V 191.25 q 0,0.5 -0.3125,0.875 -0.3125,0.375 -0.71875,0.375 -0.78125,0 -2.46875,-1.9375 -1.6875,-1.96875 -1.6875,-2.84375 0,-0.3125 0.25,-0.5625 0.25,-0.25 0.5625,-0.25 h 1.46875 q 0.34375,0 0.59375,-0.3125 0.25,-0.3125 0.25,-0.75 v -4.78125 z"
         id="path144" />
      <path
         d="m 462.39062,179.1875 q -1.0625,-0.90625 -1.65625,-1.96875 -0.625,-1.09375 -0.625,-2.1875 0,-1.90625 1.46875,-3.21875 1.4375,-1.34375 3.53125,-1.34375 0.5625,0 1.125,0.0937 0.5625,0.0937 1.15625,0.3125 v 1.875 q -0.875,-0.34375 -1.4375,-0.46875 -0.5625,-0.15625 -0.84375,-0.15625 -1.21875,0 -2.0625,0.84375 -0.84375,0.84375 -0.84375,2.0625 0,1.15625 0.78125,2.28125 0.78125,1.09375 2.125,1.875 z"
         id="path146" />
      <path
         d="m 477.48437,181.0625 v -1.875 h 18 v 1.875 h -3.3125 v 5.40625 h -8.125 q -1.21875,0 -2.0625,0.875 -0.84375,0.84375 -0.84375,2.03125 0,2.25 2.375,3.84375 2.375,1.59375 5.75,1.59375 0,-1.46875 0.65625,-2.5 0.65625,-1.0625 1.625,-1.0625 0.6875,0 1.15625,0.5 0.5,0.46875 0.5,1.1875 0,0.8125 -0.5,1.65625 -0.5,0.84375 -1.375,1.4375 l 2.28125,3.96875 -1.875,0.84375 -2.28125,-4.1875 q -4.3125,0 -7.375,-2.125 -3.03125,-2.15625 -3.03125,-5.15625 0,-2.0625 1.4375,-3.5 1.46875,-1.46875 3.5625,-1.46875 h 6.03125 v -3.34375 z"
         id="path148" />
      <path
         d="m 494.64062,181.0625 v -1.875 h 9.15625 v 1.875 h -3.5625 V 200 h -2.0625 v -18.9375 z"
         id="path150" />
      <path
         d="m 516.04687,198.125 q 2.34375,0 4.46875,-1.3125 2.125,-1.34375 3.4375,-3.6875 v -1.65625 q -0.8125,0.71875 -1.6875,1.09375 -0.84375,0.375 -1.625,0.375 -2.09375,0 -3.5625,-1.3125 -1.4375,-1.3125 -1.4375,-3.15625 0,-1.875 1.4375,-3.1875 1.46875,-1.3125 3.5625,-1.3125 0.78125,0 1.46875,0.1875 0.6875,0.15625 1.21875,0.4375 v 2.09375 q -0.8125,-0.28125 -1.5,-0.4375 -0.6875,-0.1875 -1.1875,-0.1875 -1.21875,0 -2.09375,0.71875 -0.84375,0.6875 -0.84375,1.6875 0,1 0.84375,1.6875 0.875,0.6875 2.09375,0.6875 0.65625,0 1.5,-0.4375 0.875,-0.4375 1.8125,-1.21875 v -8.125 h -11.4375 v 4.59375 q 0,2 -1.125,3.40625 -1.09375,1.375 -2.625,1.375 -0.28125,0 -0.5625,-0.0625 -0.28125,-0.0625 -0.46875,-0.15625 1.28125,3.59375 3.5625,5.75 2.3125,2.15625 4.75,2.15625 z m -13.09375,-17.0625 v -1.875 h 26.625 v 1.875 h -3.53125 V 200 h -2.09375 v -4.15625 q -1.375,1.9375 -3.46875,3.0625 Q 518.39062,200 516.04687,200 q -3.625,0 -6.9375,-3.8125 -3.28125,-3.84375 -4.90625,-9.90625 l 1.65625,-0.84375 q 0.46875,1.34375 1.25,2.125 0.8125,0.78125 1.65625,0.78125 0.71875,0 1.1875,-0.78125 0.46875,-0.78125 0.46875,-1.90625 v -4.59375 z"
         id="path152" />
      <path
         d="m 528.73437,181.0625 v -1.875 h 17.8125 v 1.875 h -3.5625 V 200 h -2.0625 v -6.65625 q -0.84375,1 -2,1.5625 -1.125,0.53125 -2.375,0.53125 -2.59375,0 -4.4375,-1.65625 -1.8125,-1.65625 -1.8125,-3.96875 0,-2.34375 1.8125,-3.96875 1.84375,-1.65625 4.4375,-1.65625 0.75,0 1.4375,0.21875 0.6875,0.1875 1.28125,0.625 l -1.0625,1.65625 q -0.375,-0.28125 -0.78125,-0.4375 -0.40625,-0.1875 -0.875,-0.1875 -1.71875,0 -2.9375,1.09375 -1.21875,1.09375 -1.21875,2.65625 0,1.4375 1.21875,2.5 1.21875,1.03125 2.9375,1.03125 1.21875,0 2.375,-0.8125 1.15625,-0.84375 2,-2.3125 v -9.15625 z"
         id="path154" />
      <path
         d="M 540.48437,179.15625 532.79687,170 l 1.4375,-1.25 8.3125,10.40625 z"
         id="path156" />
      <path
         d="m 545.70312,181.0625 v -1.875 h 23.53125 v 1.875 h -3.53125 V 200 h -2.0625 v -12.46875 q -1.8125,0 -3.375,1.625 -1.5625,1.59375 -2.25,4.1875 l -1.875,-0.625 q 0.15625,-1 0.5,-1.8125 0.34375,-0.8125 0.75,-1.3125 -0.65625,-1 -1.65625,-1.53125 -1,-0.53125 -2.09375,-0.53125 -1.71875,0 -2.9375,1.21875 -1.21875,1.21875 -1.21875,2.9375 0,1.875 1.875,3.71875 1.90625,1.8125 5,2.9375 l -0.84375,1.875 q -3.65625,-1.34375 -5.90625,-3.6875 -2.21875,-2.34375 -2.21875,-4.84375 0,-2.59375 1.8125,-4.40625 1.84375,-1.84375 4.4375,-1.84375 1.53125,0 2.90625,0.625 1.375,0.59375 2.28125,1.65625 0.9375,-1.0625 2.1875,-1.65625 1.25,-0.625 2.625,-0.625 v -4.375 z"
         id="path158" />
      <path
         d="m 569.35937,204 1.65625,-7.28125 h 3.03125 L 570.92187,204 Z"
         id="path160" />
    </g>
    <g
       aria-label="भागाहाराचा गूढ रस्ता तपवेल."
       id="text8">
      <path
         d="m 236.9375,239.8125 q 0,-0.34375 0.28125,-0.59375 0.3125,-0.25 0.75,-0.25 h 1.65625 v -6.03125 q 0,-0.875 -0.5625,-1.46875 -0.53125,-0.625 -1.3125,-0.625 -0.78125,0 -1.34375,0.4375 -0.53125,0.4375 -0.53125,1.03125 0,0.71875 0.53125,1.1875 0.5625,0.46875 1.34375,0.46875 v 2.09375 q -1.625,0 -2.78125,-1.09375 -1.15625,-1.125 -1.15625,-2.65625 0,-1.46875 1.15625,-2.5 1.15625,-1.03125 2.78125,-1.03125 1.625,0 2.78125,1.21875 1.1875,1.21875 1.1875,2.9375 v 6.03125 h 6.84375 v -7.90625 h -5.40625 v -1.875 h 11.03125 v 1.875 h -3.53125 V 250 h -2.09375 v -8.9375 h -6.84375 v 1.65625 q 0,0.34375 -0.3125,0.59375 -0.3125,0.25 -0.75,0.25 -0.625,0 -2.1875,-1.5625 -1.53125,-1.5625 -1.53125,-2.1875 z"
         id="path163" />
      <path
         d="m 253.34375,231.0625 v -1.875 H 262.5 v 1.875 h -3.5625 V 250 h -2.0625 v -18.9375 z"
         id="path165" />
      <path
         d="m 261.65625,231.0625 v -1.875 h 17 v 1.875 H 275.125 V 250 h -2.0625 v -18.9375 h -5.21875 V 241.25 q 0,0.5 -0.3125,0.875 -0.3125,0.375 -0.71875,0.375 -0.78125,0 -2.46875,-1.9375 -1.6875,-1.96875 -1.6875,-2.84375 0,-0.3125 0.25,-0.5625 0.25,-0.25 0.5625,-0.25 h 1.46875 q 0.34375,0 0.59375,-0.3125 0.25,-0.3125 0.25,-0.75 v -4.78125 z"
         id="path167" />
      <path
         d="m 277.8125,231.0625 v -1.875 h 9.15625 v 1.875 h -3.5625 V 250 h -2.0625 v -18.9375 z"
         id="path169" />
      <path
         d="m 286.125,231.0625 v -1.875 h 17.3125 v 1.875 h -3.34375 v 5 h -8.53125 q -0.40625,0 -0.71875,0.1875 -0.3125,0.1875 -0.3125,0.4375 0,0.84375 0.625,1.625 0.625,0.78125 1.65625,1.28125 0.65625,-0.28125 1.4375,-0.4375 0.8125,-0.1875 1.6875,-0.1875 2.34375,0 3.96875,1.34375 1.65625,1.3125 1.65625,3.25 0,1.0625 -0.4375,1.96875 -0.4375,0.875 -1.25,1.34375 l -1.65625,-1.4375 q 0.59375,-0.34375 0.90625,-0.84375 0.34375,-0.5 0.34375,-1.03125 0,-1.0625 -1.03125,-1.78125 -1.03125,-0.71875 -2.5,-0.71875 -2.25,0 -3.84375,1.03125 -1.5625,1.03125 -1.5625,2.5 0,1.90625 2.6875,3.25 2.6875,1.3125 6.46875,1.3125 l -0.4375,1.875 q -4.46875,0 -7.65625,-1.875 -3.15625,-1.90625 -3.15625,-4.5625 0,-1.21875 0.59375,-2.28125 0.625,-1.0625 1.6875,-1.6875 -1.0625,-0.90625 -1.6875,-1.9375 -0.59375,-1.03125 -0.59375,-2 0,-1.125 0.90625,-1.90625 0.9375,-0.8125 2.21875,-0.8125 h 6.46875 v -2.90625 z"
         id="path171" />
      <path
         d="m 302.59375,231.0625 v -1.875 H 311.75 v 1.875 h -3.5625 V 250 h -2.0625 v -18.9375 z"
         id="path173" />
      <path
         d="m 310.90625,231.0625 v -1.875 H 325.375 v 1.875 h -2.8125 v 4.78125 q 0,1.9375 -1.3125,3.28125 -1.28125,1.3125 -3.0625,1.3125 -0.25,0 -0.6875,-0.0937 -0.40625,-0.125 -1,-0.34375 1.34375,2.34375 3.15625,4.5 1.84375,2.125 4.125,4.03125 L 322.5625,250 q -3.34375,-2.78125 -6.03125,-6.3125 -2.6875,-3.5625 -4.59375,-7.625 l 1.875,-1.03125 q 0.53125,1.5 1.71875,2.40625 1.21875,0.90625 2.65625,0.90625 0.9375,0 1.59375,-0.71875 0.6875,-0.71875 0.6875,-1.78125 v -4.78125 z"
         id="path175" />
      <path
         d="m 324.53125,231.0625 v -1.875 h 9.15625 v 1.875 H 330.125 V 250 h -2.0625 v -18.9375 z"
         id="path177" />
      <path
         d="m 332.84375,231.0625 v -1.875 h 20.75 v 1.875 H 350.0625 V 250 h -2.09375 v -7.5 q -1.25,1.75 -2.71875,2.75 -1.46875,1 -2.875,1 -2.09375,0 -3.5625,-1.4375 -1.4375,-1.46875 -1.4375,-3.5625 0,-1.5 0.59375,-2.71875 0.59375,-1.21875 1.6875,-1.84375 H 333.625 v -2.09375 h 12.28125 v 2.09375 H 343 q -1.59375,0.59375 -2.59375,1.84375 -0.96875,1.21875 -0.96875,2.71875 0,1.21875 0.84375,2.09375 0.875,0.84375 2.09375,0.84375 1.3125,0 2.8125,-1.28125 1.5,-1.3125 2.78125,-3.53125 v -8.3125 z"
         id="path179" />
      <path
         d="m 352.75,231.0625 v -1.875 h 9.15625 v 1.875 h -3.5625 V 250 h -2.0625 v -18.9375 z"
         id="path181" />
      <path
         d="m 370.9375,231.0625 v -1.875 h 17 v 1.875 h -3.53125 V 250 h -2.0625 V 231.0625 H 377.125 V 241.25 q 0,0.5 -0.3125,0.875 -0.3125,0.375 -0.71875,0.375 -0.78125,0 -2.46875,-1.9375 -1.6875,-1.96875 -1.6875,-2.84375 0,-0.3125 0.25,-0.5625 0.25,-0.25 0.5625,-0.25 h 1.46875 q 0.34375,0 0.59375,-0.3125 0.25,-0.3125 0.25,-0.75 v -4.78125 z"
         id="path183" />
      <path
         d="m 382.71875,257.90625 q -1.78125,0 -3.0625,-1.3125 -1.3125,-1.28125 -1.3125,-3.0625 0,-2.0625 1.53125,-3.53125 1.5,-1.46875 3.65625,-1.46875 2.71875,0 5.21875,2.34375 2.53125,2.375 3.9375,6.1875 l -1.84375,0.84375 Q 389.625,254.625 387.625,252.625 q -2,-2 -4.09375,-2 -1.28125,0 -2.1875,0.84375 -0.90625,0.875 -0.90625,2.0625 0,0.96875 0.65625,1.625 0.65625,0.65625 1.625,0.65625 0.5,0 1.09375,-0.28125 0.59375,-0.25 1.1875,-0.75 l 1.03125,1.875 q -0.875,0.625 -1.71875,0.9375 -0.84375,0.3125 -1.59375,0.3125 z"
         id="path185" />
      <path
         d="m 399.84375,247.5 q 1.09375,-0.21875 1.78125,-1.0625 0.71875,-0.875 0.71875,-2.0625 0,-0.875 -0.59375,-1.46875 -0.59375,-0.59375 -1.46875,-0.59375 -0.78125,0 -1.34375,0.53125 -0.53125,0.53125 -0.53125,1.34375 0,1 0.375,1.875 0.375,0.84375 1.0625,1.4375 z m -12.75,-16.4375 v -1.875 h 18.9375 v 1.875 h -4.3125 v 6.25 H 393.625 q -1.125,0 -1.9375,0.96875 -0.78125,0.96875 -0.78125,2.34375 0,2.4375 2.15625,4.65625 2.1875,2.21875 4.71875,2.4375 -0.71875,-0.59375 -1.09375,-1.53125 -0.375,-0.9375 -0.375,-2 0,-1.625 1.15625,-2.78125 1.1875,-1.1875 2.8125,-1.1875 1.6875,0 2.90625,1.25 1.25,1.21875 1.25,2.90625 0,2.15625 -1.96875,3.6875 -1.9375,1.53125 -4.6875,1.53125 -3.34375,0 -6.15625,-2.8125 -2.78125,-2.8125 -2.78125,-6.15625 0,-2.25 1.375,-3.8125 1.40625,-1.59375 3.40625,-1.59375 h 6.03125 v -4.15625 z"
         id="path187" />
      <path
         d="m 415.0625,231.0625 v -1.875 h 14.46875 v 1.875 h -2.8125 v 4.78125 q 0,1.9375 -1.3125,3.28125 -1.28125,1.3125 -3.0625,1.3125 -0.25,0 -0.6875,-0.0937 -0.40625,-0.125 -1,-0.34375 1.34375,2.34375 3.15625,4.5 1.84375,2.125 4.125,4.03125 L 426.71875,250 q -3.34375,-2.78125 -6.03125,-6.3125 -2.6875,-3.5625 -4.59375,-7.625 l 1.875,-1.03125 q 0.53125,1.5 1.71875,2.40625 1.21875,0.90625 2.65625,0.90625 0.9375,0 1.59375,-0.71875 0.6875,-0.71875 0.6875,-1.78125 v -4.78125 z"
         id="path189" />
      <path
         d="m 428.6875,231.0625 v -1.875 h 17.1875 v 1.875 H 439 v 5.375 q 0,0.8125 -0.125,1.5 h 7.40625 v 1.875 H 438 q -0.625,0.75 -1.375,0.9375 -1.46875,0.3125 -1.78125,-0.125 l 5.625,8.34375 L 439,250 l -9.375,-13.53125 1.6875,-1.25 q 0.9375,1.625 1.875,2.59375 0.9375,0.9375 1.71875,0.9375 0.8125,0 1.40625,-0.59375 0.59375,-0.59375 0.59375,-1.46875 v -5.625 z"
         id="path191" />
      <path
         d="m 446.78125,239.8125 q 0,-2 1.28125,-3.375 1.28125,-1.40625 3.0625,-1.40625 h 8.125 v -3.96875 h -14.21875 v -1.875 H 464.875 v 1.875 h -3.53125 V 250 H 459.25 v -12.90625 h -8.125 q -0.9375,0 -1.625,0.8125 -0.65625,0.78125 -0.65625,1.90625 0,2 1.40625,4.28125 1.4375,2.28125 4,4.4375 L 453,250 q -2.9375,-2.5 -4.59375,-5.15625 -1.625,-2.65625 -1.625,-5.03125 z"
         id="path193" />
      <path
         d="m 464.03125,231.0625 v -1.875 h 9.15625 v 1.875 H 469.625 V 250 h -2.0625 v -18.9375 z"
         id="path195" />
      <path
         d="m 483.96875,239.8125 q 0,-2 1.28125,-3.375 1.28125,-1.40625 3.0625,-1.40625 h 8.125 v -3.96875 h -14.21875 v -1.875 h 19.84375 v 1.875 h -3.53125 V 250 h -2.09375 v -12.90625 h -8.125 q -0.9375,0 -1.625,0.8125 -0.65625,0.78125 -0.65625,1.90625 0,2 1.40625,4.28125 1.4375,2.28125 4,4.4375 L 490.1875,250 q -2.9375,-2.5 -4.59375,-5.15625 -1.625,-2.65625 -1.625,-5.03125 z"
         id="path197" />
      <path
         d="m 509.03125,241.875 q 1.28125,0 2.40625,-0.78125 1.125,-0.78125 1.75,-2.125 V 231.0625 H 505.5 v 7.5 q 0,1.375 1.03125,2.34375 1.03125,0.96875 2.5,0.96875 z m -5.625,-3.3125 v -7.5 h -2.1875 v -1.875 h 17.59375 v 1.875 h -3.53125 V 250 h -2.09375 v -7.90625 q -0.90625,0.90625 -2,1.40625 -1.0625,0.46875 -2.15625,0.46875 -2.34375,0 -4,-1.5625 -1.625,-1.59375 -1.625,-3.84375 z"
         id="path199" />
      <path
         d="m 517.96875,231.0625 v -1.875 h 17.8125 v 1.875 h -3.5625 V 250 h -2.0625 v -6.65625 q -0.84375,1 -2,1.5625 -1.125,0.53125 -2.375,0.53125 -2.59375,0 -4.4375,-1.65625 -1.8125,-1.65625 -1.8125,-3.96875 0,-2.34375 1.8125,-3.96875 1.84375,-1.65625 4.4375,-1.65625 0.75,0 1.4375,0.21875 0.6875,0.1875 1.28125,0.625 l -1.0625,1.65625 q -0.375,-0.28125 -0.78125,-0.4375 -0.40625,-0.1875 -0.875,-0.1875 -1.71875,0 -2.9375,1.09375 -1.21875,1.09375 -1.21875,2.65625 0,1.4375 1.21875,2.5 1.21875,1.03125 2.9375,1.03125 1.21875,0 2.375,-0.8125 1.15625,-0.84375 2,-2.3125 v -9.15625 z"
         id="path201" />
      <path
         d="M 529.71875,229.15625 522.03125,220 l 1.4375,-1.25 8.3125,10.40625 z"
         id="path203" />
      <path
         d="m 534.9375,231.0625 v -1.875 h 23.53125 v 1.875 H 554.9375 V 250 h -2.0625 v -12.46875 q -1.8125,0 -3.375,1.625 -1.5625,1.59375 -2.25,4.1875 l -1.875,-0.625 q 0.15625,-1 0.5,-1.8125 0.34375,-0.8125 0.75,-1.3125 -0.65625,-1 -1.65625,-1.53125 -1,-0.53125 -2.09375,-0.53125 -1.71875,0 -2.9375,1.21875 -1.21875,1.21875 -1.21875,2.9375 0,1.875 1.875,3.71875 1.90625,1.8125 5,2.9375 l -0.84375,1.875 q -3.65625,-1.34375 -5.90625,-3.6875 -2.21875,-2.34375 -2.21875,-4.84375 0,-2.59375 1.8125,-4.40625 1.84375,-1.84375 4.4375,-1.84375 1.53125,0 2.90625,0.625 1.375,0.59375 2.28125,1.65625 0.9375,-1.0625 2.1875,-1.65625 1.25,-0.625 2.625,-0.625 v -4.375 z"
         id="path205" />
      <path
         d="m 560.40625,250 v -3.28125 h 2.65625 V 250 Z"
         id="path207" />
    </g>
  </g>
</svg>
