<?xml version="1.0" encoding="UTF-8" standalone="no"?>
<svg
   width="800"
   height="350"
   version="1.1"
   id="svg12"
   sodipodi:docname="manalihindi.svg"
   xmlns:inkscape="http://www.inkscape.org/namespaces/inkscape"
   xmlns:sodipodi="http://sodipodi.sourceforge.net/DTD/sodipodi-0.dtd"
   xmlns="http://www.w3.org/2000/svg"
   xmlns:svg="http://www.w3.org/2000/svg">
  <defs
     id="defs16" />
  <sodipodi:namedview
     id="namedview14"
     pagecolor="#ffffff"
     bordercolor="#000000"
     borderopacity="0.25"
     inkscape:showpageshadow="2"
     inkscape:pageopacity="0.0"
     inkscape:pagecheckerboard="0"
     inkscape:deskcolor="#d1d1d1" />
  <g
     font-family="Lohit Devanagari"
     font-size="32"
     text-anchor="middle"
     fill="#000"
     id="g10">
    <g
       aria-label="मनालीच्या डोंगराला स्पर्श करूनी,"
       id="text2">
      <path
         d="m 213.625,87.9375 h 7.5 v -6.875 h -7.5 z m -5.8125,-6.875 v -1.875 H 226.75 v 1.875 h -3.5625 V 100 H 221.125 V 90 h -7.5 v 1.46875 q 0,0.5 -0.1875,0.875 -0.1875,0.375 -0.4375,0.375 -0.71875,0 -2.4375,-1.5625 -1.71875,-1.5625 -1.71875,-2.1875 0,-0.40625 0.3125,-0.71875 0.3125,-0.3125 0.71875,-0.3125 h 1.6875 v -6.875 z"
         id="path18" />
      <path
         d="m 226.9375,87.53125 q 0,-0.4375 0.4375,-0.75 0.4375,-0.3125 1.03125,-0.3125 h 11 V 81.0625 h -13.5 v -1.875 h 19.125 v 1.875 H 241.5 V 100 h -2.09375 V 88.5625 H 233.375 q -0.5,0 -0.875,0.25 -0.375,0.25 -0.375,0.5625 v 2.09375 q 0,0.5 -0.3125,0.875 -0.3125,0.375 -0.71875,0.375 -0.71875,0 -2.4375,-2.15625 -1.71875,-2.1875 -1.71875,-3.03125 z"
         id="path20" />
      <path
         d="m 244.1875,81.0625 v -1.875 h 9.15625 v 1.875 h -3.5625 V 100 h -2.0625 V 81.0625 Z"
         id="path22" />
      <path
         d="m 252.5,81.0625 v -1.875 h 23.53125 v 1.875 H 272.5 V 100 h -2.0625 V 87.53125 q -1.8125,0 -3.375,1.625 -1.5625,1.59375 -2.25,4.1875 l -1.875,-0.625 q 0.15625,-1 0.5,-1.8125 0.34375,-0.8125 0.75,-1.3125 -0.65625,-1 -1.65625,-1.53125 -1,-0.53125 -2.09375,-0.53125 -1.71875,0 -2.9375,1.21875 -1.21875,1.21875 -1.21875,2.9375 0,1.875 1.875,3.71875 1.90625,1.8125 5,2.9375 l -0.84375,1.875 q -3.65625,-1.34375 -5.90625,-3.6875 -2.21875,-2.34375 -2.21875,-4.84375 0,-2.59375 1.8125,-4.40625 1.84375,-1.84375 4.4375,-1.84375 1.53125,0 2.90625,0.625 1.375,0.59375 2.28125,1.65625 0.9375,-1.0625 2.1875,-1.65625 1.25,-0.625 2.625,-0.625 v -4.375 z"
         id="path24" />
      <path
         d="m 275.21875,81.0625 v -1.875 H 278.75 q -0.53125,-3 -1.96875,-4.9375 -1.40625,-1.9375 -3.03125,-1.9375 -1.21875,0 -2.0625,0.8125 -0.84375,0.78125 -0.84375,1.90625 0,1 0.4375,2 0.4375,0.96875 1.21875,1.75 h -2.28125 Q 269.5,78.0625 269.125,77.09375 268.75,76.125 268.75,75.03125 q 0,-1.90625 1.46875,-3.21875 1.4375,-1.34375 3.53125,-1.34375 2.40625,0 4.40625,2.46875 2,2.46875 2.65625,6.25 h 3.5625 v 1.875 h -3.5625 V 100 H 278.75 V 81.0625 Z"
         id="path26" />
      <path
         d="m 283.53125,81.0625 v -1.875 h 15.75 v 1.875 z M 293.0625,96.25 q -2.09375,0 -3.5625,-1.4375 -1.4375,-1.46875 -1.4375,-3.5625 0,-1.40625 0.59375,-2.59375 0.59375,-1.21875 1.6875,-1.96875 h -6.03125 v -2.09375 h 12.0625 v 2.09375 h -2.5 q -1.6875,0.78125 -2.71875,2.03125 -1.03125,1.25 -1.03125,2.53125 0,1.21875 0.84375,2.09375 0.875,0.84375 2.09375,0.84375 1.40625,0 3.1875,-1.65625 1.78125,-1.6875 3.46875,-4.59375 V 91.25 q -1.625,2.34375 -3.40625,3.6875 -1.75,1.3125 -3.25,1.3125 z"
         id="path28" />
      <path
         d="m 306.90625,93.96875 q 1.625,0 3.0625,-0.875 1.46875,-0.90625 2.34375,-2.46875 V 81.0625 H 305.25 q 0.78125,0.96875 1.21875,2.0625 0.4375,1.0625 0.4375,2.09375 0,1.8125 -1.4375,3.21875 -1.40625,1.40625 -3.5625,1.78125 0.3125,1.625 1.71875,2.6875 1.40625,1.0625 3.28125,1.0625 z m -8.4375,-12.90625 v -1.875 h 19.46875 v 1.875 h -3.53125 V 100 h -2.09375 v -6.4375 q -1.21875,1.1875 -2.625,1.84375 -1.375,0.625 -2.78125,0.625 -3,0 -5.15625,-2.15625 -2.125,-2.1875 -2.125,-5.3125 2.375,0 3.78125,-0.90625 1.40625,-0.9375 1.40625,-2.4375 0,-1 -0.53125,-2.0625 Q 303.75,82.0625 302.75,81.0625 Z"
         id="path30" />
      <path
         d="m 317.09375,81.0625 v -1.875 H 326.25 v 1.875 h -3.5625 V 100 H 320.625 V 81.0625 Z"
         id="path32" />
      <path
         d="m 347.71875,99.59375 q -3.28125,0 -6.40625,-2.46875 -3.09375,-2.5 -5.03125,-6.6875 l 1.65625,-1.0625 q 1.75,3.71875 4.375,5.9375 2.65625,2.1875 5.40625,2.1875 1.6875,0 2.90625,-1.28125 1.25,-1.28125 1.25,-3.09375 0,-0.5 -0.3125,-0.875 -0.3125,-0.375 -0.71875,-0.375 -0.6875,0 -1.90625,0.4375 -1.1875,0.40625 -1.84375,0.40625 -1.59375,0 -3.5,-2 -1.90625,-2 -1.90625,-3.625 0,-1.125 0.78125,-1.90625 0.78125,-0.78125 1.90625,-0.78125 H 350 V 81.0625 h -14.71875 v -1.875 h 20.53125 v 1.875 h -3.71875 v 5.40625 H 344.375 q -0.25,0 -0.4375,0.1875 -0.1875,0.1875 -0.1875,0.4375 0,0.875 1.25,2.21875 1.25,1.3125 2.09375,1.3125 0.65625,0 1.84375,-0.40625 1.21875,-0.40625 1.90625,-0.40625 1.28125,0 2.1875,0.96875 0.9375,0.96875 0.9375,2.34375 0,2.6875 -1.84375,4.59375 -1.84375,1.875 -4.40625,1.875 z"
         id="path34" />
      <path
         d="m 359.5625,72.9375 v -2.90625 h 3.125 V 72.9375 Z M 355,81.0625 v -1.875 h 3.375 l -7.53125,-8.9375 1.4375,-1.46875 8.15625,10.40625 h 3.71875 v 1.875 h -3.5625 V 100 h -2.0625 V 81.0625 Z"
         id="path36" />
      <path
         d="m 363.3125,81.0625 v -1.875 h 17 v 1.875 h -3.53125 V 100 h -2.0625 V 81.0625 H 369.5 V 91.25 q 0,0.5 -0.3125,0.875 -0.3125,0.375 -0.71875,0.375 -0.78125,0 -2.46875,-1.9375 -1.6875,-1.96875 -1.6875,-2.84375 0,-0.3125 0.25,-0.5625 0.25,-0.25 0.5625,-0.25 h 1.46875 q 0.34375,0 0.59375,-0.3125 0.25,-0.3125 0.25,-0.75 V 81.0625 Z"
         id="path38" />
      <path
         d="m 379.46875,81.0625 v -1.875 h 14.46875 v 1.875 h -2.8125 v 4.78125 q 0,1.9375 -1.3125,3.28125 -1.28125,1.3125 -3.0625,1.3125 -0.25,0 -0.6875,-0.09375 -0.40625,-0.125 -1,-0.34375 1.34375,2.34375 3.15625,4.5 1.84375,2.125 4.125,4.03125 L 391.125,100 q -3.34375,-2.78125 -6.03125,-6.3125 -2.6875,-3.5625 -4.59375,-7.625 l 1.875,-1.03125 q 0.53125,1.5 1.71875,2.40625 1.21875,0.90625 2.65625,0.90625 0.9375,0 1.59375,-0.71875 0.6875,-0.71875 0.6875,-1.78125 V 81.0625 Z"
         id="path40" />
      <path
         d="m 393.09375,81.0625 v -1.875 H 402.25 v 1.875 h -3.5625 V 100 H 396.625 V 81.0625 Z"
         id="path42" />
      <path
         d="m 401.40625,81.0625 v -1.875 h 23.53125 v 1.875 h -3.53125 V 100 h -2.0625 V 87.53125 q -1.8125,0 -3.375,1.625 -1.5625,1.59375 -2.25,4.1875 l -1.875,-0.625 q 0.15625,-1 0.5,-1.8125 0.34375,-0.8125 0.75,-1.3125 -0.65625,-1 -1.65625,-1.53125 -1,-0.53125 -2.09375,-0.53125 -1.71875,0 -2.9375,1.21875 -1.21875,1.21875 -1.21875,2.9375 0,1.875 1.875,3.71875 1.90625,1.8125 5,2.9375 l -0.84375,1.875 q -3.65625,-1.34375 -5.90625,-3.6875 -2.21875,-2.34375 -2.21875,-4.84375 0,-2.59375 1.8125,-4.40625 1.84375,-1.84375 4.4375,-1.84375 1.53125,0 2.90625,0.625 1.375,0.59375 2.28125,1.65625 0.9375,-1.0625 2.1875,-1.65625 1.25,-0.625 2.625,-0.625 v -4.375 z"
         id="path44" />
      <path
         d="m 424.125,81.0625 v -1.875 h 9.15625 v 1.875 h -3.5625 V 100 h -2.0625 V 81.0625 Z"
         id="path46" />
      <path
         d="m 442.3125,81.0625 v -1.875 H 459.5 v 1.875 h -6.875 v 5.375 q 0,0.8125 -0.125,1.5 h 7.40625 v 1.875 H 451.625 q -0.625,0.75 -1.375,0.9375 -1.46875,0.3125 -1.78125,-0.125 l 5.625,8.34375 L 452.625,100 443.25,86.46875 l 1.6875,-1.25 q 0.9375,1.625 1.875,2.59375 0.9375,0.9375 1.71875,0.9375 0.8125,0 1.40625,-0.59375 0.59375,-0.59375 0.59375,-1.46875 v -5.625 z"
         id="path48" />
      <path
         d="m 466.46875,91.875 q 1.28125,0 2.40625,-0.78125 1.125,-0.78125 1.75,-2.125 V 81.0625 h -7.6875 v 7.5 q 0,1.375 1.03125,2.34375 1.03125,0.96875 2.5,0.96875 z m -5.625,-3.3125 v -7.5 h -2.1875 v -1.875 H 476.25 v 1.875 h -3.53125 V 100 H 470.625 v -7.90625 q -0.90625,0.90625 -2,1.40625 -1.0625,0.46875 -2.15625,0.46875 -2.34375,0 -4,-1.5625 -1.625,-1.59375 -1.625,-3.84375 z"
         id="path50" />
      <path
         d="m 487.59375,81.0625 v -1.875 h 9.78125 v 1.875 h -3.53125 V 100 H 491.75 V 81.0625 Z m -5.625,4.78125 q 1.03125,0 1.9375,-0.625 0.90625,-0.625 1.40625,-1.65625 -0.46875,-1.21875 -1.28125,-1.96875 -0.78125,-0.75 -1.65625,-0.75 -1.03125,0 -1.78125,0.8125 -0.71875,0.78125 -0.71875,1.90625 0,0.96875 0.59375,1.625 0.625,0.65625 1.5,0.65625 z M 486.125,100 476.78125,92.09375 477.8125,90.625 q 0.90625,0.75 1.4375,1.125 0.53125,0.34375 0.84375,0.34375 2.34375,0 3.96875,-1.8125 1.65625,-1.84375 1.65625,-4.4375 -0.53125,0.96875 -1.5625,1.53125 -1.03125,0.5625 -2.1875,0.5625 -1.71875,0 -2.9375,-1.28125 -1.21875,-1.3125 -1.21875,-3.09375 0,-2 1.3125,-3.375 1.34375,-1.40625 3.25,-1.40625 2.25,0 3.84375,2.09375 1.59375,2.0625 1.59375,4.96875 0,3.21875 -1.90625,5.46875 -1.90625,2.25 -4.5625,2.25 l 6.03125,4.96875 z"
         id="path52" />
      <path
         d="m 491.09375,79.1875 q -1.0625,-0.90625 -1.65625,-1.96875 -0.625,-1.09375 -0.625,-2.1875 0,-1.90625 1.46875,-3.21875 1.4375,-1.34375 3.53125,-1.34375 0.5625,0 1.125,0.09375 0.5625,0.09375 1.15625,0.3125 v 1.875 q -0.875,-0.34375 -1.4375,-0.46875 -0.5625,-0.15625 -0.84375,-0.15625 -1.21875,0 -2.0625,0.84375 -0.84375,0.84375 -0.84375,2.0625 0,1.15625 0.78125,2.28125 0.78125,1.09375 2.125,1.875 z"
         id="path54" />
      <path
         d="m 506.40625,81.0625 v -1.875 h 24.25 v 1.875 h -11 v 5.625 q 0.6875,-1.15625 1.84375,-1.8125 1.15625,-0.6875 2.53125,-0.6875 2,0 3.375,1.65625 1.40625,1.625 1.40625,3.96875 0,2 -1.03125,3.96875 -1.03125,1.9375 -2.90625,3.5 l -1.875,-1.25 q 1.75,-1.21875 2.75,-2.875 1,-1.65625 1,-3.34375 0,-1.46875 -0.8125,-2.5 -0.78125,-1.03125 -1.90625,-1.03125 -1.4375,0 -2.6875,1.09375 -1.21875,1.09375 -1.6875,2.84375 V 100 h -2.0625 v -6.25 q -0.75,0.875 -1.84375,1.375 -1.0625,0.5 -2.3125,0.5 -2.25,0 -3.84375,-1.5625 -1.5625,-1.59375 -1.5625,-3.84375 0,-2.5 1.8125,-4.25 1.84375,-1.78125 4.40625,-1.78125 0.75,0 1.28125,0.125 0.5625,0.09375 0.8125,0.28125 l -0.40625,2.09375 q -0.375,-0.21875 -0.8125,-0.3125 -0.40625,-0.09375 -0.875,-0.09375 -1.6875,0 -2.9375,1.15625 -1.21875,1.15625 -1.21875,2.78125 0,1.375 0.96875,2.375 1,0.96875 2.375,0.96875 1.1875,0 2.3125,-0.71875 1.125,-0.75 1.84375,-2 V 81.0625 Z"
         id="path56" />
      <path
         d="m 529.8125,81.0625 v -1.875 h 24.59375 v 1.875 h -14.5 v 5 h 4.15625 q 0.5,-0.59375 1.28125,-0.90625 Q 546.125,84.8125 547,84.8125 q 2.25,0 3.8125,1.90625 1.59375,1.875 1.59375,4.53125 0,1.96875 -0.75,3.90625 -0.75,1.9375 -2.15625,3.59375 l -1.6875,-1.25 q 1.21875,-1.21875 1.84375,-2.8125 0.65625,-1.625 0.65625,-3.4375 0,-1.78125 -0.96875,-3.0625 Q 548.375,86.90625 547,86.90625 q -1.0625,0 -1.78125,0.78125 -0.71875,0.78125 -0.71875,1.90625 0,0.84375 0.4375,1.65625 0.4375,0.8125 1.21875,1.46875 l -1.25,1.25 Q 543.75,93.125 543.0625,92.03125 q -0.65625,-1.09375 -0.65625,-2.21875 0,-0.5 0.15625,-1.03125 0.1875,-0.53125 0.46875,-1.0625 h -3.125 q -0.1875,1.09375 -1.125,1.8125 -0.9375,0.6875 -2.1875,0.6875 -0.34375,0 -0.5625,-0.0625 Q 535.84375,90.09375 535.75,90 l 6.46875,8.75 -1.6875,1.25 -9.78125,-13.3125 1.6875,-1.46875 q 0.65625,1.4375 1.53125,2.28125 0.90625,0.84375 1.78125,0.84375 0.875,0 1.46875,-0.53125 0.625,-0.53125 0.625,-1.34375 V 81.0625 Z"
         id="path58" />
      <path
         d="m 554.59375,87.53125 q 0,-0.4375 0.4375,-0.75 0.4375,-0.3125 1.03125,-0.3125 h 11 V 81.0625 h -13.5 v -1.875 h 19.125 v 1.875 h -3.53125 V 100 H 567.0625 V 88.5625 h -6.03125 q -0.5,0 -0.875,0.25 -0.375,0.25 -0.375,0.5625 v 2.09375 q 0,0.5 -0.3125,0.875 -0.3125,0.375 -0.71875,0.375 -0.71875,0 -2.4375,-2.15625 -1.71875,-2.1875 -1.71875,-3.03125 z"
         id="path60" />
      <path
         d="m 571.84375,81.0625 v -1.875 h 3.53125 q -0.53125,-3 -1.96875,-4.9375 Q 572,72.3125 570.375,72.3125 q -1.21875,0 -2.0625,0.8125 -0.84375,0.78125 -0.84375,1.90625 0,1 0.4375,2 0.4375,0.96875 1.21875,1.75 h -2.28125 Q 566.125,78.0625 565.75,77.09375 q -0.375,-0.96875 -0.375,-2.0625 0,-1.90625 1.46875,-3.21875 1.4375,-1.34375 3.53125,-1.34375 2.40625,0 4.40625,2.46875 2,2.46875 2.65625,6.25 H 581 v 1.875 h -3.5625 V 100 H 575.375 V 81.0625 Z"
         id="path62" />
      <path
         d="M 581.09375,104 582.75,96.71875 h 3.03125 L 582.65625,104 Z"
         id="path64" />
    </g>
    <g
       aria-label="हिंदीत गाणे मी सुरू करूनी."
       id="text4">
      <path
         d="m 265.64062,123.78125 v -3.125 h 3.125 v 3.125 z m -20.375,7.28125 v -1.875 h 3.53125 q -0.28125,-0.375 -0.46875,-1.0625 -0.15625,-0.6875 -0.15625,-1.625 0,-2.5 1.9375,-4.25 1.96875,-1.78125 4.71875,-1.78125 3.28125,0 6.4375,2.21875 3.1875,2.21875 5.40625,6.09375 h -2.28125 q -1.75,-3 -4.3125,-4.71875 -2.53125,-1.75 -5.25,-1.75 -1.90625,0 -3.25,1.25 -1.34375,1.21875 -1.34375,2.9375 0,0.9375 0.15625,1.625 0.1875,0.6875 0.46875,1.0625 h 3.5625 v 1.875 h -3.5625 V 150 h -2.0625 v -18.9375 z"
         id="path67" />
      <path
         d="m 253.57812,131.0625 v -1.875 h 17.3125 v 1.875 h -3.34375 v 5 h -8.53125 q -0.40625,0 -0.71875,0.1875 -0.3125,0.1875 -0.3125,0.4375 0,0.84375 0.625,1.625 0.625,0.78125 1.65625,1.28125 0.65625,-0.28125 1.4375,-0.4375 0.8125,-0.1875 1.6875,-0.1875 2.34375,0 3.96875,1.34375 1.65625,1.3125 1.65625,3.25 0,1.0625 -0.4375,1.96875 -0.4375,0.875 -1.25,1.34375 l -1.65625,-1.4375 q 0.59375,-0.34375 0.90625,-0.84375 0.34375,-0.5 0.34375,-1.03125 0,-1.0625 -1.03125,-1.78125 -1.03125,-0.71875 -2.5,-0.71875 -2.25,0 -3.84375,1.03125 -1.5625,1.03125 -1.5625,2.5 0,1.90625 2.6875,3.25 2.6875,1.3125 6.46875,1.3125 l -0.4375,1.875 q -4.46875,0 -7.65625,-1.875 -3.15625,-1.90625 -3.15625,-4.5625 0,-1.21875 0.59375,-2.28125 0.625,-1.0625 1.6875,-1.6875 -1.0625,-0.90625 -1.6875,-1.9375 -0.59375,-1.03125 -0.59375,-2 0,-1.125 0.90625,-1.90625 0.9375,-0.8125 2.21875,-0.8125 h 6.46875 v -2.90625 z"
         id="path69" />
      <path
         d="m 269.79687,131.0625 v -1.875 h 18 v 1.875 h -3.3125 v 5.40625 h -8.125 q -1.21875,0 -2.0625,0.875 -0.84375,0.84375 -0.84375,2.03125 0,2.25 2.375,3.84375 2.375,1.59375 5.75,1.59375 0,-1.46875 0.65625,-2.5 0.65625,-1.0625 1.625,-1.0625 0.6875,0 1.15625,0.5 0.5,0.46875 0.5,1.1875 0,0.8125 -0.5,1.65625 -0.5,0.84375 -1.375,1.4375 l 2.28125,3.96875 -1.875,0.84375 -2.28125,-4.1875 q -4.3125,0 -7.375,-2.125 -3.03125,-2.15625 -3.03125,-5.15625 0,-2.0625 1.4375,-3.5 1.46875,-1.46875 3.5625,-1.46875 h 6.03125 v -3.34375 z"
         id="path71" />
      <path
         d="m 286.95312,131.0625 v -1.875 h 3.53125 q -0.53125,-3 -1.96875,-4.9375 -1.40625,-1.9375 -3.03125,-1.9375 -1.21875,0 -2.0625,0.8125 -0.84375,0.78125 -0.84375,1.90625 0,1 0.4375,2 0.4375,0.96875 1.21875,1.75 h -2.28125 q -0.71875,-0.71875 -1.09375,-1.6875 -0.375,-0.96875 -0.375,-2.0625 0,-1.90625 1.46875,-3.21875 1.4375,-1.34375 3.53125,-1.34375 2.40625,0 4.40625,2.46875 2,2.46875 2.65625,6.25 h 3.5625 v 1.875 h -3.5625 V 150 h -2.0625 v -18.9375 z"
         id="path73" />
      <path
         d="m 297.01562,139.8125 q 0,-2 1.28125,-3.375 1.28125,-1.40625 3.0625,-1.40625 h 8.125 v -3.96875 h -14.21875 v -1.875 h 19.84375 v 1.875 h -3.53125 V 150 h -2.09375 v -12.90625 h -8.125 q -0.9375,0 -1.625,0.8125 -0.65625,0.78125 -0.65625,1.90625 0,2 1.40625,4.28125 1.4375,2.28125 4,4.4375 l -1.25,1.46875 q -2.9375,-2.5 -4.59375,-5.15625 -1.625,-2.65625 -1.625,-5.03125 z"
         id="path75" />
      <path
         d="m 324.14062,131.0625 v -1.875 h 17 v 1.875 h -3.53125 V 150 h -2.0625 v -18.9375 h -5.21875 V 141.25 q 0,0.5 -0.3125,0.875 -0.3125,0.375 -0.71875,0.375 -0.78125,0 -2.46875,-1.9375 -1.6875,-1.96875 -1.6875,-2.84375 0,-0.3125 0.25,-0.5625 0.25,-0.25 0.5625,-0.25 h 1.46875 q 0.34375,0 0.59375,-0.3125 0.25,-0.3125 0.25,-0.75 v -4.78125 z"
         id="path77" />
      <path
         d="m 340.29687,131.0625 v -1.875 h 9.15625 v 1.875 h -3.5625 V 150 h -2.0625 v -18.9375 z"
         id="path79" />
      <path
         d="m 356.01562,142.9375 q 1.125,0 1.90625,-0.90625 0.78125,-0.9375 0.78125,-2.21875 v -8.75 h -5.625 v 8.75 q 0,1.28125 0.84375,2.21875 0.875,0.90625 2.09375,0.90625 z m 0,2.0625 q -2.09375,0 -3.5625,-1.5 -1.4375,-1.53125 -1.4375,-3.6875 v -8.75 h -2.40625 v -1.875 h 21.75 v 1.875 h -3.53125 V 150 h -2.09375 v -18.9375 h -3.9375 v 8.75 q 0,2.15625 -1.4375,3.6875 -1.40625,1.5 -3.34375,1.5 z"
         id="path81" />
      <path
         d="m 364.42187,129.1875 -7.6875,-9.15625 1.4375,-1.25 8.3125,10.40625 z"
         id="path83" />
      <path
         d="m 385.20312,137.9375 h 7.5 v -6.875 h -7.5 z m -5.8125,-6.875 v -1.875 h 18.9375 v 1.875 h -3.5625 V 150 h -2.0625 v -10 h -7.5 v 1.46875 q 0,0.5 -0.1875,0.875 -0.1875,0.375 -0.4375,0.375 -0.71875,0 -2.4375,-1.5625 -1.71875,-1.5625 -1.71875,-2.1875 0,-0.40625 0.3125,-0.71875 0.3125,-0.3125 0.71875,-0.3125 h 1.6875 v -6.875 z"
         id="path85" />
      <path
         d="m 397.48437,131.0625 v -1.875 h 3.53125 q -0.53125,-3 -1.96875,-4.9375 -1.40625,-1.9375 -3.03125,-1.9375 -1.21875,0 -2.0625,0.8125 -0.84375,0.78125 -0.84375,1.90625 0,1 0.4375,2 0.4375,0.96875 1.21875,1.75 h -2.28125 q -0.71875,-0.71875 -1.09375,-1.6875 -0.375,-0.96875 -0.375,-2.0625 0,-1.90625 1.46875,-3.21875 1.4375,-1.34375 3.53125,-1.34375 2.40625,0 4.40625,2.46875 2,2.46875 2.65625,6.25 h 3.5625 v 1.875 h -3.5625 V 150 h -2.0625 v -18.9375 z"
         id="path87" />
      <path
         d="m 415.67187,131.0625 v -1.875 h 23 v 1.875 h -3.53125 V 150 h -2.09375 v -10 h -8.875 q -0.84375,0.625 -1.9375,0.625 -0.25,0 -0.5,-0.0625 -0.21875,-0.0625 -0.34375,-0.125 l 6.25,8.71875 -1.65625,1.0625 -9.375,-13.3125 1.6875,-1.25 q 0.65625,1.40625 1.53125,2.25 0.90625,0.84375 1.78125,0.84375 0.875,0 1.46875,-0.59375 0.625,-0.59375 0.625,-1.46875 v -5.625 z m 9.90625,6.875 h 7.46875 v -6.875 h -7.28125 v 5.625 q 0,0.65625 -0.1875,1.25 z"
         id="path89" />
      <path
         d="m 431.98437,158.53125 q -2.25,0 -4.6875,-1.09375 -2.46875,-1.0625 -4.875,-3.0625 l 1.46875,-1.875 q 2.28125,1.90625 4.375,2.90625 2.0625,1.03125 3.71875,1.03125 1.8125,0 3.09375,-0.90625 1.28125,-0.90625 1.28125,-2.1875 0,-1.0625 -0.65625,-1.78125 -0.6875,-0.71875 -1.625,-0.71875 -1,0 -1.875,0.375 -0.875,0.375 -1.46875,1.0625 l -1.4375,-1.4375 q 0.8125,-1 2.0625,-1.53125 1.25,-0.5625 2.71875,-0.5625 1.78125,0 3.09375,1.3125 1.28125,1.34375 1.28125,3.28125 0,2.15625 -1.90625,3.65625 -1.90625,1.53125 -4.5625,1.53125 z"
         id="path91" />
      <path
         d="m 437.82812,131.0625 v -1.875 h 24.59375 v 1.875 h -14.5 v 5 h 4.15625 q 0.5,-0.59375 1.28125,-0.90625 0.78125,-0.34375 1.65625,-0.34375 2.25,0 3.8125,1.90625 1.59375,1.875 1.59375,4.53125 0,1.96875 -0.75,3.90625 -0.75,1.9375 -2.15625,3.59375 l -1.6875,-1.25 q 1.21875,-1.21875 1.84375,-2.8125 0.65625,-1.625 0.65625,-3.4375 0,-1.78125 -0.96875,-3.0625 -0.96875,-1.28125 -2.34375,-1.28125 -1.0625,0 -1.78125,0.78125 -0.71875,0.78125 -0.71875,1.90625 0,0.84375 0.4375,1.65625 0.4375,0.8125 1.21875,1.46875 l -1.25,1.25 q -1.15625,-0.84375 -1.84375,-1.9375 -0.65625,-1.09375 -0.65625,-2.21875 0,-0.5 0.15625,-1.03125 0.1875,-0.53125 0.46875,-1.0625 h -3.125 q -0.1875,1.09375 -1.125,1.8125 -0.9375,0.6875 -2.1875,0.6875 -0.34375,0 -0.5625,-0.0625 -0.1875,-0.0625 -0.28125,-0.15625 l 6.46875,8.75 -1.6875,1.25 -9.78125,-13.3125 1.6875,-1.46875 q 0.65625,1.4375 1.53125,2.28125 0.90625,0.84375 1.78125,0.84375 0.875,0 1.46875,-0.53125 0.625,-0.53125 0.625,-1.34375 v -5.40625 z"
         id="path93" />
      <path
         d="m 471.45312,131.0625 v -1.875 h 24.25 v 1.875 h -11 v 5.625 q 0.6875,-1.15625 1.84375,-1.8125 1.15625,-0.6875 2.53125,-0.6875 2,0 3.375,1.65625 1.40625,1.625 1.40625,3.96875 0,2 -1.03125,3.96875 -1.03125,1.9375 -2.90625,3.5 l -1.875,-1.25 q 1.75,-1.21875 2.75,-2.875 1,-1.65625 1,-3.34375 0,-1.46875 -0.8125,-2.5 -0.78125,-1.03125 -1.90625,-1.03125 -1.4375,0 -2.6875,1.09375 -1.21875,1.09375 -1.6875,2.84375 V 150 h -2.0625 v -6.25 q -0.75,0.875 -1.84375,1.375 -1.0625,0.5 -2.3125,0.5 -2.25,0 -3.84375,-1.5625 -1.5625,-1.59375 -1.5625,-3.84375 0,-2.5 1.8125,-4.25 1.84375,-1.78125 4.40625,-1.78125 0.75,0 1.28125,0.125 0.5625,0.0937 0.8125,0.28125 l -0.40625,2.09375 q -0.375,-0.21875 -0.8125,-0.3125 -0.40625,-0.0937 -0.875,-0.0937 -1.6875,0 -2.9375,1.15625 -1.21875,1.15625 -1.21875,2.78125 0,1.375 0.96875,2.375 1,0.96875 2.375,0.96875 1.1875,0 2.3125,-0.71875 1.125,-0.75 1.84375,-2 v -9.78125 z"
         id="path95" />
      <path
         d="m 494.85937,131.0625 v -1.875 h 24.59375 v 1.875 h -14.5 v 5 h 4.15625 q 0.5,-0.59375 1.28125,-0.90625 0.78125,-0.34375 1.65625,-0.34375 2.25,0 3.8125,1.90625 1.59375,1.875 1.59375,4.53125 0,1.96875 -0.75,3.90625 -0.75,1.9375 -2.15625,3.59375 l -1.6875,-1.25 q 1.21875,-1.21875 1.84375,-2.8125 0.65625,-1.625 0.65625,-3.4375 0,-1.78125 -0.96875,-3.0625 -0.96875,-1.28125 -2.34375,-1.28125 -1.0625,0 -1.78125,0.78125 -0.71875,0.78125 -0.71875,1.90625 0,0.84375 0.4375,1.65625 0.4375,0.8125 1.21875,1.46875 l -1.25,1.25 q -1.15625,-0.84375 -1.84375,-1.9375 -0.65625,-1.09375 -0.65625,-2.21875 0,-0.5 0.15625,-1.03125 0.1875,-0.53125 0.46875,-1.0625 h -3.125 q -0.1875,1.09375 -1.125,1.8125 -0.9375,0.6875 -2.1875,0.6875 -0.34375,0 -0.5625,-0.0625 -0.1875,-0.0625 -0.28125,-0.15625 l 6.46875,8.75 -1.6875,1.25 -9.78125,-13.3125 1.6875,-1.46875 q 0.65625,1.4375 1.53125,2.28125 0.90625,0.84375 1.78125,0.84375 0.875,0 1.46875,-0.53125 0.625,-0.53125 0.625,-1.34375 v -5.40625 z"
         id="path97" />
      <path
         d="m 519.64062,137.53125 q 0,-0.4375 0.4375,-0.75 0.4375,-0.3125 1.03125,-0.3125 h 11 v -5.40625 h -13.5 v -1.875 h 19.125 v 1.875 h -3.53125 V 150 h -2.09375 v -11.4375 h -6.03125 q -0.5,0 -0.875,0.25 -0.375,0.25 -0.375,0.5625 v 2.09375 q 0,0.5 -0.3125,0.875 -0.3125,0.375 -0.71875,0.375 -0.71875,0 -2.4375,-2.15625 -1.71875,-2.1875 -1.71875,-3.03125 z"
         id="path99" />
      <path
         d="m 536.89062,131.0625 v -1.875 h 3.53125 q -0.53125,-3 -1.96875,-4.9375 -1.40625,-1.9375 -3.03125,-1.9375 -1.21875,0 -2.0625,0.8125 -0.84375,0.78125 -0.84375,1.90625 0,1 0.4375,2 0.4375,0.96875 1.21875,1.75 h -2.28125 q -0.71875,-0.71875 -1.09375,-1.6875 -0.375,-0.96875 -0.375,-2.0625 0,-1.90625 1.46875,-3.21875 1.4375,-1.34375 3.53125,-1.34375 2.40625,0 4.40625,2.46875 2,2.46875 2.65625,6.25 h 3.5625 v 1.875 h -3.5625 V 150 h -2.0625 v -18.9375 z"
         id="path101" />
      <path
         d="m 547.95312,150 v -3.28125 h 2.65625 V 150 Z"
         id="path103" />
    </g>
    <g
       aria-label="पर्वतांच्या सौंदर्यात रमूनी,"
       id="text6">
      <path
         d="m 264.65625,191.875 q 1.28125,0 2.40625,-0.78125 1.125,-0.78125 1.75,-2.125 v -7.90625 h -7.6875 v 7.5 q 0,1.375 1.03125,2.34375 1.03125,0.96875 2.5,0.96875 z m -5.625,-3.3125 v -7.5 h -2.1875 v -1.875 h 17.59375 v 1.875 h -3.53125 V 200 h -2.09375 v -7.90625 q -0.90625,0.90625 -2,1.40625 -1.0625,0.46875 -2.15625,0.46875 -2.34375,0 -4,-1.5625 -1.625,-1.59375 -1.625,-3.84375 z"
         id="path106" />
      <path
         d="m 273.59375,181.0625 v -1.875 h 17.8125 v 1.875 h -3.5625 V 200 h -2.0625 v -6.65625 q -0.84375,1 -2,1.5625 -1.125,0.53125 -2.375,0.53125 -2.59375,0 -4.4375,-1.65625 -1.8125,-1.65625 -1.8125,-3.96875 0,-2.34375 1.8125,-3.96875 1.84375,-1.65625 4.4375,-1.65625 0.75,0 1.4375,0.21875 0.6875,0.1875 1.28125,0.625 l -1.0625,1.65625 q -0.375,-0.28125 -0.78125,-0.4375 -0.40625,-0.1875 -0.875,-0.1875 -1.71875,0 -2.9375,1.09375 -1.21875,1.09375 -1.21875,2.65625 0,1.4375 1.21875,2.5 1.21875,1.03125 2.9375,1.03125 1.21875,0 2.375,-0.8125 1.15625,-0.84375 2,-2.3125 v -9.15625 z"
         id="path108" />
      <path
         d="M 285.03125,179.15625 Q 283.96875,178.25 283.375,177.1875 282.75,176.09375 282.75,175 q 0,-1.90625 1.46875,-3.21875 1.4375,-1.34375 3.53125,-1.34375 0.5625,0 1.125,0.0937 0.5625,0.0937 1.15625,0.3125 v 1.875 q -0.875,-0.34375 -1.4375,-0.46875 -0.5625,-0.15625 -0.84375,-0.15625 -1.21875,0 -2.0625,0.84375 -0.84375,0.84375 -0.84375,2.0625 0,1.15625 0.78125,2.28125 0.78125,1.09375 2.125,1.875 z"
         id="path110" />
      <path
         d="m 292.3125,189.8125 q 0,-2 1.28125,-3.375 1.28125,-1.40625 3.0625,-1.40625 h 8.125 V 181.0625 H 290.5625 v -1.875 h 19.84375 v 1.875 H 306.875 V 200 h -2.09375 v -12.90625 h -8.125 q -0.9375,0 -1.625,0.8125 -0.65625,0.78125 -0.65625,1.90625 0,2 1.40625,4.28125 1.4375,2.28125 4,4.4375 l -1.25,1.46875 q -2.9375,-2.5 -4.59375,-5.15625 -1.625,-2.65625 -1.625,-5.03125 z"
         id="path112" />
      <path
         d="m 309.5625,181.0625 v -1.875 h 9.15625 v 1.875 h -3.5625 V 200 h -2.0625 v -18.9375 z"
         id="path114" />
      <path
         d="m 312.75,174 v -2.90625 h 3.125 V 174 Z"
         id="path116" />
      <path
         d="m 317.875,181.0625 v -1.875 h 15.75 v 1.875 z m 9.53125,15.1875 q -2.09375,0 -3.5625,-1.4375 -1.4375,-1.46875 -1.4375,-3.5625 0,-1.40625 0.59375,-2.59375 0.59375,-1.21875 1.6875,-1.96875 h -6.03125 v -2.09375 h 12.0625 v 2.09375 h -2.5 q -1.6875,0.78125 -2.71875,2.03125 -1.03125,1.25 -1.03125,2.53125 0,1.21875 0.84375,2.09375 0.875,0.84375 2.09375,0.84375 1.40625,0 3.1875,-1.65625 1.78125,-1.6875 3.46875,-4.59375 v 3.3125 q -1.625,2.34375 -3.40625,3.6875 -1.75,1.3125 -3.25,1.3125 z"
         id="path118" />
      <path
         d="m 341.25,193.96875 q 1.625,0 3.0625,-0.875 1.46875,-0.90625 2.34375,-2.46875 v -9.5625 h -7.0625 q 0.78125,0.96875 1.21875,2.0625 0.4375,1.0625 0.4375,2.09375 0,1.8125 -1.4375,3.21875 -1.40625,1.40625 -3.5625,1.78125 0.3125,1.625 1.71875,2.6875 1.40625,1.0625 3.28125,1.0625 z m -8.4375,-12.90625 v -1.875 h 19.46875 v 1.875 H 348.75 V 200 h -2.09375 v -6.4375 q -1.21875,1.1875 -2.625,1.84375 -1.375,0.625 -2.78125,0.625 -3,0 -5.15625,-2.15625 -2.125,-2.1875 -2.125,-5.3125 2.375,0 3.78125,-0.90625 1.40625,-0.9375 1.40625,-2.4375 0,-1 -0.53125,-2.0625 -0.53125,-1.09375 -1.53125,-2.09375 z"
         id="path120" />
      <path
         d="m 351.4375,181.0625 v -1.875 h 9.15625 v 1.875 h -3.5625 V 200 h -2.0625 v -18.9375 z"
         id="path122" />
      <path
         d="m 369.625,181.0625 v -1.875 h 23 v 1.875 h -3.53125 V 200 H 387 v -10 h -8.875 q -0.84375,0.625 -1.9375,0.625 -0.25,0 -0.5,-0.0625 -0.21875,-0.0625 -0.34375,-0.125 l 6.25,8.71875 -1.65625,1.0625 -9.375,-13.3125 1.6875,-1.25 q 0.65625,1.40625 1.53125,2.25 0.90625,0.84375 1.78125,0.84375 0.875,0 1.46875,-0.59375 0.625,-0.59375 0.625,-1.46875 v -5.625 z m 9.90625,6.875 H 387 v -6.875 h -7.28125 v 5.625 q 0,0.65625 -0.1875,1.25 z"
         id="path124" />
      <path
         d="m 397.8125,174 v -2.90625 h 3.125 V 174 Z m -6.03125,7.0625 v -1.875 h 3.125 l -8.53125,-4.375 1.03125,-1.875 9.34375,6.25 -4.5625,-9.15625 2.09375,-1.25 3.65625,10.40625 h 3 v 1.875 H 397.375 V 200 h -2.0625 v -18.9375 z"
         id="path126" />
      <path
         d="m 399.84375,181.0625 v -1.875 h 18 v 1.875 h -3.3125 v 5.40625 h -8.125 q -1.21875,0 -2.0625,0.875 Q 403.5,188.1875 403.5,189.375 q 0,2.25 2.375,3.84375 2.375,1.59375 5.75,1.59375 0,-1.46875 0.65625,-2.5 0.65625,-1.0625 1.625,-1.0625 0.6875,0 1.15625,0.5 0.5,0.46875 0.5,1.1875 0,0.8125 -0.5,1.65625 -0.5,0.84375 -1.375,1.4375 l 2.28125,3.96875 -1.875,0.84375 -2.28125,-4.1875 q -4.3125,0 -7.375,-2.125 -3.03125,-2.15625 -3.03125,-5.15625 0,-2.0625 1.4375,-3.5 1.46875,-1.46875 3.5625,-1.46875 h 6.03125 v -3.34375 z"
         id="path128" />
      <path
         d="m 425.4375,193.96875 q 1.625,0 3.0625,-0.875 1.46875,-0.90625 2.34375,-2.46875 v -9.5625 h -7.0625 q 0.78125,0.96875 1.21875,2.0625 0.4375,1.0625 0.4375,2.09375 0,1.8125 -1.4375,3.21875 -1.40625,1.40625 -3.5625,1.78125 0.3125,1.625 1.71875,2.6875 1.40625,1.0625 3.28125,1.0625 z M 417,181.0625 v -1.875 h 19.46875 v 1.875 H 432.9375 V 200 h -2.09375 v -6.4375 q -1.21875,1.1875 -2.625,1.84375 -1.375,0.625 -2.78125,0.625 -3,0 -5.15625,-2.15625 -2.125,-2.1875 -2.125,-5.3125 2.375,0 3.78125,-0.90625 1.40625,-0.9375 1.40625,-2.4375 0,-1 -0.53125,-2.0625 -0.53125,-1.09375 -1.53125,-2.09375 z"
         id="path130" />
      <path
         d="m 435.625,181.0625 v -1.875 h 9.15625 v 1.875 h -3.5625 V 200 h -2.0625 v -18.9375 z"
         id="path132" />
      <path
         d="m 440.34375,179.1875 q -1.0625,-0.90625 -1.65625,-1.96875 -0.625,-1.09375 -0.625,-2.1875 0,-1.90625 1.46875,-3.21875 1.4375,-1.34375 3.53125,-1.34375 0.5625,0 1.125,0.0937 0.5625,0.0937 1.15625,0.3125 v 1.875 q -0.875,-0.34375 -1.4375,-0.46875 -0.5625,-0.15625 -0.84375,-0.15625 -1.21875,0 -2.0625,0.84375 -0.84375,0.84375 -0.84375,2.0625 0,1.15625 0.78125,2.28125 0.78125,1.09375 2.125,1.875 z"
         id="path134" />
      <path
         d="m 445.6875,189.8125 q 0,-2 1.28125,-3.375 1.28125,-1.40625 3.0625,-1.40625 h 8.125 V 181.0625 H 443.9375 v -1.875 h 19.84375 v 1.875 H 460.25 V 200 h -2.09375 v -12.90625 h -8.125 q -0.9375,0 -1.625,0.8125 -0.65625,0.78125 -0.65625,1.90625 0,2 1.40625,4.28125 1.4375,2.28125 4,4.4375 l -1.25,1.46875 q -2.9375,-2.5 -4.59375,-5.15625 -1.625,-2.65625 -1.625,-5.03125 z"
         id="path136" />
      <path
         d="m 472.8125,181.0625 v -1.875 h 14.46875 v 1.875 h -2.8125 v 4.78125 q 0,1.9375 -1.3125,3.28125 -1.28125,1.3125 -3.0625,1.3125 -0.25,0 -0.6875,-0.0937 -0.40625,-0.125 -1,-0.34375 1.34375,2.34375 3.15625,4.5 1.84375,2.125 4.125,4.03125 L 484.46875,200 q -3.34375,-2.78125 -6.03125,-6.3125 -2.6875,-3.5625 -4.59375,-7.625 l 1.875,-1.03125 q 0.53125,1.5 1.71875,2.40625 1.21875,0.90625 2.65625,0.90625 0.9375,0 1.59375,-0.71875 0.6875,-0.71875 0.6875,-1.78125 v -4.78125 z"
         id="path138" />
      <path
         d="m 492.25,187.9375 h 7.5 v -6.875 h -7.5 z m -5.8125,-6.875 v -1.875 h 18.9375 v 1.875 h -3.5625 V 200 H 499.75 v -10 h -7.5 v 1.46875 q 0,0.5 -0.1875,0.875 -0.1875,0.375 -0.4375,0.375 -0.71875,0 -2.4375,-1.5625 -1.71875,-1.5625 -1.71875,-2.1875 0,-0.40625 0.3125,-0.71875 0.3125,-0.3125 0.71875,-0.3125 h 1.6875 v -6.875 z"
         id="path140" />
      <path
         d="m 500.15625,207.90625 q -1.78125,0 -3.0625,-1.3125 -1.3125,-1.28125 -1.3125,-3.0625 0,-2.0625 1.53125,-3.53125 1.5,-1.46875 3.65625,-1.46875 2.71875,0 5.21875,2.34375 2.53125,2.375 3.9375,6.1875 l -1.84375,0.84375 q -1.21875,-3.28125 -3.21875,-5.28125 -2,-2 -4.09375,-2 -1.28125,0 -2.1875,0.84375 -0.90625,0.875 -0.90625,2.0625 0,0.96875 0.65625,1.625 0.65625,0.65625 1.625,0.65625 0.5,0 1.09375,-0.28125 0.59375,-0.25 1.1875,-0.75 l 1.03125,1.875 q -0.875,0.625 -1.71875,0.9375 -0.84375,0.3125 -1.59375,0.3125 z"
         id="path142" />
      <path
         d="m 505.5625,187.53125 q 0,-0.4375 0.4375,-0.75 0.4375,-0.3125 1.03125,-0.3125 h 11 v -5.40625 h -13.5 v -1.875 h 19.125 v 1.875 H 520.125 V 200 h -2.09375 V 188.5625 H 512 q -0.5,0 -0.875,0.25 -0.375,0.25 -0.375,0.5625 v 2.09375 q 0,0.5 -0.3125,0.875 -0.3125,0.375 -0.71875,0.375 -0.71875,0 -2.4375,-2.15625 -1.71875,-2.1875 -1.71875,-3.03125 z"
         id="path144" />
      <path
         d="m 522.8125,181.0625 v -1.875 h 3.53125 q -0.53125,-3 -1.96875,-4.9375 -1.40625,-1.9375 -3.03125,-1.9375 -1.21875,0 -2.0625,0.8125 -0.84375,0.78125 -0.84375,1.90625 0,1 0.4375,2 0.4375,0.96875 1.21875,1.75 h -2.28125 q -0.71875,-0.71875 -1.09375,-1.6875 -0.375,-0.96875 -0.375,-2.0625 0,-1.90625 1.46875,-3.21875 1.4375,-1.34375 3.53125,-1.34375 2.40625,0 4.40625,2.46875 2,2.46875 2.65625,6.25 h 3.5625 v 1.875 h -3.5625 V 200 h -2.0625 v -18.9375 z"
         id="path146" />
      <path
         d="m 532.0625,204 1.65625,-7.28125 H 536.75 L 533.625,204 Z"
         id="path148" />
    </g>
    <g
       aria-label="मन मोहक मनाली, आनंदी होऊनी."
       id="text8">
      <path
         d="m 208.39062,237.9375 h 7.5 v -6.875 h -7.5 z m -5.8125,-6.875 v -1.875 h 18.9375 v 1.875 h -3.5625 V 250 h -2.0625 v -10 h -7.5 v 1.46875 q 0,0.5 -0.1875,0.875 -0.1875,0.375 -0.4375,0.375 -0.71875,0 -2.4375,-1.5625 -1.71875,-1.5625 -1.71875,-2.1875 0,-0.40625 0.3125,-0.71875 0.3125,-0.3125 0.71875,-0.3125 h 1.6875 v -6.875 z"
         id="path151" />
      <path
         d="m 221.70312,237.53125 q 0,-0.4375 0.4375,-0.75 0.4375,-0.3125 1.03125,-0.3125 h 11 v -5.40625 h -13.5 v -1.875 h 19.125 v 1.875 h -3.53125 V 250 h -2.09375 v -11.4375 h -6.03125 q -0.5,0 -0.875,0.25 -0.375,0.25 -0.375,0.5625 v 2.09375 q 0,0.5 -0.3125,0.875 -0.3125,0.375 -0.71875,0.375 -0.71875,0 -2.4375,-2.15625 -1.71875,-2.1875 -1.71875,-3.03125 z"
         id="path153" />
      <path
         d="m 254.64062,237.9375 h 7.5 v -6.875 h -7.5 z m -5.8125,-6.875 v -1.875 h 18.9375 v 1.875 h -3.5625 V 250 h -2.0625 v -10 h -7.5 v 1.46875 q 0,0.5 -0.1875,0.875 -0.1875,0.375 -0.4375,0.375 -0.71875,0 -2.4375,-1.5625 -1.71875,-1.5625 -1.71875,-2.1875 0,-0.40625 0.3125,-0.71875 0.3125,-0.3125 0.71875,-0.3125 h 1.6875 v -6.875 z"
         id="path155" />
      <path
         d="m 266.92187,231.0625 v -1.875 h 3.375 l -7.53125,-9.15625 1.4375,-1.25 8.15625,10.40625 h 3.71875 v 1.875 h -3.5625 V 250 h -2.0625 v -18.9375 z"
         id="path157" />
      <path
         d="m 275.23437,231.0625 v -1.875 h 17.3125 v 1.875 h -3.34375 v 5 h -8.53125 q -0.40625,0 -0.71875,0.1875 -0.3125,0.1875 -0.3125,0.4375 0,0.84375 0.625,1.625 0.625,0.78125 1.65625,1.28125 0.65625,-0.28125 1.4375,-0.4375 0.8125,-0.1875 1.6875,-0.1875 2.34375,0 3.96875,1.34375 1.65625,1.3125 1.65625,3.25 0,1.0625 -0.4375,1.96875 -0.4375,0.875 -1.25,1.34375 l -1.65625,-1.4375 q 0.59375,-0.34375 0.90625,-0.84375 0.34375,-0.5 0.34375,-1.03125 0,-1.0625 -1.03125,-1.78125 -1.03125,-0.71875 -2.5,-0.71875 -2.25,0 -3.84375,1.03125 -1.5625,1.03125 -1.5625,2.5 0,1.90625 2.6875,3.25 2.6875,1.3125 6.46875,1.3125 l -0.4375,1.875 q -4.46875,0 -7.65625,-1.875 -3.15625,-1.90625 -3.15625,-4.5625 0,-1.21875 0.59375,-2.28125 0.625,-1.0625 1.6875,-1.6875 -1.0625,-0.90625 -1.6875,-1.9375 -0.59375,-1.03125 -0.59375,-2 0,-1.125 0.90625,-1.90625 0.9375,-0.8125 2.21875,-0.8125 h 6.46875 v -2.90625 z"
         id="path159" />
      <path
         d="m 291.70312,231.0625 v -1.875 h 24.25 v 1.875 h -11 v 5.625 q 0.6875,-1.15625 1.84375,-1.8125 1.15625,-0.6875 2.53125,-0.6875 2,0 3.375,1.65625 1.40625,1.625 1.40625,3.96875 0,2 -1.03125,3.96875 -1.03125,1.9375 -2.90625,3.5 l -1.875,-1.25 q 1.75,-1.21875 2.75,-2.875 1,-1.65625 1,-3.34375 0,-1.46875 -0.8125,-2.5 -0.78125,-1.03125 -1.90625,-1.03125 -1.4375,0 -2.6875,1.09375 -1.21875,1.09375 -1.6875,2.84375 V 250 h -2.0625 v -6.25 q -0.75,0.875 -1.84375,1.375 -1.0625,0.5 -2.3125,0.5 -2.25,0 -3.84375,-1.5625 -1.5625,-1.59375 -1.5625,-3.84375 0,-2.5 1.8125,-4.25 1.84375,-1.78125 4.40625,-1.78125 0.75,0 1.28125,0.125 0.5625,0.0937 0.8125,0.28125 l -0.40625,2.09375 q -0.375,-0.21875 -0.8125,-0.3125 -0.40625,-0.0937 -0.875,-0.0937 -1.6875,0 -2.9375,1.15625 -1.21875,1.15625 -1.21875,2.78125 0,1.375 0.96875,2.375 1,0.96875 2.375,0.96875 1.1875,0 2.3125,-0.71875 1.125,-0.75 1.84375,-2 v -9.78125 z"
         id="path161" />
      <path
         d="m 330.79687,237.9375 h 7.5 v -6.875 h -7.5 z m -5.8125,-6.875 v -1.875 h 18.9375 v 1.875 h -3.5625 V 250 h -2.0625 v -10 h -7.5 v 1.46875 q 0,0.5 -0.1875,0.875 -0.1875,0.375 -0.4375,0.375 -0.71875,0 -2.4375,-1.5625 -1.71875,-1.5625 -1.71875,-2.1875 0,-0.40625 0.3125,-0.71875 0.3125,-0.3125 0.71875,-0.3125 h 1.6875 v -6.875 z"
         id="path163" />
      <path
         d="m 344.10937,237.53125 q 0,-0.4375 0.4375,-0.75 0.4375,-0.3125 1.03125,-0.3125 h 11 v -5.40625 h -13.5 v -1.875 h 19.125 v 1.875 h -3.53125 V 250 h -2.09375 v -11.4375 h -6.03125 q -0.5,0 -0.875,0.25 -0.375,0.25 -0.375,0.5625 v 2.09375 q 0,0.5 -0.3125,0.875 -0.3125,0.375 -0.71875,0.375 -0.71875,0 -2.4375,-2.15625 -1.71875,-2.1875 -1.71875,-3.03125 z"
         id="path165" />
      <path
         d="m 361.35937,231.0625 v -1.875 h 9.15625 v 1.875 h -3.5625 V 250 h -2.0625 v -18.9375 z"
         id="path167" />
      <path
         d="m 369.67187,231.0625 v -1.875 h 23.53125 v 1.875 h -3.53125 V 250 h -2.0625 v -12.46875 q -1.8125,0 -3.375,1.625 -1.5625,1.59375 -2.25,4.1875 l -1.875,-0.625 q 0.15625,-1 0.5,-1.8125 0.34375,-0.8125 0.75,-1.3125 -0.65625,-1 -1.65625,-1.53125 -1,-0.53125 -2.09375,-0.53125 -1.71875,0 -2.9375,1.21875 -1.21875,1.21875 -1.21875,2.9375 0,1.875 1.875,3.71875 1.90625,1.8125 5,2.9375 l -0.84375,1.875 q -3.65625,-1.34375 -5.90625,-3.6875 -2.21875,-2.34375 -2.21875,-4.84375 0,-2.59375 1.8125,-4.40625 1.84375,-1.84375 4.4375,-1.84375 1.53125,0 2.90625,0.625 1.375,0.59375 2.28125,1.65625 0.9375,-1.0625 2.1875,-1.65625 1.25,-0.625 2.625,-0.625 v -4.375 z"
         id="path169" />
      <path
         d="m 392.39062,231.0625 v -1.875 h 3.53125 q -0.53125,-3 -1.96875,-4.9375 -1.40625,-1.9375 -3.03125,-1.9375 -1.21875,0 -2.0625,0.8125 -0.84375,0.78125 -0.84375,1.90625 0,1 0.4375,2 0.4375,0.96875 1.21875,1.75 h -2.28125 q -0.71875,-0.71875 -1.09375,-1.6875 -0.375,-0.96875 -0.375,-2.0625 0,-1.90625 1.46875,-3.21875 1.4375,-1.34375 3.53125,-1.34375 2.40625,0 4.40625,2.46875 2,2.46875 2.65625,6.25 h 3.5625 v 1.875 h -3.5625 V 250 h -2.0625 v -18.9375 z"
         id="path171" />
      <path
         d="m 401.64062,254 1.65625,-7.28125 h 3.03125 L 403.20312,254 Z"
         id="path173" />
      <path
         d="m 431.89062,248.53125 q -2.5,0 -4.84375,-2.0625 -2.34375,-2.09375 -4.09375,-5.84375 l 1.46875,-1.25 q 1.5625,3.375 3.5,5.25 1.96875,1.84375 3.96875,1.84375 1.3125,0 2.21875,-1.09375 0.90625,-1.125 0.90625,-2.65625 0,-1.46875 -1.03125,-2.5 -1.03125,-1.03125 -2.5,-1.03125 -0.46875,0 -1,0.0937 -0.5,0.0937 -1.09375,0.3125 l -0.8125,-1.875 q 1.875,-0.15625 3.3125,-1.34375 1.46875,-1.21875 1.46875,-2.59375 0,-1.125 -0.875,-1.90625 -0.84375,-0.8125 -2.03125,-0.8125 -1,0 -2.21875,0.78125 -1.21875,0.75 -2.375,2.125 l -1.4375,-1.4375 q 1.0625,-1.59375 2.65625,-2.46875 1.625,-0.875 3.375,-0.875 2.0625,0 3.5,1.34375 1.46875,1.3125 1.46875,3.25 0,1.125 -0.5,2.15625 -0.5,1.03125 -1.34375,1.78125 1.40625,0.84375 2.78125,1.25 1.375,0.40625 2.625,0.40625 0.3125,0 0.84375,-0.1875 0.53125,-0.21875 1.21875,-0.625 v -7.5 h -3.75 v -1.875 h 17.90625 v 1.875 h -3.53125 V 250 h -2.09375 v -18.9375 h -6.4375 V 250 h -2.09375 v -9.375 q -0.5,0.4375 -1.03125,0.65625 -0.5,0.1875 -1.03125,0.1875 -0.875,0 -1.59375,-0.15625 -0.71875,-0.1875 -1.125,-0.46875 0.40625,0.34375 0.625,0.9375 0.21875,0.59375 0.21875,1.34375 0,2.25 -1.53125,3.84375 -1.5,1.5625 -3.6875,1.5625 z"
         id="path175" />
      <path
         d="m 455.39062,237.53125 q 0,-0.4375 0.4375,-0.75 0.4375,-0.3125 1.03125,-0.3125 h 11 v -5.40625 h -13.5 v -1.875 h 19.125 v 1.875 h -3.53125 V 250 h -2.09375 v -11.4375 h -6.03125 q -0.5,0 -0.875,0.25 -0.375,0.25 -0.375,0.5625 v 2.09375 q 0,0.5 -0.3125,0.875 -0.3125,0.375 -0.71875,0.375 -0.71875,0 -2.4375,-2.15625 -1.71875,-2.1875 -1.71875,-3.03125 z"
         id="path177" />
      <path
         d="m 467.60937,224.0625 v -2.90625 h 3.125 v 2.90625 z"
         id="path179" />
      <path
         d="m 472.39062,231.0625 v -1.875 h 18 v 1.875 h -3.3125 v 5.40625 h -8.125 q -1.21875,0 -2.0625,0.875 -0.84375,0.84375 -0.84375,2.03125 0,2.25 2.375,3.84375 2.375,1.59375 5.75,1.59375 0,-1.46875 0.65625,-2.5 0.65625,-1.0625 1.625,-1.0625 0.6875,0 1.15625,0.5 0.5,0.46875 0.5,1.1875 0,0.8125 -0.5,1.65625 -0.5,0.84375 -1.375,1.4375 l 2.28125,3.96875 -1.875,0.84375 -2.28125,-4.1875 q -4.3125,0 -7.375,-2.125 -3.03125,-2.15625 -3.03125,-5.15625 0,-2.0625 1.4375,-3.5 1.46875,-1.46875 3.5625,-1.46875 h 6.03125 v -3.34375 z"
         id="path181" />
      <path
         d="m 489.54687,231.0625 v -1.875 h 3.53125 q -0.53125,-3 -1.96875,-4.9375 -1.40625,-1.9375 -3.03125,-1.9375 -1.21875,0 -2.0625,0.8125 -0.84375,0.78125 -0.84375,1.90625 0,1 0.4375,2 0.4375,0.96875 1.21875,1.75 h -2.28125 q -0.71875,-0.71875 -1.09375,-1.6875 -0.375,-0.96875 -0.375,-2.0625 0,-1.90625 1.46875,-3.21875 1.4375,-1.34375 3.53125,-1.34375 2.40625,0 4.40625,2.46875 2,2.46875 2.65625,6.25 h 3.5625 v 1.875 h -3.5625 V 250 h -2.0625 v -18.9375 z"
         id="path183" />
      <path
         d="m 507.73437,231.0625 v -1.875 h 17.3125 v 1.875 h -3.34375 v 5 h -8.53125 q -0.40625,0 -0.71875,0.1875 -0.3125,0.1875 -0.3125,0.4375 0,0.84375 0.625,1.625 0.625,0.78125 1.65625,1.28125 0.65625,-0.28125 1.4375,-0.4375 0.8125,-0.1875 1.6875,-0.1875 2.34375,0 3.96875,1.34375 1.65625,1.3125 1.65625,3.25 0,1.0625 -0.4375,1.96875 -0.4375,0.875 -1.25,1.34375 l -1.65625,-1.4375 q 0.59375,-0.34375 0.90625,-0.84375 0.34375,-0.5 0.34375,-1.03125 0,-1.0625 -1.03125,-1.78125 -1.03125,-0.71875 -2.5,-0.71875 -2.25,0 -3.84375,1.03125 -1.5625,1.03125 -1.5625,2.5 0,1.90625 2.6875,3.25 2.6875,1.3125 6.46875,1.3125 l -0.4375,1.875 q -4.46875,0 -7.65625,-1.875 -3.15625,-1.90625 -3.15625,-4.5625 0,-1.21875 0.59375,-2.28125 0.625,-1.0625 1.6875,-1.6875 -1.0625,-0.90625 -1.6875,-1.9375 -0.59375,-1.03125 -0.59375,-2 0,-1.125 0.90625,-1.90625 0.9375,-0.8125 2.21875,-0.8125 h 6.46875 v -2.90625 z"
         id="path185" />
      <path
         d="m 524.20312,231.0625 v -1.875 h 3.375 l -7.53125,-9.15625 1.4375,-1.25 8.15625,10.40625 h 3.71875 v 1.875 h -3.5625 V 250 h -2.0625 v -18.9375 z"
         id="path187" />
      <path
         d="m 532.51562,231.0625 v -1.875 h 29.625 v 1.875 h -13.75 q 0.6875,0.78125 1.03125,1.65625 0.34375,0.84375 0.34375,1.6875 0,1.40625 -0.625,2.5 -0.625,1.0625 -1.65625,1.4375 1,0.46875 1.625,1.09375 0.625,0.625 0.75,1.25 0.71875,-1.71875 2.09375,-2.75 1.40625,-1.03125 3.03125,-1.03125 2.25,0 3.8125,1.46875 1.59375,1.4375 1.59375,3.5 0,2.09375 -0.9375,3.90625 -0.9375,1.8125 -2.59375,2.96875 l -1.375,-1.53125 q 1.3125,-0.75 2.0625,-2.1875 0.75,-1.4375 0.75,-3.15625 0,-1.28125 -0.96875,-2.1875 -0.96875,-0.9375 -2.34375,-0.9375 -1.5625,0 -2.84375,1.71875 -1.28125,1.71875 -1.75,4.34375 -0.3125,1.96875 -1.9375,3.28125 -1.59375,1.28125 -3.65625,1.28125 -3.3125,0 -6.40625,-3.6875 -3.0625,-3.71875 -4.625,-9.625 l 1.875,-0.84375 q 1.40625,5.34375 3.96875,8.71875 2.5625,3.34375 5.1875,3.34375 1.53125,0 2.625,-1.21875 1.09375,-1.21875 1.09375,-2.9375 0,-1.53125 -1.09375,-2.625 -1.09375,-1.125 -2.625,-1.125 h -3.75 l -0.84375,-1.84375 h 4.15625 q 1.375,0 2.3125,-0.90625 0.96875,-0.9375 0.96875,-2.21875 0,-0.75 -0.53125,-1.625 -0.53125,-0.875 -1.5,-1.71875 z"
         id="path189" />
      <path
         d="m 562.32812,237.53125 q 0,-0.4375 0.4375,-0.75 0.4375,-0.3125 1.03125,-0.3125 h 11 v -5.40625 h -13.5 v -1.875 h 19.125 v 1.875 h -3.53125 V 250 h -2.09375 v -11.4375 h -6.03125 q -0.5,0 -0.875,0.25 -0.375,0.25 -0.375,0.5625 v 2.09375 q 0,0.5 -0.3125,0.875 -0.3125,0.375 -0.71875,0.375 -0.71875,0 -2.4375,-2.15625 -1.71875,-2.1875 -1.71875,-3.03125 z"
         id="path191" />
      <path
         d="m 579.57812,231.0625 v -1.875 h 3.53125 q -0.53125,-3 -1.96875,-4.9375 -1.40625,-1.9375 -3.03125,-1.9375 -1.21875,0 -2.0625,0.8125 -0.84375,0.78125 -0.84375,1.90625 0,1 0.4375,2 0.4375,0.96875 1.21875,1.75 h -2.28125 q -0.71875,-0.71875 -1.09375,-1.6875 -0.375,-0.96875 -0.375,-2.0625 0,-1.90625 1.46875,-3.21875 1.4375,-1.34375 3.53125,-1.34375 2.40625,0 4.40625,2.46875 2,2.46875 2.65625,6.25 h 3.5625 v 1.875 h -3.5625 V 250 h -2.0625 v -18.9375 z"
         id="path193" />
      <path
         d="m 590.64062,250 v -3.28125 h 2.65625 V 250 Z"
         id="path195" />
    </g>
  </g>
</svg>
