<?xml version="1.0" encoding="UTF-8" standalone="no"?>
<svg
   width="800"
   height="350"
   version="1.1"
   id="svg12"
   sodipodi:docname="PawarsirHindi.svg"
   xmlns:inkscape="http://www.inkscape.org/namespaces/inkscape"
   xmlns:sodipodi="http://sodipodi.sourceforge.net/DTD/sodipodi-0.dtd"
   xmlns="http://www.w3.org/2000/svg"
   xmlns:svg="http://www.w3.org/2000/svg">
  <defs
     id="defs16" />
  <sodipodi:namedview
     id="namedview14"
     pagecolor="#ffffff"
     bordercolor="#000000"
     borderopacity="0.25"
     inkscape:showpageshadow="2"
     inkscape:pageopacity="0.0"
     inkscape:pagecheckerboard="0"
     inkscape:deskcolor="#d1d1d1" />
  <g
     font-family="Lohit Devanagari"
     font-size="32"
     text-anchor="middle"
     fill="#000"
     id="g10">
    <g
       aria-label="Pawar sir, a Hindi guide so true,"
       id="text2">
      <path
         d="M 185.28125,100 V 79.1875 h 2.0625 3.46875 q 3.1875,0 5.0625,1.78125 1.90625,1.75 1.90625,4.71875 0,2.96875 -1.90625,4.75 -1.875,1.75 -5.0625,1.75 h -3.46875 V 100 Z m 2.0625,-18.9375 v 9.25 h 3.46875 q 2.21875,0 3.53125,-1.25 1.3125,-1.28125 1.3125,-3.375 0,-2.09375 -1.3125,-3.34375 -1.3125,-1.28125 -3.53125,-1.28125 z"
         id="path18" />
      <path
         d="m 210.4375,98.375 q -1.78125,2.03125 -4.25,2.03125 -2.5625,0 -4.09375,-1.375 -1.5,-1.40625 -1.5,-3.71875 0,-2.34375 1.5,-3.71875 1.53125,-1.375 4.09375,-1.375 2.3125,0 4.09375,1.34375 v -2.09375 q 0,-1.65625 -1,-2.625 -0.96875,-1 -2.59375,-1 -2.4375,0 -3.9375,2.0625 L 201.15625,86.875 q 1.96875,-2.90625 5.53125,-2.90625 2.59375,0 4.125,1.5 1.53125,1.5 1.53125,4 V 100 h -1.90625 z m -4.28125,0.15625 q 2.5625,0 4.125,-2.5 v -2.3125 q -1.53125,-1.625 -4.125,-1.625 -1.625,0 -2.5625,0.875 -0.9375,0.875 -0.9375,2.34375 0,1.46875 0.9375,2.34375 0.9375,0.875 2.5625,0.875 z"
         id="path20" />
      <path
         d="m 226.78125,84.375 3.28125,13.6875 3.875,-13.6875 h 2.09375 l -4.5,15.625 H 228.6875 L 225.8125,88.3125 222.96875,100 H 220.125 l -4.5,-15.625 h 2.09375 l 3.875,13.6875 3.28125,-13.6875 z"
         id="path22" />
      <path
         d="m 248.53125,98.375 q -1.78125,2.03125 -4.25,2.03125 -2.5625,0 -4.09375,-1.375 -1.5,-1.40625 -1.5,-3.71875 0,-2.34375 1.5,-3.71875 1.53125,-1.375 4.09375,-1.375 2.3125,0 4.09375,1.34375 v -2.09375 q 0,-1.65625 -1,-2.625 -0.96875,-1 -2.59375,-1 -2.4375,0 -3.9375,2.0625 L 239.25,86.875 q 1.96875,-2.90625 5.53125,-2.90625 2.59375,0 4.125,1.5 1.53125,1.5 1.53125,4 V 100 h -1.90625 z M 244.25,98.53125 q 2.5625,0 4.125,-2.5 v -2.3125 q -1.53125,-1.625 -4.125,-1.625 -1.625,0 -2.5625,0.875 -0.9375,0.875 -0.9375,2.34375 0,1.46875 0.9375,2.34375 0.9375,0.875 2.5625,0.875 z"
         id="path24" />
      <path
         d="M 262.9375,86.09375 262.03125,86 q -2.875,0 -4.21875,3.21875 V 100 H 255.75 V 84.375 h 1.90625 v 2.1875 q 1.78125,-2.59375 4.40625,-2.59375 0.6875,0 1.21875,0.09375 z"
         id="path26" />
      <path
         d="m 282.1875,97.90625 q 0.875,-0.625 0.875,-1.65625 0,-1.03125 -0.84375,-1.71875 -0.8125,-0.71875 -2,-1.15625 -1.1875,-0.4375 -2.40625,-0.96875 -1.1875,-0.53125 -2.03125,-1.53125 -0.8125,-1 -0.8125,-2.46875 0,-2.03125 1.375,-3.21875 1.375,-1.21875 3.6875,-1.21875 3.125,0 4.96875,2.5625 l -1.5625,1.0625 q -1.25,-1.75 -3.40625,-1.75 -1.375,0 -2.1875,0.6875 -0.8125,0.6875 -0.8125,1.875 0,1 0.8125,1.65625 0.84375,0.65625 2.03125,1.09375 1.21875,0.40625 2.40625,0.9375 1.1875,0.5 2,1.5625 0.84375,1.03125 0.84375,2.59375 0,1.90625 -1.4375,3.03125 -1.40625,1.125 -3.78125,1.125 -3.375,0 -5.34375,-2.96875 l 1.5625,-1.0625 q 1.375,2.15625 3.78125,2.15625 1.4375,0 2.28125,-0.625 z"
         id="path28" />
      <path
         d="m 291.40625,100 h -2.0625 V 84.375 h 2.0625 z m -2.0625,-19.71875 q -0.40625,-0.40625 -0.40625,-1 0,-0.59375 0.40625,-1 0.4375,-0.4375 1.03125,-0.4375 0.59375,0 1,0.4375 0.4375,0.40625 0.4375,1 0,0.59375 -0.4375,1 -0.40625,0.40625 -1,0.40625 -0.59375,0 -1.03125,-0.40625 z"
         id="path30" />
      <path
         d="M 304.21875,86.09375 303.3125,86 q -2.875,0 -4.21875,3.21875 V 100 h -2.0625 V 84.375 h 1.90625 v 2.1875 q 1.78125,-2.59375 4.40625,-2.59375 0.6875,0 1.21875,0.09375 z"
         id="path32" />
      <path
         d="M 305.09375,104 306.75,96.71875 h 3.03125 L 306.65625,104 Z"
         id="path34" />
      <path
         d="m 337.375,98.375 q -1.78125,2.03125 -4.25,2.03125 -2.5625,0 -4.09375,-1.375 -1.5,-1.40625 -1.5,-3.71875 0,-2.34375 1.5,-3.71875 1.53125,-1.375 4.09375,-1.375 2.3125,0 4.09375,1.34375 v -2.09375 q 0,-1.65625 -1,-2.625 -0.96875,-1 -2.59375,-1 -2.4375,0 -3.9375,2.0625 L 328.09375,86.875 q 1.96875,-2.90625 5.53125,-2.90625 2.59375,0 4.125,1.5 1.53125,1.5 1.53125,4 V 100 H 337.375 Z m -4.28125,0.15625 q 2.5625,0 4.125,-2.5 v -2.3125 q -1.53125,-1.625 -4.125,-1.625 -1.625,0 -2.5625,0.875 -0.9375,0.875 -0.9375,2.34375 0,1.46875 0.9375,2.34375 0.9375,0.875 2.5625,0.875 z"
         id="path36" />
      <path
         d="M 354.78125,100 V 79.1875 h 2.0625 v 9.46875 h 8.96875 V 79.1875 h 2.0625 V 100 h -2.0625 v -9.46875 h -8.96875 V 100 Z"
         id="path38" />
      <path
         d="m 375.875,100 h -2.0625 V 84.375 h 2.0625 z m -2.0625,-19.71875 q -0.40625,-0.40625 -0.40625,-1 0,-0.59375 0.40625,-1 0.4375,-0.4375 1.03125,-0.4375 0.59375,0 1,0.4375 0.4375,0.40625 0.4375,1 0,0.59375 -0.4375,1 -0.40625,0.40625 -1,0.40625 -0.59375,0 -1.03125,-0.40625 z"
         id="path40" />
      <path
         d="m 393.25,100 h -2.0625 V 89.25 q 0,-3.40625 -3.21875,-3.40625 -2.875,0 -4.40625,2.5625 V 100 H 381.5 V 84.375 h 1.90625 v 1.71875 q 1.875,-2.125 4.5625,-2.125 2.59375,0 3.9375,1.375 Q 393.25,86.6875 393.25,89.25 Z"
         id="path42" />
      <path
         d="m 409.6875,100 h -1.90625 v -1.65625 q -1.875,2.0625 -4.5,2.0625 -2.75,0 -4.375,-2.21875 -1.59375,-2.21875 -1.59375,-6 0,-3.78125 1.71875,-6 1.71875,-2.21875 4.59375,-2.21875 2.34375,0 4,1.375 V 78.125 h 2.0625 z M 407.625,88 q -1.40625,-2.15625 -4.03125,-2.15625 -1.9375,0 -3.09375,1.71875 -1.125,1.71875 -1.125,4.625 0,2.90625 1.03125,4.625 1.0625,1.71875 2.84375,1.71875 2.78125,0 4.375,-2.71875 z"
         id="path44" />
      <path
         d="m 417.375,100 h -2.0625 V 84.375 h 2.0625 z m -2.0625,-19.71875 q -0.40625,-0.40625 -0.40625,-1 0,-0.59375 0.40625,-1 0.4375,-0.4375 1.03125,-0.4375 0.59375,0 1,0.4375 0.4375,0.40625 0.4375,1 0,0.59375 -0.4375,1 -0.40625,0.40625 -1,0.40625 -0.59375,0 -1.03125,-0.40625 z"
         id="path46" />
      <path
         d="m 444,101.1875 q 0,2.65625 -1.53125,4.125 -1.5,1.5 -4.1875,1.5 -3.90625,0 -5.8125,-3.40625 l 1.6875,-1.0625 q 1.3125,2.53125 4.125,2.53125 1.75,0 2.6875,-0.96875 0.96875,-0.9375 0.96875,-2.71875 V 98.09375 Q 440.125,100 437.59375,100 434.875,100 433.25,97.90625 q -1.625,-2.125 -1.625,-5.6875 0,-3.78125 1.71875,-6 Q 435.0625,84 437.9375,84 q 2.46875,0 4.15625,1.84375 v -1.4375 H 444 Z m -2.0625,-12.5 q -0.53125,-1.3125 -1.625,-2.0625 -1.0625,-0.75 -2.40625,-0.75 -1.9375,0 -3.09375,1.71875 -1.125,1.71875 -1.125,4.625 0,2.6875 1.03125,4.3125 1.0625,1.59375 2.84375,1.59375 2.78125,0 4.375,-2.71875 z"
         id="path48" />
      <path
         d="m 449.3125,84.375 h 2.0625 v 10.75 q 0,3.40625 3.21875,3.40625 2.875,0 4.40625,-3 V 84.375 h 2.0625 V 100 h -1.90625 v -1.9375 q -1.875,2.34375 -4.5625,2.34375 -5.28125,0 -5.28125,-5.28125 z"
         id="path50" />
      <path
         d="m 468.75,100 h -2.0625 V 84.375 h 2.0625 z m -2.0625,-19.71875 q -0.40625,-0.40625 -0.40625,-1 0,-0.59375 0.40625,-1 0.4375,-0.4375 1.03125,-0.4375 0.59375,0 1,0.4375 0.4375,0.40625 0.4375,1 0,0.59375 -0.4375,1 -0.40625,0.40625 -1,0.40625 -0.59375,0 -1.03125,-0.40625 z"
         id="path52" />
      <path
         d="m 485.5,100 h -1.90625 v -1.65625 q -1.875,2.0625 -4.5,2.0625 -2.75,0 -4.375,-2.21875 -1.59375,-2.21875 -1.59375,-6 0,-3.78125 1.71875,-6 1.71875,-2.21875 4.59375,-2.21875 2.34375,0 4,1.375 V 78.125 H 485.5 Z m -2.0625,-12 q -1.40625,-2.15625 -4.03125,-2.15625 -1.9375,0 -3.09375,1.71875 -1.125,1.71875 -1.125,4.625 0,2.90625 1.03125,4.625 1.0625,1.71875 2.84375,1.71875 2.78125,0 4.375,-2.71875 z"
         id="path54" />
      <path
         d="m 496.28125,100.40625 q -2.9375,0 -4.6875,-2.21875 -1.71875,-2.25 -1.71875,-6 0,-3.75 1.71875,-5.96875 1.75,-2.25 4.6875,-2.25 2.84375,0 4.5,2.0625 1.6875,2.0625 1.6875,5.5 v 1.1875 H 491.9375 q 0.125,2.6875 1.28125,4.25 1.15625,1.5625 3.0625,1.5625 2.53125,0 3.9375,-2.125 L 501.875,97.5 q -2,2.90625 -5.59375,2.90625 z m 0,-14.5625 q -1.75,0 -2.90625,1.34375 Q 492.25,88.5 492,90.84375 h 8.375 Q 500.21875,88.53125 499.09375,87.1875 498,85.84375 496.28125,85.84375 Z"
         id="path56" />
      <path
         d="m 523.09375,97.90625 q 0.875,-0.625 0.875,-1.65625 0,-1.03125 -0.84375,-1.71875 -0.8125,-0.71875 -2,-1.15625 -1.1875,-0.4375 -2.40625,-0.96875 -1.1875,-0.53125 -2.03125,-1.53125 -0.8125,-1 -0.8125,-2.46875 0,-2.03125 1.375,-3.21875 1.375,-1.21875 3.6875,-1.21875 3.125,0 4.96875,2.5625 l -1.5625,1.0625 q -1.25,-1.75 -3.40625,-1.75 -1.375,0 -2.1875,0.6875 -0.8125,0.6875 -0.8125,1.875 0,1 0.8125,1.65625 0.84375,0.65625 2.03125,1.09375 1.21875,0.40625 2.40625,0.9375 1.1875,0.5 2,1.5625 0.84375,1.03125 0.84375,2.59375 0,1.90625 -1.4375,3.03125 -1.40625,1.125 -3.78125,1.125 -3.375,0 -5.34375,-2.96875 l 1.5625,-1.0625 q 1.375,2.15625 3.78125,2.15625 1.4375,0 2.28125,-0.625 z"
         id="path58" />
      <path
         d="M 530.6875,98.21875 Q 529,96.03125 529,92.1875 q 0,-3.84375 1.6875,-6.03125 1.71875,-2.1875 4.71875,-2.1875 3.03125,0 4.75,2.1875 1.71875,2.1875 1.71875,6.03125 0,3.84375 -1.71875,6.03125 -1.71875,2.1875 -4.75,2.1875 -3,0 -4.71875,-2.1875 z m 1.53125,-10.6875 q -1.15625,1.6875 -1.15625,4.65625 0,2.96875 1.15625,4.65625 1.15625,1.6875 3.1875,1.6875 2.0625,0 3.21875,-1.6875 1.1875,-1.6875 1.1875,-4.65625 0,-2.96875 -1.1875,-4.65625 -1.15625,-1.6875 -3.21875,-1.6875 -2.03125,0 -3.1875,1.6875 z"
         id="path60" />
      <path
         d="m 554.40625,84.375 h 2.125 V 81.25 h 2.0625 v 3.125 h 4 v 1.875 h -4 v 10.3125 q 0,0.90625 0.4375,1.4375 0.46875,0.53125 1.21875,0.53125 1.28125,0 2.09375,-1 l 1.3125,1.125 q -1.21875,1.75 -3.40625,1.75 -1.71875,0 -2.71875,-1.03125 -1,-1.03125 -1,-2.8125 V 86.25 h -2.125 z"
         id="path62" />
      <path
         d="M 573.34375,86.09375 572.4375,86 q -2.875,0 -4.21875,3.21875 V 100 h -2.0625 V 84.375 h 1.90625 v 2.1875 q 1.78125,-2.59375 4.40625,-2.59375 0.6875,0 1.21875,0.09375 z"
         id="path64" />
      <path
         d="m 576.1875,84.375 h 2.0625 v 10.75 q 0,3.40625 3.21875,3.40625 2.875,0 4.40625,-3 V 84.375 h 2.0625 V 100 h -1.90625 v -1.9375 q -1.875,2.34375 -4.5625,2.34375 -5.28125,0 -5.28125,-5.28125 z"
         id="path66" />
      <path
         d="m 598.71875,100.40625 q -2.9375,0 -4.6875,-2.21875 -1.71875,-2.25 -1.71875,-6 0,-3.75 1.71875,-5.96875 1.75,-2.25 4.6875,-2.25 2.84375,0 4.5,2.0625 1.6875,2.0625 1.6875,5.5 v 1.1875 H 594.375 q 0.125,2.6875 1.28125,4.25 1.15625,1.5625 3.0625,1.5625 2.53125,0 3.9375,-2.125 L 604.3125,97.5 q -2,2.90625 -5.59375,2.90625 z m 0,-14.5625 q -1.75,0 -2.90625,1.34375 -1.125,1.3125 -1.375,3.65625 h 8.375 q -0.15625,-2.3125 -1.28125,-3.65625 -1.09375,-1.34375 -2.8125,-1.34375 z"
         id="path68" />
      <path
         d="m 607.15625,104 1.65625,-7.28125 h 3.03125 L 608.71875,104 Z"
         id="path70" />
    </g>
    <g
       aria-label="His lessons clear, the language new."
       id="text4">
      <path
         d="m 157.57812,150 v -20.8125 h 2.0625 v 9.46875 h 8.96875 v -9.46875 h 2.0625 V 150 h -2.0625 v -9.46875 h -8.96875 V 150 Z"
         id="path73" />
      <path
         d="m 178.67187,150 h -2.0625 v -15.625 h 2.0625 z m -2.0625,-19.71875 q -0.40625,-0.40625 -0.40625,-1 0,-0.59375 0.40625,-1 0.4375,-0.4375 1.03125,-0.4375 0.59375,0 1,0.4375 0.4375,0.40625 0.4375,1 0,0.59375 -0.4375,1 -0.40625,0.40625 -1,0.40625 -0.59375,0 -1.03125,-0.40625 z"
         id="path75" />
      <path
         d="m 190.51562,147.90625 q 0.875,-0.625 0.875,-1.65625 0,-1.03125 -0.84375,-1.71875 -0.8125,-0.71875 -2,-1.15625 -1.1875,-0.4375 -2.40625,-0.96875 -1.1875,-0.53125 -2.03125,-1.53125 -0.8125,-1 -0.8125,-2.46875 0,-2.03125 1.375,-3.21875 1.375,-1.21875 3.6875,-1.21875 3.125,0 4.96875,2.5625 l -1.5625,1.0625 q -1.25,-1.75 -3.40625,-1.75 -1.375,0 -2.1875,0.6875 -0.8125,0.6875 -0.8125,1.875 0,1 0.8125,1.65625 0.84375,0.65625 2.03125,1.09375 1.21875,0.40625 2.40625,0.9375 1.1875,0.5 2,1.5625 0.84375,1.03125 0.84375,2.59375 0,1.90625 -1.4375,3.03125 -1.40625,1.125 -3.78125,1.125 -3.375,0 -5.34375,-2.96875 l 1.5625,-1.0625 q 1.375,2.15625 3.78125,2.15625 1.4375,0 2.28125,-0.625 z"
         id="path77" />
      <path
         d="m 209.60937,150 h -2.0625 v -21.875 h 2.0625 z"
         id="path79" />
      <path
         d="m 220.39062,150.40625 q -2.9375,0 -4.6875,-2.21875 -1.71875,-2.25 -1.71875,-6 0,-3.75 1.71875,-5.96875 1.75,-2.25 4.6875,-2.25 2.84375,0 4.5,2.0625 1.6875,2.0625 1.6875,5.5 v 1.1875 h -10.53125 q 0.125,2.6875 1.28125,4.25 1.15625,1.5625 3.0625,1.5625 2.53125,0 3.9375,-2.125 l 1.65625,1.09375 q -2,2.90625 -5.59375,2.90625 z m 0,-14.5625 q -1.75,0 -2.90625,1.34375 -1.125,1.3125 -1.375,3.65625 h 8.375 q -0.15625,-2.3125 -1.28125,-3.65625 -1.09375,-1.34375 -2.8125,-1.34375 z"
         id="path81" />
      <path
         d="m 237.32812,147.90625 q 0.875,-0.625 0.875,-1.65625 0,-1.03125 -0.84375,-1.71875 -0.8125,-0.71875 -2,-1.15625 -1.1875,-0.4375 -2.40625,-0.96875 -1.1875,-0.53125 -2.03125,-1.53125 -0.8125,-1 -0.8125,-2.46875 0,-2.03125 1.375,-3.21875 1.375,-1.21875 3.6875,-1.21875 3.125,0 4.96875,2.5625 l -1.5625,1.0625 q -1.25,-1.75 -3.40625,-1.75 -1.375,0 -2.1875,0.6875 -0.8125,0.6875 -0.8125,1.875 0,1 0.8125,1.65625 0.84375,0.65625 2.03125,1.09375 1.21875,0.40625 2.40625,0.9375 1.1875,0.5 2,1.5625 0.84375,1.03125 0.84375,2.59375 0,1.90625 -1.4375,3.03125 -1.40625,1.125 -3.78125,1.125 -3.375,0 -5.34375,-2.96875 l 1.5625,-1.0625 q 1.375,2.15625 3.78125,2.15625 1.4375,0 2.28125,-0.625 z"
         id="path83" />
      <path
         d="m 250.70312,147.90625 q 0.875,-0.625 0.875,-1.65625 0,-1.03125 -0.84375,-1.71875 -0.8125,-0.71875 -2,-1.15625 -1.1875,-0.4375 -2.40625,-0.96875 -1.1875,-0.53125 -2.03125,-1.53125 -0.8125,-1 -0.8125,-2.46875 0,-2.03125 1.375,-3.21875 1.375,-1.21875 3.6875,-1.21875 3.125,0 4.96875,2.5625 l -1.5625,1.0625 q -1.25,-1.75 -3.40625,-1.75 -1.375,0 -2.1875,0.6875 -0.8125,0.6875 -0.8125,1.875 0,1 0.8125,1.65625 0.84375,0.65625 2.03125,1.09375 1.21875,0.40625 2.40625,0.9375 1.1875,0.5 2,1.5625 0.84375,1.03125 0.84375,2.59375 0,1.90625 -1.4375,3.03125 -1.40625,1.125 -3.78125,1.125 -3.375,0 -5.34375,-2.96875 l 1.5625,-1.0625 q 1.375,2.15625 3.78125,2.15625 1.4375,0 2.28125,-0.625 z"
         id="path85" />
      <path
         d="m 258.29687,148.21875 q -1.6875,-2.1875 -1.6875,-6.03125 0,-3.84375 1.6875,-6.03125 1.71875,-2.1875 4.71875,-2.1875 3.03125,0 4.75,2.1875 1.71875,2.1875 1.71875,6.03125 0,3.84375 -1.71875,6.03125 -1.71875,2.1875 -4.75,2.1875 -3,0 -4.71875,-2.1875 z m 1.53125,-10.6875 q -1.15625,1.6875 -1.15625,4.65625 0,2.96875 1.15625,4.65625 1.15625,1.6875 3.1875,1.6875 2.0625,0 3.21875,-1.6875 1.1875,-1.6875 1.1875,-4.65625 0,-2.96875 -1.1875,-4.65625 -1.15625,-1.6875 -3.21875,-1.6875 -2.03125,0 -3.1875,1.6875 z"
         id="path87" />
      <path
         d="m 285.60937,150 h -2.0625 v -10.75 q 0,-3.40625 -3.21875,-3.40625 -2.875,0 -4.40625,2.5625 V 150 h -2.0625 v -15.625 h 1.90625 v 1.71875 q 1.875,-2.125 4.5625,-2.125 2.59375,0 3.9375,1.375 1.34375,1.34375 1.34375,3.90625 z"
         id="path89" />
      <path
         d="m 297.14062,147.90625 q 0.875,-0.625 0.875,-1.65625 0,-1.03125 -0.84375,-1.71875 -0.8125,-0.71875 -2,-1.15625 -1.1875,-0.4375 -2.40625,-0.96875 -1.1875,-0.53125 -2.03125,-1.53125 -0.8125,-1 -0.8125,-2.46875 0,-2.03125 1.375,-3.21875 1.375,-1.21875 3.6875,-1.21875 3.125,0 4.96875,2.5625 l -1.5625,1.0625 q -1.25,-1.75 -3.40625,-1.75 -1.375,0 -2.1875,0.6875 -0.8125,0.6875 -0.8125,1.875 0,1 0.8125,1.65625 0.84375,0.65625 2.03125,1.09375 1.21875,0.40625 2.40625,0.9375 1.1875,0.5 2,1.5625 0.84375,1.03125 0.84375,2.59375 0,1.90625 -1.4375,3.03125 -1.40625,1.125 -3.78125,1.125 -3.375,0 -5.34375,-2.96875 l 1.5625,-1.0625 q 1.375,2.15625 3.78125,2.15625 1.4375,0 2.28125,-0.625 z"
         id="path91" />
      <path
         d="m 324.32812,147.6875 q -1.90625,2.71875 -5.28125,2.71875 -2.8125,0 -4.46875,-2.21875 -1.65625,-2.21875 -1.65625,-6 0,-3.78125 1.65625,-6 1.65625,-2.21875 4.46875,-2.21875 3.25,0 5.03125,2.4375 L 322.42187,137.5 q -1.1875,-1.65625 -3.375,-1.65625 -1.84375,0 -2.96875,1.71875 -1.09375,1.71875 -1.09375,4.625 0,2.90625 1.09375,4.625 1.125,1.71875 2.96875,1.71875 2.34375,0 3.625,-1.9375 z"
         id="path93" />
      <path
         d="m 329.51562,150 h -2.0625 v -21.875 h 2.0625 z"
         id="path95" />
      <path
         d="m 340.29687,150.40625 q -2.9375,0 -4.6875,-2.21875 -1.71875,-2.25 -1.71875,-6 0,-3.75 1.71875,-5.96875 1.75,-2.25 4.6875,-2.25 2.84375,0 4.5,2.0625 1.6875,2.0625 1.6875,5.5 v 1.1875 h -10.53125 q 0.125,2.6875 1.28125,4.25 1.15625,1.5625 3.0625,1.5625 2.53125,0 3.9375,-2.125 l 1.65625,1.09375 q -2,2.90625 -5.59375,2.90625 z m 0,-14.5625 q -1.75,0 -2.90625,1.34375 -1.125,1.3125 -1.375,3.65625 h 8.375 q -0.15625,-2.3125 -1.28125,-3.65625 -1.09375,-1.34375 -2.8125,-1.34375 z"
         id="path97" />
      <path
         d="m 359.92187,148.375 q -1.78125,2.03125 -4.25,2.03125 -2.5625,0 -4.09375,-1.375 -1.5,-1.40625 -1.5,-3.71875 0,-2.34375 1.5,-3.71875 1.53125,-1.375 4.09375,-1.375 2.3125,0 4.09375,1.34375 v -2.09375 q 0,-1.65625 -1,-2.625 -0.96875,-1 -2.59375,-1 -2.4375,0 -3.9375,2.0625 l -1.59375,-1.03125 q 1.96875,-2.90625 5.53125,-2.90625 2.59375,0 4.125,1.5 1.53125,1.5 1.53125,4 V 150 h -1.90625 z m -4.28125,0.15625 q 2.5625,0 4.125,-2.5 v -2.3125 q -1.53125,-1.625 -4.125,-1.625 -1.625,0 -2.5625,0.875 -0.9375,0.875 -0.9375,2.34375 0,1.46875 0.9375,2.34375 0.9375,0.875 2.5625,0.875 z"
         id="path99" />
      <path
         d="M 374.32812,136.09375 373.42187,136 q -2.875,0 -4.21875,3.21875 V 150 h -2.0625 v -15.625 h 1.90625 v 2.1875 q 1.78125,-2.59375 4.40625,-2.59375 0.6875,0 1.21875,0.0937 z"
         id="path101" />
      <path
         d="m 375.20312,154 1.65625,-7.28125 h 3.03125 L 376.76562,154 Z"
         id="path103" />
      <path
         d="m 396.85937,134.375 h 2.125 v -3.125 h 2.0625 v 3.125 h 4 v 1.875 h -4 v 10.3125 q 0,0.90625 0.4375,1.4375 0.46875,0.53125 1.21875,0.53125 1.28125,0 2.09375,-1 l 1.3125,1.125 q -1.21875,1.75 -3.40625,1.75 -1.71875,0 -2.71875,-1.03125 -1,-1.03125 -1,-2.8125 V 136.25 h -2.125 z"
         id="path105" />
      <path
         d="m 420.35937,150 h -2.0625 v -10.75 q 0,-3.40625 -3.21875,-3.40625 -2.875,0 -4.40625,2.5625 V 150 h -2.0625 v -21.875 h 2.0625 v 7.78125 q 1.84375,-1.9375 4.40625,-1.9375 2.59375,0 3.9375,1.375 1.34375,1.34375 1.34375,3.90625 z"
         id="path107" />
      <path
         d="m 430.82812,150.40625 q -2.9375,0 -4.6875,-2.21875 -1.71875,-2.25 -1.71875,-6 0,-3.75 1.71875,-5.96875 1.75,-2.25 4.6875,-2.25 2.84375,0 4.5,2.0625 1.6875,2.0625 1.6875,5.5 v 1.1875 h -10.53125 q 0.125,2.6875 1.28125,4.25 1.15625,1.5625 3.0625,1.5625 2.53125,0 3.9375,-2.125 l 1.65625,1.09375 q -2,2.90625 -5.59375,2.90625 z m 0,-14.5625 q -1.75,0 -2.90625,1.34375 -1.125,1.3125 -1.375,3.65625 h 8.375 q -0.15625,-2.3125 -1.28125,-3.65625 -1.09375,-1.34375 -2.8125,-1.34375 z"
         id="path109" />
      <path
         d="m 453.48437,150 h -2.0625 v -21.875 h 2.0625 z"
         id="path111" />
      <path
         d="m 468.01562,148.375 q -1.78125,2.03125 -4.25,2.03125 -2.5625,0 -4.09375,-1.375 -1.5,-1.40625 -1.5,-3.71875 0,-2.34375 1.5,-3.71875 1.53125,-1.375 4.09375,-1.375 2.3125,0 4.09375,1.34375 v -2.09375 q 0,-1.65625 -1,-2.625 -0.96875,-1 -2.59375,-1 -2.4375,0 -3.9375,2.0625 l -1.59375,-1.03125 q 1.96875,-2.90625 5.53125,-2.90625 2.59375,0 4.125,1.5 1.53125,1.5 1.53125,4 V 150 h -1.90625 z m -4.28125,0.15625 q 2.5625,0 4.125,-2.5 v -2.3125 q -1.53125,-1.625 -4.125,-1.625 -1.625,0 -2.5625,0.875 -0.9375,0.875 -0.9375,2.34375 0,1.46875 0.9375,2.34375 0.9375,0.875 2.5625,0.875 z"
         id="path113" />
      <path
         d="m 486.98437,150 h -2.0625 v -10.75 q 0,-3.40625 -3.21875,-3.40625 -2.875,0 -4.40625,2.5625 V 150 h -2.0625 v -15.625 h 1.90625 v 1.71875 q 1.875,-2.125 4.5625,-2.125 2.59375,0 3.9375,1.375 1.34375,1.34375 1.34375,3.90625 z"
         id="path115" />
      <path
         d="m 503.42187,151.1875 q 0,2.65625 -1.53125,4.125 -1.5,1.5 -4.1875,1.5 -3.90625,0 -5.8125,-3.40625 l 1.6875,-1.0625 q 1.3125,2.53125 4.125,2.53125 1.75,0 2.6875,-0.96875 0.96875,-0.9375 0.96875,-2.71875 v -3.09375 Q 499.54687,150 497.01562,150 q -2.71875,0 -4.34375,-2.09375 -1.625,-2.125 -1.625,-5.6875 0,-3.78125 1.71875,-6 Q 494.48437,134 497.35937,134 q 2.46875,0 4.15625,1.84375 v -1.4375 h 1.90625 z m -2.0625,-12.5 q -0.53125,-1.3125 -1.625,-2.0625 -1.0625,-0.75 -2.40625,-0.75 -1.9375,0 -3.09375,1.71875 -1.125,1.71875 -1.125,4.625 0,2.6875 1.03125,4.3125 1.0625,1.59375 2.84375,1.59375 2.78125,0 4.375,-2.71875 z"
         id="path117" />
      <path
         d="m 508.73437,134.375 h 2.0625 v 10.75 q 0,3.40625 3.21875,3.40625 2.875,0 4.40625,-3 V 134.375 h 2.0625 V 150 h -1.90625 v -1.9375 q -1.875,2.34375 -4.5625,2.34375 -5.28125,0 -5.28125,-5.28125 z"
         id="path119" />
      <path
         d="m 535.01562,148.375 q -1.78125,2.03125 -4.25,2.03125 -2.5625,0 -4.09375,-1.375 -1.5,-1.40625 -1.5,-3.71875 0,-2.34375 1.5,-3.71875 1.53125,-1.375 4.09375,-1.375 2.3125,0 4.09375,1.34375 v -2.09375 q 0,-1.65625 -1,-2.625 -0.96875,-1 -2.59375,-1 -2.4375,0 -3.9375,2.0625 l -1.59375,-1.03125 q 1.96875,-2.90625 5.53125,-2.90625 2.59375,0 4.125,1.5 1.53125,1.5 1.53125,4 V 150 h -1.90625 z m -4.28125,0.15625 q 2.5625,0 4.125,-2.5 v -2.3125 q -1.53125,-1.625 -4.125,-1.625 -1.625,0 -2.5625,0.875 -0.9375,0.875 -0.9375,2.34375 0,1.46875 0.9375,2.34375 0.9375,0.875 2.5625,0.875 z"
         id="path121" />
      <path
         d="m 553.35937,151.1875 q 0,2.65625 -1.53125,4.125 -1.5,1.5 -4.1875,1.5 -3.90625,0 -5.8125,-3.40625 l 1.6875,-1.0625 q 1.3125,2.53125 4.125,2.53125 1.75,0 2.6875,-0.96875 0.96875,-0.9375 0.96875,-2.71875 v -3.09375 Q 549.48437,150 546.95312,150 q -2.71875,0 -4.34375,-2.09375 -1.625,-2.125 -1.625,-5.6875 0,-3.78125 1.71875,-6 Q 544.42187,134 547.29687,134 q 2.46875,0 4.15625,1.84375 v -1.4375 h 1.90625 z m -2.0625,-12.5 q -0.53125,-1.3125 -1.625,-2.0625 -1.0625,-0.75 -2.40625,-0.75 -1.9375,0 -3.09375,1.71875 -1.125,1.71875 -1.125,4.625 0,2.6875 1.03125,4.3125 1.0625,1.59375 2.84375,1.59375 2.78125,0 4.375,-2.71875 z"
         id="path123" />
      <path
         d="m 564.14062,150.40625 q -2.9375,0 -4.6875,-2.21875 -1.71875,-2.25 -1.71875,-6 0,-3.75 1.71875,-5.96875 1.75,-2.25 4.6875,-2.25 2.84375,0 4.5,2.0625 1.6875,2.0625 1.6875,5.5 v 1.1875 h -10.53125 q 0.125,2.6875 1.28125,4.25 1.15625,1.5625 3.0625,1.5625 2.53125,0 3.9375,-2.125 l 1.65625,1.09375 q -2,2.90625 -5.59375,2.90625 z m 0,-14.5625 q -1.75,0 -2.90625,1.34375 -1.125,1.3125 -1.375,3.65625 h 8.375 q -0.15625,-2.3125 -1.28125,-3.65625 -1.09375,-1.34375 -2.8125,-1.34375 z"
         id="path125" />
      <path
         d="m 596.48437,150 h -2.0625 v -10.75 q 0,-3.40625 -3.21875,-3.40625 -2.875,0 -4.40625,2.5625 V 150 h -2.0625 v -15.625 h 1.90625 v 1.71875 q 1.875,-2.125 4.5625,-2.125 2.59375,0 3.9375,1.375 1.34375,1.34375 1.34375,3.90625 z"
         id="path127" />
      <path
         d="m 606.95312,150.40625 q -2.9375,0 -4.6875,-2.21875 -1.71875,-2.25 -1.71875,-6 0,-3.75 1.71875,-5.96875 1.75,-2.25 4.6875,-2.25 2.84375,0 4.5,2.0625 1.6875,2.0625 1.6875,5.5 v 1.1875 h -10.53125 q 0.125,2.6875 1.28125,4.25 1.15625,1.5625 3.0625,1.5625 2.53125,0 3.9375,-2.125 l 1.65625,1.09375 q -2,2.90625 -5.59375,2.90625 z m 0,-14.5625 q -1.75,0 -2.90625,1.34375 -1.125,1.3125 -1.375,3.65625 h 8.375 q -0.15625,-2.3125 -1.28125,-3.65625 -1.09375,-1.34375 -2.8125,-1.34375 z"
         id="path129" />
      <path
         d="m 626.79687,134.375 3.28125,13.6875 3.875,-13.6875 h 2.09375 l -4.5,15.625 h -2.84375 l -2.875,-11.6875 L 622.98437,150 h -2.84375 l -4.5,-15.625 h 2.09375 l 3.875,13.6875 3.28125,-13.6875 z"
         id="path131" />
      <path
         d="m 639.17187,150 v -3.28125 h 2.65625 V 150 Z"
         id="path133" />
    </g>
    <g
       aria-label="With grammar's grace, and words so bright,"
       id="text6">
      <path
         d="m 118.57813,179.1875 4.28125,18.9375 4.9375,-18.9375 h 2.06249 L 124.39063,200 h -2.9375 L 117.51563,182.1875 113.60938,200 h -2.9375 l -5.46875,-20.8125 h 2.0625 l 4.9375,18.9375 4.28125,-18.9375 z"
         id="path136" />
      <path
         d="m 135.04687,200 h -2.0625 v -15.625 h 2.0625 z m -2.0625,-19.71875 q -0.40625,-0.40625 -0.40625,-1 0,-0.59375 0.40625,-1 0.4375,-0.4375 1.03125,-0.4375 0.59375,0 1,0.4375 0.4375,0.40625 0.4375,1 0,0.59375 -0.4375,1 -0.40625,0.40625 -1,0.40625 -0.59375,0 -1.03125,-0.40625 z"
         id="path138" />
      <path
         d="m 138.95312,184.375 h 2.125 v -3.125 h 2.0625 v 3.125 h 4 v 1.875 h -4 v 10.3125 q 0,0.90625 0.4375,1.4375 0.46875,0.53125 1.21875,0.53125 1.28125,0 2.09375,-1 l 1.3125,1.125 q -1.21875,1.75 -3.40625,1.75 -1.71875,0 -2.71875,-1.03125 -1,-1.03125 -1,-2.8125 V 186.25 h -2.125 z"
         id="path140" />
      <path
         d="m 162.45312,200 h -2.0625 v -10.75 q 0,-3.40625 -3.21875,-3.40625 -2.875,0 -4.40625,2.5625 V 200 h -2.0625 v -21.875 h 2.0625 v 7.78125 q 1.84375,-1.9375 4.40625,-1.9375 2.59375,0 3.9375,1.375 1.34375,1.34375 1.34375,3.90625 z"
         id="path142" />
      <path
         d="m 188.76562,201.1875 q 0,2.65625 -1.53125,4.125 -1.5,1.5 -4.1875,1.5 -3.90625,0 -5.8125,-3.40625 l 1.6875,-1.0625 q 1.3125,2.53125 4.125,2.53125 1.75,0 2.6875,-0.96875 0.96875,-0.9375 0.96875,-2.71875 v -3.09375 Q 184.89062,200 182.35937,200 q -2.71875,0 -4.34375,-2.09375 -1.625,-2.125 -1.625,-5.6875 0,-3.78125 1.71875,-6 Q 179.82812,184 182.70312,184 q 2.46875,0 4.15625,1.84375 v -1.4375 h 1.90625 z m -2.0625,-12.5 q -0.53125,-1.3125 -1.625,-2.0625 -1.0625,-0.75 -2.40625,-0.75 -1.9375,0 -3.09375,1.71875 -1.125,1.71875 -1.125,4.625 0,2.6875 1.03125,4.3125 1.0625,1.59375 2.84375,1.59375 2.78125,0 4.375,-2.71875 z"
         id="path144" />
      <path
         d="M 201.57812,186.09375 200.67187,186 q -2.875,0 -4.21875,3.21875 V 200 h -2.0625 v -15.625 h 1.90625 v 2.1875 q 1.78125,-2.59375 4.40625,-2.59375 0.6875,0 1.21875,0.0937 z"
         id="path146" />
      <path
         d="m 213.64062,198.375 q -1.78125,2.03125 -4.25,2.03125 -2.5625,0 -4.09375,-1.375 -1.5,-1.40625 -1.5,-3.71875 0,-2.34375 1.5,-3.71875 1.53125,-1.375 4.09375,-1.375 2.3125,0 4.09375,1.34375 v -2.09375 q 0,-1.65625 -1,-2.625 -0.96875,-1 -2.59375,-1 -2.4375,0 -3.9375,2.0625 l -1.59375,-1.03125 q 1.96875,-2.90625 5.53125,-2.90625 2.59375,0 4.125,1.5 1.53125,1.5 1.53125,4 V 200 h -1.90625 z m -4.28125,0.15625 q 2.5625,0 4.125,-2.5 v -2.3125 q -1.53125,-1.625 -4.125,-1.625 -1.625,0 -2.5625,0.875 -0.9375,0.875 -0.9375,2.34375 0,1.46875 0.9375,2.34375 0.9375,0.875 2.5625,0.875 z"
         id="path148" />
      <path
         d="m 231.98437,200 h -2.0625 v -10.75 q 0,-3.40625 -2.96875,-3.40625 -2.625,0 -4.03125,2.46875 V 200 h -2.0625 v -15.625 h 1.90625 v 1.59375 q 1.75,-2 4.15625,-2 3.34375,0 4.5,2.46875 1.84375,-2.46875 4.5625,-2.46875 2.46875,0 3.75,1.375 1.3125,1.34375 1.3125,3.90625 V 200 h -2.0625 v -10.75 q 0,-3.40625 -2.96875,-3.40625 -2.65625,0 -4.09375,2.53125 0.0625,0.5625 0.0625,0.875 z"
         id="path150" />
      <path
         d="m 257.48437,200 h -2.0625 v -10.75 q 0,-3.40625 -2.96875,-3.40625 -2.625,0 -4.03125,2.46875 V 200 h -2.0625 v -15.625 h 1.90625 v 1.59375 q 1.75,-2 4.15625,-2 3.34375,0 4.5,2.46875 1.84375,-2.46875 4.5625,-2.46875 2.46875,0 3.75,1.375 1.3125,1.34375 1.3125,3.90625 V 200 h -2.0625 v -10.75 q 0,-3.40625 -2.96875,-3.40625 -2.65625,0 -4.09375,2.53125 0.0625,0.5625 0.0625,0.875 z"
         id="path152" />
      <path
         d="m 280.76562,198.375 q -1.78125,2.03125 -4.25,2.03125 -2.5625,0 -4.09375,-1.375 -1.5,-1.40625 -1.5,-3.71875 0,-2.34375 1.5,-3.71875 1.53125,-1.375 4.09375,-1.375 2.3125,0 4.09375,1.34375 v -2.09375 q 0,-1.65625 -1,-2.625 -0.96875,-1 -2.59375,-1 -2.4375,0 -3.9375,2.0625 l -1.59375,-1.03125 q 1.96875,-2.90625 5.53125,-2.90625 2.59375,0 4.125,1.5 1.53125,1.5 1.53125,4 V 200 h -1.90625 z m -4.28125,0.15625 q 2.5625,0 4.125,-2.5 v -2.3125 q -1.53125,-1.625 -4.125,-1.625 -1.625,0 -2.5625,0.875 -0.9375,0.875 -0.9375,2.34375 0,1.46875 0.9375,2.34375 0.9375,0.875 2.5625,0.875 z"
         id="path154" />
      <path
         d="M 295.17187,186.09375 294.26562,186 q -2.875,0 -4.21875,3.21875 V 200 h -2.0625 v -15.625 h 1.90625 v 2.1875 q 1.78125,-2.59375 4.40625,-2.59375 0.6875,0 1.21875,0.0937 z"
         id="path156" />
      <path
         d="m 297.51562,182.96875 -0.4375,-6.40625 h 2.53125 l -0.46875,6.40625 z"
         id="path158" />
      <path
         d="m 310.20312,197.90625 q 0.875,-0.625 0.875,-1.65625 0,-1.03125 -0.84375,-1.71875 -0.8125,-0.71875 -2,-1.15625 -1.1875,-0.4375 -2.40625,-0.96875 -1.1875,-0.53125 -2.03125,-1.53125 -0.8125,-1 -0.8125,-2.46875 0,-2.03125 1.375,-3.21875 1.375,-1.21875 3.6875,-1.21875 3.125,0 4.96875,2.5625 l -1.5625,1.0625 q -1.25,-1.75 -3.40625,-1.75 -1.375,0 -2.1875,0.6875 -0.8125,0.6875 -0.8125,1.875 0,1 0.8125,1.65625 0.84375,0.65625 2.03125,1.09375 1.21875,0.40625 2.40625,0.9375 1.1875,0.5 2,1.5625 0.84375,1.03125 0.84375,2.59375 0,1.90625 -1.4375,3.03125 -1.40625,1.125 -3.78125,1.125 -3.375,0 -5.34375,-2.96875 l 1.5625,-1.0625 q 1.375,2.15625 3.78125,2.15625 1.4375,0 2.28125,-0.625 z"
         id="path160" />
      <path
         d="m 338.35937,201.1875 q 0,2.65625 -1.53125,4.125 -1.5,1.5 -4.1875,1.5 -3.90625,0 -5.8125,-3.40625 l 1.6875,-1.0625 q 1.3125,2.53125 4.125,2.53125 1.75,0 2.6875,-0.96875 0.96875,-0.9375 0.96875,-2.71875 v -3.09375 Q 334.48437,200 331.95312,200 q -2.71875,0 -4.34375,-2.09375 -1.625,-2.125 -1.625,-5.6875 0,-3.78125 1.71875,-6 Q 329.42187,184 332.29687,184 q 2.46875,0 4.15625,1.84375 v -1.4375 h 1.90625 z m -2.0625,-12.5 q -0.53125,-1.3125 -1.625,-2.0625 -1.0625,-0.75 -2.40625,-0.75 -1.9375,0 -3.09375,1.71875 -1.125,1.71875 -1.125,4.625 0,2.6875 1.03125,4.3125 1.0625,1.59375 2.84375,1.59375 2.78125,0 4.375,-2.71875 z"
         id="path162" />
      <path
         d="M 351.17187,186.09375 350.26562,186 q -2.875,0 -4.21875,3.21875 V 200 h -2.0625 v -15.625 h 1.90625 v 2.1875 q 1.78125,-2.59375 4.40625,-2.59375 0.6875,0 1.21875,0.0937 z"
         id="path164" />
      <path
         d="m 363.23437,198.375 q -1.78125,2.03125 -4.25,2.03125 -2.5625,0 -4.09375,-1.375 -1.5,-1.40625 -1.5,-3.71875 0,-2.34375 1.5,-3.71875 1.53125,-1.375 4.09375,-1.375 2.3125,0 4.09375,1.34375 v -2.09375 q 0,-1.65625 -1,-2.625 -0.96875,-1 -2.59375,-1 -2.4375,0 -3.9375,2.0625 l -1.59375,-1.03125 q 1.96875,-2.90625 5.53125,-2.90625 2.59375,0 4.125,1.5 1.53125,1.5 1.53125,4 V 200 h -1.90625 z m -4.28125,0.15625 q 2.5625,0 4.125,-2.5 v -2.3125 q -1.53125,-1.625 -4.125,-1.625 -1.625,0 -2.5625,0.875 -0.9375,0.875 -0.9375,2.34375 0,1.46875 0.9375,2.34375 0.9375,0.875 2.5625,0.875 z"
         id="path166" />
      <path
         d="m 380.60937,197.6875 q -1.90625,2.71875 -5.28125,2.71875 -2.8125,0 -4.46875,-2.21875 -1.65625,-2.21875 -1.65625,-6 0,-3.78125 1.65625,-6 1.65625,-2.21875 4.46875,-2.21875 3.25,0 5.03125,2.4375 L 378.70312,187.5 q -1.1875,-1.65625 -3.375,-1.65625 -1.84375,0 -2.96875,1.71875 -1.09375,1.71875 -1.09375,4.625 0,2.90625 1.09375,4.625 1.125,1.71875 2.96875,1.71875 2.34375,0 3.625,-1.9375 z"
         id="path168" />
      <path
         d="m 388.89062,200.40625 q -2.9375,0 -4.6875,-2.21875 -1.71875,-2.25 -1.71875,-6 0,-3.75 1.71875,-5.96875 1.75,-2.25 4.6875,-2.25 2.84375,0 4.5,2.0625 1.6875,2.0625 1.6875,5.5 v 1.1875 h -10.53125 q 0.125,2.6875 1.28125,4.25 1.15625,1.5625 3.0625,1.5625 2.53125,0 3.9375,-2.125 l 1.65625,1.09375 q -2,2.90625 -5.59375,2.90625 z m 0,-14.5625 q -1.75,0 -2.90625,1.34375 -1.125,1.3125 -1.375,3.65625 h 8.375 q -0.15625,-2.3125 -1.28125,-3.65625 -1.09375,-1.34375 -2.8125,-1.34375 z"
         id="path170" />
      <path
         d="m 397.32812,204 1.65625,-7.28125 h 3.03125 L 398.89062,204 Z"
         id="path172" />
      <path
         d="m 429.60937,198.375 q -1.78125,2.03125 -4.25,2.03125 -2.5625,0 -4.09375,-1.375 -1.5,-1.40625 -1.5,-3.71875 0,-2.34375 1.5,-3.71875 1.53125,-1.375 4.09375,-1.375 2.3125,0 4.09375,1.34375 v -2.09375 q 0,-1.65625 -1,-2.625 -0.96875,-1 -2.59375,-1 -2.4375,0 -3.9375,2.0625 l -1.59375,-1.03125 q 1.96875,-2.90625 5.53125,-2.90625 2.59375,0 4.125,1.5 1.53125,1.5 1.53125,4 V 200 h -1.90625 z m -4.28125,0.15625 q 2.5625,0 4.125,-2.5 v -2.3125 q -1.53125,-1.625 -4.125,-1.625 -1.625,0 -2.5625,0.875 -0.9375,0.875 -0.9375,2.34375 0,1.46875 0.9375,2.34375 0.9375,0.875 2.5625,0.875 z"
         id="path174" />
      <path
         d="m 448.57812,200 h -2.0625 v -10.75 q 0,-3.40625 -3.21875,-3.40625 -2.875,0 -4.40625,2.5625 V 200 h -2.0625 v -15.625 h 1.90625 v 1.71875 q 1.875,-2.125 4.5625,-2.125 2.59375,0 3.9375,1.375 1.34375,1.34375 1.34375,3.90625 z"
         id="path176" />
      <path
         d="m 465.01562,200 h -1.90625 v -1.65625 q -1.875,2.0625 -4.5,2.0625 -2.75,0 -4.375,-2.21875 -1.59375,-2.21875 -1.59375,-6 0,-3.78125 1.71875,-6 1.71875,-2.21875 4.59375,-2.21875 2.34375,0 4,1.375 V 178.125 h 2.0625 z m -2.0625,-12 q -1.40625,-2.15625 -4.03125,-2.15625 -1.9375,0 -3.09375,1.71875 -1.125,1.71875 -1.125,4.625 0,2.90625 1.03125,4.625 1.0625,1.71875 2.84375,1.71875 2.78125,0 4.375,-2.71875 z"
         id="path178" />
      <path
         d="m 489.64062,184.375 3.28125,13.6875 3.875,-13.6875 h 2.09375 l -4.5,15.625 h -2.84375 l -2.875,-11.6875 L 485.82812,200 h -2.84375 l -4.5,-15.625 h 2.09375 l 3.875,13.6875 3.28125,-13.6875 z"
         id="path180" />
      <path
         d="m 502.92187,198.21875 q -1.6875,-2.1875 -1.6875,-6.03125 0,-3.84375 1.6875,-6.03125 1.71875,-2.1875 4.71875,-2.1875 3.03125,0 4.75,2.1875 1.71875,2.1875 1.71875,6.03125 0,3.84375 -1.71875,6.03125 -1.71875,2.1875 -4.75,2.1875 -3,0 -4.71875,-2.1875 z m 1.53125,-10.6875 q -1.15625,1.6875 -1.15625,4.65625 0,2.96875 1.15625,4.65625 1.15625,1.6875 3.1875,1.6875 2.0625,0 3.21875,-1.6875 1.1875,-1.6875 1.1875,-4.65625 0,-2.96875 -1.1875,-4.65625 -1.15625,-1.6875 -3.21875,-1.6875 -2.03125,0 -3.1875,1.6875 z"
         id="path182" />
      <path
         d="M 525.67187,186.09375 524.76562,186 q -2.875,0 -4.21875,3.21875 V 200 h -2.0625 v -15.625 h 1.90625 v 2.1875 q 1.78125,-2.59375 4.40625,-2.59375 0.6875,0 1.21875,0.0937 z"
         id="path184" />
      <path
         d="m 539.95312,200 h -1.90625 v -1.65625 q -1.875,2.0625 -4.5,2.0625 -2.75,0 -4.375,-2.21875 -1.59375,-2.21875 -1.59375,-6 0,-3.78125 1.71875,-6 1.71875,-2.21875 4.59375,-2.21875 2.34375,0 4,1.375 V 178.125 h 2.0625 z m -2.0625,-12 q -1.40625,-2.15625 -4.03125,-2.15625 -1.9375,0 -3.09375,1.71875 -1.125,1.71875 -1.125,4.625 0,2.90625 1.03125,4.625 1.0625,1.71875 2.84375,1.71875 2.78125,0 4.375,-2.71875 z"
         id="path186" />
      <path
         d="m 551.79687,197.90625 q 0.875,-0.625 0.875,-1.65625 0,-1.03125 -0.84375,-1.71875 -0.8125,-0.71875 -2,-1.15625 -1.1875,-0.4375 -2.40625,-0.96875 -1.1875,-0.53125 -2.03125,-1.53125 -0.8125,-1 -0.8125,-2.46875 0,-2.03125 1.375,-3.21875 1.375,-1.21875 3.6875,-1.21875 3.125,0 4.96875,2.5625 l -1.5625,1.0625 q -1.25,-1.75 -3.40625,-1.75 -1.375,0 -2.1875,0.6875 -0.8125,0.6875 -0.8125,1.875 0,1 0.8125,1.65625 0.84375,0.65625 2.03125,1.09375 1.21875,0.40625 2.40625,0.9375 1.1875,0.5 2,1.5625 0.84375,1.03125 0.84375,2.59375 0,1.90625 -1.4375,3.03125 -1.40625,1.125 -3.78125,1.125 -3.375,0 -5.34375,-2.96875 l 1.5625,-1.0625 q 1.375,2.15625 3.78125,2.15625 1.4375,0 2.28125,-0.625 z"
         id="path188" />
      <path
         d="m 575.04687,197.90625 q 0.875,-0.625 0.875,-1.65625 0,-1.03125 -0.84375,-1.71875 -0.8125,-0.71875 -2,-1.15625 -1.1875,-0.4375 -2.40625,-0.96875 -1.1875,-0.53125 -2.03125,-1.53125 -0.8125,-1 -0.8125,-2.46875 0,-2.03125 1.375,-3.21875 1.375,-1.21875 3.6875,-1.21875 3.125,0 4.96875,2.5625 l -1.5625,1.0625 q -1.25,-1.75 -3.40625,-1.75 -1.375,0 -2.1875,0.6875 -0.8125,0.6875 -0.8125,1.875 0,1 0.8125,1.65625 0.84375,0.65625 2.03125,1.09375 1.21875,0.40625 2.40625,0.9375 1.1875,0.5 2,1.5625 0.84375,1.03125 0.84375,2.59375 0,1.90625 -1.4375,3.03125 -1.40625,1.125 -3.78125,1.125 -3.375,0 -5.34375,-2.96875 l 1.5625,-1.0625 q 1.375,2.15625 3.78125,2.15625 1.4375,0 2.28125,-0.625 z"
         id="path190" />
      <path
         d="m 582.64062,198.21875 q -1.6875,-2.1875 -1.6875,-6.03125 0,-3.84375 1.6875,-6.03125 1.71875,-2.1875 4.71875,-2.1875 3.03125,0 4.75,2.1875 1.71875,2.1875 1.71875,6.03125 0,3.84375 -1.71875,6.03125 -1.71875,2.1875 -4.75,2.1875 -3,0 -4.71875,-2.1875 z m 1.53125,-10.6875 q -1.15625,1.6875 -1.15625,4.65625 0,2.96875 1.15625,4.65625 1.15625,1.6875 3.1875,1.6875 2.0625,0 3.21875,-1.6875 1.1875,-1.6875 1.1875,-4.65625 0,-2.96875 -1.1875,-4.65625 -1.15625,-1.6875 -3.21875,-1.6875 -2.03125,0 -3.1875,1.6875 z"
         id="path192" />
      <path
         d="m 608.07812,178.125 h 2.0625 v 7.75 q 1.8125,-1.90625 4.34375,-1.90625 2.75,0 4.34375,2.21875 1.625,2.21875 1.625,6 0,3.78125 -1.71875,6 -1.71875,2.21875 -4.59375,2.21875 -2.5,0 -4.15625,-1.8125 V 200 h -1.90625 z m 2.0625,17.59375 q 0.5,1.3125 1.5625,2.0625 1.09375,0.75 2.46875,0.75 1.9375,0 3.0625,-1.71875 1.15625,-1.71875 1.15625,-4.625 0,-2.90625 -1.0625,-4.625 -1.03125,-1.71875 -2.8125,-1.71875 -2.75,0 -4.375,2.71875 z"
         id="path194" />
      <path
         d="M 632.01562,186.09375 631.10937,186 q -2.875,0 -4.21875,3.21875 V 200 h -2.0625 v -15.625 h 1.90625 v 2.1875 q 1.78125,-2.59375 4.40625,-2.59375 0.6875,0 1.21875,0.0937 z"
         id="path196" />
      <path
         d="m 637.23437,200 h -2.0625 v -15.625 h 2.0625 z m -2.0625,-19.71875 q -0.40625,-0.40625 -0.40625,-1 0,-0.59375 0.40625,-1 0.4375,-0.4375 1.03125,-0.4375 0.59375,0 1,0.4375 0.4375,0.40625 0.4375,1 0,0.59375 -0.4375,1 -0.40625,0.40625 -1,0.40625 -0.59375,0 -1.03125,-0.40625 z"
         id="path198" />
      <path
         d="m 653.98437,201.1875 q 0,2.65625 -1.53125,4.125 -1.5,1.5 -4.1875,1.5 -3.90625,0 -5.8125,-3.40625 l 1.6875,-1.0625 q 1.3125,2.53125 4.125,2.53125 1.75,0 2.6875,-0.96875 0.96875,-0.9375 0.96875,-2.71875 v -3.09375 Q 650.10937,200 647.57812,200 q -2.71875,0 -4.34375,-2.09375 -1.625,-2.125 -1.625,-5.6875 0,-3.78125 1.71875,-6 Q 645.04687,184 647.92187,184 q 2.46875,0 4.15625,1.84375 v -1.4375 h 1.90625 z m -2.0625,-12.5 q -0.53125,-1.3125 -1.625,-2.0625 -1.0625,-0.75 -2.40625,-0.75 -1.9375,0 -3.09375,1.71875 -1.125,1.71875 -1.125,4.625 0,2.6875 1.03125,4.3125 1.0625,1.59375 2.84375,1.59375 2.78125,0 4.375,-2.71875 z"
         id="path200" />
      <path
         d="m 671.35937,200 h -2.0625 v -10.75 q 0,-3.40625 -3.21875,-3.40625 -2.875,0 -4.40625,2.5625 V 200 h -2.0625 v -21.875 h 2.0625 v 7.78125 q 1.84375,-1.9375 4.40625,-1.9375 2.59375,0 3.9375,1.375 1.34375,1.34375 1.34375,3.90625 z"
         id="path202" />
      <path
         d="m 674.95312,184.375 h 2.125 v -3.125 h 2.0625 v 3.125 h 4 v 1.875 h -4 v 10.3125 q 0,0.90625 0.4375,1.4375 0.46875,0.53125 1.21875,0.53125 1.28125,0 2.09375,-1 l 1.3125,1.125 q -1.21875,1.75 -3.40625,1.75 -1.71875,0 -2.71875,-1.03125 -1,-1.03125 -1,-2.8125 V 186.25 h -2.125 z"
         id="path204" />
      <path
         d="m 684.42187,204 1.65625,-7.28125 h 3.03125 L 685.98437,204 Z"
         id="path206" />
    </g>
    <g
       aria-label="He lights our path, a shining light."
       id="text8">
      <path
         d="m 171.92187,250 v -20.8125 h 2.0625 v 9.46875 h 8.96875 v -9.46875 h 2.0625 V 250 h -2.0625 v -9.46875 h -8.96875 V 250 Z"
         id="path209" />
      <path
         d="m 196.10937,250.40625 q -2.9375,0 -4.6875,-2.21875 -1.71875,-2.25 -1.71875,-6 0,-3.75 1.71875,-5.96875 1.75,-2.25 4.6875,-2.25 2.84375,0 4.5,2.0625 1.6875,2.0625 1.6875,5.5 v 1.1875 h -10.53125 q 0.125,2.6875 1.28125,4.25 1.15625,1.5625 3.0625,1.5625 2.53125,0 3.9375,-2.125 l 1.65625,1.09375 q -2,2.90625 -5.59375,2.90625 z m 0,-14.5625 q -1.75,0 -2.90625,1.34375 -1.125,1.3125 -1.375,3.65625 h 8.375 q -0.15625,-2.3125 -1.28125,-3.65625 -1.09375,-1.34375 -2.8125,-1.34375 z"
         id="path211" />
      <path
         d="m 218.76562,250 h -2.0625 v -21.875 h 2.0625 z"
         id="path213" />
      <path
         d="m 226.45312,250 h -2.0625 v -15.625 h 2.0625 z m -2.0625,-19.71875 q -0.40625,-0.40625 -0.40625,-1 0,-0.59375 0.40625,-1 0.4375,-0.4375 1.03125,-0.4375 0.59375,0 1,0.4375 0.4375,0.40625 0.4375,1 0,0.59375 -0.4375,1 -0.40625,0.40625 -1,0.40625 -0.59375,0 -1.03125,-0.40625 z"
         id="path215" />
      <path
         d="m 243.20312,251.1875 q 0,2.65625 -1.53125,4.125 -1.5,1.5 -4.1875,1.5 -3.90625,0 -5.8125,-3.40625 l 1.6875,-1.0625 q 1.3125,2.53125 4.125,2.53125 1.75,0 2.6875,-0.96875 0.96875,-0.9375 0.96875,-2.71875 v -3.09375 Q 239.32812,250 236.79687,250 q -2.71875,0 -4.34375,-2.09375 -1.625,-2.125 -1.625,-5.6875 0,-3.78125 1.71875,-6 Q 234.26562,234 237.14062,234 q 2.46875,0 4.15625,1.84375 v -1.4375 h 1.90625 z m -2.0625,-12.5 q -0.53125,-1.3125 -1.625,-2.0625 -1.0625,-0.75 -2.40625,-0.75 -1.9375,0 -3.09375,1.71875 -1.125,1.71875 -1.125,4.625 0,2.6875 1.03125,4.3125 1.0625,1.59375 2.84375,1.59375 2.78125,0 4.375,-2.71875 z"
         id="path217" />
      <path
         d="m 260.57812,250 h -2.0625 v -10.75 q 0,-3.40625 -3.21875,-3.40625 -2.875,0 -4.40625,2.5625 V 250 h -2.0625 v -21.875 h 2.0625 v 7.78125 q 1.84375,-1.9375 4.40625,-1.9375 2.59375,0 3.9375,1.375 1.34375,1.34375 1.34375,3.90625 z"
         id="path219" />
      <path
         d="m 264.17187,234.375 h 2.125 v -3.125 h 2.0625 v 3.125 h 4 v 1.875 h -4 v 10.3125 q 0,0.90625 0.4375,1.4375 0.46875,0.53125 1.21875,0.53125 1.28125,0 2.09375,-1 l 1.3125,1.125 q -1.21875,1.75 -3.40625,1.75 -1.71875,0 -2.71875,-1.03125 -1,-1.03125 -1,-2.8125 V 236.25 h -2.125 z"
         id="path221" />
      <path
         d="m 282.14062,247.90625 q 0.875,-0.625 0.875,-1.65625 0,-1.03125 -0.84375,-1.71875 -0.8125,-0.71875 -2,-1.15625 -1.1875,-0.4375 -2.40625,-0.96875 -1.1875,-0.53125 -2.03125,-1.53125 -0.8125,-1 -0.8125,-2.46875 0,-2.03125 1.375,-3.21875 1.375,-1.21875 3.6875,-1.21875 3.125,0 4.96875,2.5625 l -1.5625,1.0625 q -1.25,-1.75 -3.40625,-1.75 -1.375,0 -2.1875,0.6875 -0.8125,0.6875 -0.8125,1.875 0,1 0.8125,1.65625 0.84375,0.65625 2.03125,1.09375 1.21875,0.40625 2.40625,0.9375 1.1875,0.5 2,1.5625 0.84375,1.03125 0.84375,2.59375 0,1.90625 -1.4375,3.03125 -1.40625,1.125 -3.78125,1.125 -3.375,0 -5.34375,-2.96875 l 1.5625,-1.0625 q 1.375,2.15625 3.78125,2.15625 1.4375,0 2.28125,-0.625 z"
         id="path223" />
      <path
         d="m 299.60937,248.21875 q -1.6875,-2.1875 -1.6875,-6.03125 0,-3.84375 1.6875,-6.03125 1.71875,-2.1875 4.71875,-2.1875 3.03125,0 4.75,2.1875 1.71875,2.1875 1.71875,6.03125 0,3.84375 -1.71875,6.03125 -1.71875,2.1875 -4.75,2.1875 -3,0 -4.71875,-2.1875 z m 1.53125,-10.6875 q -1.15625,1.6875 -1.15625,4.65625 0,2.96875 1.15625,4.65625 1.15625,1.6875 3.1875,1.6875 2.0625,0 3.21875,-1.6875 1.1875,-1.6875 1.1875,-4.65625 0,-2.96875 -1.1875,-4.65625 -1.15625,-1.6875 -3.21875,-1.6875 -2.03125,0 -3.1875,1.6875 z"
         id="path225" />
      <path
         d="m 314.85937,234.375 h 2.0625 v 10.75 q 0,3.40625 3.21875,3.40625 2.875,0 4.40625,-3 V 234.375 h 2.0625 V 250 h -1.90625 v -1.9375 q -1.875,2.34375 -4.5625,2.34375 -5.28125,0 -5.28125,-5.28125 z"
         id="path227" />
      <path
         d="M 339.42187,236.09375 338.51562,236 q -2.875,0 -4.21875,3.21875 V 250 h -2.0625 v -15.625 h 1.90625 v 2.1875 q 1.78125,-2.59375 4.40625,-2.59375 0.6875,0 1.21875,0.0937 z"
         id="path229" />
      <path
         d="m 352.45312,234.40625 h 1.90625 v 1.6875 q 1.84375,-2.09375 4.5,-2.09375 2.75,0 4.34375,2.21875 1.625,2.21875 1.625,6 0,3.78125 -1.71875,6 -1.71875,2.21875 -4.59375,2.21875 -2.34375,0 -4,-1.375 v 7.34375 h -2.0625 z m 2.0625,12 q 1.40625,2.15625 4.03125,2.15625 1.9375,0 3.0625,-1.71875 1.15625,-1.71875 1.15625,-4.625 0,-2.90625 -1.0625,-4.625 -1.03125,-1.71875 -2.8125,-1.71875 -2.75,0 -4.375,2.71875 z"
         id="path231" />
      <path
         d="m 378.10937,248.375 q -1.78125,2.03125 -4.25,2.03125 -2.5625,0 -4.09375,-1.375 -1.5,-1.40625 -1.5,-3.71875 0,-2.34375 1.5,-3.71875 1.53125,-1.375 4.09375,-1.375 2.3125,0 4.09375,1.34375 v -2.09375 q 0,-1.65625 -1,-2.625 -0.96875,-1 -2.59375,-1 -2.4375,0 -3.9375,2.0625 l -1.59375,-1.03125 q 1.96875,-2.90625 5.53125,-2.90625 2.59375,0 4.125,1.5 1.53125,1.5 1.53125,4 V 250 h -1.90625 z m -4.28125,0.15625 q 2.5625,0 4.125,-2.5 v -2.3125 q -1.53125,-1.625 -4.125,-1.625 -1.625,0 -2.5625,0.875 -0.9375,0.875 -0.9375,2.34375 0,1.46875 0.9375,2.34375 0.9375,0.875 2.5625,0.875 z"
         id="path233" />
      <path
         d="m 383.60937,234.375 h 2.125 v -3.125 h 2.0625 v 3.125 h 4 v 1.875 h -4 v 10.3125 q 0,0.90625 0.4375,1.4375 0.46875,0.53125 1.21875,0.53125 1.28125,0 2.09375,-1 l 1.3125,1.125 q -1.21875,1.75 -3.40625,1.75 -1.71875,0 -2.71875,-1.03125 -1,-1.03125 -1,-2.8125 V 236.25 h -2.125 z"
         id="path235" />
      <path
         d="m 407.10937,250 h -2.0625 v -10.75 q 0,-3.40625 -3.21875,-3.40625 -2.875,0 -4.40625,2.5625 V 250 h -2.0625 v -21.875 h 2.0625 v 7.78125 q 1.84375,-1.9375 4.40625,-1.9375 2.59375,0 3.9375,1.375 1.34375,1.34375 1.34375,3.90625 z"
         id="path237" />
      <path
         d="m 410.14062,254 1.65625,-7.28125 h 3.03125 L 411.70312,254 Z"
         id="path239" />
      <path
         d="m 442.42187,248.375 q -1.78125,2.03125 -4.25,2.03125 -2.5625,0 -4.09375,-1.375 -1.5,-1.40625 -1.5,-3.71875 0,-2.34375 1.5,-3.71875 1.53125,-1.375 4.09375,-1.375 2.3125,0 4.09375,1.34375 v -2.09375 q 0,-1.65625 -1,-2.625 -0.96875,-1 -2.59375,-1 -2.4375,0 -3.9375,2.0625 l -1.59375,-1.03125 q 1.96875,-2.90625 5.53125,-2.90625 2.59375,0 4.125,1.5 1.53125,1.5 1.53125,4 V 250 h -1.90625 z m -4.28125,0.15625 q 2.5625,0 4.125,-2.5 v -2.3125 q -1.53125,-1.625 -4.125,-1.625 -1.625,0 -2.5625,0.875 -0.9375,0.875 -0.9375,2.34375 0,1.46875 0.9375,2.34375 0.9375,0.875 2.5625,0.875 z"
         id="path241" />
      <path
         d="m 465.73437,247.90625 q 0.875,-0.625 0.875,-1.65625 0,-1.03125 -0.84375,-1.71875 -0.8125,-0.71875 -2,-1.15625 -1.1875,-0.4375 -2.40625,-0.96875 -1.1875,-0.53125 -2.03125,-1.53125 -0.8125,-1 -0.8125,-2.46875 0,-2.03125 1.375,-3.21875 1.375,-1.21875 3.6875,-1.21875 3.125,0 4.96875,2.5625 l -1.5625,1.0625 q -1.25,-1.75 -3.40625,-1.75 -1.375,0 -2.1875,0.6875 -0.8125,0.6875 -0.8125,1.875 0,1 0.8125,1.65625 0.84375,0.65625 2.03125,1.09375 1.21875,0.40625 2.40625,0.9375 1.1875,0.5 2,1.5625 0.84375,1.03125 0.84375,2.59375 0,1.90625 -1.4375,3.03125 -1.40625,1.125 -3.78125,1.125 -3.375,0 -5.34375,-2.96875 l 1.5625,-1.0625 q 1.375,2.15625 3.78125,2.15625 1.4375,0 2.28125,-0.625 z"
         id="path243" />
      <path
         d="m 484.64062,250 h -2.0625 v -10.75 q 0,-3.40625 -3.21875,-3.40625 -2.875,0 -4.40625,2.5625 V 250 h -2.0625 v -21.875 h 2.0625 v 7.78125 q 1.84375,-1.9375 4.40625,-1.9375 2.59375,0 3.9375,1.375 1.34375,1.34375 1.34375,3.90625 z"
         id="path245" />
      <path
         d="m 492.01562,250 h -2.0625 v -15.625 h 2.0625 z m -2.0625,-19.71875 q -0.40625,-0.40625 -0.40625,-1 0,-0.59375 0.40625,-1 0.4375,-0.4375 1.03125,-0.4375 0.59375,0 1,0.4375 0.4375,0.40625 0.4375,1 0,0.59375 -0.4375,1 -0.40625,0.40625 -1,0.40625 -0.59375,0 -1.03125,-0.40625 z"
         id="path247" />
      <path
         d="m 509.39062,250 h -2.0625 v -10.75 q 0,-3.40625 -3.21875,-3.40625 -2.875,0 -4.40625,2.5625 V 250 h -2.0625 v -15.625 h 1.90625 v 1.71875 q 1.875,-2.125 4.5625,-2.125 2.59375,0 3.9375,1.375 1.34375,1.34375 1.34375,3.90625 z"
         id="path249" />
      <path
         d="m 516.76562,250 h -2.0625 v -15.625 h 2.0625 z m -2.0625,-19.71875 q -0.40625,-0.40625 -0.40625,-1 0,-0.59375 0.40625,-1 0.4375,-0.4375 1.03125,-0.4375 0.59375,0 1,0.4375 0.4375,0.40625 0.4375,1 0,0.59375 -0.4375,1 -0.40625,0.40625 -1,0.40625 -0.59375,0 -1.03125,-0.40625 z"
         id="path251" />
      <path
         d="m 534.14062,250 h -2.0625 v -10.75 q 0,-3.40625 -3.21875,-3.40625 -2.875,0 -4.40625,2.5625 V 250 h -2.0625 v -15.625 h 1.90625 v 1.71875 q 1.875,-2.125 4.5625,-2.125 2.59375,0 3.9375,1.375 1.34375,1.34375 1.34375,3.90625 z"
         id="path253" />
      <path
         d="m 550.57812,251.1875 q 0,2.65625 -1.53125,4.125 -1.5,1.5 -4.1875,1.5 -3.90625,0 -5.8125,-3.40625 l 1.6875,-1.0625 q 1.3125,2.53125 4.125,2.53125 1.75,0 2.6875,-0.96875 0.96875,-0.9375 0.96875,-2.71875 v -3.09375 Q 546.70312,250 544.17187,250 q -2.71875,0 -4.34375,-2.09375 -1.625,-2.125 -1.625,-5.6875 0,-3.78125 1.71875,-6 Q 541.64062,234 544.51562,234 q 2.46875,0 4.15625,1.84375 v -1.4375 h 1.90625 z m -2.0625,-12.5 q -0.53125,-1.3125 -1.625,-2.0625 -1.0625,-0.75 -2.40625,-0.75 -1.9375,0 -3.09375,1.71875 -1.125,1.71875 -1.125,4.625 0,2.6875 1.03125,4.3125 1.0625,1.59375 2.84375,1.59375 2.78125,0 4.375,-2.71875 z"
         id="path255" />
      <path
         d="m 568.14062,250 h -2.0625 v -21.875 h 2.0625 z"
         id="path257" />
      <path
         d="m 575.82812,250 h -2.0625 v -15.625 h 2.0625 z m -2.0625,-19.71875 q -0.40625,-0.40625 -0.40625,-1 0,-0.59375 0.40625,-1 0.4375,-0.4375 1.03125,-0.4375 0.59375,0 1,0.4375 0.4375,0.40625 0.4375,1 0,0.59375 -0.4375,1 -0.40625,0.40625 -1,0.40625 -0.59375,0 -1.03125,-0.40625 z"
         id="path259" />
      <path
         d="m 592.57812,251.1875 q 0,2.65625 -1.53125,4.125 -1.5,1.5 -4.1875,1.5 -3.90625,0 -5.8125,-3.40625 l 1.6875,-1.0625 q 1.3125,2.53125 4.125,2.53125 1.75,0 2.6875,-0.96875 0.96875,-0.9375 0.96875,-2.71875 v -3.09375 Q 588.70312,250 586.17187,250 q -2.71875,0 -4.34375,-2.09375 -1.625,-2.125 -1.625,-5.6875 0,-3.78125 1.71875,-6 Q 583.64062,234 586.51562,234 q 2.46875,0 4.15625,1.84375 v -1.4375 h 1.90625 z m -2.0625,-12.5 q -0.53125,-1.3125 -1.625,-2.0625 -1.0625,-0.75 -2.40625,-0.75 -1.9375,0 -3.09375,1.71875 -1.125,1.71875 -1.125,4.625 0,2.6875 1.03125,4.3125 1.0625,1.59375 2.84375,1.59375 2.78125,0 4.375,-2.71875 z"
         id="path261" />
      <path
         d="m 609.95312,250 h -2.0625 v -10.75 q 0,-3.40625 -3.21875,-3.40625 -2.875,0 -4.40625,2.5625 V 250 h -2.0625 v -21.875 h 2.0625 v 7.78125 q 1.84375,-1.9375 4.40625,-1.9375 2.59375,0 3.9375,1.375 1.34375,1.34375 1.34375,3.90625 z"
         id="path263" />
      <path
         d="m 613.54687,234.375 h 2.125 v -3.125 h 2.0625 v 3.125 h 4 v 1.875 h -4 v 10.3125 q 0,0.90625 0.4375,1.4375 0.46875,0.53125 1.21875,0.53125 1.28125,0 2.09375,-1 l 1.3125,1.125 q -1.21875,1.75 -3.40625,1.75 -1.71875,0 -2.71875,-1.03125 -1,-1.03125 -1,-2.8125 V 236.25 h -2.125 z"
         id="path265" />
      <path
         d="m 624.82812,250 v -3.28125 h 2.65625 V 250 Z"
         id="path267" />
    </g>
  </g>
</svg>
