<?xml version="1.0" encoding="UTF-8" standalone="no"?>
<svg
   width="800"
   height="350"
   version="1.1"
   id="svg12"
   sodipodi:docname="PradeepSports.svg"
   xmlns:inkscape="http://www.inkscape.org/namespaces/inkscape"
   xmlns:sodipodi="http://sodipodi.sourceforge.net/DTD/sodipodi-0.dtd"
   xmlns="http://www.w3.org/2000/svg"
   xmlns:svg="http://www.w3.org/2000/svg">
  <defs
     id="defs16" />
  <sodipodi:namedview
     id="namedview14"
     pagecolor="#ffffff"
     bordercolor="#000000"
     borderopacity="0.25"
     inkscape:showpageshadow="2"
     inkscape:pageopacity="0.0"
     inkscape:pagecheckerboard="0"
     inkscape:deskcolor="#d1d1d1" />
  <g
     font-family="Lohit Devanagari"
     font-size="32"
     text-anchor="middle"
     fill="#000"
     id="g10">
    <g
       aria-label="प्रदीप खेळतो रंगीत गोंधळ,"
       id="text2">
      <path
         d="m 257.60937,92.09375 q 0.0937,0 0.5,-0.09375 l 0.75,-0.125 3.125,-2.0625 v -8.75 h -7.90625 v 7.5 q 0,1.4375 1.03125,2.5 1.0625,1.03125 2.5,1.03125 z M 248.76562,81.0625 v -1.875 h 18.84375 v 1.875 h -3.53125 V 100 h -2.09375 V 92.09375 L 251.57812,100 l -1.25,-1.65625 6.25,-4.59375 q -2,-0.5 -3.28125,-1.9375 -1.28125,-1.46875 -1.28125,-3.25 v -7.5 z"
         id="path18" />
      <path
         d="m 266.51562,81.0625 v -1.875 h 18 v 1.875 h -3.3125 v 5.40625 h -8.125 q -1.21875,0 -2.0625,0.875 -0.84375,0.84375 -0.84375,2.03125 0,2.25 2.375,3.84375 2.375,1.59375 5.75,1.59375 0,-1.46875 0.65625,-2.5 0.65625,-1.0625 1.625,-1.0625 0.6875,0 1.15625,0.5 0.5,0.46875 0.5,1.1875 0,0.8125 -0.5,1.65625 -0.5,0.84375 -1.375,1.4375 l 2.28125,3.96875 -1.875,0.84375 -2.28125,-4.1875 q -4.3125,0 -7.375,-2.125 -3.03125,-2.15625 -3.03125,-5.15625 0,-2.0625 1.4375,-3.5 1.46875,-1.46875 3.5625,-1.46875 h 6.03125 V 81.0625 Z"
         id="path20" />
      <path
         d="m 283.67187,81.0625 v -1.875 h 3.53125 q -0.53125,-3 -1.96875,-4.9375 -1.40625,-1.9375 -3.03125,-1.9375 -1.21875,0 -2.0625,0.8125 -0.84375,0.78125 -0.84375,1.90625 0,1 0.4375,2 0.4375,0.96875 1.21875,1.75 h -2.28125 q -0.71875,-0.71875 -1.09375,-1.6875 -0.375,-0.96875 -0.375,-2.0625 0,-1.90625 1.46875,-3.21875 1.4375,-1.34375 3.53125,-1.34375 2.40625,0 4.40625,2.46875 2,2.46875 2.65625,6.25 h 3.5625 v 1.875 h -3.5625 V 100 h -2.0625 V 81.0625 Z"
         id="path22" />
      <path
         d="m 299.79687,91.875 q 1.28125,0 2.40625,-0.78125 1.125,-0.78125 1.75,-2.125 V 81.0625 h -7.6875 v 7.5 q 0,1.375 1.03125,2.34375 1.03125,0.96875 2.5,0.96875 z m -5.625,-3.3125 v -7.5 h -2.1875 v -1.875 h 17.59375 v 1.875 h -3.53125 V 100 h -2.09375 v -7.90625 q -0.90625,0.90625 -2,1.40625 -1.0625,0.46875 -2.15625,0.46875 -2.34375,0 -4,-1.5625 -1.625,-1.59375 -1.625,-3.84375 z"
         id="path24" />
      <path
         d="m 331.70312,98.125 q 2.34375,0 4.46875,-1.3125 2.125,-1.34375 3.4375,-3.6875 v -1.65625 q -0.8125,0.71875 -1.6875,1.09375 -0.84375,0.375 -1.625,0.375 -2.09375,0 -3.5625,-1.3125 -1.4375,-1.3125 -1.4375,-3.15625 0,-1.875 1.4375,-3.1875 1.46875,-1.3125 3.5625,-1.3125 0.78125,0 1.46875,0.1875 0.6875,0.15625 1.21875,0.4375 v 2.09375 q -0.8125,-0.28125 -1.5,-0.4375 -0.6875,-0.1875 -1.1875,-0.1875 -1.21875,0 -2.09375,0.71875 -0.84375,0.6875 -0.84375,1.6875 0,1 0.84375,1.6875 0.875,0.6875 2.09375,0.6875 0.65625,0 1.5,-0.4375 0.875,-0.4375 1.8125,-1.21875 v -8.125 h -11.4375 v 4.59375 q 0,2 -1.125,3.40625 -1.09375,1.375 -2.625,1.375 -0.28125,0 -0.5625,-0.0625 -0.28125,-0.0625 -0.46875,-0.15625 1.28125,3.59375 3.5625,5.75 2.3125,2.15625 4.75,2.15625 z M 318.60937,81.0625 v -1.875 h 26.625 v 1.875 h -3.53125 V 100 h -2.09375 v -4.15625 q -1.375,1.9375 -3.46875,3.0625 Q 334.04687,100 331.70312,100 q -3.625,0 -6.9375,-3.8125 -3.28125,-3.84375 -4.90625,-9.90625 l 1.65625,-0.84375 q 0.46875,1.34375 1.25,2.125 0.8125,0.78125 1.65625,0.78125 0.71875,0 1.1875,-0.78125 0.46875,-0.78125 0.46875,-1.90625 V 81.0625 Z"
         id="path26" />
      <path
         d="m 339.20312,79.1875 -7.6875,-9.15625 1.4375,-1.25 8.3125,10.40625 z"
         id="path28" />
      <path
         d="m 361.14062,95.84375 q 1.3125,0 2.21875,-1.3125 0.90625,-1.34375 0.90625,-3.28125 0,-1.78125 -0.90625,-3.0625 -0.90625,-1.28125 -2.21875,-1.28125 -1.125,0 -2.1875,1.21875 -1.0625,1.21875 -1.5625,3.125 0.75,2.09375 1.78125,3.34375 1.0625,1.25 1.96875,1.25 z M 351.79687,95.625 q 0.90625,0 1.875,-1.125 1,-1.15625 1.65625,-3.03125 -0.53125,-2.03125 -1.53125,-3.28125 -0.96875,-1.28125 -2,-1.28125 -1.46875,0 -2.5,1.34375 -1.03125,1.3125 -1.03125,3.1875 0,1.75 1.03125,2.96875 1.03125,1.21875 2.5,1.21875 z m -7.40625,-14.5625 v -1.875 h 23.78125 v 1.875 h -6.1875 v 3.96875 q 1.90625,0.3125 3.125,2.09375 1.25,1.75 1.25,4.125 0,2.6875 -1.53125,4.59375 -1.5,1.875 -3.6875,1.875 -1.28125,0 -2.59375,-1.125 -1.3125,-1.125 -2.1875,-3.03125 -0.875,1.90625 -2.125,3.03125 -1.25,1.125 -2.4375,1.125 -2.34375,0 -4,-1.8125 -1.625,-1.84375 -1.625,-4.46875 0,-2.6875 1.625,-4.53125 1.65625,-1.875 4,-1.875 1.4375,0 2.6875,1.03125 1.25,1 1.875,2.6875 0.59375,-1.53125 1.53125,-2.53125 0.9375,-1 2,-1.1875 V 81.0625 Z"
         id="path30" />
      <path
         d="m 369.10937,89.8125 q 0,-2 1.28125,-3.375 1.28125,-1.40625 3.0625,-1.40625 h 8.125 V 81.0625 h -14.21875 v -1.875 h 19.84375 v 1.875 h -3.53125 V 100 h -2.09375 V 87.09375 h -8.125 q -0.9375,0 -1.625,0.8125 -0.65625,0.78125 -0.65625,1.90625 0,2 1.40625,4.28125 1.4375,2.28125 4,4.4375 l -1.25,1.46875 q -2.9375,-2.5 -4.59375,-5.15625 -1.625,-2.65625 -1.625,-5.03125 z"
         id="path32" />
      <path
         d="m 386.35937,81.0625 v -1.875 h 3.375 l -7.53125,-9.15625 1.4375,-1.25 8.15625,10.40625 h 3.71875 v 1.875 h -3.5625 V 100 h -2.0625 V 81.0625 Z"
         id="path34" />
      <path
         d="m 404.54687,81.0625 v -1.875 h 14.46875 v 1.875 h -2.8125 v 4.78125 q 0,1.9375 -1.3125,3.28125 -1.28125,1.3125 -3.0625,1.3125 -0.25,0 -0.6875,-0.09375 -0.40625,-0.125 -1,-0.34375 1.34375,2.34375 3.15625,4.5 1.84375,2.125 4.125,4.03125 L 416.20312,100 q -3.34375,-2.78125 -6.03125,-6.3125 -2.6875,-3.5625 -4.59375,-7.625 l 1.875,-1.03125 q 0.53125,1.5 1.71875,2.40625 1.21875,0.90625 2.65625,0.90625 0.9375,0 1.59375,-0.71875 0.6875,-0.71875 0.6875,-1.78125 V 81.0625 Z"
         id="path36" />
      <path
         d="m 413.92187,74.0625 v -2.90625 h 3.125 v 2.90625 z"
         id="path38" />
      <path
         d="m 418.17187,81.0625 v -1.875 h 17 v 1.875 h -3.53125 V 100 h -2.0625 V 81.0625 h -5.21875 V 91.25 q 0,0.5 -0.3125,0.875 -0.3125,0.375 -0.71875,0.375 -0.78125,0 -2.46875,-1.9375 -1.6875,-1.96875 -1.6875,-2.84375 0,-0.3125 0.25,-0.5625 0.25,-0.25 0.5625,-0.25 h 1.46875 q 0.34375,0 0.59375,-0.3125 0.25,-0.3125 0.25,-0.75 V 81.0625 Z"
         id="path40" />
      <path
         d="m 434.32812,81.0625 v -1.875 h 3.53125 q -0.53125,-3 -1.96875,-4.9375 -1.40625,-1.9375 -3.03125,-1.9375 -1.21875,0 -2.0625,0.8125 -0.84375,0.78125 -0.84375,1.90625 0,1 0.4375,2 0.4375,0.96875 1.21875,1.75 h -2.28125 q -0.71875,-0.71875 -1.09375,-1.6875 -0.375,-0.96875 -0.375,-2.0625 0,-1.90625 1.46875,-3.21875 1.4375,-1.34375 3.53125,-1.34375 2.40625,0 4.40625,2.46875 2,2.46875 2.65625,6.25 h 3.5625 v 1.875 h -3.5625 V 100 h -2.0625 V 81.0625 Z"
         id="path42" />
      <path
         d="m 444.39062,89.8125 q 0,-2 1.28125,-3.375 1.28125,-1.40625 3.0625,-1.40625 h 8.125 V 81.0625 h -14.21875 v -1.875 h 19.84375 v 1.875 h -3.53125 V 100 h -2.09375 V 87.09375 h -8.125 q -0.9375,0 -1.625,0.8125 -0.65625,0.78125 -0.65625,1.90625 0,2 1.40625,4.28125 1.4375,2.28125 4,4.4375 l -1.25,1.46875 q -2.9375,-2.5 -4.59375,-5.15625 -1.625,-2.65625 -1.625,-5.03125 z"
         id="path44" />
      <path
         d="m 471.51562,81.0625 v -1.875 h 17 v 1.875 h -3.53125 V 100 h -2.0625 V 81.0625 h -5.21875 V 91.25 q 0,0.5 -0.3125,0.875 -0.3125,0.375 -0.71875,0.375 -0.78125,0 -2.46875,-1.9375 -1.6875,-1.96875 -1.6875,-2.84375 0,-0.3125 0.25,-0.5625 0.25,-0.25 0.5625,-0.25 h 1.46875 q 0.34375,0 0.59375,-0.3125 0.25,-0.3125 0.25,-0.75 V 81.0625 Z"
         id="path46" />
      <path
         d="m 492.23437,72.9375 v -2.90625 h 3.125 v 2.90625 z m -4.5625,8.125 v -1.875 h 3.375 l -7.53125,-8.9375 1.4375,-1.46875 8.15625,10.40625 h 3.71875 v 1.875 h -3.5625 V 100 h -2.0625 V 81.0625 Z"
         id="path48" />
      <path
         d="m 505.01562,96.46875 q -2.34375,0 -4,-1.28125 -1.625,-1.3125 -1.625,-3.09375 0,-1.125 0.4375,-2.0625 0.4375,-0.9375 1.21875,-1.46875 -1.65625,-1.15625 -2.59375,-2.65625 -0.9375,-1.5 -0.9375,-2.96875 0,-1.78125 1.21875,-3.0625 1.25,-1.3125 2.9375,-1.3125 1.78125,0 2.875,0.96875 1.09375,0.9375 1.09375,2.5625 0,1.375 -1.125,2.375 -1.09375,0.96875 -2.625,0.96875 v -2.09375 q 0.6875,0 1.15625,-0.375 0.5,-0.375 0.5,-0.875 0,-0.5625 -0.5625,-1 -0.53125,-0.4375 -1.3125,-0.4375 -0.875,0 -1.46875,0.65625 -0.59375,0.65625 -0.59375,1.625 0,1.21875 0.8125,2.375 0.84375,1.15625 2.28125,2 0.6875,-0.28125 1.46875,-0.4375 0.78125,-0.1875 1.65625,-0.1875 h 1.25 l 1.25,2.0625 h -2.28125 q -1.90625,0 -3.25,1 -1.34375,0.96875 -1.34375,2.34375 0,0.96875 1.03125,1.625 1.0625,0.65625 2.53125,0.65625 1.65625,0 3.34375,-1.09375 1.71875,-1.09375 3.09375,-3.0625 V 81.0625 h -4.5625 v -1.875 h 10.1875 v 1.875 h -3.53125 V 100 h -2.09375 v -6.875 q -1.34375,1.59375 -3.03125,2.46875 -1.65625,0.875 -3.40625,0.875 z"
         id="path50" />
      <path
         d="m 532.98437,95.84375 q 1.3125,0 2.21875,-1.3125 0.90625,-1.34375 0.90625,-3.28125 0,-1.78125 -0.90625,-3.0625 -0.90625,-1.28125 -2.21875,-1.28125 -1.125,0 -2.1875,1.21875 -1.0625,1.21875 -1.5625,3.125 0.75,2.09375 1.78125,3.34375 1.0625,1.25 1.96875,1.25 z M 523.64062,95.625 q 0.90625,0 1.875,-1.125 1,-1.15625 1.65625,-3.03125 -0.53125,-2.03125 -1.53125,-3.28125 -0.96875,-1.28125 -2,-1.28125 -1.46875,0 -2.5,1.34375 -1.03125,1.3125 -1.03125,3.1875 0,1.75 1.03125,2.96875 1.03125,1.21875 2.5,1.21875 z m -7.40625,-14.5625 v -1.875 h 23.78125 v 1.875 h -6.1875 v 3.96875 q 1.90625,0.3125 3.125,2.09375 1.25,1.75 1.25,4.125 0,2.6875 -1.53125,4.59375 -1.5,1.875 -3.6875,1.875 -1.28125,0 -2.59375,-1.125 -1.3125,-1.125 -2.1875,-3.03125 -0.875,1.90625 -2.125,3.03125 -1.25,1.125 -2.4375,1.125 -2.34375,0 -4,-1.8125 -1.625,-1.84375 -1.625,-4.46875 0,-2.6875 1.625,-4.53125 1.65625,-1.875 4,-1.875 1.4375,0 2.6875,1.03125 1.25,1 1.875,2.6875 0.59375,-1.53125 1.53125,-2.53125 0.9375,-1 2,-1.1875 V 81.0625 Z"
         id="path52" />
      <path
         d="m 540.14062,104 1.65625,-7.28125 h 3.03125 L 541.70312,104 Z"
         id="path54" />
    </g>
    <g
       aria-label="उंचावर उडतो, मग पडतो थोडा मंदळ."
       id="text4">
      <path
         d="m 185.42187,131.0625 v -1.875 h 20.53125 v 1.875 h -4.4375 q 0.625,0.71875 0.9375,1.59375 0.3125,0.875 0.3125,1.75 0,1.375 -0.5625,2.5 -0.5625,1.09375 -1.53125,1.65625 1.34375,0.4375 2.125,1.8125 0.8125,1.375 0.8125,3.1875 0,2.40625 -1.65625,4.125 -1.65625,1.6875 -3.96875,1.6875 -3.21875,0 -6.21875,-3.375 -2.96875,-3.40625 -5.21875,-9.53125 l 1.6875,-0.75 q 2,5.5 4.5625,8.53125 2.5625,3.03125 5.1875,3.03125 1.4375,0 2.46875,-1.09375 1.0625,-1.09375 1.0625,-2.625 0,-1.71875 -1,-2.9375 -0.96875,-1.25 -2.34375,-1.25 h -4.15625 l -0.8125,-1.84375 h 4.5625 q 1.21875,0 2.0625,-0.90625 0.84375,-0.9375 0.84375,-2.21875 0,-0.875 -0.5,-1.75 -0.5,-0.875 -1.375,-1.59375 z"
         id="path57" />
      <path
         d="m 198.85937,124.0625 v -2.90625 h 3.125 v 2.90625 z"
         id="path59" />
      <path
         d="m 205.14062,131.0625 v -1.875 h 20.75 v 1.875 h -3.53125 V 150 h -2.09375 v -7.5 q -1.25,1.75 -2.71875,2.75 -1.46875,1 -2.875,1 -2.09375,0 -3.5625,-1.4375 -1.4375,-1.46875 -1.4375,-3.5625 0,-1.5 0.59375,-2.71875 0.59375,-1.21875 1.6875,-1.84375 h -6.03125 v -2.09375 h 12.28125 v 2.09375 h -2.90625 q -1.59375,0.59375 -2.59375,1.84375 -0.96875,1.21875 -0.96875,2.71875 0,1.21875 0.84375,2.09375 0.875,0.84375 2.09375,0.84375 1.3125,0 2.8125,-1.28125 1.5,-1.3125 2.78125,-3.53125 v -8.3125 z"
         id="path61" />
      <path
         d="m 225.04687,131.0625 v -1.875 h 9.15625 v 1.875 h -3.5625 V 150 h -2.0625 v -18.9375 z"
         id="path63" />
      <path
         d="m 233.35937,131.0625 v -1.875 h 17.8125 v 1.875 h -3.5625 V 150 h -2.0625 v -6.65625 q -0.84375,1 -2,1.5625 -1.125,0.53125 -2.375,0.53125 -2.59375,0 -4.4375,-1.65625 -1.8125,-1.65625 -1.8125,-3.96875 0,-2.34375 1.8125,-3.96875 1.84375,-1.65625 4.4375,-1.65625 0.75,0 1.4375,0.21875 0.6875,0.1875 1.28125,0.625 l -1.0625,1.65625 q -0.375,-0.28125 -0.78125,-0.4375 -0.40625,-0.1875 -0.875,-0.1875 -1.71875,0 -2.9375,1.09375 -1.21875,1.09375 -1.21875,2.65625 0,1.4375 1.21875,2.5 1.21875,1.03125 2.9375,1.03125 1.21875,0 2.375,-0.8125 1.15625,-0.84375 2,-2.3125 v -9.15625 z"
         id="path65" />
      <path
         d="m 250.32812,131.0625 v -1.875 h 14.46875 v 1.875 h -2.8125 v 4.78125 q 0,1.9375 -1.3125,3.28125 -1.28125,1.3125 -3.0625,1.3125 -0.25,0 -0.6875,-0.0937 -0.40625,-0.125 -1,-0.34375 1.34375,2.34375 3.15625,4.5 1.84375,2.125 4.125,4.03125 L 261.98437,150 q -3.34375,-2.78125 -6.03125,-6.3125 -2.6875,-3.5625 -4.59375,-7.625 l 1.875,-1.03125 q 0.53125,1.5 1.71875,2.40625 1.21875,0.90625 2.65625,0.90625 0.9375,0 1.59375,-0.71875 0.6875,-0.71875 0.6875,-1.78125 v -4.78125 z"
         id="path67" />
      <path
         d="m 273.82812,131.0625 v -1.875 h 20.53125 v 1.875 h -4.4375 q 0.625,0.71875 0.9375,1.59375 0.3125,0.875 0.3125,1.75 0,1.375 -0.5625,2.5 -0.5625,1.09375 -1.53125,1.65625 1.34375,0.4375 2.125,1.8125 0.8125,1.375 0.8125,3.1875 0,2.40625 -1.65625,4.125 -1.65625,1.6875 -3.96875,1.6875 -3.21875,0 -6.21875,-3.375 -2.96875,-3.40625 -5.21875,-9.53125 l 1.6875,-0.75 q 2,5.5 4.5625,8.53125 2.5625,3.03125 5.1875,3.03125 1.4375,0 2.46875,-1.09375 1.0625,-1.09375 1.0625,-2.625 0,-1.71875 -1,-2.9375 -0.96875,-1.25 -2.34375,-1.25 h -4.15625 l -0.8125,-1.84375 h 4.5625 q 1.21875,0 2.0625,-0.90625 0.84375,-0.9375 0.84375,-2.21875 0,-0.875 -0.5,-1.75 -0.5,-0.875 -1.375,-1.59375 z"
         id="path69" />
      <path
         d="m 305.98437,149.59375 q -3.28125,0 -6.40625,-2.46875 -3.09375,-2.5 -5.03125,-6.6875 l 1.65625,-1.0625 q 1.75,3.71875 4.375,5.9375 2.65625,2.1875 5.40625,2.1875 1.6875,0 2.90625,-1.28125 1.25,-1.28125 1.25,-3.09375 0,-0.5 -0.3125,-0.875 -0.3125,-0.375 -0.71875,-0.375 -0.6875,0 -1.90625,0.4375 -1.1875,0.40625 -1.84375,0.40625 -1.59375,0 -3.5,-2 -1.90625,-2 -1.90625,-3.625 0,-1.125 0.78125,-1.90625 0.78125,-0.78125 1.90625,-0.78125 h 5.625 v -3.34375 h -14.71875 v -1.875 h 20.53125 v 1.875 h -3.71875 v 5.40625 h -7.71875 q -0.25,0 -0.4375,0.1875 -0.1875,0.1875 -0.1875,0.4375 0,0.875 1.25,2.21875 1.25,1.3125 2.09375,1.3125 0.65625,0 1.84375,-0.40625 1.21875,-0.40625 1.90625,-0.40625 1.28125,0 2.1875,0.96875 0.9375,0.96875 0.9375,2.34375 0,2.6875 -1.84375,4.59375 -1.84375,1.875 -4.40625,1.875 z"
         id="path71" />
      <path
         d="m 315.01562,139.8125 q 0,-2 1.28125,-3.375 1.28125,-1.40625 3.0625,-1.40625 h 8.125 v -3.96875 h -14.21875 v -1.875 h 19.84375 v 1.875 h -3.53125 V 150 h -2.09375 v -12.90625 h -8.125 q -0.9375,0 -1.625,0.8125 -0.65625,0.78125 -0.65625,1.90625 0,2 1.40625,4.28125 1.4375,2.28125 4,4.4375 l -1.25,1.46875 q -2.9375,-2.5 -4.59375,-5.15625 -1.625,-2.65625 -1.625,-5.03125 z"
         id="path73" />
      <path
         d="m 332.26562,131.0625 v -1.875 h 3.375 l -7.53125,-9.15625 1.4375,-1.25 8.15625,10.40625 h 3.71875 v 1.875 h -3.5625 V 150 h -2.0625 v -18.9375 z"
         id="path75" />
      <path
         d="m 341.51562,154 1.65625,-7.28125 h 3.03125 L 343.07812,154 Z"
         id="path77" />
      <path
         d="m 367.48437,137.9375 h 7.5 v -6.875 h -7.5 z m -5.8125,-6.875 v -1.875 h 18.9375 v 1.875 h -3.5625 V 150 h -2.0625 v -10 h -7.5 v 1.46875 q 0,0.5 -0.1875,0.875 -0.1875,0.375 -0.4375,0.375 -0.71875,0 -2.4375,-1.5625 -1.71875,-1.5625 -1.71875,-2.1875 0,-0.40625 0.3125,-0.71875 0.3125,-0.3125 0.71875,-0.3125 h 1.6875 v -6.875 z"
         id="path79" />
      <path
         d="m 379.76562,131.0625 v -1.875 h 17 v 1.875 h -3.53125 V 150 h -2.0625 v -18.9375 h -5.21875 V 141.25 q 0,0.5 -0.3125,0.875 -0.3125,0.375 -0.71875,0.375 -0.78125,0 -2.46875,-1.9375 -1.6875,-1.96875 -1.6875,-2.84375 0,-0.3125 0.25,-0.5625 0.25,-0.25 0.5625,-0.25 h 1.46875 q 0.34375,0 0.59375,-0.3125 0.25,-0.3125 0.25,-0.75 v -4.78125 z"
         id="path81" />
      <path
         d="m 413.60937,141.875 q 1.28125,0 2.40625,-0.78125 1.125,-0.78125 1.75,-2.125 v -7.90625 h -7.6875 v 7.5 q 0,1.375 1.03125,2.34375 1.03125,0.96875 2.5,0.96875 z m -5.625,-3.3125 v -7.5 h -2.1875 v -1.875 h 17.59375 v 1.875 h -3.53125 V 150 h -2.09375 v -7.90625 q -0.90625,0.90625 -2,1.40625 -1.0625,0.46875 -2.15625,0.46875 -2.34375,0 -4,-1.5625 -1.625,-1.59375 -1.625,-3.84375 z"
         id="path83" />
      <path
         d="m 434.98437,149.59375 q -3.28125,0 -6.40625,-2.46875 -3.09375,-2.5 -5.03125,-6.6875 l 1.65625,-1.0625 q 1.75,3.71875 4.375,5.9375 2.65625,2.1875 5.40625,2.1875 1.6875,0 2.90625,-1.28125 1.25,-1.28125 1.25,-3.09375 0,-0.5 -0.3125,-0.875 -0.3125,-0.375 -0.71875,-0.375 -0.6875,0 -1.90625,0.4375 -1.1875,0.40625 -1.84375,0.40625 -1.59375,0 -3.5,-2 -1.90625,-2 -1.90625,-3.625 0,-1.125 0.78125,-1.90625 0.78125,-0.78125 1.90625,-0.78125 h 5.625 v -3.34375 h -14.71875 v -1.875 h 20.53125 v 1.875 h -3.71875 v 5.40625 h -7.71875 q -0.25,0 -0.4375,0.1875 -0.1875,0.1875 -0.1875,0.4375 0,0.875 1.25,2.21875 1.25,1.3125 2.09375,1.3125 0.65625,0 1.84375,-0.40625 1.21875,-0.40625 1.90625,-0.40625 1.28125,0 2.1875,0.96875 0.9375,0.96875 0.9375,2.34375 0,2.6875 -1.84375,4.59375 -1.84375,1.875 -4.40625,1.875 z"
         id="path85" />
      <path
         d="m 444.01562,139.8125 q 0,-2 1.28125,-3.375 1.28125,-1.40625 3.0625,-1.40625 h 8.125 v -3.96875 h -14.21875 v -1.875 h 19.84375 v 1.875 h -3.53125 V 150 h -2.09375 v -12.90625 h -8.125 q -0.9375,0 -1.625,0.8125 -0.65625,0.78125 -0.65625,1.90625 0,2 1.40625,4.28125 1.4375,2.28125 4,4.4375 l -1.25,1.46875 q -2.9375,-2.5 -4.59375,-5.15625 -1.625,-2.65625 -1.625,-5.03125 z"
         id="path87" />
      <path
         d="m 461.26562,131.0625 v -1.875 h 3.375 l -7.53125,-9.15625 1.4375,-1.25 8.15625,10.40625 h 3.71875 v 1.875 h -3.5625 V 150 h -2.0625 v -18.9375 z"
         id="path89" />
      <path
         d="m 489.23437,145.84375 q -2.96875,0 -5.28125,-2.0625 -2.3125,-2.0625 -2.84375,-5.21875 0.34375,0.125 1.03125,0.15625 0.71875,0.0312 2.09375,0.0312 2.25,0 3.8125,-1.28125 1.59375,-1.28125 1.59375,-3.0625 0,-1.5625 -1,-2.65625 -0.96875,-1.09375 -2.34375,-1.09375 -1.1875,0 -2.0625,0.65625 -0.84375,0.65625 -0.84375,1.625 0,0.78125 0.71875,1.34375 0.75,0.53125 1.78125,0.53125 v 2.09375 q -2.0625,0 -3.3125,-1.09375 -1.25,-1.09375 -1.25,-2.875 0,-1.78125 1.4375,-3.0625 1.46875,-1.3125 3.53125,-1.3125 2.25,0 3.84375,1.71875 1.59375,1.6875 1.59375,4.125 0,2.65625 -2.25,4.5625 -2.25,1.875 -5.46875,1.875 0.625,1.34375 2.03125,2.125 1.4375,0.78125 3.1875,0.78125 1.6875,0 3.46875,-1.03125 1.8125,-1.03125 3.375,-2.90625 v -8.75 h -2.0625 v -1.875 h 7.6875 v 1.875 h -3.53125 V 150 h -2.09375 v -7.5 q -1.5625,1.59375 -3.375,2.46875 -1.78125,0.875 -3.46875,0.875 z"
         id="path91" />
      <path
         d="m 500.85937,131.0625 v -1.875 h 3.375 l -7.53125,-9.15625 1.4375,-1.25 8.15625,10.40625 h 3.71875 v 1.875 h -3.5625 V 150 h -2.0625 v -18.9375 z"
         id="path93" />
      <path
         d="m 521.60937,149.59375 q -3.28125,0 -6.40625,-2.46875 -3.09375,-2.5 -5.03125,-6.6875 l 1.65625,-1.0625 q 1.75,3.71875 4.375,5.9375 2.65625,2.1875 5.40625,2.1875 1.6875,0 2.90625,-1.28125 1.25,-1.28125 1.25,-3.09375 0,-0.5 -0.3125,-0.875 -0.3125,-0.375 -0.71875,-0.375 -0.6875,0 -1.90625,0.4375 -1.1875,0.40625 -1.84375,0.40625 -1.59375,0 -3.5,-2 -1.90625,-2 -1.90625,-3.625 0,-1.125 0.78125,-1.90625 0.78125,-0.78125 1.90625,-0.78125 h 5.625 v -3.34375 h -14.71875 v -1.875 h 20.53125 v 1.875 h -3.71875 v 5.40625 h -7.71875 q -0.25,0 -0.4375,0.1875 -0.1875,0.1875 -0.1875,0.4375 0,0.875 1.25,2.21875 1.25,1.3125 2.09375,1.3125 0.65625,0 1.84375,-0.40625 1.21875,-0.40625 1.90625,-0.40625 1.28125,0 2.1875,0.96875 0.9375,0.96875 0.9375,2.34375 0,2.6875 -1.84375,4.59375 -1.84375,1.875 -4.40625,1.875 z"
         id="path95" />
      <path
         d="m 528.89062,131.0625 v -1.875 h 9.15625 v 1.875 h -3.5625 V 150 h -2.0625 v -18.9375 z"
         id="path97" />
      <path
         d="m 552.89062,137.9375 h 7.5 v -6.875 h -7.5 z m -5.8125,-6.875 v -1.875 h 18.9375 v 1.875 h -3.5625 V 150 h -2.0625 v -10 h -7.5 v 1.46875 q 0,0.5 -0.1875,0.875 -0.1875,0.375 -0.4375,0.375 -0.71875,0 -2.4375,-1.5625 -1.71875,-1.5625 -1.71875,-2.1875 0,-0.40625 0.3125,-0.71875 0.3125,-0.3125 0.71875,-0.3125 h 1.6875 v -6.875 z"
         id="path99" />
      <path
         d="m 560.07812,124.0625 v -2.90625 h 3.125 v 2.90625 z"
         id="path101" />
      <path
         d="m 564.92187,131.0625 v -1.875 h 18 v 1.875 h -3.3125 v 5.40625 h -8.125 q -1.21875,0 -2.0625,0.875 -0.84375,0.84375 -0.84375,2.03125 0,2.25 2.375,3.84375 2.375,1.59375 5.75,1.59375 0,-1.46875 0.65625,-2.5 0.65625,-1.0625 1.625,-1.0625 0.6875,0 1.15625,0.5 0.5,0.46875 0.5,1.1875 0,0.8125 -0.5,1.65625 -0.5,0.84375 -1.375,1.4375 l 2.28125,3.96875 -1.875,0.84375 -2.28125,-4.1875 q -4.3125,0 -7.375,-2.125 -3.03125,-2.15625 -3.03125,-5.15625 0,-2.0625 1.4375,-3.5 1.46875,-1.46875 3.5625,-1.46875 h 6.03125 v -3.34375 z"
         id="path103" />
      <path
         d="m 598.82812,145.84375 q 1.3125,0 2.21875,-1.3125 0.90625,-1.34375 0.90625,-3.28125 0,-1.78125 -0.90625,-3.0625 -0.90625,-1.28125 -2.21875,-1.28125 -1.125,0 -2.1875,1.21875 -1.0625,1.21875 -1.5625,3.125 0.75,2.09375 1.78125,3.34375 1.0625,1.25 1.96875,1.25 z m -9.34375,-0.21875 q 0.90625,0 1.875,-1.125 1,-1.15625 1.65625,-3.03125 -0.53125,-2.03125 -1.53125,-3.28125 -0.96875,-1.28125 -2,-1.28125 -1.46875,0 -2.5,1.34375 -1.03125,1.3125 -1.03125,3.1875 0,1.75 1.03125,2.96875 1.03125,1.21875 2.5,1.21875 z m -7.40625,-14.5625 v -1.875 h 23.78125 v 1.875 h -6.1875 v 3.96875 q 1.90625,0.3125 3.125,2.09375 1.25,1.75 1.25,4.125 0,2.6875 -1.53125,4.59375 -1.5,1.875 -3.6875,1.875 -1.28125,0 -2.59375,-1.125 -1.3125,-1.125 -2.1875,-3.03125 -0.875,1.90625 -2.125,3.03125 -1.25,1.125 -2.4375,1.125 -2.34375,0 -4,-1.8125 -1.625,-1.84375 -1.625,-4.46875 0,-2.6875 1.625,-4.53125 1.65625,-1.875 4,-1.875 1.4375,0 2.6875,1.03125 1.25,1 1.875,2.6875 0.59375,-1.53125 1.53125,-2.53125 0.9375,-1 2,-1.1875 v -3.96875 z"
         id="path105" />
      <path
         d="m 607.79687,150 v -3.28125 h 2.65625 V 150 Z"
         id="path107" />
    </g>
    <g
       aria-label="आनंदाचा सागर, हास्याची धारा,"
       id="text6">
      <path
         d="m 228,198.53125 q -2.5,0 -4.84375,-2.0625 -2.34375,-2.09375 -4.09375,-5.84375 l 1.46875,-1.25 q 1.5625,3.375 3.5,5.25 1.96875,1.84375 3.96875,1.84375 1.3125,0 2.21875,-1.09375 0.90625,-1.125 0.90625,-2.65625 0,-1.46875 -1.03125,-2.5 -1.03125,-1.03125 -2.5,-1.03125 -0.46875,0 -1,0.0937 -0.5,0.0937 -1.09375,0.3125 l -0.8125,-1.875 q 1.875,-0.15625 3.3125,-1.34375 1.46875,-1.21875 1.46875,-2.59375 0,-1.125 -0.875,-1.90625 -0.84375,-0.8125 -2.03125,-0.8125 -1,0 -2.21875,0.78125 -1.21875,0.75 -2.375,2.125 l -1.4375,-1.4375 q 1.0625,-1.59375 2.65625,-2.46875 1.625,-0.875 3.375,-0.875 2.0625,0 3.5,1.34375 1.46875,1.3125 1.46875,3.25 0,1.125 -0.5,2.15625 -0.5,1.03125 -1.34375,1.78125 1.40625,0.84375 2.78125,1.25 1.375,0.40625 2.625,0.40625 0.3125,0 0.84375,-0.1875 0.53125,-0.21875 1.21875,-0.625 v -7.5 h -3.75 v -1.875 h 17.90625 v 1.875 h -3.53125 V 200 H 245.6875 V 181.0625 H 239.25 V 200 h -2.09375 v -9.375 q -0.5,0.4375 -1.03125,0.65625 -0.5,0.1875 -1.03125,0.1875 -0.875,0 -1.59375,-0.15625 -0.71875,-0.1875 -1.125,-0.46875 0.40625,0.34375 0.625,0.9375 0.21875,0.59375 0.21875,1.34375 0,2.25 -1.53125,3.84375 -1.5,1.5625 -3.6875,1.5625 z"
         id="path110" />
      <path
         d="m 251.5,187.53125 q 0,-0.4375 0.4375,-0.75 0.4375,-0.3125 1.03125,-0.3125 h 11 v -5.40625 h -13.5 v -1.875 h 19.125 v 1.875 H 266.0625 V 200 h -2.09375 v -11.4375 h -6.03125 q -0.5,0 -0.875,0.25 -0.375,0.25 -0.375,0.5625 v 2.09375 q 0,0.5 -0.3125,0.875 -0.3125,0.375 -0.71875,0.375 -0.71875,0 -2.4375,-2.15625 Q 251.5,188.375 251.5,187.53125 Z"
         id="path112" />
      <path
         d="m 263.71875,174.0625 v -2.90625 h 3.125 v 2.90625 z"
         id="path114" />
      <path
         d="m 268.5,181.0625 v -1.875 h 18 v 1.875 h -3.3125 v 5.40625 h -8.125 q -1.21875,0 -2.0625,0.875 -0.84375,0.84375 -0.84375,2.03125 0,2.25 2.375,3.84375 2.375,1.59375 5.75,1.59375 0,-1.46875 0.65625,-2.5 0.65625,-1.0625 1.625,-1.0625 0.6875,0 1.15625,0.5 0.5,0.46875 0.5,1.1875 0,0.8125 -0.5,1.65625 -0.5,0.84375 -1.375,1.4375 L 284.625,200 l -1.875,0.84375 -2.28125,-4.1875 q -4.3125,0 -7.375,-2.125 -3.03125,-2.15625 -3.03125,-5.15625 0,-2.0625 1.4375,-3.5 1.46875,-1.46875 3.5625,-1.46875 h 6.03125 v -3.34375 z"
         id="path116" />
      <path
         d="m 285.65625,181.0625 v -1.875 h 9.15625 v 1.875 H 291.25 V 200 h -2.0625 v -18.9375 z"
         id="path118" />
      <path
         d="m 293.96875,181.0625 v -1.875 h 20.75 v 1.875 H 311.1875 V 200 h -2.09375 v -7.5 q -1.25,1.75 -2.71875,2.75 -1.46875,1 -2.875,1 -2.09375,0 -3.5625,-1.4375 -1.4375,-1.46875 -1.4375,-3.5625 0,-1.5 0.59375,-2.71875 0.59375,-1.21875 1.6875,-1.84375 H 294.75 v -2.09375 h 12.28125 v 2.09375 H 304.125 q -1.59375,0.59375 -2.59375,1.84375 -0.96875,1.21875 -0.96875,2.71875 0,1.21875 0.84375,2.09375 0.875,0.84375 2.09375,0.84375 1.3125,0 2.8125,-1.28125 1.5,-1.3125 2.78125,-3.53125 v -8.3125 z"
         id="path120" />
      <path
         d="m 313.875,181.0625 v -1.875 h 9.15625 v 1.875 h -3.5625 V 200 h -2.0625 v -18.9375 z"
         id="path122" />
      <path
         d="m 332.0625,181.0625 v -1.875 h 23 v 1.875 h -3.53125 V 200 h -2.09375 v -10 h -8.875 q -0.84375,0.625 -1.9375,0.625 -0.25,0 -0.5,-0.0625 -0.21875,-0.0625 -0.34375,-0.125 l 6.25,8.71875 -1.65625,1.0625 -9.375,-13.3125 1.6875,-1.25 q 0.65625,1.40625 1.53125,2.25 Q 337.125,188.75 338,188.75 q 0.875,0 1.46875,-0.59375 0.625,-0.59375 0.625,-1.46875 v -5.625 z m 9.90625,6.875 h 7.46875 v -6.875 h -7.28125 v 5.625 q 0,0.65625 -0.1875,1.25 z"
         id="path124" />
      <path
         d="m 354.21875,181.0625 v -1.875 h 9.15625 v 1.875 h -3.5625 V 200 H 357.75 v -18.9375 z"
         id="path126" />
      <path
         d="m 362.53125,181.0625 v -1.875 h 17 v 1.875 H 376 V 200 h -2.0625 v -18.9375 h -5.21875 V 191.25 q 0,0.5 -0.3125,0.875 -0.3125,0.375 -0.71875,0.375 -0.78125,0 -2.46875,-1.9375 -1.6875,-1.96875 -1.6875,-2.84375 0,-0.3125 0.25,-0.5625 0.25,-0.25 0.5625,-0.25 h 1.46875 q 0.34375,0 0.59375,-0.3125 0.25,-0.3125 0.25,-0.75 v -4.78125 z"
         id="path128" />
      <path
         d="m 378.6875,181.0625 v -1.875 h 14.46875 v 1.875 h -2.8125 v 4.78125 q 0,1.9375 -1.3125,3.28125 -1.28125,1.3125 -3.0625,1.3125 -0.25,0 -0.6875,-0.0937 -0.40625,-0.125 -1,-0.34375 1.34375,2.34375 3.15625,4.5 1.84375,2.125 4.125,4.03125 L 390.34375,200 Q 387,197.21875 384.3125,193.6875 q -2.6875,-3.5625 -4.59375,-7.625 l 1.875,-1.03125 q 0.53125,1.5 1.71875,2.40625 1.21875,0.90625 2.65625,0.90625 0.9375,0 1.59375,-0.71875 0.6875,-0.71875 0.6875,-1.78125 v -4.78125 z"
         id="path130" />
      <path
         d="m 393.25,204 1.65625,-7.28125 h 3.03125 L 394.8125,204 Z"
         id="path132" />
      <path
         d="m 413.40625,181.0625 v -1.875 h 17.3125 v 1.875 H 427.375 v 5 h -8.53125 q -0.40625,0 -0.71875,0.1875 -0.3125,0.1875 -0.3125,0.4375 0,0.84375 0.625,1.625 0.625,0.78125 1.65625,1.28125 0.65625,-0.28125 1.4375,-0.4375 0.8125,-0.1875 1.6875,-0.1875 2.34375,0 3.96875,1.34375 1.65625,1.3125 1.65625,3.25 0,1.0625 -0.4375,1.96875 -0.4375,0.875 -1.25,1.34375 L 425.5,195.4375 q 0.59375,-0.34375 0.90625,-0.84375 0.34375,-0.5 0.34375,-1.03125 0,-1.0625 -1.03125,-1.78125 -1.03125,-0.71875 -2.5,-0.71875 -2.25,0 -3.84375,1.03125 -1.5625,1.03125 -1.5625,2.5 0,1.90625 2.6875,3.25 2.6875,1.3125 6.46875,1.3125 l -0.4375,1.875 q -4.46875,0 -7.65625,-1.875 -3.15625,-1.90625 -3.15625,-4.5625 0,-1.21875 0.59375,-2.28125 0.625,-1.0625 1.6875,-1.6875 -1.0625,-0.90625 -1.6875,-1.9375 -0.59375,-1.03125 -0.59375,-2 0,-1.125 0.90625,-1.90625 0.9375,-0.8125 2.21875,-0.8125 h 6.46875 v -2.90625 z"
         id="path134" />
      <path
         d="m 429.875,181.0625 v -1.875 h 9.15625 v 1.875 h -3.5625 V 200 h -2.0625 v -18.9375 z"
         id="path136" />
      <path
         d="m 438.1875,181.0625 v -1.875 h 17.1875 v 1.875 H 448.5 v 5.375 q 0,0.8125 -0.125,1.5 h 7.40625 v 1.875 H 447.5 q -0.625,0.75 -1.375,0.9375 -1.46875,0.3125 -1.78125,-0.125 l 5.625,8.34375 L 448.5,200 l -9.375,-13.53125 1.6875,-1.25 q 0.9375,1.625 1.875,2.59375 0.9375,0.9375 1.71875,0.9375 0.8125,0 1.40625,-0.59375 0.59375,-0.59375 0.59375,-1.46875 v -5.625 z"
         id="path138" />
      <path
         d="m 462.96875,193.96875 q 1.625,0 3.0625,-0.875 Q 467.5,192.1875 468.375,190.625 v -9.5625 h -7.0625 q 0.78125,0.96875 1.21875,2.0625 0.4375,1.0625 0.4375,2.09375 0,1.8125 -1.4375,3.21875 -1.40625,1.40625 -3.5625,1.78125 0.3125,1.625 1.71875,2.6875 1.40625,1.0625 3.28125,1.0625 z m -8.4375,-12.90625 v -1.875 H 474 v 1.875 h -3.53125 V 200 H 468.375 v -6.4375 q -1.21875,1.1875 -2.625,1.84375 -1.375,0.625 -2.78125,0.625 -3,0 -5.15625,-2.15625 -2.125,-2.1875 -2.125,-5.3125 2.375,0 3.78125,-0.90625 1.40625,-0.9375 1.40625,-2.4375 0,-1 -0.53125,-2.0625 -0.53125,-1.09375 -1.53125,-2.09375 z"
         id="path140" />
      <path
         d="m 473.15625,181.0625 v -1.875 h 9.15625 v 1.875 H 478.75 V 200 h -2.0625 v -18.9375 z"
         id="path142" />
      <path
         d="m 481.46875,181.0625 v -1.875 h 20.75 v 1.875 H 498.6875 V 200 h -2.09375 v -7.5 q -1.25,1.75 -2.71875,2.75 -1.46875,1 -2.875,1 -2.09375,0 -3.5625,-1.4375 Q 486,193.34375 486,191.25 q 0,-1.5 0.59375,-2.71875 0.59375,-1.21875 1.6875,-1.84375 H 482.25 v -2.09375 h 12.28125 v 2.09375 H 491.625 q -1.59375,0.59375 -2.59375,1.84375 -0.96875,1.21875 -0.96875,2.71875 0,1.21875 0.84375,2.09375 0.875,0.84375 2.09375,0.84375 1.3125,0 2.8125,-1.28125 1.5,-1.3125 2.78125,-3.53125 v -8.3125 z"
         id="path144" />
      <path
         d="m 501.375,181.0625 v -1.875 h 3.53125 q -0.53125,-3 -1.96875,-4.9375 -1.40625,-1.9375 -3.03125,-1.9375 -1.21875,0 -2.0625,0.8125 Q 497,173.90625 497,175.03125 q 0,1 0.4375,2 0.4375,0.96875 1.21875,1.75 H 496.375 q -0.71875,-0.71875 -1.09375,-1.6875 -0.375,-0.96875 -0.375,-2.0625 0,-1.90625 1.46875,-3.21875 1.4375,-1.34375 3.53125,-1.34375 2.40625,0 4.40625,2.46875 2,2.46875 2.65625,6.25 h 3.5625 v 1.875 h -3.5625 V 200 h -2.0625 v -18.9375 z"
         id="path146" />
      <path
         d="m 528.59375,196.46875 q -2.34375,0 -4,-1.28125 -1.625,-1.3125 -1.625,-3.09375 0,-1.125 0.4375,-2.0625 0.4375,-0.9375 1.21875,-1.46875 -1.65625,-1.15625 -2.59375,-2.65625 -0.9375,-1.5 -0.9375,-2.96875 0,-1.78125 1.21875,-3.0625 1.25,-1.3125 2.9375,-1.3125 1.78125,0 2.875,0.96875 1.09375,0.9375 1.09375,2.5625 0,1.375 -1.125,2.375 -1.09375,0.96875 -2.625,0.96875 v -2.09375 q 0.6875,0 1.15625,-0.375 0.5,-0.375 0.5,-0.875 0,-0.5625 -0.5625,-1 -0.53125,-0.4375 -1.3125,-0.4375 -0.875,0 -1.46875,0.65625 -0.59375,0.65625 -0.59375,1.625 0,1.21875 0.8125,2.375 0.84375,1.15625 2.28125,2 0.6875,-0.28125 1.46875,-0.4375 0.78125,-0.1875 1.65625,-0.1875 h 1.25 l 1.25,2.0625 H 529.625 q -1.90625,0 -3.25,1 -1.34375,0.96875 -1.34375,2.34375 0,0.96875 1.03125,1.625 1.0625,0.65625 2.53125,0.65625 1.65625,0 3.34375,-1.09375 1.71875,-1.09375 3.09375,-3.0625 v -9.15625 h -4.5625 v -1.875 h 10.1875 v 1.875 H 537.125 V 200 h -2.09375 v -6.875 q -1.34375,1.59375 -3.03125,2.46875 -1.65625,0.875 -3.40625,0.875 z"
         id="path148" />
      <path
         d="m 539.8125,181.0625 v -1.875 h 9.15625 v 1.875 h -3.5625 V 200 h -2.0625 v -18.9375 z"
         id="path150" />
      <path
         d="m 548.125,181.0625 v -1.875 h 14.46875 v 1.875 h -2.8125 v 4.78125 q 0,1.9375 -1.3125,3.28125 -1.28125,1.3125 -3.0625,1.3125 -0.25,0 -0.6875,-0.0937 -0.40625,-0.125 -1,-0.34375 1.34375,2.34375 3.15625,4.5 1.84375,2.125 4.125,4.03125 L 559.78125,200 q -3.34375,-2.78125 -6.03125,-6.3125 -2.6875,-3.5625 -4.59375,-7.625 l 1.875,-1.03125 q 0.53125,1.5 1.71875,2.40625 1.21875,0.90625 2.65625,0.90625 0.9375,0 1.59375,-0.71875 0.6875,-0.71875 0.6875,-1.78125 v -4.78125 z"
         id="path152" />
      <path
         d="m 561.75,181.0625 v -1.875 h 9.15625 v 1.875 h -3.5625 V 200 h -2.0625 v -18.9375 z"
         id="path154" />
      <path
         d="m 571,204 1.65625,-7.28125 h 3.03125 L 572.5625,204 Z"
         id="path156" />
    </g>
    <g
       aria-label="मन प्रफुल्लित होते, खेळाच्या आघातांनी सारा."
       id="text8">
      <path
         d="m 151.42187,237.9375 h 7.5 v -6.875 h -7.5 z m -5.8125,-6.875 v -1.875 h 18.9375 v 1.875 h -3.5625 V 250 h -2.0625 v -10 h -7.5 v 1.46875 q 0,0.5 -0.1875,0.875 -0.1875,0.375 -0.4375,0.375 -0.71875,0 -2.4375,-1.5625 -1.71875,-1.5625 -1.71875,-2.1875 0,-0.40625 0.3125,-0.71875 0.3125,-0.3125 0.71875,-0.3125 h 1.6875 v -6.875 z"
         id="path159" />
      <path
         d="m 164.73437,237.53125 q 0,-0.4375 0.4375,-0.75 0.4375,-0.3125 1.03125,-0.3125 h 11 v -5.40625 h -13.5 v -1.875 h 19.125 v 1.875 h -3.53125 V 250 h -2.09375 v -11.4375 h -6.03125 q -0.5,0 -0.875,0.25 -0.375,0.25 -0.375,0.5625 v 2.09375 q 0,0.5 -0.3125,0.875 -0.3125,0.375 -0.71875,0.375 -0.71875,0 -2.4375,-2.15625 -1.71875,-2.1875 -1.71875,-3.03125 z"
         id="path161" />
      <path
         d="m 200.70312,242.09375 q 0.0937,0 0.5,-0.0937 l 0.75,-0.125 3.125,-2.0625 v -8.75 h -7.90625 v 7.5 q 0,1.4375 1.03125,2.5 1.0625,1.03125 2.5,1.03125 z m -8.84375,-11.03125 v -1.875 h 18.84375 v 1.875 h -3.53125 V 250 h -2.09375 v -7.90625 L 194.67187,250 l -1.25,-1.65625 6.25,-4.59375 q -2,-0.5 -3.28125,-1.9375 -1.28125,-1.46875 -1.28125,-3.25 v -7.5 z"
         id="path163" />
      <path
         d="m 217.17187,241.25 q 1.21875,0 2.3125,-0.59375 1.09375,-0.59375 1.84375,-1.6875 v -7.90625 h -7.28125 v 7.28125 q 0,1.21875 0.90625,2.0625 0.9375,0.84375 2.21875,0.84375 z m -5.1875,-2.90625 v -7.28125 h -2.125 v -1.875 h 25.03125 v 1.875 h -11.46875 v 5.84375 q 0.8125,-1 1.96875,-1.53125 1.15625,-0.5625 2.40625,-0.5625 2.15625,0 3.65625,1.71875 1.53125,1.6875 1.53125,4.09375 0,1.875 -0.71875,3.6875 -0.6875,1.8125 -2,3.40625 l -1.84375,-1.0625 q 1.1875,-1.1875 1.8125,-2.75 0.65625,-1.5625 0.65625,-3.28125 0,-1.53125 -0.90625,-2.625 -0.90625,-1.09375 -2.1875,-1.09375 -1.09375,0 -2.25,0.65625 -1.125,0.625 -2.125,1.8125 V 250 h -2.09375 v -8.3125 q -0.78125,0.78125 -1.875,1.21875 -1.0625,0.4375 -2.28125,0.4375 -2.15625,0 -3.6875,-1.4375 -1.5,-1.46875 -1.5,-3.5625 z"
         id="path165" />
      <path
         d="m 220.70312,259.71875 q -2.25,0 -4.6875,-1.09375 -2.46875,-1.0625 -4.875,-3.0625 l 1.46875,-1.875 q 2.28125,1.90625 4.375,2.90625 2.0625,1.03125 3.71875,1.03125 1.8125,0 3.09375,-0.90625 1.28125,-0.90625 1.28125,-2.1875 0,-1.0625 -0.65625,-1.78125 -0.6875,-0.71875 -1.625,-0.71875 -1,0 -1.875,0.375 -0.875,0.375 -1.46875,1.0625 l -1.4375,-1.4375 q 0.8125,-1 2.0625,-1.53125 1.25,-0.5625 2.71875,-0.5625 1.78125,0 3.09375,1.3125 1.28125,1.34375 1.28125,3.28125 0,2.15625 -1.90625,3.65625 -1.90625,1.53125 -4.5625,1.53125 z"
         id="path167" />
      <path
         d="m 234.04687,231.0625 v -1.875 h 3.53125 q -0.28125,-0.375 -0.46875,-0.84375 -0.15625,-0.46875 -0.15625,-1.03125 0,-2.8125 2.34375,-4.8125 2.34375,-2.03125 7.4375,-2.03125 2.90625,0 6.71875,1.875 3.84375,1.875 8.96875,6.90625 h -2.5 q -4.84375,-4.65625 -8.28125,-5.875 -2.9375,-1.0625 -4.59375,-1.0625 -4.21875,0 -6.125,1.46875 -1.90625,1.46875 -1.90625,3.53125 0,0.5625 0.15625,1.03125 0.1875,0.46875 0.46875,0.84375 h 3.5625 v 1.875 h -3.5625 V 250 h -2.0625 v -18.9375 z"
         id="path169" />
      <path
         d="m 254.76562,243.125 q 1.3125,-1.125 2.8125,-1.6875 1.5,-0.59375 3,-0.59375 v -5 q -2.21875,0 -3.8125,0.875 -1.5625,0.875 -1.8125,2.25 l -1.875,-0.625 q 0.125,-0.25 0.25,-0.59375 0.125,-0.34375 0.1875,-0.4375 -0.59375,-0.71875 -1.59375,-1.09375 -0.96875,-0.375 -2.15625,-0.375 -1.21875,0 -2.09375,0.6875 -0.84375,0.65625 -0.84375,1.59375 0,1.09375 0.6875,2.03125 0.6875,0.90625 1.8125,1.3125 1.8125,0 3.21875,0.4375 1.40625,0.4375 2.21875,1.21875 z m -12.40625,-12.0625 v -1.875 h 23.84375 v 1.875 h -3.53125 V 250 h -2.09375 v -7.0625 q -2.125,0 -3.78125,1.03125 -1.625,1 -2.25,2.6875 l -1.65625,-1.03125 q 0.125,-0.375 0.34375,-0.6875 0.21875,-0.34375 0.46875,-0.5625 -0.875,-0.5 -1.90625,-0.75 -1,-0.28125 -2.03125,-0.28125 -1.21875,0 -2.09375,0.75 -0.84375,0.71875 -0.84375,1.75 0,1 0.875,1.875 0.875,0.875 2.25,1.25 l -1.03125,1.4375 q -1.84375,-0.5 -3,-1.75 -1.15625,-1.28125 -1.15625,-2.8125 0,-1.34375 0.625,-2.34375 0.625,-1.03125 1.65625,-1.40625 -1.0625,-0.625 -1.6875,-1.6875 -0.59375,-1.0625 -0.59375,-2.28125 0,-1.6875 1.4375,-2.90625 1.46875,-1.25 3.5625,-1.25 1.40625,0 2.625,0.5 1.25,0.46875 2.15625,1.375 0.625,-0.875 2.21875,-1.375 1.59375,-0.5 3.8125,-0.5 v -2.90625 z"
         id="path171" />
      <path
         d="m 267.10937,239.8125 q 0,-2 1.28125,-3.375 1.28125,-1.40625 3.0625,-1.40625 h 8.125 v -3.96875 h -14.21875 v -1.875 h 19.84375 v 1.875 h -3.53125 V 250 h -2.09375 v -12.90625 h -8.125 q -0.9375,0 -1.625,0.8125 -0.65625,0.78125 -0.65625,1.90625 0,2 1.40625,4.28125 1.4375,2.28125 4,4.4375 l -1.25,1.46875 q -2.9375,-2.5 -4.59375,-5.15625 -1.625,-2.65625 -1.625,-5.03125 z"
         id="path173" />
      <path
         d="m 294.23437,231.0625 v -1.875 h 17.3125 v 1.875 h -3.34375 v 5 h -8.53125 q -0.40625,0 -0.71875,0.1875 -0.3125,0.1875 -0.3125,0.4375 0,0.84375 0.625,1.625 0.625,0.78125 1.65625,1.28125 0.65625,-0.28125 1.4375,-0.4375 0.8125,-0.1875 1.6875,-0.1875 2.34375,0 3.96875,1.34375 1.65625,1.3125 1.65625,3.25 0,1.0625 -0.4375,1.96875 -0.4375,0.875 -1.25,1.34375 l -1.65625,-1.4375 q 0.59375,-0.34375 0.90625,-0.84375 0.34375,-0.5 0.34375,-1.03125 0,-1.0625 -1.03125,-1.78125 -1.03125,-0.71875 -2.5,-0.71875 -2.25,0 -3.84375,1.03125 -1.5625,1.03125 -1.5625,2.5 0,1.90625 2.6875,3.25 2.6875,1.3125 6.46875,1.3125 l -0.4375,1.875 q -4.46875,0 -7.65625,-1.875 -3.15625,-1.90625 -3.15625,-4.5625 0,-1.21875 0.59375,-2.28125 0.625,-1.0625 1.6875,-1.6875 -1.0625,-0.90625 -1.6875,-1.9375 -0.59375,-1.03125 -0.59375,-2 0,-1.125 0.90625,-1.90625 0.9375,-0.8125 2.21875,-0.8125 h 6.46875 v -2.90625 z"
         id="path175" />
      <path
         d="m 310.70312,231.0625 v -1.875 h 3.375 l -7.53125,-9.15625 1.4375,-1.25 8.15625,10.40625 h 3.71875 v 1.875 h -3.5625 V 250 h -2.0625 v -18.9375 z"
         id="path177" />
      <path
         d="m 320.76562,239.8125 q 0,-2 1.28125,-3.375 1.28125,-1.40625 3.0625,-1.40625 h 8.125 v -3.96875 h -14.21875 v -1.875 h 19.84375 v 1.875 h -3.53125 V 250 h -2.09375 v -12.90625 h -8.125 q -0.9375,0 -1.625,0.8125 -0.65625,0.78125 -0.65625,1.90625 0,2 1.40625,4.28125 1.4375,2.28125 4,4.4375 l -1.25,1.46875 q -2.9375,-2.5 -4.59375,-5.15625 -1.625,-2.65625 -1.625,-5.03125 z"
         id="path179" />
      <path
         d="m 332.89062,229.1875 -7.6875,-9.15625 1.4375,-1.25 8.3125,10.40625 z"
         id="path181" />
      <path
         d="m 338.95312,254 1.65625,-7.28125 h 3.03125 L 340.51562,254 Z"
         id="path183" />
      <path
         d="m 372.20312,248.125 q 2.34375,0 4.46875,-1.3125 2.125,-1.34375 3.4375,-3.6875 v -1.65625 q -0.8125,0.71875 -1.6875,1.09375 -0.84375,0.375 -1.625,0.375 -2.09375,0 -3.5625,-1.3125 -1.4375,-1.3125 -1.4375,-3.15625 0,-1.875 1.4375,-3.1875 1.46875,-1.3125 3.5625,-1.3125 0.78125,0 1.46875,0.1875 0.6875,0.15625 1.21875,0.4375 v 2.09375 q -0.8125,-0.28125 -1.5,-0.4375 -0.6875,-0.1875 -1.1875,-0.1875 -1.21875,0 -2.09375,0.71875 -0.84375,0.6875 -0.84375,1.6875 0,1 0.84375,1.6875 0.875,0.6875 2.09375,0.6875 0.65625,0 1.5,-0.4375 0.875,-0.4375 1.8125,-1.21875 v -8.125 h -11.4375 v 4.59375 q 0,2 -1.125,3.40625 -1.09375,1.375 -2.625,1.375 -0.28125,0 -0.5625,-0.0625 -0.28125,-0.0625 -0.46875,-0.15625 1.28125,3.59375 3.5625,5.75 2.3125,2.15625 4.75,2.15625 z m -13.09375,-17.0625 v -1.875 h 26.625 v 1.875 h -3.53125 V 250 h -2.09375 v -4.15625 q -1.375,1.9375 -3.46875,3.0625 Q 374.54687,250 372.20312,250 q -3.625,0 -6.9375,-3.8125 -3.28125,-3.84375 -4.90625,-9.90625 l 1.65625,-0.84375 q 0.46875,1.34375 1.25,2.125 0.8125,0.78125 1.65625,0.78125 0.71875,0 1.1875,-0.78125 0.46875,-0.78125 0.46875,-1.90625 v -4.59375 z"
         id="path185" />
      <path
         d="m 379.70312,229.1875 -7.6875,-9.15625 1.4375,-1.25 8.3125,10.40625 z"
         id="path187" />
      <path
         d="m 401.64062,245.84375 q 1.3125,0 2.21875,-1.3125 0.90625,-1.34375 0.90625,-3.28125 0,-1.78125 -0.90625,-3.0625 -0.90625,-1.28125 -2.21875,-1.28125 -1.125,0 -2.1875,1.21875 -1.0625,1.21875 -1.5625,3.125 0.75,2.09375 1.78125,3.34375 1.0625,1.25 1.96875,1.25 z m -9.34375,-0.21875 q 0.90625,0 1.875,-1.125 1,-1.15625 1.65625,-3.03125 -0.53125,-2.03125 -1.53125,-3.28125 -0.96875,-1.28125 -2,-1.28125 -1.46875,0 -2.5,1.34375 -1.03125,1.3125 -1.03125,3.1875 0,1.75 1.03125,2.96875 1.03125,1.21875 2.5,1.21875 z m -7.40625,-14.5625 v -1.875 h 23.78125 v 1.875 h -6.1875 v 3.96875 q 1.90625,0.3125 3.125,2.09375 1.25,1.75 1.25,4.125 0,2.6875 -1.53125,4.59375 -1.5,1.875 -3.6875,1.875 -1.28125,0 -2.59375,-1.125 -1.3125,-1.125 -2.1875,-3.03125 -0.875,1.90625 -2.125,3.03125 -1.25,1.125 -2.4375,1.125 -2.34375,0 -4,-1.8125 -1.625,-1.84375 -1.625,-4.46875 0,-2.6875 1.625,-4.53125 1.65625,-1.875 4,-1.875 1.4375,0 2.6875,1.03125 1.25,1 1.875,2.6875 0.59375,-1.53125 1.53125,-2.53125 0.9375,-1 2,-1.1875 v -3.96875 z"
         id="path189" />
      <path
         d="m 407.85937,231.0625 v -1.875 h 9.15625 v 1.875 h -3.5625 V 250 h -2.0625 v -18.9375 z"
         id="path191" />
      <path
         d="m 416.17187,231.0625 v -1.875 h 15.75 v 1.875 z m 9.53125,15.1875 q -2.09375,0 -3.5625,-1.4375 -1.4375,-1.46875 -1.4375,-3.5625 0,-1.40625 0.59375,-2.59375 0.59375,-1.21875 1.6875,-1.96875 h -6.03125 v -2.09375 h 12.0625 v 2.09375 h -2.5 q -1.6875,0.78125 -2.71875,2.03125 -1.03125,1.25 -1.03125,2.53125 0,1.21875 0.84375,2.09375 0.875,0.84375 2.09375,0.84375 1.40625,0 3.1875,-1.65625 1.78125,-1.6875 3.46875,-4.59375 v 3.3125 q -1.625,2.34375 -3.40625,3.6875 -1.75,1.3125 -3.25,1.3125 z"
         id="path193" />
      <path
         d="m 439.54687,243.96875 q 1.625,0 3.0625,-0.875 1.46875,-0.90625 2.34375,-2.46875 v -9.5625 h -7.0625 q 0.78125,0.96875 1.21875,2.0625 0.4375,1.0625 0.4375,2.09375 0,1.8125 -1.4375,3.21875 -1.40625,1.40625 -3.5625,1.78125 0.3125,1.625 1.71875,2.6875 1.40625,1.0625 3.28125,1.0625 z m -8.4375,-12.90625 v -1.875 h 19.46875 v 1.875 h -3.53125 V 250 h -2.09375 v -6.4375 q -1.21875,1.1875 -2.625,1.84375 -1.375,0.625 -2.78125,0.625 -3,0 -5.15625,-2.15625 -2.125,-2.1875 -2.125,-5.3125 2.375,0 3.78125,-0.90625 1.40625,-0.9375 1.40625,-2.4375 0,-1 -0.53125,-2.0625 -0.53125,-1.09375 -1.53125,-2.09375 z"
         id="path195" />
      <path
         d="m 449.73437,231.0625 v -1.875 h 9.15625 v 1.875 h -3.5625 V 250 h -2.0625 v -18.9375 z"
         id="path197" />
      <path
         d="m 478.01562,248.53125 q -2.5,0 -4.84375,-2.0625 -2.34375,-2.09375 -4.09375,-5.84375 l 1.46875,-1.25 q 1.5625,3.375 3.5,5.25 1.96875,1.84375 3.96875,1.84375 1.3125,0 2.21875,-1.09375 0.90625,-1.125 0.90625,-2.65625 0,-1.46875 -1.03125,-2.5 -1.03125,-1.03125 -2.5,-1.03125 -0.46875,0 -1,0.0937 -0.5,0.0937 -1.09375,0.3125 l -0.8125,-1.875 q 1.875,-0.15625 3.3125,-1.34375 1.46875,-1.21875 1.46875,-2.59375 0,-1.125 -0.875,-1.90625 -0.84375,-0.8125 -2.03125,-0.8125 -1,0 -2.21875,0.78125 -1.21875,0.75 -2.375,2.125 l -1.4375,-1.4375 q 1.0625,-1.59375 2.65625,-2.46875 1.625,-0.875 3.375,-0.875 2.0625,0 3.5,1.34375 1.46875,1.3125 1.46875,3.25 0,1.125 -0.5,2.15625 -0.5,1.03125 -1.34375,1.78125 1.40625,0.84375 2.78125,1.25 1.375,0.40625 2.625,0.40625 0.3125,0 0.84375,-0.1875 0.53125,-0.21875 1.21875,-0.625 v -7.5 h -3.75 v -1.875 h 17.90625 v 1.875 h -3.53125 V 250 h -2.09375 v -18.9375 h -6.4375 V 250 h -2.09375 v -9.375 q -0.5,0.4375 -1.03125,0.65625 -0.5,0.1875 -1.03125,0.1875 -0.875,0 -1.59375,-0.15625 -0.71875,-0.1875 -1.125,-0.46875 0.40625,0.34375 0.625,0.9375 0.21875,0.59375 0.21875,1.34375 0,2.25 -1.53125,3.84375 -1.5,1.5625 -3.6875,1.5625 z"
         id="path199" />
      <path
         d="m 509.14062,244.375 q 1.5625,0 3.25,-0.96875 1.6875,-0.96875 3.1875,-2.78125 v -9.5625 h -9.5625 q -0.6875,0.375 -1.09375,1.0625 -0.375,0.6875 -0.375,1.4375 0,1.125 1.03125,1.9375 1.0625,0.78125 2.5,0.78125 h 2.71875 l 0.625,1.84375 h -1.875 q -1.78125,0 -3.09375,0.9375 -1.28125,0.90625 -1.28125,2.1875 0,1.3125 1.15625,2.21875 1.1875,0.90625 2.8125,0.90625 z m -8.65625,-13.3125 v -1.875 h 20.71875 v 1.875 h -3.53125 V 250 h -2.09375 v -6.65625 q -1.5,1.5 -3.1875,2.3125 -1.6875,0.8125 -3.25,0.8125 -2.5,0 -4.28125,-1.5 -1.75,-1.53125 -1.75,-3.71875 0,-1.125 0.59375,-2.125 0.59375,-1 1.6875,-1.59375 -1.34375,-0.46875 -2.125,-1.5625 -0.78125,-1.125 -0.78125,-2.40625 0,-0.625 0.25,-1.25 0.28125,-0.65625 0.78125,-1.25 z"
         id="path201" />
      <path
         d="m 520.35937,231.0625 v -1.875 h 9.15625 v 1.875 h -3.5625 V 250 h -2.0625 v -18.9375 z"
         id="path203" />
      <path
         d="m 530.42187,239.8125 q 0,-2 1.28125,-3.375 1.28125,-1.40625 3.0625,-1.40625 h 8.125 v -3.96875 h -14.21875 v -1.875 h 19.84375 v 1.875 h -3.53125 V 250 h -2.09375 v -12.90625 h -8.125 q -0.9375,0 -1.625,0.8125 -0.65625,0.78125 -0.65625,1.90625 0,2 1.40625,4.28125 1.4375,2.28125 4,4.4375 l -1.25,1.46875 q -2.9375,-2.5 -4.59375,-5.15625 -1.625,-2.65625 -1.625,-5.03125 z"
         id="path205" />
      <path
         d="m 547.67187,231.0625 v -1.875 h 9.15625 v 1.875 h -3.5625 V 250 h -2.0625 v -18.9375 z"
         id="path207" />
      <path
         d="m 550.85937,224 v -2.90625 h 3.125 V 224 Z"
         id="path209" />
      <path
         d="m 557.01562,237.53125 q 0,-0.4375 0.4375,-0.75 0.4375,-0.3125 1.03125,-0.3125 h 11 v -5.40625 h -13.5 v -1.875 h 19.125 v 1.875 h -3.53125 V 250 h -2.09375 v -11.4375 h -6.03125 q -0.5,0 -0.875,0.25 -0.375,0.25 -0.375,0.5625 v 2.09375 q 0,0.5 -0.3125,0.875 -0.3125,0.375 -0.71875,0.375 -0.71875,0 -2.4375,-2.15625 -1.71875,-2.1875 -1.71875,-3.03125 z"
         id="path211" />
      <path
         d="m 574.26562,231.0625 v -1.875 h 3.53125 q -0.53125,-3 -1.96875,-4.9375 -1.40625,-1.9375 -3.03125,-1.9375 -1.21875,0 -2.0625,0.8125 -0.84375,0.78125 -0.84375,1.90625 0,1 0.4375,2 0.4375,0.96875 1.21875,1.75 h -2.28125 q -0.71875,-0.71875 -1.09375,-1.6875 -0.375,-0.96875 -0.375,-2.0625 0,-1.90625 1.46875,-3.21875 1.4375,-1.34375 3.53125,-1.34375 2.40625,0 4.40625,2.46875 2,2.46875 2.65625,6.25 h 3.5625 v 1.875 h -3.5625 V 250 h -2.0625 v -18.9375 z"
         id="path213" />
      <path
         d="m 592.45312,231.0625 v -1.875 h 23 v 1.875 h -3.53125 V 250 h -2.09375 v -10 h -8.875 q -0.84375,0.625 -1.9375,0.625 -0.25,0 -0.5,-0.0625 -0.21875,-0.0625 -0.34375,-0.125 l 6.25,8.71875 -1.65625,1.0625 -9.375,-13.3125 1.6875,-1.25 q 0.65625,1.40625 1.53125,2.25 0.90625,0.84375 1.78125,0.84375 0.875,0 1.46875,-0.59375 0.625,-0.59375 0.625,-1.46875 v -5.625 z m 9.90625,6.875 h 7.46875 v -6.875 h -7.28125 v 5.625 q 0,0.65625 -0.1875,1.25 z"
         id="path215" />
      <path
         d="m 614.60937,231.0625 v -1.875 h 9.15625 v 1.875 h -3.5625 V 250 h -2.0625 v -18.9375 z"
         id="path217" />
      <path
         d="m 622.92187,231.0625 v -1.875 h 14.46875 v 1.875 h -2.8125 v 4.78125 q 0,1.9375 -1.3125,3.28125 -1.28125,1.3125 -3.0625,1.3125 -0.25,0 -0.6875,-0.0937 -0.40625,-0.125 -1,-0.34375 1.34375,2.34375 3.15625,4.5 1.84375,2.125 4.125,4.03125 L 634.57812,250 q -3.34375,-2.78125 -6.03125,-6.3125 -2.6875,-3.5625 -4.59375,-7.625 l 1.875,-1.03125 q 0.53125,1.5 1.71875,2.40625 1.21875,0.90625 2.65625,0.90625 0.9375,0 1.59375,-0.71875 0.6875,-0.71875 0.6875,-1.78125 v -4.78125 z"
         id="path219" />
      <path
         d="m 636.54687,231.0625 v -1.875 h 9.15625 v 1.875 h -3.5625 V 250 h -2.0625 v -18.9375 z"
         id="path221" />
      <path
         d="m 647.60937,250 v -3.28125 h 2.65625 V 250 Z"
         id="path223" />
    </g>
  </g>
</svg>
