<?xml version="1.0" encoding="UTF-8" standalone="no"?>
<svg
   width="800"
   height="350"
   version="1.1"
   id="svg12"
   sodipodi:docname="RangsiddhMusic.svg"
   xmlns:inkscape="http://www.inkscape.org/namespaces/inkscape"
   xmlns:sodipodi="http://sodipodi.sourceforge.net/DTD/sodipodi-0.dtd"
   xmlns="http://www.w3.org/2000/svg"
   xmlns:svg="http://www.w3.org/2000/svg">
  <defs
     id="defs16" />
  <sodipodi:namedview
     id="namedview14"
     pagecolor="#ffffff"
     bordercolor="#000000"
     borderopacity="0.25"
     inkscape:showpageshadow="2"
     inkscape:pageopacity="0.0"
     inkscape:pagecheckerboard="0"
     inkscape:deskcolor="#d1d1d1" />
  <g
     font-family="Lohit Devanagari"
     font-size="32"
     text-anchor="middle"
     fill="#000"
     id="g10">
    <g
       aria-label="Rangsiddh's song, a vibrant stream,"
       id="text2">
      <path
         d="M 161.67187,100 V 79.1875 h 2.0625 3.15625 q 3.1875,0 5.0625,1.6875 1.90625,1.6875 1.90625,4.5 0,2.15625 -1.15625,3.6875 -1.125,1.53125 -3.1875,2.15625 L 174.48437,100 h -2.28125 l -4.75,-8.4375 h -0.5625 -3.15625 V 100 Z m 2.0625,-18.9375 v 8.625 h 3.15625 q 2.21875,0 3.53125,-1.15625 1.3125,-1.1875 1.3125,-3.15625 0,-1.96875 -1.3125,-3.125 -1.3125,-1.1875 -3.53125,-1.1875 z"
         id="path18" />
      <path
         d="m 187.29687,98.375 q -1.78125,2.03125 -4.25,2.03125 -2.5625,0 -4.09375,-1.375 -1.5,-1.40625 -1.5,-3.71875 0,-2.34375 1.5,-3.71875 1.53125,-1.375 4.09375,-1.375 2.3125,0 4.09375,1.34375 v -2.09375 q 0,-1.65625 -1,-2.625 -0.96875,-1 -2.59375,-1 -2.4375,0 -3.9375,2.0625 L 178.01562,86.875 q 1.96875,-2.90625 5.53125,-2.90625 2.59375,0 4.125,1.5 1.53125,1.5 1.53125,4 V 100 h -1.90625 z m -4.28125,0.15625 q 2.5625,0 4.125,-2.5 v -2.3125 q -1.53125,-1.625 -4.125,-1.625 -1.625,0 -2.5625,0.875 -0.9375,0.875 -0.9375,2.34375 0,1.46875 0.9375,2.34375 0.9375,0.875 2.5625,0.875 z"
         id="path20" />
      <path
         d="m 206.26562,100 h -2.0625 V 89.25 q 0,-3.40625 -3.21875,-3.40625 -2.875,0 -4.40625,2.5625 V 100 h -2.0625 V 84.375 h 1.90625 v 1.71875 q 1.875,-2.125 4.5625,-2.125 2.59375,0 3.9375,1.375 1.34375,1.34375 1.34375,3.90625 z"
         id="path22" />
      <path
         d="m 222.70312,101.1875 q 0,2.65625 -1.53125,4.125 -1.5,1.5 -4.1875,1.5 -3.90625,0 -5.8125,-3.40625 l 1.6875,-1.0625 q 1.3125,2.53125 4.125,2.53125 1.75,0 2.6875,-0.96875 0.96875,-0.9375 0.96875,-2.71875 V 98.09375 Q 218.82812,100 216.29687,100 q -2.71875,0 -4.34375,-2.09375 -1.625,-2.125 -1.625,-5.6875 0,-3.78125 1.71875,-6 Q 213.76562,84 216.64062,84 q 2.46875,0 4.15625,1.84375 v -1.4375 h 1.90625 z m -2.0625,-12.5 q -0.53125,-1.3125 -1.625,-2.0625 -1.0625,-0.75 -2.40625,-0.75 -1.9375,0 -3.09375,1.71875 -1.125,1.71875 -1.125,4.625 0,2.6875 1.03125,4.3125 1.0625,1.59375 2.84375,1.59375 2.78125,0 4.375,-2.71875 z"
         id="path24" />
      <path
         d="m 234.54687,97.90625 q 0.875,-0.625 0.875,-1.65625 0,-1.03125 -0.84375,-1.71875 -0.8125,-0.71875 -2,-1.15625 -1.1875,-0.4375 -2.40625,-0.96875 -1.1875,-0.53125 -2.03125,-1.53125 -0.8125,-1 -0.8125,-2.46875 0,-2.03125 1.375,-3.21875 1.375,-1.21875 3.6875,-1.21875 3.125,0 4.96875,2.5625 l -1.5625,1.0625 q -1.25,-1.75 -3.40625,-1.75 -1.375,0 -2.1875,0.6875 -0.8125,0.6875 -0.8125,1.875 0,1 0.8125,1.65625 0.84375,0.65625 2.03125,1.09375 1.21875,0.40625 2.40625,0.9375 1.1875,0.5 2,1.5625 0.84375,1.03125 0.84375,2.59375 0,1.90625 -1.4375,3.03125 -1.40625,1.125 -3.78125,1.125 -3.375,0 -5.34375,-2.96875 l 1.5625,-1.0625 q 1.375,2.15625 3.78125,2.15625 1.4375,0 2.28125,-0.625 z"
         id="path26" />
      <path
         d="m 243.76562,100 h -2.0625 V 84.375 h 2.0625 z m -2.0625,-19.71875 q -0.40625,-0.40625 -0.40625,-1 0,-0.59375 0.40625,-1 0.4375,-0.4375 1.03125,-0.4375 0.59375,0 1,0.4375 0.4375,0.40625 0.4375,1 0,0.59375 -0.4375,1 -0.40625,0.40625 -1,0.40625 -0.59375,0 -1.03125,-0.40625 z"
         id="path28" />
      <path
         d="m 260.51562,100 h -1.90625 v -1.65625 q -1.875,2.0625 -4.5,2.0625 -2.75,0 -4.375,-2.21875 -1.59375,-2.21875 -1.59375,-6 0,-3.78125 1.71875,-6 1.71875,-2.21875 4.59375,-2.21875 2.34375,0 4,1.375 V 78.125 h 2.0625 z m -2.0625,-12 q -1.40625,-2.15625 -4.03125,-2.15625 -1.9375,0 -3.09375,1.71875 -1.125,1.71875 -1.125,4.625 0,2.90625 1.03125,4.625 1.0625,1.71875 2.84375,1.71875 2.78125,0 4.375,-2.71875 z"
         id="path30" />
      <path
         d="m 277.26562,100 h -1.90625 v -1.65625 q -1.875,2.0625 -4.5,2.0625 -2.75,0 -4.375,-2.21875 -1.59375,-2.21875 -1.59375,-6 0,-3.78125 1.71875,-6 1.71875,-2.21875 4.59375,-2.21875 2.34375,0 4,1.375 V 78.125 h 2.0625 z m -2.0625,-12 q -1.40625,-2.15625 -4.03125,-2.15625 -1.9375,0 -3.09375,1.71875 -1.125,1.71875 -1.125,4.625 0,2.90625 1.03125,4.625 1.0625,1.71875 2.84375,1.71875 2.78125,0 4.375,-2.71875 z"
         id="path32" />
      <path
         d="m 294.64062,100 h -2.0625 V 89.25 q 0,-3.40625 -3.21875,-3.40625 -2.875,0 -4.40625,2.5625 V 100 h -2.0625 V 78.125 h 2.0625 v 7.78125 q 1.84375,-1.9375 4.40625,-1.9375 2.59375,0 3.9375,1.375 1.34375,1.34375 1.34375,3.90625 z"
         id="path34" />
      <path
         d="m 299.14062,82.96875 -0.4375,-6.40625 h 2.53125 l -0.46875,6.40625 z"
         id="path36" />
      <path
         d="m 311.82812,97.90625 q 0.875,-0.625 0.875,-1.65625 0,-1.03125 -0.84375,-1.71875 -0.8125,-0.71875 -2,-1.15625 -1.1875,-0.4375 -2.40625,-0.96875 -1.1875,-0.53125 -2.03125,-1.53125 -0.8125,-1 -0.8125,-2.46875 0,-2.03125 1.375,-3.21875 1.375,-1.21875 3.6875,-1.21875 3.125,0 4.96875,2.5625 l -1.5625,1.0625 q -1.25,-1.75 -3.40625,-1.75 -1.375,0 -2.1875,0.6875 -0.8125,0.6875 -0.8125,1.875 0,1 0.8125,1.65625 0.84375,0.65625 2.03125,1.09375 1.21875,0.40625 2.40625,0.9375 1.1875,0.5 2,1.5625 0.84375,1.03125 0.84375,2.59375 0,1.90625 -1.4375,3.03125 -1.40625,1.125 -3.78125,1.125 -3.375,0 -5.34375,-2.96875 l 1.5625,-1.0625 q 1.375,2.15625 3.78125,2.15625 1.4375,0 2.28125,-0.625 z"
         id="path38" />
      <path
         d="m 335.07812,97.90625 q 0.875,-0.625 0.875,-1.65625 0,-1.03125 -0.84375,-1.71875 -0.8125,-0.71875 -2,-1.15625 -1.1875,-0.4375 -2.40625,-0.96875 -1.1875,-0.53125 -2.03125,-1.53125 -0.8125,-1 -0.8125,-2.46875 0,-2.03125 1.375,-3.21875 1.375,-1.21875 3.6875,-1.21875 3.125,0 4.96875,2.5625 l -1.5625,1.0625 q -1.25,-1.75 -3.40625,-1.75 -1.375,0 -2.1875,0.6875 -0.8125,0.6875 -0.8125,1.875 0,1 0.8125,1.65625 0.84375,0.65625 2.03125,1.09375 1.21875,0.40625 2.40625,0.9375 1.1875,0.5 2,1.5625 0.84375,1.03125 0.84375,2.59375 0,1.90625 -1.4375,3.03125 -1.40625,1.125 -3.78125,1.125 -3.375,0 -5.34375,-2.96875 l 1.5625,-1.0625 q 1.375,2.15625 3.78125,2.15625 1.4375,0 2.28125,-0.625 z"
         id="path40" />
      <path
         d="m 342.67187,98.21875 q -1.6875,-2.1875 -1.6875,-6.03125 0,-3.84375 1.6875,-6.03125 1.71875,-2.1875 4.71875,-2.1875 3.03125,0 4.75,2.1875 1.71875,2.1875 1.71875,6.03125 0,3.84375 -1.71875,6.03125 -1.71875,2.1875 -4.75,2.1875 -3,0 -4.71875,-2.1875 z m 1.53125,-10.6875 q -1.15625,1.6875 -1.15625,4.65625 0,2.96875 1.15625,4.65625 1.15625,1.6875 3.1875,1.6875 2.0625,0 3.21875,-1.6875 1.1875,-1.6875 1.1875,-4.65625 0,-2.96875 -1.1875,-4.65625 -1.15625,-1.6875 -3.21875,-1.6875 -2.03125,0 -3.1875,1.6875 z"
         id="path42" />
      <path
         d="m 369.98437,100 h -2.0625 V 89.25 q 0,-3.40625 -3.21875,-3.40625 -2.875,0 -4.40625,2.5625 V 100 h -2.0625 V 84.375 h 1.90625 v 1.71875 q 1.875,-2.125 4.5625,-2.125 2.59375,0 3.9375,1.375 1.34375,1.34375 1.34375,3.90625 z"
         id="path44" />
      <path
         d="m 386.42187,101.1875 q 0,2.65625 -1.53125,4.125 -1.5,1.5 -4.1875,1.5 -3.90625,0 -5.8125,-3.40625 l 1.6875,-1.0625 q 1.3125,2.53125 4.125,2.53125 1.75,0 2.6875,-0.96875 0.96875,-0.9375 0.96875,-2.71875 V 98.09375 Q 382.54687,100 380.01562,100 q -2.71875,0 -4.34375,-2.09375 -1.625,-2.125 -1.625,-5.6875 0,-3.78125 1.71875,-6 Q 377.48437,84 380.35937,84 q 2.46875,0 4.15625,1.84375 v -1.4375 h 1.90625 z m -2.0625,-12.5 q -0.53125,-1.3125 -1.625,-2.0625 -1.0625,-0.75 -2.40625,-0.75 -1.9375,0 -3.09375,1.71875 -1.125,1.71875 -1.125,4.625 0,2.6875 1.03125,4.3125 1.0625,1.59375 2.84375,1.59375 2.78125,0 4.375,-2.71875 z"
         id="path46" />
      <path
         d="m 389.76562,104 1.65625,-7.28125 h 3.03125 L 391.32812,104 Z"
         id="path48" />
      <path
         d="m 422.04687,98.375 q -1.78125,2.03125 -4.25,2.03125 -2.5625,0 -4.09375,-1.375 -1.5,-1.40625 -1.5,-3.71875 0,-2.34375 1.5,-3.71875 1.53125,-1.375 4.09375,-1.375 2.3125,0 4.09375,1.34375 v -2.09375 q 0,-1.65625 -1,-2.625 -0.96875,-1 -2.59375,-1 -2.4375,0 -3.9375,2.0625 L 412.76562,86.875 q 1.96875,-2.90625 5.53125,-2.90625 2.59375,0 4.125,1.5 1.53125,1.5 1.53125,4 V 100 h -1.90625 z m -4.28125,0.15625 q 2.5625,0 4.125,-2.5 v -2.3125 q -1.53125,-1.625 -4.125,-1.625 -1.625,0 -2.5625,0.875 -0.9375,0.875 -0.9375,2.34375 0,1.46875 0.9375,2.34375 0.9375,0.875 2.5625,0.875 z"
         id="path50" />
      <path
         d="m 442.23437,100 -5.125,-15.625 h 2.09375 l 4.5,13.84375 4.53125,-13.84375 h 2.09375 l -5.125,15.625 z"
         id="path52" />
      <path
         d="m 455.98437,100 h -2.0625 V 84.375 h 2.0625 z m -2.0625,-19.71875 q -0.40625,-0.40625 -0.40625,-1 0,-0.59375 0.40625,-1 0.4375,-0.4375 1.03125,-0.4375 0.59375,0 1,0.4375 0.4375,0.40625 0.4375,1 0,0.59375 -0.4375,1 -0.40625,0.40625 -1,0.40625 -0.59375,0 -1.03125,-0.40625 z"
         id="path54" />
      <path
         d="m 461.60937,78.125 h 2.0625 v 7.75 q 1.8125,-1.90625 4.34375,-1.90625 2.75,0 4.34375,2.21875 1.625,2.21875 1.625,6 0,3.78125 -1.71875,6 -1.71875,2.21875 -4.59375,2.21875 -2.5,0 -4.15625,-1.8125 V 100 h -1.90625 z m 2.0625,17.59375 q 0.5,1.3125 1.5625,2.0625 1.09375,0.75 2.46875,0.75 1.9375,0 3.0625,-1.71875 1.15625,-1.71875 1.15625,-4.625 0,-2.90625 -1.0625,-4.625 -1.03125,-1.71875 -2.8125,-1.71875 -2.75,0 -4.375,2.71875 z"
         id="path56" />
      <path
         d="M 485.54687,86.09375 484.64062,86 q -2.875,0 -4.21875,3.21875 V 100 h -2.0625 V 84.375 h 1.90625 v 2.1875 q 1.78125,-2.59375 4.40625,-2.59375 0.6875,0 1.21875,0.09375 z"
         id="path58" />
      <path
         d="m 497.60937,98.375 q -1.78125,2.03125 -4.25,2.03125 -2.5625,0 -4.09375,-1.375 -1.5,-1.40625 -1.5,-3.71875 0,-2.34375 1.5,-3.71875 1.53125,-1.375 4.09375,-1.375 2.3125,0 4.09375,1.34375 v -2.09375 q 0,-1.65625 -1,-2.625 -0.96875,-1 -2.59375,-1 -2.4375,0 -3.9375,2.0625 L 488.32812,86.875 q 1.96875,-2.90625 5.53125,-2.90625 2.59375,0 4.125,1.5 1.53125,1.5 1.53125,4 V 100 h -1.90625 z m -4.28125,0.15625 q 2.5625,0 4.125,-2.5 v -2.3125 q -1.53125,-1.625 -4.125,-1.625 -1.625,0 -2.5625,0.875 -0.9375,0.875 -0.9375,2.34375 0,1.46875 0.9375,2.34375 0.9375,0.875 2.5625,0.875 z"
         id="path60" />
      <path
         d="m 516.57812,100 h -2.0625 V 89.25 q 0,-3.40625 -3.21875,-3.40625 -2.875,0 -4.40625,2.5625 V 100 h -2.0625 V 84.375 h 1.90625 v 1.71875 q 1.875,-2.125 4.5625,-2.125 2.59375,0 3.9375,1.375 1.34375,1.34375 1.34375,3.90625 z"
         id="path62" />
      <path
         d="m 520.17187,84.375 h 2.125 V 81.25 h 2.0625 v 3.125 h 4 v 1.875 h -4 v 10.3125 q 0,0.90625 0.4375,1.4375 0.46875,0.53125 1.21875,0.53125 1.28125,0 2.09375,-1 l 1.3125,1.125 q -1.21875,1.75 -3.40625,1.75 -1.71875,0 -2.71875,-1.03125 -1,-1.03125 -1,-2.8125 V 86.25 h -2.125 z"
         id="path64" />
      <path
         d="m 548.01562,97.90625 q 0.875,-0.625 0.875,-1.65625 0,-1.03125 -0.84375,-1.71875 -0.8125,-0.71875 -2,-1.15625 -1.1875,-0.4375 -2.40625,-0.96875 -1.1875,-0.53125 -2.03125,-1.53125 -0.8125,-1 -0.8125,-2.46875 0,-2.03125 1.375,-3.21875 1.375,-1.21875 3.6875,-1.21875 3.125,0 4.96875,2.5625 l -1.5625,1.0625 q -1.25,-1.75 -3.40625,-1.75 -1.375,0 -2.1875,0.6875 -0.8125,0.6875 -0.8125,1.875 0,1 0.8125,1.65625 0.84375,0.65625 2.03125,1.09375 1.21875,0.40625 2.40625,0.9375 1.1875,0.5 2,1.5625 0.84375,1.03125 0.84375,2.59375 0,1.90625 -1.4375,3.03125 -1.40625,1.125 -3.78125,1.125 -3.375,0 -5.34375,-2.96875 l 1.5625,-1.0625 q 1.375,2.15625 3.78125,2.15625 1.4375,0 2.28125,-0.625 z"
         id="path66" />
      <path
         d="m 553.45312,84.375 h 2.125 V 81.25 h 2.0625 v 3.125 h 4 v 1.875 h -4 v 10.3125 q 0,0.90625 0.4375,1.4375 0.46875,0.53125 1.21875,0.53125 1.28125,0 2.09375,-1 l 1.3125,1.125 q -1.21875,1.75 -3.40625,1.75 -1.71875,0 -2.71875,-1.03125 -1,-1.03125 -1,-2.8125 V 86.25 h -2.125 z"
         id="path68" />
      <path
         d="M 572.39062,86.09375 571.48437,86 q -2.875,0 -4.21875,3.21875 V 100 h -2.0625 V 84.375 h 1.90625 v 2.1875 q 1.78125,-2.59375 4.40625,-2.59375 0.6875,0 1.21875,0.09375 z"
         id="path70" />
      <path
         d="m 580.70312,100.40625 q -2.9375,0 -4.6875,-2.21875 -1.71875,-2.25 -1.71875,-6 0,-3.75 1.71875,-5.96875 1.75,-2.25 4.6875,-2.25 2.84375,0 4.5,2.0625 1.6875,2.0625 1.6875,5.5 v 1.1875 h -10.53125 q 0.125,2.6875 1.28125,4.25 1.15625,1.5625 3.0625,1.5625 2.53125,0 3.9375,-2.125 L 586.29687,97.5 q -2,2.90625 -5.59375,2.90625 z m 0,-14.5625 q -1.75,0 -2.90625,1.34375 -1.125,1.3125 -1.375,3.65625 h 8.375 q -0.15625,-2.3125 -1.28125,-3.65625 -1.09375,-1.34375 -2.8125,-1.34375 z"
         id="path72" />
      <path
         d="m 600.32812,98.375 q -1.78125,2.03125 -4.25,2.03125 -2.5625,0 -4.09375,-1.375 -1.5,-1.40625 -1.5,-3.71875 0,-2.34375 1.5,-3.71875 1.53125,-1.375 4.09375,-1.375 2.3125,0 4.09375,1.34375 v -2.09375 q 0,-1.65625 -1,-2.625 -0.96875,-1 -2.59375,-1 -2.4375,0 -3.9375,2.0625 L 591.04687,86.875 q 1.96875,-2.90625 5.53125,-2.90625 2.59375,0 4.125,1.5 1.53125,1.5 1.53125,4 V 100 h -1.90625 z m -4.28125,0.15625 q 2.5625,0 4.125,-2.5 v -2.3125 q -1.53125,-1.625 -4.125,-1.625 -1.625,0 -2.5625,0.875 -0.9375,0.875 -0.9375,2.34375 0,1.46875 0.9375,2.34375 0.9375,0.875 2.5625,0.875 z"
         id="path74" />
      <path
         d="m 618.67187,100 h -2.0625 V 89.25 q 0,-3.40625 -2.96875,-3.40625 -2.625,0 -4.03125,2.46875 V 100 h -2.0625 V 84.375 h 1.90625 v 1.59375 q 1.75,-2 4.15625,-2 3.34375,0 4.5,2.46875 1.84375,-2.46875 4.5625,-2.46875 2.46875,0 3.75,1.375 1.3125,1.34375 1.3125,3.90625 V 100 h -2.0625 V 89.25 q 0,-3.40625 -2.96875,-3.40625 -2.65625,0 -4.09375,2.53125 0.0625,0.5625 0.0625,0.875 z"
         id="path76" />
      <path
         d="m 630.76562,104 1.65625,-7.28125 h 3.03125 L 632.32812,104 Z"
         id="path78" />
    </g>
    <g
       aria-label="Flows with rhythm, a waking dream."
       id="text4">
      <path
         d="m 160.39062,138.25 h 7.71875 v 1.875 h -7.71875 V 150 h -2.0625 v -20.8125 h 2.0625 8.375 v 1.875 h -8.375 z"
         id="path81" />
      <path
         d="m 174.89062,150 h -2.0625 v -21.875 h 2.0625 z"
         id="path83" />
      <path
         d="m 180.95312,148.21875 q -1.6875,-2.1875 -1.6875,-6.03125 0,-3.84375 1.6875,-6.03125 1.71875,-2.1875 4.71875,-2.1875 3.03125,0 4.75,2.1875 1.71875,2.1875 1.71875,6.03125 0,3.84375 -1.71875,6.03125 -1.71875,2.1875 -4.75,2.1875 -3,0 -4.71875,-2.1875 z m 1.53125,-10.6875 q -1.15625,1.6875 -1.15625,4.65625 0,2.96875 1.15625,4.65625 1.15625,1.6875 3.1875,1.6875 2.0625,0 3.21875,-1.6875 1.1875,-1.6875 1.1875,-4.65625 0,-2.96875 -1.1875,-4.65625 -1.15625,-1.6875 -3.21875,-1.6875 -2.03125,0 -3.1875,1.6875 z"
         id="path85" />
      <path
         d="m 205.64062,134.375 3.28125,13.6875 3.875,-13.6875 h 2.09375 l -4.5,15.625 h -2.84375 l -2.875,-11.6875 L 201.82812,150 h -2.84375 l -4.5,-15.625 h 2.09375 l 3.875,13.6875 3.28125,-13.6875 z"
         id="path87" />
      <path
         d="m 224.70312,147.90625 q 0.875,-0.625 0.875,-1.65625 0,-1.03125 -0.84375,-1.71875 -0.8125,-0.71875 -2,-1.15625 -1.1875,-0.4375 -2.40625,-0.96875 -1.1875,-0.53125 -2.03125,-1.53125 -0.8125,-1 -0.8125,-2.46875 0,-2.03125 1.375,-3.21875 1.375,-1.21875 3.6875,-1.21875 3.125,0 4.96875,2.5625 l -1.5625,1.0625 q -1.25,-1.75 -3.40625,-1.75 -1.375,0 -2.1875,0.6875 -0.8125,0.6875 -0.8125,1.875 0,1 0.8125,1.65625 0.84375,0.65625 2.03125,1.09375 1.21875,0.40625 2.40625,0.9375 1.1875,0.5 2,1.5625 0.84375,1.03125 0.84375,2.59375 0,1.90625 -1.4375,3.03125 -1.40625,1.125 -3.78125,1.125 -3.375,0 -5.34375,-2.96875 l 1.5625,-1.0625 q 1.375,2.15625 3.78125,2.15625 1.4375,0 2.28125,-0.625 z"
         id="path89" />
      <path
         d="m 250.85937,134.375 3.28125,13.6875 3.875,-13.6875 h 2.09375 l -4.5,15.625 h -2.84375 l -2.875,-11.6875 L 247.04687,150 h -2.84375 l -4.5,-15.625 h 2.09375 l 3.875,13.6875 3.28125,-13.6875 z"
         id="path91" />
      <path
         d="m 265.76562,150 h -2.0625 v -15.625 h 2.0625 z m -2.0625,-19.71875 q -0.40625,-0.40625 -0.40625,-1 0,-0.59375 0.40625,-1 0.4375,-0.4375 1.03125,-0.4375 0.59375,0 1,0.4375 0.4375,0.40625 0.4375,1 0,0.59375 -0.4375,1 -0.40625,0.40625 -1,0.40625 -0.59375,0 -1.03125,-0.40625 z"
         id="path93" />
      <path
         d="m 269.67187,134.375 h 2.125 v -3.125 h 2.0625 v 3.125 h 4 v 1.875 h -4 v 10.3125 q 0,0.90625 0.4375,1.4375 0.46875,0.53125 1.21875,0.53125 1.28125,0 2.09375,-1 l 1.3125,1.125 q -1.21875,1.75 -3.40625,1.75 -1.71875,0 -2.71875,-1.03125 -1,-1.03125 -1,-2.8125 V 136.25 h -2.125 z"
         id="path95" />
      <path
         d="m 293.17187,150 h -2.0625 v -10.75 q 0,-3.40625 -3.21875,-3.40625 -2.875,0 -4.40625,2.5625 V 150 h -2.0625 v -21.875 h 2.0625 v 7.78125 q 1.84375,-1.9375 4.40625,-1.9375 2.59375,0 3.9375,1.375 1.34375,1.34375 1.34375,3.90625 z"
         id="path97" />
      <path
         d="M 315.54687,136.09375 314.64062,136 q -2.875,0 -4.21875,3.21875 V 150 h -2.0625 v -15.625 h 1.90625 v 2.1875 q 1.78125,-2.59375 4.40625,-2.59375 0.6875,0 1.21875,0.0937 z"
         id="path99" />
      <path
         d="m 330.45312,150 h -2.0625 v -10.75 q 0,-3.40625 -3.21875,-3.40625 -2.875,0 -4.40625,2.5625 V 150 h -2.0625 v -21.875 h 2.0625 v 7.78125 q 1.84375,-1.9375 4.40625,-1.9375 2.59375,0 3.9375,1.375 1.34375,1.34375 1.34375,3.90625 z"
         id="path101" />
      <path
         d="m 333.73437,134.375 h 2.09375 l 4.53125,13.53125 4.5,-13.53125 h 2.09375 l -5.125,14.84375 q -1.875,5.375 -6.8125,7.59375 l -0.84375,-1.625 q 1.78125,-0.84375 2.9375,-1.9375 1.1875,-1.09375 2.125,-2.75 z"
         id="path103" />
      <path
         d="m 348.82812,134.375 h 2.125 v -3.125 h 2.0625 v 3.125 h 4 v 1.875 h -4 v 10.3125 q 0,0.90625 0.4375,1.4375 0.46875,0.53125 1.21875,0.53125 1.28125,0 2.09375,-1 l 1.3125,1.125 q -1.21875,1.75 -3.40625,1.75 -1.71875,0 -2.71875,-1.03125 -1,-1.03125 -1,-2.8125 V 136.25 h -2.125 z"
         id="path105" />
      <path
         d="m 372.32812,150 h -2.0625 v -10.75 q 0,-3.40625 -3.21875,-3.40625 -2.875,0 -4.40625,2.5625 V 150 h -2.0625 v -21.875 h 2.0625 v 7.78125 q 1.84375,-1.9375 4.40625,-1.9375 2.59375,0 3.9375,1.375 1.34375,1.34375 1.34375,3.90625 z"
         id="path107" />
      <path
         d="m 388.76562,150 h -2.0625 v -10.75 q 0,-3.40625 -2.96875,-3.40625 -2.625,0 -4.03125,2.46875 V 150 h -2.0625 v -15.625 h 1.90625 v 1.59375 q 1.75,-2 4.15625,-2 3.34375,0 4.5,2.46875 1.84375,-2.46875 4.5625,-2.46875 2.46875,0 3.75,1.375 1.3125,1.34375 1.3125,3.90625 V 150 h -2.0625 v -10.75 q 0,-3.40625 -2.96875,-3.40625 -2.65625,0 -4.09375,2.53125 0.0625,0.5625 0.0625,0.875 z"
         id="path109" />
      <path
         d="m 400.85937,154 1.65625,-7.28125 h 3.03125 L 402.42187,154 Z"
         id="path111" />
      <path
         d="m 433.14062,148.375 q -1.78125,2.03125 -4.25,2.03125 -2.5625,0 -4.09375,-1.375 -1.5,-1.40625 -1.5,-3.71875 0,-2.34375 1.5,-3.71875 1.53125,-1.375 4.09375,-1.375 2.3125,0 4.09375,1.34375 v -2.09375 q 0,-1.65625 -1,-2.625 -0.96875,-1 -2.59375,-1 -2.4375,0 -3.9375,2.0625 l -1.59375,-1.03125 q 1.96875,-2.90625 5.53125,-2.90625 2.59375,0 4.125,1.5 1.53125,1.5 1.53125,4 V 150 h -1.90625 z m -4.28125,0.15625 q 2.5625,0 4.125,-2.5 v -2.3125 q -1.53125,-1.625 -4.125,-1.625 -1.625,0 -2.5625,0.875 -0.9375,0.875 -0.9375,2.34375 0,1.46875 0.9375,2.34375 0.9375,0.875 2.5625,0.875 z"
         id="path113" />
      <path
         d="m 459.35937,134.375 3.28125,13.6875 3.875,-13.6875 h 2.09375 l -4.5,15.625 h -2.84375 l -2.875,-11.6875 L 455.54687,150 h -2.84375 l -4.5,-15.625 h 2.09375 l 3.875,13.6875 3.28125,-13.6875 z"
         id="path115" />
      <path
         d="m 481.10937,148.375 q -1.78125,2.03125 -4.25,2.03125 -2.5625,0 -4.09375,-1.375 -1.5,-1.40625 -1.5,-3.71875 0,-2.34375 1.5,-3.71875 1.53125,-1.375 4.09375,-1.375 2.3125,0 4.09375,1.34375 v -2.09375 q 0,-1.65625 -1,-2.625 -0.96875,-1 -2.59375,-1 -2.4375,0 -3.9375,2.0625 l -1.59375,-1.03125 q 1.96875,-2.90625 5.53125,-2.90625 2.59375,0 4.125,1.5 1.53125,1.5 1.53125,4 V 150 h -1.90625 z m -4.28125,0.15625 q 2.5625,0 4.125,-2.5 v -2.3125 q -1.53125,-1.625 -4.125,-1.625 -1.625,0 -2.5625,0.875 -0.9375,0.875 -0.9375,2.34375 0,1.46875 0.9375,2.34375 0.9375,0.875 2.5625,0.875 z"
         id="path117" />
      <path
         d="m 488.64062,150 v -21.875 h 2.0625 v 13.46875 l 6.28125,-7.21875 h 2.5 l -5.78125,6.625 6.25,9 h -2.40625 l -5.1875,-7.46875 -1.65625,1.90625 V 150 Z"
         id="path119" />
      <path
         d="m 504.98437,150 h -2.0625 v -15.625 h 2.0625 z m -2.0625,-19.71875 q -0.40625,-0.40625 -0.40625,-1 0,-0.59375 0.40625,-1 0.4375,-0.4375 1.03125,-0.4375 0.59375,0 1,0.4375 0.4375,0.40625 0.4375,1 0,0.59375 -0.4375,1 -0.40625,0.40625 -1,0.40625 -0.59375,0 -1.03125,-0.40625 z"
         id="path121" />
      <path
         d="m 522.35937,150 h -2.0625 v -10.75 q 0,-3.40625 -3.21875,-3.40625 -2.875,0 -4.40625,2.5625 V 150 h -2.0625 v -15.625 h 1.90625 v 1.71875 q 1.875,-2.125 4.5625,-2.125 2.59375,0 3.9375,1.375 1.34375,1.34375 1.34375,3.90625 z"
         id="path123" />
      <path
         d="m 538.79687,151.1875 q 0,2.65625 -1.53125,4.125 -1.5,1.5 -4.1875,1.5 -3.90625,0 -5.8125,-3.40625 l 1.6875,-1.0625 q 1.3125,2.53125 4.125,2.53125 1.75,0 2.6875,-0.96875 0.96875,-0.9375 0.96875,-2.71875 v -3.09375 Q 534.92187,150 532.39062,150 q -2.71875,0 -4.34375,-2.09375 -1.625,-2.125 -1.625,-5.6875 0,-3.78125 1.71875,-6 Q 529.85937,134 532.73437,134 q 2.46875,0 4.15625,1.84375 v -1.4375 h 1.90625 z m -2.0625,-12.5 q -0.53125,-1.3125 -1.625,-2.0625 -1.0625,-0.75 -2.40625,-0.75 -1.9375,0 -3.09375,1.71875 -1.125,1.71875 -1.125,4.625 0,2.6875 1.03125,4.3125 1.0625,1.59375 2.84375,1.59375 2.78125,0 4.375,-2.71875 z"
         id="path125" />
      <path
         d="m 565.42187,150 h -1.90625 v -1.65625 q -1.875,2.0625 -4.5,2.0625 -2.75,0 -4.375,-2.21875 -1.59375,-2.21875 -1.59375,-6 0,-3.78125 1.71875,-6 1.71875,-2.21875 4.59375,-2.21875 2.34375,0 4,1.375 V 128.125 h 2.0625 z m -2.0625,-12 q -1.40625,-2.15625 -4.03125,-2.15625 -1.9375,0 -3.09375,1.71875 -1.125,1.71875 -1.125,4.625 0,2.90625 1.03125,4.625 1.0625,1.71875 2.84375,1.71875 2.78125,0 4.375,-2.71875 z"
         id="path127" />
      <path
         d="M 578.23437,136.09375 577.32812,136 q -2.875,0 -4.21875,3.21875 V 150 h -2.0625 v -15.625 h 1.90625 v 2.1875 q 1.78125,-2.59375 4.40625,-2.59375 0.6875,0 1.21875,0.0937 z"
         id="path129" />
      <path
         d="m 586.54687,150.40625 q -2.9375,0 -4.6875,-2.21875 -1.71875,-2.25 -1.71875,-6 0,-3.75 1.71875,-5.96875 1.75,-2.25 4.6875,-2.25 2.84375,0 4.5,2.0625 1.6875,2.0625 1.6875,5.5 v 1.1875 h -10.53125 q 0.125,2.6875 1.28125,4.25 1.15625,1.5625 3.0625,1.5625 2.53125,0 3.9375,-2.125 l 1.65625,1.09375 q -2,2.90625 -5.59375,2.90625 z m 0,-14.5625 q -1.75,0 -2.90625,1.34375 -1.125,1.3125 -1.375,3.65625 h 8.375 q -0.15625,-2.3125 -1.28125,-3.65625 -1.09375,-1.34375 -2.8125,-1.34375 z"
         id="path131" />
      <path
         d="m 606.17187,148.375 q -1.78125,2.03125 -4.25,2.03125 -2.5625,0 -4.09375,-1.375 -1.5,-1.40625 -1.5,-3.71875 0,-2.34375 1.5,-3.71875 1.53125,-1.375 4.09375,-1.375 2.3125,0 4.09375,1.34375 v -2.09375 q 0,-1.65625 -1,-2.625 -0.96875,-1 -2.59375,-1 -2.4375,0 -3.9375,2.0625 l -1.59375,-1.03125 q 1.96875,-2.90625 5.53125,-2.90625 2.59375,0 4.125,1.5 1.53125,1.5 1.53125,4 V 150 h -1.90625 z m -4.28125,0.15625 q 2.5625,0 4.125,-2.5 v -2.3125 q -1.53125,-1.625 -4.125,-1.625 -1.625,0 -2.5625,0.875 -0.9375,0.875 -0.9375,2.34375 0,1.46875 0.9375,2.34375 0.9375,0.875 2.5625,0.875 z"
         id="path133" />
      <path
         d="m 624.51562,150 h -2.0625 v -10.75 q 0,-3.40625 -2.96875,-3.40625 -2.625,0 -4.03125,2.46875 V 150 h -2.0625 v -15.625 h 1.90625 v 1.59375 q 1.75,-2 4.15625,-2 3.34375,0 4.5,2.46875 1.84375,-2.46875 4.5625,-2.46875 2.46875,0 3.75,1.375 1.3125,1.34375 1.3125,3.90625 V 150 h -2.0625 v -10.75 q 0,-3.40625 -2.96875,-3.40625 -2.65625,0 -4.09375,2.53125 0.0625,0.5625 0.0625,0.875 z"
         id="path135" />
      <path
         d="m 638.42187,150 v -3.28125 h 2.65625 V 150 Z"
         id="path137" />
    </g>
    <g
       aria-label="Sweetest notes, a melodic gleam,"
       id="text6">
      <path
         d="m 185.32812,195.09375 q 0,-1.46875 -1.09375,-2.46875 -1.0625,-1.03125 -2.59375,-1.65625 -1.53125,-0.65625 -3.0625,-1.34375 -1.53125,-0.6875 -2.625,-1.96875 -1.0625,-1.3125 -1.0625,-3.21875 0,-2.59375 1.65625,-4.125 1.6875,-1.53125 4.53125,-1.53125 3.875,0 6.03125,3.03125 l -1.59375,1.125 q -1.59375,-2.28125 -4.4375,-2.28125 -1.84375,0 -2.96875,1.03125 -1.09375,1.03125 -1.09375,2.75 0,1.4375 1.0625,2.375 1.09375,0.9375 2.625,1.53125 1.53125,0.59375 3.0625,1.28125 1.53125,0.6875 2.59375,2.0625 1.09375,1.34375 1.09375,3.40625 0,2.4375 -1.78125,3.875 -1.78125,1.4375 -4.75,1.4375 -4.3125,0 -6.53125,-3.59375 l 1.59375,-1.125 q 1.6875,2.84375 4.9375,2.84375 2,0 3.1875,-0.9375 1.21875,-0.9375 1.21875,-2.5 z"
         id="path140" />
      <path
         d="m 200.95312,184.375 3.28125,13.6875 3.875,-13.6875 h 2.09375 l -4.5,15.625 h -2.84375 l -2.875,-11.6875 L 197.14062,200 h -2.84375 l -4.5,-15.625 h 2.09375 l 3.875,13.6875 3.28125,-13.6875 z"
         id="path142" />
      <path
         d="m 218.95312,200.40625 q -2.9375,0 -4.6875,-2.21875 -1.71875,-2.25 -1.71875,-6 0,-3.75 1.71875,-5.96875 1.75,-2.25 4.6875,-2.25 2.84375,0 4.5,2.0625 1.6875,2.0625 1.6875,5.5 v 1.1875 h -10.53125 q 0.125,2.6875 1.28125,4.25 1.15625,1.5625 3.0625,1.5625 2.53125,0 3.9375,-2.125 l 1.65625,1.09375 q -2,2.90625 -5.59375,2.90625 z m 0,-14.5625 q -1.75,0 -2.90625,1.34375 -1.125,1.3125 -1.375,3.65625 h 8.375 q -0.15625,-2.3125 -1.28125,-3.65625 -1.09375,-1.34375 -2.8125,-1.34375 z"
         id="path144" />
      <path
         d="m 234.82812,200.40625 q -2.9375,0 -4.6875,-2.21875 -1.71875,-2.25 -1.71875,-6 0,-3.75 1.71875,-5.96875 1.75,-2.25 4.6875,-2.25 2.84375,0 4.5,2.0625 1.6875,2.0625 1.6875,5.5 v 1.1875 h -10.53125 q 0.125,2.6875 1.28125,4.25 1.15625,1.5625 3.0625,1.5625 2.53125,0 3.9375,-2.125 l 1.65625,1.09375 q -2,2.90625 -5.59375,2.90625 z m 0,-14.5625 q -1.75,0 -2.90625,1.34375 -1.125,1.3125 -1.375,3.65625 h 8.375 q -0.15625,-2.3125 -1.28125,-3.65625 -1.09375,-1.34375 -2.8125,-1.34375 z"
         id="path146" />
      <path
         d="m 243.82812,184.375 h 2.125 v -3.125 h 2.0625 v 3.125 h 4 v 1.875 h -4 v 10.3125 q 0,0.90625 0.4375,1.4375 0.46875,0.53125 1.21875,0.53125 1.28125,0 2.09375,-1 l 1.3125,1.125 q -1.21875,1.75 -3.40625,1.75 -1.71875,0 -2.71875,-1.03125 -1,-1.03125 -1,-2.8125 V 186.25 h -2.125 z"
         id="path148" />
      <path
         d="m 260.73437,200.40625 q -2.9375,0 -4.6875,-2.21875 -1.71875,-2.25 -1.71875,-6 0,-3.75 1.71875,-5.96875 1.75,-2.25 4.6875,-2.25 2.84375,0 4.5,2.0625 1.6875,2.0625 1.6875,5.5 v 1.1875 h -10.53125 q 0.125,2.6875 1.28125,4.25 1.15625,1.5625 3.0625,1.5625 2.53125,0 3.9375,-2.125 l 1.65625,1.09375 q -2,2.90625 -5.59375,2.90625 z m 0,-14.5625 q -1.75,0 -2.90625,1.34375 -1.125,1.3125 -1.375,3.65625 h 8.375 q -0.15625,-2.3125 -1.28125,-3.65625 -1.09375,-1.34375 -2.8125,-1.34375 z"
         id="path150" />
      <path
         d="m 277.67187,197.90625 q 0.875,-0.625 0.875,-1.65625 0,-1.03125 -0.84375,-1.71875 -0.8125,-0.71875 -2,-1.15625 -1.1875,-0.4375 -2.40625,-0.96875 -1.1875,-0.53125 -2.03125,-1.53125 -0.8125,-1 -0.8125,-2.46875 0,-2.03125 1.375,-3.21875 1.375,-1.21875 3.6875,-1.21875 3.125,0 4.96875,2.5625 l -1.5625,1.0625 q -1.25,-1.75 -3.40625,-1.75 -1.375,0 -2.1875,0.6875 -0.8125,0.6875 -0.8125,1.875 0,1 0.8125,1.65625 0.84375,0.65625 2.03125,1.09375 1.21875,0.40625 2.40625,0.9375 1.1875,0.5 2,1.5625 0.84375,1.03125 0.84375,2.59375 0,1.90625 -1.4375,3.03125 -1.40625,1.125 -3.78125,1.125 -3.375,0 -5.34375,-2.96875 l 1.5625,-1.0625 q 1.375,2.15625 3.78125,2.15625 1.4375,0 2.28125,-0.625 z"
         id="path152" />
      <path
         d="m 283.10937,184.375 h 2.125 v -3.125 h 2.0625 v 3.125 h 4 v 1.875 h -4 v 10.3125 q 0,0.90625 0.4375,1.4375 0.46875,0.53125 1.21875,0.53125 1.28125,0 2.09375,-1 l 1.3125,1.125 q -1.21875,1.75 -3.40625,1.75 -1.71875,0 -2.71875,-1.03125 -1,-1.03125 -1,-2.8125 V 186.25 h -2.125 z"
         id="path154" />
      <path
         d="m 316.48437,200 h -2.0625 v -10.75 q 0,-3.40625 -3.21875,-3.40625 -2.875,0 -4.40625,2.5625 V 200 h -2.0625 v -15.625 h 1.90625 v 1.71875 q 1.875,-2.125 4.5625,-2.125 2.59375,0 3.9375,1.375 1.34375,1.34375 1.34375,3.90625 z"
         id="path156" />
      <path
         d="m 322.23437,198.21875 q -1.6875,-2.1875 -1.6875,-6.03125 0,-3.84375 1.6875,-6.03125 1.71875,-2.1875 4.71875,-2.1875 3.03125,0 4.75,2.1875 1.71875,2.1875 1.71875,6.03125 0,3.84375 -1.71875,6.03125 -1.71875,2.1875 -4.75,2.1875 -3,0 -4.71875,-2.1875 z m 1.53125,-10.6875 q -1.15625,1.6875 -1.15625,4.65625 0,2.96875 1.15625,4.65625 1.15625,1.6875 3.1875,1.6875 2.0625,0 3.21875,-1.6875 1.1875,-1.6875 1.1875,-4.65625 0,-2.96875 -1.1875,-4.65625 -1.15625,-1.6875 -3.21875,-1.6875 -2.03125,0 -3.1875,1.6875 z"
         id="path158" />
      <path
         d="m 336.07812,184.375 h 2.125 v -3.125 h 2.0625 v 3.125 h 4 v 1.875 h -4 v 10.3125 q 0,0.90625 0.4375,1.4375 0.46875,0.53125 1.21875,0.53125 1.28125,0 2.09375,-1 l 1.3125,1.125 q -1.21875,1.75 -3.40625,1.75 -1.71875,0 -2.71875,-1.03125 -1,-1.03125 -1,-2.8125 V 186.25 h -2.125 z"
         id="path160" />
      <path
         d="m 352.98437,200.40625 q -2.9375,0 -4.6875,-2.21875 -1.71875,-2.25 -1.71875,-6 0,-3.75 1.71875,-5.96875 1.75,-2.25 4.6875,-2.25 2.84375,0 4.5,2.0625 1.6875,2.0625 1.6875,5.5 v 1.1875 h -10.53125 q 0.125,2.6875 1.28125,4.25 1.15625,1.5625 3.0625,1.5625 2.53125,0 3.9375,-2.125 l 1.65625,1.09375 q -2,2.90625 -5.59375,2.90625 z m 0,-14.5625 q -1.75,0 -2.90625,1.34375 -1.125,1.3125 -1.375,3.65625 h 8.375 q -0.15625,-2.3125 -1.28125,-3.65625 -1.09375,-1.34375 -2.8125,-1.34375 z"
         id="path162" />
      <path
         d="m 369.92187,197.90625 q 0.875,-0.625 0.875,-1.65625 0,-1.03125 -0.84375,-1.71875 -0.8125,-0.71875 -2,-1.15625 -1.1875,-0.4375 -2.40625,-0.96875 -1.1875,-0.53125 -2.03125,-1.53125 -0.8125,-1 -0.8125,-2.46875 0,-2.03125 1.375,-3.21875 1.375,-1.21875 3.6875,-1.21875 3.125,0 4.96875,2.5625 l -1.5625,1.0625 q -1.25,-1.75 -3.40625,-1.75 -1.375,0 -2.1875,0.6875 -0.8125,0.6875 -0.8125,1.875 0,1 0.8125,1.65625 0.84375,0.65625 2.03125,1.09375 1.21875,0.40625 2.40625,0.9375 1.1875,0.5 2,1.5625 0.84375,1.03125 0.84375,2.59375 0,1.90625 -1.4375,3.03125 -1.40625,1.125 -3.78125,1.125 -3.375,0 -5.34375,-2.96875 l 1.5625,-1.0625 q 1.375,2.15625 3.78125,2.15625 1.4375,0 2.28125,-0.625 z"
         id="path164" />
      <path
         d="m 374.79687,204 1.65625,-7.28125 h 3.03125 L 376.35937,204 Z"
         id="path166" />
      <path
         d="m 407.07812,198.375 q -1.78125,2.03125 -4.25,2.03125 -2.5625,0 -4.09375,-1.375 -1.5,-1.40625 -1.5,-3.71875 0,-2.34375 1.5,-3.71875 1.53125,-1.375 4.09375,-1.375 2.3125,0 4.09375,1.34375 v -2.09375 q 0,-1.65625 -1,-2.625 -0.96875,-1 -2.59375,-1 -2.4375,0 -3.9375,2.0625 l -1.59375,-1.03125 q 1.96875,-2.90625 5.53125,-2.90625 2.59375,0 4.125,1.5 1.53125,1.5 1.53125,4 V 200 h -1.90625 z m -4.28125,0.15625 q 2.5625,0 4.125,-2.5 v -2.3125 q -1.53125,-1.625 -4.125,-1.625 -1.625,0 -2.5625,0.875 -0.9375,0.875 -0.9375,2.34375 0,1.46875 0.9375,2.34375 0.9375,0.875 2.5625,0.875 z"
         id="path168" />
      <path
         d="m 435.29687,200 h -2.0625 v -10.75 q 0,-3.40625 -2.96875,-3.40625 -2.625,0 -4.03125,2.46875 V 200 h -2.0625 v -15.625 h 1.90625 v 1.59375 q 1.75,-2 4.15625,-2 3.34375,0 4.5,2.46875 1.84375,-2.46875 4.5625,-2.46875 2.46875,0 3.75,1.375 1.3125,1.34375 1.3125,3.90625 V 200 h -2.0625 v -10.75 q 0,-3.40625 -2.96875,-3.40625 -2.65625,0 -4.09375,2.53125 0.0625,0.5625 0.0625,0.875 z"
         id="path170" />
      <path
         d="m 454.82812,200.40625 q -2.9375,0 -4.6875,-2.21875 -1.71875,-2.25 -1.71875,-6 0,-3.75 1.71875,-5.96875 1.75,-2.25 4.6875,-2.25 2.84375,0 4.5,2.0625 1.6875,2.0625 1.6875,5.5 v 1.1875 h -10.53125 q 0.125,2.6875 1.28125,4.25 1.15625,1.5625 3.0625,1.5625 2.53125,0 3.9375,-2.125 l 1.65625,1.09375 q -2,2.90625 -5.59375,2.90625 z m 0,-14.5625 q -1.75,0 -2.90625,1.34375 -1.125,1.3125 -1.375,3.65625 h 8.375 q -0.15625,-2.3125 -1.28125,-3.65625 -1.09375,-1.34375 -2.8125,-1.34375 z"
         id="path172" />
      <path
         d="m 467.60937,200 h -2.0625 v -21.875 h 2.0625 z"
         id="path174" />
      <path
         d="m 473.67187,198.21875 q -1.6875,-2.1875 -1.6875,-6.03125 0,-3.84375 1.6875,-6.03125 1.71875,-2.1875 4.71875,-2.1875 3.03125,0 4.75,2.1875 1.71875,2.1875 1.71875,6.03125 0,3.84375 -1.71875,6.03125 -1.71875,2.1875 -4.75,2.1875 -3,0 -4.71875,-2.1875 z m 1.53125,-10.6875 q -1.15625,1.6875 -1.15625,4.65625 0,2.96875 1.15625,4.65625 1.15625,1.6875 3.1875,1.6875 2.0625,0 3.21875,-1.6875 1.1875,-1.6875 1.1875,-4.65625 0,-2.96875 -1.1875,-4.65625 -1.15625,-1.6875 -3.21875,-1.6875 -2.03125,0 -3.1875,1.6875 z"
         id="path176" />
      <path
         d="m 500.35937,200 h -1.90625 v -1.65625 q -1.875,2.0625 -4.5,2.0625 -2.75,0 -4.375,-2.21875 -1.59375,-2.21875 -1.59375,-6 0,-3.78125 1.71875,-6 1.71875,-2.21875 4.59375,-2.21875 2.34375,0 4,1.375 V 178.125 h 2.0625 z m -2.0625,-12 q -1.40625,-2.15625 -4.03125,-2.15625 -1.9375,0 -3.09375,1.71875 -1.125,1.71875 -1.125,4.625 0,2.90625 1.03125,4.625 1.0625,1.71875 2.84375,1.71875 2.78125,0 4.375,-2.71875 z"
         id="path178" />
      <path
         d="m 508.04687,200 h -2.0625 v -15.625 h 2.0625 z m -2.0625,-19.71875 q -0.40625,-0.40625 -0.40625,-1 0,-0.59375 0.40625,-1 0.4375,-0.4375 1.03125,-0.4375 0.59375,0 1,0.4375 0.4375,0.40625 0.4375,1 0,0.59375 -0.4375,1 -0.40625,0.40625 -1,0.40625 -0.59375,0 -1.03125,-0.40625 z"
         id="path180" />
      <path
         d="m 523.82812,197.6875 q -1.90625,2.71875 -5.28125,2.71875 -2.8125,0 -4.46875,-2.21875 -1.65625,-2.21875 -1.65625,-6 0,-3.78125 1.65625,-6 1.65625,-2.21875 4.46875,-2.21875 3.25,0 5.03125,2.4375 L 521.92187,187.5 q -1.1875,-1.65625 -3.375,-1.65625 -1.84375,0 -2.96875,1.71875 -1.09375,1.71875 -1.09375,4.625 0,2.90625 1.09375,4.625 1.125,1.71875 2.96875,1.71875 2.34375,0 3.625,-1.9375 z"
         id="path182" />
      <path
         d="m 547.95312,201.1875 q 0,2.65625 -1.53125,4.125 -1.5,1.5 -4.1875,1.5 -3.90625,0 -5.8125,-3.40625 l 1.6875,-1.0625 q 1.3125,2.53125 4.125,2.53125 1.75,0 2.6875,-0.96875 0.96875,-0.9375 0.96875,-2.71875 v -3.09375 Q 544.07812,200 541.54687,200 q -2.71875,0 -4.34375,-2.09375 -1.625,-2.125 -1.625,-5.6875 0,-3.78125 1.71875,-6 Q 539.01562,184 541.89062,184 q 2.46875,0 4.15625,1.84375 v -1.4375 h 1.90625 z m -2.0625,-12.5 q -0.53125,-1.3125 -1.625,-2.0625 -1.0625,-0.75 -2.40625,-0.75 -1.9375,0 -3.09375,1.71875 -1.125,1.71875 -1.125,4.625 0,2.6875 1.03125,4.3125 1.0625,1.59375 2.84375,1.59375 2.78125,0 4.375,-2.71875 z"
         id="path184" />
      <path
         d="m 555.64062,200 h -2.0625 v -21.875 h 2.0625 z"
         id="path186" />
      <path
         d="m 566.42187,200.40625 q -2.9375,0 -4.6875,-2.21875 -1.71875,-2.25 -1.71875,-6 0,-3.75 1.71875,-5.96875 1.75,-2.25 4.6875,-2.25 2.84375,0 4.5,2.0625 1.6875,2.0625 1.6875,5.5 v 1.1875 h -10.53125 q 0.125,2.6875 1.28125,4.25 1.15625,1.5625 3.0625,1.5625 2.53125,0 3.9375,-2.125 l 1.65625,1.09375 q -2,2.90625 -5.59375,2.90625 z m 0,-14.5625 q -1.75,0 -2.90625,1.34375 -1.125,1.3125 -1.375,3.65625 h 8.375 q -0.15625,-2.3125 -1.28125,-3.65625 -1.09375,-1.34375 -2.8125,-1.34375 z"
         id="path188" />
      <path
         d="m 586.04687,198.375 q -1.78125,2.03125 -4.25,2.03125 -2.5625,0 -4.09375,-1.375 -1.5,-1.40625 -1.5,-3.71875 0,-2.34375 1.5,-3.71875 1.53125,-1.375 4.09375,-1.375 2.3125,0 4.09375,1.34375 v -2.09375 q 0,-1.65625 -1,-2.625 -0.96875,-1 -2.59375,-1 -2.4375,0 -3.9375,2.0625 l -1.59375,-1.03125 q 1.96875,-2.90625 5.53125,-2.90625 2.59375,0 4.125,1.5 1.53125,1.5 1.53125,4 V 200 h -1.90625 z m -4.28125,0.15625 q 2.5625,0 4.125,-2.5 v -2.3125 q -1.53125,-1.625 -4.125,-1.625 -1.625,0 -2.5625,0.875 -0.9375,0.875 -0.9375,2.34375 0,1.46875 0.9375,2.34375 0.9375,0.875 2.5625,0.875 z"
         id="path190" />
      <path
         d="m 604.39062,200 h -2.0625 v -10.75 q 0,-3.40625 -2.96875,-3.40625 -2.625,0 -4.03125,2.46875 V 200 h -2.0625 v -15.625 h 1.90625 v 1.59375 q 1.75,-2 4.15625,-2 3.34375,0 4.5,2.46875 1.84375,-2.46875 4.5625,-2.46875 2.46875,0 3.75,1.375 1.3125,1.34375 1.3125,3.90625 V 200 h -2.0625 v -10.75 q 0,-3.40625 -2.96875,-3.40625 -2.65625,0 -4.09375,2.53125 0.0625,0.5625 0.0625,0.875 z"
         id="path192" />
      <path
         d="m 616.48437,204 1.65625,-7.28125 h 3.03125 L 618.04687,204 Z"
         id="path194" />
    </g>
    <g
       aria-label="In his music, life's supreme."
       id="text8">
      <path
         d="m 218.1875,250 h -2.0625 v -20.8125 h 2.0625 z"
         id="path197" />
      <path
         d="m 235.875,250 h -2.0625 v -10.75 q 0,-3.40625 -3.21875,-3.40625 -2.875,0 -4.40625,2.5625 V 250 h -2.0625 v -15.625 h 1.90625 v 1.71875 q 1.875,-2.125 4.5625,-2.125 2.59375,0 3.9375,1.375 1.34375,1.34375 1.34375,3.90625 z"
         id="path199" />
      <path
         d="M 262.8125,250 H 260.75 v -10.75 q 0,-3.40625 -3.21875,-3.40625 -2.875,0 -4.40625,2.5625 V 250 h -2.0625 v -21.875 h 2.0625 v 7.78125 q 1.84375,-1.9375 4.40625,-1.9375 2.59375,0 3.9375,1.375 1.34375,1.34375 1.34375,3.90625 z"
         id="path201" />
      <path
         d="m 270.1875,250 h -2.0625 v -15.625 h 2.0625 z m -2.0625,-19.71875 q -0.40625,-0.40625 -0.40625,-1 0,-0.59375 0.40625,-1 0.4375,-0.4375 1.03125,-0.4375 0.59375,0 1,0.4375 0.4375,0.40625 0.4375,1 0,0.59375 -0.4375,1 -0.40625,0.40625 -1,0.40625 -0.59375,0 -1.03125,-0.40625 z"
         id="path203" />
      <path
         d="m 282.03125,247.90625 q 0.875,-0.625 0.875,-1.65625 0,-1.03125 -0.84375,-1.71875 -0.8125,-0.71875 -2,-1.15625 -1.1875,-0.4375 -2.40625,-0.96875 -1.1875,-0.53125 -2.03125,-1.53125 -0.8125,-1 -0.8125,-2.46875 0,-2.03125 1.375,-3.21875 1.375,-1.21875 3.6875,-1.21875 3.125,0 4.96875,2.5625 l -1.5625,1.0625 q -1.25,-1.75 -3.40625,-1.75 -1.375,0 -2.1875,0.6875 -0.8125,0.6875 -0.8125,1.875 0,1 0.8125,1.65625 0.84375,0.65625 2.03125,1.09375 1.21875,0.40625 2.40625,0.9375 1.1875,0.5 2,1.5625 0.84375,1.03125 0.84375,2.59375 0,1.90625 -1.4375,3.03125 -1.40625,1.125 -3.78125,1.125 -3.375,0 -5.34375,-2.96875 l 1.5625,-1.0625 q 1.375,2.15625 3.78125,2.15625 1.4375,0 2.28125,-0.625 z"
         id="path205" />
      <path
         d="m 310.1875,250 h -2.0625 v -10.75 q 0,-3.40625 -2.96875,-3.40625 -2.625,0 -4.03125,2.46875 V 250 h -2.0625 v -15.625 h 1.90625 v 1.59375 q 1.75,-2 4.15625,-2 3.34375,0 4.5,2.46875 1.84375,-2.46875 4.5625,-2.46875 2.46875,0 3.75,1.375 1.3125,1.34375 1.3125,3.90625 V 250 h -2.0625 v -10.75 q 0,-3.40625 -2.96875,-3.40625 -2.65625,0 -4.09375,2.53125 0.0625,0.5625 0.0625,0.875 z"
         id="path207" />
      <path
         d="m 324.25,234.375 h 2.0625 v 10.75 q 0,3.40625 3.21875,3.40625 2.875,0 4.40625,-3 V 234.375 H 336 V 250 h -1.90625 v -1.9375 q -1.875,2.34375 -4.5625,2.34375 -5.28125,0 -5.28125,-5.28125 z"
         id="path209" />
      <path
         d="m 347.84375,247.90625 q 0.875,-0.625 0.875,-1.65625 0,-1.03125 -0.84375,-1.71875 -0.8125,-0.71875 -2,-1.15625 -1.1875,-0.4375 -2.40625,-0.96875 -1.1875,-0.53125 -2.03125,-1.53125 -0.8125,-1 -0.8125,-2.46875 0,-2.03125 1.375,-3.21875 1.375,-1.21875 3.6875,-1.21875 3.125,0 4.96875,2.5625 l -1.5625,1.0625 q -1.25,-1.75 -3.40625,-1.75 -1.375,0 -2.1875,0.6875 -0.8125,0.6875 -0.8125,1.875 0,1 0.8125,1.65625 0.84375,0.65625 2.03125,1.09375 1.21875,0.40625 2.40625,0.9375 1.1875,0.5 2,1.5625 0.84375,1.03125 0.84375,2.59375 0,1.90625 -1.4375,3.03125 -1.40625,1.125 -3.78125,1.125 -3.375,0 -5.34375,-2.96875 l 1.5625,-1.0625 q 1.375,2.15625 3.78125,2.15625 1.4375,0 2.28125,-0.625 z"
         id="path211" />
      <path
         d="M 357.0625,250 H 355 v -15.625 h 2.0625 z M 355,230.28125 q -0.40625,-0.40625 -0.40625,-1 0,-0.59375 0.40625,-1 0.4375,-0.4375 1.03125,-0.4375 0.59375,0 1,0.4375 0.4375,0.40625 0.4375,1 0,0.59375 -0.4375,1 -0.40625,0.40625 -1,0.40625 -0.59375,0 -1.03125,-0.40625 z"
         id="path213" />
      <path
         d="m 372.84375,247.6875 q -1.90625,2.71875 -5.28125,2.71875 -2.8125,0 -4.46875,-2.21875 -1.65625,-2.21875 -1.65625,-6 0,-3.78125 1.65625,-6 1.65625,-2.21875 4.46875,-2.21875 3.25,0 5.03125,2.4375 L 370.9375,237.5 q -1.1875,-1.65625 -3.375,-1.65625 -1.84375,0 -2.96875,1.71875 -1.09375,1.71875 -1.09375,4.625 0,2.90625 1.09375,4.625 1.125,1.71875 2.96875,1.71875 2.34375,0 3.625,-1.9375 z"
         id="path215" />
      <path
         d="m 373.6875,254 1.65625,-7.28125 H 378.375 L 375.25,254 Z"
         id="path217" />
      <path
         d="m 399.125,250 h -2.0625 v -21.875 h 2.0625 z"
         id="path219" />
      <path
         d="M 406.8125,250 H 404.75 v -15.625 h 2.0625 z M 404.75,230.28125 q -0.40625,-0.40625 -0.40625,-1 0,-0.59375 0.40625,-1 0.4375,-0.4375 1.03125,-0.4375 0.59375,0 1,0.4375 0.4375,0.40625 0.4375,1 0,0.59375 -0.4375,1 -0.40625,0.40625 -1,0.40625 -0.59375,0 -1.03125,-0.40625 z"
         id="path221" />
      <path
         d="m 410.71875,234.375 h 2.125 v -1.5 q 0,-2.5 1.1875,-3.8125 1.1875,-1.34375 3.375,-1.34375 1.78125,0 3.0625,0.6875 l -0.6875,1.78125 q -0.96875,-0.53125 -2.375,-0.53125 -2.5,0 -2.5,3.21875 v 1.5 h 4 v 1.875 h -4 V 250 h -2.0625 v -13.75 h -2.125 z"
         id="path223" />
      <path
         d="m 426.6875,250.40625 q -2.9375,0 -4.6875,-2.21875 -1.71875,-2.25 -1.71875,-6 0,-3.75 1.71875,-5.96875 1.75,-2.25 4.6875,-2.25 2.84375,0 4.5,2.0625 1.6875,2.0625 1.6875,5.5 v 1.1875 h -10.53125 q 0.125,2.6875 1.28125,4.25 1.15625,1.5625 3.0625,1.5625 2.53125,0 3.9375,-2.125 l 1.65625,1.09375 q -2,2.90625 -5.59375,2.90625 z m 0,-14.5625 q -1.75,0 -2.90625,1.34375 -1.125,1.3125 -1.375,3.65625 h 8.375 q -0.15625,-2.3125 -1.28125,-3.65625 -1.09375,-1.34375 -2.8125,-1.34375 z"
         id="path225" />
      <path
         d="m 436.59375,232.96875 -0.4375,-6.40625 h 2.53125 l -0.46875,6.40625 z"
         id="path227" />
      <path
         d="m 449.28125,247.90625 q 0.875,-0.625 0.875,-1.65625 0,-1.03125 -0.84375,-1.71875 -0.8125,-0.71875 -2,-1.15625 -1.1875,-0.4375 -2.40625,-0.96875 -1.1875,-0.53125 -2.03125,-1.53125 -0.8125,-1 -0.8125,-2.46875 0,-2.03125 1.375,-3.21875 1.375,-1.21875 3.6875,-1.21875 3.125,0 4.96875,2.5625 l -1.5625,1.0625 q -1.25,-1.75 -3.40625,-1.75 -1.375,0 -2.1875,0.6875 -0.8125,0.6875 -0.8125,1.875 0,1 0.8125,1.65625 0.84375,0.65625 2.03125,1.09375 1.21875,0.40625 2.40625,0.9375 1.1875,0.5 2,1.5625 0.84375,1.03125 0.84375,2.59375 0,1.90625 -1.4375,3.03125 -1.40625,1.125 -3.78125,1.125 -3.375,0 -5.34375,-2.96875 l 1.5625,-1.0625 q 1.375,2.15625 3.78125,2.15625 1.4375,0 2.28125,-0.625 z"
         id="path229" />
      <path
         d="m 472.53125,247.90625 q 0.875,-0.625 0.875,-1.65625 0,-1.03125 -0.84375,-1.71875 -0.8125,-0.71875 -2,-1.15625 -1.1875,-0.4375 -2.40625,-0.96875 -1.1875,-0.53125 -2.03125,-1.53125 -0.8125,-1 -0.8125,-2.46875 0,-2.03125 1.375,-3.21875 1.375,-1.21875 3.6875,-1.21875 3.125,0 4.96875,2.5625 l -1.5625,1.0625 q -1.25,-1.75 -3.40625,-1.75 -1.375,0 -2.1875,0.6875 -0.8125,0.6875 -0.8125,1.875 0,1 0.8125,1.65625 0.84375,0.65625 2.03125,1.09375 1.21875,0.40625 2.40625,0.9375 1.1875,0.5 2,1.5625 0.84375,1.03125 0.84375,2.59375 0,1.90625 -1.4375,3.03125 -1.40625,1.125 -3.78125,1.125 -3.375,0 -5.34375,-2.96875 l 1.5625,-1.0625 q 1.375,2.15625 3.78125,2.15625 1.4375,0 2.28125,-0.625 z"
         id="path231" />
      <path
         d="m 479.375,234.375 h 2.0625 v 10.75 q 0,3.40625 3.21875,3.40625 2.875,0 4.40625,-3 V 234.375 h 2.0625 V 250 h -1.90625 v -1.9375 q -1.875,2.34375 -4.5625,2.34375 -5.28125,0 -5.28125,-5.28125 z"
         id="path233" />
      <path
         d="m 496.75,234.40625 h 1.90625 v 1.6875 Q 500.5,234 503.15625,234 q 2.75,0 4.34375,2.21875 1.625,2.21875 1.625,6 0,3.78125 -1.71875,6 -1.71875,2.21875 -4.59375,2.21875 -2.34375,0 -4,-1.375 v 7.34375 H 496.75 Z m 2.0625,12 q 1.40625,2.15625 4.03125,2.15625 1.9375,0 3.0625,-1.71875 1.15625,-1.71875 1.15625,-4.625 0,-2.90625 -1.0625,-4.625 -1.03125,-1.71875 -2.8125,-1.71875 -2.75,0 -4.375,2.71875 z"
         id="path235" />
      <path
         d="M 520.6875,236.09375 519.78125,236 q -2.875,0 -4.21875,3.21875 V 250 H 513.5 v -15.625 h 1.90625 v 2.1875 q 1.78125,-2.59375 4.40625,-2.59375 0.6875,0 1.21875,0.0937 z"
         id="path237" />
      <path
         d="m 529,250.40625 q -2.9375,0 -4.6875,-2.21875 -1.71875,-2.25 -1.71875,-6 0,-3.75 1.71875,-5.96875 1.75,-2.25 4.6875,-2.25 2.84375,0 4.5,2.0625 1.6875,2.0625 1.6875,5.5 v 1.1875 h -10.53125 q 0.125,2.6875 1.28125,4.25 1.15625,1.5625 3.0625,1.5625 2.53125,0 3.9375,-2.125 l 1.65625,1.09375 q -2,2.90625 -5.59375,2.90625 z m 0,-14.5625 q -1.75,0 -2.90625,1.34375 -1.125,1.3125 -1.375,3.65625 h 8.375 q -0.15625,-2.3125 -1.28125,-3.65625 -1.09375,-1.34375 -2.8125,-1.34375 z"
         id="path239" />
      <path
         d="m 550.84375,250 h -2.0625 v -10.75 q 0,-3.40625 -2.96875,-3.40625 -2.625,0 -4.03125,2.46875 V 250 h -2.0625 v -15.625 h 1.90625 v 1.59375 q 1.75,-2 4.15625,-2 3.34375,0 4.5,2.46875 1.84375,-2.46875 4.5625,-2.46875 2.46875,0 3.75,1.375 1.3125,1.34375 1.3125,3.90625 V 250 h -2.0625 v -10.75 q 0,-3.40625 -2.96875,-3.40625 -2.65625,0 -4.09375,2.53125 0.0625,0.5625 0.0625,0.875 z"
         id="path241" />
      <path
         d="m 570.375,250.40625 q -2.9375,0 -4.6875,-2.21875 -1.71875,-2.25 -1.71875,-6 0,-3.75 1.71875,-5.96875 1.75,-2.25 4.6875,-2.25 2.84375,0 4.5,2.0625 1.6875,2.0625 1.6875,5.5 v 1.1875 h -10.53125 q 0.125,2.6875 1.28125,4.25 1.15625,1.5625 3.0625,1.5625 2.53125,0 3.9375,-2.125 l 1.65625,1.09375 q -2,2.90625 -5.59375,2.90625 z m 0,-14.5625 q -1.75,0 -2.90625,1.34375 -1.125,1.3125 -1.375,3.65625 h 8.375 q -0.15625,-2.3125 -1.28125,-3.65625 -1.09375,-1.34375 -2.8125,-1.34375 z"
         id="path243" />
      <path
         d="m 580.625,250 v -3.28125 h 2.65625 V 250 Z"
         id="path245" />
    </g>
  </g>
</svg>
