<?xml version="1.0" encoding="UTF-8" standalone="no"?>
<svg
   width="800"
   height="350"
   version="1.1"
   id="svg12"
   sodipodi:docname="rekha_marathi.svg"
   xmlns:inkscape="http://www.inkscape.org/namespaces/inkscape"
   xmlns:sodipodi="http://sodipodi.sourceforge.net/DTD/sodipodi-0.dtd"
   xmlns="http://www.w3.org/2000/svg"
   xmlns:svg="http://www.w3.org/2000/svg">
  <defs
     id="defs16" />
  <sodipodi:namedview
     id="namedview14"
     pagecolor="#ffffff"
     bordercolor="#000000"
     borderopacity="0.25"
     inkscape:showpageshadow="2"
     inkscape:pageopacity="0.0"
     inkscape:pagecheckerboard="0"
     inkscape:deskcolor="#d1d1d1" />
  <g
     font-family="Lohit Devanagari"
     font-size="32"
     text-anchor="middle"
     fill="#000"
     id="g10">
    <g
       aria-label="रेखा सरळ, शब्दांचा प्रवाह,"
       id="text2">
      <path
         d="m 247.45312,81.0625 v -1.875 h 14.46875 v 1.875 h -2.8125 v 4.78125 q 0,1.9375 -1.3125,3.28125 -1.28125,1.3125 -3.0625,1.3125 -0.25,0 -0.6875,-0.09375 -0.40625,-0.125 -1,-0.34375 1.34375,2.34375 3.15625,4.5 1.84375,2.125 4.125,4.03125 L 259.10937,100 q -3.34375,-2.78125 -6.03125,-6.3125 -2.6875,-3.5625 -4.59375,-7.625 l 1.875,-1.03125 q 0.53125,1.5 1.71875,2.40625 1.21875,0.90625 2.65625,0.90625 0.9375,0 1.59375,-0.71875 0.6875,-0.71875 0.6875,-1.78125 V 81.0625 Z"
         id="path18" />
      <path
         d="m 256.73437,79.1875 -7.6875,-9.15625 1.4375,-1.25 8.3125,10.40625 z"
         id="path20" />
      <path
         d="m 274.17187,98.125 q 2.34375,0 4.46875,-1.3125 2.125,-1.34375 3.4375,-3.6875 v -1.65625 q -0.8125,0.71875 -1.6875,1.09375 -0.84375,0.375 -1.625,0.375 -2.09375,0 -3.5625,-1.3125 -1.4375,-1.3125 -1.4375,-3.15625 0,-1.875 1.4375,-3.1875 1.46875,-1.3125 3.5625,-1.3125 0.78125,0 1.46875,0.1875 0.6875,0.15625 1.21875,0.4375 v 2.09375 q -0.8125,-0.28125 -1.5,-0.4375 -0.6875,-0.1875 -1.1875,-0.1875 -1.21875,0 -2.09375,0.71875 -0.84375,0.6875 -0.84375,1.6875 0,1 0.84375,1.6875 0.875,0.6875 2.09375,0.6875 0.65625,0 1.5,-0.4375 0.875,-0.4375 1.8125,-1.21875 v -8.125 h -11.4375 v 4.59375 q 0,2 -1.125,3.40625 -1.09375,1.375 -2.625,1.375 -0.28125,0 -0.5625,-0.0625 -0.28125,-0.0625 -0.46875,-0.15625 1.28125,3.59375 3.5625,5.75 2.3125,2.15625 4.75,2.15625 z M 261.07812,81.0625 v -1.875 h 26.625 v 1.875 h -3.53125 V 100 h -2.09375 v -4.15625 q -1.375,1.9375 -3.46875,3.0625 Q 276.51562,100 274.17187,100 q -3.625,0 -6.9375,-3.8125 -3.28125,-3.84375 -4.90625,-9.90625 l 1.65625,-0.84375 q 0.46875,1.34375 1.25,2.125 0.8125,0.78125 1.65625,0.78125 0.71875,0 1.1875,-0.78125 0.46875,-0.78125 0.46875,-1.90625 V 81.0625 Z"
         id="path22" />
      <path
         d="m 286.85937,81.0625 v -1.875 h 9.15625 v 1.875 h -3.5625 V 100 h -2.0625 V 81.0625 Z"
         id="path24" />
      <path
         d="m 305.04687,81.0625 v -1.875 h 23 v 1.875 h -3.53125 V 100 h -2.09375 V 90 h -8.875 q -0.84375,0.625 -1.9375,0.625 -0.25,0 -0.5,-0.0625 -0.21875,-0.0625 -0.34375,-0.125 l 6.25,8.71875 -1.65625,1.0625 -9.375,-13.3125 1.6875,-1.25 q 0.65625,1.40625 1.53125,2.25 0.90625,0.84375 1.78125,0.84375 0.875,0 1.46875,-0.59375 0.625,-0.59375 0.625,-1.46875 v -5.625 z m 9.90625,6.875 h 7.46875 v -6.875 h -7.28125 v 5.625 q 0,0.65625 -0.1875,1.25 z"
         id="path26" />
      <path
         d="m 327.20312,81.0625 v -1.875 h 14.46875 v 1.875 h -2.8125 v 4.78125 q 0,1.9375 -1.3125,3.28125 -1.28125,1.3125 -3.0625,1.3125 -0.25,0 -0.6875,-0.09375 -0.40625,-0.125 -1,-0.34375 1.34375,2.34375 3.15625,4.5 1.84375,2.125 4.125,4.03125 L 338.85937,100 q -3.34375,-2.78125 -6.03125,-6.3125 -2.6875,-3.5625 -4.59375,-7.625 l 1.875,-1.03125 q 0.53125,1.5 1.71875,2.40625 1.21875,0.90625 2.65625,0.90625 0.9375,0 1.59375,-0.71875 0.6875,-0.71875 0.6875,-1.78125 V 81.0625 Z"
         id="path28" />
      <path
         d="m 357.57812,95.84375 q 1.3125,0 2.21875,-1.3125 0.90625,-1.34375 0.90625,-3.28125 0,-1.78125 -0.90625,-3.0625 -0.90625,-1.28125 -2.21875,-1.28125 -1.125,0 -2.1875,1.21875 -1.0625,1.21875 -1.5625,3.125 0.75,2.09375 1.78125,3.34375 1.0625,1.25 1.96875,1.25 z M 348.23437,95.625 q 0.90625,0 1.875,-1.125 1,-1.15625 1.65625,-3.03125 -0.53125,-2.03125 -1.53125,-3.28125 -0.96875,-1.28125 -2,-1.28125 -1.46875,0 -2.5,1.34375 -1.03125,1.3125 -1.03125,3.1875 0,1.75 1.03125,2.96875 1.03125,1.21875 2.5,1.21875 z m -7.40625,-14.5625 v -1.875 h 23.78125 v 1.875 h -6.1875 v 3.96875 q 1.90625,0.3125 3.125,2.09375 1.25,1.75 1.25,4.125 0,2.6875 -1.53125,4.59375 -1.5,1.875 -3.6875,1.875 -1.28125,0 -2.59375,-1.125 -1.3125,-1.125 -2.1875,-3.03125 -0.875,1.90625 -2.125,3.03125 -1.25,1.125 -2.4375,1.125 -2.34375,0 -4,-1.8125 -1.625,-1.84375 -1.625,-4.46875 0,-2.6875 1.625,-4.53125 1.65625,-1.875 4,-1.875 1.4375,0 2.6875,1.03125 1.25,1 1.875,2.6875 0.59375,-1.53125 1.53125,-2.53125 0.9375,-1 2,-1.1875 V 81.0625 Z"
         id="path30" />
      <path
         d="m 364.73437,104 1.65625,-7.28125 h 3.03125 L 366.29687,104 Z"
         id="path32" />
      <path
         d="m 397.07812,81.0625 v -1.875 h 9.78125 v 1.875 h -3.53125 V 100 h -2.09375 V 81.0625 Z m -5.625,4.78125 q 1.03125,0 1.9375,-0.625 0.90625,-0.625 1.40625,-1.65625 -0.46875,-1.21875 -1.28125,-1.96875 -0.78125,-0.75 -1.65625,-0.75 -1.03125,0 -1.78125,0.8125 -0.71875,0.78125 -0.71875,1.90625 0,0.96875 0.59375,1.625 0.625,0.65625 1.5,0.65625 z M 395.60937,100 386.26562,92.09375 387.29687,90.625 q 0.90625,0.75 1.4375,1.125 0.53125,0.34375 0.84375,0.34375 2.34375,0 3.96875,-1.8125 1.65625,-1.84375 1.65625,-4.4375 -0.53125,0.96875 -1.5625,1.53125 -1.03125,0.5625 -2.1875,0.5625 -1.71875,0 -2.9375,-1.28125 -1.21875,-1.3125 -1.21875,-3.09375 0,-2 1.3125,-3.375 1.34375,-1.40625 3.25,-1.40625 2.25,0 3.84375,2.09375 1.59375,2.0625 1.59375,4.96875 0,3.21875 -1.90625,5.46875 -1.90625,2.25 -4.5625,2.25 l 6.03125,4.96875 z"
         id="path34" />
      <path
         d="m 406.01562,81.0625 v -1.875 h 12.28125 v 1.875 z m 7.46875,12.90625 q 0.9375,0 1.75,-0.3125 0.8125,-0.34375 1.375,-0.9375 L 410.39062,88.125 q -0.3125,0.375 -0.46875,0.90625 -0.15625,0.53125 -0.15625,1.1875 0,1.53125 1.09375,2.65625 1.09375,1.09375 2.625,1.09375 z m 0,2.0625 q -2.40625,0 -4.125,-1.6875 -1.6875,-1.71875 -1.6875,-4.125 0,-2.5625 1.8125,-4.40625 1.84375,-1.84375 4.4375,-1.84375 0.5625,0 1.09375,0.125 0.53125,0.09375 0.96875,0.3125 v 2.0625 q -0.28125,-0.1875 -0.84375,-0.28125 -0.53125,-0.125 -1.21875,-0.125 -0.75,0 -1.375,0.21875 -0.625,0.1875 -1.125,0.625 l 6.4375,4.78125 0.84375,-1.0625 v 2.71875 q -0.875,1.28125 -2.28125,2 -1.375,0.6875 -2.9375,0.6875 z"
         id="path36" />
      <path
         d="m 417.20312,81.0625 v -1.875 h 18 v 1.875 h -3.3125 v 5.40625 h -8.125 q -1.21875,0 -2.0625,0.875 -0.84375,0.84375 -0.84375,2.03125 0,2.25 2.375,3.84375 2.375,1.59375 5.75,1.59375 0,-1.46875 0.65625,-2.5 0.65625,-1.0625 1.625,-1.0625 0.6875,0 1.15625,0.5 0.5,0.46875 0.5,1.1875 0,0.8125 -0.5,1.65625 -0.5,0.84375 -1.375,1.4375 l 2.28125,3.96875 -1.875,0.84375 -2.28125,-4.1875 q -4.3125,0 -7.375,-2.125 -3.03125,-2.15625 -3.03125,-5.15625 0,-2.0625 1.4375,-3.5 1.46875,-1.46875 3.5625,-1.46875 h 6.03125 V 81.0625 Z"
         id="path38" />
      <path
         d="m 434.35937,81.0625 v -1.875 h 9.15625 v 1.875 h -3.5625 V 100 h -2.0625 V 81.0625 Z"
         id="path40" />
      <path
         d="m 437.54687,74 v -2.90625 h 3.125 V 74 Z"
         id="path42" />
      <path
         d="m 442.67187,81.0625 v -1.875 h 20.75 v 1.875 h -3.53125 V 100 h -2.09375 v -7.5 q -1.25,1.75 -2.71875,2.75 -1.46875,1 -2.875,1 -2.09375,0 -3.5625,-1.4375 -1.4375,-1.46875 -1.4375,-3.5625 0,-1.5 0.59375,-2.71875 0.59375,-1.21875 1.6875,-1.84375 h -6.03125 v -2.09375 h 12.28125 v 2.09375 h -2.90625 q -1.59375,0.59375 -2.59375,1.84375 -0.96875,1.21875 -0.96875,2.71875 0,1.21875 0.84375,2.09375 0.875,0.84375 2.09375,0.84375 1.3125,0 2.8125,-1.28125 1.5,-1.3125 2.78125,-3.53125 v -8.3125 z"
         id="path44" />
      <path
         d="m 462.57812,81.0625 v -1.875 h 9.15625 v 1.875 h -3.5625 V 100 h -2.0625 V 81.0625 Z"
         id="path46" />
      <path
         d="m 489.60937,92.09375 q 0.0937,0 0.5,-0.09375 l 0.75,-0.125 3.125,-2.0625 v -8.75 h -7.90625 v 7.5 q 0,1.4375 1.03125,2.5 1.0625,1.03125 2.5,1.03125 z M 480.76562,81.0625 v -1.875 h 18.84375 v 1.875 h -3.53125 V 100 h -2.09375 V 92.09375 L 483.57812,100 l -1.25,-1.65625 6.25,-4.59375 q -2,-0.5 -3.28125,-1.9375 -1.28125,-1.46875 -1.28125,-3.25 v -7.5 z"
         id="path48" />
      <path
         d="m 498.76562,81.0625 v -1.875 h 17.8125 v 1.875 h -3.5625 V 100 h -2.0625 v -6.65625 q -0.84375,1 -2,1.5625 -1.125,0.53125 -2.375,0.53125 -2.59375,0 -4.4375,-1.65625 -1.8125,-1.65625 -1.8125,-3.96875 0,-2.34375 1.8125,-3.96875 1.84375,-1.65625 4.4375,-1.65625 0.75,0 1.4375,0.21875 0.6875,0.1875 1.28125,0.625 l -1.0625,1.65625 q -0.375,-0.28125 -0.78125,-0.4375 -0.40625,-0.1875 -0.875,-0.1875 -1.71875,0 -2.9375,1.09375 -1.21875,1.09375 -1.21875,2.65625 0,1.4375 1.21875,2.5 1.21875,1.03125 2.9375,1.03125 1.21875,0 2.375,-0.8125 1.15625,-0.84375 2,-2.3125 V 81.0625 Z"
         id="path50" />
      <path
         d="m 515.73437,81.0625 v -1.875 h 9.15625 v 1.875 h -3.5625 V 100 h -2.0625 V 81.0625 Z"
         id="path52" />
      <path
         d="m 524.04687,81.0625 v -1.875 h 17.3125 v 1.875 h -3.34375 v 5 h -8.53125 q -0.40625,0 -0.71875,0.1875 -0.3125,0.1875 -0.3125,0.4375 0,0.84375 0.625,1.625 0.625,0.78125 1.65625,1.28125 0.65625,-0.28125 1.4375,-0.4375 0.8125,-0.1875 1.6875,-0.1875 2.34375,0 3.96875,1.34375 1.65625,1.3125 1.65625,3.25 0,1.0625 -0.4375,1.96875 -0.4375,0.875 -1.25,1.34375 l -1.65625,-1.4375 q 0.59375,-0.34375 0.90625,-0.84375 0.34375,-0.5 0.34375,-1.03125 0,-1.0625 -1.03125,-1.78125 -1.03125,-0.71875 -2.5,-0.71875 -2.25,0 -3.84375,1.03125 -1.5625,1.03125 -1.5625,2.5 0,1.90625 2.6875,3.25 2.6875,1.3125 6.46875,1.3125 l -0.4375,1.875 q -4.46875,0 -7.65625,-1.875 -3.15625,-1.90625 -3.15625,-4.5625 0,-1.21875 0.59375,-2.28125 0.625,-1.0625 1.6875,-1.6875 -1.0625,-0.90625 -1.6875,-1.9375 -0.59375,-1.03125 -0.59375,-2 0,-1.125 0.90625,-1.90625 0.9375,-0.8125 2.21875,-0.8125 h 6.46875 V 81.0625 Z"
         id="path54" />
      <path
         d="m 541.45312,104 1.65625,-7.28125 h 3.03125 L 543.01562,104 Z"
         id="path56" />
    </g>
    <g
       aria-label="मराठी माझी, हृदयीचा भाव."
       id="text4">
      <path
         d="m 251.125,137.9375 h 7.5 v -6.875 h -7.5 z m -5.8125,-6.875 v -1.875 H 264.25 v 1.875 h -3.5625 V 150 h -2.0625 v -10 h -7.5 v 1.46875 q 0,0.5 -0.1875,0.875 -0.1875,0.375 -0.4375,0.375 -0.71875,0 -2.4375,-1.5625 -1.71875,-1.5625 -1.71875,-2.1875 0,-0.40625 0.3125,-0.71875 0.3125,-0.3125 0.71875,-0.3125 h 1.6875 v -6.875 z"
         id="path59" />
      <path
         d="m 263.40625,131.0625 v -1.875 H 277.875 v 1.875 h -2.8125 v 4.78125 q 0,1.9375 -1.3125,3.28125 -1.28125,1.3125 -3.0625,1.3125 -0.25,0 -0.6875,-0.0937 -0.40625,-0.125 -1,-0.34375 1.34375,2.34375 3.15625,4.5 1.84375,2.125 4.125,4.03125 L 275.0625,150 q -3.34375,-2.78125 -6.03125,-6.3125 -2.6875,-3.5625 -4.59375,-7.625 l 1.875,-1.03125 q 0.53125,1.5 1.71875,2.40625 1.21875,0.90625 2.65625,0.90625 0.9375,0 1.59375,-0.71875 0.6875,-0.71875 0.6875,-1.78125 v -4.78125 z"
         id="path61" />
      <path
         d="m 277.03125,131.0625 v -1.875 h 9.15625 v 1.875 H 282.625 V 150 h -2.0625 v -18.9375 z"
         id="path63" />
      <path
         d="m 295.875,149.78125 q -3.25,0 -6,-2.78125 -2.75,-2.8125 -2.75,-6.15625 0,-2.40625 1.5625,-4.09375 1.59375,-1.71875 3.84375,-1.71875 H 297.75 v -3.96875 h -12.40625 v -1.875 h 18.96875 v 1.875 h -4.5 v 6.03125 h -7.28125 q -1.375,0 -2.34375,1.125 -0.96875,1.09375 -0.96875,2.625 0,2.53125 2.09375,4.71875 2.09375,2.15625 4.5625,2.15625 1.78125,0 3.0625,-1.3125 1.28125,-1.34375 1.28125,-3.28125 0,-1.15625 -0.65625,-2.34375 -0.625,-1.21875 -1.8125,-2.21875 l 1.65625,-1.25 q 1.375,1.15625 2.125,2.6875 0.78125,1.5 0.78125,3.125 0,2.75 -1.90625,4.71875 -1.875,1.9375 -4.53125,1.9375 z"
         id="path65" />
      <path
         d="m 303.46875,131.0625 v -1.875 H 307 q -0.53125,-3 -1.96875,-4.9375 -1.40625,-1.9375 -3.03125,-1.9375 -1.21875,0 -2.0625,0.8125 -0.84375,0.78125 -0.84375,1.90625 0,1 0.4375,2 0.4375,0.96875 1.21875,1.75 h -2.28125 Q 297.75,128.0625 297.375,127.09375 297,126.125 297,125.03125 q 0,-1.90625 1.46875,-3.21875 1.4375,-1.34375 3.53125,-1.34375 2.40625,0 4.40625,2.46875 2,2.46875 2.65625,6.25 h 3.5625 v 1.875 h -3.5625 V 150 H 307 v -18.9375 z"
         id="path67" />
      <path
         d="m 327.46875,137.9375 h 7.5 v -6.875 h -7.5 z m -5.8125,-6.875 v -1.875 h 18.9375 v 1.875 h -3.5625 V 150 h -2.0625 v -10 h -7.5 v 1.46875 q 0,0.5 -0.1875,0.875 -0.1875,0.375 -0.4375,0.375 -0.71875,0 -2.4375,-1.5625 -1.71875,-1.5625 -1.71875,-2.1875 0,-0.40625 0.3125,-0.71875 0.3125,-0.3125 0.71875,-0.3125 h 1.6875 v -6.875 z"
         id="path69" />
      <path
         d="m 339.75,131.0625 v -1.875 h 9.15625 v 1.875 h -3.5625 V 150 h -2.0625 v -18.9375 z"
         id="path71" />
      <path
         d="m 363.40625,140.4375 q 0.46875,0 1.15625,-0.21875 0.6875,-0.21875 1.5625,-0.625 v -8.53125 h -5.84375 v 5 H 353 q -0.40625,0 -0.71875,0.1875 -0.3125,0.1875 -0.3125,0.4375 0,0.78125 0.9375,1.96875 0.9375,1.15625 1.5625,1.15625 0.625,0 1.75,-0.40625 1.15625,-0.4375 1.78125,-0.4375 0.59375,0 1.125,0.1875 0.53125,0.15625 0.96875,0.4375 0.5625,0.40625 1.40625,0.625 0.875,0.21875 1.90625,0.21875 z m -5,11.03125 q -1.375,-0.625 -2.53125,-1.4375 -1.125,-0.78125 -2.03125,-1.6875 -1.625,0 -2.8125,-0.71875 -1.15625,-0.75 -1.15625,-1.78125 0,-0.71875 0.46875,-1.1875 0.5,-0.46875 1.21875,-0.46875 0.875,0 1.75,0.53125 0.90625,0.53125 1.5625,1.53125 1.78125,-0.3125 2.96875,-1.40625 1.1875,-1.125 1.1875,-2.53125 0,-0.5 -0.3125,-0.875 -0.3125,-0.375 -0.71875,-0.375 -0.625,0 -1.78125,0.40625 -1.125,0.40625 -1.75,0.40625 -1.125,0 -2.875,-1.9375 -1.71875,-1.96875 -1.71875,-3.25 0,-1.125 0.90625,-1.90625 0.9375,-0.8125 2.21875,-0.8125 h 5.21875 V 131.0625 H 348.0625 v -1.875 h 23.65625 v 1.875 H 368.1875 V 150 h -2.0625 v -8.3125 q -0.6875,0.28125 -1.375,0.46875 -0.6875,0.15625 -1.34375,0.15625 -0.59375,0 -1.15625,-0.0937 -0.5625,-0.125 -1.125,-0.34375 0,2.34375 -1.375,3.875 -1.375,1.53125 -3.84375,1.96875 1.0625,0.875 1.9375,1.46875 0.90625,0.5625 1.625,0.8125 z"
         id="path73" />
      <path
         d="m 370.90625,131.0625 v -1.875 h 3.53125 q -0.53125,-3 -1.96875,-4.9375 -1.40625,-1.9375 -3.03125,-1.9375 -1.21875,0 -2.0625,0.8125 -0.84375,0.78125 -0.84375,1.90625 0,1 0.4375,2 0.4375,0.96875 1.21875,1.75 h -2.28125 q -0.71875,-0.71875 -1.09375,-1.6875 -0.375,-0.96875 -0.375,-2.0625 0,-1.90625 1.46875,-3.21875 1.4375,-1.34375 3.53125,-1.34375 2.40625,0 4.40625,2.46875 2,2.46875 2.65625,6.25 h 3.5625 v 1.875 H 376.5 V 150 h -2.0625 v -18.9375 z"
         id="path75" />
      <path
         d="m 380.15625,154 1.65625,-7.28125 h 3.03125 L 381.71875,154 Z"
         id="path77" />
      <path
         d="m 400.3125,131.0625 v -1.875 H 418.25 v 1.875 h -2.75 v 4.59375 h -9.59375 q -0.25,0 -0.4375,0.25 -0.1875,0.25 -0.1875,0.5625 0,0.5 1,1.34375 1,0.8125 1.71875,0.9375 0.59375,-0.1875 1.3125,-0.28125 0.71875,-0.125 1.59375,-0.125 2.25,0 3.8125,1.25 1.59375,1.21875 1.59375,2.90625 0,1.125 -0.78125,1.9375 -0.78125,0.78125 -1.90625,0.78125 -1.28125,0 -2.21875,0.46875 -0.90625,0.46875 -0.90625,1.1875 0,0.875 0.90625,1.5 0.9375,0.59375 2.21875,0.59375 0.5625,0 1,-0.0625 0.4375,-0.0625 0.65625,-0.15625 l 0.21875,2.09375 q -0.375,0.0625 -0.875,0.125 -0.46875,0.0625 -1,0.0625 -2.15625,0 -3.6875,-1.21875 -1.53125,-1.21875 -1.53125,-2.9375 0,-1.375 1.15625,-2.34375 1.1875,-0.96875 2.8125,-0.96875 0.78125,0 1.3125,-0.3125 0.5625,-0.3125 0.5625,-0.75 0,-0.875 -1,-1.46875 -0.96875,-0.59375 -2.34375,-0.59375 -2.5625,0 -4.40625,1.59375 -1.8125,1.5625 -1.8125,3.8125 0,3.1875 3.34375,5.4375 3.34375,2.25 8.09375,2.25 l 0.1875,2.28125 q -5.6875,0 -9.71875,-2.9375 -4,-2.90625 -4,-7.03125 0,-1.75 0.9375,-3.3125 Q 404.5,140.96875 406.125,140 q -1.34375,-0.78125 -2.125,-1.71875 -0.78125,-0.9375 -0.78125,-1.8125 0,-1.1875 0.78125,-2.03125 0.78125,-0.875 1.90625,-0.875 h 7.5 v -2.5 z"
         id="path79" />
      <path
         d="m 417.15625,131.0625 v -1.875 h 18 v 1.875 h -3.3125 v 5.40625 h -8.125 q -1.21875,0 -2.0625,0.875 -0.84375,0.84375 -0.84375,2.03125 0,2.25 2.375,3.84375 2.375,1.59375 5.75,1.59375 0,-1.46875 0.65625,-2.5 0.65625,-1.0625 1.625,-1.0625 0.6875,0 1.15625,0.5 0.5,0.46875 0.5,1.1875 0,0.8125 -0.5,1.65625 -0.5,0.84375 -1.375,1.4375 l 2.28125,3.96875 -1.875,0.84375 -2.28125,-4.1875 q -4.3125,0 -7.375,-2.125 -3.03125,-2.15625 -3.03125,-5.15625 0,-2.0625 1.4375,-3.5 1.46875,-1.46875 3.5625,-1.46875 H 429.75 v -3.34375 z"
         id="path81" />
      <path
         d="m 442.75,143.96875 q 1.625,0 3.0625,-0.875 1.46875,-0.90625 2.34375,-2.46875 v -9.5625 h -7.0625 q 0.78125,0.96875 1.21875,2.0625 0.4375,1.0625 0.4375,2.09375 0,1.8125 -1.4375,3.21875 -1.40625,1.40625 -3.5625,1.78125 0.3125,1.625 1.71875,2.6875 1.40625,1.0625 3.28125,1.0625 z m -8.4375,-12.90625 v -1.875 h 19.46875 v 1.875 H 450.25 V 150 h -2.09375 v -6.4375 q -1.21875,1.1875 -2.625,1.84375 -1.375,0.625 -2.78125,0.625 -3,0 -5.15625,-2.15625 -2.125,-2.1875 -2.125,-5.3125 2.375,0 3.78125,-0.90625 1.40625,-0.9375 1.40625,-2.4375 0,-1 -0.53125,-2.0625 -0.53125,-1.09375 -1.53125,-2.09375 z"
         id="path83" />
      <path
         d="m 452.9375,131.0625 v -1.875 h 3.53125 q -0.53125,-3 -1.96875,-4.9375 -1.40625,-1.9375 -3.03125,-1.9375 -1.21875,0 -2.0625,0.8125 -0.84375,0.78125 -0.84375,1.90625 0,1 0.4375,2 0.4375,0.96875 1.21875,1.75 h -2.28125 q -0.71875,-0.71875 -1.09375,-1.6875 -0.375,-0.96875 -0.375,-2.0625 0,-1.90625 1.46875,-3.21875 1.4375,-1.34375 3.53125,-1.34375 2.40625,0 4.40625,2.46875 2,2.46875 2.65625,6.25 h 3.5625 v 1.875 h -3.5625 V 150 h -2.0625 v -18.9375 z"
         id="path85" />
      <path
         d="m 461.25,131.0625 v -1.875 H 482 v 1.875 h -3.53125 V 150 H 476.375 v -7.5 q -1.25,1.75 -2.71875,2.75 -1.46875,1 -2.875,1 -2.09375,0 -3.5625,-1.4375 -1.4375,-1.46875 -1.4375,-3.5625 0,-1.5 0.59375,-2.71875 0.59375,-1.21875 1.6875,-1.84375 h -6.03125 v -2.09375 h 12.28125 v 2.09375 h -2.90625 q -1.59375,0.59375 -2.59375,1.84375 -0.96875,1.21875 -0.96875,2.71875 0,1.21875 0.84375,2.09375 0.875,0.84375 2.09375,0.84375 1.3125,0 2.8125,-1.28125 1.5,-1.3125 2.78125,-3.53125 v -8.3125 z"
         id="path87" />
      <path
         d="m 481.15625,131.0625 v -1.875 h 9.15625 v 1.875 H 486.75 V 150 h -2.0625 v -18.9375 z"
         id="path89" />
      <path
         d="m 503.46875,139.8125 q 0,-0.34375 0.28125,-0.59375 0.3125,-0.25 0.75,-0.25 h 1.65625 v -6.03125 q 0,-0.875 -0.5625,-1.46875 -0.53125,-0.625 -1.3125,-0.625 -0.78125,0 -1.34375,0.4375 -0.53125,0.4375 -0.53125,1.03125 0,0.71875 0.53125,1.1875 0.5625,0.46875 1.34375,0.46875 v 2.09375 q -1.625,0 -2.78125,-1.09375 -1.15625,-1.125 -1.15625,-2.65625 0,-1.46875 1.15625,-2.5 1.15625,-1.03125 2.78125,-1.03125 1.625,0 2.78125,1.21875 1.1875,1.21875 1.1875,2.9375 v 6.03125 h 6.84375 v -7.90625 h -5.40625 v -1.875 h 11.03125 v 1.875 H 517.1875 V 150 h -2.09375 v -8.9375 H 508.25 v 1.65625 q 0,0.34375 -0.3125,0.59375 -0.3125,0.25 -0.75,0.25 -0.625,0 -2.1875,-1.5625 -1.53125,-1.5625 -1.53125,-2.1875 z"
         id="path91" />
      <path
         d="m 519.875,131.0625 v -1.875 h 9.15625 v 1.875 h -3.5625 V 150 h -2.0625 v -18.9375 z"
         id="path93" />
      <path
         d="m 528.1875,131.0625 v -1.875 H 546 v 1.875 h -3.5625 V 150 h -2.0625 v -6.65625 q -0.84375,1 -2,1.5625 -1.125,0.53125 -2.375,0.53125 -2.59375,0 -4.4375,-1.65625 -1.8125,-1.65625 -1.8125,-3.96875 0,-2.34375 1.8125,-3.96875 1.84375,-1.65625 4.4375,-1.65625 0.75,0 1.4375,0.21875 0.6875,0.1875 1.28125,0.625 l -1.0625,1.65625 q -0.375,-0.28125 -0.78125,-0.4375 -0.40625,-0.1875 -0.875,-0.1875 -1.71875,0 -2.9375,1.09375 -1.21875,1.09375 -1.21875,2.65625 0,1.4375 1.21875,2.5 1.21875,1.03125 2.9375,1.03125 1.21875,0 2.375,-0.8125 1.15625,-0.84375 2,-2.3125 v -9.15625 z"
         id="path95" />
      <path
         d="m 547.90625,150 v -3.28125 h 2.65625 V 150 Z"
         id="path97" />
    </g>
    <g
       aria-label="भाषा गोड, मनाला भुरळ,"
       id="text6">
      <path
         d="m 262.23437,189.8125 q 0,-0.34375 0.28125,-0.59375 0.3125,-0.25 0.75,-0.25 h 1.65625 v -6.03125 q 0,-0.875 -0.5625,-1.46875 -0.53125,-0.625 -1.3125,-0.625 -0.78125,0 -1.34375,0.4375 -0.53125,0.4375 -0.53125,1.03125 0,0.71875 0.53125,1.1875 0.5625,0.46875 1.34375,0.46875 v 2.09375 q -1.625,0 -2.78125,-1.09375 -1.15625,-1.125 -1.15625,-2.65625 0,-1.46875 1.15625,-2.5 1.15625,-1.03125 2.78125,-1.03125 1.625,0 2.78125,1.21875 1.1875,1.21875 1.1875,2.9375 v 6.03125 h 6.84375 v -7.90625 h -5.40625 v -1.875 h 11.03125 v 1.875 h -3.53125 V 200 h -2.09375 v -8.9375 h -6.84375 v 1.65625 q 0,0.34375 -0.3125,0.59375 -0.3125,0.25 -0.75,0.25 -0.625,0 -2.1875,-1.5625 -1.53125,-1.5625 -1.53125,-2.1875 z"
         id="path100" />
      <path
         d="m 278.64062,181.0625 v -1.875 h 9.15625 v 1.875 h -3.5625 V 200 h -2.0625 v -18.9375 z"
         id="path102" />
      <path
         d="m 298.89062,187.9375 v -6.875 h -7.28125 z m -4.375,3.75 q 1.28125,0 2.40625,-0.375 1.125,-0.375 1.96875,-1.09375 l -7.6875,-7.0625 v 5.1875 q 0,1.375 0.96875,2.375 0.96875,0.96875 2.34375,0.96875 z m -7.5625,-10.625 v -1.875 h 17.5625 v 1.875 h -3.5625 V 200 h -2.0625 v -7.5 q -0.875,0.625 -2,0.9375 -1.125,0.3125 -2.375,0.3125 -2.25,0 -3.84375,-1.5625 -1.5625,-1.59375 -1.5625,-3.84375 v -7.28125 z"
         id="path104" />
      <path
         d="m 303.67187,181.0625 v -1.875 h 9.15625 v 1.875 h -3.5625 V 200 h -2.0625 v -18.9375 z"
         id="path106" />
      <path
         d="m 321.85937,181.0625 v -1.875 h 17 v 1.875 h -3.53125 V 200 h -2.0625 v -18.9375 h -5.21875 V 191.25 q 0,0.5 -0.3125,0.875 -0.3125,0.375 -0.71875,0.375 -0.78125,0 -2.46875,-1.9375 -1.6875,-1.96875 -1.6875,-2.84375 0,-0.3125 0.25,-0.5625 0.25,-0.25 0.5625,-0.25 h 1.46875 q 0.34375,0 0.59375,-0.3125 0.25,-0.3125 0.25,-0.75 v -4.78125 z"
         id="path108" />
      <path
         d="m 338.01562,181.0625 v -1.875 h 3.375 l -7.53125,-9.15625 1.4375,-1.25 8.15625,10.40625 h 3.71875 v 1.875 h -3.5625 V 200 h -2.0625 v -18.9375 z"
         id="path110" />
      <path
         d="m 358.76562,199.59375 q -3.28125,0 -6.40625,-2.46875 -3.09375,-2.5 -5.03125,-6.6875 l 1.65625,-1.0625 q 1.75,3.71875 4.375,5.9375 2.65625,2.1875 5.40625,2.1875 1.6875,0 2.90625,-1.28125 1.25,-1.28125 1.25,-3.09375 0,-0.5 -0.3125,-0.875 -0.3125,-0.375 -0.71875,-0.375 -0.6875,0 -1.90625,0.4375 -1.1875,0.40625 -1.84375,0.40625 -1.59375,0 -3.5,-2 -1.90625,-2 -1.90625,-3.625 0,-1.125 0.78125,-1.90625 0.78125,-0.78125 1.90625,-0.78125 h 5.625 v -3.34375 h -14.71875 v -1.875 h 20.53125 v 1.875 h -3.71875 v 5.40625 h -7.71875 q -0.25,0 -0.4375,0.1875 -0.1875,0.1875 -0.1875,0.4375 0,0.875 1.25,2.21875 1.25,1.3125 2.09375,1.3125 0.65625,0 1.84375,-0.40625 1.21875,-0.40625 1.90625,-0.40625 1.28125,0 2.1875,0.96875 0.9375,0.96875 0.9375,2.34375 0,2.6875 -1.84375,4.59375 -1.84375,1.875 -4.40625,1.875 z"
         id="path112" />
      <path
         d="m 366.98437,204 1.65625,-7.28125 h 3.03125 L 368.54687,204 Z"
         id="path114" />
      <path
         d="m 392.95312,187.9375 h 7.5 v -6.875 h -7.5 z m -5.8125,-6.875 v -1.875 h 18.9375 v 1.875 h -3.5625 V 200 h -2.0625 v -10 h -7.5 v 1.46875 q 0,0.5 -0.1875,0.875 -0.1875,0.375 -0.4375,0.375 -0.71875,0 -2.4375,-1.5625 -1.71875,-1.5625 -1.71875,-2.1875 0,-0.40625 0.3125,-0.71875 0.3125,-0.3125 0.71875,-0.3125 h 1.6875 v -6.875 z"
         id="path116" />
      <path
         d="m 406.26562,187.53125 q 0,-0.4375 0.4375,-0.75 0.4375,-0.3125 1.03125,-0.3125 h 11 v -5.40625 h -13.5 v -1.875 h 19.125 v 1.875 h -3.53125 V 200 h -2.09375 v -11.4375 h -6.03125 q -0.5,0 -0.875,0.25 -0.375,0.25 -0.375,0.5625 v 2.09375 q 0,0.5 -0.3125,0.875 -0.3125,0.375 -0.71875,0.375 -0.71875,0 -2.4375,-2.15625 -1.71875,-2.1875 -1.71875,-3.03125 z"
         id="path118" />
      <path
         d="m 423.51562,181.0625 v -1.875 h 9.15625 v 1.875 h -3.5625 V 200 h -2.0625 v -18.9375 z"
         id="path120" />
      <path
         d="m 431.82812,181.0625 v -1.875 h 23.53125 v 1.875 h -3.53125 V 200 h -2.0625 v -12.46875 q -1.8125,0 -3.375,1.625 -1.5625,1.59375 -2.25,4.1875 l -1.875,-0.625 q 0.15625,-1 0.5,-1.8125 0.34375,-0.8125 0.75,-1.3125 -0.65625,-1 -1.65625,-1.53125 -1,-0.53125 -2.09375,-0.53125 -1.71875,0 -2.9375,1.21875 -1.21875,1.21875 -1.21875,2.9375 0,1.875 1.875,3.71875 1.90625,1.8125 5,2.9375 l -0.84375,1.875 q -3.65625,-1.34375 -5.90625,-3.6875 -2.21875,-2.34375 -2.21875,-4.84375 0,-2.59375 1.8125,-4.40625 1.84375,-1.84375 4.4375,-1.84375 1.53125,0 2.90625,0.625 1.375,0.59375 2.28125,1.65625 0.9375,-1.0625 2.1875,-1.65625 1.25,-0.625 2.625,-0.625 v -4.375 z"
         id="path122" />
      <path
         d="m 454.54687,181.0625 v -1.875 h 9.15625 v 1.875 h -3.5625 V 200 h -2.0625 v -18.9375 z"
         id="path124" />
      <path
         d="m 476.85937,189.8125 q 0,-0.34375 0.28125,-0.59375 0.3125,-0.25 0.75,-0.25 h 1.65625 v -6.03125 q 0,-0.875 -0.5625,-1.46875 -0.53125,-0.625 -1.3125,-0.625 -0.78125,0 -1.34375,0.4375 -0.53125,0.4375 -0.53125,1.03125 0,0.71875 0.53125,1.1875 0.5625,0.46875 1.34375,0.46875 v 2.09375 q -1.625,0 -2.78125,-1.09375 -1.15625,-1.125 -1.15625,-2.65625 0,-1.46875 1.15625,-2.5 1.15625,-1.03125 2.78125,-1.03125 1.625,0 2.78125,1.21875 1.1875,1.21875 1.1875,2.9375 v 6.03125 h 6.84375 v -7.90625 h -5.40625 v -1.875 h 11.03125 v 1.875 h -3.53125 V 200 h -2.09375 v -8.9375 h -6.84375 v 1.65625 q 0,0.34375 -0.3125,0.59375 -0.3125,0.25 -0.75,0.25 -0.625,0 -2.1875,-1.5625 -1.53125,-1.5625 -1.53125,-2.1875 z"
         id="path126" />
      <path
         d="m 487.42187,208.53125 q -2.25,0 -4.6875,-1.09375 -2.46875,-1.0625 -4.875,-3.0625 l 1.46875,-1.875 q 2.28125,1.90625 4.375,2.90625 2.0625,1.03125 3.71875,1.03125 1.8125,0 3.09375,-0.90625 1.28125,-0.90625 1.28125,-2.1875 0,-1.0625 -0.65625,-1.78125 -0.6875,-0.71875 -1.625,-0.71875 -1,0 -1.875,0.375 -0.875,0.375 -1.46875,1.0625 l -1.4375,-1.4375 q 0.8125,-1 2.0625,-1.53125 1.25,-0.5625 2.71875,-0.5625 1.78125,0 3.09375,1.3125 1.28125,1.34375 1.28125,3.28125 0,2.15625 -1.90625,3.65625 -1.90625,1.53125 -4.5625,1.53125 z"
         id="path128" />
      <path
         d="m 493.26562,181.0625 v -1.875 h 14.46875 v 1.875 h -2.8125 v 4.78125 q 0,1.9375 -1.3125,3.28125 -1.28125,1.3125 -3.0625,1.3125 -0.25,0 -0.6875,-0.0937 -0.40625,-0.125 -1,-0.34375 1.34375,2.34375 3.15625,4.5 1.84375,2.125 4.125,4.03125 L 504.92187,200 q -3.34375,-2.78125 -6.03125,-6.3125 -2.6875,-3.5625 -4.59375,-7.625 l 1.875,-1.03125 q 0.53125,1.5 1.71875,2.40625 1.21875,0.90625 2.65625,0.90625 0.9375,0 1.59375,-0.71875 0.6875,-0.71875 0.6875,-1.78125 v -4.78125 z"
         id="path130" />
      <path
         d="m 523.64062,195.84375 q 1.3125,0 2.21875,-1.3125 0.90625,-1.34375 0.90625,-3.28125 0,-1.78125 -0.90625,-3.0625 -0.90625,-1.28125 -2.21875,-1.28125 -1.125,0 -2.1875,1.21875 -1.0625,1.21875 -1.5625,3.125 0.75,2.09375 1.78125,3.34375 1.0625,1.25 1.96875,1.25 z m -9.34375,-0.21875 q 0.90625,0 1.875,-1.125 1,-1.15625 1.65625,-3.03125 -0.53125,-2.03125 -1.53125,-3.28125 -0.96875,-1.28125 -2,-1.28125 -1.46875,0 -2.5,1.34375 -1.03125,1.3125 -1.03125,3.1875 0,1.75 1.03125,2.96875 1.03125,1.21875 2.5,1.21875 z m -7.40625,-14.5625 v -1.875 h 23.78125 v 1.875 h -6.1875 v 3.96875 q 1.90625,0.3125 3.125,2.09375 1.25,1.75 1.25,4.125 0,2.6875 -1.53125,4.59375 -1.5,1.875 -3.6875,1.875 -1.28125,0 -2.59375,-1.125 -1.3125,-1.125 -2.1875,-3.03125 -0.875,1.90625 -2.125,3.03125 -1.25,1.125 -2.4375,1.125 -2.34375,0 -4,-1.8125 -1.625,-1.84375 -1.625,-4.46875 0,-2.6875 1.625,-4.53125 1.65625,-1.875 4,-1.875 1.4375,0 2.6875,1.03125 1.25,1 1.875,2.6875 0.59375,-1.53125 1.53125,-2.53125 0.9375,-1 2,-1.1875 v -3.96875 z"
         id="path132" />
      <path
         d="m 530.79687,204 1.65625,-7.28125 h 3.03125 L 532.35937,204 Z"
         id="path134" />
    </g>
    <g
       aria-label="रेखा आणि मराठी, अमृतपर्वळ."
       id="text8">
      <path
         d="m 227.9375,231.0625 v -1.875 h 14.46875 v 1.875 h -2.8125 v 4.78125 q 0,1.9375 -1.3125,3.28125 -1.28125,1.3125 -3.0625,1.3125 -0.25,0 -0.6875,-0.0937 -0.40625,-0.125 -1,-0.34375 1.34375,2.34375 3.15625,4.5 1.84375,2.125 4.125,4.03125 L 239.59375,250 q -3.34375,-2.78125 -6.03125,-6.3125 -2.6875,-3.5625 -4.59375,-7.625 l 1.875,-1.03125 q 0.53125,1.5 1.71875,2.40625 1.21875,0.90625 2.65625,0.90625 0.9375,0 1.59375,-0.71875 0.6875,-0.71875 0.6875,-1.78125 v -4.78125 z"
         id="path137" />
      <path
         d="m 237.21875,229.1875 -7.6875,-9.15625 1.4375,-1.25 8.3125,10.40625 z"
         id="path139" />
      <path
         d="m 254.65625,248.125 q 2.34375,0 4.46875,-1.3125 2.125,-1.34375 3.4375,-3.6875 v -1.65625 q -0.8125,0.71875 -1.6875,1.09375 -0.84375,0.375 -1.625,0.375 -2.09375,0 -3.5625,-1.3125 -1.4375,-1.3125 -1.4375,-3.15625 0,-1.875 1.4375,-3.1875 1.46875,-1.3125 3.5625,-1.3125 0.78125,0 1.46875,0.1875 0.6875,0.15625 1.21875,0.4375 v 2.09375 q -0.8125,-0.28125 -1.5,-0.4375 -0.6875,-0.1875 -1.1875,-0.1875 -1.21875,0 -2.09375,0.71875 -0.84375,0.6875 -0.84375,1.6875 0,1 0.84375,1.6875 0.875,0.6875 2.09375,0.6875 0.65625,0 1.5,-0.4375 0.875,-0.4375 1.8125,-1.21875 v -8.125 H 251.125 v 4.59375 q 0,2 -1.125,3.40625 -1.09375,1.375 -2.625,1.375 -0.28125,0 -0.5625,-0.0625 -0.28125,-0.0625 -0.46875,-0.15625 1.28125,3.59375 3.5625,5.75 2.3125,2.15625 4.75,2.15625 z M 241.5625,231.0625 v -1.875 h 26.625 v 1.875 h -3.53125 V 250 h -2.09375 v -4.15625 q -1.375,1.9375 -3.46875,3.0625 Q 257,250 254.65625,250 q -3.625,0 -6.9375,-3.8125 -3.28125,-3.84375 -4.90625,-9.90625 l 1.65625,-0.84375 q 0.46875,1.34375 1.25,2.125 0.8125,0.78125 1.65625,0.78125 0.71875,0 1.1875,-0.78125 0.46875,-0.78125 0.46875,-1.90625 v -4.59375 z"
         id="path141" />
      <path
         d="m 267.34375,231.0625 v -1.875 H 276.5 v 1.875 h -3.5625 V 250 h -2.0625 v -18.9375 z"
         id="path143" />
      <path
         d="m 295.625,248.53125 q -2.5,0 -4.84375,-2.0625 -2.34375,-2.09375 -4.09375,-5.84375 l 1.46875,-1.25 q 1.5625,3.375 3.5,5.25 1.96875,1.84375 3.96875,1.84375 1.3125,0 2.21875,-1.09375 0.90625,-1.125 0.90625,-2.65625 0,-1.46875 -1.03125,-2.5 -1.03125,-1.03125 -2.5,-1.03125 -0.46875,0 -1,0.0937 -0.5,0.0937 -1.09375,0.3125 l -0.8125,-1.875 q 1.875,-0.15625 3.3125,-1.34375 1.46875,-1.21875 1.46875,-2.59375 0,-1.125 -0.875,-1.90625 -0.84375,-0.8125 -2.03125,-0.8125 -1,0 -2.21875,0.78125 -1.21875,0.75 -2.375,2.125 l -1.4375,-1.4375 q 1.0625,-1.59375 2.65625,-2.46875 1.625,-0.875 3.375,-0.875 2.0625,0 3.5,1.34375 1.46875,1.3125 1.46875,3.25 0,1.125 -0.5,2.15625 -0.5,1.03125 -1.34375,1.78125 1.40625,0.84375 2.78125,1.25 1.375,0.40625 2.625,0.40625 0.3125,0 0.84375,-0.1875 0.53125,-0.21875 1.21875,-0.625 v -7.5 h -3.75 v -1.875 h 17.90625 v 1.875 h -3.53125 V 250 H 313.3125 V 231.0625 H 306.875 V 250 h -2.09375 v -9.375 q -0.5,0.4375 -1.03125,0.65625 -0.5,0.1875 -1.03125,0.1875 -0.875,0 -1.59375,-0.15625 -0.71875,-0.1875 -1.125,-0.46875 0.40625,0.34375 0.625,0.9375 0.21875,0.59375 0.21875,1.34375 0,2.25 -1.53125,3.84375 -1.5,1.5625 -3.6875,1.5625 z"
         id="path145" />
      <path
         d="m 318.09375,231.0625 v -1.875 h 3.46875 q -0.0625,-0.0312 -0.0937,-1.125 0,-0.75 0,-1.6875 0,-2.78125 2.28125,-4.375 2.28125,-1.5625 6,-1.53125 5.78125,0 9.375,2.4375 3.59375,2.4375 5.8125,6.3125 h -2.46875 q -1.75,-3 -4.6875,-4.9375 -2.90625,-1.96875 -8.03125,-1.96875 -3.1875,0 -4.625,1.0625 -1.53125,1.125 -1.59375,3 -0.0312,1.28125 0,1.6875 0.15625,0.78125 0.0937,1.125 h 3.625 v 1.875 h -3.5625 V 250 h -2.0625 v -18.9375 z"
         id="path147" />
      <path
         d="m 333.8125,242.9375 q 1.125,0 1.90625,-0.90625 0.78125,-0.9375 0.78125,-2.21875 v -8.75 h -5.625 v 8.75 q 0,1.28125 0.84375,2.21875 0.875,0.90625 2.09375,0.90625 z m 0,2.0625 q -2.09375,0 -3.5625,-1.5 -1.4375,-1.53125 -1.4375,-3.6875 v -8.75 h -2.40625 v -1.875 h 21.75 v 1.875 H 344.625 V 250 h -2.09375 v -18.9375 h -3.9375 v 8.75 q 0,2.15625 -1.4375,3.6875 -1.40625,1.5 -3.34375,1.5 z"
         id="path149" />
      <path
         d="m 363,237.9375 h 7.5 v -6.875 H 363 Z m -5.8125,-6.875 v -1.875 h 18.9375 v 1.875 h -3.5625 V 250 H 370.5 V 240 H 363 v 1.46875 q 0,0.5 -0.1875,0.875 -0.1875,0.375 -0.4375,0.375 -0.71875,0 -2.4375,-1.5625 -1.71875,-1.5625 -1.71875,-2.1875 0,-0.40625 0.3125,-0.71875 0.3125,-0.3125 0.71875,-0.3125 h 1.6875 v -6.875 z"
         id="path151" />
      <path
         d="m 375.28125,231.0625 v -1.875 H 389.75 v 1.875 h -2.8125 v 4.78125 q 0,1.9375 -1.3125,3.28125 -1.28125,1.3125 -3.0625,1.3125 -0.25,0 -0.6875,-0.0937 -0.40625,-0.125 -1,-0.34375 1.34375,2.34375 3.15625,4.5 1.84375,2.125 4.125,4.03125 L 386.9375,250 q -3.34375,-2.78125 -6.03125,-6.3125 -2.6875,-3.5625 -4.59375,-7.625 l 1.875,-1.03125 q 0.53125,1.5 1.71875,2.40625 1.21875,0.90625 2.65625,0.90625 0.9375,0 1.59375,-0.71875 0.6875,-0.71875 0.6875,-1.78125 v -4.78125 z"
         id="path153" />
      <path
         d="m 388.90625,231.0625 v -1.875 h 9.15625 v 1.875 H 394.5 V 250 h -2.0625 v -18.9375 z"
         id="path155" />
      <path
         d="m 407.75,249.78125 q -3.25,0 -6,-2.78125 -2.75,-2.8125 -2.75,-6.15625 0,-2.40625 1.5625,-4.09375 1.59375,-1.71875 3.84375,-1.71875 h 5.21875 v -3.96875 h -12.40625 v -1.875 h 18.96875 v 1.875 h -4.5 v 6.03125 h -7.28125 q -1.375,0 -2.34375,1.125 -0.96875,1.09375 -0.96875,2.625 0,2.53125 2.09375,4.71875 2.09375,2.15625 4.5625,2.15625 1.78125,0 3.0625,-1.3125 1.28125,-1.34375 1.28125,-3.28125 0,-1.15625 -0.65625,-2.34375 -0.625,-1.21875 -1.8125,-2.21875 l 1.65625,-1.25 q 1.375,1.15625 2.125,2.6875 0.78125,1.5 0.78125,3.125 0,2.75 -1.90625,4.71875 -1.875,1.9375 -4.53125,1.9375 z"
         id="path157" />
      <path
         d="m 415.34375,231.0625 v -1.875 h 3.53125 q -0.53125,-3 -1.96875,-4.9375 -1.40625,-1.9375 -3.03125,-1.9375 -1.21875,0 -2.0625,0.8125 -0.84375,0.78125 -0.84375,1.90625 0,1 0.4375,2 0.4375,0.96875 1.21875,1.75 h -2.28125 q -0.71875,-0.71875 -1.09375,-1.6875 -0.375,-0.96875 -0.375,-2.0625 0,-1.90625 1.46875,-3.21875 1.4375,-1.34375 3.53125,-1.34375 2.40625,0 4.40625,2.46875 2,2.46875 2.65625,6.25 H 424.5 v 1.875 h -3.5625 V 250 h -2.0625 v -18.9375 z"
         id="path159" />
      <path
         d="m 424.59375,254 1.65625,-7.28125 h 3.03125 L 426.15625,254 Z"
         id="path161" />
      <path
         d="m 454.8125,248.53125 q -2.5,0 -4.84375,-2.0625 Q 447.625,244.375 445.875,240.625 l 1.53125,-0.875 q 1.5,3.1875 3.4375,4.96875 1.9375,1.75 3.96875,1.75 1.28125,0 2.1875,-0.9375 0.9375,-0.96875 0.9375,-2.34375 0,-1.6875 -1.0625,-2.84375 -1.03125,-1.15625 -2.46875,-1.15625 -0.46875,0 -1,0.0937 -0.5,0.0937 -1.09375,0.3125 l -0.84375,-1.875 q 1.875,-0.15625 3.3125,-1.28125 1.4375,-1.15625 1.4375,-2.46875 0,-1.1875 -0.71875,-2.03125 -0.71875,-0.875 -1.71875,-0.875 -1.21875,0 -2.53125,0.78125 -1.3125,0.75 -2.46875,2.125 l -1.46875,-1.4375 q 1.09375,-1.59375 2.78125,-2.46875 1.71875,-0.875 3.6875,-0.875 1.90625,0 3.21875,1.40625 1.34375,1.375 1.34375,3.375 0,1.0625 -0.5,2.03125 -0.5,0.96875 -1.375,1.71875 1.59375,0.90625 2.8125,1.40625 1.21875,0.46875 1.96875,0.46875 0.46875,0 1.15625,-0.25 0.6875,-0.28125 1.5625,-0.78125 v -7.5 h -3.75 v -1.875 h 9.375 v 1.875 h -3.5625 V 250 h -2.0625 v -9.375 q -0.5,0.4375 -1.03125,0.65625 -0.5,0.1875 -1.0625,0.1875 -0.875,0 -1.59375,-0.15625 -0.6875,-0.1875 -1.09375,-0.46875 0.40625,0.34375 0.59375,0.9375 Q 460,242.375 460,243.125 q 0,2.25 -1.53125,3.84375 -1.5,1.5625 -3.65625,1.5625 z"
         id="path163" />
      <path
         d="m 474.5625,237.9375 h 7.5 v -6.875 h -7.5 z m -5.8125,-6.875 v -1.875 h 18.9375 v 1.875 H 484.125 V 250 h -2.0625 v -10 h -7.5 v 1.46875 q 0,0.5 -0.1875,0.875 -0.1875,0.375 -0.4375,0.375 -0.71875,0 -2.4375,-1.5625 -1.71875,-1.5625 -1.71875,-2.1875 0,-0.40625 0.3125,-0.71875 0.3125,-0.3125 0.71875,-0.3125 H 472.5 v -6.875 z"
         id="path165" />
      <path
         d="m 482,258.53125 q -2.15625,0 -3.65625,-1.40625 -1.53125,-1.375 -1.53125,-3.375 0,-1.90625 1.65625,-3.25 1.625,-1.34375 3.96875,-1.34375 h 1.84375 v 1.875 h -1.84375 q -1.46875,0 -2.5,0.78125 -1.0625,0.8125 -1.0625,1.9375 0,1.125 0.9375,1.90625 0.90625,0.78125 2.1875,0.78125 1.21875,0 2.25,-0.375 1,-0.375 1.71875,-1.0625 L 487,256.875 q -0.96875,0.78125 -2.25,1.21875 -1.28125,0.4375 -2.75,0.4375 z"
         id="path167" />
      <path
         d="m 488.59375,239.8125 q 0,-2 1.28125,-3.375 1.28125,-1.40625 3.0625,-1.40625 h 8.125 v -3.96875 h -14.21875 v -1.875 h 19.84375 v 1.875 h -3.53125 V 250 h -2.09375 v -12.90625 h -8.125 q -0.9375,0 -1.625,0.8125 -0.65625,0.78125 -0.65625,1.90625 0,2 1.40625,4.28125 1.4375,2.28125 4,4.4375 L 494.8125,250 q -2.9375,-2.5 -4.59375,-5.15625 -1.625,-2.65625 -1.625,-5.03125 z"
         id="path169" />
      <path
         d="m 513.65625,241.875 q 1.28125,0 2.40625,-0.78125 1.125,-0.78125 1.75,-2.125 v -7.90625 h -7.6875 v 7.5 q 0,1.375 1.03125,2.34375 1.03125,0.96875 2.5,0.96875 z m -5.625,-3.3125 v -7.5 h -2.1875 v -1.875 h 17.59375 v 1.875 h -3.53125 V 250 h -2.09375 v -7.90625 q -0.90625,0.90625 -2,1.40625 -1.0625,0.46875 -2.15625,0.46875 -2.34375,0 -4,-1.5625 -1.625,-1.59375 -1.625,-3.84375 z"
         id="path171" />
      <path
         d="m 522.59375,231.0625 v -1.875 h 17.8125 v 1.875 h -3.5625 V 250 h -2.0625 v -6.65625 q -0.84375,1 -2,1.5625 -1.125,0.53125 -2.375,0.53125 -2.59375,0 -4.4375,-1.65625 -1.8125,-1.65625 -1.8125,-3.96875 0,-2.34375 1.8125,-3.96875 1.84375,-1.65625 4.4375,-1.65625 0.75,0 1.4375,0.21875 0.6875,0.1875 1.28125,0.625 l -1.0625,1.65625 q -0.375,-0.28125 -0.78125,-0.4375 -0.40625,-0.1875 -0.875,-0.1875 -1.71875,0 -2.9375,1.09375 -1.21875,1.09375 -1.21875,2.65625 0,1.4375 1.21875,2.5 1.21875,1.03125 2.9375,1.03125 1.21875,0 2.375,-0.8125 1.15625,-0.84375 2,-2.3125 v -9.15625 z"
         id="path173" />
      <path
         d="M 534.03125,229.15625 Q 532.96875,228.25 532.375,227.1875 531.75,226.09375 531.75,225 q 0,-1.90625 1.46875,-3.21875 1.4375,-1.34375 3.53125,-1.34375 0.5625,0 1.125,0.0937 0.5625,0.0937 1.15625,0.3125 v 1.875 q -0.875,-0.34375 -1.4375,-0.46875 -0.5625,-0.15625 -0.84375,-0.15625 -1.21875,0 -2.0625,0.84375 -0.84375,0.84375 -0.84375,2.0625 0,1.15625 0.78125,2.28125 0.78125,1.09375 2.125,1.875 z"
         id="path175" />
      <path
         d="m 556.3125,245.84375 q 1.3125,0 2.21875,-1.3125 0.90625,-1.34375 0.90625,-3.28125 0,-1.78125 -0.90625,-3.0625 -0.90625,-1.28125 -2.21875,-1.28125 -1.125,0 -2.1875,1.21875 -1.0625,1.21875 -1.5625,3.125 0.75,2.09375 1.78125,3.34375 1.0625,1.25 1.96875,1.25 z m -9.34375,-0.21875 q 0.90625,0 1.875,-1.125 1,-1.15625 1.65625,-3.03125 -0.53125,-2.03125 -1.53125,-3.28125 -0.96875,-1.28125 -2,-1.28125 -1.46875,0 -2.5,1.34375 -1.03125,1.3125 -1.03125,3.1875 0,1.75 1.03125,2.96875 1.03125,1.21875 2.5,1.21875 z m -7.40625,-14.5625 v -1.875 h 23.78125 v 1.875 h -6.1875 v 3.96875 q 1.90625,0.3125 3.125,2.09375 1.25,1.75 1.25,4.125 0,2.6875 -1.53125,4.59375 -1.5,1.875 -3.6875,1.875 -1.28125,0 -2.59375,-1.125 -1.3125,-1.125 -2.1875,-3.03125 -0.875,1.90625 -2.125,3.03125 -1.25,1.125 -2.4375,1.125 -2.34375,0 -4,-1.8125 -1.625,-1.84375 -1.625,-4.46875 0,-2.6875 1.625,-4.53125 1.65625,-1.875 4,-1.875 1.4375,0 2.6875,1.03125 1.25,1 1.875,2.6875 0.59375,-1.53125 1.53125,-2.53125 0.9375,-1 2,-1.1875 v -3.96875 z"
         id="path177" />
      <path
         d="m 565.28125,250 v -3.28125 h 2.65625 V 250 Z"
         id="path179" />
    </g>
  </g>
</svg>
