<?xml version="1.0" encoding="UTF-8" standalone="no"?>
<svg
   width="150mm"
   height="100mm"
   viewBox="0 0 150 100"
   version="1.1"
   id="svg6"
   sodipodi:docname="temp_robo_kavi_box_vectorized.svg"
   xmlns:inkscape="http://www.inkscape.org/namespaces/inkscape"
   xmlns:sodipodi="http://sodipodi.sourceforge.net/DTD/sodipodi-0.dtd"
   xmlns="http://www.w3.org/2000/svg"
   xmlns:svg="http://www.w3.org/2000/svg">
  <sodipodi:namedview
     id="namedview8"
     pagecolor="#ffffff"
     bordercolor="#000000"
     borderopacity="0.25"
     inkscape:showpageshadow="2"
     inkscape:pageopacity="0.0"
     inkscape:pagecheckerboard="0"
     inkscape:deskcolor="#d1d1d1"
     inkscape:document-units="mm" />
  <defs
     id="defs2" />
  <g
     id="layer1">
    <rect
       style="fill:none;stroke:#000000;stroke-width:0.5;stroke-linecap:butt;stroke-linejoin:miter;stroke-miterlimit:4;stroke-dasharray:none;stroke-opacity:1"
       id="rect1"
       width="149.5"
       height="99.5"
       x="0.25"
       y="0.25" />
    <g
       aria-label="RoboKavi"
       id="text1"
       style="font-size:15.1181px;font-family:Arial, sans-serif;text-anchor:middle">
      <path
         d="m 50.816928,20 -2.701771,-4.318406 h -3.24065 V 20 H 43.464566 V 9.598917 h 4.894193 q 1.75689,0 2.709154,0.789862 0.959645,0.782481 0.959645,2.18504 0,1.158956 -0.679133,1.948819 -0.671752,0.789862 -1.860237,0.996555 L 52.440944,20 Z m -0.206692,-7.411418 q 0,-0.907972 -0.620079,-1.380413 -0.612697,-0.479823 -1.771654,-0.479823 h -3.343996 v 3.838583 h 3.403051 q 1.114666,0 1.719981,-0.516732 0.612697,-0.524115 0.612697,-1.461615 z"
         id="path10" />
      <path
         d="m 60.915354,15.999016 q 0,2.096456 -0.922736,3.122539 -0.922737,1.026083 -2.679626,1.026083 -1.749508,0 -2.642717,-1.062992 -0.893209,-1.070374 -0.893209,-3.08563 0,-4.133859 3.580217,-4.133859 1.830709,0 2.69439,1.011319 0.863681,1.003937 0.863681,3.12254 z m -1.395177,0 q 0,-1.653544 -0.494587,-2.399115 -0.487205,-0.752952 -1.646161,-0.752952 -1.166339,0 -1.690453,0.767716 -0.516733,0.760335 -0.516733,2.384351 0,1.579724 0.509351,2.376968 0.516732,0.789862 1.616634,0.789862 1.195866,0 1.705216,-0.767716 0.516733,-0.767717 0.516733,-2.399114 z"
         id="path12" />
      <path
         d="m 69.323325,15.969488 q 0,4.17815 -2.937992,4.17815 -0.907972,0 -1.513287,-0.324803 -0.597933,-0.332185 -0.97441,-1.062993 h -0.01476 q 0,0.228839 -0.02953,0.70128 Q 63.823817,19.926181 63.809053,20 h -1.284448 q 0.04429,-0.398622 0.04429,-1.646161 V 9.0452753 h 1.32874 v 3.1225397 q 0,0.479823 -0.02953,1.129429 h 0.02953 q 0.369095,-0.767717 0.97441,-1.099902 0.612696,-0.332185 1.513287,-0.332185 1.513288,0 2.221949,1.018701 0.716043,1.018701 0.716043,3.08563 z m -1.395177,0.04429 q 0,-1.675689 -0.442913,-2.399114 -0.442914,-0.723425 -1.439469,-0.723425 -1.122047,0 -1.638779,0.767717 -0.509351,0.767716 -0.509351,2.436023 0,1.572343 0.501969,2.325296 0.501968,0.74557 1.631397,0.74557 1.003937,0 1.446851,-0.738189 0.450295,-0.74557 0.450295,-2.413878 z"
         id="path14" />
      <path
         d="m 77.7313,15.999016 q 0,2.096456 -0.922737,3.122539 -0.922736,1.026083 -2.679626,1.026083 -1.749508,0 -2.642716,-1.062992 -0.893209,-1.070374 -0.893209,-3.08563 0,-4.133859 3.580217,-4.133859 1.830708,0 2.694389,1.011319 0.863682,1.003937 0.863682,3.12254 z m -1.395178,0 q 0,-1.653544 -0.494586,-2.399115 -0.487205,-0.752952 -1.646162,-0.752952 -1.166338,0 -1.690453,0.767716 -0.516732,0.760335 -0.516732,2.384351 0,1.579724 0.509351,2.376968 0.516732,0.789862 1.616633,0.789862 1.195867,0 1.705217,-0.767716 0.516732,-0.767717 0.516732,-2.399114 z"
         id="path16" />
      <path
         d="m 86.53051,20 -4.156004,-5.019685 -1.358268,1.033464 V 20 H 79.606297 V 9.598917 h 1.409941 v 5.211614 l 5.012304,-5.211614 h 1.660925 L 83.260333,14.116634 88.280018,20 Z"
         id="path18" />
      <path
         d="m 91.505906,20.147638 q -1.203248,0 -1.808563,-0.634843 -0.605315,-0.634842 -0.605315,-1.742126 0,-1.240157 0.812008,-1.904527 0.81939,-0.66437 2.635335,-0.708662 l 1.793799,-0.02953 v -0.435532 q 0,-0.974409 -0.413386,-1.395177 -0.413386,-0.420768 -1.299212,-0.420768 -0.893209,0 -1.299213,0.302658 -0.406004,0.302657 -0.487205,0.967027 l -1.387795,-0.125492 q 0.339567,-2.155512 3.20374,-2.155512 1.505906,0 2.26624,0.693898 0.760335,0.686516 0.760335,1.99311 v 3.439961 q 0,0.590551 0.15502,0.893209 0.155019,0.295275 0.590551,0.295275 0.191929,0 0.435531,-0.05167 v 0.826772 q -0.501968,0.11811 -1.026082,0.11811 -0.738189,0 -1.077756,-0.383858 -0.332185,-0.391241 -0.376477,-1.218012 h -0.04429 q -0.50935,0.915354 -1.188484,1.299212 -0.671752,0.376477 -1.63878,0.376477 z m 0.302658,-0.996555 q 0.730807,0 1.299212,-0.332185 0.568406,-0.332185 0.893209,-0.907973 0.332185,-0.583169 0.332185,-1.195866 v -0.656988 l -1.454232,0.02953 q -0.9375,0.01476 -1.424705,0.191929 -0.479823,0.177166 -0.738189,0.54626 -0.258366,0.369095 -0.258366,0.967028 0,0.649606 0.346949,1.003937 0.35433,0.354331 1.003937,0.354331 z"
         id="path20" />
      <path
         d="m 101.38287,20 h -1.57234 l -2.901083,-7.987205 h 1.417323 l 1.75689,5.196851 q 0.096,0.295275 0.50935,1.749508 l 0.25837,-0.863682 0.28789,-0.871063 1.81595,-5.211614 h 1.40994 z"
         id="path22" />
      <path
         d="M 105.42815,10.31496 V 9.0452753 h 1.32874 V 10.31496 Z m 0,9.68504 v -7.987205 h 1.32874 V 20 Z"
         id="path24" />
    </g>
  </g>
</svg>
