<?xml version="1.0" encoding="UTF-8" standalone="no"?>
<svg
   width="200mm"
   height="100mm"
   viewBox="0 0 200 100"
   version="1.1"
   id="svg7"
   sodipodi:docname="temp_robo_kavi_box_with_footer_vectorized.svg"
   xmlns:inkscape="http://www.inkscape.org/namespaces/inkscape"
   xmlns:sodipodi="http://sodipodi.sourceforge.net/DTD/sodipodi-0.dtd"
   xmlns="http://www.w3.org/2000/svg"
   xmlns:svg="http://www.w3.org/2000/svg">
  <sodipodi:namedview
     id="namedview9"
     pagecolor="#ffffff"
     bordercolor="#000000"
     borderopacity="0.25"
     inkscape:showpageshadow="2"
     inkscape:pageopacity="0.0"
     inkscape:pagecheckerboard="0"
     inkscape:deskcolor="#d1d1d1"
     inkscape:document-units="mm" />
  <defs
     id="defs2" />
  <g
     id="layer1">
    <rect
       style="fill:none;stroke:#000000;stroke-width:0.5;stroke-linecap:butt;stroke-linejoin:miter;stroke-miterlimit:4;stroke-dasharray:none;stroke-opacity:1"
       id="rect1"
       width="199.5"
       height="99.5"
       x="0.25"
       y="0.25" />
    <g
       aria-label="RoboKavi"
       id="text_title"
       style="font-size:7.55906px;font-family:Arial, sans-serif;text-anchor:middle">
      <path
         d="M 87.908464,15 86.557578,12.840797 H 84.937254 V 15 H 84.232283 V 9.7994585 h 2.447097 q 0.878444,0 1.354576,0.3949315 0.479823,0.39124 0.479823,1.092519 0,0.579479 -0.339567,0.97441 -0.335876,0.394931 -0.930118,0.498277 L 88.720472,15 Z m -0.103346,-3.705709 q 0,-0.453986 -0.31004,-0.690206 -0.306348,-0.239912 -0.885826,-0.239912 h -1.671998 v 1.919291 h 1.701525 q 0.557333,0 0.85999,-0.258366 0.306349,-0.262057 0.306349,-0.730807 z"
         id="path11" />
      <path
         d="m 92.957677,12.999508 q 0,1.048228 -0.461368,1.56127 -0.461368,0.513041 -1.339813,0.513041 -0.874754,0 -1.321359,-0.531496 -0.446604,-0.535187 -0.446604,-1.542815 0,-2.066929 1.790108,-2.066929 0.915355,0 1.347195,0.505659 0.431841,0.501969 0.431841,1.56127 z m -0.697589,0 q 0,-0.826772 -0.247293,-1.199557 -0.243602,-0.376477 -0.823081,-0.376477 -0.583169,0 -0.845226,0.383859 -0.258366,0.380167 -0.258366,1.192175 0,0.789862 0.254675,1.188484 0.258366,0.394931 0.808317,0.394931 0.597933,0 0.852608,-0.383858 0.258366,-0.383858 0.258366,-1.199557 z"
         id="path13" />
      <path
         d="m 97.161663,12.984744 q 0,2.089075 -1.468996,2.089075 -0.453987,0 -0.756644,-0.162402 -0.298967,-0.166092 -0.487205,-0.531496 h -0.0074 q 0,0.11442 -0.01476,0.35064 -0.01476,0.23253 -0.02214,0.269439 h -0.642225 q 0.02215,-0.199311 0.02215,-0.823081 V 9.5226376 h 0.66437 v 1.5612694 q 0,0.239912 -0.01476,0.564715 h 0.01476 q 0.184547,-0.383858 0.487205,-0.549951 0.306348,-0.166092 0.756644,-0.166092 0.756643,0 1.110974,0.50935 0.358022,0.50935 0.358022,1.542815 z m -0.697589,0.02215 q 0,-0.837845 -0.221457,-1.199557 -0.221456,-0.361713 -0.719734,-0.361713 -0.561024,0 -0.81939,0.383858 -0.254675,0.383859 -0.254675,1.218012 0,0.786171 0.250984,1.162648 0.250985,0.372785 0.815699,0.372785 0.501969,0 0.723425,-0.369094 0.225148,-0.372786 0.225148,-1.206939 z"
         id="path15" />
      <path
         d="m 101.36565,12.999508 q 0,1.048228 -0.46137,1.56127 -0.46137,0.513041 -1.339811,0.513041 -0.874754,0 -1.321359,-0.531496 -0.446604,-0.535187 -0.446604,-1.542815 0,-2.066929 1.790108,-2.066929 0.915356,0 1.347196,0.505659 0.43184,0.501969 0.43184,1.56127 z m -0.69759,0 q 0,-0.826772 -0.24729,-1.199557 -0.2436,-0.376477 -0.823083,-0.376477 -0.583169,0 -0.845226,0.383859 -0.258366,0.380167 -0.258366,1.192175 0,0.789862 0.254675,1.188484 0.258366,0.394931 0.808317,0.394931 0.597933,0 0.852613,-0.383858 0.25836,-0.383858 0.25836,-1.199557 z"
         id="path17" />
      <path
         d="m 105.76526,15 -2.07801,-2.509843 -0.67913,0.516733 V 15 h -0.70497 V 9.7994585 h 0.70497 v 2.6058075 l 2.50615,-2.6058075 h 0.83046 L 104.13017,12.058317 106.64001,15 Z"
         id="path19" />
      <path
         d="m 108.25295,15.073819 q -0.60162,0 -0.90428,-0.317421 -0.30266,-0.317422 -0.30266,-0.871063 0,-0.620079 0.40601,-0.952264 0.40969,-0.332185 1.31767,-0.354331 l 0.8969,-0.01476 v -0.217765 q 0,-0.487205 -0.2067,-0.697589 -0.20669,-0.210384 -0.6496,-0.210384 -0.44661,0 -0.64961,0.151329 -0.203,0.151329 -0.2436,0.483514 l -0.6939,-0.06275 q 0.16978,-1.077756 1.60187,-1.077756 0.75295,0 1.13312,0.346948 0.38017,0.343258 0.38017,0.996556 v 1.71998 q 0,0.295276 0.0775,0.446604 0.0775,0.147638 0.29527,0.147638 0.096,0 0.21777,-0.02584 v 0.413386 q -0.25099,0.05905 -0.51304,0.05905 -0.3691,0 -0.53888,-0.191929 -0.16609,-0.19562 -0.18824,-0.609006 h -0.0221 q -0.25468,0.457678 -0.59425,0.649607 -0.33587,0.188238 -0.81939,0.188238 z m 0.15133,-0.498278 q 0.36541,0 0.64961,-0.166092 0.2842,-0.166093 0.4466,-0.453986 0.1661,-0.291585 0.1661,-0.597934 v -0.328494 l -0.72712,0.01476 q -0.46875,0.0074 -0.71235,0.09596 -0.23991,0.08858 -0.3691,0.27313 -0.12918,0.184547 -0.12918,0.483513 0,0.324804 0.17347,0.501969 0.17717,0.177165 0.50197,0.177165 z"
         id="path21" />
      <path
         d="m 113.19144,15 h -0.78617 l -1.45055,-3.993602 h 0.70867 l 0.87844,2.598425 q 0.048,0.147638 0.25468,0.874754 l 0.12918,-0.431841 0.14395,-0.435531 0.90797,-2.605807 h 0.70497 z"
         id="path23" />
      <path
         d="M 115.21407,10.15748 V 9.5226376 h 0.66437 V 10.15748 Z m 0,4.84252 v -3.993602 h 0.66437 V 15 Z"
         id="path25" />
    </g>
    <g
       aria-label="made in jalihal"
       id="text_footer"
       style="font-size:7.55906px;font-family:Arial, sans-serif;text-anchor:middle">
      <path
         d="m 78.67372,90 v -2.531988 q 0,-0.579479 -0.158711,-0.800935 -0.15871,-0.221457 -0.572096,-0.221457 -0.424459,0 -0.671752,0.324803 -0.247294,0.324803 -0.247294,0.915354 V 90 h -0.660679 v -3.140994 q 0,-0.697589 -0.02214,-0.852608 h 0.62746 q 0.0037,0.01845 0.0074,0.09965 0.0037,0.0812 0.0074,0.188238 0.0074,0.103347 0.01476,0.394931 h 0.01107 q 0.214075,-0.424458 0.490895,-0.590551 0.276821,-0.166092 0.675443,-0.166092 0.453987,0 0.716044,0.180856 0.265748,0.180856 0.369094,0.575787 h 0.01107 q 0.206693,-0.402313 0.498278,-0.579478 0.295275,-0.177165 0.712352,-0.177165 0.605315,0 0.878445,0.328494 0.276821,0.328494 0.276821,1.077756 V 90 H 80.98056 v -2.531988 q 0,-0.579479 -0.15871,-0.800935 -0.158711,-0.221457 -0.572097,-0.221457 -0.435531,0 -0.679133,0.324803 -0.239912,0.321112 -0.239912,0.915354 V 90 Z"
         id="path28" />
      <path
         d="m 83.663877,90.073819 q -0.601624,0 -0.904281,-0.317421 -0.302658,-0.317422 -0.302658,-0.871063 0,-0.620079 0.406004,-0.952264 0.409695,-0.332185 1.317668,-0.354331 l 0.896899,-0.01476 v -0.217765 q 0,-0.487205 -0.206693,-0.697589 -0.206693,-0.210384 -0.649606,-0.210384 -0.446604,0 -0.649606,0.151329 -0.203002,0.151329 -0.243603,0.483514 l -0.693897,-0.06275 q 0.169783,-1.077756 1.60187,-1.077756 0.752953,0 1.13312,0.346948 0.380167,0.343258 0.380167,0.996556 v 1.71998 q 0,0.295276 0.07751,0.446604 0.07751,0.147638 0.295276,0.147638 0.09596,0 0.217765,-0.02584 v 0.413386 q -0.250984,0.05906 -0.513041,0.05906 -0.369094,0 -0.538878,-0.191929 -0.166092,-0.19562 -0.188238,-0.609006 h -0.02215 q -0.254675,0.457678 -0.594242,0.649607 -0.335876,0.188238 -0.81939,0.188238 z m 0.151329,-0.498278 q 0.365404,0 0.649606,-0.166092 0.284203,-0.166093 0.446605,-0.453986 0.166092,-0.291585 0.166092,-0.597934 v -0.328494 l -0.727116,0.01476 q -0.46875,0.0074 -0.712352,0.09596 -0.239912,0.08858 -0.369095,0.27313 -0.129183,0.184547 -0.129183,0.483513 0,0.324804 0.173475,0.501969 0.177165,0.177165 0.501968,0.177165 z"
         id="path30" />
      <path
         d="m 89.370078,89.357776 q -0.184547,0.383858 -0.490896,0.54995 -0.302657,0.166093 -0.752952,0.166093 -0.756644,0 -1.114666,-0.509351 -0.35433,-0.50935 -0.35433,-1.542815 0,-2.089074 1.468996,-2.089074 0.453986,0 0.756643,0.166092 0.302658,0.166093 0.487205,0.527805 h 0.0074 l -0.0074,-0.446604 v -1.657234 h 0.66437 v 4.654281 q 0,0.62377 0.02215,0.823081 h -0.634843 q -0.01107,-0.05906 -0.02584,-0.27313 -0.01107,-0.214075 -0.01107,-0.369094 z m -2.015256,-1.358268 q 0,0.837844 0.221457,1.199557 0.221457,0.361713 0.719734,0.361713 0.564715,0 0.81939,-0.391241 0.254675,-0.39124 0.254675,-1.214321 0,-0.793553 -0.254675,-1.162647 -0.254675,-0.369095 -0.812008,-0.369095 -0.501969,0 -0.727116,0.372786 -0.221457,0.369094 -0.221457,1.203248 z"
         id="path32" />
      <path
         d="m 91.562499,88.143455 q 0,0.686515 0.284203,1.059301 0.284203,0.372785 0.830463,0.372785 0.43184,0 0.690206,-0.173474 0.262057,-0.173475 0.354331,-0.439223 l 0.583169,0.166093 q -0.358021,0.944882 -1.627706,0.944882 -0.885827,0 -1.350886,-0.527805 -0.461368,-0.527805 -0.461368,-1.568652 0,-0.989173 0.461368,-1.516978 0.465059,-0.527805 1.325049,-0.527805 1.760581,0 1.760581,2.122293 v 0.08858 z m 2.162894,-0.509351 q -0.05536,-0.631151 -0.321112,-0.919045 -0.265748,-0.291585 -0.764026,-0.291585 -0.483514,0 -0.767716,0.324803 -0.280512,0.321113 -0.302658,0.885827 z"
         id="path34" />
      <path
         d="m 97.353591,85.15748 v -0.634842 h 0.66437 v 0.634842 z m 0,4.84252 v -3.993602 h 0.66437 V 90 Z"
         id="path36" />
      <path
         d="m 101.57234,90 v -2.531988 q 0,-0.394931 -0.0775,-0.612697 -0.0775,-0.217766 -0.24729,-0.31373 -0.16978,-0.09596 -0.49828,-0.09596 -0.47982,0 -0.756643,0.328494 -0.27682,0.328494 -0.27682,0.911663 V 90 h -0.664371 v -3.140994 q 0,-0.697589 -0.02215,-0.852608 h 0.62746 q 0.0037,0.01845 0.0074,0.09965 0.0037,0.0812 0.0074,0.188238 0.0074,0.103347 0.01476,0.394931 h 0.01107 q 0.228838,-0.413385 0.527808,-0.583169 0.30265,-0.173474 0.74926,-0.173474 0.65699,0 0.95964,0.328494 0.30635,0.324803 0.30635,1.077756 V 90 Z"
         id="path38" />
      <path
         d="m 105.33711,85.15748 v -0.634842 h 0.66437 v 0.634842 z m 0.66437,5.337107 q 0,0.564714 -0.22146,0.819389 -0.22146,0.254676 -0.66437,0.254676 -0.2842,0 -0.46875,-0.03322 v -0.513041 l 0.22884,0.02215 q 0.25467,0 0.35802,-0.132874 0.10335,-0.132874 0.10335,-0.516732 v -4.388533 h 0.66437 z"
         id="path40" />
      <path
         d="m 108.03888,90.073819 q -0.60163,0 -0.90428,-0.317421 -0.30266,-0.317422 -0.30266,-0.871063 0,-0.620079 0.406,-0.952264 0.4097,-0.332185 1.31767,-0.354331 l 0.8969,-0.01476 v -0.217765 q 0,-0.487205 -0.20669,-0.697589 -0.2067,-0.210384 -0.64961,-0.210384 -0.4466,0 -0.64961,0.151329 -0.203,0.151329 -0.2436,0.483514 l -0.6939,-0.06275 q 0.16979,-1.077756 1.60187,-1.077756 0.75296,0 1.13312,0.346948 0.38017,0.343258 0.38017,0.996556 v 1.71998 q 0,0.295276 0.0775,0.446604 0.0775,0.147638 0.29528,0.147638 0.096,0 0.21776,-0.02584 v 0.413386 q -0.25098,0.05906 -0.51304,0.05906 -0.36909,0 -0.53888,-0.191929 -0.16609,-0.19562 -0.18823,-0.609006 h -0.0221 q -0.25467,0.457678 -0.59424,0.649607 -0.33588,0.188238 -0.81939,0.188238 z m 0.15133,-0.498278 q 0.3654,0 0.6496,-0.166092 0.28421,-0.166093 0.44661,-0.453986 0.16609,-0.291585 0.16609,-0.597934 v -0.328494 l -0.72712,0.01476 q -0.46875,0.0074 -0.71235,0.09596 -0.23991,0.08858 -0.36909,0.27313 -0.12919,0.184547 -0.12919,0.483513 0,0.324804 0.17348,0.501969 0.17716,0.177165 0.50197,0.177165 z"
         id="path42" />
      <path
         d="m 111.22416,90 v -5.477362 h 0.66437 V 90 Z"
         id="path44" />
      <path
         d="m 112.89985,85.15748 v -0.634842 h 0.66437 v 0.634842 z m 0,4.84252 v -3.993602 h 0.66437 V 90 Z"
         id="path46" />
      <path
         d="m 115.2436,86.689222 q 0.21408,-0.39124 0.51304,-0.572096 0.30266,-0.184547 0.76403,-0.184547 0.6496,0 0.95595,0.324803 0.31004,0.321112 0.31004,1.081447 V 90 h -0.66806 v -2.531988 q 0,-0.420768 -0.0775,-0.62377 -0.0775,-0.206693 -0.25467,-0.302657 -0.17717,-0.09596 -0.4909,-0.09596 -0.46875,0 -0.75295,0.324803 -0.28051,0.324803 -0.28051,0.874754 V 90 h -0.66437 v -5.477362 h 0.66437 v 1.424704 q 0,0.225148 -0.0148,0.465059 -0.0111,0.239912 -0.0148,0.276821 z"
         id="path48" />
      <path
         d="m 119.80561,90.073819 q -0.60162,0 -0.90428,-0.317421 -0.30266,-0.317422 -0.30266,-0.871063 0,-0.620079 0.406,-0.952264 0.4097,-0.332185 1.31767,-0.354331 l 0.8969,-0.01476 v -0.217765 q 0,-0.487205 -0.20669,-0.697589 -0.20669,-0.210384 -0.64961,-0.210384 -0.4466,0 -0.6496,0.151329 -0.20301,0.151329 -0.24361,0.483514 l -0.69389,-0.06275 q 0.16978,-1.077756 1.60187,-1.077756 0.75295,0 1.13312,0.346948 0.38016,0.343258 0.38016,0.996556 v 1.71998 q 0,0.295276 0.0775,0.446604 0.0775,0.147638 0.29528,0.147638 0.096,0 0.21776,-0.02584 v 0.413386 q -0.25098,0.05906 -0.51304,0.05906 -0.36909,0 -0.53887,-0.191929 -0.1661,-0.19562 -0.18824,-0.609006 h -0.0221 q -0.25467,0.457678 -0.59424,0.649607 -0.33588,0.188238 -0.81939,0.188238 z m 0.15133,-0.498278 q 0.3654,0 0.6496,-0.166092 0.28421,-0.166093 0.44661,-0.453986 0.16609,-0.291585 0.16609,-0.597934 v -0.328494 l -0.72711,0.01476 q -0.46875,0.0074 -0.71236,0.09596 -0.23991,0.08858 -0.36909,0.27313 -0.12918,0.184547 -0.12918,0.483513 0,0.324804 0.17347,0.501969 0.17717,0.177165 0.50197,0.177165 z"
         id="path50" />
      <path
         d="m 122.9909,90 v -5.477362 h 0.66437 V 90 Z"
         id="path52" />
    </g>
  </g>
</svg>
