<?xml version="1.0" encoding="UTF-8" standalone="no"?>
<svg
   width="800"
   height="300"
   version="1.1"
   id="svg10"
   sodipodi:docname="rudra_nature.svg"
   xmlns:inkscape="http://www.inkscape.org/namespaces/inkscape"
   xmlns:sodipodi="http://sodipodi.sourceforge.net/DTD/sodipodi-0.dtd"
   xmlns="http://www.w3.org/2000/svg"
   xmlns:svg="http://www.w3.org/2000/svg">
  <defs
     id="defs14" />
  <sodipodi:namedview
     id="namedview12"
     pagecolor="#ffffff"
     bordercolor="#000000"
     borderopacity="0.25"
     inkscape:showpageshadow="2"
     inkscape:pageopacity="0.0"
     inkscape:pagecheckerboard="0"
     inkscape:deskcolor="#d1d1d1" />
  <g
     font-family="Lohit Devanagari"
     font-size="32"
     text-anchor="middle"
     fill="#000"
     id="g8">
    <g
       aria-label="The wind, a Rudra's whispered plea,"
       id="text2">
      <path
         d="m 169.64062,81.0625 h -5.03125 V 100 h -2.0625 V 81.0625 h -5 v -1.875 h 12.09375 z"
         id="path16" />
      <path
         d="m 184.51562,100 h -2.0625 V 89.25 q 0,-3.40625 -3.21875,-3.40625 -2.875,0 -4.40625,2.5625 V 100 h -2.0625 V 78.125 h 2.0625 v 7.78125 q 1.84375,-1.9375 4.40625,-1.9375 2.59375,0 3.9375,1.375 1.34375,1.34375 1.34375,3.90625 z"
         id="path18" />
      <path
         d="m 194.98437,100.40625 q -2.9375,0 -4.6875,-2.21875 -1.71875,-2.25 -1.71875,-6 0,-3.75 1.71875,-5.96875 1.75,-2.25 4.6875,-2.25 2.84375,0 4.5,2.0625 1.6875,2.0625 1.6875,5.5 v 1.1875 h -10.53125 q 0.125,2.6875 1.28125,4.25 1.15625,1.5625 3.0625,1.5625 2.53125,0 3.9375,-2.125 L 200.57812,97.5 q -2,2.90625 -5.59375,2.90625 z m 0,-14.5625 q -1.75,0 -2.90625,1.34375 -1.125,1.3125 -1.375,3.65625 h 8.375 q -0.15625,-2.3125 -1.28125,-3.65625 -1.09375,-1.34375 -2.8125,-1.34375 z"
         id="path20" />
      <path
         d="m 224.70312,84.375 3.28125,13.6875 3.875,-13.6875 h 2.09375 l -4.5,15.625 h -2.84375 L 223.73437,88.3125 220.89062,100 h -2.84375 l -4.5,-15.625 h 2.09375 l 3.875,13.6875 3.28125,-13.6875 z"
         id="path22" />
      <path
         d="m 239.60937,100 h -2.0625 V 84.375 h 2.0625 z m -2.0625,-19.71875 q -0.40625,-0.40625 -0.40625,-1 0,-0.59375 0.40625,-1 0.4375,-0.4375 1.03125,-0.4375 0.59375,0 1,0.4375 0.4375,0.40625 0.4375,1 0,0.59375 -0.4375,1 -0.40625,0.40625 -1,0.40625 -0.59375,0 -1.03125,-0.40625 z"
         id="path24" />
      <path
         d="m 256.98437,100 h -2.0625 V 89.25 q 0,-3.40625 -3.21875,-3.40625 -2.875,0 -4.40625,2.5625 V 100 h -2.0625 V 84.375 h 1.90625 v 1.71875 q 1.875,-2.125 4.5625,-2.125 2.59375,0 3.9375,1.375 1.34375,1.34375 1.34375,3.90625 z"
         id="path26" />
      <path
         d="m 273.42187,100 h -1.90625 v -1.65625 q -1.875,2.0625 -4.5,2.0625 -2.75,0 -4.375,-2.21875 -1.59375,-2.21875 -1.59375,-6 0,-3.78125 1.71875,-6 1.71875,-2.21875 4.59375,-2.21875 2.34375,0 4,1.375 V 78.125 h 2.0625 z m -2.0625,-12 q -1.40625,-2.15625 -4.03125,-2.15625 -1.9375,0 -3.09375,1.71875 -1.125,1.71875 -1.125,4.625 0,2.90625 1.03125,4.625 1.0625,1.71875 2.84375,1.71875 2.78125,0 4.375,-2.71875 z"
         id="path28" />
      <path
         d="m 276.76562,104 1.65625,-7.28125 h 3.03125 L 278.32812,104 Z"
         id="path30" />
      <path
         d="m 309.04687,98.375 q -1.78125,2.03125 -4.25,2.03125 -2.5625,0 -4.09375,-1.375 -1.5,-1.40625 -1.5,-3.71875 0,-2.34375 1.5,-3.71875 1.53125,-1.375 4.09375,-1.375 2.3125,0 4.09375,1.34375 v -2.09375 q 0,-1.65625 -1,-2.625 -0.96875,-1 -2.59375,-1 -2.4375,0 -3.9375,2.0625 L 299.76562,86.875 q 1.96875,-2.90625 5.53125,-2.90625 2.59375,0 4.125,1.5 1.53125,1.5 1.53125,4 V 100 h -1.90625 z m -4.28125,0.15625 q 2.5625,0 4.125,-2.5 v -2.3125 q -1.53125,-1.625 -4.125,-1.625 -1.625,0 -2.5625,0.875 -0.9375,0.875 -0.9375,2.34375 0,1.46875 0.9375,2.34375 0.9375,0.875 2.5625,0.875 z"
         id="path32" />
      <path
         d="M 326.45312,100 V 79.1875 h 2.0625 3.15625 q 3.1875,0 5.0625,1.6875 1.90625,1.6875 1.90625,4.5 0,2.15625 -1.15625,3.6875 -1.125,1.53125 -3.1875,2.15625 L 339.26562,100 h -2.28125 l -4.75,-8.4375 h -0.5625 -3.15625 V 100 Z m 2.0625,-18.9375 v 8.625 h 3.15625 q 2.21875,0 3.53125,-1.15625 1.3125,-1.1875 1.3125,-3.15625 0,-1.96875 -1.3125,-3.125 -1.3125,-1.1875 -3.53125,-1.1875 z"
         id="path34" />
      <path
         d="m 342.85937,84.375 h 2.0625 v 10.75 q 0,3.40625 3.21875,3.40625 2.875,0 4.40625,-3 V 84.375 h 2.0625 V 100 h -1.90625 v -1.9375 q -1.875,2.34375 -4.5625,2.34375 -5.28125,0 -5.28125,-5.28125 z"
         id="path36" />
      <path
         d="m 371.35937,100 h -1.90625 v -1.65625 q -1.875,2.0625 -4.5,2.0625 -2.75,0 -4.375,-2.21875 -1.59375,-2.21875 -1.59375,-6 0,-3.78125 1.71875,-6 1.71875,-2.21875 4.59375,-2.21875 2.34375,0 4,1.375 V 78.125 h 2.0625 z m -2.0625,-12 q -1.40625,-2.15625 -4.03125,-2.15625 -1.9375,0 -3.09375,1.71875 -1.125,1.71875 -1.125,4.625 0,2.90625 1.03125,4.625 1.0625,1.71875 2.84375,1.71875 2.78125,0 4.375,-2.71875 z"
         id="path38" />
      <path
         d="M 384.17187,86.09375 383.26562,86 q -2.875,0 -4.21875,3.21875 V 100 h -2.0625 V 84.375 h 1.90625 v 2.1875 q 1.78125,-2.59375 4.40625,-2.59375 0.6875,0 1.21875,0.09375 z"
         id="path40" />
      <path
         d="m 396.23437,98.375 q -1.78125,2.03125 -4.25,2.03125 -2.5625,0 -4.09375,-1.375 -1.5,-1.40625 -1.5,-3.71875 0,-2.34375 1.5,-3.71875 1.53125,-1.375 4.09375,-1.375 2.3125,0 4.09375,1.34375 v -2.09375 q 0,-1.65625 -1,-2.625 -0.96875,-1 -2.59375,-1 -2.4375,0 -3.9375,2.0625 L 386.95312,86.875 q 1.96875,-2.90625 5.53125,-2.90625 2.59375,0 4.125,1.5 1.53125,1.5 1.53125,4 V 100 h -1.90625 z m -4.28125,0.15625 q 2.5625,0 4.125,-2.5 v -2.3125 q -1.53125,-1.625 -4.125,-1.625 -1.625,0 -2.5625,0.875 -0.9375,0.875 -0.9375,2.34375 0,1.46875 0.9375,2.34375 0.9375,0.875 2.5625,0.875 z"
         id="path42" />
      <path
         d="m 402.64062,82.96875 -0.4375,-6.40625 h 2.53125 l -0.46875,6.40625 z"
         id="path44" />
      <path
         d="m 415.32812,97.90625 q 0.875,-0.625 0.875,-1.65625 0,-1.03125 -0.84375,-1.71875 -0.8125,-0.71875 -2,-1.15625 -1.1875,-0.4375 -2.40625,-0.96875 -1.1875,-0.53125 -2.03125,-1.53125 -0.8125,-1 -0.8125,-2.46875 0,-2.03125 1.375,-3.21875 1.375,-1.21875 3.6875,-1.21875 3.125,0 4.96875,2.5625 l -1.5625,1.0625 q -1.25,-1.75 -3.40625,-1.75 -1.375,0 -2.1875,0.6875 -0.8125,0.6875 -0.8125,1.875 0,1 0.8125,1.65625 0.84375,0.65625 2.03125,1.09375 1.21875,0.40625 2.40625,0.9375 1.1875,0.5 2,1.5625 0.84375,1.03125 0.84375,2.59375 0,1.90625 -1.4375,3.03125 -1.40625,1.125 -3.78125,1.125 -3.375,0 -5.34375,-2.96875 l 1.5625,-1.0625 q 1.375,2.15625 3.78125,2.15625 1.4375,0 2.28125,-0.625 z"
         id="path46" />
      <path
         d="m 441.48437,84.375 3.28125,13.6875 3.875,-13.6875 h 2.09375 l -4.5,15.625 h -2.84375 L 440.51562,88.3125 437.67187,100 h -2.84375 l -4.5,-15.625 h 2.09375 l 3.875,13.6875 3.28125,-13.6875 z"
         id="path48" />
      <path
         d="m 466.07812,100 h -2.0625 V 89.25 q 0,-3.40625 -3.21875,-3.40625 -2.875,0 -4.40625,2.5625 V 100 h -2.0625 V 78.125 h 2.0625 v 7.78125 q 1.84375,-1.9375 4.40625,-1.9375 2.59375,0 3.9375,1.375 1.34375,1.34375 1.34375,3.90625 z"
         id="path50" />
      <path
         d="m 473.45312,100 h -2.0625 V 84.375 h 2.0625 z m -2.0625,-19.71875 q -0.40625,-0.40625 -0.40625,-1 0,-0.59375 0.40625,-1 0.4375,-0.4375 1.03125,-0.4375 0.59375,0 1,0.4375 0.4375,0.40625 0.4375,1 0,0.59375 -0.4375,1 -0.40625,0.40625 -1,0.40625 -0.59375,0 -1.03125,-0.40625 z"
         id="path52" />
      <path
         d="m 485.29687,97.90625 q 0.875,-0.625 0.875,-1.65625 0,-1.03125 -0.84375,-1.71875 -0.8125,-0.71875 -2,-1.15625 -1.1875,-0.4375 -2.40625,-0.96875 -1.1875,-0.53125 -2.03125,-1.53125 -0.8125,-1 -0.8125,-2.46875 0,-2.03125 1.375,-3.21875 1.375,-1.21875 3.6875,-1.21875 3.125,0 4.96875,2.5625 l -1.5625,1.0625 q -1.25,-1.75 -3.40625,-1.75 -1.375,0 -2.1875,0.6875 -0.8125,0.6875 -0.8125,1.875 0,1 0.8125,1.65625 0.84375,0.65625 2.03125,1.09375 1.21875,0.40625 2.40625,0.9375 1.1875,0.5 2,1.5625 0.84375,1.03125 0.84375,2.59375 0,1.90625 -1.4375,3.03125 -1.40625,1.125 -3.78125,1.125 -3.375,0 -5.34375,-2.96875 l 1.5625,-1.0625 q 1.375,2.15625 3.78125,2.15625 1.4375,0 2.28125,-0.625 z"
         id="path54" />
      <path
         d="m 492.45312,84.40625 h 1.90625 v 1.6875 Q 496.20312,84 498.85937,84 q 2.75,0 4.34375,2.21875 1.625,2.21875 1.625,6 0,3.78125 -1.71875,6 -1.71875,2.21875 -4.59375,2.21875 -2.34375,0 -4,-1.375 v 7.34375 h -2.0625 z m 2.0625,12 q 1.40625,2.15625 4.03125,2.15625 1.9375,0 3.0625,-1.71875 1.15625,-1.71875 1.15625,-4.625 0,-2.90625 -1.0625,-4.625 -1.03125,-1.71875 -2.8125,-1.71875 -2.75,0 -4.375,2.71875 z"
         id="path56" />
      <path
         d="m 514.35937,100.40625 q -2.9375,0 -4.6875,-2.21875 -1.71875,-2.25 -1.71875,-6 0,-3.75 1.71875,-5.96875 1.75,-2.25 4.6875,-2.25 2.84375,0 4.5,2.0625 1.6875,2.0625 1.6875,5.5 v 1.1875 h -10.53125 q 0.125,2.6875 1.28125,4.25 1.15625,1.5625 3.0625,1.5625 2.53125,0 3.9375,-2.125 L 519.95312,97.5 q -2,2.90625 -5.59375,2.90625 z m 0,-14.5625 q -1.75,0 -2.90625,1.34375 -1.125,1.3125 -1.375,3.65625 h 8.375 q -0.15625,-2.3125 -1.28125,-3.65625 -1.09375,-1.34375 -2.8125,-1.34375 z"
         id="path58" />
      <path
         d="M 532.26562,86.09375 531.35937,86 q -2.875,0 -4.21875,3.21875 V 100 h -2.0625 V 84.375 h 1.90625 v 2.1875 q 1.78125,-2.59375 4.40625,-2.59375 0.6875,0 1.21875,0.09375 z"
         id="path60" />
      <path
         d="m 540.57812,100.40625 q -2.9375,0 -4.6875,-2.21875 -1.71875,-2.25 -1.71875,-6 0,-3.75 1.71875,-5.96875 1.75,-2.25 4.6875,-2.25 2.84375,0 4.5,2.0625 1.6875,2.0625 1.6875,5.5 v 1.1875 h -10.53125 q 0.125,2.6875 1.28125,4.25 1.15625,1.5625 3.0625,1.5625 2.53125,0 3.9375,-2.125 L 546.17187,97.5 q -2,2.90625 -5.59375,2.90625 z m 0,-14.5625 q -1.75,0 -2.90625,1.34375 -1.125,1.3125 -1.375,3.65625 h 8.375 q -0.15625,-2.3125 -1.28125,-3.65625 -1.09375,-1.34375 -2.8125,-1.34375 z"
         id="path62" />
      <path
         d="m 562.42187,100 h -1.90625 v -1.65625 q -1.875,2.0625 -4.5,2.0625 -2.75,0 -4.375,-2.21875 -1.59375,-2.21875 -1.59375,-6 0,-3.78125 1.71875,-6 1.71875,-2.21875 4.59375,-2.21875 2.34375,0 4,1.375 V 78.125 h 2.0625 z m -2.0625,-12 q -1.40625,-2.15625 -4.03125,-2.15625 -1.9375,0 -3.09375,1.71875 -1.125,1.71875 -1.125,4.625 0,2.90625 1.03125,4.625 1.0625,1.71875 2.84375,1.71875 2.78125,0 4.375,-2.71875 z"
         id="path64" />
      <path
         d="m 577.92187,84.40625 h 1.90625 v 1.6875 Q 581.67187,84 584.32812,84 q 2.75,0 4.34375,2.21875 1.625,2.21875 1.625,6 0,3.78125 -1.71875,6 -1.71875,2.21875 -4.59375,2.21875 -2.34375,0 -4,-1.375 v 7.34375 h -2.0625 z m 2.0625,12 q 1.40625,2.15625 4.03125,2.15625 1.9375,0 3.0625,-1.71875 1.15625,-1.71875 1.15625,-4.625 0,-2.90625 -1.0625,-4.625 -1.03125,-1.71875 -2.8125,-1.71875 -2.75,0 -4.375,2.71875 z"
         id="path66" />
      <path
         d="m 596.73437,100 h -2.0625 V 78.125 h 2.0625 z"
         id="path68" />
      <path
         d="m 607.51562,100.40625 q -2.9375,0 -4.6875,-2.21875 -1.71875,-2.25 -1.71875,-6 0,-3.75 1.71875,-5.96875 1.75,-2.25 4.6875,-2.25 2.84375,0 4.5,2.0625 1.6875,2.0625 1.6875,5.5 v 1.1875 h -10.53125 q 0.125,2.6875 1.28125,4.25 1.15625,1.5625 3.0625,1.5625 2.53125,0 3.9375,-2.125 L 613.10937,97.5 q -2,2.90625 -5.59375,2.90625 z m 0,-14.5625 q -1.75,0 -2.90625,1.34375 -1.125,1.3125 -1.375,3.65625 h 8.375 q -0.15625,-2.3125 -1.28125,-3.65625 -1.09375,-1.34375 -2.8125,-1.34375 z"
         id="path70" />
      <path
         d="m 627.14062,98.375 q -1.78125,2.03125 -4.25,2.03125 -2.5625,0 -4.09375,-1.375 -1.5,-1.40625 -1.5,-3.71875 0,-2.34375 1.5,-3.71875 1.53125,-1.375 4.09375,-1.375 2.3125,0 4.09375,1.34375 v -2.09375 q 0,-1.65625 -1,-2.625 -0.96875,-1 -2.59375,-1 -2.4375,0 -3.9375,2.0625 L 617.85937,86.875 q 1.96875,-2.90625 5.53125,-2.90625 2.59375,0 4.125,1.5 1.53125,1.5 1.53125,4 V 100 h -1.90625 z m -4.28125,0.15625 q 2.5625,0 4.125,-2.5 v -2.3125 q -1.53125,-1.625 -4.125,-1.625 -1.625,0 -2.5625,0.875 -0.9375,0.875 -0.9375,2.34375 0,1.46875 0.9375,2.34375 0.9375,0.875 2.5625,0.875 z"
         id="path72" />
      <path
         d="m 632.07812,104 1.65625,-7.28125 h 3.03125 L 633.64062,104 Z"
         id="path74" />
    </g>
    <g
       aria-label="Across the fields, wild and free,"
       id="text4">
      <path
         d="M 198.125,129.1875 204.375,150 h -2.0625 l -1.84375,-6.125 h -7.8125 l -1.8125,6.125 h -2.0625 l 6.25,-20.8125 z M 193.21875,142 h 6.6875 l -3.34375,-11.15625 z"
         id="path77" />
      <path
         d="m 217.65625,147.6875 q -1.90625,2.71875 -5.28125,2.71875 -2.8125,0 -4.46875,-2.21875 -1.65625,-2.21875 -1.65625,-6 0,-3.78125 1.65625,-6 1.65625,-2.21875 4.46875,-2.21875 3.25,0 5.03125,2.4375 L 215.75,137.5 q -1.1875,-1.65625 -3.375,-1.65625 -1.84375,0 -2.96875,1.71875 -1.09375,1.71875 -1.09375,4.625 0,2.90625 1.09375,4.625 1.125,1.71875 2.96875,1.71875 2.34375,0 3.625,-1.9375 z"
         id="path79" />
      <path
         d="M 227.96875,136.09375 227.0625,136 q -2.875,0 -4.21875,3.21875 V 150 h -2.0625 v -15.625 h 1.90625 v 2.1875 q 1.78125,-2.59375 4.40625,-2.59375 0.6875,0 1.21875,0.0937 z"
         id="path81" />
      <path
         d="m 231.5625,148.21875 q -1.6875,-2.1875 -1.6875,-6.03125 0,-3.84375 1.6875,-6.03125 1.71875,-2.1875 4.71875,-2.1875 3.03125,0 4.75,2.1875 1.71875,2.1875 1.71875,6.03125 0,3.84375 -1.71875,6.03125 -1.71875,2.1875 -4.75,2.1875 -3,0 -4.71875,-2.1875 z m 1.53125,-10.6875 q -1.15625,1.6875 -1.15625,4.65625 0,2.96875 1.15625,4.65625 1.15625,1.6875 3.1875,1.6875 2.0625,0 3.21875,-1.6875 1.1875,-1.6875 1.1875,-4.65625 0,-2.96875 -1.1875,-4.65625 -1.15625,-1.6875 -3.21875,-1.6875 -2.03125,0 -3.1875,1.6875 z"
         id="path83" />
      <path
         d="m 253.34375,147.90625 q 0.875,-0.625 0.875,-1.65625 0,-1.03125 -0.84375,-1.71875 -0.8125,-0.71875 -2,-1.15625 -1.1875,-0.4375 -2.40625,-0.96875 -1.1875,-0.53125 -2.03125,-1.53125 -0.8125,-1 -0.8125,-2.46875 0,-2.03125 1.375,-3.21875 1.375,-1.21875 3.6875,-1.21875 3.125,0 4.96875,2.5625 l -1.5625,1.0625 q -1.25,-1.75 -3.40625,-1.75 -1.375,0 -2.1875,0.6875 -0.8125,0.6875 -0.8125,1.875 0,1 0.8125,1.65625 0.84375,0.65625 2.03125,1.09375 1.21875,0.40625 2.40625,0.9375 1.1875,0.5 2,1.5625 0.84375,1.03125 0.84375,2.59375 0,1.90625 -1.4375,3.03125 -1.40625,1.125 -3.78125,1.125 -3.375,0 -5.34375,-2.96875 l 1.5625,-1.0625 q 1.375,2.15625 3.78125,2.15625 1.4375,0 2.28125,-0.625 z"
         id="path85" />
      <path
         d="m 266.71875,147.90625 q 0.875,-0.625 0.875,-1.65625 0,-1.03125 -0.84375,-1.71875 -0.8125,-0.71875 -2,-1.15625 -1.1875,-0.4375 -2.40625,-0.96875 -1.1875,-0.53125 -2.03125,-1.53125 -0.8125,-1 -0.8125,-2.46875 0,-2.03125 1.375,-3.21875 1.375,-1.21875 3.6875,-1.21875 3.125,0 4.96875,2.5625 l -1.5625,1.0625 q -1.25,-1.75 -3.40625,-1.75 -1.375,0 -2.1875,0.6875 -0.8125,0.6875 -0.8125,1.875 0,1 0.8125,1.65625 0.84375,0.65625 2.03125,1.09375 1.21875,0.40625 2.40625,0.9375 1.1875,0.5 2,1.5625 0.84375,1.03125 0.84375,2.59375 0,1.90625 -1.4375,3.03125 -1.40625,1.125 -3.78125,1.125 -3.375,0 -5.34375,-2.96875 l 1.5625,-1.0625 q 1.375,2.15625 3.78125,2.15625 1.4375,0 2.28125,-0.625 z"
         id="path87" />
      <path
         d="m 282.03125,134.375 h 2.125 v -3.125 h 2.0625 v 3.125 h 4 v 1.875 h -4 v 10.3125 q 0,0.90625 0.4375,1.4375 0.46875,0.53125 1.21875,0.53125 1.28125,0 2.09375,-1 l 1.3125,1.125 q -1.21875,1.75 -3.40625,1.75 -1.71875,0 -2.71875,-1.03125 -1,-1.03125 -1,-2.8125 V 136.25 h -2.125 z"
         id="path89" />
      <path
         d="m 305.53125,150 h -2.0625 v -10.75 q 0,-3.40625 -3.21875,-3.40625 -2.875,0 -4.40625,2.5625 V 150 h -2.0625 v -21.875 h 2.0625 v 7.78125 q 1.84375,-1.9375 4.40625,-1.9375 2.59375,0 3.9375,1.375 1.34375,1.34375 1.34375,3.90625 z"
         id="path91" />
      <path
         d="m 316,150.40625 q -2.9375,0 -4.6875,-2.21875 -1.71875,-2.25 -1.71875,-6 0,-3.75 1.71875,-5.96875 1.75,-2.25 4.6875,-2.25 2.84375,0 4.5,2.0625 1.6875,2.0625 1.6875,5.5 v 1.1875 h -10.53125 q 0.125,2.6875 1.28125,4.25 1.15625,1.5625 3.0625,1.5625 2.53125,0 3.9375,-2.125 l 1.65625,1.09375 q -2,2.90625 -5.59375,2.90625 z m 0,-14.5625 q -1.75,0 -2.90625,1.34375 -1.125,1.3125 -1.375,3.65625 h 8.375 q -0.15625,-2.3125 -1.28125,-3.65625 -1.09375,-1.34375 -2.8125,-1.34375 z"
         id="path93" />
      <path
         d="M 334.875,134.375 H 337 v -1.5 q 0,-2.5 1.1875,-3.8125 1.1875,-1.34375 3.375,-1.34375 1.78125,0 3.0625,0.6875 l -0.6875,1.78125 q -0.96875,-0.53125 -2.375,-0.53125 -2.5,0 -2.5,3.21875 v 1.5 h 4 v 1.875 h -4 V 150 H 337 v -13.75 h -2.125 z"
         id="path95" />
      <path
         d="m 347.75,150 h -2.0625 v -15.625 h 2.0625 z m -2.0625,-19.71875 q -0.40625,-0.40625 -0.40625,-1 0,-0.59375 0.40625,-1 0.4375,-0.4375 1.03125,-0.4375 0.59375,0 1,0.4375 0.4375,0.40625 0.4375,1 0,0.59375 -0.4375,1 -0.40625,0.40625 -1,0.40625 -0.59375,0 -1.03125,-0.40625 z"
         id="path97" />
      <path
         d="m 358.53125,150.40625 q -2.9375,0 -4.6875,-2.21875 -1.71875,-2.25 -1.71875,-6 0,-3.75 1.71875,-5.96875 1.75,-2.25 4.6875,-2.25 2.84375,0 4.5,2.0625 1.6875,2.0625 1.6875,5.5 v 1.1875 H 354.1875 q 0.125,2.6875 1.28125,4.25 1.15625,1.5625 3.0625,1.5625 2.53125,0 3.9375,-2.125 L 364.125,147.5 q -2,2.90625 -5.59375,2.90625 z m 0,-14.5625 q -1.75,0 -2.90625,1.34375 -1.125,1.3125 -1.375,3.65625 h 8.375 q -0.15625,-2.3125 -1.28125,-3.65625 -1.09375,-1.34375 -2.8125,-1.34375 z"
         id="path99" />
      <path
         d="M 371.3125,150 H 369.25 v -21.875 h 2.0625 z"
         id="path101" />
      <path
         d="m 388.0625,150 h -1.90625 v -1.65625 q -1.875,2.0625 -4.5,2.0625 -2.75,0 -4.375,-2.21875 -1.59375,-2.21875 -1.59375,-6 0,-3.78125 1.71875,-6 1.71875,-2.21875 4.59375,-2.21875 2.34375,0 4,1.375 V 128.125 h 2.0625 z M 386,138 q -1.40625,-2.15625 -4.03125,-2.15625 -1.9375,0 -3.09375,1.71875 -1.125,1.71875 -1.125,4.625 0,2.90625 1.03125,4.625 1.0625,1.71875 2.84375,1.71875 2.78125,0 4.375,-2.71875 z"
         id="path103" />
      <path
         d="m 399.90625,147.90625 q 0.875,-0.625 0.875,-1.65625 0,-1.03125 -0.84375,-1.71875 -0.8125,-0.71875 -2,-1.15625 -1.1875,-0.4375 -2.40625,-0.96875 -1.1875,-0.53125 -2.03125,-1.53125 -0.8125,-1 -0.8125,-2.46875 0,-2.03125 1.375,-3.21875 1.375,-1.21875 3.6875,-1.21875 3.125,0 4.96875,2.5625 l -1.5625,1.0625 q -1.25,-1.75 -3.40625,-1.75 -1.375,0 -2.1875,0.6875 -0.8125,0.6875 -0.8125,1.875 0,1 0.8125,1.65625 0.84375,0.65625 2.03125,1.09375 1.21875,0.40625 2.40625,0.9375 1.1875,0.5 2,1.5625 0.84375,1.03125 0.84375,2.59375 0,1.90625 -1.4375,3.03125 -1.40625,1.125 -3.78125,1.125 -3.375,0 -5.34375,-2.96875 l 1.5625,-1.0625 q 1.375,2.15625 3.78125,2.15625 1.4375,0 2.28125,-0.625 z"
         id="path105" />
      <path
         d="m 404.78125,154 1.65625,-7.28125 h 3.03125 L 406.34375,154 Z"
         id="path107" />
      <path
         d="m 437.28125,134.375 3.28125,13.6875 3.875,-13.6875 h 2.09375 l -4.5,15.625 H 439.1875 L 436.3125,138.3125 433.46875,150 H 430.625 l -4.5,-15.625 h 2.09375 l 3.875,13.6875 3.28125,-13.6875 z"
         id="path109" />
      <path
         d="m 452.1875,150 h -2.0625 v -15.625 h 2.0625 z m -2.0625,-19.71875 q -0.40625,-0.40625 -0.40625,-1 0,-0.59375 0.40625,-1 0.4375,-0.4375 1.03125,-0.4375 0.59375,0 1,0.4375 0.4375,0.40625 0.4375,1 0,0.59375 -0.4375,1 -0.40625,0.40625 -1,0.40625 -0.59375,0 -1.03125,-0.40625 z"
         id="path111" />
      <path
         d="m 459.875,150 h -2.0625 v -21.875 h 2.0625 z"
         id="path113" />
      <path
         d="m 476.625,150 h -1.90625 v -1.65625 q -1.875,2.0625 -4.5,2.0625 -2.75,0 -4.375,-2.21875 -1.59375,-2.21875 -1.59375,-6 0,-3.78125 1.71875,-6 1.71875,-2.21875 4.59375,-2.21875 2.34375,0 4,1.375 V 128.125 h 2.0625 z m -2.0625,-12 q -1.40625,-2.15625 -4.03125,-2.15625 -1.9375,0 -3.09375,1.71875 -1.125,1.71875 -1.125,4.625 0,2.90625 1.03125,4.625 1.0625,1.71875 2.84375,1.71875 2.78125,0 4.375,-2.71875 z"
         id="path115" />
      <path
         d="m 501.03125,148.375 q -1.78125,2.03125 -4.25,2.03125 -2.5625,0 -4.09375,-1.375 -1.5,-1.40625 -1.5,-3.71875 0,-2.34375 1.5,-3.71875 1.53125,-1.375 4.09375,-1.375 2.3125,0 4.09375,1.34375 v -2.09375 q 0,-1.65625 -1,-2.625 -0.96875,-1 -2.59375,-1 -2.4375,0 -3.9375,2.0625 L 491.75,136.875 q 1.96875,-2.90625 5.53125,-2.90625 2.59375,0 4.125,1.5 1.53125,1.5 1.53125,4 V 150 h -1.90625 z m -4.28125,0.15625 q 2.5625,0 4.125,-2.5 v -2.3125 q -1.53125,-1.625 -4.125,-1.625 -1.625,0 -2.5625,0.875 -0.9375,0.875 -0.9375,2.34375 0,1.46875 0.9375,2.34375 0.9375,0.875 2.5625,0.875 z"
         id="path117" />
      <path
         d="m 520,150 h -2.0625 v -10.75 q 0,-3.40625 -3.21875,-3.40625 -2.875,0 -4.40625,2.5625 V 150 H 508.25 v -15.625 h 1.90625 v 1.71875 q 1.875,-2.125 4.5625,-2.125 2.59375,0 3.9375,1.375 Q 520,136.6875 520,139.25 Z"
         id="path119" />
      <path
         d="m 536.4375,150 h -1.90625 v -1.65625 q -1.875,2.0625 -4.5,2.0625 -2.75,0 -4.375,-2.21875 -1.59375,-2.21875 -1.59375,-6 0,-3.78125 1.71875,-6 1.71875,-2.21875 4.59375,-2.21875 2.34375,0 4,1.375 V 128.125 h 2.0625 z m -2.0625,-12 q -1.40625,-2.15625 -4.03125,-2.15625 -1.9375,0 -3.09375,1.71875 -1.125,1.71875 -1.125,4.625 0,2.90625 1.03125,4.625 1.0625,1.71875 2.84375,1.71875 2.78125,0 4.375,-2.71875 z"
         id="path121" />
      <path
         d="m 550.21875,134.375 h 2.125 v -1.5 q 0,-2.5 1.1875,-3.8125 1.1875,-1.34375 3.375,-1.34375 1.78125,0 3.0625,0.6875 l -0.6875,1.78125 q -0.96875,-0.53125 -2.375,-0.53125 -2.5,0 -2.5,3.21875 v 1.5 h 4 v 1.875 h -4 V 150 h -2.0625 v -13.75 h -2.125 z"
         id="path123" />
      <path
         d="M 568.21875,136.09375 567.3125,136 q -2.875,0 -4.21875,3.21875 V 150 h -2.0625 v -15.625 h 1.90625 v 2.1875 q 1.78125,-2.59375 4.40625,-2.59375 0.6875,0 1.21875,0.0937 z"
         id="path125" />
      <path
         d="m 576.53125,150.40625 q -2.9375,0 -4.6875,-2.21875 -1.71875,-2.25 -1.71875,-6 0,-3.75 1.71875,-5.96875 1.75,-2.25 4.6875,-2.25 2.84375,0 4.5,2.0625 1.6875,2.0625 1.6875,5.5 v 1.1875 H 572.1875 q 0.125,2.6875 1.28125,4.25 1.15625,1.5625 3.0625,1.5625 2.53125,0 3.9375,-2.125 L 582.125,147.5 q -2,2.90625 -5.59375,2.90625 z m 0,-14.5625 q -1.75,0 -2.90625,1.34375 -1.125,1.3125 -1.375,3.65625 h 8.375 q -0.15625,-2.3125 -1.28125,-3.65625 -1.09375,-1.34375 -2.8125,-1.34375 z"
         id="path127" />
      <path
         d="m 592.40625,150.40625 q -2.9375,0 -4.6875,-2.21875 -1.71875,-2.25 -1.71875,-6 0,-3.75 1.71875,-5.96875 1.75,-2.25 4.6875,-2.25 2.84375,0 4.5,2.0625 1.6875,2.0625 1.6875,5.5 v 1.1875 H 588.0625 q 0.125,2.6875 1.28125,4.25 1.15625,1.5625 3.0625,1.5625 2.53125,0 3.9375,-2.125 L 598,147.5 q -2,2.90625 -5.59375,2.90625 z m 0,-14.5625 q -1.75,0 -2.90625,1.34375 -1.125,1.3125 -1.375,3.65625 h 8.375 q -0.15625,-2.3125 -1.28125,-3.65625 -1.09375,-1.34375 -2.8125,-1.34375 z"
         id="path129" />
      <path
         d="M 600.84375,154 602.5,146.71875 h 3.03125 L 602.40625,154 Z"
         id="path131" />
    </g>
    <g
       aria-label="Nature's power, eternally."
       id="text6">
      <path
         d="M 242.51562,197.90625 V 179.1875 h 2.0625 V 200 h -3.125 l -8.53125,-18.71875 V 200 h -2.0625 v -20.8125 h 3.125 z"
         id="path134" />
      <path
         d="m 259.42187,198.375 q -1.78125,2.03125 -4.25,2.03125 -2.5625,0 -4.09375,-1.375 -1.5,-1.40625 -1.5,-3.71875 0,-2.34375 1.5,-3.71875 1.53125,-1.375 4.09375,-1.375 2.3125,0 4.09375,1.34375 v -2.09375 q 0,-1.65625 -1,-2.625 -0.96875,-1 -2.59375,-1 -2.4375,0 -3.9375,2.0625 l -1.59375,-1.03125 q 1.96875,-2.90625 5.53125,-2.90625 2.59375,0 4.125,1.5 1.53125,1.5 1.53125,4 V 200 h -1.90625 z m -4.28125,0.15625 q 2.5625,0 4.125,-2.5 v -2.3125 q -1.53125,-1.625 -4.125,-1.625 -1.625,0 -2.5625,0.875 -0.9375,0.875 -0.9375,2.34375 0,1.46875 0.9375,2.34375 0.9375,0.875 2.5625,0.875 z"
         id="path136" />
      <path
         d="m 264.92187,184.375 h 2.125 v -3.125 h 2.0625 v 3.125 h 4 v 1.875 h -4 v 10.3125 q 0,0.90625 0.4375,1.4375 0.46875,0.53125 1.21875,0.53125 1.28125,0 2.09375,-1 l 1.3125,1.125 q -1.21875,1.75 -3.40625,1.75 -1.71875,0 -2.71875,-1.03125 -1,-1.03125 -1,-2.8125 V 186.25 h -2.125 z"
         id="path138" />
      <path
         d="m 276.35937,184.375 h 2.0625 v 10.75 q 0,3.40625 3.21875,3.40625 2.875,0 4.40625,-3 V 184.375 h 2.0625 V 200 h -1.90625 v -1.9375 q -1.875,2.34375 -4.5625,2.34375 -5.28125,0 -5.28125,-5.28125 z"
         id="path140" />
      <path
         d="M 300.92187,186.09375 300.01562,186 q -2.875,0 -4.21875,3.21875 V 200 h -2.0625 v -15.625 h 1.90625 v 2.1875 q 1.78125,-2.59375 4.40625,-2.59375 0.6875,0 1.21875,0.0937 z"
         id="path142" />
      <path
         d="m 309.23437,200.40625 q -2.9375,0 -4.6875,-2.21875 -1.71875,-2.25 -1.71875,-6 0,-3.75 1.71875,-5.96875 1.75,-2.25 4.6875,-2.25 2.84375,0 4.5,2.0625 1.6875,2.0625 1.6875,5.5 v 1.1875 h -10.53125 q 0.125,2.6875 1.28125,4.25 1.15625,1.5625 3.0625,1.5625 2.53125,0 3.9375,-2.125 l 1.65625,1.09375 q -2,2.90625 -5.59375,2.90625 z m 0,-14.5625 q -1.75,0 -2.90625,1.34375 -1.125,1.3125 -1.375,3.65625 h 8.375 q -0.15625,-2.3125 -1.28125,-3.65625 -1.09375,-1.34375 -2.8125,-1.34375 z"
         id="path144" />
      <path
         d="m 319.14062,182.96875 -0.4375,-6.40625 h 2.53125 l -0.46875,6.40625 z"
         id="path146" />
      <path
         d="m 331.82812,197.90625 q 0.875,-0.625 0.875,-1.65625 0,-1.03125 -0.84375,-1.71875 -0.8125,-0.71875 -2,-1.15625 -1.1875,-0.4375 -2.40625,-0.96875 -1.1875,-0.53125 -2.03125,-1.53125 -0.8125,-1 -0.8125,-2.46875 0,-2.03125 1.375,-3.21875 1.375,-1.21875 3.6875,-1.21875 3.125,0 4.96875,2.5625 l -1.5625,1.0625 q -1.25,-1.75 -3.40625,-1.75 -1.375,0 -2.1875,0.6875 -0.8125,0.6875 -0.8125,1.875 0,1 0.8125,1.65625 0.84375,0.65625 2.03125,1.09375 1.21875,0.40625 2.40625,0.9375 1.1875,0.5 2,1.5625 0.84375,1.03125 0.84375,2.59375 0,1.90625 -1.4375,3.03125 -1.40625,1.125 -3.78125,1.125 -3.375,0 -5.34375,-2.96875 l 1.5625,-1.0625 q 1.375,2.15625 3.78125,2.15625 1.4375,0 2.28125,-0.625 z"
         id="path148" />
      <path
         d="m 348.85937,184.40625 h 1.90625 v 1.6875 q 1.84375,-2.09375 4.5,-2.09375 2.75,0 4.34375,2.21875 1.625,2.21875 1.625,6 0,3.78125 -1.71875,6 -1.71875,2.21875 -4.59375,2.21875 -2.34375,0 -4,-1.375 v 7.34375 h -2.0625 z m 2.0625,12 q 1.40625,2.15625 4.03125,2.15625 1.9375,0 3.0625,-1.71875 1.15625,-1.71875 1.15625,-4.625 0,-2.90625 -1.0625,-4.625 -1.03125,-1.71875 -2.8125,-1.71875 -2.75,0 -4.375,2.71875 z"
         id="path150" />
      <path
         d="m 366.04687,198.21875 q -1.6875,-2.1875 -1.6875,-6.03125 0,-3.84375 1.6875,-6.03125 1.71875,-2.1875 4.71875,-2.1875 3.03125,0 4.75,2.1875 1.71875,2.1875 1.71875,6.03125 0,3.84375 -1.71875,6.03125 -1.71875,2.1875 -4.75,2.1875 -3,0 -4.71875,-2.1875 z m 1.53125,-10.6875 q -1.15625,1.6875 -1.15625,4.65625 0,2.96875 1.15625,4.65625 1.15625,1.6875 3.1875,1.6875 2.0625,0 3.21875,-1.6875 1.1875,-1.6875 1.1875,-4.65625 0,-2.96875 -1.1875,-4.65625 -1.15625,-1.6875 -3.21875,-1.6875 -2.03125,0 -3.1875,1.6875 z"
         id="path152" />
      <path
         d="m 390.73437,184.375 3.28125,13.6875 3.875,-13.6875 h 2.09375 l -4.5,15.625 h -2.84375 l -2.875,-11.6875 L 386.92187,200 h -2.84375 l -4.5,-15.625 h 2.09375 l 3.875,13.6875 3.28125,-13.6875 z"
         id="path154" />
      <path
         d="m 408.73437,200.40625 q -2.9375,0 -4.6875,-2.21875 -1.71875,-2.25 -1.71875,-6 0,-3.75 1.71875,-5.96875 1.75,-2.25 4.6875,-2.25 2.84375,0 4.5,2.0625 1.6875,2.0625 1.6875,5.5 v 1.1875 h -10.53125 q 0.125,2.6875 1.28125,4.25 1.15625,1.5625 3.0625,1.5625 2.53125,0 3.9375,-2.125 l 1.65625,1.09375 q -2,2.90625 -5.59375,2.90625 z m 0,-14.5625 q -1.75,0 -2.90625,1.34375 -1.125,1.3125 -1.375,3.65625 h 8.375 q -0.15625,-2.3125 -1.28125,-3.65625 -1.09375,-1.34375 -2.8125,-1.34375 z"
         id="path156" />
      <path
         d="M 426.64062,186.09375 425.73437,186 q -2.875,0 -4.21875,3.21875 V 200 h -2.0625 v -15.625 h 1.90625 v 2.1875 q 1.78125,-2.59375 4.40625,-2.59375 0.6875,0 1.21875,0.0937 z"
         id="path158" />
      <path
         d="m 427.51562,204 1.65625,-7.28125 h 3.03125 L 429.07812,204 Z"
         id="path160" />
      <path
         d="m 456.04687,200.40625 q -2.9375,0 -4.6875,-2.21875 -1.71875,-2.25 -1.71875,-6 0,-3.75 1.71875,-5.96875 1.75,-2.25 4.6875,-2.25 2.84375,0 4.5,2.0625 1.6875,2.0625 1.6875,5.5 v 1.1875 h -10.53125 q 0.125,2.6875 1.28125,4.25 1.15625,1.5625 3.0625,1.5625 2.53125,0 3.9375,-2.125 l 1.65625,1.09375 q -2,2.90625 -5.59375,2.90625 z m 0,-14.5625 q -1.75,0 -2.90625,1.34375 -1.125,1.3125 -1.375,3.65625 h 8.375 q -0.15625,-2.3125 -1.28125,-3.65625 -1.09375,-1.34375 -2.8125,-1.34375 z"
         id="path162" />
      <path
         d="m 465.04687,184.375 h 2.125 v -3.125 h 2.0625 v 3.125 h 4 v 1.875 h -4 v 10.3125 q 0,0.90625 0.4375,1.4375 0.46875,0.53125 1.21875,0.53125 1.28125,0 2.09375,-1 l 1.3125,1.125 q -1.21875,1.75 -3.40625,1.75 -1.71875,0 -2.71875,-1.03125 -1,-1.03125 -1,-2.8125 V 186.25 h -2.125 z"
         id="path164" />
      <path
         d="m 481.95312,200.40625 q -2.9375,0 -4.6875,-2.21875 -1.71875,-2.25 -1.71875,-6 0,-3.75 1.71875,-5.96875 1.75,-2.25 4.6875,-2.25 2.84375,0 4.5,2.0625 1.6875,2.0625 1.6875,5.5 v 1.1875 h -10.53125 q 0.125,2.6875 1.28125,4.25 1.15625,1.5625 3.0625,1.5625 2.53125,0 3.9375,-2.125 l 1.65625,1.09375 q -2,2.90625 -5.59375,2.90625 z m 0,-14.5625 q -1.75,0 -2.90625,1.34375 -1.125,1.3125 -1.375,3.65625 h 8.375 q -0.15625,-2.3125 -1.28125,-3.65625 -1.09375,-1.34375 -2.8125,-1.34375 z"
         id="path166" />
      <path
         d="M 499.85937,186.09375 498.95312,186 q -2.875,0 -4.21875,3.21875 V 200 h -2.0625 v -15.625 h 1.90625 v 2.1875 q 1.78125,-2.59375 4.40625,-2.59375 0.6875,0 1.21875,0.0937 z"
         id="path168" />
      <path
         d="m 514.76562,200 h -2.0625 v -10.75 q 0,-3.40625 -3.21875,-3.40625 -2.875,0 -4.40625,2.5625 V 200 h -2.0625 v -15.625 h 1.90625 v 1.71875 q 1.875,-2.125 4.5625,-2.125 2.59375,0 3.9375,1.375 1.34375,1.34375 1.34375,3.90625 z"
         id="path170" />
      <path
         d="m 528.98437,198.375 q -1.78125,2.03125 -4.25,2.03125 -2.5625,0 -4.09375,-1.375 -1.5,-1.40625 -1.5,-3.71875 0,-2.34375 1.5,-3.71875 1.53125,-1.375 4.09375,-1.375 2.3125,0 4.09375,1.34375 v -2.09375 q 0,-1.65625 -1,-2.625 -0.96875,-1 -2.59375,-1 -2.4375,0 -3.9375,2.0625 l -1.59375,-1.03125 q 1.96875,-2.90625 5.53125,-2.90625 2.59375,0 4.125,1.5 1.53125,1.5 1.53125,4 V 200 h -1.90625 z m -4.28125,0.15625 q 2.5625,0 4.125,-2.5 v -2.3125 q -1.53125,-1.625 -4.125,-1.625 -1.625,0 -2.5625,0.875 -0.9375,0.875 -0.9375,2.34375 0,1.46875 0.9375,2.34375 0.9375,0.875 2.5625,0.875 z"
         id="path172" />
      <path
         d="m 538.26562,200 h -2.0625 v -21.875 h 2.0625 z"
         id="path174" />
      <path
         d="m 545.95312,200 h -2.0625 v -21.875 h 2.0625 z"
         id="path176" />
      <path
         d="m 549.54687,184.375 h 2.09375 l 4.53125,13.53125 4.5,-13.53125 h 2.09375 l -5.125,14.84375 q -1.875,5.375 -6.8125,7.59375 l -0.84375,-1.625 q 1.78125,-0.84375 2.9375,-1.9375 1.1875,-1.09375 2.125,-2.75 z"
         id="path178" />
      <path
         d="m 565.89062,200 v -3.28125 h 2.65625 V 200 Z"
         id="path180" />
    </g>
  </g>
</svg>
