<?xml version="1.0" encoding="UTF-8" standalone="no"?>
<svg
   width="800"
   height="350"
   version="1.1"
   id="svg12"
   sodipodi:docname="SamarthHindi.svg"
   xmlns:inkscape="http://www.inkscape.org/namespaces/inkscape"
   xmlns:sodipodi="http://sodipodi.sourceforge.net/DTD/sodipodi-0.dtd"
   xmlns="http://www.w3.org/2000/svg"
   xmlns:svg="http://www.w3.org/2000/svg">
  <defs
     id="defs16" />
  <sodipodi:namedview
     id="namedview14"
     pagecolor="#ffffff"
     bordercolor="#000000"
     borderopacity="0.25"
     inkscape:showpageshadow="2"
     inkscape:pageopacity="0.0"
     inkscape:pagecheckerboard="0"
     inkscape:deskcolor="#d1d1d1" />
  <g
     font-family="Lohit Devanagari"
     font-size="32"
     text-anchor="middle"
     fill="#000"
     id="g10">
    <g
       aria-label="नावांचा साठा संज्ञा आहे,"
       id="text2">
      <path
         d="m 260.84375,87.53125 q 0,-0.4375 0.4375,-0.75 0.4375,-0.3125 1.03125,-0.3125 h 11 V 81.0625 h -13.5 v -1.875 h 19.125 v 1.875 h -3.53125 V 100 H 273.3125 V 88.5625 h -6.03125 q -0.5,0 -0.875,0.25 -0.375,0.25 -0.375,0.5625 v 2.09375 q 0,0.5 -0.3125,0.875 -0.3125,0.375 -0.71875,0.375 -0.71875,0 -2.4375,-2.15625 -1.71875,-2.1875 -1.71875,-3.03125 z"
         id="path18" />
      <path
         d="m 278.09375,81.0625 v -1.875 H 287.25 v 1.875 h -3.5625 V 100 H 281.625 V 81.0625 Z"
         id="path20" />
      <path
         d="m 286.40625,81.0625 v -1.875 h 17.8125 v 1.875 h -3.5625 V 100 h -2.0625 v -6.65625 q -0.84375,1 -2,1.5625 -1.125,0.53125 -2.375,0.53125 -2.59375,0 -4.4375,-1.65625 -1.8125,-1.65625 -1.8125,-3.96875 0,-2.34375 1.8125,-3.96875 1.84375,-1.65625 4.4375,-1.65625 0.75,0 1.4375,0.21875 0.6875,0.1875 1.28125,0.625 l -1.0625,1.65625 q -0.375,-0.28125 -0.78125,-0.4375 -0.40625,-0.1875 -0.875,-0.1875 -1.71875,0 -2.9375,1.09375 -1.21875,1.09375 -1.21875,2.65625 0,1.4375 1.21875,2.5 1.21875,1.03125 2.9375,1.03125 1.21875,0 2.375,-0.8125 1.15625,-0.84375 2,-2.3125 V 81.0625 Z"
         id="path22" />
      <path
         d="m 303.375,81.0625 v -1.875 h 9.15625 v 1.875 h -3.5625 V 100 h -2.0625 V 81.0625 Z"
         id="path24" />
      <path
         d="m 306.5625,74 v -2.90625 h 3.125 V 74 Z"
         id="path26" />
      <path
         d="m 311.6875,81.0625 v -1.875 h 20.75 v 1.875 h -3.53125 V 100 h -2.09375 v -7.5 q -1.25,1.75 -2.71875,2.75 -1.46875,1 -2.875,1 -2.09375,0 -3.5625,-1.4375 -1.4375,-1.46875 -1.4375,-3.5625 0,-1.5 0.59375,-2.71875 0.59375,-1.21875 1.6875,-1.84375 h -6.03125 V 84.59375 H 324.75 v 2.09375 h -2.90625 Q 320.25,87.28125 319.25,88.53125 318.28125,89.75 318.28125,91.25 q 0,1.21875 0.84375,2.09375 0.875,0.84375 2.09375,0.84375 1.3125,0 2.8125,-1.28125 1.5,-1.3125 2.78125,-3.53125 v -8.3125 z"
         id="path28" />
      <path
         d="m 331.59375,81.0625 v -1.875 H 340.75 v 1.875 h -3.5625 V 100 H 335.125 V 81.0625 Z"
         id="path30" />
      <path
         d="m 349.78125,81.0625 v -1.875 h 23 v 1.875 H 369.25 V 100 h -2.09375 V 90 h -8.875 q -0.84375,0.625 -1.9375,0.625 -0.25,0 -0.5,-0.0625 Q 355.625,90.5 355.5,90.4375 l 6.25,8.71875 -1.65625,1.0625 -9.375,-13.3125 1.6875,-1.25 q 0.65625,1.40625 1.53125,2.25 0.90625,0.84375 1.78125,0.84375 0.875,0 1.46875,-0.59375 0.625,-0.59375 0.625,-1.46875 v -5.625 z m 9.90625,6.875 h 7.46875 v -6.875 H 359.875 v 5.625 q 0,0.65625 -0.1875,1.25 z"
         id="path32" />
      <path
         d="m 371.9375,81.0625 v -1.875 h 9.15625 v 1.875 h -3.5625 V 100 h -2.0625 V 81.0625 Z"
         id="path34" />
      <path
         d="m 390.78125,99.78125 q -3.25,0 -6,-2.78125 -2.75,-2.8125 -2.75,-6.15625 0,-2.40625 1.5625,-4.09375 1.59375,-1.71875 3.84375,-1.71875 h 5.21875 V 81.0625 H 380.25 v -1.875 h 18.96875 v 1.875 h -4.5 v 6.03125 h -7.28125 q -1.375,0 -2.34375,1.125 -0.96875,1.09375 -0.96875,2.625 0,2.53125 2.09375,4.71875 2.09375,2.15625 4.5625,2.15625 1.78125,0 3.0625,-1.3125 1.28125,-1.34375 1.28125,-3.28125 0,-1.15625 -0.65625,-2.34375 -0.625,-1.21875 -1.8125,-2.21875 l 1.65625,-1.25 q 1.375,1.15625 2.125,2.6875 0.78125,1.5 0.78125,3.125 0,2.75 -1.90625,4.71875 -1.875,1.9375 -4.53125,1.9375 z"
         id="path36" />
      <path
         d="m 398.375,81.0625 v -1.875 h 9.15625 v 1.875 h -3.5625 V 100 h -2.0625 V 81.0625 Z"
         id="path38" />
      <path
         d="m 416.5625,81.0625 v -1.875 h 23 v 1.875 h -3.53125 V 100 H 433.9375 V 90 h -8.875 q -0.84375,0.625 -1.9375,0.625 -0.25,0 -0.5,-0.0625 -0.21875,-0.0625 -0.34375,-0.125 l 6.25,8.71875 -1.65625,1.0625 -9.375,-13.3125 1.6875,-1.25 q 0.65625,1.40625 1.53125,2.25 Q 421.625,88.75 422.5,88.75 q 0.875,0 1.46875,-0.59375 0.625,-0.59375 0.625,-1.46875 v -5.625 z m 9.90625,6.875 h 7.46875 v -6.875 h -7.28125 v 5.625 q 0,0.65625 -0.1875,1.25 z"
         id="path40" />
      <path
         d="M 433.59375,74.03125 V 71.125 h 3.125 v 2.90625 z"
         id="path42" />
      <path
         d="m 438.71875,81.0625 v -1.875 H 461.75 v 1.875 h -3.53125 V 100 h -2.0625 V 86.0625 H 444.0625 q -0.40625,0 -0.71875,0.1875 -0.3125,0.1875 -0.3125,0.4375 0,0.875 1.15625,2.21875 1.1875,1.3125 1.96875,1.3125 0.46875,0 0.96875,-0.09375 0.53125,-0.125 1.125,-0.3125 0.5625,-0.21875 1.03125,-0.3125 0.46875,-0.125 0.84375,-0.125 0.9375,0 1.59375,1 0.6875,0.96875 0.6875,2.34375 0,2.09375 -1.78125,3.5625 -1.75,1.4375 -4.25,1.4375 0.375,0.8125 1.40625,1.4375 Q 448.8125,99.75 450.3125,100 l -1.4375,1.46875 q -1.34375,-0.375 -2.53125,-1.125 -1.1875,-0.71875 -2.0625,-1.8125 -1.625,0 -2.78125,-0.78125 -1.15625,-0.78125 -1.15625,-1.90625 0,-0.78125 0.53125,-1.3125 0.53125,-0.5625 1.34375,-0.5625 0.4375,0 1.1875,0.625 0.78125,0.59375 1.71875,1.65625 2.1875,-0.21875 3.6875,-1.21875 1.5,-1.03125 1.5,-2.3125 0,-0.59375 -0.3125,-1.03125 -0.3125,-0.4375 -0.71875,-0.4375 -0.15625,0 -0.53125,0.125 -0.34375,0.09375 -0.9375,0.3125 -0.5625,0.1875 -1.03125,0.3125 -0.46875,0.09375 -0.84375,0.09375 -1.3125,0 -3.15625,-2 -1.8125,-2 -1.8125,-3.4375 0,-1.125 0.90625,-1.90625 0.90625,-0.78125 2.1875,-0.78125 h 12.09375 V 81.0625 Z"
         id="path44" />
      <path
         d="m 460.9375,81.0625 v -1.875 h 9.15625 v 1.875 h -3.5625 V 100 h -2.0625 V 81.0625 Z"
         id="path46" />
      <path
         d="m 489.21875,98.53125 q -2.5,0 -4.84375,-2.0625 -2.34375,-2.09375 -4.09375,-5.84375 l 1.46875,-1.25 q 1.5625,3.375 3.5,5.25 1.96875,1.84375 3.96875,1.84375 1.3125,0 2.21875,-1.09375 0.90625,-1.125 0.90625,-2.65625 0,-1.46875 -1.03125,-2.5 -1.03125,-1.03125 -2.5,-1.03125 -0.46875,0 -1,0.09375 -0.5,0.09375 -1.09375,0.3125 l -0.8125,-1.875 q 1.875,-0.15625 3.3125,-1.34375 1.46875,-1.21875 1.46875,-2.59375 0,-1.125 -0.875,-1.90625 -0.84375,-0.8125 -2.03125,-0.8125 -1,0 -2.21875,0.78125 -1.21875,0.75 -2.375,2.125 l -1.4375,-1.4375 q 1.0625,-1.59375 2.65625,-2.46875 1.625,-0.875 3.375,-0.875 2.0625,0 3.5,1.34375 1.46875,1.3125 1.46875,3.25 0,1.125 -0.5,2.15625 -0.5,1.03125 -1.34375,1.78125 1.40625,0.84375 2.78125,1.25 1.375,0.40625 2.625,0.40625 0.3125,0 0.84375,-0.1875 0.53125,-0.21875 1.21875,-0.625 v -7.5 h -3.75 v -1.875 h 17.90625 v 1.875 H 509 V 100 h -2.09375 V 81.0625 h -6.4375 V 100 H 498.375 v -9.375 q -0.5,0.4375 -1.03125,0.65625 -0.5,0.1875 -1.03125,0.1875 -0.875,0 -1.59375,-0.15625 -0.71875,-0.1875 -1.125,-0.46875 0.40625,0.34375 0.625,0.9375 0.21875,0.59375 0.21875,1.34375 0,2.25 -1.53125,3.84375 -1.5,1.5625 -3.6875,1.5625 z"
         id="path48" />
      <path
         d="m 511.6875,81.0625 v -1.875 H 529 v 1.875 h -3.34375 v 5 H 517.125 q -0.40625,0 -0.71875,0.1875 -0.3125,0.1875 -0.3125,0.4375 0,0.84375 0.625,1.625 0.625,0.78125 1.65625,1.28125 0.65625,-0.28125 1.4375,-0.4375 0.8125,-0.1875 1.6875,-0.1875 2.34375,0 3.96875,1.34375 1.65625,1.3125 1.65625,3.25 0,1.0625 -0.4375,1.96875 -0.4375,0.875 -1.25,1.34375 l -1.65625,-1.4375 q 0.59375,-0.34375 0.90625,-0.84375 0.34375,-0.5 0.34375,-1.03125 0,-1.0625 -1.03125,-1.78125 -1.03125,-0.71875 -2.5,-0.71875 -2.25,0 -3.84375,1.03125 -1.5625,1.03125 -1.5625,2.5 0,1.90625 2.6875,3.25 2.6875,1.3125 6.46875,1.3125 l -0.4375,1.875 q -4.46875,0 -7.65625,-1.875 Q 514,97.25 514,94.59375 q 0,-1.21875 0.59375,-2.28125 0.625,-1.0625 1.6875,-1.6875 -1.0625,-0.90625 -1.6875,-1.9375 Q 514,87.65625 514,86.6875 q 0,-1.125 0.90625,-1.90625 0.9375,-0.8125 2.21875,-0.8125 h 6.46875 V 81.0625 Z"
         id="path50" />
      <path
         d="m 523.15625,79.125 -7.6875,-9.15625 1.4375,-1.25 8.3125,10.40625 z"
         id="path52" />
      <path
         d="M 529.09375,104 530.75,96.71875 h 3.03125 L 530.65625,104 Z"
         id="path54" />
    </g>
    <g
       aria-label="हिंदीतही तीच भाषा आहे."
       id="text4">
      <path
         d="m 278.84375,123.78125 v -3.125 h 3.125 v 3.125 z m -20.375,7.28125 v -1.875 H 262 q -0.28125,-0.375 -0.46875,-1.0625 -0.15625,-0.6875 -0.15625,-1.625 0,-2.5 1.9375,-4.25 1.96875,-1.78125 4.71875,-1.78125 3.28125,0 6.4375,2.21875 3.1875,2.21875 5.40625,6.09375 h -2.28125 q -1.75,-3 -4.3125,-4.71875 -2.53125,-1.75 -5.25,-1.75 -1.90625,0 -3.25,1.25 -1.34375,1.21875 -1.34375,2.9375 0,0.9375 0.15625,1.625 0.1875,0.6875 0.46875,1.0625 h 3.5625 v 1.875 h -3.5625 V 150 H 262 v -18.9375 z"
         id="path57" />
      <path
         d="m 266.78125,131.0625 v -1.875 h 17.3125 v 1.875 H 280.75 v 5 h -8.53125 q -0.40625,0 -0.71875,0.1875 -0.3125,0.1875 -0.3125,0.4375 0,0.84375 0.625,1.625 0.625,0.78125 1.65625,1.28125 0.65625,-0.28125 1.4375,-0.4375 0.8125,-0.1875 1.6875,-0.1875 2.34375,0 3.96875,1.34375 1.65625,1.3125 1.65625,3.25 0,1.0625 -0.4375,1.96875 -0.4375,0.875 -1.25,1.34375 l -1.65625,-1.4375 q 0.59375,-0.34375 0.90625,-0.84375 0.34375,-0.5 0.34375,-1.03125 0,-1.0625 -1.03125,-1.78125 -1.03125,-0.71875 -2.5,-0.71875 -2.25,0 -3.84375,1.03125 -1.5625,1.03125 -1.5625,2.5 0,1.90625 2.6875,3.25 2.6875,1.3125 6.46875,1.3125 l -0.4375,1.875 q -4.46875,0 -7.65625,-1.875 -3.15625,-1.90625 -3.15625,-4.5625 0,-1.21875 0.59375,-2.28125 0.625,-1.0625 1.6875,-1.6875 -1.0625,-0.90625 -1.6875,-1.9375 -0.59375,-1.03125 -0.59375,-2 0,-1.125 0.90625,-1.90625 0.9375,-0.8125 2.21875,-0.8125 h 6.46875 v -2.90625 z"
         id="path59" />
      <path
         d="m 283,131.0625 v -1.875 h 18 v 1.875 h -3.3125 v 5.40625 h -8.125 q -1.21875,0 -2.0625,0.875 -0.84375,0.84375 -0.84375,2.03125 0,2.25 2.375,3.84375 2.375,1.59375 5.75,1.59375 0,-1.46875 0.65625,-2.5 0.65625,-1.0625 1.625,-1.0625 0.6875,0 1.15625,0.5 0.5,0.46875 0.5,1.1875 0,0.8125 -0.5,1.65625 -0.5,0.84375 -1.375,1.4375 L 299.125,150 l -1.875,0.84375 -2.28125,-4.1875 q -4.3125,0 -7.375,-2.125 -3.03125,-2.15625 -3.03125,-5.15625 0,-2.0625 1.4375,-3.5 1.46875,-1.46875 3.5625,-1.46875 h 6.03125 v -3.34375 z"
         id="path61" />
      <path
         d="m 300.15625,131.0625 v -1.875 h 3.53125 q -0.53125,-3 -1.96875,-4.9375 -1.40625,-1.9375 -3.03125,-1.9375 -1.21875,0 -2.0625,0.8125 -0.84375,0.78125 -0.84375,1.90625 0,1 0.4375,2 0.4375,0.96875 1.21875,1.75 h -2.28125 q -0.71875,-0.71875 -1.09375,-1.6875 -0.375,-0.96875 -0.375,-2.0625 0,-1.90625 1.46875,-3.21875 1.4375,-1.34375 3.53125,-1.34375 2.40625,0 4.40625,2.46875 2,2.46875 2.65625,6.25 h 3.5625 v 1.875 H 305.75 V 150 h -2.0625 v -18.9375 z"
         id="path63" />
      <path
         d="m 310.21875,139.8125 q 0,-2 1.28125,-3.375 1.28125,-1.40625 3.0625,-1.40625 h 8.125 v -3.96875 h -14.21875 v -1.875 h 19.84375 v 1.875 h -3.53125 V 150 h -2.09375 v -12.90625 h -8.125 q -0.9375,0 -1.625,0.8125 -0.65625,0.78125 -0.65625,1.90625 0,2 1.40625,4.28125 1.4375,2.28125 4,4.4375 L 316.4375,150 q -2.9375,-2.5 -4.59375,-5.15625 -1.625,-2.65625 -1.625,-5.03125 z"
         id="path65" />
      <path
         d="m 327.46875,131.0625 v -1.875 h 17.3125 v 1.875 h -3.34375 v 5 h -8.53125 q -0.40625,0 -0.71875,0.1875 -0.3125,0.1875 -0.3125,0.4375 0,0.84375 0.625,1.625 0.625,0.78125 1.65625,1.28125 0.65625,-0.28125 1.4375,-0.4375 0.8125,-0.1875 1.6875,-0.1875 2.34375,0 3.96875,1.34375 1.65625,1.3125 1.65625,3.25 0,1.0625 -0.4375,1.96875 -0.4375,0.875 -1.25,1.34375 l -1.65625,-1.4375 q 0.59375,-0.34375 0.90625,-0.84375 0.34375,-0.5 0.34375,-1.03125 0,-1.0625 -1.03125,-1.78125 -1.03125,-0.71875 -2.5,-0.71875 -2.25,0 -3.84375,1.03125 -1.5625,1.03125 -1.5625,2.5 0,1.90625 2.6875,3.25 2.6875,1.3125 6.46875,1.3125 l -0.4375,1.875 q -4.46875,0 -7.65625,-1.875 -3.15625,-1.90625 -3.15625,-4.5625 0,-1.21875 0.59375,-2.28125 0.625,-1.0625 1.6875,-1.6875 -1.0625,-0.90625 -1.6875,-1.9375 -0.59375,-1.03125 -0.59375,-2 0,-1.125 0.90625,-1.90625 0.9375,-0.8125 2.21875,-0.8125 h 6.46875 v -2.90625 z"
         id="path67" />
      <path
         d="m 343.9375,131.0625 v -1.875 h 3.53125 q -0.53125,-3 -1.96875,-4.9375 -1.40625,-1.9375 -3.03125,-1.9375 -1.21875,0 -2.0625,0.8125 -0.84375,0.78125 -0.84375,1.90625 0,1 0.4375,2 0.4375,0.96875 1.21875,1.75 h -2.28125 q -0.71875,-0.71875 -1.09375,-1.6875 -0.375,-0.96875 -0.375,-2.0625 0,-1.90625 1.46875,-3.21875 1.4375,-1.34375 3.53125,-1.34375 2.40625,0 4.40625,2.46875 2,2.46875 2.65625,6.25 h 3.5625 v 1.875 h -3.5625 V 150 h -2.0625 v -18.9375 z"
         id="path69" />
      <path
         d="m 363.875,139.8125 q 0,-2 1.28125,-3.375 1.28125,-1.40625 3.0625,-1.40625 h 8.125 V 131.0625 H 362.125 v -1.875 h 19.84375 v 1.875 H 378.4375 V 150 h -2.09375 v -12.90625 h -8.125 q -0.9375,0 -1.625,0.8125 -0.65625,0.78125 -0.65625,1.90625 0,2 1.40625,4.28125 1.4375,2.28125 4,4.4375 l -1.25,1.46875 q -2.9375,-2.5 -4.59375,-5.15625 -1.625,-2.65625 -1.625,-5.03125 z"
         id="path71" />
      <path
         d="m 381.125,131.0625 v -1.875 h 3.53125 q -0.53125,-3 -1.96875,-4.9375 -1.40625,-1.9375 -3.03125,-1.9375 -1.21875,0 -2.0625,0.8125 -0.84375,0.78125 -0.84375,1.90625 0,1 0.4375,2 0.4375,0.96875 1.21875,1.75 H 376.125 q -0.71875,-0.71875 -1.09375,-1.6875 -0.375,-0.96875 -0.375,-2.0625 0,-1.90625 1.46875,-3.21875 1.4375,-1.34375 3.53125,-1.34375 2.40625,0 4.40625,2.46875 2,2.46875 2.65625,6.25 h 3.5625 v 1.875 h -3.5625 V 150 h -2.0625 v -18.9375 z"
         id="path73" />
      <path
         d="m 389.4375,131.0625 v -1.875 h 20.75 v 1.875 h -3.53125 V 150 h -2.09375 v -7.5 q -1.25,1.75 -2.71875,2.75 -1.46875,1 -2.875,1 -2.09375,0 -3.5625,-1.4375 -1.4375,-1.46875 -1.4375,-3.5625 0,-1.5 0.59375,-2.71875 0.59375,-1.21875 1.6875,-1.84375 h -6.03125 v -2.09375 H 402.5 v 2.09375 h -2.90625 Q 398,137.28125 397,138.53125 q -0.96875,1.21875 -0.96875,2.71875 0,1.21875 0.84375,2.09375 0.875,0.84375 2.09375,0.84375 1.3125,0 2.8125,-1.28125 1.5,-1.3125 2.78125,-3.53125 v -8.3125 z"
         id="path75" />
      <path
         d="m 423.34375,139.8125 q 0,-0.34375 0.28125,-0.59375 0.3125,-0.25 0.75,-0.25 h 1.65625 v -6.03125 q 0,-0.875 -0.5625,-1.46875 -0.53125,-0.625 -1.3125,-0.625 -0.78125,0 -1.34375,0.4375 -0.53125,0.4375 -0.53125,1.03125 0,0.71875 0.53125,1.1875 0.5625,0.46875 1.34375,0.46875 v 2.09375 q -1.625,0 -2.78125,-1.09375 -1.15625,-1.125 -1.15625,-2.65625 0,-1.46875 1.15625,-2.5 1.15625,-1.03125 2.78125,-1.03125 1.625,0 2.78125,1.21875 1.1875,1.21875 1.1875,2.9375 v 6.03125 h 6.84375 v -7.90625 h -5.40625 v -1.875 h 11.03125 v 1.875 H 437.0625 V 150 h -2.09375 v -8.9375 H 428.125 v 1.65625 q 0,0.34375 -0.3125,0.59375 -0.3125,0.25 -0.75,0.25 -0.625,0 -2.1875,-1.5625 -1.53125,-1.5625 -1.53125,-2.1875 z"
         id="path77" />
      <path
         d="m 439.75,131.0625 v -1.875 h 9.15625 v 1.875 h -3.5625 V 150 h -2.0625 v -18.9375 z"
         id="path79" />
      <path
         d="m 460,137.9375 v -6.875 h -7.28125 z m -4.375,3.75 q 1.28125,0 2.40625,-0.375 1.125,-0.375 1.96875,-1.09375 l -7.6875,-7.0625 v 5.1875 q 0,1.375 0.96875,2.375 0.96875,0.96875 2.34375,0.96875 z m -7.5625,-10.625 v -1.875 h 17.5625 v 1.875 h -3.5625 V 150 H 460 v -7.5 q -0.875,0.625 -2,0.9375 -1.125,0.3125 -2.375,0.3125 -2.25,0 -3.84375,-1.5625 -1.5625,-1.59375 -1.5625,-3.84375 v -7.28125 z"
         id="path81" />
      <path
         d="m 464.78125,131.0625 v -1.875 h 9.15625 v 1.875 H 470.375 V 150 h -2.0625 v -18.9375 z"
         id="path83" />
      <path
         d="m 493.0625,148.53125 q -2.5,0 -4.84375,-2.0625 Q 485.875,144.375 484.125,140.625 l 1.46875,-1.25 q 1.5625,3.375 3.5,5.25 1.96875,1.84375 3.96875,1.84375 1.3125,0 2.21875,-1.09375 0.90625,-1.125 0.90625,-2.65625 0,-1.46875 -1.03125,-2.5 -1.03125,-1.03125 -2.5,-1.03125 -0.46875,0 -1,0.0937 -0.5,0.0937 -1.09375,0.3125 l -0.8125,-1.875 q 1.875,-0.15625 3.3125,-1.34375 1.46875,-1.21875 1.46875,-2.59375 0,-1.125 -0.875,-1.90625 -0.84375,-0.8125 -2.03125,-0.8125 -1,0 -2.21875,0.78125 -1.21875,0.75 -2.375,2.125 l -1.4375,-1.4375 q 1.0625,-1.59375 2.65625,-2.46875 1.625,-0.875 3.375,-0.875 2.0625,0 3.5,1.34375 1.46875,1.3125 1.46875,3.25 0,1.125 -0.5,2.15625 -0.5,1.03125 -1.34375,1.78125 1.40625,0.84375 2.78125,1.25 1.375,0.40625 2.625,0.40625 0.3125,0 0.84375,-0.1875 0.53125,-0.21875 1.21875,-0.625 v -7.5 h -3.75 v -1.875 H 516.375 v 1.875 h -3.53125 V 150 H 510.75 v -18.9375 h -6.4375 V 150 h -2.09375 v -9.375 q -0.5,0.4375 -1.03125,0.65625 -0.5,0.1875 -1.03125,0.1875 -0.875,0 -1.59375,-0.15625 -0.71875,-0.1875 -1.125,-0.46875 0.40625,0.34375 0.625,0.9375 0.21875,0.59375 0.21875,1.34375 0,2.25 -1.53125,3.84375 -1.5,1.5625 -3.6875,1.5625 z"
         id="path85" />
      <path
         d="m 515.53125,131.0625 v -1.875 h 17.3125 v 1.875 H 529.5 v 5 h -8.53125 q -0.40625,0 -0.71875,0.1875 -0.3125,0.1875 -0.3125,0.4375 0,0.84375 0.625,1.625 0.625,0.78125 1.65625,1.28125 0.65625,-0.28125 1.4375,-0.4375 0.8125,-0.1875 1.6875,-0.1875 2.34375,0 3.96875,1.34375 1.65625,1.3125 1.65625,3.25 0,1.0625 -0.4375,1.96875 -0.4375,0.875 -1.25,1.34375 l -1.65625,-1.4375 q 0.59375,-0.34375 0.90625,-0.84375 0.34375,-0.5 0.34375,-1.03125 0,-1.0625 -1.03125,-1.78125 -1.03125,-0.71875 -2.5,-0.71875 -2.25,0 -3.84375,1.03125 -1.5625,1.03125 -1.5625,2.5 0,1.90625 2.6875,3.25 2.6875,1.3125 6.46875,1.3125 l -0.4375,1.875 q -4.46875,0 -7.65625,-1.875 -3.15625,-1.90625 -3.15625,-4.5625 0,-1.21875 0.59375,-2.28125 0.625,-1.0625 1.6875,-1.6875 -1.0625,-0.90625 -1.6875,-1.9375 -0.59375,-1.03125 -0.59375,-2 0,-1.125 0.90625,-1.90625 0.9375,-0.8125 2.21875,-0.8125 h 6.46875 v -2.90625 z"
         id="path87" />
      <path
         d="m 527,129.125 -7.6875,-9.15625 1.4375,-1.25 8.3125,10.40625 z"
         id="path89" />
      <path
         d="m 534.75,150 v -3.28125 h 2.65625 V 150 Z"
         id="path91" />
    </g>
    <g
       aria-label="शब्दांचा खेळ, अर्थांचा गूढ,"
       id="text6">
      <path
         d="m 260.28125,181.0625 v -1.875 h 9.78125 v 1.875 h -3.53125 V 200 h -2.09375 v -18.9375 z m -5.625,4.78125 q 1.03125,0 1.9375,-0.625 0.90625,-0.625 1.40625,-1.65625 -0.46875,-1.21875 -1.28125,-1.96875 -0.78125,-0.75 -1.65625,-0.75 -1.03125,0 -1.78125,0.8125 -0.71875,0.78125 -0.71875,1.90625 0,0.96875 0.59375,1.625 0.625,0.65625 1.5,0.65625 z M 258.8125,200 249.46875,192.09375 250.5,190.625 q 0.90625,0.75 1.4375,1.125 0.53125,0.34375 0.84375,0.34375 2.34375,0 3.96875,-1.8125 1.65625,-1.84375 1.65625,-4.4375 -0.53125,0.96875 -1.5625,1.53125 -1.03125,0.5625 -2.1875,0.5625 -1.71875,0 -2.9375,-1.28125 -1.21875,-1.3125 -1.21875,-3.09375 0,-2 1.3125,-3.375 1.34375,-1.40625 3.25,-1.40625 2.25,0 3.84375,2.09375 1.59375,2.0625 1.59375,4.96875 0,3.21875 -1.90625,5.46875 -1.90625,2.25 -4.5625,2.25 l 6.03125,4.96875 z"
         id="path94" />
      <path
         d="m 269.21875,181.0625 v -1.875 H 281.5 v 1.875 z m 7.46875,12.90625 q 0.9375,0 1.75,-0.3125 0.8125,-0.34375 1.375,-0.9375 l -6.21875,-4.59375 q -0.3125,0.375 -0.46875,0.90625 -0.15625,0.53125 -0.15625,1.1875 0,1.53125 1.09375,2.65625 1.09375,1.09375 2.625,1.09375 z m 0,2.0625 q -2.40625,0 -4.125,-1.6875 -1.6875,-1.71875 -1.6875,-4.125 0,-2.5625 1.8125,-4.40625 1.84375,-1.84375 4.4375,-1.84375 0.5625,0 1.09375,0.125 0.53125,0.0937 0.96875,0.3125 v 2.0625 q -0.28125,-0.1875 -0.84375,-0.28125 -0.53125,-0.125 -1.21875,-0.125 -0.75,0 -1.375,0.21875 -0.625,0.1875 -1.125,0.625 l 6.4375,4.78125 0.84375,-1.0625 v 2.71875 q -0.875,1.28125 -2.28125,2 -1.375,0.6875 -2.9375,0.6875 z"
         id="path96" />
      <path
         d="m 280.40625,181.0625 v -1.875 h 18 v 1.875 h -3.3125 v 5.40625 h -8.125 q -1.21875,0 -2.0625,0.875 -0.84375,0.84375 -0.84375,2.03125 0,2.25 2.375,3.84375 2.375,1.59375 5.75,1.59375 0,-1.46875 0.65625,-2.5 0.65625,-1.0625 1.625,-1.0625 0.6875,0 1.15625,0.5 0.5,0.46875 0.5,1.1875 0,0.8125 -0.5,1.65625 -0.5,0.84375 -1.375,1.4375 l 2.28125,3.96875 -1.875,0.84375 -2.28125,-4.1875 q -4.3125,0 -7.375,-2.125 -3.03125,-2.15625 -3.03125,-5.15625 0,-2.0625 1.4375,-3.5 1.46875,-1.46875 3.5625,-1.46875 H 293 v -3.34375 z"
         id="path98" />
      <path
         d="m 297.5625,181.0625 v -1.875 h 9.15625 v 1.875 h -3.5625 V 200 h -2.0625 v -18.9375 z"
         id="path100" />
      <path
         d="m 300.75,174 v -2.90625 h 3.125 V 174 Z"
         id="path102" />
      <path
         d="m 305.875,181.0625 v -1.875 h 20.75 v 1.875 h -3.53125 V 200 H 321 v -7.5 q -1.25,1.75 -2.71875,2.75 -1.46875,1 -2.875,1 -2.09375,0 -3.5625,-1.4375 -1.4375,-1.46875 -1.4375,-3.5625 0,-1.5 0.59375,-2.71875 0.59375,-1.21875 1.6875,-1.84375 h -6.03125 v -2.09375 h 12.28125 v 2.09375 h -2.90625 q -1.59375,0.59375 -2.59375,1.84375 -0.96875,1.21875 -0.96875,2.71875 0,1.21875 0.84375,2.09375 0.875,0.84375 2.09375,0.84375 1.3125,0 2.8125,-1.28125 1.5,-1.3125 2.78125,-3.53125 v -8.3125 z"
         id="path104" />
      <path
         d="m 325.78125,181.0625 v -1.875 h 9.15625 v 1.875 H 331.375 V 200 h -2.0625 v -18.9375 z"
         id="path106" />
      <path
         d="m 357.0625,198.125 q 2.34375,0 4.46875,-1.3125 2.125,-1.34375 3.4375,-3.6875 v -1.65625 q -0.8125,0.71875 -1.6875,1.09375 -0.84375,0.375 -1.625,0.375 -2.09375,0 -3.5625,-1.3125 -1.4375,-1.3125 -1.4375,-3.15625 0,-1.875 1.4375,-3.1875 1.46875,-1.3125 3.5625,-1.3125 0.78125,0 1.46875,0.1875 0.6875,0.15625 1.21875,0.4375 v 2.09375 q -0.8125,-0.28125 -1.5,-0.4375 -0.6875,-0.1875 -1.1875,-0.1875 -1.21875,0 -2.09375,0.71875 -0.84375,0.6875 -0.84375,1.6875 0,1 0.84375,1.6875 0.875,0.6875 2.09375,0.6875 0.65625,0 1.5,-0.4375 0.875,-0.4375 1.8125,-1.21875 v -8.125 h -11.4375 v 4.59375 q 0,2 -1.125,3.40625 -1.09375,1.375 -2.625,1.375 -0.28125,0 -0.5625,-0.0625 -0.28125,-0.0625 -0.46875,-0.15625 1.28125,3.59375 3.5625,5.75 2.3125,2.15625 4.75,2.15625 z m -13.09375,-17.0625 v -1.875 h 26.625 v 1.875 H 367.0625 V 200 h -2.09375 v -4.15625 q -1.375,1.9375 -3.46875,3.0625 Q 359.40625,200 357.0625,200 q -3.625,0 -6.9375,-3.8125 -3.28125,-3.84375 -4.90625,-9.90625 l 1.65625,-0.84375 q 0.46875,1.34375 1.25,2.125 0.8125,0.78125 1.65625,0.78125 0.71875,0 1.1875,-0.78125 0.46875,-0.78125 0.46875,-1.90625 v -4.59375 z"
         id="path108" />
      <path
         d="m 364.5625,179.1875 -7.6875,-9.15625 1.4375,-1.25 8.3125,10.40625 z"
         id="path110" />
      <path
         d="m 386.5,195.84375 q 1.3125,0 2.21875,-1.3125 0.90625,-1.34375 0.90625,-3.28125 0,-1.78125 -0.90625,-3.0625 -0.90625,-1.28125 -2.21875,-1.28125 -1.125,0 -2.1875,1.21875 -1.0625,1.21875 -1.5625,3.125 0.75,2.09375 1.78125,3.34375 1.0625,1.25 1.96875,1.25 z m -9.34375,-0.21875 q 0.90625,0 1.875,-1.125 1,-1.15625 1.65625,-3.03125 -0.53125,-2.03125 -1.53125,-3.28125 -0.96875,-1.28125 -2,-1.28125 -1.46875,0 -2.5,1.34375 -1.03125,1.3125 -1.03125,3.1875 0,1.75 1.03125,2.96875 1.03125,1.21875 2.5,1.21875 z M 369.75,181.0625 v -1.875 h 23.78125 v 1.875 h -6.1875 v 3.96875 q 1.90625,0.3125 3.125,2.09375 1.25,1.75 1.25,4.125 0,2.6875 -1.53125,4.59375 -1.5,1.875 -3.6875,1.875 -1.28125,0 -2.59375,-1.125 -1.3125,-1.125 -2.1875,-3.03125 -0.875,1.90625 -2.125,3.03125 -1.25,1.125 -2.4375,1.125 -2.34375,0 -4,-1.8125 -1.625,-1.84375 -1.625,-4.46875 0,-2.6875 1.625,-4.53125 1.65625,-1.875 4,-1.875 1.4375,0 2.6875,1.03125 1.25,1 1.875,2.6875 0.59375,-1.53125 1.53125,-2.53125 0.9375,-1 2,-1.1875 v -3.96875 z"
         id="path112" />
      <path
         d="m 393.65625,204 1.65625,-7.28125 h 3.03125 L 395.21875,204 Z"
         id="path114" />
      <path
         d="m 423.875,198.53125 q -2.5,0 -4.84375,-2.0625 -2.34375,-2.09375 -4.09375,-5.84375 l 1.53125,-0.875 q 1.5,3.1875 3.4375,4.96875 1.9375,1.75 3.96875,1.75 1.28125,0 2.1875,-0.9375 Q 427,194.5625 427,193.1875 q 0,-1.6875 -1.0625,-2.84375 -1.03125,-1.15625 -2.46875,-1.15625 -0.46875,0 -1,0.0937 -0.5,0.0937 -1.09375,0.3125 l -0.84375,-1.875 q 1.875,-0.15625 3.3125,-1.28125 1.4375,-1.15625 1.4375,-2.46875 0,-1.1875 -0.71875,-2.03125 -0.71875,-0.875 -1.71875,-0.875 -1.21875,0 -2.53125,0.78125 -1.3125,0.75 -2.46875,2.125 l -1.46875,-1.4375 q 1.09375,-1.59375 2.78125,-2.46875 1.71875,-0.875 3.6875,-0.875 1.90625,0 3.21875,1.40625 1.34375,1.375 1.34375,3.375 0,1.0625 -0.5,2.03125 -0.5,0.96875 -1.375,1.71875 1.59375,0.90625 2.8125,1.40625 1.21875,0.46875 1.96875,0.46875 0.46875,0 1.15625,-0.25 0.6875,-0.28125 1.5625,-0.78125 v -7.5 h -3.75 v -1.875 h 9.375 v 1.875 h -3.5625 V 200 h -2.0625 v -9.375 q -0.5,0.4375 -1.03125,0.65625 -0.5,0.1875 -1.0625,0.1875 -0.875,0 -1.59375,-0.15625 -0.6875,-0.1875 -1.09375,-0.46875 0.40625,0.34375 0.59375,0.9375 0.21875,0.59375 0.21875,1.34375 0,2.25 -1.53125,3.84375 -1.5,1.5625 -3.65625,1.5625 z"
         id="path116" />
      <path
         d="m 447.59375,195.84375 q -2.96875,0 -5.28125,-2.0625 -2.3125,-2.0625 -2.84375,-5.21875 0.34375,0.125 1.03125,0.15625 0.71875,0.0312 2.09375,0.0312 2.25,0 3.8125,-1.28125 Q 448,186.1875 448,184.40625 q 0,-1.5625 -1,-2.65625 -0.96875,-1.09375 -2.34375,-1.09375 -1.1875,0 -2.0625,0.65625 -0.84375,0.65625 -0.84375,1.625 0,0.78125 0.71875,1.34375 0.75,0.53125 1.78125,0.53125 v 2.09375 q -2.0625,0 -3.3125,-1.09375 -1.25,-1.09375 -1.25,-2.875 0,-1.78125 1.4375,-3.0625 1.46875,-1.3125 3.53125,-1.3125 2.25,0 3.84375,1.71875 1.59375,1.6875 1.59375,4.125 0,2.65625 -2.25,4.5625 -2.25,1.875 -5.46875,1.875 0.625,1.34375 2.03125,2.125 1.4375,0.78125 3.1875,0.78125 1.6875,0 3.46875,-1.03125 1.8125,-1.03125 3.375,-2.90625 v -8.75 h -2.0625 v -1.875 h 7.6875 v 1.875 h -3.53125 V 200 h -2.09375 v -7.5 q -1.5625,1.59375 -3.375,2.46875 -1.78125,0.875 -3.46875,0.875 z"
         id="path118" />
      <path
         d="m 459.21875,181.0625 v -1.875 h 9.15625 v 1.875 h -3.5625 V 200 H 462.75 v -18.9375 z"
         id="path120" />
      <path
         d="M 465.59375,176.28125 V 174 h 2.3125 v 2.28125 z m -2.90625,2.90625 q -0.90625,-0.90625 -1.375,-1.96875 -0.5,-1.09375 -0.5,-2.1875 0,-1.90625 1.3125,-3.21875 1.28125,-1.34375 3.0625,-1.34375 0.96875,0 1.65625,0.0937 0.6875,0.0937 1.0625,0.3125 v 1.65625 q -0.46875,-0.21875 -1.125,-0.3125 -0.6875,-0.0937 -1.59375,-0.0937 -0.96875,0 -1.625,0.84375 -0.65625,0.84375 -0.65625,2.0625 0,1 0.53125,2.09375 0.53125,1.0625 1.53125,2.0625 z"
         id="path122" />
      <path
         d="m 467.53125,181.0625 v -1.875 h 20.75 v 1.875 H 484.75 V 200 h -2.09375 v -7.5 q -1.25,1.75 -2.71875,2.75 -1.46875,1 -2.875,1 -2.09375,0 -3.5625,-1.4375 -1.4375,-1.46875 -1.4375,-3.5625 0,-1.5 0.59375,-2.71875 0.59375,-1.21875 1.6875,-1.84375 h -6.03125 v -2.09375 h 12.28125 v 2.09375 h -2.90625 q -1.59375,0.59375 -2.59375,1.84375 -0.96875,1.21875 -0.96875,2.71875 0,1.21875 0.84375,2.09375 0.875,0.84375 2.09375,0.84375 1.3125,0 2.8125,-1.28125 1.5,-1.3125 2.78125,-3.53125 v -8.3125 z"
         id="path124" />
      <path
         d="m 487.4375,181.0625 v -1.875 h 9.15625 v 1.875 h -3.5625 V 200 h -2.0625 v -18.9375 z"
         id="path126" />
      <path
         d="m 505.625,181.0625 v -1.875 h 17 v 1.875 h -3.53125 V 200 h -2.0625 V 181.0625 H 511.8125 V 191.25 q 0,0.5 -0.3125,0.875 -0.3125,0.375 -0.71875,0.375 -0.78125,0 -2.46875,-1.9375 -1.6875,-1.96875 -1.6875,-2.84375 0,-0.3125 0.25,-0.5625 0.25,-0.25 0.5625,-0.25 h 1.46875 q 0.34375,0 0.59375,-0.3125 0.25,-0.3125 0.25,-0.75 v -4.78125 z"
         id="path128" />
      <path
         d="m 517.40625,207.90625 q -1.78125,0 -3.0625,-1.3125 -1.3125,-1.28125 -1.3125,-3.0625 0,-2.0625 1.53125,-3.53125 1.5,-1.46875 3.65625,-1.46875 2.71875,0 5.21875,2.34375 2.53125,2.375 3.9375,6.1875 l -1.84375,0.84375 q -1.21875,-3.28125 -3.21875,-5.28125 -2,-2 -4.09375,-2 -1.28125,0 -2.1875,0.84375 -0.90625,0.875 -0.90625,2.0625 0,0.96875 0.65625,1.625 0.65625,0.65625 1.625,0.65625 0.5,0 1.09375,-0.28125 0.59375,-0.25 1.1875,-0.75 l 1.03125,1.875 q -0.875,0.625 -1.71875,0.9375 -0.84375,0.3125 -1.59375,0.3125 z"
         id="path130" />
      <path
         d="m 534.53125,197.5 q 1.09375,-0.21875 1.78125,-1.0625 0.71875,-0.875 0.71875,-2.0625 0,-0.875 -0.59375,-1.46875 -0.59375,-0.59375 -1.46875,-0.59375 -0.78125,0 -1.34375,0.53125 -0.53125,0.53125 -0.53125,1.34375 0,1 0.375,1.875 0.375,0.84375 1.0625,1.4375 z m -12.75,-16.4375 v -1.875 h 18.9375 v 1.875 h -4.3125 v 6.25 h -8.09375 q -1.125,0 -1.9375,0.96875 -0.78125,0.96875 -0.78125,2.34375 0,2.4375 2.15625,4.65625 2.1875,2.21875 4.71875,2.4375 Q 531.75,197.125 531.375,196.1875 531,195.25 531,194.1875 q 0,-1.625 1.15625,-2.78125 1.1875,-1.1875 2.8125,-1.1875 1.6875,0 2.90625,1.25 1.25,1.21875 1.25,2.90625 0,2.15625 -1.96875,3.6875 -1.9375,1.53125 -4.6875,1.53125 -3.34375,0 -6.15625,-2.8125 -2.78125,-2.8125 -2.78125,-6.15625 0,-2.25 1.375,-3.8125 1.40625,-1.59375 3.40625,-1.59375 h 6.03125 v -4.15625 z"
         id="path132" />
      <path
         d="m 540.8125,204 1.65625,-7.28125 H 545.5 L 542.375,204 Z"
         id="path134" />
    </g>
    <g
       aria-label="ज्ञानदाता ही संज्ञा सुंदर."
       id="text8">
      <path
         d="m 264.67187,231.0625 v -1.875 h 23.03125 v 1.875 h -3.53125 V 250 h -2.0625 v -13.9375 h -12.09375 q -0.40625,0 -0.71875,0.1875 -0.3125,0.1875 -0.3125,0.4375 0,0.875 1.15625,2.21875 1.1875,1.3125 1.96875,1.3125 0.46875,0 0.96875,-0.0937 0.53125,-0.125 1.125,-0.3125 0.5625,-0.21875 1.03125,-0.3125 0.46875,-0.125 0.84375,-0.125 0.9375,0 1.59375,1 0.6875,0.96875 0.6875,2.34375 0,2.09375 -1.78125,3.5625 -1.75,1.4375 -4.25,1.4375 0.375,0.8125 1.40625,1.4375 1.03125,0.59375 2.53125,0.84375 l -1.4375,1.46875 q -1.34375,-0.375 -2.53125,-1.125 -1.1875,-0.71875 -2.0625,-1.8125 -1.625,0 -2.78125,-0.78125 -1.15625,-0.78125 -1.15625,-1.90625 0,-0.78125 0.53125,-1.3125 0.53125,-0.5625 1.34375,-0.5625 0.4375,0 1.1875,0.625 0.78125,0.59375 1.71875,1.65625 2.1875,-0.21875 3.6875,-1.21875 1.5,-1.03125 1.5,-2.3125 0,-0.59375 -0.3125,-1.03125 -0.3125,-0.4375 -0.71875,-0.4375 -0.15625,0 -0.53125,0.125 -0.34375,0.0937 -0.9375,0.3125 -0.5625,0.1875 -1.03125,0.3125 -0.46875,0.0937 -0.84375,0.0937 -1.3125,0 -3.15625,-2 -1.8125,-2 -1.8125,-3.4375 0,-1.125 0.90625,-1.90625 0.90625,-0.78125 2.1875,-0.78125 h 12.09375 v -2.90625 z"
         id="path137" />
      <path
         d="m 286.89062,231.0625 v -1.875 h 9.15625 v 1.875 h -3.5625 V 250 h -2.0625 v -18.9375 z"
         id="path139" />
      <path
         d="m 296.23437,237.53125 q 0,-0.4375 0.4375,-0.75 0.4375,-0.3125 1.03125,-0.3125 h 11 v -5.40625 h -13.5 v -1.875 h 19.125 v 1.875 h -3.53125 V 250 h -2.09375 v -11.4375 h -6.03125 q -0.5,0 -0.875,0.25 -0.375,0.25 -0.375,0.5625 v 2.09375 q 0,0.5 -0.3125,0.875 -0.3125,0.375 -0.71875,0.375 -0.71875,0 -2.4375,-2.15625 -1.71875,-2.1875 -1.71875,-3.03125 z"
         id="path141" />
      <path
         d="m 313.23437,231.0625 v -1.875 h 18 v 1.875 h -3.3125 v 5.40625 h -8.125 q -1.21875,0 -2.0625,0.875 -0.84375,0.84375 -0.84375,2.03125 0,2.25 2.375,3.84375 2.375,1.59375 5.75,1.59375 0,-1.46875 0.65625,-2.5 0.65625,-1.0625 1.625,-1.0625 0.6875,0 1.15625,0.5 0.5,0.46875 0.5,1.1875 0,0.8125 -0.5,1.65625 -0.5,0.84375 -1.375,1.4375 l 2.28125,3.96875 -1.875,0.84375 -2.28125,-4.1875 q -4.3125,0 -7.375,-2.125 -3.03125,-2.15625 -3.03125,-5.15625 0,-2.0625 1.4375,-3.5 1.46875,-1.46875 3.5625,-1.46875 h 6.03125 v -3.34375 z"
         id="path143" />
      <path
         d="m 330.39062,231.0625 v -1.875 h 9.15625 v 1.875 h -3.5625 V 250 h -2.0625 v -18.9375 z"
         id="path145" />
      <path
         d="m 340.45312,239.8125 q 0,-2 1.28125,-3.375 1.28125,-1.40625 3.0625,-1.40625 h 8.125 v -3.96875 h -14.21875 v -1.875 h 19.84375 v 1.875 h -3.53125 V 250 h -2.09375 v -12.90625 h -8.125 q -0.9375,0 -1.625,0.8125 -0.65625,0.78125 -0.65625,1.90625 0,2 1.40625,4.28125 1.4375,2.28125 4,4.4375 l -1.25,1.46875 q -2.9375,-2.5 -4.59375,-5.15625 -1.625,-2.65625 -1.625,-5.03125 z"
         id="path147" />
      <path
         d="m 357.70312,231.0625 v -1.875 h 9.15625 v 1.875 h -3.5625 V 250 h -2.0625 v -18.9375 z"
         id="path149" />
      <path
         d="m 375.89062,231.0625 v -1.875 h 17.3125 v 1.875 h -3.34375 v 5 h -8.53125 q -0.40625,0 -0.71875,0.1875 -0.3125,0.1875 -0.3125,0.4375 0,0.84375 0.625,1.625 0.625,0.78125 1.65625,1.28125 0.65625,-0.28125 1.4375,-0.4375 0.8125,-0.1875 1.6875,-0.1875 2.34375,0 3.96875,1.34375 1.65625,1.3125 1.65625,3.25 0,1.0625 -0.4375,1.96875 -0.4375,0.875 -1.25,1.34375 l -1.65625,-1.4375 q 0.59375,-0.34375 0.90625,-0.84375 0.34375,-0.5 0.34375,-1.03125 0,-1.0625 -1.03125,-1.78125 -1.03125,-0.71875 -2.5,-0.71875 -2.25,0 -3.84375,1.03125 -1.5625,1.03125 -1.5625,2.5 0,1.90625 2.6875,3.25 2.6875,1.3125 6.46875,1.3125 l -0.4375,1.875 q -4.46875,0 -7.65625,-1.875 -3.15625,-1.90625 -3.15625,-4.5625 0,-1.21875 0.59375,-2.28125 0.625,-1.0625 1.6875,-1.6875 -1.0625,-0.90625 -1.6875,-1.9375 -0.59375,-1.03125 -0.59375,-2 0,-1.125 0.90625,-1.90625 0.9375,-0.8125 2.21875,-0.8125 h 6.46875 v -2.90625 z"
         id="path151" />
      <path
         d="m 392.35937,231.0625 v -1.875 h 3.53125 q -0.53125,-3 -1.96875,-4.9375 -1.40625,-1.9375 -3.03125,-1.9375 -1.21875,0 -2.0625,0.8125 -0.84375,0.78125 -0.84375,1.90625 0,1 0.4375,2 0.4375,0.96875 1.21875,1.75 h -2.28125 q -0.71875,-0.71875 -1.09375,-1.6875 -0.375,-0.96875 -0.375,-2.0625 0,-1.90625 1.46875,-3.21875 1.4375,-1.34375 3.53125,-1.34375 2.40625,0 4.40625,2.46875 2,2.46875 2.65625,6.25 h 3.5625 v 1.875 h -3.5625 V 250 h -2.0625 v -18.9375 z"
         id="path153" />
      <path
         d="m 410.54687,231.0625 v -1.875 h 23 v 1.875 h -3.53125 V 250 h -2.09375 v -10 h -8.875 q -0.84375,0.625 -1.9375,0.625 -0.25,0 -0.5,-0.0625 -0.21875,-0.0625 -0.34375,-0.125 l 6.25,8.71875 -1.65625,1.0625 -9.375,-13.3125 1.6875,-1.25 q 0.65625,1.40625 1.53125,2.25 0.90625,0.84375 1.78125,0.84375 0.875,0 1.46875,-0.59375 0.625,-0.59375 0.625,-1.46875 v -5.625 z m 9.90625,6.875 h 7.46875 v -6.875 h -7.28125 v 5.625 q 0,0.65625 -0.1875,1.25 z"
         id="path155" />
      <path
         d="M 427.57812,224.03125 V 221.125 h 3.125 v 2.90625 z"
         id="path157" />
      <path
         d="m 432.70312,231.0625 v -1.875 h 23.03125 v 1.875 h -3.53125 V 250 h -2.0625 v -13.9375 h -12.09375 q -0.40625,0 -0.71875,0.1875 -0.3125,0.1875 -0.3125,0.4375 0,0.875 1.15625,2.21875 1.1875,1.3125 1.96875,1.3125 0.46875,0 0.96875,-0.0937 0.53125,-0.125 1.125,-0.3125 0.5625,-0.21875 1.03125,-0.3125 0.46875,-0.125 0.84375,-0.125 0.9375,0 1.59375,1 0.6875,0.96875 0.6875,2.34375 0,2.09375 -1.78125,3.5625 -1.75,1.4375 -4.25,1.4375 0.375,0.8125 1.40625,1.4375 1.03125,0.59375 2.53125,0.84375 l -1.4375,1.46875 q -1.34375,-0.375 -2.53125,-1.125 -1.1875,-0.71875 -2.0625,-1.8125 -1.625,0 -2.78125,-0.78125 -1.15625,-0.78125 -1.15625,-1.90625 0,-0.78125 0.53125,-1.3125 0.53125,-0.5625 1.34375,-0.5625 0.4375,0 1.1875,0.625 0.78125,0.59375 1.71875,1.65625 2.1875,-0.21875 3.6875,-1.21875 1.5,-1.03125 1.5,-2.3125 0,-0.59375 -0.3125,-1.03125 -0.3125,-0.4375 -0.71875,-0.4375 -0.15625,0 -0.53125,0.125 -0.34375,0.0937 -0.9375,0.3125 -0.5625,0.1875 -1.03125,0.3125 -0.46875,0.0937 -0.84375,0.0937 -1.3125,0 -3.15625,-2 -1.8125,-2 -1.8125,-3.4375 0,-1.125 0.90625,-1.90625 0.90625,-0.78125 2.1875,-0.78125 h 12.09375 v -2.90625 z"
         id="path159" />
      <path
         d="m 454.92187,231.0625 v -1.875 h 9.15625 v 1.875 h -3.5625 V 250 h -2.0625 v -18.9375 z"
         id="path161" />
      <path
         d="m 473.10937,231.0625 v -1.875 h 23 v 1.875 h -3.53125 V 250 h -2.09375 v -10 h -8.875 q -0.84375,0.625 -1.9375,0.625 -0.25,0 -0.5,-0.0625 -0.21875,-0.0625 -0.34375,-0.125 l 6.25,8.71875 -1.65625,1.0625 -9.375,-13.3125 1.6875,-1.25 q 0.65625,1.40625 1.53125,2.25 0.90625,0.84375 1.78125,0.84375 0.875,0 1.46875,-0.59375 0.625,-0.59375 0.625,-1.46875 v -5.625 z m 9.90625,6.875 h 7.46875 v -6.875 h -7.28125 v 5.625 q 0,0.65625 -0.1875,1.25 z"
         id="path163" />
      <path
         d="m 489.42187,258.53125 q -2.25,0 -4.6875,-1.09375 -2.46875,-1.0625 -4.875,-3.0625 l 1.46875,-1.875 q 2.28125,1.90625 4.375,2.90625 2.0625,1.03125 3.71875,1.03125 1.8125,0 3.09375,-0.90625 1.28125,-0.90625 1.28125,-2.1875 0,-1.0625 -0.65625,-1.78125 -0.6875,-0.71875 -1.625,-0.71875 -1,0 -1.875,0.375 -0.875,0.375 -1.46875,1.0625 l -1.4375,-1.4375 q 0.8125,-1 2.0625,-1.53125 1.25,-0.5625 2.71875,-0.5625 1.78125,0 3.09375,1.3125 1.28125,1.34375 1.28125,3.28125 0,2.15625 -1.90625,3.65625 -1.90625,1.53125 -4.5625,1.53125 z"
         id="path165" />
      <path
         d="M 490.14062,224.03125 V 221.125 h 3.125 v 2.90625 z"
         id="path167" />
      <path
         d="m 495.01562,231.0625 v -1.875 h 18 v 1.875 h -3.3125 v 5.40625 h -8.125 q -1.21875,0 -2.0625,0.875 -0.84375,0.84375 -0.84375,2.03125 0,2.25 2.375,3.84375 2.375,1.59375 5.75,1.59375 0,-1.46875 0.65625,-2.5 0.65625,-1.0625 1.625,-1.0625 0.6875,0 1.15625,0.5 0.5,0.46875 0.5,1.1875 0,0.8125 -0.5,1.65625 -0.5,0.84375 -1.375,1.4375 l 2.28125,3.96875 -1.875,0.84375 -2.28125,-4.1875 q -4.3125,0 -7.375,-2.125 -3.03125,-2.15625 -3.03125,-5.15625 0,-2.0625 1.4375,-3.5 1.46875,-1.46875 3.5625,-1.46875 h 6.03125 v -3.34375 z"
         id="path169" />
      <path
         d="m 512.17187,231.0625 v -1.875 h 14.46875 v 1.875 h -2.8125 v 4.78125 q 0,1.9375 -1.3125,3.28125 -1.28125,1.3125 -3.0625,1.3125 -0.25,0 -0.6875,-0.0937 -0.40625,-0.125 -1,-0.34375 1.34375,2.34375 3.15625,4.5 1.84375,2.125 4.125,4.03125 L 523.82812,250 q -3.34375,-2.78125 -6.03125,-6.3125 -2.6875,-3.5625 -4.59375,-7.625 l 1.875,-1.03125 q 0.53125,1.5 1.71875,2.40625 1.21875,0.90625 2.65625,0.90625 0.9375,0 1.59375,-0.71875 0.6875,-0.71875 0.6875,-1.78125 v -4.78125 z"
         id="path171" />
      <path
         d="m 528.54687,250 v -3.28125 h 2.65625 V 250 Z"
         id="path173" />
    </g>
  </g>
</svg>
