<?xml version="1.0" encoding="UTF-8" standalone="no"?>
<svg
   width="800"
   height="350"
   version="1.1"
   id="svg12"
   sodipodi:docname="Sarthak_Marathi.svg"
   xmlns:inkscape="http://www.inkscape.org/namespaces/inkscape"
   xmlns:sodipodi="http://sodipodi.sourceforge.net/DTD/sodipodi-0.dtd"
   xmlns="http://www.w3.org/2000/svg"
   xmlns:svg="http://www.w3.org/2000/svg">
  <defs
     id="defs16" />
  <sodipodi:namedview
     id="namedview14"
     pagecolor="#ffffff"
     bordercolor="#000000"
     borderopacity="0.25"
     inkscape:showpageshadow="2"
     inkscape:pageopacity="0.0"
     inkscape:pagecheckerboard="0"
     inkscape:deskcolor="#d1d1d1" />
  <g
     font-family="Lohit Devanagari"
     font-size="32"
     text-anchor="middle"
     fill="#000"
     id="g10">
    <g
       aria-label="सरथक शब्दांचा सागर,"
       id="text2">
      <path
         d="m 270.6875,81.0625 v -1.875 h 23 v 1.875 h -3.53125 V 100 H 288.0625 V 90 h -8.875 q -0.84375,0.625 -1.9375,0.625 -0.25,0 -0.5,-0.0625 -0.21875,-0.0625 -0.34375,-0.125 l 6.25,8.71875 -1.65625,1.0625 -9.375,-13.3125 1.6875,-1.25 q 0.65625,1.40625 1.53125,2.25 Q 275.75,88.75 276.625,88.75 q 0.875,0 1.46875,-0.59375 0.625,-0.59375 0.625,-1.46875 v -5.625 z m 9.90625,6.875 h 7.46875 v -6.875 h -7.28125 v 5.625 q 0,0.65625 -0.1875,1.25 z"
         id="path18" />
      <path
         d="m 292.84375,81.0625 v -1.875 h 14.46875 v 1.875 H 304.5 v 4.78125 q 0,1.9375 -1.3125,3.28125 -1.28125,1.3125 -3.0625,1.3125 -0.25,0 -0.6875,-0.09375 -0.40625,-0.125 -1,-0.34375 1.34375,2.34375 3.15625,4.5 1.84375,2.125 4.125,4.03125 L 304.5,100 q -3.34375,-2.78125 -6.03125,-6.3125 -2.6875,-3.5625 -4.59375,-7.625 l 1.875,-1.03125 q 0.53125,1.5 1.71875,2.40625 1.21875,0.90625 2.65625,0.90625 0.9375,0 1.59375,-0.71875 0.6875,-0.71875 0.6875,-1.78125 V 81.0625 Z"
         id="path20" />
      <path
         d="m 316.25,95.84375 q -2.96875,0 -5.28125,-2.0625 -2.3125,-2.0625 -2.84375,-5.21875 0.34375,0.125 1.03125,0.15625 Q 309.875,88.75 311.25,88.75 q 2.25,0 3.8125,-1.28125 1.59375,-1.28125 1.59375,-3.0625 0,-1.5625 -1,-2.65625 -0.96875,-1.09375 -2.34375,-1.09375 -1.1875,0 -2.0625,0.65625 -0.84375,0.65625 -0.84375,1.625 0,0.78125 0.71875,1.34375 0.75,0.53125 1.78125,0.53125 v 2.09375 q -2.0625,0 -3.3125,-1.09375 -1.25,-1.09375 -1.25,-2.875 0,-1.78125 1.4375,-3.0625 1.46875,-1.3125 3.53125,-1.3125 2.25,0 3.84375,1.71875 1.59375,1.6875 1.59375,4.125 0,2.65625 -2.25,4.5625 -2.25,1.875 -5.46875,1.875 0.625,1.34375 2.03125,2.125 Q 314.5,93.75 316.25,93.75 q 1.6875,0 3.46875,-1.03125 1.8125,-1.03125 3.375,-2.90625 v -8.75 h -2.0625 v -1.875 h 7.6875 v 1.875 H 325.1875 V 100 h -2.09375 v -7.5 q -1.5625,1.59375 -3.375,2.46875 -1.78125,0.875 -3.46875,0.875 z"
         id="path22" />
      <path
         d="m 327.875,81.0625 v -1.875 h 24.25 v 1.875 h -11 v 5.625 q 0.6875,-1.15625 1.84375,-1.8125 1.15625,-0.6875 2.53125,-0.6875 2,0 3.375,1.65625 1.40625,1.625 1.40625,3.96875 0,2 -1.03125,3.96875 -1.03125,1.9375 -2.90625,3.5 l -1.875,-1.25 q 1.75,-1.21875 2.75,-2.875 1,-1.65625 1,-3.34375 0,-1.46875 -0.8125,-2.5 -0.78125,-1.03125 -1.90625,-1.03125 -1.4375,0 -2.6875,1.09375 -1.21875,1.09375 -1.6875,2.84375 V 100 h -2.0625 v -6.25 q -0.75,0.875 -1.84375,1.375 -1.0625,0.5 -2.3125,0.5 -2.25,0 -3.84375,-1.5625 -1.5625,-1.59375 -1.5625,-3.84375 0,-2.5 1.8125,-4.25 1.84375,-1.78125 4.40625,-1.78125 0.75,0 1.28125,0.125 0.5625,0.09375 0.8125,0.28125 l -0.40625,2.09375 q -0.375,-0.21875 -0.8125,-0.3125 -0.40625,-0.09375 -0.875,-0.09375 -1.6875,0 -2.9375,1.15625 -1.21875,1.15625 -1.21875,2.78125 0,1.375 0.96875,2.375 1,0.96875 2.375,0.96875 1.1875,0 2.3125,-0.71875 1.125,-0.75 1.84375,-2 V 81.0625 Z"
         id="path24" />
      <path
         d="m 373.34375,81.0625 v -1.875 h 9.78125 v 1.875 h -3.53125 V 100 H 377.5 V 81.0625 Z m -5.625,4.78125 q 1.03125,0 1.9375,-0.625 0.90625,-0.625 1.40625,-1.65625 -0.46875,-1.21875 -1.28125,-1.96875 -0.78125,-0.75 -1.65625,-0.75 -1.03125,0 -1.78125,0.8125 -0.71875,0.78125 -0.71875,1.90625 0,0.96875 0.59375,1.625 0.625,0.65625 1.5,0.65625 z M 371.875,100 362.53125,92.09375 363.5625,90.625 q 0.90625,0.75 1.4375,1.125 0.53125,0.34375 0.84375,0.34375 2.34375,0 3.96875,-1.8125 1.65625,-1.84375 1.65625,-4.4375 -0.53125,0.96875 -1.5625,1.53125 -1.03125,0.5625 -2.1875,0.5625 -1.71875,0 -2.9375,-1.28125 -1.21875,-1.3125 -1.21875,-3.09375 0,-2 1.3125,-3.375 1.34375,-1.40625 3.25,-1.40625 2.25,0 3.84375,2.09375 1.59375,2.0625 1.59375,4.96875 0,3.21875 -1.90625,5.46875 -1.90625,2.25 -4.5625,2.25 l 6.03125,4.96875 z"
         id="path26" />
      <path
         d="m 382.28125,81.0625 v -1.875 h 12.28125 v 1.875 z M 389.75,93.96875 q 0.9375,0 1.75,-0.3125 0.8125,-0.34375 1.375,-0.9375 L 386.65625,88.125 q -0.3125,0.375 -0.46875,0.90625 -0.15625,0.53125 -0.15625,1.1875 0,1.53125 1.09375,2.65625 1.09375,1.09375 2.625,1.09375 z m 0,2.0625 q -2.40625,0 -4.125,-1.6875 -1.6875,-1.71875 -1.6875,-4.125 0,-2.5625 1.8125,-4.40625 1.84375,-1.84375 4.4375,-1.84375 0.5625,0 1.09375,0.125 0.53125,0.09375 0.96875,0.3125 v 2.0625 q -0.28125,-0.1875 -0.84375,-0.28125 -0.53125,-0.125 -1.21875,-0.125 -0.75,0 -1.375,0.21875 -0.625,0.1875 -1.125,0.625 l 6.4375,4.78125 0.84375,-1.0625 v 2.71875 q -0.875,1.28125 -2.28125,2 -1.375,0.6875 -2.9375,0.6875 z"
         id="path28" />
      <path
         d="m 393.46875,81.0625 v -1.875 h 18 v 1.875 h -3.3125 v 5.40625 h -8.125 q -1.21875,0 -2.0625,0.875 -0.84375,0.84375 -0.84375,2.03125 0,2.25 2.375,3.84375 2.375,1.59375 5.75,1.59375 0,-1.46875 0.65625,-2.5 0.65625,-1.0625 1.625,-1.0625 0.6875,0 1.15625,0.5 0.5,0.46875 0.5,1.1875 0,0.8125 -0.5,1.65625 -0.5,0.84375 -1.375,1.4375 l 2.28125,3.96875 -1.875,0.84375 -2.28125,-4.1875 q -4.3125,0 -7.375,-2.125 -3.03125,-2.15625 -3.03125,-5.15625 0,-2.0625 1.4375,-3.5 1.46875,-1.46875 3.5625,-1.46875 h 6.03125 V 81.0625 Z"
         id="path30" />
      <path
         d="m 410.625,81.0625 v -1.875 h 9.15625 v 1.875 h -3.5625 V 100 h -2.0625 V 81.0625 Z"
         id="path32" />
      <path
         d="m 413.8125,74 v -2.90625 h 3.125 V 74 Z"
         id="path34" />
      <path
         d="m 418.9375,81.0625 v -1.875 h 20.75 v 1.875 h -3.53125 V 100 h -2.09375 v -7.5 q -1.25,1.75 -2.71875,2.75 -1.46875,1 -2.875,1 -2.09375,0 -3.5625,-1.4375 -1.4375,-1.46875 -1.4375,-3.5625 0,-1.5 0.59375,-2.71875 0.59375,-1.21875 1.6875,-1.84375 h -6.03125 V 84.59375 H 432 v 2.09375 h -2.90625 Q 427.5,87.28125 426.5,88.53125 425.53125,89.75 425.53125,91.25 q 0,1.21875 0.84375,2.09375 0.875,0.84375 2.09375,0.84375 1.3125,0 2.8125,-1.28125 1.5,-1.3125 2.78125,-3.53125 v -8.3125 z"
         id="path36" />
      <path
         d="m 438.84375,81.0625 v -1.875 H 448 v 1.875 h -3.5625 V 100 H 442.375 V 81.0625 Z"
         id="path38" />
      <path
         d="m 457.03125,81.0625 v -1.875 h 23 v 1.875 H 476.5 V 100 h -2.09375 V 90 h -8.875 q -0.84375,0.625 -1.9375,0.625 -0.25,0 -0.5,-0.0625 Q 462.875,90.5 462.75,90.4375 l 6.25,8.71875 -1.65625,1.0625 -9.375,-13.3125 1.6875,-1.25 q 0.65625,1.40625 1.53125,2.25 0.90625,0.84375 1.78125,0.84375 0.875,0 1.46875,-0.59375 0.625,-0.59375 0.625,-1.46875 v -5.625 z m 9.90625,6.875 h 7.46875 v -6.875 H 467.125 v 5.625 q 0,0.65625 -0.1875,1.25 z"
         id="path40" />
      <path
         d="m 479.1875,81.0625 v -1.875 h 9.15625 v 1.875 h -3.5625 V 100 h -2.0625 V 81.0625 Z"
         id="path42" />
      <path
         d="m 487.5,81.0625 v -1.875 h 17 v 1.875 h -3.53125 V 100 h -2.0625 V 81.0625 H 493.6875 V 91.25 q 0,0.5 -0.3125,0.875 -0.3125,0.375 -0.71875,0.375 -0.78125,0 -2.46875,-1.9375 -1.6875,-1.96875 -1.6875,-2.84375 0,-0.3125 0.25,-0.5625 0.25,-0.25 0.5625,-0.25 h 1.46875 q 0.34375,0 0.59375,-0.3125 0.25,-0.3125 0.25,-0.75 V 81.0625 Z"
         id="path44" />
      <path
         d="m 503.65625,81.0625 v -1.875 H 518.125 v 1.875 h -2.8125 v 4.78125 q 0,1.9375 -1.3125,3.28125 -1.28125,1.3125 -3.0625,1.3125 -0.25,0 -0.6875,-0.09375 -0.40625,-0.125 -1,-0.34375 1.34375,2.34375 3.15625,4.5 1.84375,2.125 4.125,4.03125 L 515.3125,100 q -3.34375,-2.78125 -6.03125,-6.3125 -2.6875,-3.5625 -4.59375,-7.625 l 1.875,-1.03125 q 0.53125,1.5 1.71875,2.40625 1.21875,0.90625 2.65625,0.90625 0.9375,0 1.59375,-0.71875 0.6875,-0.71875 0.6875,-1.78125 V 81.0625 Z"
         id="path46" />
      <path
         d="m 518.21875,104 1.65625,-7.28125 h 3.03125 L 519.78125,104 Z"
         id="path48" />
    </g>
    <g
       aria-label="मराठी भाषेचा आधार."
       id="text4">
      <path
         d="m 283.67187,137.9375 h 7.5 v -6.875 h -7.5 z m -5.8125,-6.875 v -1.875 h 18.9375 v 1.875 h -3.5625 V 150 h -2.0625 v -10 h -7.5 v 1.46875 q 0,0.5 -0.1875,0.875 -0.1875,0.375 -0.4375,0.375 -0.71875,0 -2.4375,-1.5625 -1.71875,-1.5625 -1.71875,-2.1875 0,-0.40625 0.3125,-0.71875 0.3125,-0.3125 0.71875,-0.3125 h 1.6875 v -6.875 z"
         id="path51" />
      <path
         d="m 295.95312,131.0625 v -1.875 h 14.46875 v 1.875 h -2.8125 v 4.78125 q 0,1.9375 -1.3125,3.28125 -1.28125,1.3125 -3.0625,1.3125 -0.25,0 -0.6875,-0.0937 -0.40625,-0.125 -1,-0.34375 1.34375,2.34375 3.15625,4.5 1.84375,2.125 4.125,4.03125 L 307.60937,150 q -3.34375,-2.78125 -6.03125,-6.3125 -2.6875,-3.5625 -4.59375,-7.625 l 1.875,-1.03125 q 0.53125,1.5 1.71875,2.40625 1.21875,0.90625 2.65625,0.90625 0.9375,0 1.59375,-0.71875 0.6875,-0.71875 0.6875,-1.78125 v -4.78125 z"
         id="path53" />
      <path
         d="m 309.57812,131.0625 v -1.875 h 9.15625 v 1.875 h -3.5625 V 150 h -2.0625 v -18.9375 z"
         id="path55" />
      <path
         d="m 328.42187,149.78125 q -3.25,0 -6,-2.78125 -2.75,-2.8125 -2.75,-6.15625 0,-2.40625 1.5625,-4.09375 1.59375,-1.71875 3.84375,-1.71875 h 5.21875 v -3.96875 h -12.40625 v -1.875 h 18.96875 v 1.875 h -4.5 v 6.03125 h -7.28125 q -1.375,0 -2.34375,1.125 -0.96875,1.09375 -0.96875,2.625 0,2.53125 2.09375,4.71875 2.09375,2.15625 4.5625,2.15625 1.78125,0 3.0625,-1.3125 1.28125,-1.34375 1.28125,-3.28125 0,-1.15625 -0.65625,-2.34375 -0.625,-1.21875 -1.8125,-2.21875 l 1.65625,-1.25 q 1.375,1.15625 2.125,2.6875 0.78125,1.5 0.78125,3.125 0,2.75 -1.90625,4.71875 -1.875,1.9375 -4.53125,1.9375 z"
         id="path57" />
      <path
         d="m 336.01562,131.0625 v -1.875 h 3.53125 q -0.53125,-3 -1.96875,-4.9375 -1.40625,-1.9375 -3.03125,-1.9375 -1.21875,0 -2.0625,0.8125 -0.84375,0.78125 -0.84375,1.90625 0,1 0.4375,2 0.4375,0.96875 1.21875,1.75 h -2.28125 q -0.71875,-0.71875 -1.09375,-1.6875 -0.375,-0.96875 -0.375,-2.0625 0,-1.90625 1.46875,-3.21875 1.4375,-1.34375 3.53125,-1.34375 2.40625,0 4.40625,2.46875 2,2.46875 2.65625,6.25 h 3.5625 v 1.875 h -3.5625 V 150 h -2.0625 v -18.9375 z"
         id="path59" />
      <path
         d="m 358.32812,139.8125 q 0,-0.34375 0.28125,-0.59375 0.3125,-0.25 0.75,-0.25 h 1.65625 v -6.03125 q 0,-0.875 -0.5625,-1.46875 -0.53125,-0.625 -1.3125,-0.625 -0.78125,0 -1.34375,0.4375 -0.53125,0.4375 -0.53125,1.03125 0,0.71875 0.53125,1.1875 0.5625,0.46875 1.34375,0.46875 v 2.09375 q -1.625,0 -2.78125,-1.09375 -1.15625,-1.125 -1.15625,-2.65625 0,-1.46875 1.15625,-2.5 1.15625,-1.03125 2.78125,-1.03125 1.625,0 2.78125,1.21875 1.1875,1.21875 1.1875,2.9375 v 6.03125 h 6.84375 v -7.90625 h -5.40625 v -1.875 h 11.03125 v 1.875 h -3.53125 V 150 h -2.09375 v -8.9375 h -6.84375 v 1.65625 q 0,0.34375 -0.3125,0.59375 -0.3125,0.25 -0.75,0.25 -0.625,0 -2.1875,-1.5625 -1.53125,-1.5625 -1.53125,-2.1875 z"
         id="path61" />
      <path
         d="m 374.73437,131.0625 v -1.875 h 9.15625 v 1.875 h -3.5625 V 150 h -2.0625 v -18.9375 z"
         id="path63" />
      <path
         d="m 394.98437,137.9375 v -6.875 h -7.28125 z m -4.375,3.75 q 1.28125,0 2.40625,-0.375 1.125,-0.375 1.96875,-1.09375 l -7.6875,-7.0625 v 5.1875 q 0,1.375 0.96875,2.375 0.96875,0.96875 2.34375,0.96875 z m -7.5625,-10.625 v -1.875 h 17.5625 v 1.875 h -3.5625 V 150 h -2.0625 v -7.5 q -0.875,0.625 -2,0.9375 -1.125,0.3125 -2.375,0.3125 -2.25,0 -3.84375,-1.5625 -1.5625,-1.59375 -1.5625,-3.84375 v -7.28125 z"
         id="path65" />
      <path
         d="m 394.60937,129.125 -7.6875,-9.15625 1.4375,-1.25 8.3125,10.40625 z"
         id="path67" />
      <path
         d="m 399.76562,131.0625 v -1.875 h 20.75 v 1.875 h -3.53125 V 150 h -2.09375 v -7.5 q -1.25,1.75 -2.71875,2.75 -1.46875,1 -2.875,1 -2.09375,0 -3.5625,-1.4375 -1.4375,-1.46875 -1.4375,-3.5625 0,-1.5 0.59375,-2.71875 0.59375,-1.21875 1.6875,-1.84375 h -6.03125 v -2.09375 h 12.28125 v 2.09375 h -2.90625 q -1.59375,0.59375 -2.59375,1.84375 -0.96875,1.21875 -0.96875,2.71875 0,1.21875 0.84375,2.09375 0.875,0.84375 2.09375,0.84375 1.3125,0 2.8125,-1.28125 1.5,-1.3125 2.78125,-3.53125 v -8.3125 z"
         id="path69" />
      <path
         d="m 419.67187,131.0625 v -1.875 h 9.15625 v 1.875 h -3.5625 V 150 h -2.0625 v -18.9375 z"
         id="path71" />
      <path
         d="m 447.95312,148.53125 q -2.5,0 -4.84375,-2.0625 -2.34375,-2.09375 -4.09375,-5.84375 l 1.46875,-1.25 q 1.5625,3.375 3.5,5.25 1.96875,1.84375 3.96875,1.84375 1.3125,0 2.21875,-1.09375 0.90625,-1.125 0.90625,-2.65625 0,-1.46875 -1.03125,-2.5 -1.03125,-1.03125 -2.5,-1.03125 -0.46875,0 -1,0.0937 -0.5,0.0937 -1.09375,0.3125 l -0.8125,-1.875 q 1.875,-0.15625 3.3125,-1.34375 1.46875,-1.21875 1.46875,-2.59375 0,-1.125 -0.875,-1.90625 -0.84375,-0.8125 -2.03125,-0.8125 -1,0 -2.21875,0.78125 -1.21875,0.75 -2.375,2.125 l -1.4375,-1.4375 q 1.0625,-1.59375 2.65625,-2.46875 1.625,-0.875 3.375,-0.875 2.0625,0 3.5,1.34375 1.46875,1.3125 1.46875,3.25 0,1.125 -0.5,2.15625 -0.5,1.03125 -1.34375,1.78125 1.40625,0.84375 2.78125,1.25 1.375,0.40625 2.625,0.40625 0.3125,0 0.84375,-0.1875 0.53125,-0.21875 1.21875,-0.625 v -7.5 h -3.75 v -1.875 h 17.90625 v 1.875 h -3.53125 V 150 h -2.09375 v -18.9375 h -6.4375 V 150 h -2.09375 v -9.375 q -0.5,0.4375 -1.03125,0.65625 -0.5,0.1875 -1.03125,0.1875 -0.875,0 -1.59375,-0.15625 -0.71875,-0.1875 -1.125,-0.46875 0.40625,0.34375 0.625,0.9375 0.21875,0.59375 0.21875,1.34375 0,2.25 -1.53125,3.84375 -1.5,1.5625 -3.6875,1.5625 z"
         id="path73" />
      <path
         d="m 479.45312,146.46875 q -2.34375,0 -4,-1.28125 -1.625,-1.3125 -1.625,-3.09375 0,-1.125 0.4375,-2.0625 0.4375,-0.9375 1.21875,-1.46875 -1.65625,-1.15625 -2.59375,-2.65625 -0.9375,-1.5 -0.9375,-2.96875 0,-1.78125 1.21875,-3.0625 1.25,-1.3125 2.9375,-1.3125 1.78125,0 2.875,0.96875 1.09375,0.9375 1.09375,2.5625 0,1.375 -1.125,2.375 -1.09375,0.96875 -2.625,0.96875 v -2.09375 q 0.6875,0 1.15625,-0.375 0.5,-0.375 0.5,-0.875 0,-0.5625 -0.5625,-1 -0.53125,-0.4375 -1.3125,-0.4375 -0.875,0 -1.46875,0.65625 -0.59375,0.65625 -0.59375,1.625 0,1.21875 0.8125,2.375 0.84375,1.15625 2.28125,2 0.6875,-0.28125 1.46875,-0.4375 0.78125,-0.1875 1.65625,-0.1875 h 1.25 l 1.25,2.0625 h -2.28125 q -1.90625,0 -3.25,1 -1.34375,0.96875 -1.34375,2.34375 0,0.96875 1.03125,1.625 1.0625,0.65625 2.53125,0.65625 1.65625,0 3.34375,-1.09375 1.71875,-1.09375 3.09375,-3.0625 v -9.15625 h -4.5625 v -1.875 h 10.1875 v 1.875 h -3.53125 V 150 h -2.09375 v -6.875 q -1.34375,1.59375 -3.03125,2.46875 -1.65625,0.875 -3.40625,0.875 z"
         id="path75" />
      <path
         d="m 490.67187,131.0625 v -1.875 h 9.15625 v 1.875 h -3.5625 V 150 h -2.0625 v -18.9375 z"
         id="path77" />
      <path
         d="m 498.98437,131.0625 v -1.875 h 14.46875 v 1.875 h -2.8125 v 4.78125 q 0,1.9375 -1.3125,3.28125 -1.28125,1.3125 -3.0625,1.3125 -0.25,0 -0.6875,-0.0937 -0.40625,-0.125 -1,-0.34375 1.34375,2.34375 3.15625,4.5 1.84375,2.125 4.125,4.03125 L 510.64062,150 q -3.34375,-2.78125 -6.03125,-6.3125 -2.6875,-3.5625 -4.59375,-7.625 l 1.875,-1.03125 q 0.53125,1.5 1.71875,2.40625 1.21875,0.90625 2.65625,0.90625 0.9375,0 1.59375,-0.71875 0.6875,-0.71875 0.6875,-1.78125 v -4.78125 z"
         id="path79" />
      <path
         d="m 515.35937,150 v -3.28125 h 2.65625 V 150 Z"
         id="path81" />
    </g>
    <g
       aria-label="भावनांचा अद्भुत रंग,"
       id="text6">
      <path
         d="m 291.89062,189.8125 q 0,-0.34375 0.28125,-0.59375 0.3125,-0.25 0.75,-0.25 h 1.65625 v -6.03125 q 0,-0.875 -0.5625,-1.46875 -0.53125,-0.625 -1.3125,-0.625 -0.78125,0 -1.34375,0.4375 -0.53125,0.4375 -0.53125,1.03125 0,0.71875 0.53125,1.1875 0.5625,0.46875 1.34375,0.46875 v 2.09375 q -1.625,0 -2.78125,-1.09375 -1.15625,-1.125 -1.15625,-2.65625 0,-1.46875 1.15625,-2.5 1.15625,-1.03125 2.78125,-1.03125 1.625,0 2.78125,1.21875 1.1875,1.21875 1.1875,2.9375 v 6.03125 h 6.84375 v -7.90625 h -5.40625 v -1.875 h 11.03125 v 1.875 h -3.53125 V 200 h -2.09375 v -8.9375 h -6.84375 v 1.65625 q 0,0.34375 -0.3125,0.59375 -0.3125,0.25 -0.75,0.25 -0.625,0 -2.1875,-1.5625 -1.53125,-1.5625 -1.53125,-2.1875 z"
         id="path84" />
      <path
         d="m 308.29687,181.0625 v -1.875 h 9.15625 v 1.875 h -3.5625 V 200 h -2.0625 v -18.9375 z"
         id="path86" />
      <path
         d="m 316.60937,181.0625 v -1.875 h 17.8125 v 1.875 h -3.5625 V 200 h -2.0625 v -6.65625 q -0.84375,1 -2,1.5625 -1.125,0.53125 -2.375,0.53125 -2.59375,0 -4.4375,-1.65625 -1.8125,-1.65625 -1.8125,-3.96875 0,-2.34375 1.8125,-3.96875 1.84375,-1.65625 4.4375,-1.65625 0.75,0 1.4375,0.21875 0.6875,0.1875 1.28125,0.625 l -1.0625,1.65625 q -0.375,-0.28125 -0.78125,-0.4375 -0.40625,-0.1875 -0.875,-0.1875 -1.71875,0 -2.9375,1.09375 -1.21875,1.09375 -1.21875,2.65625 0,1.4375 1.21875,2.5 1.21875,1.03125 2.9375,1.03125 1.21875,0 2.375,-0.8125 1.15625,-0.84375 2,-2.3125 v -9.15625 z"
         id="path88" />
      <path
         d="m 334.60937,187.53125 q 0,-0.4375 0.4375,-0.75 0.4375,-0.3125 1.03125,-0.3125 h 11 v -5.40625 h -13.5 v -1.875 h 19.125 v 1.875 h -3.53125 V 200 h -2.09375 v -11.4375 h -6.03125 q -0.5,0 -0.875,0.25 -0.375,0.25 -0.375,0.5625 v 2.09375 q 0,0.5 -0.3125,0.875 -0.3125,0.375 -0.71875,0.375 -0.71875,0 -2.4375,-2.15625 -1.71875,-2.1875 -1.71875,-3.03125 z"
         id="path90" />
      <path
         d="m 351.85937,181.0625 v -1.875 h 9.15625 v 1.875 h -3.5625 V 200 h -2.0625 v -18.9375 z"
         id="path92" />
      <path
         d="m 355.04687,174 v -2.90625 h 3.125 V 174 Z"
         id="path94" />
      <path
         d="m 360.17187,181.0625 v -1.875 h 20.75 v 1.875 h -3.53125 V 200 h -2.09375 v -7.5 q -1.25,1.75 -2.71875,2.75 -1.46875,1 -2.875,1 -2.09375,0 -3.5625,-1.4375 -1.4375,-1.46875 -1.4375,-3.5625 0,-1.5 0.59375,-2.71875 0.59375,-1.21875 1.6875,-1.84375 h -6.03125 v -2.09375 h 12.28125 v 2.09375 h -2.90625 q -1.59375,0.59375 -2.59375,1.84375 -0.96875,1.21875 -0.96875,2.71875 0,1.21875 0.84375,2.09375 0.875,0.84375 2.09375,0.84375 1.3125,0 2.8125,-1.28125 1.5,-1.3125 2.78125,-3.53125 v -8.3125 z"
         id="path96" />
      <path
         d="m 380.07812,181.0625 v -1.875 h 9.15625 v 1.875 h -3.5625 V 200 h -2.0625 v -18.9375 z"
         id="path98" />
      <path
         d="m 408.32812,198.53125 q -2.5,0 -4.84375,-2.0625 -2.34375,-2.09375 -4.09375,-5.84375 l 1.53125,-0.875 q 1.5,3.1875 3.4375,4.96875 1.9375,1.75 3.96875,1.75 1.28125,0 2.1875,-0.9375 0.9375,-0.96875 0.9375,-2.34375 0,-1.6875 -1.0625,-2.84375 -1.03125,-1.15625 -2.46875,-1.15625 -0.46875,0 -1,0.0937 -0.5,0.0937 -1.09375,0.3125 l -0.84375,-1.875 q 1.875,-0.15625 3.3125,-1.28125 1.4375,-1.15625 1.4375,-2.46875 0,-1.1875 -0.71875,-2.03125 -0.71875,-0.875 -1.71875,-0.875 -1.21875,0 -2.53125,0.78125 -1.3125,0.75 -2.46875,2.125 l -1.46875,-1.4375 q 1.09375,-1.59375 2.78125,-2.46875 1.71875,-0.875 3.6875,-0.875 1.90625,0 3.21875,1.40625 1.34375,1.375 1.34375,3.375 0,1.0625 -0.5,2.03125 -0.5,0.96875 -1.375,1.71875 1.59375,0.90625 2.8125,1.40625 1.21875,0.46875 1.96875,0.46875 0.46875,0 1.15625,-0.25 0.6875,-0.28125 1.5625,-0.78125 v -7.5 h -3.75 v -1.875 h 9.375 v 1.875 h -3.5625 V 200 h -2.0625 v -9.375 q -0.5,0.4375 -1.03125,0.65625 -0.5,0.1875 -1.0625,0.1875 -0.875,0 -1.59375,-0.15625 -0.6875,-0.1875 -1.09375,-0.46875 0.40625,0.34375 0.59375,0.9375 0.21875,0.59375 0.21875,1.34375 0,2.25 -1.53125,3.84375 -1.5,1.5625 -3.65625,1.5625 z"
         id="path100" />
      <path
         d="m 422.26562,181.0625 v -1.875 h 20.125 v 1.875 h -3.5 v 5.40625 h -7.90625 q -1.1875,0 -2.0625,0.625 -0.84375,0.59375 -0.84375,1.46875 0,1.78125 1.5,3.09375 1.53125,1.28125 3.71875,1.28125 0.75,0 1.25,-0.0625 0.53125,-0.0625 0.8125,-0.15625 -0.28125,-0.125 -0.46875,-0.4375 -0.15625,-0.34375 -0.15625,-0.8125 0,-0.59375 0.65625,-1.03125 0.6875,-0.4375 1.625,-0.4375 1.125,0 1.90625,0.6875 0.8125,0.65625 0.8125,1.625 0,0.90625 -0.59375,1.625 -0.5625,0.6875 -1.5,0.875 l 3.125,4.96875 -1.4375,1.25 -3.125,-4.375 -4.15625,3.5625 q 0.28125,0.375 0.4375,0.75 0.1875,0.375 0.1875,0.6875 0,0.34375 -0.75,0.59375 -0.71875,0.25 -1.75,0.25 -0.71875,0 -1.21875,-0.4375 -0.46875,-0.4375 -0.46875,-1.03125 l 1.25,-1.25 -2.0625,-2.5 q -0.21875,-0.28125 -0.5625,-0.4375 -0.3125,-0.1875 -0.6875,-0.1875 -0.40625,0 -0.71875,0.25 -0.3125,0.25 -0.3125,0.59375 0,0.125 0.3125,0.46875 0.3125,0.3125 0.5,0.5625 l -1.25,1.46875 q -0.6875,-0.71875 -1.0625,-1.40625 -0.375,-0.71875 -0.375,-1.3125 0,-1.03125 0.84375,-1.75 0.84375,-0.71875 2.0625,-0.71875 0.65625,0 1.25,0.28125 0.625,0.25 1.03125,0.75 l 2.28125,3.125 4.59375,-4.15625 -1.15625,0.125 q -0.59375,0.0625 -1.125,0.0625 -3,0 -5.15625,-1.875 -2.125,-1.90625 -2.125,-4.5625 0,-1.71875 1.4375,-2.9375 1.46875,-1.21875 3.53125,-1.21875 h 5.84375 v -3.34375 z"
         id="path102" />
      <path
         d="m 437.92187,210.03125 q -2.25,0 -4.6875,-1.09375 -2.46875,-1.0625 -4.875,-3.0625 L 429.82812,204 q 2.28125,1.90625 4.375,2.90625 2.0625,1.03125 3.71875,1.03125 1.8125,0 3.09375,-0.90625 1.28125,-0.90625 1.28125,-2.1875 0,-1.0625 -0.65625,-1.78125 -0.6875,-0.71875 -1.625,-0.71875 -1,0 -1.875,0.375 -0.875,0.375 -1.46875,1.0625 l -1.4375,-1.4375 q 0.8125,-1 2.0625,-1.53125 1.25,-0.5625 2.71875,-0.5625 1.78125,0 3.09375,1.3125 1.28125,1.34375 1.28125,3.28125 0,2.15625 -1.90625,3.65625 -1.90625,1.53125 -4.5625,1.53125 z"
         id="path104" />
      <path
         d="m 443.29687,189.8125 q 0,-2 1.28125,-3.375 1.28125,-1.40625 3.0625,-1.40625 h 8.125 v -3.96875 h -14.21875 v -1.875 h 19.84375 v 1.875 h -3.53125 V 200 h -2.09375 v -12.90625 h -8.125 q -0.9375,0 -1.625,0.8125 -0.65625,0.78125 -0.65625,1.90625 0,2 1.40625,4.28125 1.4375,2.28125 4,4.4375 l -1.25,1.46875 q -2.9375,-2.5 -4.59375,-5.15625 -1.625,-2.65625 -1.625,-5.03125 z"
         id="path106" />
      <path
         d="m 470.42187,181.0625 v -1.875 h 14.46875 v 1.875 h -2.8125 v 4.78125 q 0,1.9375 -1.3125,3.28125 -1.28125,1.3125 -3.0625,1.3125 -0.25,0 -0.6875,-0.0937 -0.40625,-0.125 -1,-0.34375 1.34375,2.34375 3.15625,4.5 1.84375,2.125 4.125,4.03125 L 482.07812,200 q -3.34375,-2.78125 -6.03125,-6.3125 -2.6875,-3.5625 -4.59375,-7.625 l 1.875,-1.03125 q 0.53125,1.5 1.71875,2.40625 1.21875,0.90625 2.65625,0.90625 0.9375,0 1.59375,-0.71875 0.6875,-0.71875 0.6875,-1.78125 v -4.78125 z"
         id="path108" />
      <path
         d="m 479.79687,174.0625 v -2.90625 h 3.125 v 2.90625 z"
         id="path110" />
      <path
         d="m 484.04687,181.0625 v -1.875 h 17 v 1.875 h -3.53125 V 200 h -2.0625 v -18.9375 h -5.21875 V 191.25 q 0,0.5 -0.3125,0.875 -0.3125,0.375 -0.71875,0.375 -0.78125,0 -2.46875,-1.9375 -1.6875,-1.96875 -1.6875,-2.84375 0,-0.3125 0.25,-0.5625 0.25,-0.25 0.5625,-0.25 h 1.46875 q 0.34375,0 0.59375,-0.3125 0.25,-0.3125 0.25,-0.75 v -4.78125 z"
         id="path112" />
      <path
         d="m 501.14062,204 1.65625,-7.28125 h 3.03125 L 502.70312,204 Z"
         id="path114" />
    </g>
    <g
       aria-label="रंगीत मनाचा आकार."
       id="text8">
      <path
         d="m 281.40625,231.0625 v -1.875 H 295.875 v 1.875 h -2.8125 v 4.78125 q 0,1.9375 -1.3125,3.28125 -1.28125,1.3125 -3.0625,1.3125 -0.25,0 -0.6875,-0.0937 -0.40625,-0.125 -1,-0.34375 1.34375,2.34375 3.15625,4.5 1.84375,2.125 4.125,4.03125 L 293.0625,250 q -3.34375,-2.78125 -6.03125,-6.3125 -2.6875,-3.5625 -4.59375,-7.625 l 1.875,-1.03125 q 0.53125,1.5 1.71875,2.40625 1.21875,0.90625 2.65625,0.90625 0.9375,0 1.59375,-0.71875 0.6875,-0.71875 0.6875,-1.78125 v -4.78125 z"
         id="path117" />
      <path
         d="m 290.78125,224.0625 v -2.90625 h 3.125 v 2.90625 z"
         id="path119" />
      <path
         d="m 295.03125,231.0625 v -1.875 h 17 v 1.875 H 308.5 V 250 h -2.0625 v -18.9375 h -5.21875 V 241.25 q 0,0.5 -0.3125,0.875 -0.3125,0.375 -0.71875,0.375 -0.78125,0 -2.46875,-1.9375 -1.6875,-1.96875 -1.6875,-2.84375 0,-0.3125 0.25,-0.5625 0.25,-0.25 0.5625,-0.25 h 1.46875 q 0.34375,0 0.59375,-0.3125 0.25,-0.3125 0.25,-0.75 v -4.78125 z"
         id="path121" />
      <path
         d="m 311.1875,231.0625 v -1.875 h 3.53125 q -0.53125,-3 -1.96875,-4.9375 -1.40625,-1.9375 -3.03125,-1.9375 -1.21875,0 -2.0625,0.8125 -0.84375,0.78125 -0.84375,1.90625 0,1 0.4375,2 0.4375,0.96875 1.21875,1.75 h -2.28125 q -0.71875,-0.71875 -1.09375,-1.6875 -0.375,-0.96875 -0.375,-2.0625 0,-1.90625 1.46875,-3.21875 1.4375,-1.34375 3.53125,-1.34375 2.40625,0 4.40625,2.46875 2,2.46875 2.65625,6.25 h 3.5625 v 1.875 h -3.5625 V 250 h -2.0625 v -18.9375 z"
         id="path123" />
      <path
         d="m 321.25,239.8125 q 0,-2 1.28125,-3.375 1.28125,-1.40625 3.0625,-1.40625 h 8.125 V 231.0625 H 319.5 v -1.875 h 19.84375 v 1.875 H 335.8125 V 250 h -2.09375 v -12.90625 h -8.125 q -0.9375,0 -1.625,0.8125 -0.65625,0.78125 -0.65625,1.90625 0,2 1.40625,4.28125 1.4375,2.28125 4,4.4375 l -1.25,1.46875 q -2.9375,-2.5 -4.59375,-5.15625 -1.625,-2.65625 -1.625,-5.03125 z"
         id="path125" />
      <path
         d="m 354.1875,237.9375 h 7.5 v -6.875 h -7.5 z m -5.8125,-6.875 v -1.875 h 18.9375 v 1.875 H 363.75 V 250 h -2.0625 v -10 h -7.5 v 1.46875 q 0,0.5 -0.1875,0.875 -0.1875,0.375 -0.4375,0.375 -0.71875,0 -2.4375,-1.5625 -1.71875,-1.5625 -1.71875,-2.1875 0,-0.40625 0.3125,-0.71875 0.3125,-0.3125 0.71875,-0.3125 h 1.6875 v -6.875 z"
         id="path127" />
      <path
         d="m 367.5,237.53125 q 0,-0.4375 0.4375,-0.75 0.4375,-0.3125 1.03125,-0.3125 h 11 v -5.40625 h -13.5 v -1.875 h 19.125 v 1.875 H 382.0625 V 250 h -2.09375 v -11.4375 h -6.03125 q -0.5,0 -0.875,0.25 -0.375,0.25 -0.375,0.5625 v 2.09375 q 0,0.5 -0.3125,0.875 -0.3125,0.375 -0.71875,0.375 -0.71875,0 -2.4375,-2.15625 Q 367.5,238.375 367.5,237.53125 Z"
         id="path129" />
      <path
         d="m 384.75,231.0625 v -1.875 h 9.15625 v 1.875 h -3.5625 V 250 h -2.0625 v -18.9375 z"
         id="path131" />
      <path
         d="m 393.0625,231.0625 v -1.875 h 20.75 v 1.875 h -3.53125 V 250 h -2.09375 v -7.5 q -1.25,1.75 -2.71875,2.75 -1.46875,1 -2.875,1 -2.09375,0 -3.5625,-1.4375 -1.4375,-1.46875 -1.4375,-3.5625 0,-1.5 0.59375,-2.71875 0.59375,-1.21875 1.6875,-1.84375 h -6.03125 v -2.09375 H 406.125 v 2.09375 h -2.90625 q -1.59375,0.59375 -2.59375,1.84375 -0.96875,1.21875 -0.96875,2.71875 0,1.21875 0.84375,2.09375 0.875,0.84375 2.09375,0.84375 1.3125,0 2.8125,-1.28125 1.5,-1.3125 2.78125,-3.53125 v -8.3125 z"
         id="path133" />
      <path
         d="m 412.96875,231.0625 v -1.875 h 9.15625 v 1.875 h -3.5625 V 250 H 416.5 v -18.9375 z"
         id="path135" />
      <path
         d="m 441.25,248.53125 q -2.5,0 -4.84375,-2.0625 -2.34375,-2.09375 -4.09375,-5.84375 l 1.46875,-1.25 q 1.5625,3.375 3.5,5.25 1.96875,1.84375 3.96875,1.84375 1.3125,0 2.21875,-1.09375 0.90625,-1.125 0.90625,-2.65625 0,-1.46875 -1.03125,-2.5 -1.03125,-1.03125 -2.5,-1.03125 -0.46875,0 -1,0.0937 -0.5,0.0937 -1.09375,0.3125 l -0.8125,-1.875 q 1.875,-0.15625 3.3125,-1.34375 1.46875,-1.21875 1.46875,-2.59375 0,-1.125 -0.875,-1.90625 -0.84375,-0.8125 -2.03125,-0.8125 -1,0 -2.21875,0.78125 -1.21875,0.75 -2.375,2.125 l -1.4375,-1.4375 q 1.0625,-1.59375 2.65625,-2.46875 1.625,-0.875 3.375,-0.875 2.0625,0 3.5,1.34375 1.46875,1.3125 1.46875,3.25 0,1.125 -0.5,2.15625 -0.5,1.03125 -1.34375,1.78125 1.40625,0.84375 2.78125,1.25 1.375,0.40625 2.625,0.40625 0.3125,0 0.84375,-0.1875 0.53125,-0.21875 1.21875,-0.625 v -7.5 h -3.75 v -1.875 h 17.90625 v 1.875 h -3.53125 V 250 H 458.9375 V 231.0625 H 452.5 V 250 h -2.09375 v -9.375 q -0.5,0.4375 -1.03125,0.65625 -0.5,0.1875 -1.03125,0.1875 -0.875,0 -1.59375,-0.15625 -0.71875,-0.1875 -1.125,-0.46875 0.40625,0.34375 0.625,0.9375 0.21875,0.59375 0.21875,1.34375 0,2.25 -1.53125,3.84375 -1.5,1.5625 -3.6875,1.5625 z"
         id="path137" />
      <path
         d="m 463.71875,231.0625 v -1.875 h 24.25 v 1.875 h -11 v 5.625 q 0.6875,-1.15625 1.84375,-1.8125 1.15625,-0.6875 2.53125,-0.6875 2,0 3.375,1.65625 1.40625,1.625 1.40625,3.96875 0,2 -1.03125,3.96875 -1.03125,1.9375 -2.90625,3.5 l -1.875,-1.25 q 1.75,-1.21875 2.75,-2.875 1,-1.65625 1,-3.34375 0,-1.46875 -0.8125,-2.5 -0.78125,-1.03125 -1.90625,-1.03125 -1.4375,0 -2.6875,1.09375 -1.21875,1.09375 -1.6875,2.84375 V 250 h -2.0625 v -6.25 q -0.75,0.875 -1.84375,1.375 -1.0625,0.5 -2.3125,0.5 -2.25,0 -3.84375,-1.5625 -1.5625,-1.59375 -1.5625,-3.84375 0,-2.5 1.8125,-4.25 1.84375,-1.78125 4.40625,-1.78125 0.75,0 1.28125,0.125 0.5625,0.0937 0.8125,0.28125 L 473.25,236.6875 q -0.375,-0.21875 -0.8125,-0.3125 -0.40625,-0.0937 -0.875,-0.0937 -1.6875,0 -2.9375,1.15625 -1.21875,1.15625 -1.21875,2.78125 0,1.375 0.96875,2.375 1,0.96875 2.375,0.96875 1.1875,0 2.3125,-0.71875 1.125,-0.75 1.84375,-2 v -9.78125 z"
         id="path139" />
      <path
         d="m 487.125,231.0625 v -1.875 h 9.15625 v 1.875 h -3.5625 V 250 h -2.0625 v -18.9375 z"
         id="path141" />
      <path
         d="m 495.4375,231.0625 v -1.875 h 14.46875 v 1.875 h -2.8125 v 4.78125 q 0,1.9375 -1.3125,3.28125 -1.28125,1.3125 -3.0625,1.3125 -0.25,0 -0.6875,-0.0937 -0.40625,-0.125 -1,-0.34375 1.34375,2.34375 3.15625,4.5 1.84375,2.125 4.125,4.03125 L 507.09375,250 q -3.34375,-2.78125 -6.03125,-6.3125 -2.6875,-3.5625 -4.59375,-7.625 l 1.875,-1.03125 q 0.53125,1.5 1.71875,2.40625 1.21875,0.90625 2.65625,0.90625 0.9375,0 1.59375,-0.71875 Q 505,236.90625 505,235.84375 v -4.78125 z"
         id="path143" />
      <path
         d="m 511.8125,250 v -3.28125 h 2.65625 V 250 Z"
         id="path145" />
    </g>
  </g>
</svg>
