<?xml version="1.0" encoding="UTF-8" standalone="no"?>
<svg
   width="800"
   height="350"
   version="1.1"
   id="svg12"
   sodipodi:docname="shesha_history.svg"
   xmlns:inkscape="http://www.inkscape.org/namespaces/inkscape"
   xmlns:sodipodi="http://sodipodi.sourceforge.net/DTD/sodipodi-0.dtd"
   xmlns="http://www.w3.org/2000/svg"
   xmlns:svg="http://www.w3.org/2000/svg">
  <defs
     id="defs16" />
  <sodipodi:namedview
     id="namedview14"
     pagecolor="#ffffff"
     bordercolor="#000000"
     borderopacity="0.25"
     inkscape:showpageshadow="2"
     inkscape:pageopacity="0.0"
     inkscape:pagecheckerboard="0"
     inkscape:deskcolor="#d1d1d1" />
  <g
     font-family="Lohit Devanagari"
     font-size="32"
     text-anchor="middle"
     fill="#000"
     id="g10">
    <g
       aria-label="वेगाने वाहणारा काळ, इतिहास सांगतो गाथा,"
       id="text2">
      <path
         d="m 150.98437,81.0625 v -1.875 h 17.8125 v 1.875 h -3.5625 V 100 h -2.0625 v -6.65625 q -0.84375,1 -2,1.5625 -1.125,0.53125 -2.375,0.53125 -2.59375,0 -4.4375,-1.65625 -1.8125,-1.65625 -1.8125,-3.96875 0,-2.34375 1.8125,-3.96875 1.84375,-1.65625 4.4375,-1.65625 0.75,0 1.4375,0.21875 0.6875,0.1875 1.28125,0.625 l -1.0625,1.65625 q -0.375,-0.28125 -0.78125,-0.4375 -0.40625,-0.1875 -0.875,-0.1875 -1.71875,0 -2.9375,1.09375 -1.21875,1.09375 -1.21875,2.65625 0,1.4375 1.21875,2.5 1.21875,1.03125 2.9375,1.03125 1.21875,0 2.375,-0.8125 1.15625,-0.84375 2,-2.3125 V 81.0625 Z"
         id="path18" />
      <path
         d="M 162.73437,79.15625 155.04687,70 l 1.4375,-1.25 8.3125,10.40625 z"
         id="path20" />
      <path
         d="m 167.95312,81.0625 v -1.875 h 17 v 1.875 h -3.53125 V 100 h -2.0625 V 81.0625 h -5.21875 V 91.25 q 0,0.5 -0.3125,0.875 -0.3125,0.375 -0.71875,0.375 -0.78125,0 -2.46875,-1.9375 -1.6875,-1.96875 -1.6875,-2.84375 0,-0.3125 0.25,-0.5625 0.25,-0.25 0.5625,-0.25 h 1.46875 q 0.34375,0 0.59375,-0.3125 0.25,-0.3125 0.25,-0.75 V 81.0625 Z"
         id="path22" />
      <path
         d="m 184.10937,81.0625 v -1.875 h 9.15625 v 1.875 h -3.5625 V 100 h -2.0625 V 81.0625 Z"
         id="path24" />
      <path
         d="m 193.45312,87.53125 q 0,-0.4375 0.4375,-0.75 0.4375,-0.3125 1.03125,-0.3125 h 11 V 81.0625 h -13.5 v -1.875 h 19.125 v 1.875 h -3.53125 V 100 h -2.09375 V 88.5625 h -6.03125 q -0.5,0 -0.875,0.25 -0.375,0.25 -0.375,0.5625 v 2.09375 q 0,0.5 -0.3125,0.875 -0.3125,0.375 -0.71875,0.375 -0.71875,0 -2.4375,-2.15625 -1.71875,-2.1875 -1.71875,-3.03125 z"
         id="path26" />
      <path
         d="m 205.57812,79.1875 -7.6875,-9.15625 1.4375,-1.25 8.3125,10.40625 z"
         id="path28" />
      <path
         d="m 220.57812,81.0625 v -1.875 h 17.8125 v 1.875 h -3.5625 V 100 h -2.0625 v -6.65625 q -0.84375,1 -2,1.5625 -1.125,0.53125 -2.375,0.53125 -2.59375,0 -4.4375,-1.65625 -1.8125,-1.65625 -1.8125,-3.96875 0,-2.34375 1.8125,-3.96875 1.84375,-1.65625 4.4375,-1.65625 0.75,0 1.4375,0.21875 0.6875,0.1875 1.28125,0.625 l -1.0625,1.65625 q -0.375,-0.28125 -0.78125,-0.4375 -0.40625,-0.1875 -0.875,-0.1875 -1.71875,0 -2.9375,1.09375 -1.21875,1.09375 -1.21875,2.65625 0,1.4375 1.21875,2.5 1.21875,1.03125 2.9375,1.03125 1.21875,0 2.375,-0.8125 1.15625,-0.84375 2,-2.3125 V 81.0625 Z"
         id="path30" />
      <path
         d="m 237.54687,81.0625 v -1.875 h 9.15625 v 1.875 h -3.5625 V 100 h -2.0625 V 81.0625 Z"
         id="path32" />
      <path
         d="m 245.85937,81.0625 v -1.875 h 17.3125 v 1.875 h -3.34375 v 5 h -8.53125 q -0.40625,0 -0.71875,0.1875 -0.3125,0.1875 -0.3125,0.4375 0,0.84375 0.625,1.625 0.625,0.78125 1.65625,1.28125 0.65625,-0.28125 1.4375,-0.4375 0.8125,-0.1875 1.6875,-0.1875 2.34375,0 3.96875,1.34375 1.65625,1.3125 1.65625,3.25 0,1.0625 -0.4375,1.96875 -0.4375,0.875 -1.25,1.34375 l -1.65625,-1.4375 q 0.59375,-0.34375 0.90625,-0.84375 0.34375,-0.5 0.34375,-1.03125 0,-1.0625 -1.03125,-1.78125 -1.03125,-0.71875 -2.5,-0.71875 -2.25,0 -3.84375,1.03125 -1.5625,1.03125 -1.5625,2.5 0,1.90625 2.6875,3.25 2.6875,1.3125 6.46875,1.3125 l -0.4375,1.875 q -4.46875,0 -7.65625,-1.875 -3.15625,-1.90625 -3.15625,-4.5625 0,-1.21875 0.59375,-2.28125 0.625,-1.0625 1.6875,-1.6875 -1.0625,-0.90625 -1.6875,-1.9375 -0.59375,-1.03125 -0.59375,-2 0,-1.125 0.90625,-1.90625 0.9375,-0.8125 2.21875,-0.8125 h 6.46875 V 81.0625 Z"
         id="path34" />
      <path
         d="m 269.73437,92.9375 q 1.125,0 1.90625,-0.90625 0.78125,-0.9375 0.78125,-2.21875 v -8.75 h -5.625 v 8.75 q 0,1.28125 0.84375,2.21875 0.875,0.90625 2.09375,0.90625 z m 0,2.0625 q -2.09375,0 -3.5625,-1.5 -1.4375,-1.53125 -1.4375,-3.6875 v -8.75 h -2.40625 v -1.875 h 21.75 v 1.875 h -3.53125 V 100 h -2.09375 V 81.0625 h -3.9375 v 8.75 q 0,2.15625 -1.4375,3.6875 -1.40625,1.5 -3.34375,1.5 z"
         id="path36" />
      <path
         d="m 283.23437,81.0625 v -1.875 h 9.15625 v 1.875 h -3.5625 V 100 h -2.0625 V 81.0625 Z"
         id="path38" />
      <path
         d="m 291.54687,81.0625 v -1.875 h 14.46875 v 1.875 h -2.8125 v 4.78125 q 0,1.9375 -1.3125,3.28125 -1.28125,1.3125 -3.0625,1.3125 -0.25,0 -0.6875,-0.09375 -0.40625,-0.125 -1,-0.34375 1.34375,2.34375 3.15625,4.5 1.84375,2.125 4.125,4.03125 L 303.20312,100 q -3.34375,-2.78125 -6.03125,-6.3125 -2.6875,-3.5625 -4.59375,-7.625 l 1.875,-1.03125 q 0.53125,1.5 1.71875,2.40625 1.21875,0.90625 2.65625,0.90625 0.9375,0 1.59375,-0.71875 0.6875,-0.71875 0.6875,-1.78125 V 81.0625 Z"
         id="path40" />
      <path
         d="m 305.17187,81.0625 v -1.875 h 9.15625 v 1.875 h -3.5625 V 100 h -2.0625 V 81.0625 Z"
         id="path42" />
      <path
         d="m 323.35937,81.0625 v -1.875 h 24.25 v 1.875 h -11 v 5.625 q 0.6875,-1.15625 1.84375,-1.8125 1.15625,-0.6875 2.53125,-0.6875 2,0 3.375,1.65625 1.40625,1.625 1.40625,3.96875 0,2 -1.03125,3.96875 -1.03125,1.9375 -2.90625,3.5 l -1.875,-1.25 q 1.75,-1.21875 2.75,-2.875 1,-1.65625 1,-3.34375 0,-1.46875 -0.8125,-2.5 -0.78125,-1.03125 -1.90625,-1.03125 -1.4375,0 -2.6875,1.09375 -1.21875,1.09375 -1.6875,2.84375 V 100 h -2.0625 v -6.25 q -0.75,0.875 -1.84375,1.375 -1.0625,0.5 -2.3125,0.5 -2.25,0 -3.84375,-1.5625 -1.5625,-1.59375 -1.5625,-3.84375 0,-2.5 1.8125,-4.25 1.84375,-1.78125 4.40625,-1.78125 0.75,0 1.28125,0.125 0.5625,0.09375 0.8125,0.28125 l -0.40625,2.09375 q -0.375,-0.21875 -0.8125,-0.3125 -0.40625,-0.09375 -0.875,-0.09375 -1.6875,0 -2.9375,1.15625 -1.21875,1.15625 -1.21875,2.78125 0,1.375 0.96875,2.375 1,0.96875 2.375,0.96875 1.1875,0 2.3125,-0.71875 1.125,-0.75 1.84375,-2 V 81.0625 Z"
         id="path44" />
      <path
         d="m 346.76562,81.0625 v -1.875 h 9.15625 v 1.875 h -3.5625 V 100 h -2.0625 V 81.0625 Z"
         id="path46" />
      <path
         d="m 371.82812,95.84375 q 1.3125,0 2.21875,-1.3125 0.90625,-1.34375 0.90625,-3.28125 0,-1.78125 -0.90625,-3.0625 -0.90625,-1.28125 -2.21875,-1.28125 -1.125,0 -2.1875,1.21875 -1.0625,1.21875 -1.5625,3.125 0.75,2.09375 1.78125,3.34375 1.0625,1.25 1.96875,1.25 z M 362.48437,95.625 q 0.90625,0 1.875,-1.125 1,-1.15625 1.65625,-3.03125 -0.53125,-2.03125 -1.53125,-3.28125 -0.96875,-1.28125 -2,-1.28125 -1.46875,0 -2.5,1.34375 -1.03125,1.3125 -1.03125,3.1875 0,1.75 1.03125,2.96875 1.03125,1.21875 2.5,1.21875 z m -7.40625,-14.5625 v -1.875 h 23.78125 v 1.875 h -6.1875 v 3.96875 q 1.90625,0.3125 3.125,2.09375 1.25,1.75 1.25,4.125 0,2.6875 -1.53125,4.59375 -1.5,1.875 -3.6875,1.875 -1.28125,0 -2.59375,-1.125 -1.3125,-1.125 -2.1875,-3.03125 -0.875,1.90625 -2.125,3.03125 -1.25,1.125 -2.4375,1.125 -2.34375,0 -4,-1.8125 -1.625,-1.84375 -1.625,-4.46875 0,-2.6875 1.625,-4.53125 1.65625,-1.875 4,-1.875 1.4375,0 2.6875,1.03125 1.25,1 1.875,2.6875 0.59375,-1.53125 1.53125,-2.53125 0.9375,-1 2,-1.1875 V 81.0625 Z"
         id="path48" />
      <path
         d="m 378.98437,104 1.65625,-7.28125 h 3.03125 L 380.54687,104 Z"
         id="path50" />
      <path
         d="m 399.14062,81.0625 v -1.875 h 16.5625 v 1.875 h -3.625 v 5.40625 h -7.5 q -0.5,0 -0.875,0.25 -0.375,0.25 -0.375,0.59375 0,0.65625 1.3125,2 1.34375,1.3125 2.03125,1.3125 0.6875,0 2.0625,-0.5 1.375,-0.53125 2.09375,-0.53125 1.1875,0 2.03125,1.0625 0.875,1.03125 0.875,2.46875 0,2.59375 -1.59375,4.4375 -1.5625,1.8125 -3.8125,1.8125 0.78125,1.125 2.09375,2.125 1.3125,1 3.09375,1.84375 L 412.48437,105 q -2.25,-1.28125 -3.9375,-2.71875 -1.6875,-1.4375 -2.71875,-2.90625 -2.09375,0 -3.5625,-0.78125 -1.4375,-0.8125 -1.4375,-1.9375 0,-0.84375 0.59375,-1.4375 0.625,-0.625 1.5,-0.625 1.1875,0 2.34375,0.84375 1.1875,0.8125 2.03125,2.28125 1.78125,0 3.0625,-1.34375 1.28125,-1.375 1.28125,-3.25 0,-0.5625 -0.25,-1 -0.21875,-0.4375 -0.5625,-0.4375 -0.71875,0 -2.09375,0.53125 -1.375,0.5 -2.0625,0.5 -1.34375,0 -3.40625,-2.03125 -2.0625,-2.0625 -2.0625,-3.375 0,-1.21875 1,-2.0625 1,-0.84375 2.40625,-0.84375 h 5.1875 V 81.0625 Z"
         id="path52" />
      <path
         d="m 414.85937,81.0625 v -1.875 h 3.46875 q -0.0625,-0.03125 -0.0937,-1.125 0,-0.75 0,-1.6875 0,-2.78125 2.28125,-4.375 2.28125,-1.5625 6,-1.53125 3.90625,0 7.5,2.4375 3.59375,2.4375 5.8125,6.3125 h -2.46875 q -1.75,-3 -4.6875,-4.9375 -2.90625,-1.96875 -6.15625,-1.96875 -3.1875,0 -4.625,1.0625 -1.53125,1.125 -1.59375,3 -0.0312,1.28125 0,1.6875 0.15625,0.78125 0.0937,1.125 h 3.625 v 1.875 h -3.5625 V 100 h -2.0625 V 81.0625 Z"
         id="path54" />
      <path
         d="m 424.92187,89.8125 q 0,-2 1.28125,-3.375 1.28125,-1.40625 3.0625,-1.40625 h 8.125 V 81.0625 h -14.21875 v -1.875 h 19.84375 v 1.875 h -3.53125 V 100 h -2.09375 V 87.09375 h -8.125 q -0.9375,0 -1.625,0.8125 -0.65625,0.78125 -0.65625,1.90625 0,2 1.40625,4.28125 1.4375,2.28125 4,4.4375 l -1.25,1.46875 q -2.9375,-2.5 -4.59375,-5.15625 -1.625,-2.65625 -1.625,-5.03125 z"
         id="path56" />
      <path
         d="m 442.17187,81.0625 v -1.875 h 17.3125 v 1.875 h -3.34375 v 5 h -8.53125 q -0.40625,0 -0.71875,0.1875 -0.3125,0.1875 -0.3125,0.4375 0,0.84375 0.625,1.625 0.625,0.78125 1.65625,1.28125 0.65625,-0.28125 1.4375,-0.4375 0.8125,-0.1875 1.6875,-0.1875 2.34375,0 3.96875,1.34375 1.65625,1.3125 1.65625,3.25 0,1.0625 -0.4375,1.96875 -0.4375,0.875 -1.25,1.34375 l -1.65625,-1.4375 q 0.59375,-0.34375 0.90625,-0.84375 0.34375,-0.5 0.34375,-1.03125 0,-1.0625 -1.03125,-1.78125 -1.03125,-0.71875 -2.5,-0.71875 -2.25,0 -3.84375,1.03125 -1.5625,1.03125 -1.5625,2.5 0,1.90625 2.6875,3.25 2.6875,1.3125 6.46875,1.3125 l -0.4375,1.875 q -4.46875,0 -7.65625,-1.875 -3.15625,-1.90625 -3.15625,-4.5625 0,-1.21875 0.59375,-2.28125 0.625,-1.0625 1.6875,-1.6875 -1.0625,-0.90625 -1.6875,-1.9375 -0.59375,-1.03125 -0.59375,-2 0,-1.125 0.90625,-1.90625 0.9375,-0.8125 2.21875,-0.8125 h 6.46875 V 81.0625 Z"
         id="path58" />
      <path
         d="m 458.64062,81.0625 v -1.875 h 9.15625 v 1.875 h -3.5625 V 100 h -2.0625 V 81.0625 Z"
         id="path60" />
      <path
         d="m 466.95312,81.0625 v -1.875 h 23 v 1.875 h -3.53125 V 100 h -2.09375 V 90 h -8.875 q -0.84375,0.625 -1.9375,0.625 -0.25,0 -0.5,-0.0625 -0.21875,-0.0625 -0.34375,-0.125 l 6.25,8.71875 -1.65625,1.0625 -9.375,-13.3125 1.6875,-1.25 q 0.65625,1.40625 1.53125,2.25 0.90625,0.84375 1.78125,0.84375 0.875,0 1.46875,-0.59375 0.625,-0.59375 0.625,-1.46875 v -5.625 z m 9.90625,6.875 h 7.46875 v -6.875 h -7.28125 v 5.625 q 0,0.65625 -0.1875,1.25 z"
         id="path62" />
      <path
         d="m 498.98437,81.0625 v -1.875 h 23 v 1.875 h -3.53125 V 100 h -2.09375 V 90 h -8.875 q -0.84375,0.625 -1.9375,0.625 -0.25,0 -0.5,-0.0625 -0.21875,-0.0625 -0.34375,-0.125 l 6.25,8.71875 -1.65625,1.0625 -9.375,-13.3125 1.6875,-1.25 q 0.65625,1.40625 1.53125,2.25 0.90625,0.84375 1.78125,0.84375 0.875,0 1.46875,-0.59375 0.625,-0.59375 0.625,-1.46875 v -5.625 z m 9.90625,6.875 h 7.46875 v -6.875 h -7.28125 v 5.625 q 0,0.65625 -0.1875,1.25 z"
         id="path64" />
      <path
         d="m 521.14062,81.0625 v -1.875 h 9.15625 v 1.875 h -3.5625 V 100 h -2.0625 V 81.0625 Z"
         id="path66" />
      <path
         d="m 524.32812,74 v -2.90625 h 3.125 V 74 Z"
         id="path68" />
      <path
         d="m 529.45312,81.0625 v -1.875 h 17 v 1.875 h -3.53125 V 100 h -2.0625 V 81.0625 h -5.21875 V 91.25 q 0,0.5 -0.3125,0.875 -0.3125,0.375 -0.71875,0.375 -0.78125,0 -2.46875,-1.9375 -1.6875,-1.96875 -1.6875,-2.84375 0,-0.3125 0.25,-0.5625 0.25,-0.25 0.5625,-0.25 h 1.46875 q 0.34375,0 0.59375,-0.3125 0.25,-0.3125 0.25,-0.75 V 81.0625 Z"
         id="path70" />
      <path
         d="m 547.35937,89.8125 q 0,-2 1.28125,-3.375 1.28125,-1.40625 3.0625,-1.40625 h 8.125 V 81.0625 h -14.21875 v -1.875 h 19.84375 v 1.875 h -3.53125 V 100 h -2.09375 V 87.09375 h -8.125 q -0.9375,0 -1.625,0.8125 -0.65625,0.78125 -0.65625,1.90625 0,2 1.40625,4.28125 1.4375,2.28125 4,4.4375 l -1.25,1.46875 q -2.9375,-2.5 -4.59375,-5.15625 -1.625,-2.65625 -1.625,-5.03125 z"
         id="path72" />
      <path
         d="m 564.60937,81.0625 v -1.875 h 3.375 l -7.53125,-9.15625 1.4375,-1.25 8.15625,10.40625 h 3.71875 v 1.875 h -3.5625 V 100 h -2.0625 V 81.0625 Z"
         id="path74" />
      <path
         d="m 582.79687,81.0625 v -1.875 h 17 v 1.875 h -3.53125 V 100 h -2.0625 V 81.0625 h -5.21875 V 91.25 q 0,0.5 -0.3125,0.875 -0.3125,0.375 -0.71875,0.375 -0.78125,0 -2.46875,-1.9375 -1.6875,-1.96875 -1.6875,-2.84375 0,-0.3125 0.25,-0.5625 0.25,-0.25 0.5625,-0.25 h 1.46875 q 0.34375,0 0.59375,-0.3125 0.25,-0.3125 0.25,-0.75 V 81.0625 Z"
         id="path76" />
      <path
         d="m 598.95312,81.0625 v -1.875 h 9.15625 v 1.875 h -3.5625 V 100 h -2.0625 V 81.0625 Z"
         id="path78" />
      <path
         d="m 617.04687,95.84375 q -2.96875,0 -5.28125,-2.0625 -2.3125,-2.0625 -2.84375,-5.21875 0.34375,0.125 1.03125,0.15625 0.71875,0.03125 2.09375,0.03125 2.25,0 3.8125,-1.28125 1.59375,-1.28125 1.59375,-3.0625 0,-1.5625 -1,-2.65625 -0.96875,-1.09375 -2.34375,-1.09375 -1.1875,0 -2.0625,0.65625 -0.84375,0.65625 -0.84375,1.625 0,0.78125 0.71875,1.34375 0.75,0.53125 1.78125,0.53125 v 2.09375 q -2.0625,0 -3.3125,-1.09375 -1.25,-1.09375 -1.25,-2.875 0,-1.78125 1.4375,-3.0625 1.46875,-1.3125 3.53125,-1.3125 2.25,0 3.84375,1.71875 1.59375,1.6875 1.59375,4.125 0,2.65625 -2.25,4.5625 -2.25,1.875 -5.46875,1.875 0.625,1.34375 2.03125,2.125 1.4375,0.78125 3.1875,0.78125 1.6875,0 3.46875,-1.03125 1.8125,-1.03125 3.375,-2.90625 v -8.75 h -2.0625 v -1.875 h 7.6875 v 1.875 h -3.53125 V 100 h -2.09375 v -7.5 q -1.5625,1.59375 -3.375,2.46875 -1.78125,0.875 -3.46875,0.875 z"
         id="path80" />
      <path
         d="m 628.67187,81.0625 v -1.875 h 9.15625 v 1.875 h -3.5625 V 100 h -2.0625 V 81.0625 Z"
         id="path82" />
      <path
         d="m 637.92187,104 1.65625,-7.28125 h 3.03125 L 639.48437,104 Z"
         id="path84" />
    </g>
    <g
       aria-label="युगांच्या प्रवाहात, बदलतात जगाच्या माथा."
       id="text4">
      <path
         d="m 168.32812,143.96875 q 1.625,0 3.0625,-0.875 1.46875,-0.90625 2.34375,-2.46875 v -9.5625 h -7.0625 q 0.78125,0.96875 1.21875,2.0625 0.4375,1.0625 0.4375,2.09375 0,1.8125 -1.4375,3.21875 -1.40625,1.40625 -3.5625,1.78125 0.3125,1.625 1.71875,2.6875 1.40625,1.0625 3.28125,1.0625 z m -8.4375,-12.90625 v -1.875 h 19.46875 v 1.875 h -3.53125 V 150 h -2.09375 v -6.4375 q -1.21875,1.1875 -2.625,1.84375 -1.375,0.625 -2.78125,0.625 -3,0 -5.15625,-2.15625 -2.125,-2.1875 -2.125,-5.3125 2.375,0 3.78125,-0.90625 1.40625,-0.9375 1.40625,-2.4375 0,-1 -0.53125,-2.0625 -0.53125,-1.09375 -1.53125,-2.09375 z"
         id="path87" />
      <path
         d="m 173.07812,159.625 q -2.25,0 -4.6875,-1.09375 -2.46875,-1.0625 -4.875,-3.0625 l 1.46875,-1.875 q 2.28125,1.90625 4.375,2.90625 2.0625,1.03125 3.71875,1.03125 1.8125,0 3.09375,-0.90625 1.28125,-0.90625 1.28125,-2.1875 0,-1.0625 -0.65625,-1.78125 -0.6875,-0.71875 -1.625,-0.71875 -1,0 -1.875,0.375 -0.875,0.375 -1.46875,1.0625 l -1.4375,-1.4375 q 0.8125,-1 2.0625,-1.53125 1.25,-0.5625 2.71875,-0.5625 1.78125,0 3.09375,1.3125 1.28125,1.34375 1.28125,3.28125 0,2.15625 -1.90625,3.65625 -1.90625,1.53125 -4.5625,1.53125 z"
         id="path89" />
      <path
         d="m 178.51562,131.0625 v -1.875 h 17 v 1.875 h -3.53125 V 150 h -2.0625 v -18.9375 h -5.21875 V 141.25 q 0,0.5 -0.3125,0.875 -0.3125,0.375 -0.71875,0.375 -0.78125,0 -2.46875,-1.9375 -1.6875,-1.96875 -1.6875,-2.84375 0,-0.3125 0.25,-0.5625 0.25,-0.25 0.5625,-0.25 h 1.46875 q 0.34375,0 0.59375,-0.3125 0.25,-0.3125 0.25,-0.75 v -4.78125 z"
         id="path91" />
      <path
         d="m 194.67187,131.0625 v -1.875 h 9.15625 v 1.875 h -3.5625 V 150 h -2.0625 v -18.9375 z"
         id="path93" />
      <path
         d="m 197.85937,124 v -2.90625 h 3.125 V 124 Z"
         id="path95" />
      <path
         d="m 202.98437,131.0625 v -1.875 h 15.75 v 1.875 z m 9.53125,15.1875 q -2.09375,0 -3.5625,-1.4375 -1.4375,-1.46875 -1.4375,-3.5625 0,-1.40625 0.59375,-2.59375 0.59375,-1.21875 1.6875,-1.96875 h -6.03125 v -2.09375 h 12.0625 v 2.09375 h -2.5 q -1.6875,0.78125 -2.71875,2.03125 -1.03125,1.25 -1.03125,2.53125 0,1.21875 0.84375,2.09375 0.875,0.84375 2.09375,0.84375 1.40625,0 3.1875,-1.65625 1.78125,-1.6875 3.46875,-4.59375 v 3.3125 q -1.625,2.34375 -3.40625,3.6875 -1.75,1.3125 -3.25,1.3125 z"
         id="path97" />
      <path
         d="m 226.35937,143.96875 q 1.625,0 3.0625,-0.875 1.46875,-0.90625 2.34375,-2.46875 v -9.5625 h -7.0625 q 0.78125,0.96875 1.21875,2.0625 0.4375,1.0625 0.4375,2.09375 0,1.8125 -1.4375,3.21875 -1.40625,1.40625 -3.5625,1.78125 0.3125,1.625 1.71875,2.6875 1.40625,1.0625 3.28125,1.0625 z m -8.4375,-12.90625 v -1.875 h 19.46875 v 1.875 h -3.53125 V 150 h -2.09375 v -6.4375 q -1.21875,1.1875 -2.625,1.84375 -1.375,0.625 -2.78125,0.625 -3,0 -5.15625,-2.15625 -2.125,-2.1875 -2.125,-5.3125 2.375,0 3.78125,-0.90625 1.40625,-0.9375 1.40625,-2.4375 0,-1 -0.53125,-2.0625 -0.53125,-1.09375 -1.53125,-2.09375 z"
         id="path99" />
      <path
         d="m 236.54687,131.0625 v -1.875 h 9.15625 v 1.875 h -3.5625 V 150 h -2.0625 v -18.9375 z"
         id="path101" />
      <path
         d="m 263.57812,142.09375 q 0.0937,0 0.5,-0.0937 l 0.75,-0.125 3.125,-2.0625 v -8.75 h -7.90625 v 7.5 q 0,1.4375 1.03125,2.5 1.0625,1.03125 2.5,1.03125 z m -8.84375,-11.03125 v -1.875 h 18.84375 v 1.875 h -3.53125 V 150 h -2.09375 v -7.90625 L 257.54687,150 l -1.25,-1.65625 6.25,-4.59375 q -2,-0.5 -3.28125,-1.9375 -1.28125,-1.46875 -1.28125,-3.25 v -7.5 z"
         id="path103" />
      <path
         d="m 272.73437,131.0625 v -1.875 h 17.8125 v 1.875 h -3.5625 V 150 h -2.0625 v -6.65625 q -0.84375,1 -2,1.5625 -1.125,0.53125 -2.375,0.53125 -2.59375,0 -4.4375,-1.65625 -1.8125,-1.65625 -1.8125,-3.96875 0,-2.34375 1.8125,-3.96875 1.84375,-1.65625 4.4375,-1.65625 0.75,0 1.4375,0.21875 0.6875,0.1875 1.28125,0.625 l -1.0625,1.65625 q -0.375,-0.28125 -0.78125,-0.4375 -0.40625,-0.1875 -0.875,-0.1875 -1.71875,0 -2.9375,1.09375 -1.21875,1.09375 -1.21875,2.65625 0,1.4375 1.21875,2.5 1.21875,1.03125 2.9375,1.03125 1.21875,0 2.375,-0.8125 1.15625,-0.84375 2,-2.3125 v -9.15625 z"
         id="path105" />
      <path
         d="m 289.70312,131.0625 v -1.875 h 9.15625 v 1.875 h -3.5625 V 150 h -2.0625 v -18.9375 z"
         id="path107" />
      <path
         d="m 298.01562,131.0625 v -1.875 h 17.3125 v 1.875 h -3.34375 v 5 h -8.53125 q -0.40625,0 -0.71875,0.1875 -0.3125,0.1875 -0.3125,0.4375 0,0.84375 0.625,1.625 0.625,0.78125 1.65625,1.28125 0.65625,-0.28125 1.4375,-0.4375 0.8125,-0.1875 1.6875,-0.1875 2.34375,0 3.96875,1.34375 1.65625,1.3125 1.65625,3.25 0,1.0625 -0.4375,1.96875 -0.4375,0.875 -1.25,1.34375 l -1.65625,-1.4375 q 0.59375,-0.34375 0.90625,-0.84375 0.34375,-0.5 0.34375,-1.03125 0,-1.0625 -1.03125,-1.78125 -1.03125,-0.71875 -2.5,-0.71875 -2.25,0 -3.84375,1.03125 -1.5625,1.03125 -1.5625,2.5 0,1.90625 2.6875,3.25 2.6875,1.3125 6.46875,1.3125 l -0.4375,1.875 q -4.46875,0 -7.65625,-1.875 -3.15625,-1.90625 -3.15625,-4.5625 0,-1.21875 0.59375,-2.28125 0.625,-1.0625 1.6875,-1.6875 -1.0625,-0.90625 -1.6875,-1.9375 -0.59375,-1.03125 -0.59375,-2 0,-1.125 0.90625,-1.90625 0.9375,-0.8125 2.21875,-0.8125 h 6.46875 v -2.90625 z"
         id="path109" />
      <path
         d="m 314.48437,131.0625 v -1.875 h 9.15625 v 1.875 h -3.5625 V 150 h -2.0625 v -18.9375 z"
         id="path111" />
      <path
         d="m 324.54687,139.8125 q 0,-2 1.28125,-3.375 1.28125,-1.40625 3.0625,-1.40625 h 8.125 v -3.96875 h -14.21875 v -1.875 h 19.84375 v 1.875 h -3.53125 V 150 h -2.09375 v -12.90625 h -8.125 q -0.9375,0 -1.625,0.8125 -0.65625,0.78125 -0.65625,1.90625 0,2 1.40625,4.28125 1.4375,2.28125 4,4.4375 l -1.25,1.46875 q -2.9375,-2.5 -4.59375,-5.15625 -1.625,-2.65625 -1.625,-5.03125 z"
         id="path113" />
      <path
         d="m 342.73437,154 1.65625,-7.28125 h 3.03125 L 344.29687,154 Z"
         id="path115" />
      <path
         d="m 370.32812,143.34375 q 0.75,0 1.375,-0.1875 0.625,-0.21875 1.125,-0.65625 l -5.625,-4.5625 q -0.28125,0.375 -0.46875,0.90625 -0.15625,0.5 -0.15625,1.15625 0,1.375 1.09375,2.375 1.125,0.96875 2.65625,0.96875 z M 364.51562,140 q 0,-2.46875 1.8125,-4.25 1.84375,-1.78125 4.40625,-1.78125 0.8125,0 1.5,0.1875 0.6875,0.15625 1.21875,0.4375 l -0.625,1.6875 q -0.46875,-0.21875 -1,-0.3125 -0.5,-0.125 -1.09375,-0.125 -0.90625,0 -1.5625,0.25 -0.625,0.21875 -0.9375,0.59375 l 6.0625,4.5625 0.625,-0.8125 v -9.375 h -12.03125 v -1.875 h 17.625 v 1.875 h -3.53125 V 150 h -2.0625 v -6.65625 q -1,1 -2.1875,1.5625 -1.1875,0.53125 -2.40625,0.53125 -2.40625,0 -4.125,-1.59375 Q 364.51562,142.25 364.51562,140 Z"
         id="path117" />
      <path
         d="m 379.42187,131.0625 v -1.875 h 18 v 1.875 h -3.3125 v 5.40625 h -8.125 q -1.21875,0 -2.0625,0.875 -0.84375,0.84375 -0.84375,2.03125 0,2.25 2.375,3.84375 2.375,1.59375 5.75,1.59375 0,-1.46875 0.65625,-2.5 0.65625,-1.0625 1.625,-1.0625 0.6875,0 1.15625,0.5 0.5,0.46875 0.5,1.1875 0,0.8125 -0.5,1.65625 -0.5,0.84375 -1.375,1.4375 l 2.28125,3.96875 -1.875,0.84375 -2.28125,-4.1875 q -4.3125,0 -7.375,-2.125 -3.03125,-2.15625 -3.03125,-5.15625 0,-2.0625 1.4375,-3.5 1.46875,-1.46875 3.5625,-1.46875 h 6.03125 v -3.34375 z"
         id="path119" />
      <path
         d="m 396.57812,131.0625 v -1.875 h 23.53125 v 1.875 h -3.53125 V 150 h -2.0625 v -12.46875 q -1.8125,0 -3.375,1.625 -1.5625,1.59375 -2.25,4.1875 l -1.875,-0.625 q 0.15625,-1 0.5,-1.8125 0.34375,-0.8125 0.75,-1.3125 -0.65625,-1 -1.65625,-1.53125 -1,-0.53125 -2.09375,-0.53125 -1.71875,0 -2.9375,1.21875 -1.21875,1.21875 -1.21875,2.9375 0,1.875 1.875,3.71875 1.90625,1.8125 5,2.9375 l -0.84375,1.875 q -3.65625,-1.34375 -5.90625,-3.6875 -2.21875,-2.34375 -2.21875,-4.84375 0,-2.59375 1.8125,-4.40625 1.84375,-1.84375 4.4375,-1.84375 1.53125,0 2.90625,0.625 1.375,0.59375 2.28125,1.65625 0.9375,-1.0625 2.1875,-1.65625 1.25,-0.625 2.625,-0.625 v -4.375 z"
         id="path121" />
      <path
         d="m 421.04687,139.8125 q 0,-2 1.28125,-3.375 1.28125,-1.40625 3.0625,-1.40625 h 8.125 v -3.96875 h -14.21875 v -1.875 h 19.84375 v 1.875 h -3.53125 V 150 h -2.09375 v -12.90625 h -8.125 q -0.9375,0 -1.625,0.8125 -0.65625,0.78125 -0.65625,1.90625 0,2 1.40625,4.28125 1.4375,2.28125 4,4.4375 l -1.25,1.46875 q -2.9375,-2.5 -4.59375,-5.15625 -1.625,-2.65625 -1.625,-5.03125 z"
         id="path123" />
      <path
         d="m 438.29687,131.0625 v -1.875 h 9.15625 v 1.875 h -3.5625 V 150 h -2.0625 v -18.9375 z"
         id="path125" />
      <path
         d="m 448.35937,139.8125 q 0,-2 1.28125,-3.375 1.28125,-1.40625 3.0625,-1.40625 h 8.125 v -3.96875 h -14.21875 v -1.875 h 19.84375 v 1.875 h -3.53125 V 150 h -2.09375 v -12.90625 h -8.125 q -0.9375,0 -1.625,0.8125 -0.65625,0.78125 -0.65625,1.90625 0,2 1.40625,4.28125 1.4375,2.28125 4,4.4375 l -1.25,1.46875 q -2.9375,-2.5 -4.59375,-5.15625 -1.625,-2.65625 -1.625,-5.03125 z"
         id="path127" />
      <path
         d="m 485.54687,147.5 q -2.25,0 -4.6875,-3 -2.4375,-3.03125 -4.25,-8.03125 l 1.875,-0.8125 q 1.59375,4.4375 3.53125,7.125 1.9375,2.65625 3.53125,2.65625 1.03125,0 1.75,-0.78125 0.75,-0.8125 0.75,-1.9375 0,-1.78125 -0.9375,-3.65625 -0.90625,-1.90625 -2.59375,-3.625 h 8.9375 v -4.375 h -17.96875 v -1.875 h 23.59375 v 1.875 h -3.53125 V 150 h -2.09375 v -12.46875 h -5 q 0.84375,1.15625 1.25,2.5 0.40625,1.3125 0.40625,2.6875 0,2 -1.34375,3.40625 -1.3125,1.375 -3.21875,1.375 z"
         id="path129" />
      <path
         d="m 498.23437,131.0625 v -1.875 h 17 v 1.875 h -3.53125 V 150 h -2.0625 v -18.9375 h -5.21875 V 141.25 q 0,0.5 -0.3125,0.875 -0.3125,0.375 -0.71875,0.375 -0.78125,0 -2.46875,-1.9375 -1.6875,-1.96875 -1.6875,-2.84375 0,-0.3125 0.25,-0.5625 0.25,-0.25 0.5625,-0.25 h 1.46875 q 0.34375,0 0.59375,-0.3125 0.25,-0.3125 0.25,-0.75 v -4.78125 z"
         id="path131" />
      <path
         d="m 514.39062,131.0625 v -1.875 h 9.15625 v 1.875 h -3.5625 V 150 h -2.0625 v -18.9375 z"
         id="path133" />
      <path
         d="m 522.70312,131.0625 v -1.875 h 15.75 v 1.875 z m 9.53125,15.1875 q -2.09375,0 -3.5625,-1.4375 -1.4375,-1.46875 -1.4375,-3.5625 0,-1.40625 0.59375,-2.59375 0.59375,-1.21875 1.6875,-1.96875 h -6.03125 v -2.09375 h 12.0625 v 2.09375 h -2.5 q -1.6875,0.78125 -2.71875,2.03125 -1.03125,1.25 -1.03125,2.53125 0,1.21875 0.84375,2.09375 0.875,0.84375 2.09375,0.84375 1.40625,0 3.1875,-1.65625 1.78125,-1.6875 3.46875,-4.59375 v 3.3125 q -1.625,2.34375 -3.40625,3.6875 -1.75,1.3125 -3.25,1.3125 z"
         id="path135" />
      <path
         d="m 546.07812,143.96875 q 1.625,0 3.0625,-0.875 1.46875,-0.90625 2.34375,-2.46875 v -9.5625 h -7.0625 q 0.78125,0.96875 1.21875,2.0625 0.4375,1.0625 0.4375,2.09375 0,1.8125 -1.4375,3.21875 -1.40625,1.40625 -3.5625,1.78125 0.3125,1.625 1.71875,2.6875 1.40625,1.0625 3.28125,1.0625 z m -8.4375,-12.90625 v -1.875 h 19.46875 v 1.875 h -3.53125 V 150 h -2.09375 v -6.4375 q -1.21875,1.1875 -2.625,1.84375 -1.375,0.625 -2.78125,0.625 -3,0 -5.15625,-2.15625 -2.125,-2.1875 -2.125,-5.3125 2.375,0 3.78125,-0.90625 1.40625,-0.9375 1.40625,-2.4375 0,-1 -0.53125,-2.0625 -0.53125,-1.09375 -1.53125,-2.09375 z"
         id="path137" />
      <path
         d="m 556.26562,131.0625 v -1.875 h 9.15625 v 1.875 h -3.5625 V 150 h -2.0625 v -18.9375 z"
         id="path139" />
      <path
         d="m 580.26562,137.9375 h 7.5 v -6.875 h -7.5 z m -5.8125,-6.875 v -1.875 h 18.9375 v 1.875 h -3.5625 V 150 h -2.0625 v -10 h -7.5 v 1.46875 q 0,0.5 -0.1875,0.875 -0.1875,0.375 -0.4375,0.375 -0.71875,0 -2.4375,-1.5625 -1.71875,-1.5625 -1.71875,-2.1875 0,-0.40625 0.3125,-0.71875 0.3125,-0.3125 0.71875,-0.3125 h 1.6875 v -6.875 z"
         id="path141" />
      <path
         d="m 592.54687,131.0625 v -1.875 h 9.15625 v 1.875 h -3.5625 V 150 h -2.0625 v -18.9375 z"
         id="path143" />
      <path
         d="m 610.64062,145.84375 q -2.96875,0 -5.28125,-2.0625 -2.3125,-2.0625 -2.84375,-5.21875 0.34375,0.125 1.03125,0.15625 0.71875,0.0312 2.09375,0.0312 2.25,0 3.8125,-1.28125 1.59375,-1.28125 1.59375,-3.0625 0,-1.5625 -1,-2.65625 -0.96875,-1.09375 -2.34375,-1.09375 -1.1875,0 -2.0625,0.65625 -0.84375,0.65625 -0.84375,1.625 0,0.78125 0.71875,1.34375 0.75,0.53125 1.78125,0.53125 v 2.09375 q -2.0625,0 -3.3125,-1.09375 -1.25,-1.09375 -1.25,-2.875 0,-1.78125 1.4375,-3.0625 1.46875,-1.3125 3.53125,-1.3125 2.25,0 3.84375,1.71875 1.59375,1.6875 1.59375,4.125 0,2.65625 -2.25,4.5625 -2.25,1.875 -5.46875,1.875 0.625,1.34375 2.03125,2.125 1.4375,0.78125 3.1875,0.78125 1.6875,0 3.46875,-1.03125 1.8125,-1.03125 3.375,-2.90625 v -8.75 h -2.0625 v -1.875 h 7.6875 v 1.875 h -3.53125 V 150 h -2.09375 v -7.5 q -1.5625,1.59375 -3.375,2.46875 -1.78125,0.875 -3.46875,0.875 z"
         id="path145" />
      <path
         d="m 622.26562,131.0625 v -1.875 h 9.15625 v 1.875 h -3.5625 V 150 h -2.0625 v -18.9375 z"
         id="path147" />
      <path
         d="m 633.32812,150 v -3.28125 h 2.65625 V 150 Z"
         id="path149" />
    </g>
    <g
       aria-label="नवीन शिल्पे कोरली, जुनी धूसर झाली,"
       id="text6">
      <path
         d="m 180.29687,187.53125 q 0,-0.4375 0.4375,-0.75 0.4375,-0.3125 1.03125,-0.3125 h 11 v -5.40625 h -13.5 v -1.875 h 19.125 v 1.875 h -3.53125 V 200 h -2.09375 v -11.4375 h -6.03125 q -0.5,0 -0.875,0.25 -0.375,0.25 -0.375,0.5625 v 2.09375 q 0,0.5 -0.3125,0.875 -0.3125,0.375 -0.71875,0.375 -0.71875,0 -2.4375,-2.15625 -1.71875,-2.1875 -1.71875,-3.03125 z"
         id="path152" />
      <path
         d="m 197.54687,181.0625 v -1.875 h 17.8125 v 1.875 h -3.5625 V 200 h -2.0625 v -6.65625 q -0.84375,1 -2,1.5625 -1.125,0.53125 -2.375,0.53125 -2.59375,0 -4.4375,-1.65625 -1.8125,-1.65625 -1.8125,-3.96875 0,-2.34375 1.8125,-3.96875 1.84375,-1.65625 4.4375,-1.65625 0.75,0 1.4375,0.21875 0.6875,0.1875 1.28125,0.625 l -1.0625,1.65625 q -0.375,-0.28125 -0.78125,-0.4375 -0.40625,-0.1875 -0.875,-0.1875 -1.71875,0 -2.9375,1.09375 -1.21875,1.09375 -1.21875,2.65625 0,1.4375 1.21875,2.5 1.21875,1.03125 2.9375,1.03125 1.21875,0 2.375,-0.8125 1.15625,-0.84375 2,-2.3125 v -9.15625 z"
         id="path154" />
      <path
         d="m 214.51562,181.0625 v -1.875 h 3.53125 q -0.53125,-3 -1.96875,-4.9375 -1.40625,-1.9375 -3.03125,-1.9375 -1.21875,0 -2.0625,0.8125 -0.84375,0.78125 -0.84375,1.90625 0,1 0.4375,2 0.4375,0.96875 1.21875,1.75 h -2.28125 q -0.71875,-0.71875 -1.09375,-1.6875 -0.375,-0.96875 -0.375,-2.0625 0,-1.90625 1.46875,-3.21875 1.4375,-1.34375 3.53125,-1.34375 2.40625,0 4.40625,2.46875 2,2.46875 2.65625,6.25 h 3.5625 v 1.875 h -3.5625 V 200 h -2.0625 v -18.9375 z"
         id="path156" />
      <path
         d="m 223.85937,187.53125 q 0,-0.4375 0.4375,-0.75 0.4375,-0.3125 1.03125,-0.3125 h 11 v -5.40625 h -13.5 v -1.875 h 19.125 v 1.875 h -3.53125 V 200 h -2.09375 v -11.4375 h -6.03125 q -0.5,0 -0.875,0.25 -0.375,0.25 -0.375,0.5625 v 2.09375 q 0,0.5 -0.3125,0.875 -0.3125,0.375 -0.71875,0.375 -0.71875,0 -2.4375,-2.15625 -1.71875,-2.1875 -1.71875,-3.03125 z"
         id="path158" />
      <path
         d="m 250.98437,181.0625 v -1.875 h 3.46875 q -0.0625,-0.0312 -0.0937,-1.125 0,-0.75 0,-1.6875 0,-2.78125 2.28125,-4.375 2.28125,-1.5625 6,-1.53125 5.78125,0 9.375,2.4375 3.59375,2.4375 5.8125,6.3125 h -2.46875 q -1.75,-3 -4.6875,-4.9375 -2.90625,-1.96875 -8.03125,-1.96875 -3.1875,0 -4.625,1.0625 -1.53125,1.125 -1.59375,3 -0.0312,1.28125 0,1.6875 0.15625,0.78125 0.0937,1.125 h 3.625 v 1.875 h -3.5625 V 200 h -2.0625 v -18.9375 z"
         id="path160" />
      <path
         d="m 271.48437,181.0625 v -1.875 h 9.78125 v 1.875 h -3.53125 V 200 h -2.09375 v -18.9375 z m -5.625,4.78125 q 1.03125,0 1.9375,-0.625 0.90625,-0.625 1.40625,-1.65625 -0.46875,-1.21875 -1.28125,-1.96875 -0.78125,-0.75 -1.65625,-0.75 -1.03125,0 -1.78125,0.8125 -0.71875,0.78125 -0.71875,1.90625 0,0.96875 0.59375,1.625 0.625,0.65625 1.5,0.65625 z M 270.01562,200 l -9.34375,-7.90625 1.03125,-1.46875 q 0.90625,0.75 1.4375,1.125 0.53125,0.34375 0.84375,0.34375 2.34375,0 3.96875,-1.8125 1.65625,-1.84375 1.65625,-4.4375 -0.53125,0.96875 -1.5625,1.53125 -1.03125,0.5625 -2.1875,0.5625 -1.71875,0 -2.9375,-1.28125 -1.21875,-1.3125 -1.21875,-3.09375 0,-2 1.3125,-3.375 1.34375,-1.40625 3.25,-1.40625 2.25,0 3.84375,2.09375 1.59375,2.0625 1.59375,4.96875 0,3.21875 -1.90625,5.46875 -1.90625,2.25 -4.5625,2.25 l 6.03125,4.96875 z"
         id="path162" />
      <path
         d="m 280.42187,181.0625 v -1.875 h 17.71875 v 1.875 z M 290.01562,200 q -3.5625,-1.28125 -5.75,-3.6875 -2.15625,-2.4375 -2.15625,-5.0625 0,-2.40625 1.8125,-4.09375 1.84375,-1.71875 4.4375,-1.71875 1.28125,0 2.625,0.65625 1.375,0.625 2.5625,1.84375 1,-1 2.28125,-1.53125 1.3125,-0.5625 2.71875,-0.5625 v 2.09375 q -2.125,0 -3.875,1.5 -1.75,1.5 -2.34375,3.90625 l -1.875,-0.84375 q 0.4375,-1.1875 0.84375,-1.96875 0.4375,-0.8125 0.8125,-1.15625 -0.75,-0.875 -1.75,-1.34375 -0.96875,-0.5 -2,-0.5 -1.71875,0 -2.9375,1.09375 -1.21875,1.09375 -1.21875,2.625 0,2.09375 1.8125,4.0625 1.84375,1.9375 4.84375,3.03125 z"
         id="path164" />
      <path
         d="m 305.10937,191.875 q 1.28125,0 2.40625,-0.78125 1.125,-0.78125 1.75,-2.125 v -7.90625 h -7.6875 v 7.5 q 0,1.375 1.03125,2.34375 1.03125,0.96875 2.5,0.96875 z m -5.625,-3.3125 v -7.5 h -2.1875 v -1.875 h 17.59375 v 1.875 h -3.53125 V 200 h -2.09375 v -7.90625 q -0.90625,0.90625 -2,1.40625 -1.0625,0.46875 -2.15625,0.46875 -2.34375,0 -4,-1.5625 -1.625,-1.59375 -1.625,-3.84375 z"
         id="path166" />
      <path
         d="m 308.85937,179.1875 -7.6875,-9.15625 1.4375,-1.25 8.3125,10.40625 z"
         id="path168" />
      <path
         d="m 323.92187,181.0625 v -1.875 h 24.25 v 1.875 h -11 v 5.625 q 0.6875,-1.15625 1.84375,-1.8125 1.15625,-0.6875 2.53125,-0.6875 2,0 3.375,1.65625 1.40625,1.625 1.40625,3.96875 0,2 -1.03125,3.96875 -1.03125,1.9375 -2.90625,3.5 l -1.875,-1.25 q 1.75,-1.21875 2.75,-2.875 1,-1.65625 1,-3.34375 0,-1.46875 -0.8125,-2.5 -0.78125,-1.03125 -1.90625,-1.03125 -1.4375,0 -2.6875,1.09375 -1.21875,1.09375 -1.6875,2.84375 V 200 h -2.0625 v -6.25 q -0.75,0.875 -1.84375,1.375 -1.0625,0.5 -2.3125,0.5 -2.25,0 -3.84375,-1.5625 -1.5625,-1.59375 -1.5625,-3.84375 0,-2.5 1.8125,-4.25 1.84375,-1.78125 4.40625,-1.78125 0.75,0 1.28125,0.125 0.5625,0.0937 0.8125,0.28125 l -0.40625,2.09375 q -0.375,-0.21875 -0.8125,-0.3125 -0.40625,-0.0937 -0.875,-0.0937 -1.6875,0 -2.9375,1.15625 -1.21875,1.15625 -1.21875,2.78125 0,1.375 0.96875,2.375 1,0.96875 2.375,0.96875 1.1875,0 2.3125,-0.71875 1.125,-0.75 1.84375,-2 v -9.78125 z"
         id="path170" />
      <path
         d="m 347.32812,181.0625 v -1.875 h 3.375 l -7.53125,-9.15625 1.4375,-1.25 8.15625,10.40625 h 3.71875 v 1.875 h -3.5625 V 200 h -2.0625 v -18.9375 z"
         id="path172" />
      <path
         d="m 355.64062,181.0625 v -1.875 h 14.46875 v 1.875 h -2.8125 v 4.78125 q 0,1.9375 -1.3125,3.28125 -1.28125,1.3125 -3.0625,1.3125 -0.25,0 -0.6875,-0.0937 -0.40625,-0.125 -1,-0.34375 1.34375,2.34375 3.15625,4.5 1.84375,2.125 4.125,4.03125 L 367.29687,200 q -3.34375,-2.78125 -6.03125,-6.3125 -2.6875,-3.5625 -4.59375,-7.625 l 1.875,-1.03125 q 0.53125,1.5 1.71875,2.40625 1.21875,0.90625 2.65625,0.90625 0.9375,0 1.59375,-0.71875 0.6875,-0.71875 0.6875,-1.78125 v -4.78125 z"
         id="path174" />
      <path
         d="m 369.26562,181.0625 v -1.875 h 23.53125 v 1.875 h -3.53125 V 200 h -2.0625 v -12.46875 q -1.8125,0 -3.375,1.625 -1.5625,1.59375 -2.25,4.1875 l -1.875,-0.625 q 0.15625,-1 0.5,-1.8125 0.34375,-0.8125 0.75,-1.3125 -0.65625,-1 -1.65625,-1.53125 -1,-0.53125 -2.09375,-0.53125 -1.71875,0 -2.9375,1.21875 -1.21875,1.21875 -1.21875,2.9375 0,1.875 1.875,3.71875 1.90625,1.8125 5,2.9375 l -0.84375,1.875 q -3.65625,-1.34375 -5.90625,-3.6875 -2.21875,-2.34375 -2.21875,-4.84375 0,-2.59375 1.8125,-4.40625 1.84375,-1.84375 4.4375,-1.84375 1.53125,0 2.90625,0.625 1.375,0.59375 2.28125,1.65625 0.9375,-1.0625 2.1875,-1.65625 1.25,-0.625 2.625,-0.625 v -4.375 z"
         id="path176" />
      <path
         d="m 391.98437,181.0625 v -1.875 h 3.53125 q -0.53125,-3 -1.96875,-4.9375 -1.40625,-1.9375 -3.03125,-1.9375 -1.21875,0 -2.0625,0.8125 -0.84375,0.78125 -0.84375,1.90625 0,1 0.4375,2 0.4375,0.96875 1.21875,1.75 h -2.28125 q -0.71875,-0.71875 -1.09375,-1.6875 -0.375,-0.96875 -0.375,-2.0625 0,-1.90625 1.46875,-3.21875 1.4375,-1.34375 3.53125,-1.34375 2.40625,0 4.40625,2.46875 2,2.46875 2.65625,6.25 h 3.5625 v 1.875 h -3.5625 V 200 h -2.0625 v -18.9375 z"
         id="path178" />
      <path
         d="m 401.23437,204 1.65625,-7.28125 h 3.03125 L 402.79687,204 Z"
         id="path180" />
      <path
         d="m 431.45312,197.5 q -2.25,0 -4.6875,-3 -2.4375,-3.03125 -4.25,-8.03125 l 1.875,-0.8125 q 1.59375,4.4375 3.53125,7.125 1.9375,2.65625 3.53125,2.65625 1.03125,0 1.75,-0.78125 0.75,-0.8125 0.75,-1.9375 0,-1.78125 -0.9375,-3.65625 -0.90625,-1.90625 -2.59375,-3.625 h 8.9375 v -4.375 h -17.96875 v -1.875 h 23.59375 v 1.875 h -3.53125 V 200 h -2.09375 v -12.46875 h -5 q 0.84375,1.15625 1.25,2.5 0.40625,1.3125 0.40625,2.6875 0,2 -1.34375,3.40625 -1.3125,1.375 -3.21875,1.375 z"
         id="path182" />
      <path
         d="m 438.29687,208.53125 q -2.25,0 -4.6875,-1.09375 -2.46875,-1.0625 -4.875,-3.0625 l 1.46875,-1.875 q 2.28125,1.90625 4.375,2.90625 2.0625,1.03125 3.71875,1.03125 1.8125,0 3.09375,-0.90625 1.28125,-0.90625 1.28125,-2.1875 0,-1.0625 -0.65625,-1.78125 -0.6875,-0.71875 -1.625,-0.71875 -1,0 -1.875,0.375 -0.875,0.375 -1.46875,1.0625 l -1.4375,-1.4375 q 0.8125,-1 2.0625,-1.53125 1.25,-0.5625 2.71875,-0.5625 1.78125,0 3.09375,1.3125 1.28125,1.34375 1.28125,3.28125 0,2.15625 -1.90625,3.65625 -1.90625,1.53125 -4.5625,1.53125 z"
         id="path184" />
      <path
         d="m 445.17187,187.53125 q 0,-0.4375 0.4375,-0.75 0.4375,-0.3125 1.03125,-0.3125 h 11 v -5.40625 h -13.5 v -1.875 h 19.125 v 1.875 h -3.53125 V 200 h -2.09375 v -11.4375 h -6.03125 q -0.5,0 -0.875,0.25 -0.375,0.25 -0.375,0.5625 v 2.09375 q 0,0.5 -0.3125,0.875 -0.3125,0.375 -0.71875,0.375 -0.71875,0 -2.4375,-2.15625 -1.71875,-2.1875 -1.71875,-3.03125 z"
         id="path186" />
      <path
         d="m 462.42187,181.0625 v -1.875 h 3.53125 q -0.53125,-3 -1.96875,-4.9375 -1.40625,-1.9375 -3.03125,-1.9375 -1.21875,0 -2.0625,0.8125 -0.84375,0.78125 -0.84375,1.90625 0,1 0.4375,2 0.4375,0.96875 1.21875,1.75 h -2.28125 q -0.71875,-0.71875 -1.09375,-1.6875 -0.375,-0.96875 -0.375,-2.0625 0,-1.90625 1.46875,-3.21875 1.4375,-1.34375 3.53125,-1.34375 2.40625,0 4.40625,2.46875 2,2.46875 2.65625,6.25 h 3.5625 v 1.875 h -3.5625 V 200 h -2.0625 v -18.9375 z"
         id="path188" />
      <path
         d="m 489.64062,196.46875 q -2.34375,0 -4,-1.28125 -1.625,-1.3125 -1.625,-3.09375 0,-1.125 0.4375,-2.0625 0.4375,-0.9375 1.21875,-1.46875 -1.65625,-1.15625 -2.59375,-2.65625 -0.9375,-1.5 -0.9375,-2.96875 0,-1.78125 1.21875,-3.0625 1.25,-1.3125 2.9375,-1.3125 1.78125,0 2.875,0.96875 1.09375,0.9375 1.09375,2.5625 0,1.375 -1.125,2.375 -1.09375,0.96875 -2.625,0.96875 v -2.09375 q 0.6875,0 1.15625,-0.375 0.5,-0.375 0.5,-0.875 0,-0.5625 -0.5625,-1 -0.53125,-0.4375 -1.3125,-0.4375 -0.875,0 -1.46875,0.65625 -0.59375,0.65625 -0.59375,1.625 0,1.21875 0.8125,2.375 0.84375,1.15625 2.28125,2 0.6875,-0.28125 1.46875,-0.4375 0.78125,-0.1875 1.65625,-0.1875 h 1.25 l 1.25,2.0625 h -2.28125 q -1.90625,0 -3.25,1 -1.34375,0.96875 -1.34375,2.34375 0,0.96875 1.03125,1.625 1.0625,0.65625 2.53125,0.65625 1.65625,0 3.34375,-1.09375 1.71875,-1.09375 3.09375,-3.0625 v -9.15625 h -4.5625 v -1.875 h 10.1875 v 1.875 h -3.53125 V 200 h -2.09375 v -6.875 q -1.34375,1.59375 -3.03125,2.46875 -1.65625,0.875 -3.40625,0.875 z"
         id="path190" />
      <path
         d="m 496.48437,207.90625 q -1.78125,0 -3.0625,-1.3125 -1.3125,-1.28125 -1.3125,-3.0625 0,-2.0625 1.53125,-3.53125 1.5,-1.46875 3.65625,-1.46875 2.71875,0 5.21875,2.34375 2.53125,2.375 3.9375,6.1875 l -1.84375,0.84375 q -1.21875,-3.28125 -3.21875,-5.28125 -2,-2 -4.09375,-2 -1.28125,0 -2.1875,0.84375 -0.90625,0.875 -0.90625,2.0625 0,0.96875 0.65625,1.625 0.65625,0.65625 1.625,0.65625 0.5,0 1.09375,-0.28125 0.59375,-0.25 1.1875,-0.75 l 1.03125,1.875 q -0.875,0.625 -1.71875,0.9375 -0.84375,0.3125 -1.59375,0.3125 z"
         id="path192" />
      <path
         d="m 500.85937,181.0625 v -1.875 h 23 v 1.875 h -3.53125 V 200 h -2.09375 v -10 h -8.875 q -0.84375,0.625 -1.9375,0.625 -0.25,0 -0.5,-0.0625 -0.21875,-0.0625 -0.34375,-0.125 l 6.25,8.71875 -1.65625,1.0625 -9.375,-13.3125 1.6875,-1.25 q 0.65625,1.40625 1.53125,2.25 0.90625,0.84375 1.78125,0.84375 0.875,0 1.46875,-0.59375 0.625,-0.59375 0.625,-1.46875 v -5.625 z m 9.90625,6.875 h 7.46875 v -6.875 h -7.28125 v 5.625 q 0,0.65625 -0.1875,1.25 z"
         id="path194" />
      <path
         d="m 523.01562,181.0625 v -1.875 h 14.46875 v 1.875 h -2.8125 v 4.78125 q 0,1.9375 -1.3125,3.28125 -1.28125,1.3125 -3.0625,1.3125 -0.25,0 -0.6875,-0.0937 -0.40625,-0.125 -1,-0.34375 1.34375,2.34375 3.15625,4.5 1.84375,2.125 4.125,4.03125 L 534.67187,200 q -3.34375,-2.78125 -6.03125,-6.3125 -2.6875,-3.5625 -4.59375,-7.625 l 1.875,-1.03125 q 0.53125,1.5 1.71875,2.40625 1.21875,0.90625 2.65625,0.90625 0.9375,0 1.59375,-0.71875 0.6875,-0.71875 0.6875,-1.78125 v -4.78125 z"
         id="path196" />
      <path
         d="m 561.85937,190.4375 q 0.46875,0 1.15625,-0.21875 0.6875,-0.21875 1.5625,-0.625 v -8.53125 h -5.84375 v 5 h -7.28125 q -0.40625,0 -0.71875,0.1875 -0.3125,0.1875 -0.3125,0.4375 0,0.78125 0.9375,1.96875 0.9375,1.15625 1.5625,1.15625 0.625,0 1.75,-0.40625 1.15625,-0.4375 1.78125,-0.4375 0.59375,0 1.125,0.1875 0.53125,0.15625 0.96875,0.4375 0.5625,0.40625 1.40625,0.625 0.875,0.21875 1.90625,0.21875 z m -5,11.03125 q -1.375,-0.625 -2.53125,-1.4375 -1.125,-0.78125 -2.03125,-1.6875 -1.625,0 -2.8125,-0.71875 -1.15625,-0.75 -1.15625,-1.78125 0,-0.71875 0.46875,-1.1875 0.5,-0.46875 1.21875,-0.46875 0.875,0 1.75,0.53125 0.90625,0.53125 1.5625,1.53125 1.78125,-0.3125 2.96875,-1.40625 1.1875,-1.125 1.1875,-2.53125 0,-0.5 -0.3125,-0.875 -0.3125,-0.375 -0.71875,-0.375 -0.625,0 -1.78125,0.40625 -1.125,0.40625 -1.75,0.40625 -1.125,0 -2.875,-1.9375 -1.71875,-1.96875 -1.71875,-3.25 0,-1.125 0.90625,-1.90625 0.9375,-0.8125 2.21875,-0.8125 h 5.21875 v -2.90625 h -10.15625 v -1.875 h 23.65625 v 1.875 h -3.53125 V 200 h -2.0625 v -8.3125 q -0.6875,0.28125 -1.375,0.46875 -0.6875,0.15625 -1.34375,0.15625 -0.59375,0 -1.15625,-0.0937 -0.5625,-0.125 -1.125,-0.34375 0,2.34375 -1.375,3.875 -1.375,1.53125 -3.84375,1.96875 1.0625,0.875 1.9375,1.46875 0.90625,0.5625 1.625,0.8125 z"
         id="path198" />
      <path
         d="m 569.35937,181.0625 v -1.875 h 9.15625 v 1.875 h -3.5625 V 200 h -2.0625 v -18.9375 z"
         id="path200" />
      <path
         d="m 577.67187,181.0625 v -1.875 h 23.53125 v 1.875 h -3.53125 V 200 h -2.0625 v -12.46875 q -1.8125,0 -3.375,1.625 -1.5625,1.59375 -2.25,4.1875 l -1.875,-0.625 q 0.15625,-1 0.5,-1.8125 0.34375,-0.8125 0.75,-1.3125 -0.65625,-1 -1.65625,-1.53125 -1,-0.53125 -2.09375,-0.53125 -1.71875,0 -2.9375,1.21875 -1.21875,1.21875 -1.21875,2.9375 0,1.875 1.875,3.71875 1.90625,1.8125 5,2.9375 l -0.84375,1.875 q -3.65625,-1.34375 -5.90625,-3.6875 -2.21875,-2.34375 -2.21875,-4.84375 0,-2.59375 1.8125,-4.40625 1.84375,-1.84375 4.4375,-1.84375 1.53125,0 2.90625,0.625 1.375,0.59375 2.28125,1.65625 0.9375,-1.0625 2.1875,-1.65625 1.25,-0.625 2.625,-0.625 v -4.375 z"
         id="path202" />
      <path
         d="m 600.39062,181.0625 v -1.875 h 3.53125 q -0.53125,-3 -1.96875,-4.9375 -1.40625,-1.9375 -3.03125,-1.9375 -1.21875,0 -2.0625,0.8125 -0.84375,0.78125 -0.84375,1.90625 0,1 0.4375,2 0.4375,0.96875 1.21875,1.75 h -2.28125 q -0.71875,-0.71875 -1.09375,-1.6875 -0.375,-0.96875 -0.375,-2.0625 0,-1.90625 1.46875,-3.21875 1.4375,-1.34375 3.53125,-1.34375 2.40625,0 4.40625,2.46875 2,2.46875 2.65625,6.25 h 3.5625 v 1.875 h -3.5625 V 200 h -2.0625 v -18.9375 z"
         id="path204" />
      <path
         d="m 609.64062,204 1.65625,-7.28125 h 3.03125 L 611.20312,204 Z"
         id="path206" />
    </g>
    <g
       aria-label="गतीच्या गतीने, इतिहासाची कहाणी सांगता येईल तेवढीच."
       id="text8">
      <path
         d="m 77.75,231.0625 v -1.875 h 17 v 1.875 H 91.21875 V 250 h -2.0625 V 231.0625 H 83.9375 V 241.25 q 0,0.5 -0.3125,0.875 -0.3125,0.375 -0.71875,0.375 -0.78125,0 -2.46875,-1.9375 -1.6875,-1.96875 -1.6875,-2.84375 0,-0.3125 0.25,-0.5625 0.25,-0.25 0.5625,-0.25 h 1.46875 q 0.34375,0 0.59375,-0.3125 0.25,-0.3125 0.25,-0.75 v -4.78125 z"
         id="path209" />
      <path
         d="m 95.65625,239.8125 q 0,-2 1.28125,-3.375 1.28125,-1.40625 3.0625,-1.40625 h 8.125 V 231.0625 H 93.90625 v -1.875 H 113.75 v 1.875 h -3.53125 V 250 H 108.125 V 237.09375 H 100 q -0.9375,0 -1.625,0.8125 -0.65625,0.78125 -0.65625,1.90625 0,2 1.40625,4.28125 1.4375,2.28125 4,4.4375 L 101.875,250 q -2.9375,-2.5 -4.59375,-5.15625 -1.625,-2.65625 -1.625,-5.03125 z"
         id="path211" />
      <path
         d="m 112.90625,231.0625 v -1.875 h 3.53125 q -0.53125,-3 -1.96875,-4.9375 -1.40625,-1.9375 -3.03125,-1.9375 -1.21875,0 -2.0625,0.8125 -0.84375,0.78125 -0.84375,1.90625 0,1 0.4375,2 0.4375,0.96875 1.21875,1.75 h -2.28125 q -0.71875,-0.71875 -1.09375,-1.6875 -0.375,-0.96875 -0.375,-2.0625 0,-1.90625 1.46875,-3.21875 1.4375,-1.34375 3.53125,-1.34375 2.40625,0 4.40625,2.46875 2,2.46875 2.65625,6.25 h 3.5625 v 1.875 H 118.5 V 250 h -2.0625 v -18.9375 z"
         id="path213" />
      <path
         d="m 121.21875,231.0625 v -1.875 h 15.75 v 1.875 z M 130.75,246.25 q -2.09375,0 -3.5625,-1.4375 -1.4375,-1.46875 -1.4375,-3.5625 0,-1.40625 0.59375,-2.59375 0.59375,-1.21875 1.6875,-1.96875 H 122 v -2.09375 h 12.0625 v 2.09375 h -2.5 q -1.6875,0.78125 -2.71875,2.03125 -1.03125,1.25 -1.03125,2.53125 0,1.21875 0.84375,2.09375 0.875,0.84375 2.09375,0.84375 1.40625,0 3.1875,-1.65625 1.78125,-1.6875 3.46875,-4.59375 v 3.3125 q -1.625,2.34375 -3.40625,3.6875 -1.75,1.3125 -3.25,1.3125 z"
         id="path215" />
      <path
         d="m 144.59375,243.96875 q 1.625,0 3.0625,-0.875 Q 149.125,242.1875 150,240.625 v -9.5625 h -7.0625 q 0.78125,0.96875 1.21875,2.0625 0.4375,1.0625 0.4375,2.09375 0,1.8125 -1.4375,3.21875 -1.40625,1.40625 -3.5625,1.78125 0.3125,1.625 1.71875,2.6875 1.40625,1.0625 3.28125,1.0625 z m -8.4375,-12.90625 v -1.875 H 155.625 v 1.875 h -3.53125 V 250 H 150 v -6.4375 q -1.21875,1.1875 -2.625,1.84375 -1.375,0.625 -2.78125,0.625 -3,0 -5.15625,-2.15625 -2.125,-2.1875 -2.125,-5.3125 2.375,0 3.78125,-0.90625 1.40625,-0.9375 1.40625,-2.4375 0,-1 -0.53125,-2.0625 -0.53125,-1.09375 -1.53125,-2.09375 z"
         id="path217" />
      <path
         d="m 154.78125,231.0625 v -1.875 h 9.15625 v 1.875 H 160.375 V 250 h -2.0625 v -18.9375 z"
         id="path219" />
      <path
         d="m 172.96875,231.0625 v -1.875 h 17 v 1.875 H 186.4375 V 250 h -2.0625 v -18.9375 h -5.21875 V 241.25 q 0,0.5 -0.3125,0.875 -0.3125,0.375 -0.71875,0.375 -0.78125,0 -2.46875,-1.9375 -1.6875,-1.96875 -1.6875,-2.84375 0,-0.3125 0.25,-0.5625 0.25,-0.25 0.5625,-0.25 H 176.25 q 0.34375,0 0.59375,-0.3125 0.25,-0.3125 0.25,-0.75 v -4.78125 z"
         id="path221" />
      <path
         d="m 190.875,239.8125 q 0,-2 1.28125,-3.375 1.28125,-1.40625 3.0625,-1.40625 h 8.125 V 231.0625 H 189.125 v -1.875 h 19.84375 v 1.875 H 205.4375 V 250 h -2.09375 v -12.90625 h -8.125 q -0.9375,0 -1.625,0.8125 -0.65625,0.78125 -0.65625,1.90625 0,2 1.40625,4.28125 1.4375,2.28125 4,4.4375 l -1.25,1.46875 q -2.9375,-2.5 -4.59375,-5.15625 -1.625,-2.65625 -1.625,-5.03125 z"
         id="path223" />
      <path
         d="m 208.125,231.0625 v -1.875 h 3.53125 q -0.53125,-3 -1.96875,-4.9375 -1.40625,-1.9375 -3.03125,-1.9375 -1.21875,0 -2.0625,0.8125 -0.84375,0.78125 -0.84375,1.90625 0,1 0.4375,2 0.4375,0.96875 1.21875,1.75 H 203.125 q -0.71875,-0.71875 -1.09375,-1.6875 -0.375,-0.96875 -0.375,-2.0625 0,-1.90625 1.46875,-3.21875 1.4375,-1.34375 3.53125,-1.34375 2.40625,0 4.40625,2.46875 2,2.46875 2.65625,6.25 h 3.5625 v 1.875 h -3.5625 V 250 h -2.0625 v -18.9375 z"
         id="path225" />
      <path
         d="m 217.46875,237.53125 q 0,-0.4375 0.4375,-0.75 0.4375,-0.3125 1.03125,-0.3125 h 11 v -5.40625 h -13.5 v -1.875 h 19.125 v 1.875 h -3.53125 V 250 h -2.09375 v -11.4375 h -6.03125 q -0.5,0 -0.875,0.25 -0.375,0.25 -0.375,0.5625 v 2.09375 q 0,0.5 -0.3125,0.875 -0.3125,0.375 -0.71875,0.375 -0.71875,0 -2.4375,-2.15625 -1.71875,-2.1875 -1.71875,-3.03125 z"
         id="path227" />
      <path
         d="m 229.59375,229.1875 -7.6875,-9.15625 1.4375,-1.25 8.3125,10.40625 z"
         id="path229" />
      <path
         d="m 235.65625,254 1.65625,-7.28125 h 3.03125 L 237.21875,254 Z"
         id="path231" />
      <path
         d="m 255.8125,231.0625 v -1.875 h 16.5625 v 1.875 h -3.625 v 5.40625 h -7.5 q -0.5,0 -0.875,0.25 -0.375,0.25 -0.375,0.59375 0,0.65625 1.3125,2 1.34375,1.3125 2.03125,1.3125 0.6875,0 2.0625,-0.5 1.375,-0.53125 2.09375,-0.53125 1.1875,0 2.03125,1.0625 0.875,1.03125 0.875,2.46875 0,2.59375 -1.59375,4.4375 -1.5625,1.8125 -3.8125,1.8125 0.78125,1.125 2.09375,2.125 1.3125,1 3.09375,1.84375 L 269.15625,255 q -2.25,-1.28125 -3.9375,-2.71875 -1.6875,-1.4375 -2.71875,-2.90625 -2.09375,0 -3.5625,-0.78125 -1.4375,-0.8125 -1.4375,-1.9375 0,-0.84375 0.59375,-1.4375 0.625,-0.625 1.5,-0.625 1.1875,0 2.34375,0.84375 1.1875,0.8125 2.03125,2.28125 1.78125,0 3.0625,-1.34375 1.28125,-1.375 1.28125,-3.25 0,-0.5625 -0.25,-1 -0.21875,-0.4375 -0.5625,-0.4375 -0.71875,0 -2.09375,0.53125 -1.375,0.5 -2.0625,0.5 -1.34375,0 -3.40625,-2.03125 -2.0625,-2.0625 -2.0625,-3.375 0,-1.21875 1,-2.0625 1,-0.84375 2.40625,-0.84375 h 5.1875 v -3.34375 z"
         id="path233" />
      <path
         d="m 271.53125,231.0625 v -1.875 H 275 q -0.0625,-0.0312 -0.0937,-1.125 0,-0.75 0,-1.6875 0,-2.78125 2.28125,-4.375 2.28125,-1.5625 6,-1.53125 3.90625,0 7.5,2.4375 3.59375,2.4375 5.8125,6.3125 h -2.46875 q -1.75,-3 -4.6875,-4.9375 -2.90625,-1.96875 -6.15625,-1.96875 -3.1875,0 -4.625,1.0625 -1.53125,1.125 -1.59375,3 -0.0312,1.28125 0,1.6875 0.15625,0.78125 0.0937,1.125 h 3.625 v 1.875 H 277.125 V 250 h -2.0625 v -18.9375 z"
         id="path235" />
      <path
         d="m 281.59375,239.8125 q 0,-2 1.28125,-3.375 1.28125,-1.40625 3.0625,-1.40625 h 8.125 v -3.96875 h -14.21875 v -1.875 h 19.84375 v 1.875 h -3.53125 V 250 h -2.09375 v -12.90625 h -8.125 q -0.9375,0 -1.625,0.8125 -0.65625,0.78125 -0.65625,1.90625 0,2 1.40625,4.28125 1.4375,2.28125 4,4.4375 L 287.8125,250 q -2.9375,-2.5 -4.59375,-5.15625 -1.625,-2.65625 -1.625,-5.03125 z"
         id="path237" />
      <path
         d="m 298.84375,231.0625 v -1.875 h 17.3125 v 1.875 h -3.34375 v 5 h -8.53125 q -0.40625,0 -0.71875,0.1875 -0.3125,0.1875 -0.3125,0.4375 0,0.84375 0.625,1.625 0.625,0.78125 1.65625,1.28125 0.65625,-0.28125 1.4375,-0.4375 0.8125,-0.1875 1.6875,-0.1875 2.34375,0 3.96875,1.34375 1.65625,1.3125 1.65625,3.25 0,1.0625 -0.4375,1.96875 -0.4375,0.875 -1.25,1.34375 l -1.65625,-1.4375 q 0.59375,-0.34375 0.90625,-0.84375 0.34375,-0.5 0.34375,-1.03125 0,-1.0625 -1.03125,-1.78125 -1.03125,-0.71875 -2.5,-0.71875 -2.25,0 -3.84375,1.03125 -1.5625,1.03125 -1.5625,2.5 0,1.90625 2.6875,3.25 2.6875,1.3125 6.46875,1.3125 l -0.4375,1.875 q -4.46875,0 -7.65625,-1.875 -3.15625,-1.90625 -3.15625,-4.5625 0,-1.21875 0.59375,-2.28125 0.625,-1.0625 1.6875,-1.6875 -1.0625,-0.90625 -1.6875,-1.9375 -0.59375,-1.03125 -0.59375,-2 0,-1.125 0.90625,-1.90625 0.9375,-0.8125 2.21875,-0.8125 H 310.75 v -2.90625 z"
         id="path239" />
      <path
         d="m 315.3125,231.0625 v -1.875 h 9.15625 v 1.875 h -3.5625 V 250 h -2.0625 v -18.9375 z"
         id="path241" />
      <path
         d="m 323.625,231.0625 v -1.875 h 23 v 1.875 h -3.53125 V 250 H 341 v -10 h -8.875 q -0.84375,0.625 -1.9375,0.625 -0.25,0 -0.5,-0.0625 -0.21875,-0.0625 -0.34375,-0.125 l 6.25,8.71875 -1.65625,1.0625 -9.375,-13.3125 1.6875,-1.25 q 0.65625,1.40625 1.53125,2.25 0.90625,0.84375 1.78125,0.84375 0.875,0 1.46875,-0.59375 0.625,-0.59375 0.625,-1.46875 v -5.625 z m 9.90625,6.875 H 341 v -6.875 h -7.28125 v 5.625 q 0,0.65625 -0.1875,1.25 z"
         id="path243" />
      <path
         d="m 345.78125,231.0625 v -1.875 h 9.15625 v 1.875 H 351.375 V 250 h -2.0625 v -18.9375 z"
         id="path245" />
      <path
         d="m 354.09375,231.0625 v -1.875 h 20.75 v 1.875 H 371.3125 V 250 h -2.09375 v -7.5 q -1.25,1.75 -2.71875,2.75 -1.46875,1 -2.875,1 -2.09375,0 -3.5625,-1.4375 -1.4375,-1.46875 -1.4375,-3.5625 0,-1.5 0.59375,-2.71875 0.59375,-1.21875 1.6875,-1.84375 H 354.875 v -2.09375 h 12.28125 v 2.09375 H 364.25 q -1.59375,0.59375 -2.59375,1.84375 -0.96875,1.21875 -0.96875,2.71875 0,1.21875 0.84375,2.09375 0.875,0.84375 2.09375,0.84375 1.3125,0 2.8125,-1.28125 1.5,-1.3125 2.78125,-3.53125 v -8.3125 z"
         id="path247" />
      <path
         d="m 374,231.0625 v -1.875 h 3.53125 q -0.53125,-3 -1.96875,-4.9375 -1.40625,-1.9375 -3.03125,-1.9375 -1.21875,0 -2.0625,0.8125 -0.84375,0.78125 -0.84375,1.90625 0,1 0.4375,2 0.4375,0.96875 1.21875,1.75 H 369 q -0.71875,-0.71875 -1.09375,-1.6875 -0.375,-0.96875 -0.375,-2.0625 0,-1.90625 1.46875,-3.21875 1.4375,-1.34375 3.53125,-1.34375 2.40625,0 4.40625,2.46875 2,2.46875 2.65625,6.25 h 3.5625 v 1.875 h -3.5625 V 250 h -2.0625 v -18.9375 z"
         id="path249" />
      <path
         d="m 392.1875,231.0625 v -1.875 h 24.25 v 1.875 h -11 v 5.625 q 0.6875,-1.15625 1.84375,-1.8125 1.15625,-0.6875 2.53125,-0.6875 2,0 3.375,1.65625 1.40625,1.625 1.40625,3.96875 0,2 -1.03125,3.96875 -1.03125,1.9375 -2.90625,3.5 l -1.875,-1.25 q 1.75,-1.21875 2.75,-2.875 1,-1.65625 1,-3.34375 0,-1.46875 -0.8125,-2.5 -0.78125,-1.03125 -1.90625,-1.03125 -1.4375,0 -2.6875,1.09375 -1.21875,1.09375 -1.6875,2.84375 V 250 h -2.0625 v -6.25 q -0.75,0.875 -1.84375,1.375 -1.0625,0.5 -2.3125,0.5 -2.25,0 -3.84375,-1.5625 -1.5625,-1.59375 -1.5625,-3.84375 0,-2.5 1.8125,-4.25 1.84375,-1.78125 4.40625,-1.78125 0.75,0 1.28125,0.125 0.5625,0.0937 0.8125,0.28125 l -0.40625,2.09375 q -0.375,-0.21875 -0.8125,-0.3125 -0.40625,-0.0937 -0.875,-0.0937 -1.6875,0 -2.9375,1.15625 -1.21875,1.15625 -1.21875,2.78125 0,1.375 0.96875,2.375 1,0.96875 2.375,0.96875 1.1875,0 2.3125,-0.71875 1.125,-0.75 1.84375,-2 v -9.78125 z"
         id="path251" />
      <path
         d="m 415.59375,231.0625 v -1.875 h 17.3125 v 1.875 h -3.34375 v 5 h -8.53125 q -0.40625,0 -0.71875,0.1875 -0.3125,0.1875 -0.3125,0.4375 0,0.84375 0.625,1.625 0.625,0.78125 1.65625,1.28125 0.65625,-0.28125 1.4375,-0.4375 0.8125,-0.1875 1.6875,-0.1875 2.34375,0 3.96875,1.34375 1.65625,1.3125 1.65625,3.25 0,1.0625 -0.4375,1.96875 -0.4375,0.875 -1.25,1.34375 l -1.65625,-1.4375 q 0.59375,-0.34375 0.90625,-0.84375 0.34375,-0.5 0.34375,-1.03125 0,-1.0625 -1.03125,-1.78125 -1.03125,-0.71875 -2.5,-0.71875 -2.25,0 -3.84375,1.03125 -1.5625,1.03125 -1.5625,2.5 0,1.90625 2.6875,3.25 2.6875,1.3125 6.46875,1.3125 l -0.4375,1.875 q -4.46875,0 -7.65625,-1.875 -3.15625,-1.90625 -3.15625,-4.5625 0,-1.21875 0.59375,-2.28125 0.625,-1.0625 1.6875,-1.6875 -1.0625,-0.90625 -1.6875,-1.9375 -0.59375,-1.03125 -0.59375,-2 0,-1.125 0.90625,-1.90625 0.9375,-0.8125 2.21875,-0.8125 H 427.5 v -2.90625 z"
         id="path253" />
      <path
         d="m 432.0625,231.0625 v -1.875 h 9.15625 v 1.875 h -3.5625 V 250 h -2.0625 v -18.9375 z"
         id="path255" />
      <path
         d="m 447.78125,242.9375 q 1.125,0 1.90625,-0.90625 0.78125,-0.9375 0.78125,-2.21875 v -8.75 h -5.625 v 8.75 q 0,1.28125 0.84375,2.21875 0.875,0.90625 2.09375,0.90625 z m 0,2.0625 q -2.09375,0 -3.5625,-1.5 -1.4375,-1.53125 -1.4375,-3.6875 v -8.75 H 440.375 v -1.875 h 21.75 v 1.875 h -3.53125 V 250 H 456.5 v -18.9375 h -3.9375 v 8.75 q 0,2.15625 -1.4375,3.6875 -1.40625,1.5 -3.34375,1.5 z"
         id="path257" />
      <path
         d="m 461.28125,231.0625 v -1.875 h 3.53125 q -0.53125,-3 -1.96875,-4.9375 -1.40625,-1.9375 -3.03125,-1.9375 -1.21875,0 -2.0625,0.8125 -0.84375,0.78125 -0.84375,1.90625 0,1 0.4375,2 0.4375,0.96875 1.21875,1.75 h -2.28125 q -0.71875,-0.71875 -1.09375,-1.6875 -0.375,-0.96875 -0.375,-2.0625 0,-1.90625 1.46875,-3.21875 1.4375,-1.34375 3.53125,-1.34375 2.40625,0 4.40625,2.46875 2,2.46875 2.65625,6.25 h 3.5625 v 1.875 H 466.875 V 250 h -2.0625 v -18.9375 z"
         id="path259" />
      <path
         d="m 479.46875,231.0625 v -1.875 h 23 v 1.875 H 498.9375 V 250 h -2.09375 v -10 h -8.875 q -0.84375,0.625 -1.9375,0.625 -0.25,0 -0.5,-0.0625 -0.21875,-0.0625 -0.34375,-0.125 l 6.25,8.71875 -1.65625,1.0625 -9.375,-13.3125 1.6875,-1.25 q 0.65625,1.40625 1.53125,2.25 0.90625,0.84375 1.78125,0.84375 0.875,0 1.46875,-0.59375 0.625,-0.59375 0.625,-1.46875 v -5.625 z m 9.90625,6.875 h 7.46875 v -6.875 h -7.28125 v 5.625 q 0,0.65625 -0.1875,1.25 z"
         id="path261" />
      <path
         d="m 501.625,231.0625 v -1.875 h 9.15625 v 1.875 h -3.5625 V 250 h -2.0625 v -18.9375 z"
         id="path263" />
      <path
         d="m 504.8125,224 v -2.90625 h 3.125 V 224 Z"
         id="path265" />
      <path
         d="m 509.9375,231.0625 v -1.875 h 17 v 1.875 h -3.53125 V 250 h -2.0625 V 231.0625 H 516.125 V 241.25 q 0,0.5 -0.3125,0.875 -0.3125,0.375 -0.71875,0.375 -0.78125,0 -2.46875,-1.9375 -1.6875,-1.96875 -1.6875,-2.84375 0,-0.3125 0.25,-0.5625 0.25,-0.25 0.5625,-0.25 h 1.46875 q 0.34375,0 0.59375,-0.3125 0.25,-0.3125 0.25,-0.75 v -4.78125 z"
         id="path267" />
      <path
         d="m 527.84375,239.8125 q 0,-2 1.28125,-3.375 1.28125,-1.40625 3.0625,-1.40625 h 8.125 v -3.96875 h -14.21875 v -1.875 h 19.84375 v 1.875 h -3.53125 V 250 h -2.09375 v -12.90625 h -8.125 q -0.9375,0 -1.625,0.8125 -0.65625,0.78125 -0.65625,1.90625 0,2 1.40625,4.28125 1.4375,2.28125 4,4.4375 L 534.0625,250 q -2.9375,-2.5 -4.59375,-5.15625 -1.625,-2.65625 -1.625,-5.03125 z"
         id="path269" />
      <path
         d="m 545.09375,231.0625 v -1.875 H 554.25 v 1.875 h -3.5625 V 250 h -2.0625 v -18.9375 z"
         id="path271" />
      <path
         d="m 571.71875,243.96875 q 1.625,0 3.0625,-0.875 1.46875,-0.90625 2.34375,-2.46875 v -9.5625 h -7.0625 q 0.78125,0.96875 1.21875,2.0625 0.4375,1.0625 0.4375,2.09375 0,1.8125 -1.4375,3.21875 -1.40625,1.40625 -3.5625,1.78125 0.3125,1.625 1.71875,2.6875 1.40625,1.0625 3.28125,1.0625 z m -8.4375,-12.90625 v -1.875 H 582.75 v 1.875 h -3.53125 V 250 H 577.125 v -6.4375 q -1.21875,1.1875 -2.625,1.84375 -1.375,0.625 -2.78125,0.625 -3,0 -5.15625,-2.15625 -2.125,-2.1875 -2.125,-5.3125 2.375,0 3.78125,-0.90625 1.40625,-0.9375 1.40625,-2.4375 0,-1 -0.53125,-2.0625 -0.53125,-1.09375 -1.53125,-2.09375 z"
         id="path273" />
      <path
         d="m 576.71875,229.1875 -7.6875,-9.15625 1.4375,-1.25 8.3125,10.40625 z"
         id="path275" />
      <path
         d="m 595.28125,255 q -2.21875,-1.28125 -3.90625,-2.71875 -1.6875,-1.4375 -2.75,-2.90625 -2.0625,0 -3.53125,-0.78125 -1.4375,-0.8125 -1.4375,-1.9375 0,-0.84375 0.59375,-1.4375 0.59375,-0.625 1.46875,-0.625 1.21875,0 2.375,0.84375 1.15625,0.8125 2,2.28125 1.875,0 3.21875,-1.34375 1.34375,-1.375 1.34375,-3.25 0,-0.5625 -0.3125,-1 -0.28125,-0.4375 -0.71875,-0.4375 -0.5,0 -0.96875,0.0937 -0.4375,0.0937 -0.90625,0.3125 -0.65625,0.28125 -1.25,0.46875 -0.5625,0.15625 -1.03125,0.15625 -1.375,0 -3.5,-2.03125 -2.125,-2.0625 -2.125,-3.375 0,-1.21875 1.03125,-2.0625 1.0625,-0.84375 2.5,-0.84375 h 5.4375 v -3.34375 h -10.90625 v -1.875 h 10.4375 q -1.09375,-0.9375 -1.6875,-2.03125 -0.5625,-1.09375 -0.5625,-2.125 0,-1.90625 1.4375,-3.21875 1.46875,-1.34375 3.5625,-1.34375 0.5625,0 1.125,0.0937 0.5625,0.0937 1.15625,0.3125 v 1.875 q -0.875,-0.34375 -1.4375,-0.46875 -0.5625,-0.15625 -0.84375,-0.15625 -1.21875,0 -2.0625,0.84375 -0.84375,0.84375 -0.84375,2.0625 0,1.15625 0.6875,2.28125 0.6875,1.09375 1.875,1.875 h 3.90625 v 1.875 H 594.875 v 5.40625 h -7.5 q -0.5,0 -0.875,0.25 -0.34375,0.25 -0.34375,0.59375 0,0.65625 1.3125,2 1.34375,1.3125 2,1.3125 0.34375,0 0.84375,-0.125 0.53125,-0.15625 1.25,-0.40625 0.625,-0.25 1.15625,-0.375 0.53125,-0.125 0.90625,-0.125 1.28125,0 2.1875,1.0625 0.9375,1.03125 0.9375,2.46875 0,2.59375 -1.53125,4.4375 -1.5,1.8125 -3.65625,1.8125 0.5,1.125 1.78125,2.09375 1.3125,1 3.1875,1.65625 z"
         id="path277" />
      <path
         d="m 597.84375,231.0625 v -1.875 H 621.375 v 1.875 h -3.53125 V 250 h -2.0625 v -12.46875 q -1.8125,0 -3.375,1.625 -1.5625,1.59375 -2.25,4.1875 l -1.875,-0.625 q 0.15625,-1 0.5,-1.8125 0.34375,-0.8125 0.75,-1.3125 -0.65625,-1 -1.65625,-1.53125 -1,-0.53125 -2.09375,-0.53125 -1.71875,0 -2.9375,1.21875 -1.21875,1.21875 -1.21875,2.9375 0,1.875 1.875,3.71875 1.90625,1.8125 5,2.9375 l -0.84375,1.875 Q 604,248.875 601.75,246.53125 q -2.21875,-2.34375 -2.21875,-4.84375 0,-2.59375 1.8125,-4.40625 1.84375,-1.84375 4.4375,-1.84375 1.53125,0 2.90625,0.625 1.375,0.59375 2.28125,1.65625 0.9375,-1.0625 2.1875,-1.65625 1.25,-0.625 2.625,-0.625 v -4.375 z"
         id="path279" />
      <path
         d="m 632.1875,239.8125 q 0,-2 1.28125,-3.375 1.28125,-1.40625 3.0625,-1.40625 h 8.125 V 231.0625 H 630.4375 v -1.875 h 19.84375 v 1.875 H 646.75 V 250 h -2.09375 v -12.90625 h -8.125 q -0.9375,0 -1.625,0.8125 -0.65625,0.78125 -0.65625,1.90625 0,2 1.40625,4.28125 1.4375,2.28125 4,4.4375 l -1.25,1.46875 q -2.9375,-2.5 -4.59375,-5.15625 -1.625,-2.65625 -1.625,-5.03125 z"
         id="path281" />
      <path
         d="m 644.3125,229.1875 -7.6875,-9.15625 1.4375,-1.25 8.3125,10.40625 z"
         id="path283" />
      <path
         d="m 649.4375,231.0625 v -1.875 H 667.25 v 1.875 h -3.5625 V 250 h -2.0625 v -6.65625 q -0.84375,1 -2,1.5625 -1.125,0.53125 -2.375,0.53125 -2.59375,0 -4.4375,-1.65625 Q 651,242.125 651,239.8125 q 0,-2.34375 1.8125,-3.96875 1.84375,-1.65625 4.4375,-1.65625 0.75,0 1.4375,0.21875 0.6875,0.1875 1.28125,0.625 l -1.0625,1.65625 q -0.375,-0.28125 -0.78125,-0.4375 -0.40625,-0.1875 -0.875,-0.1875 -1.71875,0 -2.9375,1.09375 -1.21875,1.09375 -1.21875,2.65625 0,1.4375 1.21875,2.5 1.21875,1.03125 2.9375,1.03125 1.21875,0 2.375,-0.8125 1.15625,-0.84375 2,-2.3125 v -9.15625 z"
         id="path285" />
      <path
         d="m 679.15625,247.5 q 1.09375,-0.21875 1.78125,-1.0625 0.71875,-0.875 0.71875,-2.0625 0,-0.875 -0.59375,-1.46875 -0.59375,-0.59375 -1.46875,-0.59375 -0.78125,0 -1.34375,0.53125 -0.53125,0.53125 -0.53125,1.34375 0,1 0.375,1.875 0.375,0.84375 1.0625,1.4375 z m -12.75,-16.4375 v -1.875 h 18.9375 v 1.875 h -4.3125 v 6.25 h -8.09375 q -1.125,0 -1.9375,0.96875 -0.78125,0.96875 -0.78125,2.34375 0,2.4375 2.15625,4.65625 2.1875,2.21875 4.71875,2.4375 Q 676.375,247.125 676,246.1875 q -0.375,-0.9375 -0.375,-2 0,-1.625 1.15625,-2.78125 1.1875,-1.1875 2.8125,-1.1875 1.6875,0 2.90625,1.25 1.25,1.21875 1.25,2.90625 0,2.15625 -1.96875,3.6875 -1.9375,1.53125 -4.6875,1.53125 -3.34375,0 -6.15625,-2.8125 -2.78125,-2.8125 -2.78125,-6.15625 0,-2.25 1.375,-3.8125 1.40625,-1.59375 3.40625,-1.59375 h 6.03125 v -4.15625 z"
         id="path287" />
      <path
         d="m 684.5,231.0625 v -1.875 h 3.53125 q -0.53125,-3 -1.96875,-4.9375 -1.40625,-1.9375 -3.03125,-1.9375 -1.21875,0 -2.0625,0.8125 -0.84375,0.78125 -0.84375,1.90625 0,1 0.4375,2 0.4375,0.96875 1.21875,1.75 H 679.5 q -0.71875,-0.71875 -1.09375,-1.6875 -0.375,-0.96875 -0.375,-2.0625 0,-1.90625 1.46875,-3.21875 1.4375,-1.34375 3.53125,-1.34375 2.40625,0 4.40625,2.46875 2,2.46875 2.65625,6.25 h 3.5625 v 1.875 h -3.5625 V 250 h -2.0625 v -18.9375 z"
         id="path289" />
      <path
         d="m 692.8125,231.0625 v -1.875 h 20.75 v 1.875 h -3.53125 V 250 h -2.09375 v -7.5 q -1.25,1.75 -2.71875,2.75 -1.46875,1 -2.875,1 -2.09375,0 -3.5625,-1.4375 -1.4375,-1.46875 -1.4375,-3.5625 0,-1.5 0.59375,-2.71875 0.59375,-1.21875 1.6875,-1.84375 h -6.03125 v -2.09375 H 705.875 v 2.09375 h -2.90625 q -1.59375,0.59375 -2.59375,1.84375 -0.96875,1.21875 -0.96875,2.71875 0,1.21875 0.84375,2.09375 0.875,0.84375 2.09375,0.84375 1.3125,0 2.8125,-1.28125 1.5,-1.3125 2.78125,-3.53125 v -8.3125 z"
         id="path291" />
      <path
         d="m 715.46875,250 v -3.28125 H 718.125 V 250 Z"
         id="path293" />
    </g>
  </g>
</svg>
