<?xml version="1.0" encoding="UTF-8" standalone="no"?>
<svg
   width="800"
   height="350"
   version="1.1"
   id="svg12"
   sodipodi:docname="Shivani_Sports.svg"
   xmlns:inkscape="http://www.inkscape.org/namespaces/inkscape"
   xmlns:sodipodi="http://sodipodi.sourceforge.net/DTD/sodipodi-0.dtd"
   xmlns="http://www.w3.org/2000/svg"
   xmlns:svg="http://www.w3.org/2000/svg">
  <defs
     id="defs16" />
  <sodipodi:namedview
     id="namedview14"
     pagecolor="#ffffff"
     bordercolor="#000000"
     borderopacity="0.25"
     inkscape:showpageshadow="2"
     inkscape:pageopacity="0.0"
     inkscape:pagecheckerboard="0"
     inkscape:deskcolor="#d1d1d1" />
  <g
     font-family="Lohit Devanagari"
     font-size="32"
     text-anchor="middle"
     fill="#000"
     id="g10">
    <g
       aria-label="शिवानी खेळते रम्य, हास्य हृदयी भरते,"
       id="text2">
      <path
         d="m 179.875,81.0625 v -1.875 h 3.46875 q -0.0625,-0.03125 -0.0937,-1.125 0,-0.75 0,-1.6875 0,-2.78125 2.28125,-4.375 2.28125,-1.5625 6,-1.53125 5.78125,0 9.375,2.4375 3.59375,2.4375 5.8125,6.3125 H 204.25 q -1.75,-3 -4.6875,-4.9375 -2.90625,-1.96875 -8.03125,-1.96875 -3.1875,0 -4.625,1.0625 -1.53125,1.125 -1.59375,3 -0.0312,1.28125 0,1.6875 0.15625,0.78125 0.0937,1.125 h 3.625 v 1.875 h -3.5625 V 100 h -2.0625 V 81.0625 Z"
         id="path18" />
      <path
         d="m 200.375,81.0625 v -1.875 h 9.78125 v 1.875 H 206.625 V 100 h -2.09375 V 81.0625 Z m -5.625,4.78125 q 1.03125,0 1.9375,-0.625 0.90625,-0.625 1.40625,-1.65625 -0.46875,-1.21875 -1.28125,-1.96875 -0.78125,-0.75 -1.65625,-0.75 -1.03125,0 -1.78125,0.8125 -0.71875,0.78125 -0.71875,1.90625 0,0.96875 0.59375,1.625 0.625,0.65625 1.5,0.65625 z M 198.90625,100 189.5625,92.09375 190.59375,90.625 q 0.90625,0.75 1.4375,1.125 0.53125,0.34375 0.84375,0.34375 2.34375,0 3.96875,-1.8125 1.65625,-1.84375 1.65625,-4.4375 -0.53125,0.96875 -1.5625,1.53125 -1.03125,0.5625 -2.1875,0.5625 -1.71875,0 -2.9375,-1.28125 -1.21875,-1.3125 -1.21875,-3.09375 0,-2 1.3125,-3.375 1.34375,-1.40625 3.25,-1.40625 2.25,0 3.84375,2.09375 1.59375,2.0625 1.59375,4.96875 0,3.21875 -1.90625,5.46875 -1.90625,2.25 -4.5625,2.25 l 6.03125,4.96875 z"
         id="path20" />
      <path
         d="m 209.3125,81.0625 v -1.875 h 17.8125 v 1.875 h -3.5625 V 100 H 221.5 v -6.65625 q -0.84375,1 -2,1.5625 -1.125,0.53125 -2.375,0.53125 -2.59375,0 -4.4375,-1.65625 -1.8125,-1.65625 -1.8125,-3.96875 0,-2.34375 1.8125,-3.96875 1.84375,-1.65625 4.4375,-1.65625 0.75,0 1.4375,0.21875 0.6875,0.1875 1.28125,0.625 l -1.0625,1.65625 Q 218.40625,86.40625 218,86.25 q -0.40625,-0.1875 -0.875,-0.1875 -1.71875,0 -2.9375,1.09375 -1.21875,1.09375 -1.21875,2.65625 0,1.4375 1.21875,2.5 1.21875,1.03125 2.9375,1.03125 1.21875,0 2.375,-0.8125 1.15625,-0.84375 2,-2.3125 V 81.0625 Z"
         id="path22" />
      <path
         d="m 226.28125,81.0625 v -1.875 h 9.15625 v 1.875 H 231.875 V 100 h -2.0625 V 81.0625 Z"
         id="path24" />
      <path
         d="m 235.625,87.53125 q 0,-0.4375 0.4375,-0.75 0.4375,-0.3125 1.03125,-0.3125 h 11 V 81.0625 h -13.5 v -1.875 h 19.125 v 1.875 H 250.1875 V 100 h -2.09375 V 88.5625 h -6.03125 q -0.5,0 -0.875,0.25 -0.375,0.25 -0.375,0.5625 v 2.09375 q 0,0.5 -0.3125,0.875 -0.3125,0.375 -0.71875,0.375 -0.71875,0 -2.4375,-2.15625 Q 235.625,88.375 235.625,87.53125 Z"
         id="path26" />
      <path
         d="m 252.875,81.0625 v -1.875 h 3.53125 q -0.53125,-3 -1.96875,-4.9375 -1.40625,-1.9375 -3.03125,-1.9375 -1.21875,0 -2.0625,0.8125 -0.84375,0.78125 -0.84375,1.90625 0,1 0.4375,2 0.4375,0.96875 1.21875,1.75 H 247.875 q -0.71875,-0.71875 -1.09375,-1.6875 -0.375,-0.96875 -0.375,-2.0625 0,-1.90625 1.46875,-3.21875 1.4375,-1.34375 3.53125,-1.34375 2.40625,0 4.40625,2.46875 2,2.46875 2.65625,6.25 h 3.5625 v 1.875 h -3.5625 V 100 h -2.0625 V 81.0625 Z"
         id="path28" />
      <path
         d="m 284.15625,98.125 q 2.34375,0 4.46875,-1.3125 2.125,-1.34375 3.4375,-3.6875 v -1.65625 q -0.8125,0.71875 -1.6875,1.09375 -0.84375,0.375 -1.625,0.375 -2.09375,0 -3.5625,-1.3125 -1.4375,-1.3125 -1.4375,-3.15625 0,-1.875 1.4375,-3.1875 1.46875,-1.3125 3.5625,-1.3125 0.78125,0 1.46875,0.1875 0.6875,0.15625 1.21875,0.4375 v 2.09375 q -0.8125,-0.28125 -1.5,-0.4375 -0.6875,-0.1875 -1.1875,-0.1875 -1.21875,0 -2.09375,0.71875 -0.84375,0.6875 -0.84375,1.6875 0,1 0.84375,1.6875 0.875,0.6875 2.09375,0.6875 0.65625,0 1.5,-0.4375 0.875,-0.4375 1.8125,-1.21875 v -8.125 H 280.625 v 4.59375 q 0,2 -1.125,3.40625 -1.09375,1.375 -2.625,1.375 -0.28125,0 -0.5625,-0.0625 -0.28125,-0.0625 -0.46875,-0.15625 1.28125,3.59375 3.5625,5.75 2.3125,2.15625 4.75,2.15625 z M 271.0625,81.0625 v -1.875 h 26.625 v 1.875 h -3.53125 V 100 h -2.09375 v -4.15625 q -1.375,1.9375 -3.46875,3.0625 Q 286.5,100 284.15625,100 q -3.625,0 -6.9375,-3.8125 -3.28125,-3.84375 -4.90625,-9.90625 l 1.65625,-0.84375 q 0.46875,1.34375 1.25,2.125 0.8125,0.78125 1.65625,0.78125 0.71875,0 1.1875,-0.78125 0.46875,-0.78125 0.46875,-1.90625 V 81.0625 Z"
         id="path30" />
      <path
         d="m 291.65625,79.1875 -7.6875,-9.15625 1.4375,-1.25 8.3125,10.40625 z"
         id="path32" />
      <path
         d="m 313.59375,95.84375 q 1.3125,0 2.21875,-1.3125 0.90625,-1.34375 0.90625,-3.28125 0,-1.78125 -0.90625,-3.0625 -0.90625,-1.28125 -2.21875,-1.28125 -1.125,0 -2.1875,1.21875 -1.0625,1.21875 -1.5625,3.125 0.75,2.09375 1.78125,3.34375 1.0625,1.25 1.96875,1.25 z M 304.25,95.625 q 0.90625,0 1.875,-1.125 1,-1.15625 1.65625,-3.03125 Q 307.25,89.4375 306.25,88.1875 q -0.96875,-1.28125 -2,-1.28125 -1.46875,0 -2.5,1.34375 -1.03125,1.3125 -1.03125,3.1875 0,1.75 1.03125,2.96875 1.03125,1.21875 2.5,1.21875 z m -7.40625,-14.5625 v -1.875 H 320.625 v 1.875 h -6.1875 v 3.96875 q 1.90625,0.3125 3.125,2.09375 1.25,1.75 1.25,4.125 0,2.6875 -1.53125,4.59375 -1.5,1.875 -3.6875,1.875 -1.28125,0 -2.59375,-1.125 -1.3125,-1.125 -2.1875,-3.03125 -0.875,1.90625 -2.125,3.03125 -1.25,1.125 -2.4375,1.125 -2.34375,0 -4,-1.8125 -1.625,-1.84375 -1.625,-4.46875 0,-2.6875 1.625,-4.53125 1.65625,-1.875 4,-1.875 1.4375,0 2.6875,1.03125 1.25,1 1.875,2.6875 0.59375,-1.53125 1.53125,-2.53125 0.9375,-1 2,-1.1875 V 81.0625 Z"
         id="path34" />
      <path
         d="m 321.5625,89.8125 q 0,-2 1.28125,-3.375 1.28125,-1.40625 3.0625,-1.40625 h 8.125 V 81.0625 H 319.8125 v -1.875 h 19.84375 v 1.875 H 336.125 V 100 h -2.09375 V 87.09375 h -8.125 q -0.9375,0 -1.625,0.8125 -0.65625,0.78125 -0.65625,1.90625 0,2 1.40625,4.28125 1.4375,2.28125 4,4.4375 l -1.25,1.46875 q -2.9375,-2.5 -4.59375,-5.15625 -1.625,-2.65625 -1.625,-5.03125 z"
         id="path36" />
      <path
         d="M 333.6875,79.1875 326,70.03125 l 1.4375,-1.25 8.3125,10.40625 z"
         id="path38" />
      <path
         d="m 348.6875,81.0625 v -1.875 h 14.46875 v 1.875 h -2.8125 v 4.78125 q 0,1.9375 -1.3125,3.28125 -1.28125,1.3125 -3.0625,1.3125 -0.25,0 -0.6875,-0.09375 -0.40625,-0.125 -1,-0.34375 1.34375,2.34375 3.15625,4.5 1.84375,2.125 4.125,4.03125 L 360.34375,100 Q 357,97.21875 354.3125,93.6875 351.625,90.125 349.71875,86.0625 l 1.875,-1.03125 q 0.53125,1.5 1.71875,2.40625 1.21875,0.90625 2.65625,0.90625 0.9375,0 1.59375,-0.71875 0.6875,-0.71875 0.6875,-1.78125 V 81.0625 Z"
         id="path40" />
      <path
         d="m 362.3125,81.0625 v -1.875 h 13.3125 v 1.875 h -7.5 v 7.28125 h 7.90625 v 1.875 H 368.125 v 1.875 q 0,0.34375 -0.25,0.59375 -0.25,0.25 -0.59375,0.25 -0.65625,0 -2.3125,-1.46875 -1.625,-1.5 -1.625,-2.09375 0,-0.40625 0.3125,-0.71875 0.3125,-0.3125 0.71875,-0.3125 h 1.6875 V 81.0625 Z"
         id="path42" />
      <path
         d="m 383.21875,93.96875 q 1.625,0 3.0625,-0.875 Q 387.75,92.1875 388.625,90.625 v -9.5625 h -7.0625 q 0.78125,0.96875 1.21875,2.0625 0.4375,1.0625 0.4375,2.09375 0,1.8125 -1.4375,3.21875 -1.40625,1.40625 -3.5625,1.78125 0.3125,1.625 1.71875,2.6875 1.40625,1.0625 3.28125,1.0625 z m -8.4375,-12.90625 v -1.875 H 394.25 v 1.875 h -3.53125 V 100 H 388.625 v -6.4375 q -1.21875,1.1875 -2.625,1.84375 -1.375,0.625 -2.78125,0.625 -3,0 -5.15625,-2.15625 -2.125,-2.1875 -2.125,-5.3125 2.375,0 3.78125,-0.90625 1.40625,-0.9375 1.40625,-2.4375 0,-1 -0.53125,-2.0625 -0.53125,-1.09375 -1.53125,-2.09375 z"
         id="path44" />
      <path
         d="M 394.34375,104 396,96.71875 h 3.03125 L 395.90625,104 Z"
         id="path46" />
      <path
         d="m 414.5,81.0625 v -1.875 h 17.3125 v 1.875 h -3.34375 v 5 h -8.53125 q -0.40625,0 -0.71875,0.1875 -0.3125,0.1875 -0.3125,0.4375 0,0.84375 0.625,1.625 0.625,0.78125 1.65625,1.28125 0.65625,-0.28125 1.4375,-0.4375 0.8125,-0.1875 1.6875,-0.1875 2.34375,0 3.96875,1.34375 1.65625,1.3125 1.65625,3.25 0,1.0625 -0.4375,1.96875 -0.4375,0.875 -1.25,1.34375 l -1.65625,-1.4375 q 0.59375,-0.34375 0.90625,-0.84375 0.34375,-0.5 0.34375,-1.03125 0,-1.0625 -1.03125,-1.78125 -1.03125,-0.71875 -2.5,-0.71875 -2.25,0 -3.84375,1.03125 -1.5625,1.03125 -1.5625,2.5 0,1.90625 2.6875,3.25 2.6875,1.3125 6.46875,1.3125 l -0.4375,1.875 q -4.46875,0 -7.65625,-1.875 -3.15625,-1.90625 -3.15625,-4.5625 0,-1.21875 0.59375,-2.28125 0.625,-1.0625 1.6875,-1.6875 -1.0625,-0.90625 -1.6875,-1.9375 -0.59375,-1.03125 -0.59375,-2 0,-1.125 0.90625,-1.90625 0.9375,-0.8125 2.21875,-0.8125 h 6.46875 V 81.0625 Z"
         id="path48" />
      <path
         d="m 430.96875,81.0625 v -1.875 h 9.15625 v 1.875 h -3.5625 V 100 H 434.5 V 81.0625 Z"
         id="path50" />
      <path
         d="m 439.28125,81.0625 v -1.875 h 17.1875 v 1.875 h -6.875 v 5.375 q 0,0.8125 -0.125,1.5 h 7.40625 v 1.875 h -8.28125 q -0.625,0.75 -1.375,0.9375 -1.46875,0.3125 -1.78125,-0.125 l 5.625,8.34375 -1.46875,1.03125 -9.375,-13.53125 1.6875,-1.25 q 0.9375,1.625 1.875,2.59375 0.9375,0.9375 1.71875,0.9375 0.8125,0 1.40625,-0.59375 Q 447.5,87.5625 447.5,86.6875 v -5.625 z"
         id="path52" />
      <path
         d="m 464.0625,93.96875 q 1.625,0 3.0625,-0.875 1.46875,-0.90625 2.34375,-2.46875 v -9.5625 h -7.0625 q 0.78125,0.96875 1.21875,2.0625 0.4375,1.0625 0.4375,2.09375 0,1.8125 -1.4375,3.21875 -1.40625,1.40625 -3.5625,1.78125 0.3125,1.625 1.71875,2.6875 1.40625,1.0625 3.28125,1.0625 z M 455.625,81.0625 v -1.875 h 19.46875 v 1.875 H 471.5625 V 100 h -2.09375 v -6.4375 q -1.21875,1.1875 -2.625,1.84375 -1.375,0.625 -2.78125,0.625 -3,0 -5.15625,-2.15625 -2.125,-2.1875 -2.125,-5.3125 2.375,0 3.78125,-0.90625 1.40625,-0.9375 1.40625,-2.4375 0,-1 -0.53125,-2.0625 -0.53125,-1.09375 -1.53125,-2.09375 z"
         id="path54" />
      <path
         d="m 484.125,81.0625 v -1.875 h 17.9375 v 1.875 h -2.75 v 4.59375 h -9.59375 q -0.25,0 -0.4375,0.25 -0.1875,0.25 -0.1875,0.5625 0,0.5 1,1.34375 1,0.8125 1.71875,0.9375 0.59375,-0.1875 1.3125,-0.28125 0.71875,-0.125 1.59375,-0.125 2.25,0 3.8125,1.25 1.59375,1.21875 1.59375,2.90625 0,1.125 -0.78125,1.9375 -0.78125,0.78125 -1.90625,0.78125 -1.28125,0 -2.21875,0.46875 -0.90625,0.46875 -0.90625,1.1875 0,0.875 0.90625,1.5 0.9375,0.59375 2.21875,0.59375 0.5625,0 1,-0.0625 0.4375,-0.0625 0.65625,-0.15625 l 0.21875,2.09375 q -0.375,0.0625 -0.875,0.125 -0.46875,0.0625 -1,0.0625 -2.15625,0 -3.6875,-1.21875 -1.53125,-1.21875 -1.53125,-2.9375 0,-1.375 1.15625,-2.34375 1.1875,-0.96875 2.8125,-0.96875 0.78125,0 1.3125,-0.3125 0.5625,-0.3125 0.5625,-0.75 0,-0.875 -1,-1.46875 -0.96875,-0.59375 -2.34375,-0.59375 -2.5625,0 -4.40625,1.59375 -1.8125,1.5625 -1.8125,3.8125 0,3.1875 3.34375,5.4375 3.34375,2.25 8.09375,2.25 l 0.1875,2.28125 q -5.6875,0 -9.71875,-2.9375 -4,-2.90625 -4,-7.03125 0,-1.75 0.9375,-3.3125 0.96875,-1.5625 2.59375,-2.53125 -1.34375,-0.78125 -2.125,-1.71875 -0.78125,-0.9375 -0.78125,-1.8125 0,-1.1875 0.78125,-2.03125 0.78125,-0.875 1.90625,-0.875 h 7.5 v -2.5 z"
         id="path56" />
      <path
         d="m 500.96875,81.0625 v -1.875 h 18 v 1.875 h -3.3125 v 5.40625 h -8.125 q -1.21875,0 -2.0625,0.875 -0.84375,0.84375 -0.84375,2.03125 0,2.25 2.375,3.84375 2.375,1.59375 5.75,1.59375 0,-1.46875 0.65625,-2.5 0.65625,-1.0625 1.625,-1.0625 0.6875,0 1.15625,0.5 0.5,0.46875 0.5,1.1875 0,0.8125 -0.5,1.65625 -0.5,0.84375 -1.375,1.4375 l 2.28125,3.96875 -1.875,0.84375 -2.28125,-4.1875 q -4.3125,0 -7.375,-2.125 -3.03125,-2.15625 -3.03125,-5.15625 0,-2.0625 1.4375,-3.5 1.46875,-1.46875 3.5625,-1.46875 h 6.03125 V 81.0625 Z"
         id="path58" />
      <path
         d="m 526.5625,93.96875 q 1.625,0 3.0625,-0.875 1.46875,-0.90625 2.34375,-2.46875 v -9.5625 h -7.0625 q 0.78125,0.96875 1.21875,2.0625 0.4375,1.0625 0.4375,2.09375 0,1.8125 -1.4375,3.21875 -1.40625,1.40625 -3.5625,1.78125 0.3125,1.625 1.71875,2.6875 1.40625,1.0625 3.28125,1.0625 z M 518.125,81.0625 v -1.875 h 19.46875 v 1.875 H 534.0625 V 100 h -2.09375 v -6.4375 q -1.21875,1.1875 -2.625,1.84375 -1.375,0.625 -2.78125,0.625 -3,0 -5.15625,-2.15625 -2.125,-2.1875 -2.125,-5.3125 2.375,0 3.78125,-0.90625 1.40625,-0.9375 1.40625,-2.4375 0,-1 -0.53125,-2.0625 -0.53125,-1.09375 -1.53125,-2.09375 z"
         id="path60" />
      <path
         d="m 536.75,81.0625 v -1.875 h 3.53125 q -0.53125,-3 -1.96875,-4.9375 -1.40625,-1.9375 -3.03125,-1.9375 -1.21875,0 -2.0625,0.8125 -0.84375,0.78125 -0.84375,1.90625 0,1 0.4375,2 0.4375,0.96875 1.21875,1.75 H 531.75 q -0.71875,-0.71875 -1.09375,-1.6875 -0.375,-0.96875 -0.375,-2.0625 0,-1.90625 1.46875,-3.21875 1.4375,-1.34375 3.53125,-1.34375 2.40625,0 4.40625,2.46875 2,2.46875 2.65625,6.25 h 3.5625 v 1.875 h -3.5625 V 100 h -2.0625 V 81.0625 Z"
         id="path62" />
      <path
         d="m 559.0625,89.8125 q 0,-0.34375 0.28125,-0.59375 0.3125,-0.25 0.75,-0.25 H 561.75 V 82.9375 q 0,-0.875 -0.5625,-1.46875 -0.53125,-0.625 -1.3125,-0.625 -0.78125,0 -1.34375,0.4375 Q 558,81.71875 558,82.3125 q 0,0.71875 0.53125,1.1875 0.5625,0.46875 1.34375,0.46875 v 2.09375 q -1.625,0 -2.78125,-1.09375 -1.15625,-1.125 -1.15625,-2.65625 0,-1.46875 1.15625,-2.5 1.15625,-1.03125 2.78125,-1.03125 1.625,0 2.78125,1.21875 1.1875,1.21875 1.1875,2.9375 v 6.03125 h 6.84375 V 81.0625 h -5.40625 v -1.875 h 11.03125 v 1.875 h -3.53125 V 100 h -2.09375 v -8.9375 h -6.84375 v 1.65625 q 0,0.34375 -0.3125,0.59375 -0.3125,0.25 -0.75,0.25 -0.625,0 -2.1875,-1.5625 -1.53125,-1.5625 -1.53125,-2.1875 z"
         id="path64" />
      <path
         d="m 575.46875,81.0625 v -1.875 h 14.46875 v 1.875 h -2.8125 v 4.78125 q 0,1.9375 -1.3125,3.28125 -1.28125,1.3125 -3.0625,1.3125 -0.25,0 -0.6875,-0.09375 -0.40625,-0.125 -1,-0.34375 1.34375,2.34375 3.15625,4.5 1.84375,2.125 4.125,4.03125 L 587.125,100 q -3.34375,-2.78125 -6.03125,-6.3125 -2.6875,-3.5625 -4.59375,-7.625 l 1.875,-1.03125 q 0.53125,1.5 1.71875,2.40625 1.21875,0.90625 2.65625,0.90625 0.9375,0 1.59375,-0.71875 0.6875,-0.71875 0.6875,-1.78125 V 81.0625 Z"
         id="path66" />
      <path
         d="m 590.84375,89.8125 q 0,-2 1.28125,-3.375 1.28125,-1.40625 3.0625,-1.40625 h 8.125 V 81.0625 h -14.21875 v -1.875 h 19.84375 v 1.875 h -3.53125 V 100 H 603.3125 V 87.09375 h -8.125 q -0.9375,0 -1.625,0.8125 -0.65625,0.78125 -0.65625,1.90625 0,2 1.40625,4.28125 1.4375,2.28125 4,4.4375 L 597.0625,100 q -2.9375,-2.5 -4.59375,-5.15625 -1.625,-2.65625 -1.625,-5.03125 z"
         id="path68" />
      <path
         d="m 602.96875,79.1875 -7.6875,-9.15625 1.4375,-1.25 8.3125,10.40625 z"
         id="path70" />
      <path
         d="m 609.03125,104 1.65625,-7.28125 h 3.03125 L 610.59375,104 Z"
         id="path72" />
    </g>
    <g
       aria-label="गोल, फुटबॉल, रंगीत, आनंद ती पसरते."
       id="text4">
      <path
         d="m 173.45312,131.0625 v -1.875 h 17 v 1.875 h -3.53125 V 150 h -2.0625 v -18.9375 h -5.21875 V 141.25 q 0,0.5 -0.3125,0.875 -0.3125,0.375 -0.71875,0.375 -0.78125,0 -2.46875,-1.9375 -1.6875,-1.96875 -1.6875,-2.84375 0,-0.3125 0.25,-0.5625 0.25,-0.25 0.5625,-0.25 h 1.46875 q 0.34375,0 0.59375,-0.3125 0.25,-0.3125 0.25,-0.75 v -4.78125 z"
         id="path75" />
      <path
         d="m 189.60937,131.0625 v -1.875 h 3.375 l -7.53125,-9.15625 1.4375,-1.25 8.15625,10.40625 h 3.71875 v 1.875 h -3.5625 V 150 h -2.0625 v -18.9375 z"
         id="path77" />
      <path
         d="m 197.92187,131.0625 v -1.875 h 23.53125 v 1.875 h -3.53125 V 150 h -2.0625 v -12.46875 q -1.8125,0 -3.375,1.625 -1.5625,1.59375 -2.25,4.1875 l -1.875,-0.625 q 0.15625,-1 0.5,-1.8125 0.34375,-0.8125 0.75,-1.3125 -0.65625,-1 -1.65625,-1.53125 -1,-0.53125 -2.09375,-0.53125 -1.71875,0 -2.9375,1.21875 -1.21875,1.21875 -1.21875,2.9375 0,1.875 1.875,3.71875 1.90625,1.8125 5,2.9375 l -0.84375,1.875 q -3.65625,-1.34375 -5.90625,-3.6875 -2.21875,-2.34375 -2.21875,-4.84375 0,-2.59375 1.8125,-4.40625 1.84375,-1.84375 4.4375,-1.84375 1.53125,0 2.90625,0.625 1.375,0.59375 2.28125,1.65625 0.9375,-1.0625 2.1875,-1.65625 1.25,-0.625 2.625,-0.625 v -4.375 z"
         id="path79" />
      <path
         d="m 221.57812,154 1.65625,-7.28125 h 3.03125 L 223.14062,154 Z"
         id="path81" />
      <path
         d="m 249.04687,141.25 q 1.21875,0 2.3125,-0.59375 1.09375,-0.59375 1.84375,-1.6875 v -7.90625 h -7.28125 v 7.28125 q 0,1.21875 0.90625,2.0625 0.9375,0.84375 2.21875,0.84375 z m -5.1875,-2.90625 v -7.28125 h -2.125 v -1.875 h 25.03125 v 1.875 h -11.46875 v 5.84375 q 0.8125,-1 1.96875,-1.53125 1.15625,-0.5625 2.40625,-0.5625 2.15625,0 3.65625,1.71875 1.53125,1.6875 1.53125,4.09375 0,1.875 -0.71875,3.6875 -0.6875,1.8125 -2,3.40625 l -1.84375,-1.0625 q 1.1875,-1.1875 1.8125,-2.75 0.65625,-1.5625 0.65625,-3.28125 0,-1.53125 -0.90625,-2.625 -0.90625,-1.09375 -2.1875,-1.09375 -1.09375,0 -2.25,0.65625 -1.125,0.625 -2.125,1.8125 V 150 h -2.09375 v -8.3125 q -0.78125,0.78125 -1.875,1.21875 -1.0625,0.4375 -2.28125,0.4375 -2.15625,0 -3.6875,-1.4375 -1.5,-1.46875 -1.5,-3.5625 z"
         id="path83" />
      <path
         d="m 252.57812,159.71875 q -2.25,0 -4.6875,-1.09375 -2.46875,-1.0625 -4.875,-3.0625 l 1.46875,-1.875 q 2.28125,1.90625 4.375,2.90625 2.0625,1.03125 3.71875,1.03125 1.8125,0 3.09375,-0.90625 1.28125,-0.90625 1.28125,-2.1875 0,-1.0625 -0.65625,-1.78125 -0.6875,-0.71875 -1.625,-0.71875 -1,0 -1.875,0.375 -0.875,0.375 -1.46875,1.0625 l -1.4375,-1.4375 q 0.8125,-1 2.0625,-1.53125 1.25,-0.5625 2.71875,-0.5625 1.78125,0 3.09375,1.3125 1.28125,1.34375 1.28125,3.28125 0,2.15625 -1.90625,3.65625 -1.90625,1.53125 -4.5625,1.53125 z"
         id="path85" />
      <path
         d="m 276.48437,149.59375 q -3.625,0 -6.1875,-2.5625 -2.5625,-2.5625 -2.5625,-6.1875 0,-2.34375 1.4375,-3.96875 1.46875,-1.65625 3.5625,-1.65625 h 5.625 v -4.15625 h -12.4375 v -1.875 h 18.5 v 1.875 h -4 v 6.25 h -7.6875 q -1.21875,0 -2.0625,1.03125 -0.84375,1.03125 -0.84375,2.5 0,2.75 1.9375,4.71875 1.96875,1.9375 4.71875,1.9375 1.75,0 3.1875,-0.78125 1.4375,-0.78125 2.21875,-2.125 l 1.65625,1.4375 q -0.9375,1.625 -2.84375,2.59375 -1.90625,0.96875 -4.21875,0.96875 z"
         id="path87" />
      <path
         d="m 291.01562,143.34375 q 0.75,0 1.375,-0.1875 0.625,-0.21875 1.125,-0.65625 l -5.625,-4.5625 q -0.28125,0.375 -0.46875,0.90625 -0.15625,0.5 -0.15625,1.15625 0,1.375 1.09375,2.375 1.125,0.96875 2.65625,0.96875 z M 285.20312,140 q 0,-2.46875 1.8125,-4.25 1.84375,-1.78125 4.40625,-1.78125 0.8125,0 1.5,0.1875 0.6875,0.15625 1.21875,0.4375 l -0.625,1.6875 q -0.46875,-0.21875 -1,-0.3125 -0.5,-0.125 -1.09375,-0.125 -0.90625,0 -1.5625,0.25 -0.625,0.21875 -0.9375,0.59375 l 6.0625,4.5625 0.625,-0.8125 v -9.375 h -12.03125 v -1.875 h 17.625 v 1.875 h -3.53125 V 150 h -2.0625 v -6.65625 q -1,1 -2.1875,1.5625 -1.1875,0.53125 -2.40625,0.53125 -2.40625,0 -4.125,-1.59375 Q 285.20312,142.25 285.20312,140 Z"
         id="path89" />
      <path
         d="m 304.79687,124.90625 q -1.75,1.59375 -4.03125,1.59375 -2.28125,0 -4.03125,-1.59375 -1.78125,-1.59375 -2.21875,-4.03125 h 2.09375 q 0.28125,1.6875 1.46875,2.8125 1.1875,1.125 2.6875,1.125 1.5,0 2.6875,-1.125 1.1875,-1.125 1.46875,-2.8125 h 2.09375 q -0.4375,2.4375 -2.21875,4.03125 z m -4.4375,6.15625 v -1.875 h 9.15625 v 1.875 h -3.5625 V 150 h -2.0625 v -18.9375 z"
         id="path91" />
      <path
         d="m 308.67187,131.0625 v -1.875 h 23.53125 v 1.875 h -3.53125 V 150 h -2.0625 v -12.46875 q -1.8125,0 -3.375,1.625 -1.5625,1.59375 -2.25,4.1875 l -1.875,-0.625 q 0.15625,-1 0.5,-1.8125 0.34375,-0.8125 0.75,-1.3125 -0.65625,-1 -1.65625,-1.53125 -1,-0.53125 -2.09375,-0.53125 -1.71875,0 -2.9375,1.21875 -1.21875,1.21875 -1.21875,2.9375 0,1.875 1.875,3.71875 1.90625,1.8125 5,2.9375 l -0.84375,1.875 q -3.65625,-1.34375 -5.90625,-3.6875 -2.21875,-2.34375 -2.21875,-4.84375 0,-2.59375 1.8125,-4.40625 1.84375,-1.84375 4.4375,-1.84375 1.53125,0 2.90625,0.625 1.375,0.59375 2.28125,1.65625 0.9375,-1.0625 2.1875,-1.65625 1.25,-0.625 2.625,-0.625 v -4.375 z"
         id="path93" />
      <path
         d="m 332.32812,154 1.65625,-7.28125 h 3.03125 L 333.89062,154 Z"
         id="path95" />
      <path
         d="m 352.48437,131.0625 v -1.875 h 14.46875 v 1.875 h -2.8125 v 4.78125 q 0,1.9375 -1.3125,3.28125 -1.28125,1.3125 -3.0625,1.3125 -0.25,0 -0.6875,-0.0937 -0.40625,-0.125 -1,-0.34375 1.34375,2.34375 3.15625,4.5 1.84375,2.125 4.125,4.03125 L 364.14062,150 q -3.34375,-2.78125 -6.03125,-6.3125 -2.6875,-3.5625 -4.59375,-7.625 l 1.875,-1.03125 q 0.53125,1.5 1.71875,2.40625 1.21875,0.90625 2.65625,0.90625 0.9375,0 1.59375,-0.71875 0.6875,-0.71875 0.6875,-1.78125 v -4.78125 z"
         id="path97" />
      <path
         d="m 361.85937,124.0625 v -2.90625 h 3.125 v 2.90625 z"
         id="path99" />
      <path
         d="m 366.10937,131.0625 v -1.875 h 17 v 1.875 h -3.53125 V 150 h -2.0625 v -18.9375 h -5.21875 V 141.25 q 0,0.5 -0.3125,0.875 -0.3125,0.375 -0.71875,0.375 -0.78125,0 -2.46875,-1.9375 -1.6875,-1.96875 -1.6875,-2.84375 0,-0.3125 0.25,-0.5625 0.25,-0.25 0.5625,-0.25 h 1.46875 q 0.34375,0 0.59375,-0.3125 0.25,-0.3125 0.25,-0.75 v -4.78125 z"
         id="path101" />
      <path
         d="m 382.26562,131.0625 v -1.875 h 3.53125 q -0.53125,-3 -1.96875,-4.9375 -1.40625,-1.9375 -3.03125,-1.9375 -1.21875,0 -2.0625,0.8125 -0.84375,0.78125 -0.84375,1.90625 0,1 0.4375,2 0.4375,0.96875 1.21875,1.75 h -2.28125 q -0.71875,-0.71875 -1.09375,-1.6875 -0.375,-0.96875 -0.375,-2.0625 0,-1.90625 1.46875,-3.21875 1.4375,-1.34375 3.53125,-1.34375 2.40625,0 4.40625,2.46875 2,2.46875 2.65625,6.25 h 3.5625 v 1.875 h -3.5625 V 150 h -2.0625 v -18.9375 z"
         id="path103" />
      <path
         d="m 392.32812,139.8125 q 0,-2 1.28125,-3.375 1.28125,-1.40625 3.0625,-1.40625 h 8.125 v -3.96875 h -14.21875 v -1.875 h 19.84375 v 1.875 h -3.53125 V 150 h -2.09375 v -12.90625 h -8.125 q -0.9375,0 -1.625,0.8125 -0.65625,0.78125 -0.65625,1.90625 0,2 1.40625,4.28125 1.4375,2.28125 4,4.4375 l -1.25,1.46875 q -2.9375,-2.5 -4.59375,-5.15625 -1.625,-2.65625 -1.625,-5.03125 z"
         id="path105" />
      <path
         d="m 410.51562,154 1.65625,-7.28125 h 3.03125 L 412.07812,154 Z"
         id="path107" />
      <path
         d="m 440.76562,148.53125 q -2.5,0 -4.84375,-2.0625 -2.34375,-2.09375 -4.09375,-5.84375 l 1.46875,-1.25 q 1.5625,3.375 3.5,5.25 1.96875,1.84375 3.96875,1.84375 1.3125,0 2.21875,-1.09375 0.90625,-1.125 0.90625,-2.65625 0,-1.46875 -1.03125,-2.5 -1.03125,-1.03125 -2.5,-1.03125 -0.46875,0 -1,0.0937 -0.5,0.0937 -1.09375,0.3125 l -0.8125,-1.875 q 1.875,-0.15625 3.3125,-1.34375 1.46875,-1.21875 1.46875,-2.59375 0,-1.125 -0.875,-1.90625 -0.84375,-0.8125 -2.03125,-0.8125 -1,0 -2.21875,0.78125 -1.21875,0.75 -2.375,2.125 l -1.4375,-1.4375 q 1.0625,-1.59375 2.65625,-2.46875 1.625,-0.875 3.375,-0.875 2.0625,0 3.5,1.34375 1.46875,1.3125 1.46875,3.25 0,1.125 -0.5,2.15625 -0.5,1.03125 -1.34375,1.78125 1.40625,0.84375 2.78125,1.25 1.375,0.40625 2.625,0.40625 0.3125,0 0.84375,-0.1875 0.53125,-0.21875 1.21875,-0.625 v -7.5 h -3.75 v -1.875 h 17.90625 v 1.875 h -3.53125 V 150 h -2.09375 v -18.9375 h -6.4375 V 150 h -2.09375 v -9.375 q -0.5,0.4375 -1.03125,0.65625 -0.5,0.1875 -1.03125,0.1875 -0.875,0 -1.59375,-0.15625 -0.71875,-0.1875 -1.125,-0.46875 0.40625,0.34375 0.625,0.9375 0.21875,0.59375 0.21875,1.34375 0,2.25 -1.53125,3.84375 -1.5,1.5625 -3.6875,1.5625 z"
         id="path109" />
      <path
         d="m 464.26562,137.53125 q 0,-0.4375 0.4375,-0.75 0.4375,-0.3125 1.03125,-0.3125 h 11 v -5.40625 h -13.5 v -1.875 h 19.125 v 1.875 h -3.53125 V 150 h -2.09375 v -11.4375 h -6.03125 q -0.5,0 -0.875,0.25 -0.375,0.25 -0.375,0.5625 v 2.09375 q 0,0.5 -0.3125,0.875 -0.3125,0.375 -0.71875,0.375 -0.71875,0 -2.4375,-2.15625 -1.71875,-2.1875 -1.71875,-3.03125 z"
         id="path111" />
      <path
         d="m 476.48437,124.0625 v -2.90625 h 3.125 v 2.90625 z"
         id="path113" />
      <path
         d="m 481.26562,131.0625 v -1.875 h 18 v 1.875 h -3.3125 v 5.40625 h -8.125 q -1.21875,0 -2.0625,0.875 -0.84375,0.84375 -0.84375,2.03125 0,2.25 2.375,3.84375 2.375,1.59375 5.75,1.59375 0,-1.46875 0.65625,-2.5 0.65625,-1.0625 1.625,-1.0625 0.6875,0 1.15625,0.5 0.5,0.46875 0.5,1.1875 0,0.8125 -0.5,1.65625 -0.5,0.84375 -1.375,1.4375 l 2.28125,3.96875 -1.875,0.84375 -2.28125,-4.1875 q -4.3125,0 -7.375,-2.125 -3.03125,-2.15625 -3.03125,-5.15625 0,-2.0625 1.4375,-3.5 1.46875,-1.46875 3.5625,-1.46875 h 6.03125 v -3.34375 z"
         id="path115" />
      <path
         d="m 510.04687,139.8125 q 0,-2 1.28125,-3.375 1.28125,-1.40625 3.0625,-1.40625 h 8.125 v -3.96875 h -14.21875 v -1.875 h 19.84375 v 1.875 h -3.53125 V 150 h -2.09375 v -12.90625 h -8.125 q -0.9375,0 -1.625,0.8125 -0.65625,0.78125 -0.65625,1.90625 0,2 1.40625,4.28125 1.4375,2.28125 4,4.4375 l -1.25,1.46875 q -2.9375,-2.5 -4.59375,-5.15625 -1.625,-2.65625 -1.625,-5.03125 z"
         id="path117" />
      <path
         d="m 527.29687,131.0625 v -1.875 h 3.53125 q -0.53125,-3 -1.96875,-4.9375 -1.40625,-1.9375 -3.03125,-1.9375 -1.21875,0 -2.0625,0.8125 -0.84375,0.78125 -0.84375,1.90625 0,1 0.4375,2 0.4375,0.96875 1.21875,1.75 h -2.28125 q -0.71875,-0.71875 -1.09375,-1.6875 -0.375,-0.96875 -0.375,-2.0625 0,-1.90625 1.46875,-3.21875 1.4375,-1.34375 3.53125,-1.34375 2.40625,0 4.40625,2.46875 2,2.46875 2.65625,6.25 h 3.5625 v 1.875 h -3.5625 V 150 h -2.0625 v -18.9375 z"
         id="path119" />
      <path
         d="m 553.29687,141.875 q 1.28125,0 2.40625,-0.78125 1.125,-0.78125 1.75,-2.125 v -7.90625 h -7.6875 v 7.5 q 0,1.375 1.03125,2.34375 1.03125,0.96875 2.5,0.96875 z m -5.625,-3.3125 v -7.5 h -2.1875 v -1.875 h 17.59375 v 1.875 h -3.53125 V 150 h -2.09375 v -7.90625 q -0.90625,0.90625 -2,1.40625 -1.0625,0.46875 -2.15625,0.46875 -2.34375,0 -4,-1.5625 -1.625,-1.59375 -1.625,-3.84375 z"
         id="path121" />
      <path
         d="m 562.23437,131.0625 v -1.875 h 23 v 1.875 h -3.53125 V 150 h -2.09375 v -10 h -8.875 q -0.84375,0.625 -1.9375,0.625 -0.25,0 -0.5,-0.0625 -0.21875,-0.0625 -0.34375,-0.125 l 6.25,8.71875 -1.65625,1.0625 -9.375,-13.3125 1.6875,-1.25 q 0.65625,1.40625 1.53125,2.25 0.90625,0.84375 1.78125,0.84375 0.875,0 1.46875,-0.59375 0.625,-0.59375 0.625,-1.46875 v -5.625 z m 9.90625,6.875 h 7.46875 v -6.875 h -7.28125 v 5.625 q 0,0.65625 -0.1875,1.25 z"
         id="path123" />
      <path
         d="m 584.39062,131.0625 v -1.875 h 14.46875 v 1.875 h -2.8125 v 4.78125 q 0,1.9375 -1.3125,3.28125 -1.28125,1.3125 -3.0625,1.3125 -0.25,0 -0.6875,-0.0937 -0.40625,-0.125 -1,-0.34375 1.34375,2.34375 3.15625,4.5 1.84375,2.125 4.125,4.03125 L 596.04687,150 q -3.34375,-2.78125 -6.03125,-6.3125 -2.6875,-3.5625 -4.59375,-7.625 l 1.875,-1.03125 q 0.53125,1.5 1.71875,2.40625 1.21875,0.90625 2.65625,0.90625 0.9375,0 1.59375,-0.71875 0.6875,-0.71875 0.6875,-1.78125 v -4.78125 z"
         id="path125" />
      <path
         d="m 599.76562,139.8125 q 0,-2 1.28125,-3.375 1.28125,-1.40625 3.0625,-1.40625 h 8.125 v -3.96875 h -14.21875 v -1.875 h 19.84375 v 1.875 h -3.53125 V 150 h -2.09375 v -12.90625 h -8.125 q -0.9375,0 -1.625,0.8125 -0.65625,0.78125 -0.65625,1.90625 0,2 1.40625,4.28125 1.4375,2.28125 4,4.4375 l -1.25,1.46875 q -2.9375,-2.5 -4.59375,-5.15625 -1.625,-2.65625 -1.625,-5.03125 z"
         id="path127" />
      <path
         d="m 611.89062,129.1875 -7.6875,-9.15625 1.4375,-1.25 8.3125,10.40625 z"
         id="path129" />
      <path
         d="m 619.76562,150 v -3.28125 h 2.65625 V 150 Z"
         id="path131" />
    </g>
    <g
       aria-label="उंच उडी, धावते ती, वेगात ती झेपते,"
       id="text6">
      <path
         d="m 190.35937,181.0625 v -1.875 h 20.53125 v 1.875 h -4.4375 q 0.625,0.71875 0.9375,1.59375 0.3125,0.875 0.3125,1.75 0,1.375 -0.5625,2.5 -0.5625,1.09375 -1.53125,1.65625 1.34375,0.4375 2.125,1.8125 0.8125,1.375 0.8125,3.1875 0,2.40625 -1.65625,4.125 -1.65625,1.6875 -3.96875,1.6875 -3.21875,0 -6.21875,-3.375 -2.96875,-3.40625 -5.21875,-9.53125 l 1.6875,-0.75 q 2,5.5 4.5625,8.53125 2.5625,3.03125 5.1875,3.03125 1.4375,0 2.46875,-1.09375 1.0625,-1.09375 1.0625,-2.625 0,-1.71875 -1,-2.9375 -0.96875,-1.25 -2.34375,-1.25 h -4.15625 l -0.8125,-1.84375 h 4.5625 q 1.21875,0 2.0625,-0.90625 0.84375,-0.9375 0.84375,-2.21875 0,-0.875 -0.5,-1.75 -0.5,-0.875 -1.375,-1.59375 z"
         id="path134" />
      <path
         d="m 203.79687,174.0625 v -2.90625 h 3.125 v 2.90625 z"
         id="path136" />
      <path
         d="m 210.07812,181.0625 v -1.875 h 20.75 v 1.875 h -3.53125 V 200 h -2.09375 v -7.5 q -1.25,1.75 -2.71875,2.75 -1.46875,1 -2.875,1 -2.09375,0 -3.5625,-1.4375 -1.4375,-1.46875 -1.4375,-3.5625 0,-1.5 0.59375,-2.71875 0.59375,-1.21875 1.6875,-1.84375 h -6.03125 v -2.09375 h 12.28125 v 2.09375 h -2.90625 q -1.59375,0.59375 -2.59375,1.84375 -0.96875,1.21875 -0.96875,2.71875 0,1.21875 0.84375,2.09375 0.875,0.84375 2.09375,0.84375 1.3125,0 2.8125,-1.28125 1.5,-1.3125 2.78125,-3.53125 v -8.3125 z"
         id="path138" />
      <path
         d="m 239.85937,181.0625 v -1.875 h 20.53125 v 1.875 h -4.4375 q 0.625,0.71875 0.9375,1.59375 0.3125,0.875 0.3125,1.75 0,1.375 -0.5625,2.5 -0.5625,1.09375 -1.53125,1.65625 1.34375,0.4375 2.125,1.8125 0.8125,1.375 0.8125,3.1875 0,2.40625 -1.65625,4.125 -1.65625,1.6875 -3.96875,1.6875 -3.21875,0 -6.21875,-3.375 -2.96875,-3.40625 -5.21875,-9.53125 l 1.6875,-0.75 q 2,5.5 4.5625,8.53125 2.5625,3.03125 5.1875,3.03125 1.4375,0 2.46875,-1.09375 1.0625,-1.09375 1.0625,-2.625 0,-1.71875 -1,-2.9375 -0.96875,-1.25 -2.34375,-1.25 h -4.15625 l -0.8125,-1.84375 h 4.5625 q 1.21875,0 2.0625,-0.90625 0.84375,-0.9375 0.84375,-2.21875 0,-0.875 -0.5,-1.75 -0.5,-0.875 -1.375,-1.59375 z"
         id="path140" />
      <path
         d="m 272.01562,199.59375 q -3.28125,0 -6.40625,-2.46875 -3.09375,-2.5 -5.03125,-6.6875 l 1.65625,-1.0625 q 1.75,3.71875 4.375,5.9375 2.65625,2.1875 5.40625,2.1875 1.6875,0 2.90625,-1.28125 1.25,-1.28125 1.25,-3.09375 0,-0.5 -0.3125,-0.875 -0.3125,-0.375 -0.71875,-0.375 -0.6875,0 -1.90625,0.4375 -1.1875,0.40625 -1.84375,0.40625 -1.59375,0 -3.5,-2 -1.90625,-2 -1.90625,-3.625 0,-1.125 0.78125,-1.90625 0.78125,-0.78125 1.90625,-0.78125 h 5.625 v -3.34375 h -14.71875 v -1.875 h 20.53125 v 1.875 h -3.71875 v 5.40625 h -7.71875 q -0.25,0 -0.4375,0.1875 -0.1875,0.1875 -0.1875,0.4375 0,0.875 1.25,2.21875 1.25,1.3125 2.09375,1.3125 0.65625,0 1.84375,-0.40625 1.21875,-0.40625 1.90625,-0.40625 1.28125,0 2.1875,0.96875 0.9375,0.96875 0.9375,2.34375 0,2.6875 -1.84375,4.59375 -1.84375,1.875 -4.40625,1.875 z"
         id="path142" />
      <path
         d="m 279.29687,181.0625 v -1.875 h 3.53125 q -0.53125,-3 -1.96875,-4.9375 -1.40625,-1.9375 -3.03125,-1.9375 -1.21875,0 -2.0625,0.8125 -0.84375,0.78125 -0.84375,1.90625 0,1 0.4375,2 0.4375,0.96875 1.21875,1.75 h -2.28125 q -0.71875,-0.71875 -1.09375,-1.6875 -0.375,-0.96875 -0.375,-2.0625 0,-1.90625 1.46875,-3.21875 1.4375,-1.34375 3.53125,-1.34375 2.40625,0 4.40625,2.46875 2,2.46875 2.65625,6.25 h 3.5625 v 1.875 h -3.5625 V 200 h -2.0625 v -18.9375 z"
         id="path144" />
      <path
         d="m 288.54687,204 1.65625,-7.28125 h 3.03125 L 290.10937,204 Z"
         id="path146" />
      <path
         d="m 317.73437,196.46875 q -2.34375,0 -4,-1.28125 -1.625,-1.3125 -1.625,-3.09375 0,-1.125 0.4375,-2.0625 0.4375,-0.9375 1.21875,-1.46875 -1.65625,-1.15625 -2.59375,-2.65625 -0.9375,-1.5 -0.9375,-2.96875 0,-1.78125 1.21875,-3.0625 1.25,-1.3125 2.9375,-1.3125 1.78125,0 2.875,0.96875 1.09375,0.9375 1.09375,2.5625 0,1.375 -1.125,2.375 -1.09375,0.96875 -2.625,0.96875 v -2.09375 q 0.6875,0 1.15625,-0.375 0.5,-0.375 0.5,-0.875 0,-0.5625 -0.5625,-1 -0.53125,-0.4375 -1.3125,-0.4375 -0.875,0 -1.46875,0.65625 -0.59375,0.65625 -0.59375,1.625 0,1.21875 0.8125,2.375 0.84375,1.15625 2.28125,2 0.6875,-0.28125 1.46875,-0.4375 0.78125,-0.1875 1.65625,-0.1875 h 1.25 l 1.25,2.0625 h -2.28125 q -1.90625,0 -3.25,1 -1.34375,0.96875 -1.34375,2.34375 0,0.96875 1.03125,1.625 1.0625,0.65625 2.53125,0.65625 1.65625,0 3.34375,-1.09375 1.71875,-1.09375 3.09375,-3.0625 v -9.15625 h -4.5625 v -1.875 h 10.1875 v 1.875 h -3.53125 V 200 h -2.09375 v -6.875 q -1.34375,1.59375 -3.03125,2.46875 -1.65625,0.875 -3.40625,0.875 z"
         id="path148" />
      <path
         d="m 328.95312,181.0625 v -1.875 h 9.15625 v 1.875 h -3.5625 V 200 h -2.0625 v -18.9375 z"
         id="path150" />
      <path
         d="m 337.26562,181.0625 v -1.875 h 17.8125 v 1.875 h -3.5625 V 200 h -2.0625 v -6.65625 q -0.84375,1 -2,1.5625 -1.125,0.53125 -2.375,0.53125 -2.59375,0 -4.4375,-1.65625 -1.8125,-1.65625 -1.8125,-3.96875 0,-2.34375 1.8125,-3.96875 1.84375,-1.65625 4.4375,-1.65625 0.75,0 1.4375,0.21875 0.6875,0.1875 1.28125,0.625 l -1.0625,1.65625 q -0.375,-0.28125 -0.78125,-0.4375 -0.40625,-0.1875 -0.875,-0.1875 -1.71875,0 -2.9375,1.09375 -1.21875,1.09375 -1.21875,2.65625 0,1.4375 1.21875,2.5 1.21875,1.03125 2.9375,1.03125 1.21875,0 2.375,-0.8125 1.15625,-0.84375 2,-2.3125 v -9.15625 z"
         id="path152" />
      <path
         d="m 355.98437,189.8125 q 0,-2 1.28125,-3.375 1.28125,-1.40625 3.0625,-1.40625 h 8.125 v -3.96875 h -14.21875 v -1.875 h 19.84375 v 1.875 h -3.53125 V 200 h -2.09375 v -12.90625 h -8.125 q -0.9375,0 -1.625,0.8125 -0.65625,0.78125 -0.65625,1.90625 0,2 1.40625,4.28125 1.4375,2.28125 4,4.4375 l -1.25,1.46875 q -2.9375,-2.5 -4.59375,-5.15625 -1.625,-2.65625 -1.625,-5.03125 z"
         id="path154" />
      <path
         d="m 368.10937,179.1875 -7.6875,-9.15625 1.4375,-1.25 8.3125,10.40625 z"
         id="path156" />
      <path
         d="m 384.85937,189.8125 q 0,-2 1.28125,-3.375 1.28125,-1.40625 3.0625,-1.40625 h 8.125 v -3.96875 h -14.21875 v -1.875 h 19.84375 v 1.875 h -3.53125 V 200 h -2.09375 v -12.90625 h -8.125 q -0.9375,0 -1.625,0.8125 -0.65625,0.78125 -0.65625,1.90625 0,2 1.40625,4.28125 1.4375,2.28125 4,4.4375 l -1.25,1.46875 q -2.9375,-2.5 -4.59375,-5.15625 -1.625,-2.65625 -1.625,-5.03125 z"
         id="path158" />
      <path
         d="m 402.10937,181.0625 v -1.875 h 3.53125 q -0.53125,-3 -1.96875,-4.9375 -1.40625,-1.9375 -3.03125,-1.9375 -1.21875,0 -2.0625,0.8125 -0.84375,0.78125 -0.84375,1.90625 0,1 0.4375,2 0.4375,0.96875 1.21875,1.75 h -2.28125 q -0.71875,-0.71875 -1.09375,-1.6875 -0.375,-0.96875 -0.375,-2.0625 0,-1.90625 1.46875,-3.21875 1.4375,-1.34375 3.53125,-1.34375 2.40625,0 4.40625,2.46875 2,2.46875 2.65625,6.25 h 3.5625 v 1.875 h -3.5625 V 200 h -2.0625 v -18.9375 z"
         id="path160" />
      <path
         d="m 411.35937,204 1.65625,-7.28125 h 3.03125 L 412.92187,204 Z"
         id="path162" />
      <path
         d="m 431.51562,181.0625 v -1.875 h 17.8125 v 1.875 h -3.5625 V 200 h -2.0625 v -6.65625 q -0.84375,1 -2,1.5625 -1.125,0.53125 -2.375,0.53125 -2.59375,0 -4.4375,-1.65625 -1.8125,-1.65625 -1.8125,-3.96875 0,-2.34375 1.8125,-3.96875 1.84375,-1.65625 4.4375,-1.65625 0.75,0 1.4375,0.21875 0.6875,0.1875 1.28125,0.625 l -1.0625,1.65625 q -0.375,-0.28125 -0.78125,-0.4375 -0.40625,-0.1875 -0.875,-0.1875 -1.71875,0 -2.9375,1.09375 -1.21875,1.09375 -1.21875,2.65625 0,1.4375 1.21875,2.5 1.21875,1.03125 2.9375,1.03125 1.21875,0 2.375,-0.8125 1.15625,-0.84375 2,-2.3125 v -9.15625 z"
         id="path164" />
      <path
         d="M 443.26562,179.15625 435.57812,170 l 1.4375,-1.25 8.3125,10.40625 z"
         id="path166" />
      <path
         d="m 448.48437,181.0625 v -1.875 h 17 v 1.875 h -3.53125 V 200 h -2.0625 v -18.9375 h -5.21875 V 191.25 q 0,0.5 -0.3125,0.875 -0.3125,0.375 -0.71875,0.375 -0.78125,0 -2.46875,-1.9375 -1.6875,-1.96875 -1.6875,-2.84375 0,-0.3125 0.25,-0.5625 0.25,-0.25 0.5625,-0.25 h 1.46875 q 0.34375,0 0.59375,-0.3125 0.25,-0.3125 0.25,-0.75 v -4.78125 z"
         id="path168" />
      <path
         d="m 464.64062,181.0625 v -1.875 h 9.15625 v 1.875 h -3.5625 V 200 h -2.0625 v -18.9375 z"
         id="path170" />
      <path
         d="m 474.70312,189.8125 q 0,-2 1.28125,-3.375 1.28125,-1.40625 3.0625,-1.40625 h 8.125 v -3.96875 h -14.21875 v -1.875 h 19.84375 v 1.875 h -3.53125 V 200 h -2.09375 v -12.90625 h -8.125 q -0.9375,0 -1.625,0.8125 -0.65625,0.78125 -0.65625,1.90625 0,2 1.40625,4.28125 1.4375,2.28125 4,4.4375 l -1.25,1.46875 q -2.9375,-2.5 -4.59375,-5.15625 -1.625,-2.65625 -1.625,-5.03125 z"
         id="path172" />
      <path
         d="m 503.57812,189.8125 q 0,-2 1.28125,-3.375 1.28125,-1.40625 3.0625,-1.40625 h 8.125 v -3.96875 h -14.21875 v -1.875 h 19.84375 v 1.875 h -3.53125 V 200 h -2.09375 v -12.90625 h -8.125 q -0.9375,0 -1.625,0.8125 -0.65625,0.78125 -0.65625,1.90625 0,2 1.40625,4.28125 1.4375,2.28125 4,4.4375 l -1.25,1.46875 q -2.9375,-2.5 -4.59375,-5.15625 -1.625,-2.65625 -1.625,-5.03125 z"
         id="path174" />
      <path
         d="m 520.82812,181.0625 v -1.875 h 3.53125 q -0.53125,-3 -1.96875,-4.9375 -1.40625,-1.9375 -3.03125,-1.9375 -1.21875,0 -2.0625,0.8125 -0.84375,0.78125 -0.84375,1.90625 0,1 0.4375,2 0.4375,0.96875 1.21875,1.75 h -2.28125 q -0.71875,-0.71875 -1.09375,-1.6875 -0.375,-0.96875 -0.375,-2.0625 0,-1.90625 1.46875,-3.21875 1.4375,-1.34375 3.53125,-1.34375 2.40625,0 4.40625,2.46875 2,2.46875 2.65625,6.25 h 3.5625 v 1.875 h -3.5625 V 200 h -2.0625 v -18.9375 z"
         id="path176" />
      <path
         d="m 554.35937,190.4375 q 0.46875,0 1.15625,-0.21875 0.6875,-0.21875 1.5625,-0.625 v -8.53125 h -5.84375 v 5 h -7.28125 q -0.40625,0 -0.71875,0.1875 -0.3125,0.1875 -0.3125,0.4375 0,0.78125 0.9375,1.96875 0.9375,1.15625 1.5625,1.15625 0.625,0 1.75,-0.40625 1.15625,-0.4375 1.78125,-0.4375 0.59375,0 1.125,0.1875 0.53125,0.15625 0.96875,0.4375 0.5625,0.40625 1.40625,0.625 0.875,0.21875 1.90625,0.21875 z m -5,11.03125 q -1.375,-0.625 -2.53125,-1.4375 -1.125,-0.78125 -2.03125,-1.6875 -1.625,0 -2.8125,-0.71875 -1.15625,-0.75 -1.15625,-1.78125 0,-0.71875 0.46875,-1.1875 0.5,-0.46875 1.21875,-0.46875 0.875,0 1.75,0.53125 0.90625,0.53125 1.5625,1.53125 1.78125,-0.3125 2.96875,-1.40625 1.1875,-1.125 1.1875,-2.53125 0,-0.5 -0.3125,-0.875 -0.3125,-0.375 -0.71875,-0.375 -0.625,0 -1.78125,0.40625 -1.125,0.40625 -1.75,0.40625 -1.125,0 -2.875,-1.9375 -1.71875,-1.96875 -1.71875,-3.25 0,-1.125 0.90625,-1.90625 0.9375,-0.8125 2.21875,-0.8125 h 5.21875 v -2.90625 h -10.15625 v -1.875 h 23.65625 v 1.875 h -3.53125 V 200 h -2.0625 v -8.3125 q -0.6875,0.28125 -1.375,0.46875 -0.6875,0.15625 -1.34375,0.15625 -0.59375,0 -1.15625,-0.0937 -0.5625,-0.125 -1.125,-0.34375 0,2.34375 -1.375,3.875 -1.375,1.53125 -3.84375,1.96875 1.0625,0.875 1.9375,1.46875 0.90625,0.5625 1.625,0.8125 z"
         id="path178" />
      <path
         d="m 556.70312,179.1875 -7.6875,-9.15625 1.4375,-1.25 8.3125,10.40625 z"
         id="path180" />
      <path
         d="m 569.67187,191.875 q 1.28125,0 2.40625,-0.78125 1.125,-0.78125 1.75,-2.125 v -7.90625 h -7.6875 v 7.5 q 0,1.375 1.03125,2.34375 1.03125,0.96875 2.5,0.96875 z m -5.625,-3.3125 v -7.5 h -2.1875 v -1.875 h 17.59375 v 1.875 h -3.53125 V 200 h -2.09375 v -7.90625 q -0.90625,0.90625 -2,1.40625 -1.0625,0.46875 -2.15625,0.46875 -2.34375,0 -4,-1.5625 -1.625,-1.59375 -1.625,-3.84375 z"
         id="path182" />
      <path
         d="m 580.35937,189.8125 q 0,-2 1.28125,-3.375 1.28125,-1.40625 3.0625,-1.40625 h 8.125 v -3.96875 h -14.21875 v -1.875 h 19.84375 v 1.875 h -3.53125 V 200 h -2.09375 v -12.90625 h -8.125 q -0.9375,0 -1.625,0.8125 -0.65625,0.78125 -0.65625,1.90625 0,2 1.40625,4.28125 1.4375,2.28125 4,4.4375 l -1.25,1.46875 q -2.9375,-2.5 -4.59375,-5.15625 -1.625,-2.65625 -1.625,-5.03125 z"
         id="path184" />
      <path
         d="m 592.48437,179.1875 -7.6875,-9.15625 1.4375,-1.25 8.3125,10.40625 z"
         id="path186" />
      <path
         d="m 598.54687,204 1.65625,-7.28125 h 3.03125 L 600.10937,204 Z"
         id="path188" />
    </g>
    <g
       aria-label="मन प्रफुल्लित करते, शिवानी खेळते ते."
       id="text8">
      <path
         d="m 194.26562,237.9375 h 7.5 v -6.875 h -7.5 z m -5.8125,-6.875 v -1.875 h 18.9375 v 1.875 h -3.5625 V 250 h -2.0625 v -10 h -7.5 v 1.46875 q 0,0.5 -0.1875,0.875 -0.1875,0.375 -0.4375,0.375 -0.71875,0 -2.4375,-1.5625 -1.71875,-1.5625 -1.71875,-2.1875 0,-0.40625 0.3125,-0.71875 0.3125,-0.3125 0.71875,-0.3125 h 1.6875 v -6.875 z"
         id="path191" />
      <path
         d="m 207.57812,237.53125 q 0,-0.4375 0.4375,-0.75 0.4375,-0.3125 1.03125,-0.3125 h 11 v -5.40625 h -13.5 v -1.875 h 19.125 v 1.875 h -3.53125 V 250 h -2.09375 v -11.4375 h -6.03125 q -0.5,0 -0.875,0.25 -0.375,0.25 -0.375,0.5625 v 2.09375 q 0,0.5 -0.3125,0.875 -0.3125,0.375 -0.71875,0.375 -0.71875,0 -2.4375,-2.15625 -1.71875,-2.1875 -1.71875,-3.03125 z"
         id="path193" />
      <path
         d="m 243.54687,242.09375 q 0.0937,0 0.5,-0.0937 l 0.75,-0.125 3.125,-2.0625 v -8.75 h -7.90625 v 7.5 q 0,1.4375 1.03125,2.5 1.0625,1.03125 2.5,1.03125 z m -8.84375,-11.03125 v -1.875 h 18.84375 v 1.875 h -3.53125 V 250 h -2.09375 v -7.90625 L 237.51562,250 l -1.25,-1.65625 6.25,-4.59375 q -2,-0.5 -3.28125,-1.9375 -1.28125,-1.46875 -1.28125,-3.25 v -7.5 z"
         id="path195" />
      <path
         d="m 260.01562,241.25 q 1.21875,0 2.3125,-0.59375 1.09375,-0.59375 1.84375,-1.6875 v -7.90625 h -7.28125 v 7.28125 q 0,1.21875 0.90625,2.0625 0.9375,0.84375 2.21875,0.84375 z m -5.1875,-2.90625 v -7.28125 h -2.125 v -1.875 h 25.03125 v 1.875 h -11.46875 v 5.84375 q 0.8125,-1 1.96875,-1.53125 1.15625,-0.5625 2.40625,-0.5625 2.15625,0 3.65625,1.71875 1.53125,1.6875 1.53125,4.09375 0,1.875 -0.71875,3.6875 -0.6875,1.8125 -2,3.40625 l -1.84375,-1.0625 q 1.1875,-1.1875 1.8125,-2.75 0.65625,-1.5625 0.65625,-3.28125 0,-1.53125 -0.90625,-2.625 -0.90625,-1.09375 -2.1875,-1.09375 -1.09375,0 -2.25,0.65625 -1.125,0.625 -2.125,1.8125 V 250 h -2.09375 v -8.3125 q -0.78125,0.78125 -1.875,1.21875 -1.0625,0.4375 -2.28125,0.4375 -2.15625,0 -3.6875,-1.4375 -1.5,-1.46875 -1.5,-3.5625 z"
         id="path197" />
      <path
         d="m 263.54687,259.71875 q -2.25,0 -4.6875,-1.09375 -2.46875,-1.0625 -4.875,-3.0625 l 1.46875,-1.875 q 2.28125,1.90625 4.375,2.90625 2.0625,1.03125 3.71875,1.03125 1.8125,0 3.09375,-0.90625 1.28125,-0.90625 1.28125,-2.1875 0,-1.0625 -0.65625,-1.78125 -0.6875,-0.71875 -1.625,-0.71875 -1,0 -1.875,0.375 -0.875,0.375 -1.46875,1.0625 l -1.4375,-1.4375 q 0.8125,-1 2.0625,-1.53125 1.25,-0.5625 2.71875,-0.5625 1.78125,0 3.09375,1.3125 1.28125,1.34375 1.28125,3.28125 0,2.15625 -1.90625,3.65625 -1.90625,1.53125 -4.5625,1.53125 z"
         id="path199" />
      <path
         d="m 276.89062,231.0625 v -1.875 h 3.53125 q -0.28125,-0.375 -0.46875,-0.84375 -0.15625,-0.46875 -0.15625,-1.03125 0,-2.8125 2.34375,-4.8125 2.34375,-2.03125 7.4375,-2.03125 2.90625,0 6.71875,1.875 3.84375,1.875 8.96875,6.90625 h -2.5 q -4.84375,-4.65625 -8.28125,-5.875 -2.9375,-1.0625 -4.59375,-1.0625 -4.21875,0 -6.125,1.46875 -1.90625,1.46875 -1.90625,3.53125 0,0.5625 0.15625,1.03125 0.1875,0.46875 0.46875,0.84375 h 3.5625 v 1.875 h -3.5625 V 250 h -2.0625 v -18.9375 z"
         id="path201" />
      <path
         d="m 297.60937,243.125 q 1.3125,-1.125 2.8125,-1.6875 1.5,-0.59375 3,-0.59375 v -5 q -2.21875,0 -3.8125,0.875 -1.5625,0.875 -1.8125,2.25 l -1.875,-0.625 q 0.125,-0.25 0.25,-0.59375 0.125,-0.34375 0.1875,-0.4375 -0.59375,-0.71875 -1.59375,-1.09375 -0.96875,-0.375 -2.15625,-0.375 -1.21875,0 -2.09375,0.6875 -0.84375,0.65625 -0.84375,1.59375 0,1.09375 0.6875,2.03125 0.6875,0.90625 1.8125,1.3125 1.8125,0 3.21875,0.4375 1.40625,0.4375 2.21875,1.21875 z m -12.40625,-12.0625 v -1.875 h 23.84375 v 1.875 h -3.53125 V 250 h -2.09375 v -7.0625 q -2.125,0 -3.78125,1.03125 -1.625,1 -2.25,2.6875 l -1.65625,-1.03125 q 0.125,-0.375 0.34375,-0.6875 0.21875,-0.34375 0.46875,-0.5625 -0.875,-0.5 -1.90625,-0.75 -1,-0.28125 -2.03125,-0.28125 -1.21875,0 -2.09375,0.75 -0.84375,0.71875 -0.84375,1.75 0,1 0.875,1.875 0.875,0.875 2.25,1.25 l -1.03125,1.4375 q -1.84375,-0.5 -3,-1.75 -1.15625,-1.28125 -1.15625,-2.8125 0,-1.34375 0.625,-2.34375 0.625,-1.03125 1.65625,-1.40625 -1.0625,-0.625 -1.6875,-1.6875 -0.59375,-1.0625 -0.59375,-2.28125 0,-1.6875 1.4375,-2.90625 1.46875,-1.25 3.5625,-1.25 1.40625,0 2.625,0.5 1.25,0.46875 2.15625,1.375 0.625,-0.875 2.21875,-1.375 1.59375,-0.5 3.8125,-0.5 v -2.90625 z"
         id="path203" />
      <path
         d="m 309.95312,239.8125 q 0,-2 1.28125,-3.375 1.28125,-1.40625 3.0625,-1.40625 h 8.125 v -3.96875 h -14.21875 v -1.875 h 19.84375 v 1.875 h -3.53125 V 250 h -2.09375 v -12.90625 h -8.125 q -0.9375,0 -1.625,0.8125 -0.65625,0.78125 -0.65625,1.90625 0,2 1.40625,4.28125 1.4375,2.28125 4,4.4375 l -1.25,1.46875 q -2.9375,-2.5 -4.59375,-5.15625 -1.625,-2.65625 -1.625,-5.03125 z"
         id="path205" />
      <path
         d="m 337.07812,231.0625 v -1.875 h 24.25 v 1.875 h -11 v 5.625 q 0.6875,-1.15625 1.84375,-1.8125 1.15625,-0.6875 2.53125,-0.6875 2,0 3.375,1.65625 1.40625,1.625 1.40625,3.96875 0,2 -1.03125,3.96875 -1.03125,1.9375 -2.90625,3.5 l -1.875,-1.25 q 1.75,-1.21875 2.75,-2.875 1,-1.65625 1,-3.34375 0,-1.46875 -0.8125,-2.5 -0.78125,-1.03125 -1.90625,-1.03125 -1.4375,0 -2.6875,1.09375 -1.21875,1.09375 -1.6875,2.84375 V 250 h -2.0625 v -6.25 q -0.75,0.875 -1.84375,1.375 -1.0625,0.5 -2.3125,0.5 -2.25,0 -3.84375,-1.5625 -1.5625,-1.59375 -1.5625,-3.84375 0,-2.5 1.8125,-4.25 1.84375,-1.78125 4.40625,-1.78125 0.75,0 1.28125,0.125 0.5625,0.0937 0.8125,0.28125 l -0.40625,2.09375 q -0.375,-0.21875 -0.8125,-0.3125 -0.40625,-0.0937 -0.875,-0.0937 -1.6875,0 -2.9375,1.15625 -1.21875,1.15625 -1.21875,2.78125 0,1.375 0.96875,2.375 1,0.96875 2.375,0.96875 1.1875,0 2.3125,-0.71875 1.125,-0.75 1.84375,-2 v -9.78125 z"
         id="path207" />
      <path
         d="m 360.48437,231.0625 v -1.875 h 14.46875 v 1.875 h -2.8125 v 4.78125 q 0,1.9375 -1.3125,3.28125 -1.28125,1.3125 -3.0625,1.3125 -0.25,0 -0.6875,-0.0937 -0.40625,-0.125 -1,-0.34375 1.34375,2.34375 3.15625,4.5 1.84375,2.125 4.125,4.03125 L 372.14062,250 q -3.34375,-2.78125 -6.03125,-6.3125 -2.6875,-3.5625 -4.59375,-7.625 l 1.875,-1.03125 q 0.53125,1.5 1.71875,2.40625 1.21875,0.90625 2.65625,0.90625 0.9375,0 1.59375,-0.71875 0.6875,-0.71875 0.6875,-1.78125 v -4.78125 z"
         id="path209" />
      <path
         d="m 375.85937,239.8125 q 0,-2 1.28125,-3.375 1.28125,-1.40625 3.0625,-1.40625 h 8.125 v -3.96875 h -14.21875 v -1.875 h 19.84375 v 1.875 h -3.53125 V 250 h -2.09375 v -12.90625 h -8.125 q -0.9375,0 -1.625,0.8125 -0.65625,0.78125 -0.65625,1.90625 0,2 1.40625,4.28125 1.4375,2.28125 4,4.4375 l -1.25,1.46875 q -2.9375,-2.5 -4.59375,-5.15625 -1.625,-2.65625 -1.625,-5.03125 z"
         id="path211" />
      <path
         d="m 387.98437,229.1875 -7.6875,-9.15625 1.4375,-1.25 8.3125,10.40625 z"
         id="path213" />
      <path
         d="m 394.04687,254 1.65625,-7.28125 h 3.03125 L 395.60937,254 Z"
         id="path215" />
      <path
         d="m 414.20312,231.0625 v -1.875 h 3.46875 q -0.0625,-0.0312 -0.0937,-1.125 0,-0.75 0,-1.6875 0,-2.78125 2.28125,-4.375 2.28125,-1.5625 6,-1.53125 5.78125,0 9.375,2.4375 3.59375,2.4375 5.8125,6.3125 h -2.46875 q -1.75,-3 -4.6875,-4.9375 -2.90625,-1.96875 -8.03125,-1.96875 -3.1875,0 -4.625,1.0625 -1.53125,1.125 -1.59375,3 -0.0312,1.28125 0,1.6875 0.15625,0.78125 0.0937,1.125 h 3.625 v 1.875 h -3.5625 V 250 h -2.0625 v -18.9375 z"
         id="path217" />
      <path
         d="m 434.70312,231.0625 v -1.875 h 9.78125 v 1.875 h -3.53125 V 250 h -2.09375 v -18.9375 z m -5.625,4.78125 q 1.03125,0 1.9375,-0.625 0.90625,-0.625 1.40625,-1.65625 -0.46875,-1.21875 -1.28125,-1.96875 -0.78125,-0.75 -1.65625,-0.75 -1.03125,0 -1.78125,0.8125 -0.71875,0.78125 -0.71875,1.90625 0,0.96875 0.59375,1.625 0.625,0.65625 1.5,0.65625 z M 433.23437,250 l -9.34375,-7.90625 1.03125,-1.46875 q 0.90625,0.75 1.4375,1.125 0.53125,0.34375 0.84375,0.34375 2.34375,0 3.96875,-1.8125 1.65625,-1.84375 1.65625,-4.4375 -0.53125,0.96875 -1.5625,1.53125 -1.03125,0.5625 -2.1875,0.5625 -1.71875,0 -2.9375,-1.28125 -1.21875,-1.3125 -1.21875,-3.09375 0,-2 1.3125,-3.375 1.34375,-1.40625 3.25,-1.40625 2.25,0 3.84375,2.09375 1.59375,2.0625 1.59375,4.96875 0,3.21875 -1.90625,5.46875 -1.90625,2.25 -4.5625,2.25 l 6.03125,4.96875 z"
         id="path219" />
      <path
         d="m 443.64062,231.0625 v -1.875 h 17.8125 v 1.875 h -3.5625 V 250 h -2.0625 v -6.65625 q -0.84375,1 -2,1.5625 -1.125,0.53125 -2.375,0.53125 -2.59375,0 -4.4375,-1.65625 -1.8125,-1.65625 -1.8125,-3.96875 0,-2.34375 1.8125,-3.96875 1.84375,-1.65625 4.4375,-1.65625 0.75,0 1.4375,0.21875 0.6875,0.1875 1.28125,0.625 l -1.0625,1.65625 q -0.375,-0.28125 -0.78125,-0.4375 -0.40625,-0.1875 -0.875,-0.1875 -1.71875,0 -2.9375,1.09375 -1.21875,1.09375 -1.21875,2.65625 0,1.4375 1.21875,2.5 1.21875,1.03125 2.9375,1.03125 1.21875,0 2.375,-0.8125 1.15625,-0.84375 2,-2.3125 v -9.15625 z"
         id="path221" />
      <path
         d="m 460.60937,231.0625 v -1.875 h 9.15625 v 1.875 h -3.5625 V 250 h -2.0625 v -18.9375 z"
         id="path223" />
      <path
         d="m 469.95312,237.53125 q 0,-0.4375 0.4375,-0.75 0.4375,-0.3125 1.03125,-0.3125 h 11 v -5.40625 h -13.5 v -1.875 h 19.125 v 1.875 h -3.53125 V 250 h -2.09375 v -11.4375 h -6.03125 q -0.5,0 -0.875,0.25 -0.375,0.25 -0.375,0.5625 v 2.09375 q 0,0.5 -0.3125,0.875 -0.3125,0.375 -0.71875,0.375 -0.71875,0 -2.4375,-2.15625 -1.71875,-2.1875 -1.71875,-3.03125 z"
         id="path225" />
      <path
         d="m 487.20312,231.0625 v -1.875 h 3.53125 q -0.53125,-3 -1.96875,-4.9375 -1.40625,-1.9375 -3.03125,-1.9375 -1.21875,0 -2.0625,0.8125 -0.84375,0.78125 -0.84375,1.90625 0,1 0.4375,2 0.4375,0.96875 1.21875,1.75 h -2.28125 q -0.71875,-0.71875 -1.09375,-1.6875 -0.375,-0.96875 -0.375,-2.0625 0,-1.90625 1.46875,-3.21875 1.4375,-1.34375 3.53125,-1.34375 2.40625,0 4.40625,2.46875 2,2.46875 2.65625,6.25 h 3.5625 v 1.875 h -3.5625 V 250 h -2.0625 v -18.9375 z"
         id="path227" />
      <path
         d="m 518.48437,248.125 q 2.34375,0 4.46875,-1.3125 2.125,-1.34375 3.4375,-3.6875 v -1.65625 q -0.8125,0.71875 -1.6875,1.09375 -0.84375,0.375 -1.625,0.375 -2.09375,0 -3.5625,-1.3125 -1.4375,-1.3125 -1.4375,-3.15625 0,-1.875 1.4375,-3.1875 1.46875,-1.3125 3.5625,-1.3125 0.78125,0 1.46875,0.1875 0.6875,0.15625 1.21875,0.4375 v 2.09375 q -0.8125,-0.28125 -1.5,-0.4375 -0.6875,-0.1875 -1.1875,-0.1875 -1.21875,0 -2.09375,0.71875 -0.84375,0.6875 -0.84375,1.6875 0,1 0.84375,1.6875 0.875,0.6875 2.09375,0.6875 0.65625,0 1.5,-0.4375 0.875,-0.4375 1.8125,-1.21875 v -8.125 h -11.4375 v 4.59375 q 0,2 -1.125,3.40625 -1.09375,1.375 -2.625,1.375 -0.28125,0 -0.5625,-0.0625 -0.28125,-0.0625 -0.46875,-0.15625 1.28125,3.59375 3.5625,5.75 2.3125,2.15625 4.75,2.15625 z m -13.09375,-17.0625 v -1.875 h 26.625 v 1.875 h -3.53125 V 250 h -2.09375 v -4.15625 q -1.375,1.9375 -3.46875,3.0625 Q 520.82812,250 518.48437,250 q -3.625,0 -6.9375,-3.8125 -3.28125,-3.84375 -4.90625,-9.90625 l 1.65625,-0.84375 q 0.46875,1.34375 1.25,2.125 0.8125,0.78125 1.65625,0.78125 0.71875,0 1.1875,-0.78125 0.46875,-0.78125 0.46875,-1.90625 v -4.59375 z"
         id="path229" />
      <path
         d="m 525.98437,229.1875 -7.6875,-9.15625 1.4375,-1.25 8.3125,10.40625 z"
         id="path231" />
      <path
         d="m 547.92187,245.84375 q 1.3125,0 2.21875,-1.3125 0.90625,-1.34375 0.90625,-3.28125 0,-1.78125 -0.90625,-3.0625 -0.90625,-1.28125 -2.21875,-1.28125 -1.125,0 -2.1875,1.21875 -1.0625,1.21875 -1.5625,3.125 0.75,2.09375 1.78125,3.34375 1.0625,1.25 1.96875,1.25 z m -9.34375,-0.21875 q 0.90625,0 1.875,-1.125 1,-1.15625 1.65625,-3.03125 -0.53125,-2.03125 -1.53125,-3.28125 -0.96875,-1.28125 -2,-1.28125 -1.46875,0 -2.5,1.34375 -1.03125,1.3125 -1.03125,3.1875 0,1.75 1.03125,2.96875 1.03125,1.21875 2.5,1.21875 z m -7.40625,-14.5625 v -1.875 h 23.78125 v 1.875 h -6.1875 v 3.96875 q 1.90625,0.3125 3.125,2.09375 1.25,1.75 1.25,4.125 0,2.6875 -1.53125,4.59375 -1.5,1.875 -3.6875,1.875 -1.28125,0 -2.59375,-1.125 -1.3125,-1.125 -2.1875,-3.03125 -0.875,1.90625 -2.125,3.03125 -1.25,1.125 -2.4375,1.125 -2.34375,0 -4,-1.8125 -1.625,-1.84375 -1.625,-4.46875 0,-2.6875 1.625,-4.53125 1.65625,-1.875 4,-1.875 1.4375,0 2.6875,1.03125 1.25,1 1.875,2.6875 0.59375,-1.53125 1.53125,-2.53125 0.9375,-1 2,-1.1875 v -3.96875 z"
         id="path233" />
      <path
         d="m 555.89062,239.8125 q 0,-2 1.28125,-3.375 1.28125,-1.40625 3.0625,-1.40625 h 8.125 v -3.96875 h -14.21875 v -1.875 h 19.84375 v 1.875 h -3.53125 V 250 h -2.09375 v -12.90625 h -8.125 q -0.9375,0 -1.625,0.8125 -0.65625,0.78125 -0.65625,1.90625 0,2 1.40625,4.28125 1.4375,2.28125 4,4.4375 l -1.25,1.46875 q -2.9375,-2.5 -4.59375,-5.15625 -1.625,-2.65625 -1.625,-5.03125 z"
         id="path235" />
      <path
         d="m 568.01562,229.1875 -7.6875,-9.15625 1.4375,-1.25 8.3125,10.40625 z"
         id="path237" />
      <path
         d="m 584.76562,239.8125 q 0,-2 1.28125,-3.375 1.28125,-1.40625 3.0625,-1.40625 h 8.125 v -3.96875 h -14.21875 v -1.875 h 19.84375 v 1.875 h -3.53125 V 250 h -2.09375 v -12.90625 h -8.125 q -0.9375,0 -1.625,0.8125 -0.65625,0.78125 -0.65625,1.90625 0,2 1.40625,4.28125 1.4375,2.28125 4,4.4375 l -1.25,1.46875 q -2.9375,-2.5 -4.59375,-5.15625 -1.625,-2.65625 -1.625,-5.03125 z"
         id="path239" />
      <path
         d="m 596.89062,229.1875 -7.6875,-9.15625 1.4375,-1.25 8.3125,10.40625 z"
         id="path241" />
      <path
         d="m 604.76562,250 v -3.28125 h 2.65625 V 250 Z"
         id="path243" />
    </g>
  </g>
</svg>
