<?xml version="1.0" encoding="UTF-8" standalone="no"?>
<svg
   width="800"
   height="300"
   version="1.1"
   id="svg10"
   sodipodi:docname="shivansh_nature.svg"
   xmlns:inkscape="http://www.inkscape.org/namespaces/inkscape"
   xmlns:sodipodi="http://sodipodi.sourceforge.net/DTD/sodipodi-0.dtd"
   xmlns="http://www.w3.org/2000/svg"
   xmlns:svg="http://www.w3.org/2000/svg">
  <defs
     id="defs14" />
  <sodipodi:namedview
     id="namedview12"
     pagecolor="#ffffff"
     bordercolor="#000000"
     borderopacity="0.25"
     inkscape:showpageshadow="2"
     inkscape:pageopacity="0.0"
     inkscape:pagecheckerboard="0"
     inkscape:deskcolor="#d1d1d1" />
  <g
     font-family="Lohit Devanagari"
     font-size="32"
     text-anchor="middle"
     fill="#000"
     id="g8">
    <g
       aria-label="Shivansh, by the river's flow,"
       id="text2">
      <path
         d="m 218.20312,95.09375 q 0,-1.46875 -1.09375,-2.46875 -1.0625,-1.03125 -2.59375,-1.65625 -1.53125,-0.65625 -3.0625,-1.34375 -1.53125,-0.6875 -2.625,-1.96875 -1.0625,-1.3125 -1.0625,-3.21875 0,-2.59375 1.65625,-4.125 1.6875,-1.53125 4.53125,-1.53125 3.875,0 6.03125,3.03125 l -1.59375,1.125 q -1.59375,-2.28125 -4.4375,-2.28125 -1.84375,0 -2.96875,1.03125 -1.09375,1.03125 -1.09375,2.75 0,1.4375 1.0625,2.375 1.09375,0.9375 2.625,1.53125 1.53125,0.59375 3.0625,1.28125 1.53125,0.6875 2.59375,2.0625 1.09375,1.34375 1.09375,3.40625 0,2.4375 -1.78125,3.875 -1.78125,1.4375 -4.75,1.4375 -4.3125,0 -6.53125,-3.59375 l 1.59375,-1.125 q 1.6875,2.84375 4.9375,2.84375 2,0 3.1875,-0.9375 1.21875,-0.9375 1.21875,-2.5 z"
         id="path16" />
      <path
         d="m 236.45312,100 h -2.0625 V 89.25 q 0,-3.40625 -3.21875,-3.40625 -2.875,0 -4.40625,2.5625 V 100 h -2.0625 V 78.125 h 2.0625 v 7.78125 q 1.84375,-1.9375 4.40625,-1.9375 2.59375,0 3.9375,1.375 1.34375,1.34375 1.34375,3.90625 z"
         id="path18" />
      <path
         d="m 243.82812,100 h -2.0625 V 84.375 h 2.0625 z m -2.0625,-19.71875 q -0.40625,-0.40625 -0.40625,-1 0,-0.59375 0.40625,-1 0.4375,-0.4375 1.03125,-0.4375 0.59375,0 1,0.4375 0.4375,0.40625 0.4375,1 0,0.59375 -0.4375,1 -0.40625,0.40625 -1,0.40625 -0.59375,0 -1.03125,-0.40625 z"
         id="path20" />
      <path
         d="m 252.54687,100 -5.125,-15.625 h 2.09375 l 4.5,13.84375 4.53125,-13.84375 h 2.09375 l -5.125,15.625 z"
         id="path22" />
      <path
         d="m 273.14062,98.375 q -1.78125,2.03125 -4.25,2.03125 -2.5625,0 -4.09375,-1.375 -1.5,-1.40625 -1.5,-3.71875 0,-2.34375 1.5,-3.71875 1.53125,-1.375 4.09375,-1.375 2.3125,0 4.09375,1.34375 v -2.09375 q 0,-1.65625 -1,-2.625 -0.96875,-1 -2.59375,-1 -2.4375,0 -3.9375,2.0625 L 263.85937,86.875 q 1.96875,-2.90625 5.53125,-2.90625 2.59375,0 4.125,1.5 1.53125,1.5 1.53125,4 V 100 h -1.90625 z m -4.28125,0.15625 q 2.5625,0 4.125,-2.5 v -2.3125 q -1.53125,-1.625 -4.125,-1.625 -1.625,0 -2.5625,0.875 -0.9375,0.875 -0.9375,2.34375 0,1.46875 0.9375,2.34375 0.9375,0.875 2.5625,0.875 z"
         id="path24" />
      <path
         d="m 292.10937,100 h -2.0625 V 89.25 q 0,-3.40625 -3.21875,-3.40625 -2.875,0 -4.40625,2.5625 V 100 h -2.0625 V 84.375 h 1.90625 v 1.71875 q 1.875,-2.125 4.5625,-2.125 2.59375,0 3.9375,1.375 1.34375,1.34375 1.34375,3.90625 z"
         id="path26" />
      <path
         d="m 303.64062,97.90625 q 0.875,-0.625 0.875,-1.65625 0,-1.03125 -0.84375,-1.71875 -0.8125,-0.71875 -2,-1.15625 -1.1875,-0.4375 -2.40625,-0.96875 -1.1875,-0.53125 -2.03125,-1.53125 -0.8125,-1 -0.8125,-2.46875 0,-2.03125 1.375,-3.21875 1.375,-1.21875 3.6875,-1.21875 3.125,0 4.96875,2.5625 l -1.5625,1.0625 q -1.25,-1.75 -3.40625,-1.75 -1.375,0 -2.1875,0.6875 -0.8125,0.6875 -0.8125,1.875 0,1 0.8125,1.65625 0.84375,0.65625 2.03125,1.09375 1.21875,0.40625 2.40625,0.9375 1.1875,0.5 2,1.5625 0.84375,1.03125 0.84375,2.59375 0,1.90625 -1.4375,3.03125 -1.40625,1.125 -3.78125,1.125 -3.375,0 -5.34375,-2.96875 l 1.5625,-1.0625 q 1.375,2.15625 3.78125,2.15625 1.4375,0 2.28125,-0.625 z"
         id="path28" />
      <path
         d="m 322.54687,100 h -2.0625 V 89.25 q 0,-3.40625 -3.21875,-3.40625 -2.875,0 -4.40625,2.5625 V 100 h -2.0625 V 78.125 h 2.0625 v 7.78125 q 1.84375,-1.9375 4.40625,-1.9375 2.59375,0 3.9375,1.375 1.34375,1.34375 1.34375,3.90625 z"
         id="path30" />
      <path
         d="m 325.57812,104 1.65625,-7.28125 h 3.03125 L 327.14062,104 Z"
         id="path32" />
      <path
         d="m 348.95312,78.125 h 2.0625 v 7.75 q 1.8125,-1.90625 4.34375,-1.90625 2.75,0 4.34375,2.21875 1.625,2.21875 1.625,6 0,3.78125 -1.71875,6 -1.71875,2.21875 -4.59375,2.21875 -2.5,0 -4.15625,-1.8125 V 100 h -1.90625 z m 2.0625,17.59375 q 0.5,1.3125 1.5625,2.0625 1.09375,0.75 2.46875,0.75 1.9375,0 3.0625,-1.71875 1.15625,-1.71875 1.15625,-4.625 0,-2.90625 -1.0625,-4.625 -1.03125,-1.71875 -2.8125,-1.71875 -2.75,0 -4.375,2.71875 z"
         id="path34" />
      <path
         d="m 363.67187,84.375 h 2.09375 l 4.53125,13.53125 4.5,-13.53125 h 2.09375 l -5.125,14.84375 q -1.875,5.375 -6.8125,7.59375 l -0.84375,-1.625 q 1.78125,-0.84375 2.9375,-1.9375 1.1875,-1.09375 2.125,-2.75 z"
         id="path36" />
      <path
         d="m 388.64062,84.375 h 2.125 V 81.25 h 2.0625 v 3.125 h 4 v 1.875 h -4 v 10.3125 q 0,0.90625 0.4375,1.4375 0.46875,0.53125 1.21875,0.53125 1.28125,0 2.09375,-1 l 1.3125,1.125 q -1.21875,1.75 -3.40625,1.75 -1.71875,0 -2.71875,-1.03125 -1,-1.03125 -1,-2.8125 V 86.25 h -2.125 z"
         id="path38" />
      <path
         d="m 412.14062,100 h -2.0625 V 89.25 q 0,-3.40625 -3.21875,-3.40625 -2.875,0 -4.40625,2.5625 V 100 h -2.0625 V 78.125 h 2.0625 v 7.78125 q 1.84375,-1.9375 4.40625,-1.9375 2.59375,0 3.9375,1.375 1.34375,1.34375 1.34375,3.90625 z"
         id="path40" />
      <path
         d="m 422.60937,100.40625 q -2.9375,0 -4.6875,-2.21875 -1.71875,-2.25 -1.71875,-6 0,-3.75 1.71875,-5.96875 1.75,-2.25 4.6875,-2.25 2.84375,0 4.5,2.0625 1.6875,2.0625 1.6875,5.5 v 1.1875 h -10.53125 q 0.125,2.6875 1.28125,4.25 1.15625,1.5625 3.0625,1.5625 2.53125,0 3.9375,-2.125 L 428.20312,97.5 q -2,2.90625 -5.59375,2.90625 z m 0,-14.5625 q -1.75,0 -2.90625,1.34375 -1.125,1.3125 -1.375,3.65625 h 8.375 q -0.15625,-2.3125 -1.28125,-3.65625 -1.09375,-1.34375 -2.8125,-1.34375 z"
         id="path42" />
      <path
         d="M 450.39062,86.09375 449.48437,86 q -2.875,0 -4.21875,3.21875 V 100 h -2.0625 V 84.375 h 1.90625 v 2.1875 q 1.78125,-2.59375 4.40625,-2.59375 0.6875,0 1.21875,0.09375 z"
         id="path44" />
      <path
         d="m 455.60937,100 h -2.0625 V 84.375 h 2.0625 z m -2.0625,-19.71875 q -0.40625,-0.40625 -0.40625,-1 0,-0.59375 0.40625,-1 0.4375,-0.4375 1.03125,-0.4375 0.59375,0 1,0.4375 0.4375,0.40625 0.4375,1 0,0.59375 -0.4375,1 -0.40625,0.40625 -1,0.40625 -0.59375,0 -1.03125,-0.40625 z"
         id="path46" />
      <path
         d="m 464.32812,100 -5.125,-15.625 h 2.09375 l 4.5,13.84375 4.53125,-13.84375 h 2.09375 l -5.125,15.625 z"
         id="path48" />
      <path
         d="m 481.17187,100.40625 q -2.9375,0 -4.6875,-2.21875 -1.71875,-2.25 -1.71875,-6 0,-3.75 1.71875,-5.96875 1.75,-2.25 4.6875,-2.25 2.84375,0 4.5,2.0625 1.6875,2.0625 1.6875,5.5 v 1.1875 h -10.53125 q 0.125,2.6875 1.28125,4.25 1.15625,1.5625 3.0625,1.5625 2.53125,0 3.9375,-2.125 L 486.76562,97.5 q -2,2.90625 -5.59375,2.90625 z m 0,-14.5625 q -1.75,0 -2.90625,1.34375 -1.125,1.3125 -1.375,3.65625 h 8.375 q -0.15625,-2.3125 -1.28125,-3.65625 -1.09375,-1.34375 -2.8125,-1.34375 z"
         id="path50" />
      <path
         d="M 499.07812,86.09375 498.17187,86 q -2.875,0 -4.21875,3.21875 V 100 h -2.0625 V 84.375 h 1.90625 v 2.1875 q 1.78125,-2.59375 4.40625,-2.59375 0.6875,0 1.21875,0.09375 z"
         id="path52" />
      <path
         d="m 501.42187,82.96875 -0.4375,-6.40625 h 2.53125 l -0.46875,6.40625 z"
         id="path54" />
      <path
         d="m 514.10937,97.90625 q 0.875,-0.625 0.875,-1.65625 0,-1.03125 -0.84375,-1.71875 -0.8125,-0.71875 -2,-1.15625 -1.1875,-0.4375 -2.40625,-0.96875 -1.1875,-0.53125 -2.03125,-1.53125 -0.8125,-1 -0.8125,-2.46875 0,-2.03125 1.375,-3.21875 1.375,-1.21875 3.6875,-1.21875 3.125,0 4.96875,2.5625 l -1.5625,1.0625 q -1.25,-1.75 -3.40625,-1.75 -1.375,0 -2.1875,0.6875 -0.8125,0.6875 -0.8125,1.875 0,1 0.8125,1.65625 0.84375,0.65625 2.03125,1.09375 1.21875,0.40625 2.40625,0.9375 1.1875,0.5 2,1.5625 0.84375,1.03125 0.84375,2.59375 0,1.90625 -1.4375,3.03125 -1.40625,1.125 -3.78125,1.125 -3.375,0 -5.34375,-2.96875 l 1.5625,-1.0625 q 1.375,2.15625 3.78125,2.15625 1.4375,0 2.28125,-0.625 z"
         id="path56" />
      <path
         d="m 529.42187,84.375 h 2.125 v -1.5 q 0,-2.5 1.1875,-3.8125 1.1875,-1.34375 3.375,-1.34375 1.78125,0 3.0625,0.6875 l -0.6875,1.78125 q -0.96875,-0.53125 -2.375,-0.53125 -2.5,0 -2.5,3.21875 v 1.5 h 4 v 1.875 h -4 V 100 h -2.0625 V 86.25 h -2.125 z"
         id="path58" />
      <path
         d="m 542.29687,100 h -2.0625 V 78.125 h 2.0625 z"
         id="path60" />
      <path
         d="m 548.35937,98.21875 q -1.6875,-2.1875 -1.6875,-6.03125 0,-3.84375 1.6875,-6.03125 1.71875,-2.1875 4.71875,-2.1875 3.03125,0 4.75,2.1875 1.71875,2.1875 1.71875,6.03125 0,3.84375 -1.71875,6.03125 -1.71875,2.1875 -4.75,2.1875 -3,0 -4.71875,-2.1875 z m 1.53125,-10.6875 q -1.15625,1.6875 -1.15625,4.65625 0,2.96875 1.15625,4.65625 1.15625,1.6875 3.1875,1.6875 2.0625,0 3.21875,-1.6875 1.1875,-1.6875 1.1875,-4.65625 0,-2.96875 -1.1875,-4.65625 -1.15625,-1.6875 -3.21875,-1.6875 -2.03125,0 -3.1875,1.6875 z"
         id="path62" />
      <path
         d="m 573.04687,84.375 3.28125,13.6875 3.875,-13.6875 h 2.09375 l -4.5,15.625 h -2.84375 L 572.07812,88.3125 569.23437,100 h -2.84375 l -4.5,-15.625 h 2.09375 l 3.875,13.6875 3.28125,-13.6875 z"
         id="path64" />
      <path
         d="m 583.60937,104 1.65625,-7.28125 h 3.03125 L 585.17187,104 Z"
         id="path66" />
    </g>
    <g
       aria-label="Where green leaves gently sway and grow,"
       id="text4">
      <path
         d="m 124.70313,129.1875 4.28124,18.9375 4.9375,-18.9375 h 2.0625 L 130.51562,150 h -2.93749 L 123.64063,132.1875 119.73438,150 h -2.9375 l -5.46875,-20.8125 h 2.0625 l 4.9375,18.9375 4.28125,-18.9375 z"
         id="path69" />
      <path
         d="m 150.85937,150 h -2.0625 v -10.75 q 0,-3.40625 -3.21875,-3.40625 -2.875,0 -4.40625,2.5625 V 150 h -2.0625 v -21.875 h 2.0625 v 7.78125 q 1.84375,-1.9375 4.40625,-1.9375 2.59375,0 3.9375,1.375 1.34375,1.34375 1.34375,3.90625 z"
         id="path71" />
      <path
         d="m 161.32812,150.40625 q -2.9375,0 -4.6875,-2.21875 -1.71875,-2.25 -1.71875,-6 0,-3.75 1.71875,-5.96875 1.75,-2.25 4.6875,-2.25 2.84375,0 4.5,2.0625 1.6875,2.0625 1.6875,5.5 v 1.1875 h -10.53125 q 0.125,2.6875 1.28125,4.25 1.15625,1.5625 3.0625,1.5625 2.53125,0 3.9375,-2.125 l 1.65625,1.09375 q -2,2.90625 -5.59375,2.90625 z m 0,-14.5625 q -1.75,0 -2.90625,1.34375 -1.125,1.3125 -1.375,3.65625 h 8.375 q -0.15625,-2.3125 -1.28125,-3.65625 -1.09375,-1.34375 -2.8125,-1.34375 z"
         id="path73" />
      <path
         d="M 179.23437,136.09375 178.32812,136 q -2.875,0 -4.21875,3.21875 V 150 h -2.0625 v -15.625 h 1.90625 v 2.1875 q 1.78125,-2.59375 4.40625,-2.59375 0.6875,0 1.21875,0.0937 z"
         id="path75" />
      <path
         d="m 187.54687,150.40625 q -2.9375,0 -4.6875,-2.21875 -1.71875,-2.25 -1.71875,-6 0,-3.75 1.71875,-5.96875 1.75,-2.25 4.6875,-2.25 2.84375,0 4.5,2.0625 1.6875,2.0625 1.6875,5.5 v 1.1875 h -10.53125 q 0.125,2.6875 1.28125,4.25 1.15625,1.5625 3.0625,1.5625 2.53125,0 3.9375,-2.125 l 1.65625,1.09375 q -2,2.90625 -5.59375,2.90625 z m 0,-14.5625 q -1.75,0 -2.90625,1.34375 -1.125,1.3125 -1.375,3.65625 h 8.375 q -0.15625,-2.3125 -1.28125,-3.65625 -1.09375,-1.34375 -2.8125,-1.34375 z"
         id="path77" />
      <path
         d="m 219.26562,151.1875 q 0,2.65625 -1.53125,4.125 -1.5,1.5 -4.1875,1.5 -3.90625,0 -5.8125,-3.40625 l 1.6875,-1.0625 q 1.3125,2.53125 4.125,2.53125 1.75,0 2.6875,-0.96875 0.96875,-0.9375 0.96875,-2.71875 v -3.09375 Q 215.39062,150 212.85937,150 q -2.71875,0 -4.34375,-2.09375 -1.625,-2.125 -1.625,-5.6875 0,-3.78125 1.71875,-6 Q 210.32812,134 213.20312,134 q 2.46875,0 4.15625,1.84375 v -1.4375 h 1.90625 z m -2.0625,-12.5 q -0.53125,-1.3125 -1.625,-2.0625 -1.0625,-0.75 -2.40625,-0.75 -1.9375,0 -3.09375,1.71875 -1.125,1.71875 -1.125,4.625 0,2.6875 1.03125,4.3125 1.0625,1.59375 2.84375,1.59375 2.78125,0 4.375,-2.71875 z"
         id="path79" />
      <path
         d="M 232.07812,136.09375 231.17187,136 q -2.875,0 -4.21875,3.21875 V 150 h -2.0625 v -15.625 h 1.90625 v 2.1875 q 1.78125,-2.59375 4.40625,-2.59375 0.6875,0 1.21875,0.0937 z"
         id="path81" />
      <path
         d="m 240.39062,150.40625 q -2.9375,0 -4.6875,-2.21875 -1.71875,-2.25 -1.71875,-6 0,-3.75 1.71875,-5.96875 1.75,-2.25 4.6875,-2.25 2.84375,0 4.5,2.0625 1.6875,2.0625 1.6875,5.5 v 1.1875 h -10.53125 q 0.125,2.6875 1.28125,4.25 1.15625,1.5625 3.0625,1.5625 2.53125,0 3.9375,-2.125 l 1.65625,1.09375 q -2,2.90625 -5.59375,2.90625 z m 0,-14.5625 q -1.75,0 -2.90625,1.34375 -1.125,1.3125 -1.375,3.65625 h 8.375 q -0.15625,-2.3125 -1.28125,-3.65625 -1.09375,-1.34375 -2.8125,-1.34375 z"
         id="path83" />
      <path
         d="m 256.26562,150.40625 q -2.9375,0 -4.6875,-2.21875 -1.71875,-2.25 -1.71875,-6 0,-3.75 1.71875,-5.96875 1.75,-2.25 4.6875,-2.25 2.84375,0 4.5,2.0625 1.6875,2.0625 1.6875,5.5 v 1.1875 h -10.53125 q 0.125,2.6875 1.28125,4.25 1.15625,1.5625 3.0625,1.5625 2.53125,0 3.9375,-2.125 l 1.65625,1.09375 q -2,2.90625 -5.59375,2.90625 z m 0,-14.5625 q -1.75,0 -2.90625,1.34375 -1.125,1.3125 -1.375,3.65625 h 8.375 q -0.15625,-2.3125 -1.28125,-3.65625 -1.09375,-1.34375 -2.8125,-1.34375 z"
         id="path85" />
      <path
         d="m 278.73437,150 h -2.0625 v -10.75 q 0,-3.40625 -3.21875,-3.40625 -2.875,0 -4.40625,2.5625 V 150 h -2.0625 v -15.625 h 1.90625 v 1.71875 q 1.875,-2.125 4.5625,-2.125 2.59375,0 3.9375,1.375 1.34375,1.34375 1.34375,3.90625 z"
         id="path87" />
      <path
         d="m 295.98437,150 h -2.0625 v -21.875 h 2.0625 z"
         id="path89" />
      <path
         d="m 306.76562,150.40625 q -2.9375,0 -4.6875,-2.21875 -1.71875,-2.25 -1.71875,-6 0,-3.75 1.71875,-5.96875 1.75,-2.25 4.6875,-2.25 2.84375,0 4.5,2.0625 1.6875,2.0625 1.6875,5.5 v 1.1875 h -10.53125 q 0.125,2.6875 1.28125,4.25 1.15625,1.5625 3.0625,1.5625 2.53125,0 3.9375,-2.125 l 1.65625,1.09375 q -2,2.90625 -5.59375,2.90625 z m 0,-14.5625 q -1.75,0 -2.90625,1.34375 -1.125,1.3125 -1.375,3.65625 h 8.375 q -0.15625,-2.3125 -1.28125,-3.65625 -1.09375,-1.34375 -2.8125,-1.34375 z"
         id="path91" />
      <path
         d="m 326.39062,148.375 q -1.78125,2.03125 -4.25,2.03125 -2.5625,0 -4.09375,-1.375 -1.5,-1.40625 -1.5,-3.71875 0,-2.34375 1.5,-3.71875 1.53125,-1.375 4.09375,-1.375 2.3125,0 4.09375,1.34375 v -2.09375 q 0,-1.65625 -1,-2.625 -0.96875,-1 -2.59375,-1 -2.4375,0 -3.9375,2.0625 l -1.59375,-1.03125 q 1.96875,-2.90625 5.53125,-2.90625 2.59375,0 4.125,1.5 1.53125,1.5 1.53125,4 V 150 h -1.90625 z m -4.28125,0.15625 q 2.5625,0 4.125,-2.5 v -2.3125 q -1.53125,-1.625 -4.125,-1.625 -1.625,0 -2.5625,0.875 -0.9375,0.875 -0.9375,2.34375 0,1.46875 0.9375,2.34375 0.9375,0.875 2.5625,0.875 z"
         id="path93" />
      <path
         d="m 336.70312,150 -5.125,-15.625 h 2.09375 l 4.5,13.84375 4.53125,-13.84375 h 2.09375 l -5.125,15.625 z"
         id="path95" />
      <path
         d="m 353.54687,150.40625 q -2.9375,0 -4.6875,-2.21875 -1.71875,-2.25 -1.71875,-6 0,-3.75 1.71875,-5.96875 1.75,-2.25 4.6875,-2.25 2.84375,0 4.5,2.0625 1.6875,2.0625 1.6875,5.5 v 1.1875 h -10.53125 q 0.125,2.6875 1.28125,4.25 1.15625,1.5625 3.0625,1.5625 2.53125,0 3.9375,-2.125 l 1.65625,1.09375 q -2,2.90625 -5.59375,2.90625 z m 0,-14.5625 q -1.75,0 -2.90625,1.34375 -1.125,1.3125 -1.375,3.65625 h 8.375 q -0.15625,-2.3125 -1.28125,-3.65625 -1.09375,-1.34375 -2.8125,-1.34375 z"
         id="path97" />
      <path
         d="m 370.48437,147.90625 q 0.875,-0.625 0.875,-1.65625 0,-1.03125 -0.84375,-1.71875 -0.8125,-0.71875 -2,-1.15625 -1.1875,-0.4375 -2.40625,-0.96875 -1.1875,-0.53125 -2.03125,-1.53125 -0.8125,-1 -0.8125,-2.46875 0,-2.03125 1.375,-3.21875 1.375,-1.21875 3.6875,-1.21875 3.125,0 4.96875,2.5625 l -1.5625,1.0625 q -1.25,-1.75 -3.40625,-1.75 -1.375,0 -2.1875,0.6875 -0.8125,0.6875 -0.8125,1.875 0,1 0.8125,1.65625 0.84375,0.65625 2.03125,1.09375 1.21875,0.40625 2.40625,0.9375 1.1875,0.5 2,1.5625 0.84375,1.03125 0.84375,2.59375 0,1.90625 -1.4375,3.03125 -1.40625,1.125 -3.78125,1.125 -3.375,0 -5.34375,-2.96875 l 1.5625,-1.0625 q 1.375,2.15625 3.78125,2.15625 1.4375,0 2.28125,-0.625 z"
         id="path99" />
      <path
         d="m 398.64062,151.1875 q 0,2.65625 -1.53125,4.125 -1.5,1.5 -4.1875,1.5 -3.90625,0 -5.8125,-3.40625 l 1.6875,-1.0625 q 1.3125,2.53125 4.125,2.53125 1.75,0 2.6875,-0.96875 0.96875,-0.9375 0.96875,-2.71875 v -3.09375 Q 394.76562,150 392.23437,150 q -2.71875,0 -4.34375,-2.09375 -1.625,-2.125 -1.625,-5.6875 0,-3.78125 1.71875,-6 Q 389.70312,134 392.57812,134 q 2.46875,0 4.15625,1.84375 v -1.4375 h 1.90625 z m -2.0625,-12.5 q -0.53125,-1.3125 -1.625,-2.0625 -1.0625,-0.75 -2.40625,-0.75 -1.9375,0 -3.09375,1.71875 -1.125,1.71875 -1.125,4.625 0,2.6875 1.03125,4.3125 1.0625,1.59375 2.84375,1.59375 2.78125,0 4.375,-2.71875 z"
         id="path101" />
      <path
         d="m 409.42187,150.40625 q -2.9375,0 -4.6875,-2.21875 -1.71875,-2.25 -1.71875,-6 0,-3.75 1.71875,-5.96875 1.75,-2.25 4.6875,-2.25 2.84375,0 4.5,2.0625 1.6875,2.0625 1.6875,5.5 v 1.1875 h -10.53125 q 0.125,2.6875 1.28125,4.25 1.15625,1.5625 3.0625,1.5625 2.53125,0 3.9375,-2.125 l 1.65625,1.09375 q -2,2.90625 -5.59375,2.90625 z m 0,-14.5625 q -1.75,0 -2.90625,1.34375 -1.125,1.3125 -1.375,3.65625 h 8.375 q -0.15625,-2.3125 -1.28125,-3.65625 -1.09375,-1.34375 -2.8125,-1.34375 z"
         id="path103" />
      <path
         d="m 431.89062,150 h -2.0625 v -10.75 q 0,-3.40625 -3.21875,-3.40625 -2.875,0 -4.40625,2.5625 V 150 h -2.0625 v -15.625 h 1.90625 v 1.71875 q 1.875,-2.125 4.5625,-2.125 2.59375,0 3.9375,1.375 1.34375,1.34375 1.34375,3.90625 z"
         id="path105" />
      <path
         d="m 435.48437,134.375 h 2.125 v -3.125 h 2.0625 v 3.125 h 4 v 1.875 h -4 v 10.3125 q 0,0.90625 0.4375,1.4375 0.46875,0.53125 1.21875,0.53125 1.28125,0 2.09375,-1 l 1.3125,1.125 q -1.21875,1.75 -3.40625,1.75 -1.71875,0 -2.71875,-1.03125 -1,-1.03125 -1,-2.8125 V 136.25 h -2.125 z"
         id="path107" />
      <path
         d="m 449.29687,150 h -2.0625 v -21.875 h 2.0625 z"
         id="path109" />
      <path
         d="m 452.89062,134.375 h 2.09375 l 4.53125,13.53125 4.5,-13.53125 h 2.09375 l -5.125,14.84375 q -1.875,5.375 -6.8125,7.59375 l -0.84375,-1.625 q 1.78125,-0.84375 2.9375,-1.9375 1.1875,-1.09375 2.125,-2.75 z"
         id="path111" />
      <path
         d="m 485.79687,147.90625 q 0.875,-0.625 0.875,-1.65625 0,-1.03125 -0.84375,-1.71875 -0.8125,-0.71875 -2,-1.15625 -1.1875,-0.4375 -2.40625,-0.96875 -1.1875,-0.53125 -2.03125,-1.53125 -0.8125,-1 -0.8125,-2.46875 0,-2.03125 1.375,-3.21875 1.375,-1.21875 3.6875,-1.21875 3.125,0 4.96875,2.5625 l -1.5625,1.0625 q -1.25,-1.75 -3.40625,-1.75 -1.375,0 -2.1875,0.6875 -0.8125,0.6875 -0.8125,1.875 0,1 0.8125,1.65625 0.84375,0.65625 2.03125,1.09375 1.21875,0.40625 2.40625,0.9375 1.1875,0.5 2,1.5625 0.84375,1.03125 0.84375,2.59375 0,1.90625 -1.4375,3.03125 -1.40625,1.125 -3.78125,1.125 -3.375,0 -5.34375,-2.96875 l 1.5625,-1.0625 q 1.375,2.15625 3.78125,2.15625 1.4375,0 2.28125,-0.625 z"
         id="path113" />
      <path
         d="m 502.07812,134.375 3.28125,13.6875 3.875,-13.6875 h 2.09375 l -4.5,15.625 h -2.84375 l -2.875,-11.6875 L 498.26562,150 h -2.84375 l -4.5,-15.625 h 2.09375 l 3.875,13.6875 3.28125,-13.6875 z"
         id="path115" />
      <path
         d="m 523.82812,148.375 q -1.78125,2.03125 -4.25,2.03125 -2.5625,0 -4.09375,-1.375 -1.5,-1.40625 -1.5,-3.71875 0,-2.34375 1.5,-3.71875 1.53125,-1.375 4.09375,-1.375 2.3125,0 4.09375,1.34375 v -2.09375 q 0,-1.65625 -1,-2.625 -0.96875,-1 -2.59375,-1 -2.4375,0 -3.9375,2.0625 l -1.59375,-1.03125 q 1.96875,-2.90625 5.53125,-2.90625 2.59375,0 4.125,1.5 1.53125,1.5 1.53125,4 V 150 h -1.90625 z m -4.28125,0.15625 q 2.5625,0 4.125,-2.5 v -2.3125 q -1.53125,-1.625 -4.125,-1.625 -1.625,0 -2.5625,0.875 -0.9375,0.875 -0.9375,2.34375 0,1.46875 0.9375,2.34375 0.9375,0.875 2.5625,0.875 z"
         id="path117" />
      <path
         d="m 529.01562,134.375 h 2.09375 l 4.53125,13.53125 4.5,-13.53125 h 2.09375 l -5.125,14.84375 q -1.875,5.375 -6.8125,7.59375 l -0.84375,-1.625 q 1.78125,-0.84375 2.9375,-1.9375 1.1875,-1.09375 2.125,-2.75 z"
         id="path119" />
      <path
         d="m 564.60937,148.375 q -1.78125,2.03125 -4.25,2.03125 -2.5625,0 -4.09375,-1.375 -1.5,-1.40625 -1.5,-3.71875 0,-2.34375 1.5,-3.71875 1.53125,-1.375 4.09375,-1.375 2.3125,0 4.09375,1.34375 v -2.09375 q 0,-1.65625 -1,-2.625 -0.96875,-1 -2.59375,-1 -2.4375,0 -3.9375,2.0625 l -1.59375,-1.03125 q 1.96875,-2.90625 5.53125,-2.90625 2.59375,0 4.125,1.5 1.53125,1.5 1.53125,4 V 150 h -1.90625 z m -4.28125,0.15625 q 2.5625,0 4.125,-2.5 v -2.3125 q -1.53125,-1.625 -4.125,-1.625 -1.625,0 -2.5625,0.875 -0.9375,0.875 -0.9375,2.34375 0,1.46875 0.9375,2.34375 0.9375,0.875 2.5625,0.875 z"
         id="path121" />
      <path
         d="m 583.57812,150 h -2.0625 v -10.75 q 0,-3.40625 -3.21875,-3.40625 -2.875,0 -4.40625,2.5625 V 150 h -2.0625 v -15.625 h 1.90625 v 1.71875 q 1.875,-2.125 4.5625,-2.125 2.59375,0 3.9375,1.375 1.34375,1.34375 1.34375,3.90625 z"
         id="path123" />
      <path
         d="m 600.01562,150 h -1.90625 v -1.65625 q -1.875,2.0625 -4.5,2.0625 -2.75,0 -4.375,-2.21875 -1.59375,-2.21875 -1.59375,-6 0,-3.78125 1.71875,-6 1.71875,-2.21875 4.59375,-2.21875 2.34375,0 4,1.375 V 128.125 h 2.0625 z m -2.0625,-12 q -1.40625,-2.15625 -4.03125,-2.15625 -1.9375,0 -3.09375,1.71875 -1.125,1.71875 -1.125,4.625 0,2.90625 1.03125,4.625 1.0625,1.71875 2.84375,1.71875 2.78125,0 4.375,-2.71875 z"
         id="path125" />
      <path
         d="m 626.64062,151.1875 q 0,2.65625 -1.53125,4.125 -1.5,1.5 -4.1875,1.5 -3.90625,0 -5.8125,-3.40625 l 1.6875,-1.0625 q 1.3125,2.53125 4.125,2.53125 1.75,0 2.6875,-0.96875 0.96875,-0.9375 0.96875,-2.71875 v -3.09375 Q 622.76562,150 620.23437,150 q -2.71875,0 -4.34375,-2.09375 -1.625,-2.125 -1.625,-5.6875 0,-3.78125 1.71875,-6 Q 617.70312,134 620.57812,134 q 2.46875,0 4.15625,1.84375 v -1.4375 h 1.90625 z m -2.0625,-12.5 q -0.53125,-1.3125 -1.625,-2.0625 -1.0625,-0.75 -2.40625,-0.75 -1.9375,0 -3.09375,1.71875 -1.125,1.71875 -1.125,4.625 0,2.6875 1.03125,4.3125 1.0625,1.59375 2.84375,1.59375 2.78125,0 4.375,-2.71875 z"
         id="path127" />
      <path
         d="M 639.45312,136.09375 638.54687,136 q -2.875,0 -4.21875,3.21875 V 150 h -2.0625 v -15.625 h 1.90625 v 2.1875 q 1.78125,-2.59375 4.40625,-2.59375 0.6875,0 1.21875,0.0937 z"
         id="path129" />
      <path
         d="m 643.04687,148.21875 q -1.6875,-2.1875 -1.6875,-6.03125 0,-3.84375 1.6875,-6.03125 1.71875,-2.1875 4.71875,-2.1875 3.03125,0 4.75,2.1875 1.71875,2.1875 1.71875,6.03125 0,3.84375 -1.71875,6.03125 -1.71875,2.1875 -4.75,2.1875 -3,0 -4.71875,-2.1875 z m 1.53125,-10.6875 q -1.15625,1.6875 -1.15625,4.65625 0,2.96875 1.15625,4.65625 1.15625,1.6875 3.1875,1.6875 2.0625,0 3.21875,-1.6875 1.1875,-1.6875 1.1875,-4.65625 0,-2.96875 -1.1875,-4.65625 -1.15625,-1.6875 -3.21875,-1.6875 -2.03125,0 -3.1875,1.6875 z"
         id="path131" />
      <path
         d="m 667.73437,134.375 3.28125,13.6875 3.875,-13.6875 h 2.09375 l -4.5,15.625 h -2.84375 l -2.875,-11.6875 L 663.92187,150 h -2.84375 l -4.5,-15.625 h 2.09375 l 3.875,13.6875 3.28125,-13.6875 z"
         id="path133" />
      <path
         d="m 678.29687,154 1.65625,-7.28125 h 3.03125 L 679.85937,154 Z"
         id="path135" />
    </g>
    <g
       aria-label="Nature's peace, a gentle show."
       id="text6">
      <path
         d="M 207.98437,197.90625 V 179.1875 h 2.0625 V 200 h -3.125 l -8.53125,-18.71875 V 200 h -2.0625 v -20.8125 h 3.125 z"
         id="path138" />
      <path
         d="m 224.89062,198.375 q -1.78125,2.03125 -4.25,2.03125 -2.5625,0 -4.09375,-1.375 -1.5,-1.40625 -1.5,-3.71875 0,-2.34375 1.5,-3.71875 1.53125,-1.375 4.09375,-1.375 2.3125,0 4.09375,1.34375 v -2.09375 q 0,-1.65625 -1,-2.625 -0.96875,-1 -2.59375,-1 -2.4375,0 -3.9375,2.0625 l -1.59375,-1.03125 q 1.96875,-2.90625 5.53125,-2.90625 2.59375,0 4.125,1.5 1.53125,1.5 1.53125,4 V 200 h -1.90625 z m -4.28125,0.15625 q 2.5625,0 4.125,-2.5 v -2.3125 q -1.53125,-1.625 -4.125,-1.625 -1.625,0 -2.5625,0.875 -0.9375,0.875 -0.9375,2.34375 0,1.46875 0.9375,2.34375 0.9375,0.875 2.5625,0.875 z"
         id="path140" />
      <path
         d="m 230.39062,184.375 h 2.125 v -3.125 h 2.0625 v 3.125 h 4 v 1.875 h -4 v 10.3125 q 0,0.90625 0.4375,1.4375 0.46875,0.53125 1.21875,0.53125 1.28125,0 2.09375,-1 l 1.3125,1.125 q -1.21875,1.75 -3.40625,1.75 -1.71875,0 -2.71875,-1.03125 -1,-1.03125 -1,-2.8125 V 186.25 h -2.125 z"
         id="path142" />
      <path
         d="m 241.82812,184.375 h 2.0625 v 10.75 q 0,3.40625 3.21875,3.40625 2.875,0 4.40625,-3 V 184.375 h 2.0625 V 200 h -1.90625 v -1.9375 q -1.875,2.34375 -4.5625,2.34375 -5.28125,0 -5.28125,-5.28125 z"
         id="path144" />
      <path
         d="M 266.39062,186.09375 265.48437,186 q -2.875,0 -4.21875,3.21875 V 200 h -2.0625 v -15.625 h 1.90625 v 2.1875 q 1.78125,-2.59375 4.40625,-2.59375 0.6875,0 1.21875,0.0937 z"
         id="path146" />
      <path
         d="m 274.70312,200.40625 q -2.9375,0 -4.6875,-2.21875 -1.71875,-2.25 -1.71875,-6 0,-3.75 1.71875,-5.96875 1.75,-2.25 4.6875,-2.25 2.84375,0 4.5,2.0625 1.6875,2.0625 1.6875,5.5 v 1.1875 h -10.53125 q 0.125,2.6875 1.28125,4.25 1.15625,1.5625 3.0625,1.5625 2.53125,0 3.9375,-2.125 l 1.65625,1.09375 q -2,2.90625 -5.59375,2.90625 z m 0,-14.5625 q -1.75,0 -2.90625,1.34375 -1.125,1.3125 -1.375,3.65625 h 8.375 q -0.15625,-2.3125 -1.28125,-3.65625 -1.09375,-1.34375 -2.8125,-1.34375 z"
         id="path148" />
      <path
         d="m 284.60937,182.96875 -0.4375,-6.40625 h 2.53125 l -0.46875,6.40625 z"
         id="path150" />
      <path
         d="m 297.29687,197.90625 q 0.875,-0.625 0.875,-1.65625 0,-1.03125 -0.84375,-1.71875 -0.8125,-0.71875 -2,-1.15625 -1.1875,-0.4375 -2.40625,-0.96875 -1.1875,-0.53125 -2.03125,-1.53125 -0.8125,-1 -0.8125,-2.46875 0,-2.03125 1.375,-3.21875 1.375,-1.21875 3.6875,-1.21875 3.125,0 4.96875,2.5625 l -1.5625,1.0625 q -1.25,-1.75 -3.40625,-1.75 -1.375,0 -2.1875,0.6875 -0.8125,0.6875 -0.8125,1.875 0,1 0.8125,1.65625 0.84375,0.65625 2.03125,1.09375 1.21875,0.40625 2.40625,0.9375 1.1875,0.5 2,1.5625 0.84375,1.03125 0.84375,2.59375 0,1.90625 -1.4375,3.03125 -1.40625,1.125 -3.78125,1.125 -3.375,0 -5.34375,-2.96875 l 1.5625,-1.0625 q 1.375,2.15625 3.78125,2.15625 1.4375,0 2.28125,-0.625 z"
         id="path152" />
      <path
         d="m 314.32812,184.40625 h 1.90625 v 1.6875 q 1.84375,-2.09375 4.5,-2.09375 2.75,0 4.34375,2.21875 1.625,2.21875 1.625,6 0,3.78125 -1.71875,6 -1.71875,2.21875 -4.59375,2.21875 -2.34375,0 -4,-1.375 v 7.34375 h -2.0625 z m 2.0625,12 q 1.40625,2.15625 4.03125,2.15625 1.9375,0 3.0625,-1.71875 1.15625,-1.71875 1.15625,-4.625 0,-2.90625 -1.0625,-4.625 -1.03125,-1.71875 -2.8125,-1.71875 -2.75,0 -4.375,2.71875 z"
         id="path154" />
      <path
         d="m 336.23437,200.40625 q -2.9375,0 -4.6875,-2.21875 -1.71875,-2.25 -1.71875,-6 0,-3.75 1.71875,-5.96875 1.75,-2.25 4.6875,-2.25 2.84375,0 4.5,2.0625 1.6875,2.0625 1.6875,5.5 v 1.1875 h -10.53125 q 0.125,2.6875 1.28125,4.25 1.15625,1.5625 3.0625,1.5625 2.53125,0 3.9375,-2.125 l 1.65625,1.09375 q -2,2.90625 -5.59375,2.90625 z m 0,-14.5625 q -1.75,0 -2.90625,1.34375 -1.125,1.3125 -1.375,3.65625 h 8.375 q -0.15625,-2.3125 -1.28125,-3.65625 -1.09375,-1.34375 -2.8125,-1.34375 z"
         id="path156" />
      <path
         d="m 355.85937,198.375 q -1.78125,2.03125 -4.25,2.03125 -2.5625,0 -4.09375,-1.375 -1.5,-1.40625 -1.5,-3.71875 0,-2.34375 1.5,-3.71875 1.53125,-1.375 4.09375,-1.375 2.3125,0 4.09375,1.34375 v -2.09375 q 0,-1.65625 -1,-2.625 -0.96875,-1 -2.59375,-1 -2.4375,0 -3.9375,2.0625 l -1.59375,-1.03125 q 1.96875,-2.90625 5.53125,-2.90625 2.59375,0 4.125,1.5 1.53125,1.5 1.53125,4 V 200 h -1.90625 z m -4.28125,0.15625 q 2.5625,0 4.125,-2.5 v -2.3125 q -1.53125,-1.625 -4.125,-1.625 -1.625,0 -2.5625,0.875 -0.9375,0.875 -0.9375,2.34375 0,1.46875 0.9375,2.34375 0.9375,0.875 2.5625,0.875 z"
         id="path158" />
      <path
         d="m 373.23437,197.6875 q -1.90625,2.71875 -5.28125,2.71875 -2.8125,0 -4.46875,-2.21875 -1.65625,-2.21875 -1.65625,-6 0,-3.78125 1.65625,-6 1.65625,-2.21875 4.46875,-2.21875 3.25,0 5.03125,2.4375 L 371.32812,187.5 q -1.1875,-1.65625 -3.375,-1.65625 -1.84375,0 -2.96875,1.71875 -1.09375,1.71875 -1.09375,4.625 0,2.90625 1.09375,4.625 1.125,1.71875 2.96875,1.71875 2.34375,0 3.625,-1.9375 z"
         id="path160" />
      <path
         d="m 381.51562,200.40625 q -2.9375,0 -4.6875,-2.21875 -1.71875,-2.25 -1.71875,-6 0,-3.75 1.71875,-5.96875 1.75,-2.25 4.6875,-2.25 2.84375,0 4.5,2.0625 1.6875,2.0625 1.6875,5.5 v 1.1875 h -10.53125 q 0.125,2.6875 1.28125,4.25 1.15625,1.5625 3.0625,1.5625 2.53125,0 3.9375,-2.125 l 1.65625,1.09375 q -2,2.90625 -5.59375,2.90625 z m 0,-14.5625 q -1.75,0 -2.90625,1.34375 -1.125,1.3125 -1.375,3.65625 h 8.375 q -0.15625,-2.3125 -1.28125,-3.65625 -1.09375,-1.34375 -2.8125,-1.34375 z"
         id="path162" />
      <path
         d="m 389.95312,204 1.65625,-7.28125 h 3.03125 L 391.51562,204 Z"
         id="path164" />
      <path
         d="m 422.23437,198.375 q -1.78125,2.03125 -4.25,2.03125 -2.5625,0 -4.09375,-1.375 -1.5,-1.40625 -1.5,-3.71875 0,-2.34375 1.5,-3.71875 1.53125,-1.375 4.09375,-1.375 2.3125,0 4.09375,1.34375 v -2.09375 q 0,-1.65625 -1,-2.625 -0.96875,-1 -2.59375,-1 -2.4375,0 -3.9375,2.0625 l -1.59375,-1.03125 q 1.96875,-2.90625 5.53125,-2.90625 2.59375,0 4.125,1.5 1.53125,1.5 1.53125,4 V 200 h -1.90625 z m -4.28125,0.15625 q 2.5625,0 4.125,-2.5 v -2.3125 q -1.53125,-1.625 -4.125,-1.625 -1.625,0 -2.5625,0.875 -0.9375,0.875 -0.9375,2.34375 0,1.46875 0.9375,2.34375 0.9375,0.875 2.5625,0.875 z"
         id="path166" />
      <path
         d="m 450.45312,201.1875 q 0,2.65625 -1.53125,4.125 -1.5,1.5 -4.1875,1.5 -3.90625,0 -5.8125,-3.40625 l 1.6875,-1.0625 q 1.3125,2.53125 4.125,2.53125 1.75,0 2.6875,-0.96875 0.96875,-0.9375 0.96875,-2.71875 v -3.09375 Q 446.57812,200 444.04687,200 q -2.71875,0 -4.34375,-2.09375 -1.625,-2.125 -1.625,-5.6875 0,-3.78125 1.71875,-6 Q 441.51562,184 444.39062,184 q 2.46875,0 4.15625,1.84375 v -1.4375 h 1.90625 z m -2.0625,-12.5 q -0.53125,-1.3125 -1.625,-2.0625 -1.0625,-0.75 -2.40625,-0.75 -1.9375,0 -3.09375,1.71875 -1.125,1.71875 -1.125,4.625 0,2.6875 1.03125,4.3125 1.0625,1.59375 2.84375,1.59375 2.78125,0 4.375,-2.71875 z"
         id="path168" />
      <path
         d="m 461.23437,200.40625 q -2.9375,0 -4.6875,-2.21875 -1.71875,-2.25 -1.71875,-6 0,-3.75 1.71875,-5.96875 1.75,-2.25 4.6875,-2.25 2.84375,0 4.5,2.0625 1.6875,2.0625 1.6875,5.5 v 1.1875 h -10.53125 q 0.125,2.6875 1.28125,4.25 1.15625,1.5625 3.0625,1.5625 2.53125,0 3.9375,-2.125 l 1.65625,1.09375 q -2,2.90625 -5.59375,2.90625 z m 0,-14.5625 q -1.75,0 -2.90625,1.34375 -1.125,1.3125 -1.375,3.65625 h 8.375 q -0.15625,-2.3125 -1.28125,-3.65625 -1.09375,-1.34375 -2.8125,-1.34375 z"
         id="path170" />
      <path
         d="m 483.70312,200 h -2.0625 v -10.75 q 0,-3.40625 -3.21875,-3.40625 -2.875,0 -4.40625,2.5625 V 200 h -2.0625 v -15.625 h 1.90625 v 1.71875 q 1.875,-2.125 4.5625,-2.125 2.59375,0 3.9375,1.375 1.34375,1.34375 1.34375,3.90625 z"
         id="path172" />
      <path
         d="m 487.29687,184.375 h 2.125 v -3.125 h 2.0625 v 3.125 h 4 v 1.875 h -4 v 10.3125 q 0,0.90625 0.4375,1.4375 0.46875,0.53125 1.21875,0.53125 1.28125,0 2.09375,-1 l 1.3125,1.125 q -1.21875,1.75 -3.40625,1.75 -1.71875,0 -2.71875,-1.03125 -1,-1.03125 -1,-2.8125 V 186.25 h -2.125 z"
         id="path174" />
      <path
         d="m 501.10937,200 h -2.0625 v -21.875 h 2.0625 z"
         id="path176" />
      <path
         d="m 511.89062,200.40625 q -2.9375,0 -4.6875,-2.21875 -1.71875,-2.25 -1.71875,-6 0,-3.75 1.71875,-5.96875 1.75,-2.25 4.6875,-2.25 2.84375,0 4.5,2.0625 1.6875,2.0625 1.6875,5.5 v 1.1875 h -10.53125 q 0.125,2.6875 1.28125,4.25 1.15625,1.5625 3.0625,1.5625 2.53125,0 3.9375,-2.125 l 1.65625,1.09375 q -2,2.90625 -5.59375,2.90625 z m 0,-14.5625 q -1.75,0 -2.90625,1.34375 -1.125,1.3125 -1.375,3.65625 h 8.375 q -0.15625,-2.3125 -1.28125,-3.65625 -1.09375,-1.34375 -2.8125,-1.34375 z"
         id="path178" />
      <path
         d="m 538.70312,197.90625 q 0.875,-0.625 0.875,-1.65625 0,-1.03125 -0.84375,-1.71875 -0.8125,-0.71875 -2,-1.15625 -1.1875,-0.4375 -2.40625,-0.96875 -1.1875,-0.53125 -2.03125,-1.53125 -0.8125,-1 -0.8125,-2.46875 0,-2.03125 1.375,-3.21875 1.375,-1.21875 3.6875,-1.21875 3.125,0 4.96875,2.5625 l -1.5625,1.0625 q -1.25,-1.75 -3.40625,-1.75 -1.375,0 -2.1875,0.6875 -0.8125,0.6875 -0.8125,1.875 0,1 0.8125,1.65625 0.84375,0.65625 2.03125,1.09375 1.21875,0.40625 2.40625,0.9375 1.1875,0.5 2,1.5625 0.84375,1.03125 0.84375,2.59375 0,1.90625 -1.4375,3.03125 -1.40625,1.125 -3.78125,1.125 -3.375,0 -5.34375,-2.96875 l 1.5625,-1.0625 q 1.375,2.15625 3.78125,2.15625 1.4375,0 2.28125,-0.625 z"
         id="path180" />
      <path
         d="m 557.60937,200 h -2.0625 v -10.75 q 0,-3.40625 -3.21875,-3.40625 -2.875,0 -4.40625,2.5625 V 200 h -2.0625 v -21.875 h 2.0625 v 7.78125 q 1.84375,-1.9375 4.40625,-1.9375 2.59375,0 3.9375,1.375 1.34375,1.34375 1.34375,3.90625 z"
         id="path182" />
      <path
         d="m 563.35937,198.21875 q -1.6875,-2.1875 -1.6875,-6.03125 0,-3.84375 1.6875,-6.03125 1.71875,-2.1875 4.71875,-2.1875 3.03125,0 4.75,2.1875 1.71875,2.1875 1.71875,6.03125 0,3.84375 -1.71875,6.03125 -1.71875,2.1875 -4.75,2.1875 -3,0 -4.71875,-2.1875 z m 1.53125,-10.6875 q -1.15625,1.6875 -1.15625,4.65625 0,2.96875 1.15625,4.65625 1.15625,1.6875 3.1875,1.6875 2.0625,0 3.21875,-1.6875 1.1875,-1.6875 1.1875,-4.65625 0,-2.96875 -1.1875,-4.65625 -1.15625,-1.6875 -3.21875,-1.6875 -2.03125,0 -3.1875,1.6875 z"
         id="path184" />
      <path
         d="m 588.04687,184.375 3.28125,13.6875 3.875,-13.6875 h 2.09375 l -4.5,15.625 h -2.84375 l -2.875,-11.6875 L 584.23437,200 h -2.84375 l -4.5,-15.625 h 2.09375 l 3.875,13.6875 3.28125,-13.6875 z"
         id="path186" />
      <path
         d="m 600.42187,200 v -3.28125 h 2.65625 V 200 Z"
         id="path188" />
    </g>
  </g>
</svg>
