<?xml version="1.0" encoding="UTF-8" standalone="no"?>
<svg
   width="800"
   height="350"
   version="1.1"
   id="svg12"
   sodipodi:docname="SidharthHistory.svg"
   xmlns:inkscape="http://www.inkscape.org/namespaces/inkscape"
   xmlns:sodipodi="http://sodipodi.sourceforge.net/DTD/sodipodi-0.dtd"
   xmlns="http://www.w3.org/2000/svg"
   xmlns:svg="http://www.w3.org/2000/svg">
  <defs
     id="defs16" />
  <sodipodi:namedview
     id="namedview14"
     pagecolor="#ffffff"
     bordercolor="#000000"
     borderopacity="0.25"
     inkscape:showpageshadow="2"
     inkscape:pageopacity="0.0"
     inkscape:pagecheckerboard="0"
     inkscape:deskcolor="#d1d1d1" />
  <g
     font-family="Lohit Devanagari"
     font-size="32"
     text-anchor="middle"
     fill="#000"
     id="g10">
    <g
       aria-label="In Sidharth's name, a history sleeps,"
       id="text2">
      <path
         d="m 160,100 h -2.0625 V 79.1875 H 160 Z"
         id="path18" />
      <path
         d="M 177.6875,100 H 175.625 V 89.25 q 0,-3.40625 -3.21875,-3.40625 -2.875,0 -4.40625,2.5625 V 100 h -2.0625 V 84.375 h 1.90625 v 1.71875 q 1.875,-2.125 4.5625,-2.125 2.59375,0 3.9375,1.375 1.34375,1.34375 1.34375,3.90625 z"
         id="path20" />
      <path
         d="m 202.5625,95.09375 q 0,-1.46875 -1.09375,-2.46875 -1.0625,-1.03125 -2.59375,-1.65625 -1.53125,-0.65625 -3.0625,-1.34375 -1.53125,-0.6875 -2.625,-1.96875 -1.0625,-1.3125 -1.0625,-3.21875 0,-2.59375 1.65625,-4.125 1.6875,-1.53125 4.53125,-1.53125 3.875,0 6.03125,3.03125 l -1.59375,1.125 q -1.59375,-2.28125 -4.4375,-2.28125 -1.84375,0 -2.96875,1.03125 -1.09375,1.03125 -1.09375,2.75 0,1.4375 1.0625,2.375 1.09375,0.9375 2.625,1.53125 1.53125,0.59375 3.0625,1.28125 1.53125,0.6875 2.59375,2.0625 1.09375,1.34375 1.09375,3.40625 0,2.4375 -1.78125,3.875 -1.78125,1.4375 -4.75,1.4375 -4.3125,0 -6.53125,-3.59375 l 1.59375,-1.125 q 1.6875,2.84375 4.9375,2.84375 2,0 3.1875,-0.9375 1.21875,-0.9375 1.21875,-2.5 z"
         id="path22" />
      <path
         d="m 211.125,100 h -2.0625 V 84.375 h 2.0625 z m -2.0625,-19.71875 q -0.40625,-0.40625 -0.40625,-1 0,-0.59375 0.40625,-1 0.4375,-0.4375 1.03125,-0.4375 0.59375,0 1,0.4375 0.4375,0.40625 0.4375,1 0,0.59375 -0.4375,1 -0.40625,0.40625 -1,0.40625 -0.59375,0 -1.03125,-0.40625 z"
         id="path24" />
      <path
         d="m 227.875,100 h -1.90625 v -1.65625 q -1.875,2.0625 -4.5,2.0625 -2.75,0 -4.375,-2.21875 -1.59375,-2.21875 -1.59375,-6 0,-3.78125 1.71875,-6 1.71875,-2.21875 4.59375,-2.21875 2.34375,0 4,1.375 V 78.125 h 2.0625 z m -2.0625,-12 q -1.40625,-2.15625 -4.03125,-2.15625 -1.9375,0 -3.09375,1.71875 -1.125,1.71875 -1.125,4.625 0,2.90625 1.03125,4.625 1.0625,1.71875 2.84375,1.71875 2.78125,0 4.375,-2.71875 z"
         id="path26" />
      <path
         d="m 245.25,100 h -2.0625 V 89.25 q 0,-3.40625 -3.21875,-3.40625 -2.875,0 -4.40625,2.5625 V 100 H 233.5 V 78.125 h 2.0625 v 7.78125 q 1.84375,-1.9375 4.40625,-1.9375 2.59375,0 3.9375,1.375 Q 245.25,86.6875 245.25,89.25 Z"
         id="path28" />
      <path
         d="m 259.46875,98.375 q -1.78125,2.03125 -4.25,2.03125 -2.5625,0 -4.09375,-1.375 -1.5,-1.40625 -1.5,-3.71875 0,-2.34375 1.5,-3.71875 1.53125,-1.375 4.09375,-1.375 2.3125,0 4.09375,1.34375 v -2.09375 q 0,-1.65625 -1,-2.625 -0.96875,-1 -2.59375,-1 -2.4375,0 -3.9375,2.0625 L 250.1875,86.875 q 1.96875,-2.90625 5.53125,-2.90625 2.59375,0 4.125,1.5 1.53125,1.5 1.53125,4 V 100 h -1.90625 z m -4.28125,0.15625 q 2.5625,0 4.125,-2.5 v -2.3125 q -1.53125,-1.625 -4.125,-1.625 -1.625,0 -2.5625,0.875 -0.9375,0.875 -0.9375,2.34375 0,1.46875 0.9375,2.34375 0.9375,0.875 2.5625,0.875 z"
         id="path30" />
      <path
         d="M 273.875,86.09375 272.96875,86 q -2.875,0 -4.21875,3.21875 V 100 h -2.0625 V 84.375 h 1.90625 v 2.1875 Q 270.375,83.96875 273,83.96875 q 0.6875,0 1.21875,0.09375 z"
         id="path32" />
      <path
         d="m 275.3125,84.375 h 2.125 V 81.25 H 279.5 v 3.125 h 4 v 1.875 h -4 v 10.3125 q 0,0.90625 0.4375,1.4375 0.46875,0.53125 1.21875,0.53125 1.28125,0 2.09375,-1 l 1.3125,1.125 q -1.21875,1.75 -3.40625,1.75 -1.71875,0 -2.71875,-1.03125 -1,-1.03125 -1,-2.8125 V 86.25 h -2.125 z"
         id="path34" />
      <path
         d="M 298.8125,100 H 296.75 V 89.25 q 0,-3.40625 -3.21875,-3.40625 -2.875,0 -4.40625,2.5625 V 100 h -2.0625 V 78.125 h 2.0625 v 7.78125 q 1.84375,-1.9375 4.40625,-1.9375 2.59375,0 3.9375,1.375 1.34375,1.34375 1.34375,3.90625 z"
         id="path36" />
      <path
         d="M 303.3125,82.96875 302.875,76.5625 h 2.53125 l -0.46875,6.40625 z"
         id="path38" />
      <path
         d="m 316,97.90625 q 0.875,-0.625 0.875,-1.65625 0,-1.03125 -0.84375,-1.71875 -0.8125,-0.71875 -2,-1.15625 -1.1875,-0.4375 -2.40625,-0.96875 -1.1875,-0.53125 -2.03125,-1.53125 -0.8125,-1 -0.8125,-2.46875 0,-2.03125 1.375,-3.21875 1.375,-1.21875 3.6875,-1.21875 3.125,0 4.96875,2.5625 l -1.5625,1.0625 q -1.25,-1.75 -3.40625,-1.75 -1.375,0 -2.1875,0.6875 -0.8125,0.6875 -0.8125,1.875 0,1 0.8125,1.65625 0.84375,0.65625 2.03125,1.09375 1.21875,0.40625 2.40625,0.9375 1.1875,0.5 2,1.5625 0.84375,1.03125 0.84375,2.59375 0,1.90625 -1.4375,3.03125 -1.40625,1.125 -3.78125,1.125 -3.375,0 -5.34375,-2.96875 l 1.5625,-1.0625 q 1.375,2.15625 3.78125,2.15625 1.4375,0 2.28125,-0.625 z"
         id="path40" />
      <path
         d="m 344.78125,100 h -2.0625 V 89.25 q 0,-3.40625 -3.21875,-3.40625 -2.875,0 -4.40625,2.5625 V 100 h -2.0625 V 84.375 h 1.90625 v 1.71875 q 1.875,-2.125 4.5625,-2.125 2.59375,0 3.9375,1.375 1.34375,1.34375 1.34375,3.90625 z"
         id="path42" />
      <path
         d="m 359,98.375 q -1.78125,2.03125 -4.25,2.03125 -2.5625,0 -4.09375,-1.375 -1.5,-1.40625 -1.5,-3.71875 0,-2.34375 1.5,-3.71875 1.53125,-1.375 4.09375,-1.375 2.3125,0 4.09375,1.34375 v -2.09375 q 0,-1.65625 -1,-2.625 -0.96875,-1 -2.59375,-1 -2.4375,0 -3.9375,2.0625 L 349.71875,86.875 q 1.96875,-2.90625 5.53125,-2.90625 2.59375,0 4.125,1.5 1.53125,1.5 1.53125,4 V 100 H 359 Z m -4.28125,0.15625 q 2.5625,0 4.125,-2.5 v -2.3125 q -1.53125,-1.625 -4.125,-1.625 -1.625,0 -2.5625,0.875 -0.9375,0.875 -0.9375,2.34375 0,1.46875 0.9375,2.34375 0.9375,0.875 2.5625,0.875 z"
         id="path44" />
      <path
         d="m 377.34375,100 h -2.0625 V 89.25 q 0,-3.40625 -2.96875,-3.40625 -2.625,0 -4.03125,2.46875 V 100 h -2.0625 V 84.375 h 1.90625 v 1.59375 q 1.75,-2 4.15625,-2 3.34375,0 4.5,2.46875 1.84375,-2.46875 4.5625,-2.46875 2.46875,0 3.75,1.375 1.3125,1.34375 1.3125,3.90625 V 100 h -2.0625 V 89.25 q 0,-3.40625 -2.96875,-3.40625 -2.65625,0 -4.09375,2.53125 0.0625,0.5625 0.0625,0.875 z"
         id="path46" />
      <path
         d="m 396.875,100.40625 q -2.9375,0 -4.6875,-2.21875 -1.71875,-2.25 -1.71875,-6 0,-3.75 1.71875,-5.96875 1.75,-2.25 4.6875,-2.25 2.84375,0 4.5,2.0625 1.6875,2.0625 1.6875,5.5 v 1.1875 h -10.53125 q 0.125,2.6875 1.28125,4.25 1.15625,1.5625 3.0625,1.5625 2.53125,0 3.9375,-2.125 L 402.46875,97.5 q -2,2.90625 -5.59375,2.90625 z m 0,-14.5625 q -1.75,0 -2.90625,1.34375 -1.125,1.3125 -1.375,3.65625 h 8.375 q -0.15625,-2.3125 -1.28125,-3.65625 -1.09375,-1.34375 -2.8125,-1.34375 z"
         id="path48" />
      <path
         d="m 405.3125,104 1.65625,-7.28125 H 410 L 406.875,104 Z"
         id="path50" />
      <path
         d="m 437.59375,98.375 q -1.78125,2.03125 -4.25,2.03125 -2.5625,0 -4.09375,-1.375 -1.5,-1.40625 -1.5,-3.71875 0,-2.34375 1.5,-3.71875 1.53125,-1.375 4.09375,-1.375 2.3125,0 4.09375,1.34375 v -2.09375 q 0,-1.65625 -1,-2.625 -0.96875,-1 -2.59375,-1 -2.4375,0 -3.9375,2.0625 L 428.3125,86.875 q 1.96875,-2.90625 5.53125,-2.90625 2.59375,0 4.125,1.5 1.53125,1.5 1.53125,4 V 100 h -1.90625 z m -4.28125,0.15625 q 2.5625,0 4.125,-2.5 v -2.3125 q -1.53125,-1.625 -4.125,-1.625 -1.625,0 -2.5625,0.875 -0.9375,0.875 -0.9375,2.34375 0,1.46875 0.9375,2.34375 0.9375,0.875 2.5625,0.875 z"
         id="path52" />
      <path
         d="M 466.4375,100 H 464.375 V 89.25 q 0,-3.40625 -3.21875,-3.40625 -2.875,0 -4.40625,2.5625 V 100 h -2.0625 V 78.125 h 2.0625 v 7.78125 q 1.84375,-1.9375 4.40625,-1.9375 2.59375,0 3.9375,1.375 1.34375,1.34375 1.34375,3.90625 z"
         id="path54" />
      <path
         d="M 473.8125,100 H 471.75 V 84.375 h 2.0625 z M 471.75,80.28125 q -0.40625,-0.40625 -0.40625,-1 0,-0.59375 0.40625,-1 0.4375,-0.4375 1.03125,-0.4375 0.59375,0 1,0.4375 0.4375,0.40625 0.4375,1 0,0.59375 -0.4375,1 -0.40625,0.40625 -1,0.40625 -0.59375,0 -1.03125,-0.40625 z"
         id="path56" />
      <path
         d="m 485.65625,97.90625 q 0.875,-0.625 0.875,-1.65625 0,-1.03125 -0.84375,-1.71875 -0.8125,-0.71875 -2,-1.15625 Q 482.5,92.9375 481.28125,92.40625 480.09375,91.875 479.25,90.875 q -0.8125,-1 -0.8125,-2.46875 0,-2.03125 1.375,-3.21875 1.375,-1.21875 3.6875,-1.21875 3.125,0 4.96875,2.5625 l -1.5625,1.0625 q -1.25,-1.75 -3.40625,-1.75 -1.375,0 -2.1875,0.6875 -0.8125,0.6875 -0.8125,1.875 0,1 0.8125,1.65625 0.84375,0.65625 2.03125,1.09375 1.21875,0.40625 2.40625,0.9375 1.1875,0.5 2,1.5625 0.84375,1.03125 0.84375,2.59375 0,1.90625 -1.4375,3.03125 -1.40625,1.125 -3.78125,1.125 -3.375,0 -5.34375,-2.96875 l 1.5625,-1.0625 q 1.375,2.15625 3.78125,2.15625 1.4375,0 2.28125,-0.625 z"
         id="path58" />
      <path
         d="m 491.09375,84.375 h 2.125 V 81.25 h 2.0625 v 3.125 h 4 v 1.875 h -4 v 10.3125 q 0,0.90625 0.4375,1.4375 0.46875,0.53125 1.21875,0.53125 1.28125,0 2.09375,-1 l 1.3125,1.125 q -1.21875,1.75 -3.40625,1.75 -1.71875,0 -2.71875,-1.03125 -1,-1.03125 -1,-2.8125 V 86.25 h -2.125 z"
         id="path60" />
      <path
         d="m 503.28125,98.21875 q -1.6875,-2.1875 -1.6875,-6.03125 0,-3.84375 1.6875,-6.03125 Q 505,83.96875 508,83.96875 q 3.03125,0 4.75,2.1875 1.71875,2.1875 1.71875,6.03125 0,3.84375 -1.71875,6.03125 -1.71875,2.1875 -4.75,2.1875 -3,0 -4.71875,-2.1875 z m 1.53125,-10.6875 q -1.15625,1.6875 -1.15625,4.65625 0,2.96875 1.15625,4.65625 1.15625,1.6875 3.1875,1.6875 2.0625,0 3.21875,-1.6875 1.1875,-1.6875 1.1875,-4.65625 0,-2.96875 -1.1875,-4.65625 -1.15625,-1.6875 -3.21875,-1.6875 -2.03125,0 -3.1875,1.6875 z"
         id="path62" />
      <path
         d="M 526.03125,86.09375 525.125,86 q -2.875,0 -4.21875,3.21875 V 100 h -2.0625 V 84.375 H 520.75 v 2.1875 q 1.78125,-2.59375 4.40625,-2.59375 0.6875,0 1.21875,0.09375 z"
         id="path64" />
      <path
         d="M 527.15625,84.375 H 529.25 l 4.53125,13.53125 4.5,-13.53125 h 2.09375 l -5.125,14.84375 q -1.875,5.375 -6.8125,7.59375 l -0.84375,-1.625 q 1.78125,-0.84375 2.9375,-1.9375 1.1875,-1.09375 2.125,-2.75 z"
         id="path66" />
      <path
         d="m 560.0625,97.90625 q 0.875,-0.625 0.875,-1.65625 0,-1.03125 -0.84375,-1.71875 -0.8125,-0.71875 -2,-1.15625 -1.1875,-0.4375 -2.40625,-0.96875 Q 554.5,91.875 553.65625,90.875 q -0.8125,-1 -0.8125,-2.46875 0,-2.03125 1.375,-3.21875 1.375,-1.21875 3.6875,-1.21875 3.125,0 4.96875,2.5625 l -1.5625,1.0625 q -1.25,-1.75 -3.40625,-1.75 -1.375,0 -2.1875,0.6875 -0.8125,0.6875 -0.8125,1.875 0,1 0.8125,1.65625 0.84375,0.65625 2.03125,1.09375 1.21875,0.40625 2.40625,0.9375 1.1875,0.5 2,1.5625 Q 563,94.6875 563,96.25 q 0,1.90625 -1.4375,3.03125 -1.40625,1.125 -3.78125,1.125 -3.375,0 -5.34375,-2.96875 L 554,96.375 q 1.375,2.15625 3.78125,2.15625 1.4375,0 2.28125,-0.625 z"
         id="path68" />
      <path
         d="m 569.28125,100 h -2.0625 V 78.125 h 2.0625 z"
         id="path70" />
      <path
         d="m 580.0625,100.40625 q -2.9375,0 -4.6875,-2.21875 -1.71875,-2.25 -1.71875,-6 0,-3.75 1.71875,-5.96875 1.75,-2.25 4.6875,-2.25 2.84375,0 4.5,2.0625 1.6875,2.0625 1.6875,5.5 v 1.1875 h -10.53125 q 0.125,2.6875 1.28125,4.25 1.15625,1.5625 3.0625,1.5625 2.53125,0 3.9375,-2.125 L 585.65625,97.5 q -2,2.90625 -5.59375,2.90625 z m 0,-14.5625 q -1.75,0 -2.90625,1.34375 -1.125,1.3125 -1.375,3.65625 h 8.375 Q 584,88.53125 582.875,87.1875 q -1.09375,-1.34375 -2.8125,-1.34375 z"
         id="path72" />
      <path
         d="m 595.9375,100.40625 q -2.9375,0 -4.6875,-2.21875 -1.71875,-2.25 -1.71875,-6 0,-3.75 1.71875,-5.96875 1.75,-2.25 4.6875,-2.25 2.84375,0 4.5,2.0625 1.6875,2.0625 1.6875,5.5 v 1.1875 h -10.53125 q 0.125,2.6875 1.28125,4.25 1.15625,1.5625 3.0625,1.5625 2.53125,0 3.9375,-2.125 L 601.53125,97.5 q -2,2.90625 -5.59375,2.90625 z m 0,-14.5625 q -1.75,0 -2.90625,1.34375 -1.125,1.3125 -1.375,3.65625 h 8.375 Q 599.875,88.53125 598.75,87.1875 q -1.09375,-1.34375 -2.8125,-1.34375 z"
         id="path74" />
      <path
         d="m 606.65625,84.40625 h 1.90625 v 1.6875 Q 610.40625,84 613.0625,84 q 2.75,0 4.34375,2.21875 1.625,2.21875 1.625,6 0,3.78125 -1.71875,6 -1.71875,2.21875 -4.59375,2.21875 -2.34375,0 -4,-1.375 v 7.34375 h -2.0625 z m 2.0625,12 q 1.40625,2.15625 4.03125,2.15625 1.9375,0 3.0625,-1.71875 1.15625,-1.71875 1.15625,-4.625 0,-2.90625 -1.0625,-4.625 -1.03125,-1.71875 -2.8125,-1.71875 -2.75,0 -4.375,2.71875 z"
         id="path76" />
      <path
         d="m 629.625,97.90625 q 0.875,-0.625 0.875,-1.65625 0,-1.03125 -0.84375,-1.71875 -0.8125,-0.71875 -2,-1.15625 -1.1875,-0.4375 -2.40625,-0.96875 -1.1875,-0.53125 -2.03125,-1.53125 -0.8125,-1 -0.8125,-2.46875 0,-2.03125 1.375,-3.21875 1.375,-1.21875 3.6875,-1.21875 3.125,0 4.96875,2.5625 l -1.5625,1.0625 q -1.25,-1.75 -3.40625,-1.75 -1.375,0 -2.1875,0.6875 -0.8125,0.6875 -0.8125,1.875 0,1 0.8125,1.65625 0.84375,0.65625 2.03125,1.09375 1.21875,0.40625 2.40625,0.9375 1.1875,0.5 2,1.5625 0.84375,1.03125 0.84375,2.59375 0,1.90625 -1.4375,3.03125 -1.40625,1.125 -3.78125,1.125 -3.375,0 -5.34375,-2.96875 l 1.5625,-1.0625 q 1.375,2.15625 3.78125,2.15625 1.4375,0 2.28125,-0.625 z"
         id="path78" />
      <path
         d="m 634.5,104 1.65625,-7.28125 h 3.03125 L 636.0625,104 Z"
         id="path80" />
    </g>
    <g
       aria-label="Of empires lost, and wisdom deeps."
       id="text4">
      <path
         d="m 163.70312,147.53125 q -2.125,-2.875 -2.125,-7.9375 0,-5.0625 2.125,-7.9375 2.15625,-2.875 5.90625,-2.875 3.78125,0 5.90625,2.875 2.15625,2.875 2.15625,7.9375 0,5.0625 -2.15625,7.9375 -2.125,2.875 -5.90625,2.875 -3.75,0 -5.90625,-2.875 z m 1.5625,-14.4375 q -1.5625,2.34375 -1.5625,6.5 0,4.15625 1.5625,6.53125 1.59375,2.34375 4.34375,2.34375 2.78125,0 4.34375,-2.34375 1.59375,-2.375 1.59375,-6.53125 0,-4.15625 -1.59375,-6.5 -1.5625,-2.375 -4.34375,-2.375 -2.75,0 -4.34375,2.375 z"
         id="path83" />
      <path
         d="m 180.64062,134.375 h 2.125 v -1.5 q 0,-2.5 1.1875,-3.8125 1.1875,-1.34375 3.375,-1.34375 1.78125,0 3.0625,0.6875 l -0.6875,1.78125 q -0.96875,-0.53125 -2.375,-0.53125 -2.5,0 -2.5,3.21875 v 1.5 h 4 v 1.875 h -4 V 150 h -2.0625 v -13.75 h -2.125 z"
         id="path85" />
      <path
         d="m 206.48437,150.40625 q -2.9375,0 -4.6875,-2.21875 -1.71875,-2.25 -1.71875,-6 0,-3.75 1.71875,-5.96875 1.75,-2.25 4.6875,-2.25 2.84375,0 4.5,2.0625 1.6875,2.0625 1.6875,5.5 v 1.1875 h -10.53125 q 0.125,2.6875 1.28125,4.25 1.15625,1.5625 3.0625,1.5625 2.53125,0 3.9375,-2.125 l 1.65625,1.09375 q -2,2.90625 -5.59375,2.90625 z m 0,-14.5625 q -1.75,0 -2.90625,1.34375 -1.125,1.3125 -1.375,3.65625 h 8.375 q -0.15625,-2.3125 -1.28125,-3.65625 -1.09375,-1.34375 -2.8125,-1.34375 z"
         id="path87" />
      <path
         d="m 228.32812,150 h -2.0625 v -10.75 q 0,-3.40625 -2.96875,-3.40625 -2.625,0 -4.03125,2.46875 V 150 h -2.0625 v -15.625 h 1.90625 v 1.59375 q 1.75,-2 4.15625,-2 3.34375,0 4.5,2.46875 1.84375,-2.46875 4.5625,-2.46875 2.46875,0 3.75,1.375 1.3125,1.34375 1.3125,3.90625 V 150 h -2.0625 v -10.75 q 0,-3.40625 -2.96875,-3.40625 -2.65625,0 -4.09375,2.53125 0.0625,0.5625 0.0625,0.875 z"
         id="path89" />
      <path
         d="m 242.70312,134.40625 h 1.90625 v 1.6875 q 1.84375,-2.09375 4.5,-2.09375 2.75,0 4.34375,2.21875 1.625,2.21875 1.625,6 0,3.78125 -1.71875,6 -1.71875,2.21875 -4.59375,2.21875 -2.34375,0 -4,-1.375 v 7.34375 h -2.0625 z m 2.0625,12 q 1.40625,2.15625 4.03125,2.15625 1.9375,0 3.0625,-1.71875 1.15625,-1.71875 1.15625,-4.625 0,-2.90625 -1.0625,-4.625 -1.03125,-1.71875 -2.8125,-1.71875 -2.75,0 -4.375,2.71875 z"
         id="path91" />
      <path
         d="m 261.51562,150 h -2.0625 v -15.625 h 2.0625 z m -2.0625,-19.71875 q -0.40625,-0.40625 -0.40625,-1 0,-0.59375 0.40625,-1 0.4375,-0.4375 1.03125,-0.4375 0.59375,0 1,0.4375 0.4375,0.40625 0.4375,1 0,0.59375 -0.4375,1 -0.40625,0.40625 -1,0.40625 -0.59375,0 -1.03125,-0.40625 z"
         id="path93" />
      <path
         d="M 274.32812,136.09375 273.42187,136 q -2.875,0 -4.21875,3.21875 V 150 h -2.0625 v -15.625 h 1.90625 v 2.1875 q 1.78125,-2.59375 4.40625,-2.59375 0.6875,0 1.21875,0.0937 z"
         id="path95" />
      <path
         d="m 282.64062,150.40625 q -2.9375,0 -4.6875,-2.21875 -1.71875,-2.25 -1.71875,-6 0,-3.75 1.71875,-5.96875 1.75,-2.25 4.6875,-2.25 2.84375,0 4.5,2.0625 1.6875,2.0625 1.6875,5.5 v 1.1875 h -10.53125 q 0.125,2.6875 1.28125,4.25 1.15625,1.5625 3.0625,1.5625 2.53125,0 3.9375,-2.125 l 1.65625,1.09375 q -2,2.90625 -5.59375,2.90625 z m 0,-14.5625 q -1.75,0 -2.90625,1.34375 -1.125,1.3125 -1.375,3.65625 h 8.375 q -0.15625,-2.3125 -1.28125,-3.65625 -1.09375,-1.34375 -2.8125,-1.34375 z"
         id="path97" />
      <path
         d="m 299.57812,147.90625 q 0.875,-0.625 0.875,-1.65625 0,-1.03125 -0.84375,-1.71875 -0.8125,-0.71875 -2,-1.15625 -1.1875,-0.4375 -2.40625,-0.96875 -1.1875,-0.53125 -2.03125,-1.53125 -0.8125,-1 -0.8125,-2.46875 0,-2.03125 1.375,-3.21875 1.375,-1.21875 3.6875,-1.21875 3.125,0 4.96875,2.5625 l -1.5625,1.0625 q -1.25,-1.75 -3.40625,-1.75 -1.375,0 -2.1875,0.6875 -0.8125,0.6875 -0.8125,1.875 0,1 0.8125,1.65625 0.84375,0.65625 2.03125,1.09375 1.21875,0.40625 2.40625,0.9375 1.1875,0.5 2,1.5625 0.84375,1.03125 0.84375,2.59375 0,1.90625 -1.4375,3.03125 -1.40625,1.125 -3.78125,1.125 -3.375,0 -5.34375,-2.96875 l 1.5625,-1.0625 q 1.375,2.15625 3.78125,2.15625 1.4375,0 2.28125,-0.625 z"
         id="path99" />
      <path
         d="m 318.67187,150 h -2.0625 v -21.875 h 2.0625 z"
         id="path101" />
      <path
         d="m 324.73437,148.21875 q -1.6875,-2.1875 -1.6875,-6.03125 0,-3.84375 1.6875,-6.03125 1.71875,-2.1875 4.71875,-2.1875 3.03125,0 4.75,2.1875 1.71875,2.1875 1.71875,6.03125 0,3.84375 -1.71875,6.03125 -1.71875,2.1875 -4.75,2.1875 -3,0 -4.71875,-2.1875 z m 1.53125,-10.6875 q -1.15625,1.6875 -1.15625,4.65625 0,2.96875 1.15625,4.65625 1.15625,1.6875 3.1875,1.6875 2.0625,0 3.21875,-1.6875 1.1875,-1.6875 1.1875,-4.65625 0,-2.96875 -1.1875,-4.65625 -1.15625,-1.6875 -3.21875,-1.6875 -2.03125,0 -3.1875,1.6875 z"
         id="path103" />
      <path
         d="m 346.51562,147.90625 q 0.875,-0.625 0.875,-1.65625 0,-1.03125 -0.84375,-1.71875 -0.8125,-0.71875 -2,-1.15625 -1.1875,-0.4375 -2.40625,-0.96875 -1.1875,-0.53125 -2.03125,-1.53125 -0.8125,-1 -0.8125,-2.46875 0,-2.03125 1.375,-3.21875 1.375,-1.21875 3.6875,-1.21875 3.125,0 4.96875,2.5625 l -1.5625,1.0625 q -1.25,-1.75 -3.40625,-1.75 -1.375,0 -2.1875,0.6875 -0.8125,0.6875 -0.8125,1.875 0,1 0.8125,1.65625 0.84375,0.65625 2.03125,1.09375 1.21875,0.40625 2.40625,0.9375 1.1875,0.5 2,1.5625 0.84375,1.03125 0.84375,2.59375 0,1.90625 -1.4375,3.03125 -1.40625,1.125 -3.78125,1.125 -3.375,0 -5.34375,-2.96875 l 1.5625,-1.0625 q 1.375,2.15625 3.78125,2.15625 1.4375,0 2.28125,-0.625 z"
         id="path105" />
      <path
         d="m 351.95312,134.375 h 2.125 v -3.125 h 2.0625 v 3.125 h 4 v 1.875 h -4 v 10.3125 q 0,0.90625 0.4375,1.4375 0.46875,0.53125 1.21875,0.53125 1.28125,0 2.09375,-1 l 1.3125,1.125 q -1.21875,1.75 -3.40625,1.75 -1.71875,0 -2.71875,-1.03125 -1,-1.03125 -1,-2.8125 V 136.25 h -2.125 z"
         id="path107" />
      <path
         d="m 361.42187,154 1.65625,-7.28125 h 3.03125 L 362.98437,154 Z"
         id="path109" />
      <path
         d="m 393.70312,148.375 q -1.78125,2.03125 -4.25,2.03125 -2.5625,0 -4.09375,-1.375 -1.5,-1.40625 -1.5,-3.71875 0,-2.34375 1.5,-3.71875 1.53125,-1.375 4.09375,-1.375 2.3125,0 4.09375,1.34375 v -2.09375 q 0,-1.65625 -1,-2.625 -0.96875,-1 -2.59375,-1 -2.4375,0 -3.9375,2.0625 l -1.59375,-1.03125 q 1.96875,-2.90625 5.53125,-2.90625 2.59375,0 4.125,1.5 1.53125,1.5 1.53125,4 V 150 h -1.90625 z m -4.28125,0.15625 q 2.5625,0 4.125,-2.5 v -2.3125 q -1.53125,-1.625 -4.125,-1.625 -1.625,0 -2.5625,0.875 -0.9375,0.875 -0.9375,2.34375 0,1.46875 0.9375,2.34375 0.9375,0.875 2.5625,0.875 z"
         id="path111" />
      <path
         d="m 412.67187,150 h -2.0625 v -10.75 q 0,-3.40625 -3.21875,-3.40625 -2.875,0 -4.40625,2.5625 V 150 h -2.0625 v -15.625 h 1.90625 v 1.71875 q 1.875,-2.125 4.5625,-2.125 2.59375,0 3.9375,1.375 1.34375,1.34375 1.34375,3.90625 z"
         id="path113" />
      <path
         d="m 429.10937,150 h -1.90625 v -1.65625 q -1.875,2.0625 -4.5,2.0625 -2.75,0 -4.375,-2.21875 -1.59375,-2.21875 -1.59375,-6 0,-3.78125 1.71875,-6 1.71875,-2.21875 4.59375,-2.21875 2.34375,0 4,1.375 V 128.125 h 2.0625 z m -2.0625,-12 q -1.40625,-2.15625 -4.03125,-2.15625 -1.9375,0 -3.09375,1.71875 -1.125,1.71875 -1.125,4.625 0,2.90625 1.03125,4.625 1.0625,1.71875 2.84375,1.71875 2.78125,0 4.375,-2.71875 z"
         id="path115" />
      <path
         d="m 453.73437,134.375 3.28125,13.6875 3.875,-13.6875 h 2.09375 l -4.5,15.625 h -2.84375 l -2.875,-11.6875 L 449.92187,150 h -2.84375 l -4.5,-15.625 h 2.09375 l 3.875,13.6875 3.28125,-13.6875 z"
         id="path117" />
      <path
         d="m 468.64062,150 h -2.0625 v -15.625 h 2.0625 z m -2.0625,-19.71875 q -0.40625,-0.40625 -0.40625,-1 0,-0.59375 0.40625,-1 0.4375,-0.4375 1.03125,-0.4375 0.59375,0 1,0.4375 0.4375,0.40625 0.4375,1 0,0.59375 -0.4375,1 -0.40625,0.40625 -1,0.40625 -0.59375,0 -1.03125,-0.40625 z"
         id="path119" />
      <path
         d="m 480.48437,147.90625 q 0.875,-0.625 0.875,-1.65625 0,-1.03125 -0.84375,-1.71875 -0.8125,-0.71875 -2,-1.15625 -1.1875,-0.4375 -2.40625,-0.96875 -1.1875,-0.53125 -2.03125,-1.53125 -0.8125,-1 -0.8125,-2.46875 0,-2.03125 1.375,-3.21875 1.375,-1.21875 3.6875,-1.21875 3.125,0 4.96875,2.5625 l -1.5625,1.0625 q -1.25,-1.75 -3.40625,-1.75 -1.375,0 -2.1875,0.6875 -0.8125,0.6875 -0.8125,1.875 0,1 0.8125,1.65625 0.84375,0.65625 2.03125,1.09375 1.21875,0.40625 2.40625,0.9375 1.1875,0.5 2,1.5625 0.84375,1.03125 0.84375,2.59375 0,1.90625 -1.4375,3.03125 -1.40625,1.125 -3.78125,1.125 -3.375,0 -5.34375,-2.96875 l 1.5625,-1.0625 q 1.375,2.15625 3.78125,2.15625 1.4375,0 2.28125,-0.625 z"
         id="path121" />
      <path
         d="m 498.76562,150 h -1.90625 v -1.65625 q -1.875,2.0625 -4.5,2.0625 -2.75,0 -4.375,-2.21875 -1.59375,-2.21875 -1.59375,-6 0,-3.78125 1.71875,-6 1.71875,-2.21875 4.59375,-2.21875 2.34375,0 4,1.375 V 128.125 h 2.0625 z m -2.0625,-12 q -1.40625,-2.15625 -4.03125,-2.15625 -1.9375,0 -3.09375,1.71875 -1.125,1.71875 -1.125,4.625 0,2.90625 1.03125,4.625 1.0625,1.71875 2.84375,1.71875 2.78125,0 4.375,-2.71875 z"
         id="path123" />
      <path
         d="m 504.82812,148.21875 q -1.6875,-2.1875 -1.6875,-6.03125 0,-3.84375 1.6875,-6.03125 1.71875,-2.1875 4.71875,-2.1875 3.03125,0 4.75,2.1875 1.71875,2.1875 1.71875,6.03125 0,3.84375 -1.71875,6.03125 -1.71875,2.1875 -4.75,2.1875 -3,0 -4.71875,-2.1875 z m 1.53125,-10.6875 q -1.15625,1.6875 -1.15625,4.65625 0,2.96875 1.15625,4.65625 1.15625,1.6875 3.1875,1.6875 2.0625,0 3.21875,-1.6875 1.1875,-1.6875 1.1875,-4.65625 0,-2.96875 -1.1875,-4.65625 -1.15625,-1.6875 -3.21875,-1.6875 -2.03125,0 -3.1875,1.6875 z"
         id="path125" />
      <path
         d="m 531.51562,150 h -2.0625 v -10.75 q 0,-3.40625 -2.96875,-3.40625 -2.625,0 -4.03125,2.46875 V 150 h -2.0625 v -15.625 h 1.90625 v 1.59375 q 1.75,-2 4.15625,-2 3.34375,0 4.5,2.46875 1.84375,-2.46875 4.5625,-2.46875 2.46875,0 3.75,1.375 1.3125,1.34375 1.3125,3.90625 V 150 h -2.0625 v -10.75 q 0,-3.40625 -2.96875,-3.40625 -2.65625,0 -4.09375,2.53125 0.0625,0.5625 0.0625,0.875 z"
         id="path127" />
      <path
         d="m 566.89062,150 h -1.90625 v -1.65625 q -1.875,2.0625 -4.5,2.0625 -2.75,0 -4.375,-2.21875 -1.59375,-2.21875 -1.59375,-6 0,-3.78125 1.71875,-6 1.71875,-2.21875 4.59375,-2.21875 2.34375,0 4,1.375 V 128.125 h 2.0625 z m -2.0625,-12 q -1.40625,-2.15625 -4.03125,-2.15625 -1.9375,0 -3.09375,1.71875 -1.125,1.71875 -1.125,4.625 0,2.90625 1.03125,4.625 1.0625,1.71875 2.84375,1.71875 2.78125,0 4.375,-2.71875 z"
         id="path129" />
      <path
         d="m 577.67187,150.40625 q -2.9375,0 -4.6875,-2.21875 -1.71875,-2.25 -1.71875,-6 0,-3.75 1.71875,-5.96875 1.75,-2.25 4.6875,-2.25 2.84375,0 4.5,2.0625 1.6875,2.0625 1.6875,5.5 v 1.1875 h -10.53125 q 0.125,2.6875 1.28125,4.25 1.15625,1.5625 3.0625,1.5625 2.53125,0 3.9375,-2.125 l 1.65625,1.09375 q -2,2.90625 -5.59375,2.90625 z m 0,-14.5625 q -1.75,0 -2.90625,1.34375 -1.125,1.3125 -1.375,3.65625 h 8.375 q -0.15625,-2.3125 -1.28125,-3.65625 -1.09375,-1.34375 -2.8125,-1.34375 z"
         id="path131" />
      <path
         d="m 593.54687,150.40625 q -2.9375,0 -4.6875,-2.21875 -1.71875,-2.25 -1.71875,-6 0,-3.75 1.71875,-5.96875 1.75,-2.25 4.6875,-2.25 2.84375,0 4.5,2.0625 1.6875,2.0625 1.6875,5.5 v 1.1875 h -10.53125 q 0.125,2.6875 1.28125,4.25 1.15625,1.5625 3.0625,1.5625 2.53125,0 3.9375,-2.125 l 1.65625,1.09375 q -2,2.90625 -5.59375,2.90625 z m 0,-14.5625 q -1.75,0 -2.90625,1.34375 -1.125,1.3125 -1.375,3.65625 h 8.375 q -0.15625,-2.3125 -1.28125,-3.65625 -1.09375,-1.34375 -2.8125,-1.34375 z"
         id="path133" />
      <path
         d="m 604.26562,134.40625 h 1.90625 v 1.6875 q 1.84375,-2.09375 4.5,-2.09375 2.75,0 4.34375,2.21875 1.625,2.21875 1.625,6 0,3.78125 -1.71875,6 -1.71875,2.21875 -4.59375,2.21875 -2.34375,0 -4,-1.375 v 7.34375 h -2.0625 z m 2.0625,12 q 1.40625,2.15625 4.03125,2.15625 1.9375,0 3.0625,-1.71875 1.15625,-1.71875 1.15625,-4.625 0,-2.90625 -1.0625,-4.625 -1.03125,-1.71875 -2.8125,-1.71875 -2.75,0 -4.375,2.71875 z"
         id="path135" />
      <path
         d="m 627.23437,147.90625 q 0.875,-0.625 0.875,-1.65625 0,-1.03125 -0.84375,-1.71875 -0.8125,-0.71875 -2,-1.15625 -1.1875,-0.4375 -2.40625,-0.96875 -1.1875,-0.53125 -2.03125,-1.53125 -0.8125,-1 -0.8125,-2.46875 0,-2.03125 1.375,-3.21875 1.375,-1.21875 3.6875,-1.21875 3.125,0 4.96875,2.5625 l -1.5625,1.0625 q -1.25,-1.75 -3.40625,-1.75 -1.375,0 -2.1875,0.6875 -0.8125,0.6875 -0.8125,1.875 0,1 0.8125,1.65625 0.84375,0.65625 2.03125,1.09375 1.21875,0.40625 2.40625,0.9375 1.1875,0.5 2,1.5625 0.84375,1.03125 0.84375,2.59375 0,1.90625 -1.4375,3.03125 -1.40625,1.125 -3.78125,1.125 -3.375,0 -5.34375,-2.96875 l 1.5625,-1.0625 q 1.375,2.15625 3.78125,2.15625 1.4375,0 2.28125,-0.625 z"
         id="path137" />
      <path
         d="m 633.92187,150 v -3.28125 h 2.65625 V 150 Z"
         id="path139" />
    </g>
    <g
       aria-label="A whispered tale, the ages keep,"
       id="text6">
      <path
         d="m 188.84375,179.1875 6.25,20.8125 h -2.0625 l -1.84375,-6.125 H 183.375 L 181.5625,200 H 179.5 l 6.25,-20.8125 z M 183.9375,192 h 6.6875 l -3.34375,-11.15625 z"
         id="path142" />
      <path
         d="m 217.21875,184.375 3.28125,13.6875 3.875,-13.6875 h 2.09375 l -4.5,15.625 H 219.125 L 216.25,188.3125 213.40625,200 h -2.84375 l -4.5,-15.625 h 2.09375 l 3.875,13.6875 3.28125,-13.6875 z"
         id="path144" />
      <path
         d="M 241.8125,200 H 239.75 v -10.75 q 0,-3.40625 -3.21875,-3.40625 -2.875,0 -4.40625,2.5625 V 200 h -2.0625 v -21.875 h 2.0625 v 7.78125 q 1.84375,-1.9375 4.40625,-1.9375 2.59375,0 3.9375,1.375 1.34375,1.34375 1.34375,3.90625 z"
         id="path146" />
      <path
         d="m 249.1875,200 h -2.0625 v -15.625 h 2.0625 z m -2.0625,-19.71875 q -0.40625,-0.40625 -0.40625,-1 0,-0.59375 0.40625,-1 0.4375,-0.4375 1.03125,-0.4375 0.59375,0 1,0.4375 0.4375,0.40625 0.4375,1 0,0.59375 -0.4375,1 -0.40625,0.40625 -1,0.40625 -0.59375,0 -1.03125,-0.40625 z"
         id="path148" />
      <path
         d="m 261.03125,197.90625 q 0.875,-0.625 0.875,-1.65625 0,-1.03125 -0.84375,-1.71875 -0.8125,-0.71875 -2,-1.15625 -1.1875,-0.4375 -2.40625,-0.96875 -1.1875,-0.53125 -2.03125,-1.53125 -0.8125,-1 -0.8125,-2.46875 0,-2.03125 1.375,-3.21875 1.375,-1.21875 3.6875,-1.21875 3.125,0 4.96875,2.5625 l -1.5625,1.0625 q -1.25,-1.75 -3.40625,-1.75 -1.375,0 -2.1875,0.6875 -0.8125,0.6875 -0.8125,1.875 0,1 0.8125,1.65625 0.84375,0.65625 2.03125,1.09375 1.21875,0.40625 2.40625,0.9375 1.1875,0.5 2,1.5625 0.84375,1.03125 0.84375,2.59375 0,1.90625 -1.4375,3.03125 -1.40625,1.125 -3.78125,1.125 -3.375,0 -5.34375,-2.96875 l 1.5625,-1.0625 q 1.375,2.15625 3.78125,2.15625 1.4375,0 2.28125,-0.625 z"
         id="path150" />
      <path
         d="m 268.1875,184.40625 h 1.90625 v 1.6875 Q 271.9375,184 274.59375,184 q 2.75,0 4.34375,2.21875 1.625,2.21875 1.625,6 0,3.78125 -1.71875,6 -1.71875,2.21875 -4.59375,2.21875 -2.34375,0 -4,-1.375 v 7.34375 h -2.0625 z m 2.0625,12 q 1.40625,2.15625 4.03125,2.15625 1.9375,0 3.0625,-1.71875 1.15625,-1.71875 1.15625,-4.625 0,-2.90625 -1.0625,-4.625 -1.03125,-1.71875 -2.8125,-1.71875 -2.75,0 -4.375,2.71875 z"
         id="path152" />
      <path
         d="m 290.09375,200.40625 q -2.9375,0 -4.6875,-2.21875 -1.71875,-2.25 -1.71875,-6 0,-3.75 1.71875,-5.96875 1.75,-2.25 4.6875,-2.25 2.84375,0 4.5,2.0625 1.6875,2.0625 1.6875,5.5 v 1.1875 H 285.75 q 0.125,2.6875 1.28125,4.25 1.15625,1.5625 3.0625,1.5625 2.53125,0 3.9375,-2.125 L 295.6875,197.5 q -2,2.90625 -5.59375,2.90625 z m 0,-14.5625 q -1.75,0 -2.90625,1.34375 -1.125,1.3125 -1.375,3.65625 h 8.375 q -0.15625,-2.3125 -1.28125,-3.65625 -1.09375,-1.34375 -2.8125,-1.34375 z"
         id="path154" />
      <path
         d="M 308,186.09375 307.09375,186 q -2.875,0 -4.21875,3.21875 V 200 h -2.0625 v -15.625 h 1.90625 v 2.1875 q 1.78125,-2.59375 4.40625,-2.59375 0.6875,0 1.21875,0.0937 z"
         id="path156" />
      <path
         d="m 316.3125,200.40625 q -2.9375,0 -4.6875,-2.21875 -1.71875,-2.25 -1.71875,-6 0,-3.75 1.71875,-5.96875 1.75,-2.25 4.6875,-2.25 2.84375,0 4.5,2.0625 1.6875,2.0625 1.6875,5.5 v 1.1875 h -10.53125 q 0.125,2.6875 1.28125,4.25 1.15625,1.5625 3.0625,1.5625 2.53125,0 3.9375,-2.125 l 1.65625,1.09375 q -2,2.90625 -5.59375,2.90625 z m 0,-14.5625 q -1.75,0 -2.90625,1.34375 -1.125,1.3125 -1.375,3.65625 h 8.375 q -0.15625,-2.3125 -1.28125,-3.65625 -1.09375,-1.34375 -2.8125,-1.34375 z"
         id="path158" />
      <path
         d="M 338.15625,200 H 336.25 v -1.65625 q -1.875,2.0625 -4.5,2.0625 -2.75,0 -4.375,-2.21875 -1.59375,-2.21875 -1.59375,-6 0,-3.78125 1.71875,-6 1.71875,-2.21875 4.59375,-2.21875 2.34375,0 4,1.375 V 178.125 h 2.0625 z m -2.0625,-12 q -1.40625,-2.15625 -4.03125,-2.15625 -1.9375,0 -3.09375,1.71875 -1.125,1.71875 -1.125,4.625 0,2.90625 1.03125,4.625 1.0625,1.71875 2.84375,1.71875 2.78125,0 4.375,-2.71875 z"
         id="path160" />
      <path
         d="m 351.9375,184.375 h 2.125 v -3.125 h 2.0625 v 3.125 h 4 v 1.875 h -4 v 10.3125 q 0,0.90625 0.4375,1.4375 0.46875,0.53125 1.21875,0.53125 1.28125,0 2.09375,-1 l 1.3125,1.125 q -1.21875,1.75 -3.40625,1.75 -1.71875,0 -2.71875,-1.03125 -1,-1.03125 -1,-2.8125 V 186.25 h -2.125 z"
         id="path162" />
      <path
         d="m 372.59375,198.375 q -1.78125,2.03125 -4.25,2.03125 -2.5625,0 -4.09375,-1.375 -1.5,-1.40625 -1.5,-3.71875 0,-2.34375 1.5,-3.71875 1.53125,-1.375 4.09375,-1.375 2.3125,0 4.09375,1.34375 v -2.09375 q 0,-1.65625 -1,-2.625 -0.96875,-1 -2.59375,-1 -2.4375,0 -3.9375,2.0625 L 363.3125,186.875 q 1.96875,-2.90625 5.53125,-2.90625 2.59375,0 4.125,1.5 1.53125,1.5 1.53125,4 V 200 h -1.90625 z m -4.28125,0.15625 q 2.5625,0 4.125,-2.5 v -2.3125 q -1.53125,-1.625 -4.125,-1.625 -1.625,0 -2.5625,0.875 -0.9375,0.875 -0.9375,2.34375 0,1.46875 0.9375,2.34375 0.9375,0.875 2.5625,0.875 z"
         id="path164" />
      <path
         d="m 381.875,200 h -2.0625 v -21.875 h 2.0625 z"
         id="path166" />
      <path
         d="m 392.65625,200.40625 q -2.9375,0 -4.6875,-2.21875 -1.71875,-2.25 -1.71875,-6 0,-3.75 1.71875,-5.96875 1.75,-2.25 4.6875,-2.25 2.84375,0 4.5,2.0625 1.6875,2.0625 1.6875,5.5 v 1.1875 H 388.3125 q 0.125,2.6875 1.28125,4.25 1.15625,1.5625 3.0625,1.5625 2.53125,0 3.9375,-2.125 L 398.25,197.5 q -2,2.90625 -5.59375,2.90625 z m 0,-14.5625 q -1.75,0 -2.90625,1.34375 -1.125,1.3125 -1.375,3.65625 h 8.375 q -0.15625,-2.3125 -1.28125,-3.65625 -1.09375,-1.34375 -2.8125,-1.34375 z"
         id="path168" />
      <path
         d="m 401.09375,204 1.65625,-7.28125 h 3.03125 L 402.65625,204 Z"
         id="path170" />
      <path
         d="m 422.75,184.375 h 2.125 v -3.125 h 2.0625 v 3.125 h 4 v 1.875 h -4 v 10.3125 q 0,0.90625 0.4375,1.4375 0.46875,0.53125 1.21875,0.53125 1.28125,0 2.09375,-1 l 1.3125,1.125 q -1.21875,1.75 -3.40625,1.75 -1.71875,0 -2.71875,-1.03125 -1,-1.03125 -1,-2.8125 V 186.25 h -2.125 z"
         id="path172" />
      <path
         d="m 446.25,200 h -2.0625 v -10.75 q 0,-3.40625 -3.21875,-3.40625 -2.875,0 -4.40625,2.5625 V 200 H 434.5 v -21.875 h 2.0625 v 7.78125 q 1.84375,-1.9375 4.40625,-1.9375 2.59375,0 3.9375,1.375 1.34375,1.34375 1.34375,3.90625 z"
         id="path174" />
      <path
         d="m 456.71875,200.40625 q -2.9375,0 -4.6875,-2.21875 -1.71875,-2.25 -1.71875,-6 0,-3.75 1.71875,-5.96875 1.75,-2.25 4.6875,-2.25 2.84375,0 4.5,2.0625 1.6875,2.0625 1.6875,5.5 v 1.1875 H 452.375 q 0.125,2.6875 1.28125,4.25 1.15625,1.5625 3.0625,1.5625 2.53125,0 3.9375,-2.125 L 462.3125,197.5 q -2,2.90625 -5.59375,2.90625 z m 0,-14.5625 q -1.75,0 -2.90625,1.34375 -1.125,1.3125 -1.375,3.65625 h 8.375 q -0.15625,-2.3125 -1.28125,-3.65625 -1.09375,-1.34375 -2.8125,-1.34375 z"
         id="path176" />
      <path
         d="m 486.21875,198.375 q -1.78125,2.03125 -4.25,2.03125 -2.5625,0 -4.09375,-1.375 -1.5,-1.40625 -1.5,-3.71875 0,-2.34375 1.5,-3.71875 1.53125,-1.375 4.09375,-1.375 2.3125,0 4.09375,1.34375 v -2.09375 q 0,-1.65625 -1,-2.625 -0.96875,-1 -2.59375,-1 -2.4375,0 -3.9375,2.0625 L 476.9375,186.875 q 1.96875,-2.90625 5.53125,-2.90625 2.59375,0 4.125,1.5 1.53125,1.5 1.53125,4 V 200 h -1.90625 z m -4.28125,0.15625 q 2.5625,0 4.125,-2.5 v -2.3125 q -1.53125,-1.625 -4.125,-1.625 -1.625,0 -2.5625,0.875 -0.9375,0.875 -0.9375,2.34375 0,1.46875 0.9375,2.34375 0.9375,0.875 2.5625,0.875 z"
         id="path178" />
      <path
         d="m 504.5625,201.1875 q 0,2.65625 -1.53125,4.125 -1.5,1.5 -4.1875,1.5 -3.90625,0 -5.8125,-3.40625 l 1.6875,-1.0625 q 1.3125,2.53125 4.125,2.53125 1.75,0 2.6875,-0.96875 0.96875,-0.9375 0.96875,-2.71875 v -3.09375 Q 500.6875,200 498.15625,200 q -2.71875,0 -4.34375,-2.09375 -1.625,-2.125 -1.625,-5.6875 0,-3.78125 1.71875,-6 Q 495.625,184 498.5,184 q 2.46875,0 4.15625,1.84375 v -1.4375 h 1.90625 z m -2.0625,-12.5 q -0.53125,-1.3125 -1.625,-2.0625 -1.0625,-0.75 -2.40625,-0.75 -1.9375,0 -3.09375,1.71875 -1.125,1.71875 -1.125,4.625 0,2.6875 1.03125,4.3125 1.0625,1.59375 2.84375,1.59375 2.78125,0 4.375,-2.71875 z"
         id="path180" />
      <path
         d="m 515.34375,200.40625 q -2.9375,0 -4.6875,-2.21875 -1.71875,-2.25 -1.71875,-6 0,-3.75 1.71875,-5.96875 1.75,-2.25 4.6875,-2.25 2.84375,0 4.5,2.0625 1.6875,2.0625 1.6875,5.5 v 1.1875 H 511 q 0.125,2.6875 1.28125,4.25 1.15625,1.5625 3.0625,1.5625 2.53125,0 3.9375,-2.125 L 520.9375,197.5 q -2,2.90625 -5.59375,2.90625 z m 0,-14.5625 q -1.75,0 -2.90625,1.34375 -1.125,1.3125 -1.375,3.65625 h 8.375 q -0.15625,-2.3125 -1.28125,-3.65625 -1.09375,-1.34375 -2.8125,-1.34375 z"
         id="path182" />
      <path
         d="m 532.28125,197.90625 q 0.875,-0.625 0.875,-1.65625 0,-1.03125 -0.84375,-1.71875 -0.8125,-0.71875 -2,-1.15625 -1.1875,-0.4375 -2.40625,-0.96875 -1.1875,-0.53125 -2.03125,-1.53125 -0.8125,-1 -0.8125,-2.46875 0,-2.03125 1.375,-3.21875 1.375,-1.21875 3.6875,-1.21875 3.125,0 4.96875,2.5625 l -1.5625,1.0625 q -1.25,-1.75 -3.40625,-1.75 -1.375,0 -2.1875,0.6875 -0.8125,0.6875 -0.8125,1.875 0,1 0.8125,1.65625 0.84375,0.65625 2.03125,1.09375 1.21875,0.40625 2.40625,0.9375 1.1875,0.5 2,1.5625 0.84375,1.03125 0.84375,2.59375 0,1.90625 -1.4375,3.03125 -1.40625,1.125 -3.78125,1.125 -3.375,0 -5.34375,-2.96875 l 1.5625,-1.0625 q 1.375,2.15625 3.78125,2.15625 1.4375,0 2.28125,-0.625 z"
         id="path184" />
      <path
         d="m 549.625,200 v -21.875 h 2.0625 v 13.46875 l 6.28125,-7.21875 h 2.5 l -5.78125,6.625 6.25,9 h -2.40625 l -5.1875,-7.46875 -1.65625,1.90625 V 200 Z"
         id="path186" />
      <path
         d="m 569.0625,200.40625 q -2.9375,0 -4.6875,-2.21875 -1.71875,-2.25 -1.71875,-6 0,-3.75 1.71875,-5.96875 1.75,-2.25 4.6875,-2.25 2.84375,0 4.5,2.0625 1.6875,2.0625 1.6875,5.5 v 1.1875 h -10.53125 q 0.125,2.6875 1.28125,4.25 1.15625,1.5625 3.0625,1.5625 2.53125,0 3.9375,-2.125 l 1.65625,1.09375 q -2,2.90625 -5.59375,2.90625 z m 0,-14.5625 q -1.75,0 -2.90625,1.34375 -1.125,1.3125 -1.375,3.65625 h 8.375 Q 573,188.53125 571.875,187.1875 q -1.09375,-1.34375 -2.8125,-1.34375 z"
         id="path188" />
      <path
         d="m 584.9375,200.40625 q -2.9375,0 -4.6875,-2.21875 -1.71875,-2.25 -1.71875,-6 0,-3.75 1.71875,-5.96875 1.75,-2.25 4.6875,-2.25 2.84375,0 4.5,2.0625 1.6875,2.0625 1.6875,5.5 v 1.1875 h -10.53125 q 0.125,2.6875 1.28125,4.25 1.15625,1.5625 3.0625,1.5625 2.53125,0 3.9375,-2.125 l 1.65625,1.09375 q -2,2.90625 -5.59375,2.90625 z m 0,-14.5625 q -1.75,0 -2.90625,1.34375 -1.125,1.3125 -1.375,3.65625 h 8.375 q -0.15625,-2.3125 -1.28125,-3.65625 -1.09375,-1.34375 -2.8125,-1.34375 z"
         id="path190" />
      <path
         d="m 595.65625,184.40625 h 1.90625 v 1.6875 Q 599.40625,184 602.0625,184 q 2.75,0 4.34375,2.21875 1.625,2.21875 1.625,6 0,3.78125 -1.71875,6 -1.71875,2.21875 -4.59375,2.21875 -2.34375,0 -4,-1.375 v 7.34375 h -2.0625 z m 2.0625,12 q 1.40625,2.15625 4.03125,2.15625 1.9375,0 3.0625,-1.71875 1.15625,-1.71875 1.15625,-4.625 0,-2.90625 -1.0625,-4.625 -1.03125,-1.71875 -2.8125,-1.71875 -2.75,0 -4.375,2.71875 z"
         id="path192" />
      <path
         d="m 610.125,204 1.65625,-7.28125 h 3.03125 L 611.6875,204 Z"
         id="path194" />
    </g>
    <g
       aria-label="Of battles fought, and promises to weep."
       id="text8">
      <path
         d="m 129.32812,247.53125 q -2.12499,-2.875 -2.12499,-7.9375 0,-5.0625 2.12499,-7.9375 2.15625,-2.875 5.90625,-2.875 3.78125,0 5.90625,2.875 2.15625,2.875 2.15625,7.9375 0,5.0625 -2.15625,7.9375 -2.125,2.875 -5.90625,2.875 -3.75,0 -5.90625,-2.875 z m 1.5625,-14.4375 q -1.5625,2.34375 -1.5625,6.5 0,4.15625 1.5625,6.53125 1.59375,2.34375 4.34375,2.34375 2.78125,0 4.34375,-2.34375 1.59375,-2.375 1.59375,-6.53125 0,-4.15625 -1.59375,-6.5 -1.5625,-2.375 -4.34375,-2.375 -2.75,0 -4.34375,2.375 z"
         id="path197" />
      <path
         d="m 146.26562,234.375 h 2.125 v -1.5 q 0,-2.5 1.1875,-3.8125 1.1875,-1.34375 3.375,-1.34375 1.78125,0 3.0625,0.6875 l -0.6875,1.78125 q -0.96875,-0.53125 -2.375,-0.53125 -2.5,0 -2.5,3.21875 v 1.5 h 4 v 1.875 h -4 V 250 h -2.0625 v -13.75 h -2.125 z"
         id="path199" />
      <path
         d="m 166.95312,228.125 h 2.0625 v 7.75 q 1.8125,-1.90625 4.34375,-1.90625 2.75,0 4.34375,2.21875 1.625,2.21875 1.625,6 0,3.78125 -1.71875,6 -1.71875,2.21875 -4.59375,2.21875 -2.5,0 -4.15625,-1.8125 V 250 h -1.90625 z m 2.0625,17.59375 q 0.5,1.3125 1.5625,2.0625 1.09375,0.75 2.46875,0.75 1.9375,0 3.0625,-1.71875 1.15625,-1.71875 1.15625,-4.625 0,-2.90625 -1.0625,-4.625 -1.03125,-1.71875 -2.8125,-1.71875 -2.75,0 -4.375,2.71875 z"
         id="path201" />
      <path
         d="m 192.60937,248.375 q -1.78125,2.03125 -4.25,2.03125 -2.5625,0 -4.09375,-1.375 -1.5,-1.40625 -1.5,-3.71875 0,-2.34375 1.5,-3.71875 1.53125,-1.375 4.09375,-1.375 2.3125,0 4.09375,1.34375 v -2.09375 q 0,-1.65625 -1,-2.625 -0.96875,-1 -2.59375,-1 -2.4375,0 -3.9375,2.0625 l -1.59375,-1.03125 q 1.96875,-2.90625 5.53125,-2.90625 2.59375,0 4.125,1.5 1.53125,1.5 1.53125,4 V 250 h -1.90625 z m -4.28125,0.15625 q 2.5625,0 4.125,-2.5 v -2.3125 q -1.53125,-1.625 -4.125,-1.625 -1.625,0 -2.5625,0.875 -0.9375,0.875 -0.9375,2.34375 0,1.46875 0.9375,2.34375 0.9375,0.875 2.5625,0.875 z"
         id="path203" />
      <path
         d="m 198.10937,234.375 h 2.125 v -3.125 h 2.0625 v 3.125 h 4 v 1.875 h -4 v 10.3125 q 0,0.90625 0.4375,1.4375 0.46875,0.53125 1.21875,0.53125 1.28125,0 2.09375,-1 l 1.3125,1.125 q -1.21875,1.75 -3.40625,1.75 -1.71875,0 -2.71875,-1.03125 -1,-1.03125 -1,-2.8125 V 236.25 h -2.125 z"
         id="path205" />
      <path
         d="m 208.14062,234.375 h 2.125 v -3.125 h 2.0625 v 3.125 h 4 v 1.875 h -4 v 10.3125 q 0,0.90625 0.4375,1.4375 0.46875,0.53125 1.21875,0.53125 1.28125,0 2.09375,-1 l 1.3125,1.125 q -1.21875,1.75 -3.40625,1.75 -1.71875,0 -2.71875,-1.03125 -1,-1.03125 -1,-2.8125 V 236.25 h -2.125 z"
         id="path207" />
      <path
         d="m 221.95312,250 h -2.0625 v -21.875 h 2.0625 z"
         id="path209" />
      <path
         d="m 232.73437,250.40625 q -2.9375,0 -4.6875,-2.21875 -1.71875,-2.25 -1.71875,-6 0,-3.75 1.71875,-5.96875 1.75,-2.25 4.6875,-2.25 2.84375,0 4.5,2.0625 1.6875,2.0625 1.6875,5.5 v 1.1875 h -10.53125 q 0.125,2.6875 1.28125,4.25 1.15625,1.5625 3.0625,1.5625 2.53125,0 3.9375,-2.125 l 1.65625,1.09375 q -2,2.90625 -5.59375,2.90625 z m 0,-14.5625 q -1.75,0 -2.90625,1.34375 -1.125,1.3125 -1.375,3.65625 h 8.375 q -0.15625,-2.3125 -1.28125,-3.65625 -1.09375,-1.34375 -2.8125,-1.34375 z"
         id="path211" />
      <path
         d="m 249.67187,247.90625 q 0.875,-0.625 0.875,-1.65625 0,-1.03125 -0.84375,-1.71875 -0.8125,-0.71875 -2,-1.15625 -1.1875,-0.4375 -2.40625,-0.96875 -1.1875,-0.53125 -2.03125,-1.53125 -0.8125,-1 -0.8125,-2.46875 0,-2.03125 1.375,-3.21875 1.375,-1.21875 3.6875,-1.21875 3.125,0 4.96875,2.5625 l -1.5625,1.0625 q -1.25,-1.75 -3.40625,-1.75 -1.375,0 -2.1875,0.6875 -0.8125,0.6875 -0.8125,1.875 0,1 0.8125,1.65625 0.84375,0.65625 2.03125,1.09375 1.21875,0.40625 2.40625,0.9375 1.1875,0.5 2,1.5625 0.84375,1.03125 0.84375,2.59375 0,1.90625 -1.4375,3.03125 -1.40625,1.125 -3.78125,1.125 -3.375,0 -5.34375,-2.96875 l 1.5625,-1.0625 q 1.375,2.15625 3.78125,2.15625 1.4375,0 2.28125,-0.625 z"
         id="path213" />
      <path
         d="m 264.98437,234.375 h 2.125 v -1.5 q 0,-2.5 1.1875,-3.8125 1.1875,-1.34375 3.375,-1.34375 1.78125,0 3.0625,0.6875 l -0.6875,1.78125 q -0.96875,-0.53125 -2.375,-0.53125 -2.5,0 -2.5,3.21875 v 1.5 h 4 v 1.875 h -4 V 250 h -2.0625 v -13.75 h -2.125 z"
         id="path215" />
      <path
         d="m 276.23437,248.21875 q -1.6875,-2.1875 -1.6875,-6.03125 0,-3.84375 1.6875,-6.03125 1.71875,-2.1875 4.71875,-2.1875 3.03125,0 4.75,2.1875 1.71875,2.1875 1.71875,6.03125 0,3.84375 -1.71875,6.03125 -1.71875,2.1875 -4.75,2.1875 -3,0 -4.71875,-2.1875 z m 1.53125,-10.6875 q -1.15625,1.6875 -1.15625,4.65625 0,2.96875 1.15625,4.65625 1.15625,1.6875 3.1875,1.6875 2.0625,0 3.21875,-1.6875 1.1875,-1.6875 1.1875,-4.65625 0,-2.96875 -1.1875,-4.65625 -1.15625,-1.6875 -3.21875,-1.6875 -2.03125,0 -3.1875,1.6875 z"
         id="path217" />
      <path
         d="m 291.48437,234.375 h 2.0625 v 10.75 q 0,3.40625 3.21875,3.40625 2.875,0 4.40625,-3 V 234.375 h 2.0625 V 250 h -1.90625 v -1.9375 q -1.875,2.34375 -4.5625,2.34375 -5.28125,0 -5.28125,-5.28125 z"
         id="path219" />
      <path
         d="m 319.98437,251.1875 q 0,2.65625 -1.53125,4.125 -1.5,1.5 -4.1875,1.5 -3.90625,0 -5.8125,-3.40625 l 1.6875,-1.0625 q 1.3125,2.53125 4.125,2.53125 1.75,0 2.6875,-0.96875 0.96875,-0.9375 0.96875,-2.71875 v -3.09375 Q 316.10937,250 313.57812,250 q -2.71875,0 -4.34375,-2.09375 -1.625,-2.125 -1.625,-5.6875 0,-3.78125 1.71875,-6 Q 311.04687,234 313.92187,234 q 2.46875,0 4.15625,1.84375 v -1.4375 h 1.90625 z m -2.0625,-12.5 q -0.53125,-1.3125 -1.625,-2.0625 -1.0625,-0.75 -2.40625,-0.75 -1.9375,0 -3.09375,1.71875 -1.125,1.71875 -1.125,4.625 0,2.6875 1.03125,4.3125 1.0625,1.59375 2.84375,1.59375 2.78125,0 4.375,-2.71875 z"
         id="path221" />
      <path
         d="m 337.35937,250 h -2.0625 v -10.75 q 0,-3.40625 -3.21875,-3.40625 -2.875,0 -4.40625,2.5625 V 250 h -2.0625 v -21.875 h 2.0625 v 7.78125 q 1.84375,-1.9375 4.40625,-1.9375 2.59375,0 3.9375,1.375 1.34375,1.34375 1.34375,3.90625 z"
         id="path223" />
      <path
         d="m 340.95312,234.375 h 2.125 v -3.125 h 2.0625 v 3.125 h 4 v 1.875 h -4 v 10.3125 q 0,0.90625 0.4375,1.4375 0.46875,0.53125 1.21875,0.53125 1.28125,0 2.09375,-1 l 1.3125,1.125 q -1.21875,1.75 -3.40625,1.75 -1.71875,0 -2.71875,-1.03125 -1,-1.03125 -1,-2.8125 V 236.25 h -2.125 z"
         id="path225" />
      <path
         d="m 350.42187,254 1.65625,-7.28125 h 3.03125 L 351.98437,254 Z"
         id="path227" />
      <path
         d="m 382.70312,248.375 q -1.78125,2.03125 -4.25,2.03125 -2.5625,0 -4.09375,-1.375 -1.5,-1.40625 -1.5,-3.71875 0,-2.34375 1.5,-3.71875 1.53125,-1.375 4.09375,-1.375 2.3125,0 4.09375,1.34375 v -2.09375 q 0,-1.65625 -1,-2.625 -0.96875,-1 -2.59375,-1 -2.4375,0 -3.9375,2.0625 l -1.59375,-1.03125 q 1.96875,-2.90625 5.53125,-2.90625 2.59375,0 4.125,1.5 1.53125,1.5 1.53125,4 V 250 h -1.90625 z m -4.28125,0.15625 q 2.5625,0 4.125,-2.5 v -2.3125 q -1.53125,-1.625 -4.125,-1.625 -1.625,0 -2.5625,0.875 -0.9375,0.875 -0.9375,2.34375 0,1.46875 0.9375,2.34375 0.9375,0.875 2.5625,0.875 z"
         id="path229" />
      <path
         d="m 401.67187,250 h -2.0625 v -10.75 q 0,-3.40625 -3.21875,-3.40625 -2.875,0 -4.40625,2.5625 V 250 h -2.0625 v -15.625 h 1.90625 v 1.71875 q 1.875,-2.125 4.5625,-2.125 2.59375,0 3.9375,1.375 1.34375,1.34375 1.34375,3.90625 z"
         id="path231" />
      <path
         d="m 418.10937,250 h -1.90625 v -1.65625 q -1.875,2.0625 -4.5,2.0625 -2.75,0 -4.375,-2.21875 -1.59375,-2.21875 -1.59375,-6 0,-3.78125 1.71875,-6 1.71875,-2.21875 4.59375,-2.21875 2.34375,0 4,1.375 V 228.125 h 2.0625 z m -2.0625,-12 q -1.40625,-2.15625 -4.03125,-2.15625 -1.9375,0 -3.09375,1.71875 -1.125,1.71875 -1.125,4.625 0,2.90625 1.03125,4.625 1.0625,1.71875 2.84375,1.71875 2.78125,0 4.375,-2.71875 z"
         id="path233" />
      <path
         d="m 433.60937,234.40625 h 1.90625 v 1.6875 q 1.84375,-2.09375 4.5,-2.09375 2.75,0 4.34375,2.21875 1.625,2.21875 1.625,6 0,3.78125 -1.71875,6 -1.71875,2.21875 -4.59375,2.21875 -2.34375,0 -4,-1.375 v 7.34375 h -2.0625 z m 2.0625,12 q 1.40625,2.15625 4.03125,2.15625 1.9375,0 3.0625,-1.71875 1.15625,-1.71875 1.15625,-4.625 0,-2.90625 -1.0625,-4.625 -1.03125,-1.71875 -2.8125,-1.71875 -2.75,0 -4.375,2.71875 z"
         id="path235" />
      <path
         d="M 457.54687,236.09375 456.64062,236 q -2.875,0 -4.21875,3.21875 V 250 h -2.0625 v -15.625 h 1.90625 v 2.1875 q 1.78125,-2.59375 4.40625,-2.59375 0.6875,0 1.21875,0.0937 z"
         id="path237" />
      <path
         d="m 461.14062,248.21875 q -1.6875,-2.1875 -1.6875,-6.03125 0,-3.84375 1.6875,-6.03125 1.71875,-2.1875 4.71875,-2.1875 3.03125,0 4.75,2.1875 1.71875,2.1875 1.71875,6.03125 0,3.84375 -1.71875,6.03125 -1.71875,2.1875 -4.75,2.1875 -3,0 -4.71875,-2.1875 z m 1.53125,-10.6875 q -1.15625,1.6875 -1.15625,4.65625 0,2.96875 1.15625,4.65625 1.15625,1.6875 3.1875,1.6875 2.0625,0 3.21875,-1.6875 1.1875,-1.6875 1.1875,-4.65625 0,-2.96875 -1.1875,-4.65625 -1.15625,-1.6875 -3.21875,-1.6875 -2.03125,0 -3.1875,1.6875 z"
         id="path239" />
      <path
         d="m 487.82812,250 h -2.0625 v -10.75 q 0,-3.40625 -2.96875,-3.40625 -2.625,0 -4.03125,2.46875 V 250 h -2.0625 v -15.625 h 1.90625 v 1.59375 q 1.75,-2 4.15625,-2 3.34375,0 4.5,2.46875 1.84375,-2.46875 4.5625,-2.46875 2.46875,0 3.75,1.375 1.3125,1.34375 1.3125,3.90625 V 250 h -2.0625 v -10.75 q 0,-3.40625 -2.96875,-3.40625 -2.65625,0 -4.09375,2.53125 0.0625,0.5625 0.0625,0.875 z"
         id="path241" />
      <path
         d="m 504.26562,250 h -2.0625 v -15.625 h 2.0625 z m -2.0625,-19.71875 q -0.40625,-0.40625 -0.40625,-1 0,-0.59375 0.40625,-1 0.4375,-0.4375 1.03125,-0.4375 0.59375,0 1,0.4375 0.4375,0.40625 0.4375,1 0,0.59375 -0.4375,1 -0.40625,0.40625 -1,0.40625 -0.59375,0 -1.03125,-0.40625 z"
         id="path243" />
      <path
         d="m 516.10937,247.90625 q 0.875,-0.625 0.875,-1.65625 0,-1.03125 -0.84375,-1.71875 -0.8125,-0.71875 -2,-1.15625 -1.1875,-0.4375 -2.40625,-0.96875 -1.1875,-0.53125 -2.03125,-1.53125 -0.8125,-1 -0.8125,-2.46875 0,-2.03125 1.375,-3.21875 1.375,-1.21875 3.6875,-1.21875 3.125,0 4.96875,2.5625 l -1.5625,1.0625 q -1.25,-1.75 -3.40625,-1.75 -1.375,0 -2.1875,0.6875 -0.8125,0.6875 -0.8125,1.875 0,1 0.8125,1.65625 0.84375,0.65625 2.03125,1.09375 1.21875,0.40625 2.40625,0.9375 1.1875,0.5 2,1.5625 0.84375,1.03125 0.84375,2.59375 0,1.90625 -1.4375,3.03125 -1.40625,1.125 -3.78125,1.125 -3.375,0 -5.34375,-2.96875 l 1.5625,-1.0625 q 1.375,2.15625 3.78125,2.15625 1.4375,0 2.28125,-0.625 z"
         id="path245" />
      <path
         d="m 528.42187,250.40625 q -2.9375,0 -4.6875,-2.21875 -1.71875,-2.25 -1.71875,-6 0,-3.75 1.71875,-5.96875 1.75,-2.25 4.6875,-2.25 2.84375,0 4.5,2.0625 1.6875,2.0625 1.6875,5.5 v 1.1875 h -10.53125 q 0.125,2.6875 1.28125,4.25 1.15625,1.5625 3.0625,1.5625 2.53125,0 3.9375,-2.125 l 1.65625,1.09375 q -2,2.90625 -5.59375,2.90625 z m 0,-14.5625 q -1.75,0 -2.90625,1.34375 -1.125,1.3125 -1.375,3.65625 h 8.375 q -0.15625,-2.3125 -1.28125,-3.65625 -1.09375,-1.34375 -2.8125,-1.34375 z"
         id="path247" />
      <path
         d="m 545.35937,247.90625 q 0.875,-0.625 0.875,-1.65625 0,-1.03125 -0.84375,-1.71875 -0.8125,-0.71875 -2,-1.15625 -1.1875,-0.4375 -2.40625,-0.96875 -1.1875,-0.53125 -2.03125,-1.53125 -0.8125,-1 -0.8125,-2.46875 0,-2.03125 1.375,-3.21875 1.375,-1.21875 3.6875,-1.21875 3.125,0 4.96875,2.5625 l -1.5625,1.0625 q -1.25,-1.75 -3.40625,-1.75 -1.375,0 -2.1875,0.6875 -0.8125,0.6875 -0.8125,1.875 0,1 0.8125,1.65625 0.84375,0.65625 2.03125,1.09375 1.21875,0.40625 2.40625,0.9375 1.1875,0.5 2,1.5625 0.84375,1.03125 0.84375,2.59375 0,1.90625 -1.4375,3.03125 -1.40625,1.125 -3.78125,1.125 -3.375,0 -5.34375,-2.96875 l 1.5625,-1.0625 q 1.375,2.15625 3.78125,2.15625 1.4375,0 2.28125,-0.625 z"
         id="path249" />
      <path
         d="m 560.67187,234.375 h 2.125 v -3.125 h 2.0625 v 3.125 h 4 v 1.875 h -4 v 10.3125 q 0,0.90625 0.4375,1.4375 0.46875,0.53125 1.21875,0.53125 1.28125,0 2.09375,-1 l 1.3125,1.125 q -1.21875,1.75 -3.40625,1.75 -1.71875,0 -2.71875,-1.03125 -1,-1.03125 -1,-2.8125 V 236.25 h -2.125 z"
         id="path251" />
      <path
         d="m 572.85937,248.21875 q -1.6875,-2.1875 -1.6875,-6.03125 0,-3.84375 1.6875,-6.03125 1.71875,-2.1875 4.71875,-2.1875 3.03125,0 4.75,2.1875 1.71875,2.1875 1.71875,6.03125 0,3.84375 -1.71875,6.03125 -1.71875,2.1875 -4.75,2.1875 -3,0 -4.71875,-2.1875 z m 1.53125,-10.6875 q -1.15625,1.6875 -1.15625,4.65625 0,2.96875 1.15625,4.65625 1.15625,1.6875 3.1875,1.6875 2.0625,0 3.21875,-1.6875 1.1875,-1.6875 1.1875,-4.65625 0,-2.96875 -1.1875,-4.65625 -1.15625,-1.6875 -3.21875,-1.6875 -2.03125,0 -3.1875,1.6875 z"
         id="path253" />
      <path
         d="m 607.42187,234.375 3.28125,13.6875 3.875,-13.6875 h 2.09375 l -4.5,15.625 h -2.84375 l -2.875,-11.6875 L 603.60937,250 h -2.84375 l -4.5,-15.625 h 2.09375 l 3.875,13.6875 3.28125,-13.6875 z"
         id="path255" />
      <path
         d="m 625.42187,250.40625 q -2.9375,0 -4.6875,-2.21875 -1.71875,-2.25 -1.71875,-6 0,-3.75 1.71875,-5.96875 1.75,-2.25 4.6875,-2.25 2.84375,0 4.5,2.0625 1.6875,2.0625 1.6875,5.5 v 1.1875 h -10.53125 q 0.125,2.6875 1.28125,4.25 1.15625,1.5625 3.0625,1.5625 2.53125,0 3.9375,-2.125 l 1.65625,1.09375 q -2,2.90625 -5.59375,2.90625 z m 0,-14.5625 q -1.75,0 -2.90625,1.34375 -1.125,1.3125 -1.375,3.65625 h 8.375 q -0.15625,-2.3125 -1.28125,-3.65625 -1.09375,-1.34375 -2.8125,-1.34375 z"
         id="path257" />
      <path
         d="m 641.29687,250.40625 q -2.9375,0 -4.6875,-2.21875 -1.71875,-2.25 -1.71875,-6 0,-3.75 1.71875,-5.96875 1.75,-2.25 4.6875,-2.25 2.84375,0 4.5,2.0625 1.6875,2.0625 1.6875,5.5 v 1.1875 h -10.53125 q 0.125,2.6875 1.28125,4.25 1.15625,1.5625 3.0625,1.5625 2.53125,0 3.9375,-2.125 l 1.65625,1.09375 q -2,2.90625 -5.59375,2.90625 z m 0,-14.5625 q -1.75,0 -2.90625,1.34375 -1.125,1.3125 -1.375,3.65625 h 8.375 q -0.15625,-2.3125 -1.28125,-3.65625 -1.09375,-1.34375 -2.8125,-1.34375 z"
         id="path259" />
      <path
         d="m 652.01562,234.40625 h 1.90625 v 1.6875 q 1.84375,-2.09375 4.5,-2.09375 2.75,0 4.34375,2.21875 1.625,2.21875 1.625,6 0,3.78125 -1.71875,6 -1.71875,2.21875 -4.59375,2.21875 -2.34375,0 -4,-1.375 v 7.34375 h -2.0625 z m 2.0625,12 q 1.40625,2.15625 4.03125,2.15625 1.9375,0 3.0625,-1.71875 1.15625,-1.71875 1.15625,-4.625 0,-2.90625 -1.0625,-4.625 -1.03125,-1.71875 -2.8125,-1.71875 -2.75,0 -4.375,2.71875 z"
         id="path261" />
      <path
         d="m 668.29687,250 v -3.28125 h 2.65625 V 250 Z"
         id="path263" />
    </g>
  </g>
</svg>
