<?xml version="1.0" encoding="UTF-8" standalone="no"?>
<svg
   width="800"
   height="350"
   version="1.1"
   id="svg12"
   sodipodi:docname="Surshti_Hindi.svg"
   xmlns:inkscape="http://www.inkscape.org/namespaces/inkscape"
   xmlns:sodipodi="http://sodipodi.sourceforge.net/DTD/sodipodi-0.dtd"
   xmlns="http://www.w3.org/2000/svg"
   xmlns:svg="http://www.w3.org/2000/svg">
  <defs
     id="defs16" />
  <sodipodi:namedview
     id="namedview14"
     pagecolor="#ffffff"
     bordercolor="#000000"
     borderopacity="0.25"
     inkscape:showpageshadow="2"
     inkscape:pageopacity="0.0"
     inkscape:pagecheckerboard="0"
     inkscape:deskcolor="#d1d1d1" />
  <g
     font-family="Lohit Devanagari"
     font-size="32"
     text-anchor="middle"
     fill="#000"
     id="g10">
    <g
       aria-label="सुरुवात ही सुंदर, मनाला भुरळ घालणारी,"
       id="text2">
      <path
         d="m 164.29687,81.0625 v -1.875 h 23 v 1.875 h -3.53125 V 100 h -2.09375 V 90 h -8.875 q -0.84375,0.625 -1.9375,0.625 -0.25,0 -0.5,-0.0625 -0.21875,-0.0625 -0.34375,-0.125 l 6.25,8.71875 -1.65625,1.0625 -9.375,-13.3125 1.6875,-1.25 q 0.65625,1.40625 1.53125,2.25 0.90625,0.84375 1.78125,0.84375 0.875,0 1.46875,-0.59375 0.625,-0.59375 0.625,-1.46875 v -5.625 z m 9.90625,6.875 h 7.46875 v -6.875 h -7.28125 v 5.625 q 0,0.65625 -0.1875,1.25 z"
         id="path18" />
      <path
         d="m 180.60937,108.53125 q -2.25,0 -4.6875,-1.09375 -2.46875,-1.0625 -4.875,-3.0625 l 1.46875,-1.875 q 2.28125,1.90625 4.375,2.90625 2.0625,1.03125 3.71875,1.03125 1.8125,0 3.09375,-0.90625 1.28125,-0.90625 1.28125,-2.1875 0,-1.0625 -0.65625,-1.78125 -0.6875,-0.71875 -1.625,-0.71875 -1,0 -1.875,0.375 -0.875,0.375 -1.46875,1.0625 l -1.4375,-1.4375 q 0.8125,-1 2.0625,-1.53125 1.25,-0.5625 2.71875,-0.5625 1.78125,0 3.09375,1.3125 1.28125,1.34375 1.28125,3.28125 0,2.15625 -1.90625,3.65625 -1.90625,1.53125 -4.5625,1.53125 z"
         id="path20" />
      <path
         d="m 186.45312,81.0625 v -1.875 h 20.78125 v 1.875 h -10.71875 v 4.375 q 0.90625,-0.90625 2.09375,-1.375 1.1875,-0.5 2.46875,-0.5 1.8125,0 3.09375,1.46875 1.28125,1.4375 1.28125,3.53125 0,1.90625 -0.78125,3.59375 -0.75,1.6875 -2.125,2.84375 l -2.09375,-1.25 q 1.34375,-0.78125 2.125,-2.15625 0.8125,-1.40625 0.8125,-3.03125 0,-1.28125 -0.6875,-2.1875 -0.65625,-0.9375 -1.625,-0.9375 -0.8125,0 -1.625,0.4375 -0.8125,0.4375 -1.46875,1.21875 l -1.46875,-0.8125 q 0,1.4375 -0.8125,2.5 -0.78125,1.03125 -1.90625,1.03125 -0.6875,0 -1,-0.03125 -0.3125,-0.0625 -0.4375,-0.1875 l 6.65625,8.9375 -1.65625,1.25 -10,-13.9375 1.65625,-1.03125 q 0.8125,1.34375 1.71875,2.125 0.9375,0.78125 1.8125,0.78125 0.8125,0 1.34375,-0.46875 0.53125,-0.46875 0.53125,-1.1875 v -5 z"
         id="path22" />
      <path
         d="m 206.42187,81.0625 v -1.875 h 17.8125 v 1.875 h -3.5625 V 100 h -2.0625 v -6.65625 q -0.84375,1 -2,1.5625 -1.125,0.53125 -2.375,0.53125 -2.59375,0 -4.4375,-1.65625 -1.8125,-1.65625 -1.8125,-3.96875 0,-2.34375 1.8125,-3.96875 1.84375,-1.65625 4.4375,-1.65625 0.75,0 1.4375,0.21875 0.6875,0.1875 1.28125,0.625 l -1.0625,1.65625 q -0.375,-0.28125 -0.78125,-0.4375 -0.40625,-0.1875 -0.875,-0.1875 -1.71875,0 -2.9375,1.09375 -1.21875,1.09375 -1.21875,2.65625 0,1.4375 1.21875,2.5 1.21875,1.03125 2.9375,1.03125 1.21875,0 2.375,-0.8125 1.15625,-0.84375 2,-2.3125 V 81.0625 Z"
         id="path24" />
      <path
         d="m 223.39062,81.0625 v -1.875 h 9.15625 v 1.875 h -3.5625 V 100 h -2.0625 V 81.0625 Z"
         id="path26" />
      <path
         d="m 233.45312,89.8125 q 0,-2 1.28125,-3.375 1.28125,-1.40625 3.0625,-1.40625 h 8.125 V 81.0625 h -14.21875 v -1.875 h 19.84375 v 1.875 h -3.53125 V 100 h -2.09375 V 87.09375 h -8.125 q -0.9375,0 -1.625,0.8125 -0.65625,0.78125 -0.65625,1.90625 0,2 1.40625,4.28125 1.4375,2.28125 4,4.4375 l -1.25,1.46875 q -2.9375,-2.5 -4.59375,-5.15625 -1.625,-2.65625 -1.625,-5.03125 z"
         id="path28" />
      <path
         d="m 260.57812,81.0625 v -1.875 h 17.3125 v 1.875 h -3.34375 v 5 h -8.53125 q -0.40625,0 -0.71875,0.1875 -0.3125,0.1875 -0.3125,0.4375 0,0.84375 0.625,1.625 0.625,0.78125 1.65625,1.28125 0.65625,-0.28125 1.4375,-0.4375 0.8125,-0.1875 1.6875,-0.1875 2.34375,0 3.96875,1.34375 1.65625,1.3125 1.65625,3.25 0,1.0625 -0.4375,1.96875 -0.4375,0.875 -1.25,1.34375 l -1.65625,-1.4375 q 0.59375,-0.34375 0.90625,-0.84375 0.34375,-0.5 0.34375,-1.03125 0,-1.0625 -1.03125,-1.78125 -1.03125,-0.71875 -2.5,-0.71875 -2.25,0 -3.84375,1.03125 -1.5625,1.03125 -1.5625,2.5 0,1.90625 2.6875,3.25 2.6875,1.3125 6.46875,1.3125 l -0.4375,1.875 q -4.46875,0 -7.65625,-1.875 -3.15625,-1.90625 -3.15625,-4.5625 0,-1.21875 0.59375,-2.28125 0.625,-1.0625 1.6875,-1.6875 -1.0625,-0.90625 -1.6875,-1.9375 -0.59375,-1.03125 -0.59375,-2 0,-1.125 0.90625,-1.90625 0.9375,-0.8125 2.21875,-0.8125 h 6.46875 V 81.0625 Z"
         id="path30" />
      <path
         d="m 277.04687,81.0625 v -1.875 h 3.53125 q -0.53125,-3 -1.96875,-4.9375 -1.40625,-1.9375 -3.03125,-1.9375 -1.21875,0 -2.0625,0.8125 -0.84375,0.78125 -0.84375,1.90625 0,1 0.4375,2 0.4375,0.96875 1.21875,1.75 h -2.28125 q -0.71875,-0.71875 -1.09375,-1.6875 -0.375,-0.96875 -0.375,-2.0625 0,-1.90625 1.46875,-3.21875 1.4375,-1.34375 3.53125,-1.34375 2.40625,0 4.40625,2.46875 2,2.46875 2.65625,6.25 h 3.5625 v 1.875 h -3.5625 V 100 h -2.0625 V 81.0625 Z"
         id="path32" />
      <path
         d="m 295.23437,81.0625 v -1.875 h 23 v 1.875 h -3.53125 V 100 h -2.09375 V 90 h -8.875 q -0.84375,0.625 -1.9375,0.625 -0.25,0 -0.5,-0.0625 -0.21875,-0.0625 -0.34375,-0.125 l 6.25,8.71875 -1.65625,1.0625 -9.375,-13.3125 1.6875,-1.25 q 0.65625,1.40625 1.53125,2.25 0.90625,0.84375 1.78125,0.84375 0.875,0 1.46875,-0.59375 0.625,-0.59375 0.625,-1.46875 v -5.625 z m 9.90625,6.875 h 7.46875 v -6.875 h -7.28125 v 5.625 q 0,0.65625 -0.1875,1.25 z"
         id="path34" />
      <path
         d="m 311.54687,108.53125 q -2.25,0 -4.6875,-1.09375 -2.46875,-1.0625 -4.875,-3.0625 l 1.46875,-1.875 q 2.28125,1.90625 4.375,2.90625 2.0625,1.03125 3.71875,1.03125 1.8125,0 3.09375,-0.90625 1.28125,-0.90625 1.28125,-2.1875 0,-1.0625 -0.65625,-1.78125 -0.6875,-0.71875 -1.625,-0.71875 -1,0 -1.875,0.375 -0.875,0.375 -1.46875,1.0625 l -1.4375,-1.4375 q 0.8125,-1 2.0625,-1.53125 1.25,-0.5625 2.71875,-0.5625 1.78125,0 3.09375,1.3125 1.28125,1.34375 1.28125,3.28125 0,2.15625 -1.90625,3.65625 -1.90625,1.53125 -4.5625,1.53125 z"
         id="path36" />
      <path
         d="M 312.26562,74.03125 V 71.125 h 3.125 v 2.90625 z"
         id="path38" />
      <path
         d="m 317.14062,81.0625 v -1.875 h 18 v 1.875 h -3.3125 v 5.40625 h -8.125 q -1.21875,0 -2.0625,0.875 -0.84375,0.84375 -0.84375,2.03125 0,2.25 2.375,3.84375 2.375,1.59375 5.75,1.59375 0,-1.46875 0.65625,-2.5 0.65625,-1.0625 1.625,-1.0625 0.6875,0 1.15625,0.5 0.5,0.46875 0.5,1.1875 0,0.8125 -0.5,1.65625 -0.5,0.84375 -1.375,1.4375 l 2.28125,3.96875 -1.875,0.84375 -2.28125,-4.1875 q -4.3125,0 -7.375,-2.125 -3.03125,-2.15625 -3.03125,-5.15625 0,-2.0625 1.4375,-3.5 1.46875,-1.46875 3.5625,-1.46875 h 6.03125 V 81.0625 Z"
         id="path40" />
      <path
         d="m 334.29687,81.0625 v -1.875 h 14.46875 v 1.875 h -2.8125 v 4.78125 q 0,1.9375 -1.3125,3.28125 -1.28125,1.3125 -3.0625,1.3125 -0.25,0 -0.6875,-0.09375 -0.40625,-0.125 -1,-0.34375 1.34375,2.34375 3.15625,4.5 1.84375,2.125 4.125,4.03125 L 345.95312,100 q -3.34375,-2.78125 -6.03125,-6.3125 -2.6875,-3.5625 -4.59375,-7.625 l 1.875,-1.03125 q 0.53125,1.5 1.71875,2.40625 1.21875,0.90625 2.65625,0.90625 0.9375,0 1.59375,-0.71875 0.6875,-0.71875 0.6875,-1.78125 V 81.0625 Z"
         id="path42" />
      <path
         d="m 348.85937,104 1.65625,-7.28125 h 3.03125 L 350.42187,104 Z"
         id="path44" />
      <path
         d="m 374.82812,87.9375 h 7.5 v -6.875 h -7.5 z m -5.8125,-6.875 v -1.875 h 18.9375 v 1.875 h -3.5625 V 100 h -2.0625 V 90 h -7.5 v 1.46875 q 0,0.5 -0.1875,0.875 -0.1875,0.375 -0.4375,0.375 -0.71875,0 -2.4375,-1.5625 -1.71875,-1.5625 -1.71875,-2.1875 0,-0.40625 0.3125,-0.71875 0.3125,-0.3125 0.71875,-0.3125 h 1.6875 v -6.875 z"
         id="path46" />
      <path
         d="m 388.14062,87.53125 q 0,-0.4375 0.4375,-0.75 0.4375,-0.3125 1.03125,-0.3125 h 11 V 81.0625 h -13.5 v -1.875 h 19.125 v 1.875 h -3.53125 V 100 h -2.09375 V 88.5625 h -6.03125 q -0.5,0 -0.875,0.25 -0.375,0.25 -0.375,0.5625 v 2.09375 q 0,0.5 -0.3125,0.875 -0.3125,0.375 -0.71875,0.375 -0.71875,0 -2.4375,-2.15625 -1.71875,-2.1875 -1.71875,-3.03125 z"
         id="path48" />
      <path
         d="m 405.39062,81.0625 v -1.875 h 9.15625 v 1.875 h -3.5625 V 100 h -2.0625 V 81.0625 Z"
         id="path50" />
      <path
         d="m 413.70312,81.0625 v -1.875 h 23.53125 v 1.875 h -3.53125 V 100 h -2.0625 V 87.53125 q -1.8125,0 -3.375,1.625 -1.5625,1.59375 -2.25,4.1875 l -1.875,-0.625 q 0.15625,-1 0.5,-1.8125 0.34375,-0.8125 0.75,-1.3125 -0.65625,-1 -1.65625,-1.53125 -1,-0.53125 -2.09375,-0.53125 -1.71875,0 -2.9375,1.21875 -1.21875,1.21875 -1.21875,2.9375 0,1.875 1.875,3.71875 1.90625,1.8125 5,2.9375 l -0.84375,1.875 q -3.65625,-1.34375 -5.90625,-3.6875 -2.21875,-2.34375 -2.21875,-4.84375 0,-2.59375 1.8125,-4.40625 1.84375,-1.84375 4.4375,-1.84375 1.53125,0 2.90625,0.625 1.375,0.59375 2.28125,1.65625 0.9375,-1.0625 2.1875,-1.65625 1.25,-0.625 2.625,-0.625 v -4.375 z"
         id="path52" />
      <path
         d="m 436.42187,81.0625 v -1.875 h 9.15625 v 1.875 h -3.5625 V 100 h -2.0625 V 81.0625 Z"
         id="path54" />
      <path
         d="m 458.73437,89.8125 q 0,-0.34375 0.28125,-0.59375 0.3125,-0.25 0.75,-0.25 h 1.65625 V 82.9375 q 0,-0.875 -0.5625,-1.46875 -0.53125,-0.625 -1.3125,-0.625 -0.78125,0 -1.34375,0.4375 -0.53125,0.4375 -0.53125,1.03125 0,0.71875 0.53125,1.1875 0.5625,0.46875 1.34375,0.46875 v 2.09375 q -1.625,0 -2.78125,-1.09375 -1.15625,-1.125 -1.15625,-2.65625 0,-1.46875 1.15625,-2.5 1.15625,-1.03125 2.78125,-1.03125 1.625,0 2.78125,1.21875 1.1875,1.21875 1.1875,2.9375 v 6.03125 h 6.84375 V 81.0625 h -5.40625 v -1.875 h 11.03125 v 1.875 h -3.53125 V 100 h -2.09375 v -8.9375 h -6.84375 v 1.65625 q 0,0.34375 -0.3125,0.59375 -0.3125,0.25 -0.75,0.25 -0.625,0 -2.1875,-1.5625 -1.53125,-1.5625 -1.53125,-2.1875 z"
         id="path56" />
      <path
         d="m 469.29687,108.53125 q -2.25,0 -4.6875,-1.09375 -2.46875,-1.0625 -4.875,-3.0625 l 1.46875,-1.875 q 2.28125,1.90625 4.375,2.90625 2.0625,1.03125 3.71875,1.03125 1.8125,0 3.09375,-0.90625 1.28125,-0.90625 1.28125,-2.1875 0,-1.0625 -0.65625,-1.78125 -0.6875,-0.71875 -1.625,-0.71875 -1,0 -1.875,0.375 -0.875,0.375 -1.46875,1.0625 l -1.4375,-1.4375 q 0.8125,-1 2.0625,-1.53125 1.25,-0.5625 2.71875,-0.5625 1.78125,0 3.09375,1.3125 1.28125,1.34375 1.28125,3.28125 0,2.15625 -1.90625,3.65625 -1.90625,1.53125 -4.5625,1.53125 z"
         id="path58" />
      <path
         d="m 475.14062,81.0625 v -1.875 h 14.46875 v 1.875 h -2.8125 v 4.78125 q 0,1.9375 -1.3125,3.28125 -1.28125,1.3125 -3.0625,1.3125 -0.25,0 -0.6875,-0.09375 -0.40625,-0.125 -1,-0.34375 1.34375,2.34375 3.15625,4.5 1.84375,2.125 4.125,4.03125 L 486.79687,100 q -3.34375,-2.78125 -6.03125,-6.3125 -2.6875,-3.5625 -4.59375,-7.625 l 1.875,-1.03125 q 0.53125,1.5 1.71875,2.40625 1.21875,0.90625 2.65625,0.90625 0.9375,0 1.59375,-0.71875 0.6875,-0.71875 0.6875,-1.78125 V 81.0625 Z"
         id="path60" />
      <path
         d="m 505.51562,95.84375 q 1.3125,0 2.21875,-1.3125 0.90625,-1.34375 0.90625,-3.28125 0,-1.78125 -0.90625,-3.0625 -0.90625,-1.28125 -2.21875,-1.28125 -1.125,0 -2.1875,1.21875 -1.0625,1.21875 -1.5625,3.125 0.75,2.09375 1.78125,3.34375 1.0625,1.25 1.96875,1.25 z M 496.17187,95.625 q 0.90625,0 1.875,-1.125 1,-1.15625 1.65625,-3.03125 -0.53125,-2.03125 -1.53125,-3.28125 -0.96875,-1.28125 -2,-1.28125 -1.46875,0 -2.5,1.34375 -1.03125,1.3125 -1.03125,3.1875 0,1.75 1.03125,2.96875 1.03125,1.21875 2.5,1.21875 z m -7.40625,-14.5625 v -1.875 h 23.78125 v 1.875 h -6.1875 v 3.96875 q 1.90625,0.3125 3.125,2.09375 1.25,1.75 1.25,4.125 0,2.6875 -1.53125,4.59375 -1.5,1.875 -3.6875,1.875 -1.28125,0 -2.59375,-1.125 -1.3125,-1.125 -2.1875,-3.03125 -0.875,1.90625 -2.125,3.03125 -1.25,1.125 -2.4375,1.125 -2.34375,0 -4,-1.8125 -1.625,-1.84375 -1.625,-4.46875 0,-2.6875 1.625,-4.53125 1.65625,-1.875 4,-1.875 1.4375,0 2.6875,1.03125 1.25,1 1.875,2.6875 0.59375,-1.53125 1.53125,-2.53125 0.9375,-1 2,-1.1875 V 81.0625 Z"
         id="path62" />
      <path
         d="m 530.26562,94.375 q 1.5625,0 3.25,-0.96875 1.6875,-0.96875 3.1875,-2.78125 v -9.5625 h -9.5625 q -0.6875,0.375 -1.09375,1.0625 -0.375,0.6875 -0.375,1.4375 0,1.125 1.03125,1.9375 1.0625,0.78125 2.5,0.78125 h 2.71875 l 0.625,1.84375 h -1.875 q -1.78125,0 -3.09375,0.9375 -1.28125,0.90625 -1.28125,2.1875 0,1.3125 1.15625,2.21875 1.1875,0.90625 2.8125,0.90625 z m -8.65625,-13.3125 v -1.875 h 20.71875 v 1.875 h -3.53125 V 100 h -2.09375 v -6.65625 q -1.5,1.5 -3.1875,2.3125 -1.6875,0.8125 -3.25,0.8125 -2.5,0 -4.28125,-1.5 -1.75,-1.53125 -1.75,-3.71875 0,-1.125 0.59375,-2.125 0.59375,-1 1.6875,-1.59375 -1.34375,-0.46875 -2.125,-1.5625 -0.78125,-1.125 -0.78125,-2.40625 0,-0.625 0.25,-1.25 0.28125,-0.65625 0.78125,-1.25 z"
         id="path64" />
      <path
         d="m 541.48437,81.0625 v -1.875 h 9.15625 v 1.875 h -3.5625 V 100 h -2.0625 V 81.0625 Z"
         id="path66" />
      <path
         d="m 549.79687,81.0625 v -1.875 h 23.53125 v 1.875 h -3.53125 V 100 h -2.0625 V 87.53125 q -1.8125,0 -3.375,1.625 -1.5625,1.59375 -2.25,4.1875 l -1.875,-0.625 q 0.15625,-1 0.5,-1.8125 0.34375,-0.8125 0.75,-1.3125 -0.65625,-1 -1.65625,-1.53125 -1,-0.53125 -2.09375,-0.53125 -1.71875,0 -2.9375,1.21875 -1.21875,1.21875 -1.21875,2.9375 0,1.875 1.875,3.71875 1.90625,1.8125 5,2.9375 l -0.84375,1.875 q -3.65625,-1.34375 -5.90625,-3.6875 -2.21875,-2.34375 -2.21875,-4.84375 0,-2.59375 1.8125,-4.40625 1.84375,-1.84375 4.4375,-1.84375 1.53125,0 2.90625,0.625 1.375,0.59375 2.28125,1.65625 0.9375,-1.0625 2.1875,-1.65625 1.25,-0.625 2.625,-0.625 v -4.375 z"
         id="path68" />
      <path
         d="m 579.92187,92.9375 q 1.125,0 1.90625,-0.90625 0.78125,-0.9375 0.78125,-2.21875 v -8.75 h -5.625 v 8.75 q 0,1.28125 0.84375,2.21875 0.875,0.90625 2.09375,0.90625 z m 0,2.0625 q -2.09375,0 -3.5625,-1.5 -1.4375,-1.53125 -1.4375,-3.6875 v -8.75 h -2.40625 v -1.875 h 21.75 v 1.875 h -3.53125 V 100 h -2.09375 V 81.0625 h -3.9375 v 8.75 q 0,2.15625 -1.4375,3.6875 -1.40625,1.5 -3.34375,1.5 z"
         id="path70" />
      <path
         d="m 593.42187,81.0625 v -1.875 h 9.15625 v 1.875 h -3.5625 V 100 h -2.0625 V 81.0625 Z"
         id="path72" />
      <path
         d="m 601.73437,81.0625 v -1.875 h 14.46875 v 1.875 h -2.8125 v 4.78125 q 0,1.9375 -1.3125,3.28125 -1.28125,1.3125 -3.0625,1.3125 -0.25,0 -0.6875,-0.09375 -0.40625,-0.125 -1,-0.34375 1.34375,2.34375 3.15625,4.5 1.84375,2.125 4.125,4.03125 L 613.39062,100 q -3.34375,-2.78125 -6.03125,-6.3125 -2.6875,-3.5625 -4.59375,-7.625 l 1.875,-1.03125 q 0.53125,1.5 1.71875,2.40625 1.21875,0.90625 2.65625,0.90625 0.9375,0 1.59375,-0.71875 0.6875,-0.71875 0.6875,-1.78125 V 81.0625 Z"
         id="path74" />
      <path
         d="m 615.35937,81.0625 v -1.875 h 3.53125 q -0.53125,-3 -1.96875,-4.9375 -1.40625,-1.9375 -3.03125,-1.9375 -1.21875,0 -2.0625,0.8125 -0.84375,0.78125 -0.84375,1.90625 0,1 0.4375,2 0.4375,0.96875 1.21875,1.75 h -2.28125 q -0.71875,-0.71875 -1.09375,-1.6875 -0.375,-0.96875 -0.375,-2.0625 0,-1.90625 1.46875,-3.21875 1.4375,-1.34375 3.53125,-1.34375 2.40625,0 4.40625,2.46875 2,2.46875 2.65625,6.25 h 3.5625 v 1.875 h -3.5625 V 100 h -2.0625 V 81.0625 Z"
         id="path76" />
      <path
         d="m 624.60937,104 1.65625,-7.28125 h 3.03125 L 626.17187,104 Z"
         id="path78" />
    </g>
    <g
       aria-label="हिंदीची गोडी, शब्दांची आकर्षणारी."
       id="text4">
      <path
         d="m 224.90625,123.78125 v -3.125 h 3.125 v 3.125 z m -20.375,7.28125 v -1.875 h 3.53125 q -0.28125,-0.375 -0.46875,-1.0625 -0.15625,-0.6875 -0.15625,-1.625 0,-2.5 1.9375,-4.25 1.96875,-1.78125 4.71875,-1.78125 3.28125,0 6.4375,2.21875 3.1875,2.21875 5.40625,6.09375 h -2.28125 q -1.75,-3 -4.3125,-4.71875 -2.53125,-1.75 -5.25,-1.75 -1.90625,0 -3.25,1.25 Q 209.5,124.78125 209.5,126.5 q 0,0.9375 0.15625,1.625 0.1875,0.6875 0.46875,1.0625 h 3.5625 v 1.875 H 210.125 V 150 h -2.0625 v -18.9375 z"
         id="path81" />
      <path
         d="m 212.84375,131.0625 v -1.875 h 17.3125 v 1.875 h -3.34375 v 5 h -8.53125 q -0.40625,0 -0.71875,0.1875 -0.3125,0.1875 -0.3125,0.4375 0,0.84375 0.625,1.625 0.625,0.78125 1.65625,1.28125 0.65625,-0.28125 1.4375,-0.4375 0.8125,-0.1875 1.6875,-0.1875 2.34375,0 3.96875,1.34375 1.65625,1.3125 1.65625,3.25 0,1.0625 -0.4375,1.96875 -0.4375,0.875 -1.25,1.34375 l -1.65625,-1.4375 q 0.59375,-0.34375 0.90625,-0.84375 0.34375,-0.5 0.34375,-1.03125 0,-1.0625 -1.03125,-1.78125 -1.03125,-0.71875 -2.5,-0.71875 -2.25,0 -3.84375,1.03125 -1.5625,1.03125 -1.5625,2.5 0,1.90625 2.6875,3.25 2.6875,1.3125 6.46875,1.3125 l -0.4375,1.875 q -4.46875,0 -7.65625,-1.875 -3.15625,-1.90625 -3.15625,-4.5625 0,-1.21875 0.59375,-2.28125 0.625,-1.0625 1.6875,-1.6875 -1.0625,-0.90625 -1.6875,-1.9375 -0.59375,-1.03125 -0.59375,-2 0,-1.125 0.90625,-1.90625 0.9375,-0.8125 2.21875,-0.8125 H 224.75 v -2.90625 z"
         id="path83" />
      <path
         d="m 229.0625,131.0625 v -1.875 h 18 v 1.875 H 243.75 v 5.40625 h -8.125 q -1.21875,0 -2.0625,0.875 -0.84375,0.84375 -0.84375,2.03125 0,2.25 2.375,3.84375 2.375,1.59375 5.75,1.59375 0,-1.46875 0.65625,-2.5 0.65625,-1.0625 1.625,-1.0625 0.6875,0 1.15625,0.5 0.5,0.46875 0.5,1.1875 0,0.8125 -0.5,1.65625 -0.5,0.84375 -1.375,1.4375 L 245.1875,150 l -1.875,0.84375 -2.28125,-4.1875 q -4.3125,0 -7.375,-2.125 -3.03125,-2.15625 -3.03125,-5.15625 0,-2.0625 1.4375,-3.5 1.46875,-1.46875 3.5625,-1.46875 h 6.03125 v -3.34375 z"
         id="path85" />
      <path
         d="m 246.21875,131.0625 v -1.875 H 249.75 q -0.53125,-3 -1.96875,-4.9375 -1.40625,-1.9375 -3.03125,-1.9375 -1.21875,0 -2.0625,0.8125 -0.84375,0.78125 -0.84375,1.90625 0,1 0.4375,2 0.4375,0.96875 1.21875,1.75 h -2.28125 q -0.71875,-0.71875 -1.09375,-1.6875 -0.375,-0.96875 -0.375,-2.0625 0,-1.90625 1.46875,-3.21875 1.4375,-1.34375 3.53125,-1.34375 2.40625,0 4.40625,2.46875 2,2.46875 2.65625,6.25 h 3.5625 v 1.875 h -3.5625 V 150 H 249.75 v -18.9375 z"
         id="path87" />
      <path
         d="m 254.53125,131.0625 v -1.875 h 20.75 v 1.875 H 271.75 V 150 h -2.09375 v -7.5 q -1.25,1.75 -2.71875,2.75 -1.46875,1 -2.875,1 -2.09375,0 -3.5625,-1.4375 -1.4375,-1.46875 -1.4375,-3.5625 0,-1.5 0.59375,-2.71875 0.59375,-1.21875 1.6875,-1.84375 h -6.03125 v -2.09375 h 12.28125 v 2.09375 h -2.90625 q -1.59375,0.59375 -2.59375,1.84375 -0.96875,1.21875 -0.96875,2.71875 0,1.21875 0.84375,2.09375 0.875,0.84375 2.09375,0.84375 1.3125,0 2.8125,-1.28125 1.5,-1.3125 2.78125,-3.53125 v -8.3125 z"
         id="path89" />
      <path
         d="m 274.4375,131.0625 v -1.875 h 3.53125 q -0.53125,-3 -1.96875,-4.9375 -1.40625,-1.9375 -3.03125,-1.9375 -1.21875,0 -2.0625,0.8125 -0.84375,0.78125 -0.84375,1.90625 0,1 0.4375,2 0.4375,0.96875 1.21875,1.75 h -2.28125 q -0.71875,-0.71875 -1.09375,-1.6875 -0.375,-0.96875 -0.375,-2.0625 0,-1.90625 1.46875,-3.21875 1.4375,-1.34375 3.53125,-1.34375 2.40625,0 4.40625,2.46875 2,2.46875 2.65625,6.25 h 3.5625 v 1.875 h -3.5625 V 150 h -2.0625 v -18.9375 z"
         id="path91" />
      <path
         d="m 292.625,131.0625 v -1.875 h 17 v 1.875 h -3.53125 V 150 h -2.0625 V 131.0625 H 298.8125 V 141.25 q 0,0.5 -0.3125,0.875 -0.3125,0.375 -0.71875,0.375 -0.78125,0 -2.46875,-1.9375 -1.6875,-1.96875 -1.6875,-2.84375 0,-0.3125 0.25,-0.5625 0.25,-0.25 0.5625,-0.25 h 1.46875 q 0.34375,0 0.59375,-0.3125 0.25,-0.3125 0.25,-0.75 v -4.78125 z"
         id="path93" />
      <path
         d="m 308.78125,131.0625 v -1.875 h 3.375 l -7.53125,-9.15625 1.4375,-1.25 8.15625,10.40625 h 3.71875 v 1.875 H 314.375 V 150 h -2.0625 v -18.9375 z"
         id="path95" />
      <path
         d="m 329.53125,149.59375 q -3.28125,0 -6.40625,-2.46875 -3.09375,-2.5 -5.03125,-6.6875 L 319.75,139.375 q 1.75,3.71875 4.375,5.9375 2.65625,2.1875 5.40625,2.1875 1.6875,0 2.90625,-1.28125 1.25,-1.28125 1.25,-3.09375 0,-0.5 -0.3125,-0.875 -0.3125,-0.375 -0.71875,-0.375 -0.6875,0 -1.90625,0.4375 -1.1875,0.40625 -1.84375,0.40625 -1.59375,0 -3.5,-2 -1.90625,-2 -1.90625,-3.625 0,-1.125 0.78125,-1.90625 0.78125,-0.78125 1.90625,-0.78125 h 5.625 v -3.34375 h -14.71875 v -1.875 H 337.625 v 1.875 h -3.71875 v 5.40625 h -7.71875 q -0.25,0 -0.4375,0.1875 -0.1875,0.1875 -0.1875,0.4375 0,0.875 1.25,2.21875 1.25,1.3125 2.09375,1.3125 0.65625,0 1.84375,-0.40625 1.21875,-0.40625 1.90625,-0.40625 1.28125,0 2.1875,0.96875 0.9375,0.96875 0.9375,2.34375 0,2.6875 -1.84375,4.59375 -1.84375,1.875 -4.40625,1.875 z"
         id="path97" />
      <path
         d="m 336.8125,131.0625 v -1.875 h 3.53125 q -0.53125,-3 -1.96875,-4.9375 -1.40625,-1.9375 -3.03125,-1.9375 -1.21875,0 -2.0625,0.8125 -0.84375,0.78125 -0.84375,1.90625 0,1 0.4375,2 0.4375,0.96875 1.21875,1.75 h -2.28125 q -0.71875,-0.71875 -1.09375,-1.6875 -0.375,-0.96875 -0.375,-2.0625 0,-1.90625 1.46875,-3.21875 1.4375,-1.34375 3.53125,-1.34375 2.40625,0 4.40625,2.46875 2,2.46875 2.65625,6.25 h 3.5625 v 1.875 h -3.5625 V 150 h -2.0625 v -18.9375 z"
         id="path99" />
      <path
         d="m 346.0625,154 1.65625,-7.28125 H 350.75 L 347.625,154 Z"
         id="path101" />
      <path
         d="m 378.40625,131.0625 v -1.875 h 9.78125 v 1.875 h -3.53125 V 150 h -2.09375 v -18.9375 z m -5.625,4.78125 q 1.03125,0 1.9375,-0.625 0.90625,-0.625 1.40625,-1.65625 -0.46875,-1.21875 -1.28125,-1.96875 -0.78125,-0.75 -1.65625,-0.75 -1.03125,0 -1.78125,0.8125 -0.71875,0.78125 -0.71875,1.90625 0,0.96875 0.59375,1.625 0.625,0.65625 1.5,0.65625 z M 376.9375,150 367.59375,142.09375 368.625,140.625 q 0.90625,0.75 1.4375,1.125 0.53125,0.34375 0.84375,0.34375 2.34375,0 3.96875,-1.8125 1.65625,-1.84375 1.65625,-4.4375 -0.53125,0.96875 -1.5625,1.53125 -1.03125,0.5625 -2.1875,0.5625 -1.71875,0 -2.9375,-1.28125 -1.21875,-1.3125 -1.21875,-3.09375 0,-2 1.3125,-3.375 1.34375,-1.40625 3.25,-1.40625 2.25,0 3.84375,2.09375 1.59375,2.0625 1.59375,4.96875 0,3.21875 -1.90625,5.46875 -1.90625,2.25 -4.5625,2.25 l 6.03125,4.96875 z"
         id="path103" />
      <path
         d="m 387.34375,131.0625 v -1.875 H 399.625 v 1.875 z m 7.46875,12.90625 q 0.9375,0 1.75,-0.3125 0.8125,-0.34375 1.375,-0.9375 l -6.21875,-4.59375 q -0.3125,0.375 -0.46875,0.90625 -0.15625,0.53125 -0.15625,1.1875 0,1.53125 1.09375,2.65625 1.09375,1.09375 2.625,1.09375 z m 0,2.0625 q -2.40625,0 -4.125,-1.6875 Q 389,142.625 389,140.21875 q 0,-2.5625 1.8125,-4.40625 1.84375,-1.84375 4.4375,-1.84375 0.5625,0 1.09375,0.125 0.53125,0.0937 0.96875,0.3125 v 2.0625 q -0.28125,-0.1875 -0.84375,-0.28125 -0.53125,-0.125 -1.21875,-0.125 -0.75,0 -1.375,0.21875 -0.625,0.1875 -1.125,0.625 l 6.4375,4.78125 0.84375,-1.0625 v 2.71875 q -0.875,1.28125 -2.28125,2 -1.375,0.6875 -2.9375,0.6875 z"
         id="path105" />
      <path
         d="m 398.53125,131.0625 v -1.875 h 18 v 1.875 h -3.3125 v 5.40625 h -8.125 q -1.21875,0 -2.0625,0.875 -0.84375,0.84375 -0.84375,2.03125 0,2.25 2.375,3.84375 2.375,1.59375 5.75,1.59375 0,-1.46875 0.65625,-2.5 0.65625,-1.0625 1.625,-1.0625 0.6875,0 1.15625,0.5 0.5,0.46875 0.5,1.1875 0,0.8125 -0.5,1.65625 -0.5,0.84375 -1.375,1.4375 l 2.28125,3.96875 -1.875,0.84375 -2.28125,-4.1875 q -4.3125,0 -7.375,-2.125 -3.03125,-2.15625 -3.03125,-5.15625 0,-2.0625 1.4375,-3.5 1.46875,-1.46875 3.5625,-1.46875 h 6.03125 v -3.34375 z"
         id="path107" />
      <path
         d="m 415.6875,131.0625 v -1.875 h 9.15625 v 1.875 h -3.5625 V 150 h -2.0625 v -18.9375 z"
         id="path109" />
      <path
         d="m 418.875,124 v -2.90625 H 422 V 124 Z"
         id="path111" />
      <path
         d="m 424,131.0625 v -1.875 h 20.75 v 1.875 h -3.53125 V 150 H 439.125 v -7.5 q -1.25,1.75 -2.71875,2.75 -1.46875,1 -2.875,1 -2.09375,0 -3.5625,-1.4375 -1.4375,-1.46875 -1.4375,-3.5625 0,-1.5 0.59375,-2.71875 0.59375,-1.21875 1.6875,-1.84375 h -6.03125 v -2.09375 h 12.28125 v 2.09375 h -2.90625 q -1.59375,0.59375 -2.59375,1.84375 -0.96875,1.21875 -0.96875,2.71875 0,1.21875 0.84375,2.09375 0.875,0.84375 2.09375,0.84375 1.3125,0 2.8125,-1.28125 1.5,-1.3125 2.78125,-3.53125 v -8.3125 z"
         id="path113" />
      <path
         d="m 443.90625,131.0625 v -1.875 h 3.53125 q -0.53125,-3 -1.96875,-4.9375 -1.40625,-1.9375 -3.03125,-1.9375 -1.21875,0 -2.0625,0.8125 -0.84375,0.78125 -0.84375,1.90625 0,1 0.4375,2 0.4375,0.96875 1.21875,1.75 h -2.28125 q -0.71875,-0.71875 -1.09375,-1.6875 -0.375,-0.96875 -0.375,-2.0625 0,-1.90625 1.46875,-3.21875 1.4375,-1.34375 3.53125,-1.34375 2.40625,0 4.40625,2.46875 2,2.46875 2.65625,6.25 h 3.5625 v 1.875 H 449.5 V 150 h -2.0625 v -18.9375 z"
         id="path115" />
      <path
         d="m 472.1875,148.53125 q -2.5,0 -4.84375,-2.0625 Q 465,144.375 463.25,140.625 l 1.46875,-1.25 q 1.5625,3.375 3.5,5.25 1.96875,1.84375 3.96875,1.84375 1.3125,0 2.21875,-1.09375 0.90625,-1.125 0.90625,-2.65625 0,-1.46875 -1.03125,-2.5 -1.03125,-1.03125 -2.5,-1.03125 -0.46875,0 -1,0.0937 -0.5,0.0937 -1.09375,0.3125 l -0.8125,-1.875 q 1.875,-0.15625 3.3125,-1.34375 1.46875,-1.21875 1.46875,-2.59375 0,-1.125 -0.875,-1.90625 -0.84375,-0.8125 -2.03125,-0.8125 -1,0 -2.21875,0.78125 -1.21875,0.75 -2.375,2.125 l -1.4375,-1.4375 q 1.0625,-1.59375 2.65625,-2.46875 1.625,-0.875 3.375,-0.875 2.0625,0 3.5,1.34375 1.46875,1.3125 1.46875,3.25 0,1.125 -0.5,2.15625 -0.5,1.03125 -1.34375,1.78125 1.40625,0.84375 2.78125,1.25 1.375,0.40625 2.625,0.40625 0.3125,0 0.84375,-0.1875 0.53125,-0.21875 1.21875,-0.625 v -7.5 h -3.75 v -1.875 H 495.5 v 1.875 h -3.53125 V 150 H 489.875 v -18.9375 h -6.4375 V 150 h -2.09375 v -9.375 q -0.5,0.4375 -1.03125,0.65625 -0.5,0.1875 -1.03125,0.1875 -0.875,0 -1.59375,-0.15625 -0.71875,-0.1875 -1.125,-0.46875 0.40625,0.34375 0.625,0.9375 0.21875,0.59375 0.21875,1.34375 0,2.25 -1.53125,3.84375 -1.5,1.5625 -3.6875,1.5625 z"
         id="path117" />
      <path
         d="m 494.65625,131.0625 v -1.875 h 24.25 v 1.875 h -11 v 5.625 q 0.6875,-1.15625 1.84375,-1.8125 1.15625,-0.6875 2.53125,-0.6875 2,0 3.375,1.65625 1.40625,1.625 1.40625,3.96875 0,2 -1.03125,3.96875 -1.03125,1.9375 -2.90625,3.5 l -1.875,-1.25 q 1.75,-1.21875 2.75,-2.875 1,-1.65625 1,-3.34375 0,-1.46875 -0.8125,-2.5 -0.78125,-1.03125 -1.90625,-1.03125 -1.4375,0 -2.6875,1.09375 -1.21875,1.09375 -1.6875,2.84375 V 150 h -2.0625 v -6.25 q -0.75,0.875 -1.84375,1.375 -1.0625,0.5 -2.3125,0.5 -2.25,0 -3.84375,-1.5625 -1.5625,-1.59375 -1.5625,-3.84375 0,-2.5 1.8125,-4.25 1.84375,-1.78125 4.40625,-1.78125 0.75,0 1.28125,0.125 0.5625,0.0937 0.8125,0.28125 l -0.40625,2.09375 q -0.375,-0.21875 -0.8125,-0.3125 -0.40625,-0.0937 -0.875,-0.0937 -1.6875,0 -2.9375,1.15625 -1.21875,1.15625 -1.21875,2.78125 0,1.375 0.96875,2.375 1,0.96875 2.375,0.96875 1.1875,0 2.3125,-0.71875 1.125,-0.75 1.84375,-2 v -9.78125 z"
         id="path119" />
      <path
         d="m 530,137.9375 v -6.875 h -7.28125 z m -4.375,3.75 q 1.28125,0 2.40625,-0.375 1.125,-0.375 1.96875,-1.09375 l -7.6875,-7.0625 v 5.1875 q 0,1.375 0.96875,2.375 0.96875,0.96875 2.34375,0.96875 z m -7.5625,-10.625 v -1.875 h 17.5625 v 1.875 h -3.5625 V 150 H 530 v -7.5 q -0.875,0.625 -2,0.9375 -1.125,0.3125 -2.375,0.3125 -2.25,0 -3.84375,-1.5625 -1.5625,-1.59375 -1.5625,-3.84375 v -7.28125 z"
         id="path121" />
      <path
         d="m 529.3125,129.125 q -1.0625,-0.90625 -1.65625,-1.96875 -0.625,-1.09375 -0.625,-2.1875 0,-1.90625 1.46875,-3.21875 1.4375,-1.34375 3.53125,-1.34375 0.5625,0 1.125,0.0937 0.5625,0.0937 1.15625,0.3125 v 1.875 q -0.875,-0.34375 -1.4375,-0.46875 -0.5625,-0.15625 -0.84375,-0.15625 -1.21875,0 -2.0625,0.84375 -0.84375,0.84375 -0.84375,2.0625 0,1.15625 0.78125,2.28125 0.78125,1.09375 2.125,1.875 z"
         id="path123" />
      <path
         d="m 542.1875,142.9375 q 1.125,0 1.90625,-0.90625 0.78125,-0.9375 0.78125,-2.21875 v -8.75 h -5.625 v 8.75 q 0,1.28125 0.84375,2.21875 0.875,0.90625 2.09375,0.90625 z m 0,2.0625 q -2.09375,0 -3.5625,-1.5 -1.4375,-1.53125 -1.4375,-3.6875 v -8.75 h -2.40625 v -1.875 h 21.75 v 1.875 H 553 V 150 h -2.09375 v -18.9375 h -3.9375 v 8.75 q 0,2.15625 -1.4375,3.6875 -1.40625,1.5 -3.34375,1.5 z"
         id="path125" />
      <path
         d="m 555.6875,131.0625 v -1.875 h 9.15625 v 1.875 h -3.5625 V 150 h -2.0625 v -18.9375 z"
         id="path127" />
      <path
         d="m 564,131.0625 v -1.875 h 14.46875 v 1.875 h -2.8125 v 4.78125 q 0,1.9375 -1.3125,3.28125 -1.28125,1.3125 -3.0625,1.3125 -0.25,0 -0.6875,-0.0937 -0.40625,-0.125 -1,-0.34375 1.34375,2.34375 3.15625,4.5 1.84375,2.125 4.125,4.03125 L 575.65625,150 q -3.34375,-2.78125 -6.03125,-6.3125 -2.6875,-3.5625 -4.59375,-7.625 l 1.875,-1.03125 q 0.53125,1.5 1.71875,2.40625 1.21875,0.90625 2.65625,0.90625 0.9375,0 1.59375,-0.71875 0.6875,-0.71875 0.6875,-1.78125 v -4.78125 z"
         id="path129" />
      <path
         d="m 577.625,131.0625 v -1.875 h 3.53125 q -0.53125,-3 -1.96875,-4.9375 -1.40625,-1.9375 -3.03125,-1.9375 -1.21875,0 -2.0625,0.8125 -0.84375,0.78125 -0.84375,1.90625 0,1 0.4375,2 0.4375,0.96875 1.21875,1.75 H 572.625 q -0.71875,-0.71875 -1.09375,-1.6875 -0.375,-0.96875 -0.375,-2.0625 0,-1.90625 1.46875,-3.21875 1.4375,-1.34375 3.53125,-1.34375 2.40625,0 4.40625,2.46875 2,2.46875 2.65625,6.25 h 3.5625 v 1.875 h -3.5625 V 150 h -2.0625 v -18.9375 z"
         id="path131" />
      <path
         d="m 588.6875,150 v -3.28125 h 2.65625 V 150 Z"
         id="path133" />
    </g>
    <g
       aria-label="भाषा दोन्ही जिव्हाळ्या, जपाव्यात हर्षाने,"
       id="text6">
      <path
         d="m 175.42187,189.8125 q 0,-0.34375 0.28125,-0.59375 0.3125,-0.25 0.75,-0.25 h 1.65625 v -6.03125 q 0,-0.875 -0.5625,-1.46875 -0.53125,-0.625 -1.3125,-0.625 -0.78125,0 -1.34375,0.4375 -0.53125,0.4375 -0.53125,1.03125 0,0.71875 0.53125,1.1875 0.5625,0.46875 1.34375,0.46875 v 2.09375 q -1.625,0 -2.78125,-1.09375 -1.15625,-1.125 -1.15625,-2.65625 0,-1.46875 1.15625,-2.5 1.15625,-1.03125 2.78125,-1.03125 1.625,0 2.78125,1.21875 1.1875,1.21875 1.1875,2.9375 v 6.03125 h 6.84375 v -7.90625 h -5.40625 v -1.875 h 11.03125 v 1.875 h -3.53125 V 200 h -2.09375 v -8.9375 h -6.84375 v 1.65625 q 0,0.34375 -0.3125,0.59375 -0.3125,0.25 -0.75,0.25 -0.625,0 -2.1875,-1.5625 -1.53125,-1.5625 -1.53125,-2.1875 z"
         id="path136" />
      <path
         d="m 191.82812,181.0625 v -1.875 h 9.15625 v 1.875 h -3.5625 V 200 h -2.0625 v -18.9375 z"
         id="path138" />
      <path
         d="m 212.07812,187.9375 v -6.875 h -7.28125 z m -4.375,3.75 q 1.28125,0 2.40625,-0.375 1.125,-0.375 1.96875,-1.09375 l -7.6875,-7.0625 v 5.1875 q 0,1.375 0.96875,2.375 0.96875,0.96875 2.34375,0.96875 z m -7.5625,-10.625 v -1.875 h 17.5625 v 1.875 h -3.5625 V 200 h -2.0625 v -7.5 q -0.875,0.625 -2,0.9375 -1.125,0.3125 -2.375,0.3125 -2.25,0 -3.84375,-1.5625 -1.5625,-1.59375 -1.5625,-3.84375 v -7.28125 z"
         id="path140" />
      <path
         d="m 216.85937,181.0625 v -1.875 h 9.15625 v 1.875 h -3.5625 V 200 h -2.0625 v -18.9375 z"
         id="path142" />
      <path
         d="m 234.79687,181.0625 v -1.875 h 18 v 1.875 h -3.3125 v 5.40625 h -8.125 q -1.21875,0 -2.0625,0.875 -0.84375,0.84375 -0.84375,2.03125 0,2.25 2.375,3.84375 2.375,1.59375 5.75,1.59375 0,-1.46875 0.65625,-2.5 0.65625,-1.0625 1.625,-1.0625 0.6875,0 1.15625,0.5 0.5,0.46875 0.5,1.1875 0,0.8125 -0.5,1.65625 -0.5,0.84375 -1.375,1.4375 l 2.28125,3.96875 -1.875,0.84375 -2.28125,-4.1875 q -4.3125,0 -7.375,-2.125 -3.03125,-2.15625 -3.03125,-5.15625 0,-2.0625 1.4375,-3.5 1.46875,-1.46875 3.5625,-1.46875 h 6.03125 v -3.34375 z"
         id="path144" />
      <path
         d="m 251.95312,181.0625 v -1.875 h 3.375 l -7.53125,-9.15625 1.4375,-1.25 8.15625,10.40625 h 3.71875 v 1.875 h -3.5625 V 200 h -2.0625 v -18.9375 z"
         id="path146" />
      <path
         d="m 260.26562,181.0625 v -1.875 h 13.125 v 1.875 z m 5.03125,11.65625 q -0.84375,0 -2.40625,-2.0625 -1.5625,-2.0625 -1.5625,-3.125 0,-0.4375 0.4375,-0.75 0.4375,-0.3125 1.03125,-0.3125 h 11.03125 v 1.875 h -6.46875 q -0.5,0 -0.875,0.25 -0.375,0.25 -0.375,0.59375 v 2.28125 q 0,0.5 -0.25,0.875 -0.25,0.375 -0.5625,0.375 z"
         id="path148" />
      <path
         d="m 272.57812,181.0625 v -1.875 h 17.3125 v 1.875 h -3.34375 v 5 h -8.53125 q -0.40625,0 -0.71875,0.1875 -0.3125,0.1875 -0.3125,0.4375 0,0.84375 0.625,1.625 0.625,0.78125 1.65625,1.28125 0.65625,-0.28125 1.4375,-0.4375 0.8125,-0.1875 1.6875,-0.1875 2.34375,0 3.96875,1.34375 1.65625,1.3125 1.65625,3.25 0,1.0625 -0.4375,1.96875 -0.4375,0.875 -1.25,1.34375 l -1.65625,-1.4375 q 0.59375,-0.34375 0.90625,-0.84375 0.34375,-0.5 0.34375,-1.03125 0,-1.0625 -1.03125,-1.78125 -1.03125,-0.71875 -2.5,-0.71875 -2.25,0 -3.84375,1.03125 -1.5625,1.03125 -1.5625,2.5 0,1.90625 2.6875,3.25 2.6875,1.3125 6.46875,1.3125 l -0.4375,1.875 q -4.46875,0 -7.65625,-1.875 -3.15625,-1.90625 -3.15625,-4.5625 0,-1.21875 0.59375,-2.28125 0.625,-1.0625 1.6875,-1.6875 -1.0625,-0.90625 -1.6875,-1.9375 -0.59375,-1.03125 -0.59375,-2 0,-1.125 0.90625,-1.90625 0.9375,-0.8125 2.21875,-0.8125 h 6.46875 v -2.90625 z"
         id="path150" />
      <path
         d="m 289.04687,181.0625 v -1.875 h 3.53125 q -0.53125,-3 -1.96875,-4.9375 -1.40625,-1.9375 -3.03125,-1.9375 -1.21875,0 -2.0625,0.8125 -0.84375,0.78125 -0.84375,1.90625 0,1 0.4375,2 0.4375,0.96875 1.21875,1.75 h -2.28125 q -0.71875,-0.71875 -1.09375,-1.6875 -0.375,-0.96875 -0.375,-2.0625 0,-1.90625 1.46875,-3.21875 1.4375,-1.34375 3.53125,-1.34375 2.40625,0 4.40625,2.46875 2,2.46875 2.65625,6.25 h 3.5625 v 1.875 h -3.5625 V 200 h -2.0625 v -18.9375 z"
         id="path152" />
      <path
         d="m 307.23437,181.0625 v -1.875 h 3.53125 q -0.28125,-0.375 -0.46875,-0.84375 -0.15625,-0.46875 -0.15625,-1.03125 0,-2.8125 2.34375,-4.8125 2.34375,-2.03125 7.4375,-2.03125 2.90625,0 6.71875,1.875 3.84375,1.875 8.96875,6.90625 h -2.5 q -4.84375,-4.65625 -8.28125,-5.875 -2.9375,-1.0625 -4.59375,-1.0625 -4.21875,0 -6.125,1.46875 -1.90625,1.46875 -1.90625,3.53125 0,0.5625 0.15625,1.03125 0.1875,0.46875 0.46875,0.84375 h 3.5625 v 1.875 h -3.5625 V 200 h -2.0625 v -18.9375 z"
         id="path154" />
      <path
         d="m 325.60937,197.5 q -2.25,0 -4.6875,-3 -2.4375,-3.03125 -4.25,-8.03125 l 1.875,-0.8125 q 1.59375,4.4375 3.53125,7.125 1.9375,2.65625 3.53125,2.65625 1.03125,0 1.75,-0.78125 0.75,-0.8125 0.75,-1.9375 0,-1.78125 -0.9375,-3.65625 -0.90625,-1.90625 -2.59375,-3.625 h 8.9375 v -4.375 h -17.96875 v -1.875 h 23.59375 v 1.875 h -3.53125 V 200 h -2.09375 v -12.46875 h -5 q 0.84375,1.15625 1.25,2.5 0.40625,1.3125 0.40625,2.6875 0,2 -1.34375,3.40625 -1.3125,1.375 -3.21875,1.375 z"
         id="path156" />
      <path
         d="m 338.29687,181.0625 v -1.875 h 11.65625 v 1.875 z m 7.46875,14.375 q -2.40625,0 -4.125,-1.71875 -1.6875,-1.75 -1.6875,-4.15625 0,-2.40625 1.6875,-4.09375 1.71875,-1.6875 4.125,-1.6875 0.9375,0 1.78125,0.21875 0.84375,0.1875 1.5625,0.59375 l -0.84375,1.875 q -0.40625,-0.28125 -1.0625,-0.4375 -0.625,-0.1875 -1.4375,-0.1875 -1.53125,0 -2.625,1.09375 -1.09375,1.0625 -1.09375,2.625 0,1.65625 1.09375,2.84375 1.09375,1.15625 2.625,1.15625 1,0 2.21875,-0.78125 1.21875,-0.78125 2.375,-2.15625 v 2.71875 q -1,1 -2.1875,1.5625 -1.1875,0.53125 -2.40625,0.53125 z"
         id="path158" />
      <path
         d="m 349.10937,181.0625 v -1.875 h 17.3125 v 1.875 h -3.34375 v 5 h -8.53125 q -0.40625,0 -0.71875,0.1875 -0.3125,0.1875 -0.3125,0.4375 0,0.84375 0.625,1.625 0.625,0.78125 1.65625,1.28125 0.65625,-0.28125 1.4375,-0.4375 0.8125,-0.1875 1.6875,-0.1875 2.34375,0 3.96875,1.34375 1.65625,1.3125 1.65625,3.25 0,1.0625 -0.4375,1.96875 -0.4375,0.875 -1.25,1.34375 l -1.65625,-1.4375 q 0.59375,-0.34375 0.90625,-0.84375 0.34375,-0.5 0.34375,-1.03125 0,-1.0625 -1.03125,-1.78125 -1.03125,-0.71875 -2.5,-0.71875 -2.25,0 -3.84375,1.03125 -1.5625,1.03125 -1.5625,2.5 0,1.90625 2.6875,3.25 2.6875,1.3125 6.46875,1.3125 l -0.4375,1.875 q -4.46875,0 -7.65625,-1.875 -3.15625,-1.90625 -3.15625,-4.5625 0,-1.21875 0.59375,-2.28125 0.625,-1.0625 1.6875,-1.6875 -1.0625,-0.90625 -1.6875,-1.9375 -0.59375,-1.03125 -0.59375,-2 0,-1.125 0.90625,-1.90625 0.9375,-0.8125 2.21875,-0.8125 h 6.46875 v -2.90625 z"
         id="path160" />
      <path
         d="m 365.57812,181.0625 v -1.875 h 9.15625 v 1.875 h -3.5625 V 200 h -2.0625 v -18.9375 z"
         id="path162" />
      <path
         d="m 373.89062,181.0625 v -1.875 h 21.375 v 1.875 z m 14.25,13.34375 q 1.0625,1.21875 2.34375,1.21875 1.28125,0 2.1875,-1.3125 0.9375,-1.34375 0.9375,-3.25 0,-1.71875 -0.9375,-2.9375 -0.90625,-1.21875 -2.1875,-1.21875 -1.28125,0 -2.34375,1.21875 -1.0625,1.21875 -1.40625,3.125 0.34375,1.9375 1.40625,3.15625 z m -7.03125,1.21875 q 0.9375,0 1.96875,-1.25 1.03125,-1.25 1.78125,-3.3125 -0.65625,-1.875 -1.71875,-3 -1.03125,-1.15625 -2.03125,-1.15625 -1.375,0 -2.34375,1.28125 -0.96875,1.28125 -0.96875,3.0625 0,1.8125 0.96875,3.09375 0.96875,1.28125 2.34375,1.28125 z m 0,2.09375 q -2.25,0 -3.84375,-1.875 -1.5625,-1.90625 -1.5625,-4.59375 0,-2.65625 1.5625,-4.53125 1.59375,-1.90625 3.84375,-1.90625 1.5,0 2.8125,1.09375 1.3125,1.0625 2,2.84375 0.65625,-1.78125 1.90625,-2.84375 1.25,-1.09375 2.65625,-1.09375 2.15625,0 3.65625,1.84375 1.53125,1.8125 1.53125,4.40625 0,2.75 -1.53125,4.71875 -1.5,1.9375 -3.65625,1.9375 -1.46875,0 -2.8125,-1.125 -1.3125,-1.15625 -1.96875,-3.03125 -0.65625,1.875 -1.9375,3.03125 -1.28125,1.125 -2.65625,1.125 z"
         id="path164" />
      <path
         d="m 402.85937,193.96875 q 1.625,0 3.0625,-0.875 1.46875,-0.90625 2.34375,-2.46875 v -9.5625 h -7.0625 q 0.78125,0.96875 1.21875,2.0625 0.4375,1.0625 0.4375,2.09375 0,1.8125 -1.4375,3.21875 -1.40625,1.40625 -3.5625,1.78125 0.3125,1.625 1.71875,2.6875 1.40625,1.0625 3.28125,1.0625 z m -8.4375,-12.90625 v -1.875 h 19.46875 v 1.875 h -3.53125 V 200 h -2.09375 v -6.4375 q -1.21875,1.1875 -2.625,1.84375 -1.375,0.625 -2.78125,0.625 -3,0 -5.15625,-2.15625 -2.125,-2.1875 -2.125,-5.3125 2.375,0 3.78125,-0.90625 1.40625,-0.9375 1.40625,-2.4375 0,-1 -0.53125,-2.0625 -0.53125,-1.09375 -1.53125,-2.09375 z"
         id="path166" />
      <path
         d="m 413.04687,181.0625 v -1.875 h 9.15625 v 1.875 h -3.5625 V 200 h -2.0625 v -18.9375 z"
         id="path168" />
      <path
         d="m 422.29687,204 1.65625,-7.28125 h 3.03125 L 423.85937,204 Z"
         id="path170" />
      <path
         d="m 452.51562,197.5 q -2.25,0 -4.6875,-3 -2.4375,-3.03125 -4.25,-8.03125 l 1.875,-0.8125 q 1.59375,4.4375 3.53125,7.125 1.9375,2.65625 3.53125,2.65625 1.03125,0 1.75,-0.78125 0.75,-0.8125 0.75,-1.9375 0,-1.78125 -0.9375,-3.65625 -0.90625,-1.90625 -2.59375,-3.625 h 8.9375 v -4.375 h -17.96875 v -1.875 h 23.59375 v 1.875 h -3.53125 V 200 h -2.09375 v -12.46875 h -5 q 0.84375,1.15625 1.25,2.5 0.40625,1.3125 0.40625,2.6875 0,2 -1.34375,3.40625 -1.3125,1.375 -3.21875,1.375 z"
         id="path172" />
      <path
         d="m 473.01562,191.875 q 1.28125,0 2.40625,-0.78125 1.125,-0.78125 1.75,-2.125 v -7.90625 h -7.6875 v 7.5 q 0,1.375 1.03125,2.34375 1.03125,0.96875 2.5,0.96875 z m -5.625,-3.3125 v -7.5 h -2.1875 v -1.875 h 17.59375 v 1.875 h -3.53125 V 200 h -2.09375 v -7.90625 q -0.90625,0.90625 -2,1.40625 -1.0625,0.46875 -2.15625,0.46875 -2.34375,0 -4,-1.5625 -1.625,-1.59375 -1.625,-3.84375 z"
         id="path174" />
      <path
         d="m 481.95312,181.0625 v -1.875 h 9.15625 v 1.875 h -3.5625 V 200 h -2.0625 v -18.9375 z"
         id="path176" />
      <path
         d="m 490.26562,181.0625 v -1.875 h 11.65625 v 1.875 z m 7.46875,14.375 q -2.40625,0 -4.125,-1.71875 -1.6875,-1.75 -1.6875,-4.15625 0,-2.40625 1.6875,-4.09375 1.71875,-1.6875 4.125,-1.6875 0.9375,0 1.78125,0.21875 0.84375,0.1875 1.5625,0.59375 l -0.84375,1.875 q -0.40625,-0.28125 -1.0625,-0.4375 -0.625,-0.1875 -1.4375,-0.1875 -1.53125,0 -2.625,1.09375 -1.09375,1.0625 -1.09375,2.625 0,1.65625 1.09375,2.84375 1.09375,1.15625 2.625,1.15625 1,0 2.21875,-0.78125 1.21875,-0.78125 2.375,-2.15625 v 2.71875 q -1,1 -2.1875,1.5625 -1.1875,0.53125 -2.40625,0.53125 z"
         id="path178" />
      <path
         d="m 509.51562,193.96875 q 1.625,0 3.0625,-0.875 1.46875,-0.90625 2.34375,-2.46875 v -9.5625 h -7.0625 q 0.78125,0.96875 1.21875,2.0625 0.4375,1.0625 0.4375,2.09375 0,1.8125 -1.4375,3.21875 -1.40625,1.40625 -3.5625,1.78125 0.3125,1.625 1.71875,2.6875 1.40625,1.0625 3.28125,1.0625 z m -8.4375,-12.90625 v -1.875 h 19.46875 v 1.875 h -3.53125 V 200 h -2.09375 v -6.4375 q -1.21875,1.1875 -2.625,1.84375 -1.375,0.625 -2.78125,0.625 -3,0 -5.15625,-2.15625 -2.125,-2.1875 -2.125,-5.3125 2.375,0 3.78125,-0.90625 1.40625,-0.9375 1.40625,-2.4375 0,-1 -0.53125,-2.0625 -0.53125,-1.09375 -1.53125,-2.09375 z"
         id="path180" />
      <path
         d="m 519.70312,181.0625 v -1.875 h 9.15625 v 1.875 h -3.5625 V 200 h -2.0625 v -18.9375 z"
         id="path182" />
      <path
         d="m 529.76562,189.8125 q 0,-2 1.28125,-3.375 1.28125,-1.40625 3.0625,-1.40625 h 8.125 v -3.96875 h -14.21875 v -1.875 h 19.84375 v 1.875 h -3.53125 V 200 h -2.09375 v -12.90625 h -8.125 q -0.9375,0 -1.625,0.8125 -0.65625,0.78125 -0.65625,1.90625 0,2 1.40625,4.28125 1.4375,2.28125 4,4.4375 l -1.25,1.46875 q -2.9375,-2.5 -4.59375,-5.15625 -1.625,-2.65625 -1.625,-5.03125 z"
         id="path184" />
      <path
         d="m 556.89062,181.0625 v -1.875 h 17.3125 v 1.875 h -3.34375 v 5 h -8.53125 q -0.40625,0 -0.71875,0.1875 -0.3125,0.1875 -0.3125,0.4375 0,0.84375 0.625,1.625 0.625,0.78125 1.65625,1.28125 0.65625,-0.28125 1.4375,-0.4375 0.8125,-0.1875 1.6875,-0.1875 2.34375,0 3.96875,1.34375 1.65625,1.3125 1.65625,3.25 0,1.0625 -0.4375,1.96875 -0.4375,0.875 -1.25,1.34375 l -1.65625,-1.4375 q 0.59375,-0.34375 0.90625,-0.84375 0.34375,-0.5 0.34375,-1.03125 0,-1.0625 -1.03125,-1.78125 -1.03125,-0.71875 -2.5,-0.71875 -2.25,0 -3.84375,1.03125 -1.5625,1.03125 -1.5625,2.5 0,1.90625 2.6875,3.25 2.6875,1.3125 6.46875,1.3125 l -0.4375,1.875 q -4.46875,0 -7.65625,-1.875 -3.15625,-1.90625 -3.15625,-4.5625 0,-1.21875 0.59375,-2.28125 0.625,-1.0625 1.6875,-1.6875 -1.0625,-0.90625 -1.6875,-1.9375 -0.59375,-1.03125 -0.59375,-2 0,-1.125 0.90625,-1.90625 0.9375,-0.8125 2.21875,-0.8125 h 6.46875 v -2.90625 z"
         id="path186" />
      <path
         d="m 585.29687,187.9375 v -6.875 h -7.28125 z m -4.375,3.75 q 1.28125,0 2.40625,-0.375 1.125,-0.375 1.96875,-1.09375 l -7.6875,-7.0625 v 5.1875 q 0,1.375 0.96875,2.375 0.96875,0.96875 2.34375,0.96875 z m -7.5625,-10.625 v -1.875 h 17.5625 v 1.875 h -3.5625 V 200 h -2.0625 v -7.5 q -0.875,0.625 -2,0.9375 -1.125,0.3125 -2.375,0.3125 -2.25,0 -3.84375,-1.5625 -1.5625,-1.59375 -1.5625,-3.84375 v -7.28125 z"
         id="path188" />
      <path
         d="m 590.07812,181.0625 v -1.875 h 9.15625 v 1.875 h -3.5625 V 200 h -2.0625 v -18.9375 z"
         id="path190" />
      <path
         d="m 594.79687,179.1875 q -1.0625,-0.90625 -1.65625,-1.96875 -0.625,-1.09375 -0.625,-2.1875 0,-1.90625 1.46875,-3.21875 1.4375,-1.34375 3.53125,-1.34375 0.5625,0 1.125,0.0937 0.5625,0.0937 1.15625,0.3125 v 1.875 q -0.875,-0.34375 -1.4375,-0.46875 -0.5625,-0.15625 -0.84375,-0.15625 -1.21875,0 -2.0625,0.84375 -0.84375,0.84375 -0.84375,2.0625 0,1.15625 0.78125,2.28125 0.78125,1.09375 2.125,1.875 z"
         id="path192" />
      <path
         d="m 599.42187,187.53125 q 0,-0.4375 0.4375,-0.75 0.4375,-0.3125 1.03125,-0.3125 h 11 v -5.40625 h -13.5 v -1.875 h 19.125 v 1.875 h -3.53125 V 200 h -2.09375 v -11.4375 h -6.03125 q -0.5,0 -0.875,0.25 -0.375,0.25 -0.375,0.5625 v 2.09375 q 0,0.5 -0.3125,0.875 -0.3125,0.375 -0.71875,0.375 -0.71875,0 -2.4375,-2.15625 -1.71875,-2.1875 -1.71875,-3.03125 z"
         id="path194" />
      <path
         d="m 611.54687,179.1875 -7.6875,-9.15625 1.4375,-1.25 8.3125,10.40625 z"
         id="path196" />
      <path
         d="m 617.60937,204 1.65625,-7.28125 h 3.03125 L 619.17187,204 Z"
         id="path198" />
    </g>
    <g
       aria-label="सुरुवात आणि हिंदी, भावना एका रांगेत सांगणारे."
       id="text8">
      <path
         d="m 127.96875,231.0625 v -1.875 h 23 v 1.875 H 147.4375 V 250 h -2.09375 v -10 h -8.875 q -0.84375,0.625 -1.9375,0.625 -0.25,0 -0.5,-0.0625 -0.21875,-0.0625 -0.34375,-0.125 l 6.25,8.71875 -1.65625,1.0625 -9.375,-13.3125 1.6875,-1.25 q 0.65625,1.40625 1.53125,2.25 0.90625,0.84375 1.78125,0.84375 0.875,0 1.46875,-0.59375 Q 136,237.5625 136,236.6875 v -5.625 z m 9.90625,6.875 h 7.46875 v -6.875 h -7.28125 v 5.625 q 0,0.65625 -0.1875,1.25 z"
         id="path201" />
      <path
         d="m 144.28125,258.53125 q -2.25,0 -4.6875,-1.09375 -2.46875,-1.0625 -4.875,-3.0625 l 1.46875,-1.875 q 2.28125,1.90625 4.375,2.90625 2.0625,1.03125 3.71875,1.03125 1.8125,0 3.09375,-0.90625 1.28125,-0.90625 1.28125,-2.1875 0,-1.0625 -0.65625,-1.78125 -0.6875,-0.71875 -1.625,-0.71875 -1,0 -1.875,0.375 -0.875,0.375 -1.46875,1.0625 l -1.4375,-1.4375 q 0.8125,-1 2.0625,-1.53125 1.25,-0.5625 2.71875,-0.5625 1.78125,0 3.09375,1.3125 1.28125,1.34375 1.28125,3.28125 0,2.15625 -1.90625,3.65625 -1.90625,1.53125 -4.5625,1.53125 z"
         id="path203" />
      <path
         d="m 150.125,231.0625 v -1.875 h 20.78125 v 1.875 H 160.1875 v 4.375 q 0.90625,-0.90625 2.09375,-1.375 1.1875,-0.5 2.46875,-0.5 1.8125,0 3.09375,1.46875 1.28125,1.4375 1.28125,3.53125 0,1.90625 -0.78125,3.59375 -0.75,1.6875 -2.125,2.84375 l -2.09375,-1.25 q 1.34375,-0.78125 2.125,-2.15625 0.8125,-1.40625 0.8125,-3.03125 0,-1.28125 -0.6875,-2.1875 -0.65625,-0.9375 -1.625,-0.9375 -0.8125,0 -1.625,0.4375 -0.8125,0.4375 -1.46875,1.21875 l -1.46875,-0.8125 q 0,1.4375 -0.8125,2.5 -0.78125,1.03125 -1.90625,1.03125 -0.6875,0 -1,-0.0312 -0.3125,-0.0625 -0.4375,-0.1875 l 6.65625,8.9375 -1.65625,1.25 -10,-13.9375 1.65625,-1.03125 q 0.8125,1.34375 1.71875,2.125 0.9375,0.78125 1.8125,0.78125 0.8125,0 1.34375,-0.46875 0.53125,-0.46875 0.53125,-1.1875 v -5 z"
         id="path205" />
      <path
         d="m 170.09375,231.0625 v -1.875 h 17.8125 v 1.875 h -3.5625 V 250 h -2.0625 v -6.65625 q -0.84375,1 -2,1.5625 -1.125,0.53125 -2.375,0.53125 -2.59375,0 -4.4375,-1.65625 -1.8125,-1.65625 -1.8125,-3.96875 0,-2.34375 1.8125,-3.96875 1.84375,-1.65625 4.4375,-1.65625 0.75,0 1.4375,0.21875 0.6875,0.1875 1.28125,0.625 l -1.0625,1.65625 q -0.375,-0.28125 -0.78125,-0.4375 -0.40625,-0.1875 -0.875,-0.1875 -1.71875,0 -2.9375,1.09375 -1.21875,1.09375 -1.21875,2.65625 0,1.4375 1.21875,2.5 1.21875,1.03125 2.9375,1.03125 1.21875,0 2.375,-0.8125 1.15625,-0.84375 2,-2.3125 v -9.15625 z"
         id="path207" />
      <path
         d="m 187.0625,231.0625 v -1.875 h 9.15625 v 1.875 h -3.5625 V 250 h -2.0625 v -18.9375 z"
         id="path209" />
      <path
         d="m 197.125,239.8125 q 0,-2 1.28125,-3.375 1.28125,-1.40625 3.0625,-1.40625 h 8.125 V 231.0625 H 195.375 v -1.875 h 19.84375 v 1.875 H 211.6875 V 250 h -2.09375 v -12.90625 h -8.125 q -0.9375,0 -1.625,0.8125 -0.65625,0.78125 -0.65625,1.90625 0,2 1.40625,4.28125 1.4375,2.28125 4,4.4375 l -1.25,1.46875 q -2.9375,-2.5 -4.59375,-5.15625 -1.625,-2.65625 -1.625,-5.03125 z"
         id="path211" />
      <path
         d="m 234.34375,248.53125 q -2.5,0 -4.84375,-2.0625 -2.34375,-2.09375 -4.09375,-5.84375 l 1.46875,-1.25 q 1.5625,3.375 3.5,5.25 1.96875,1.84375 3.96875,1.84375 1.3125,0 2.21875,-1.09375 0.90625,-1.125 0.90625,-2.65625 0,-1.46875 -1.03125,-2.5 -1.03125,-1.03125 -2.5,-1.03125 -0.46875,0 -1,0.0937 -0.5,0.0937 -1.09375,0.3125 l -0.8125,-1.875 q 1.875,-0.15625 3.3125,-1.34375 1.46875,-1.21875 1.46875,-2.59375 0,-1.125 -0.875,-1.90625 -0.84375,-0.8125 -2.03125,-0.8125 -1,0 -2.21875,0.78125 -1.21875,0.75 -2.375,2.125 l -1.4375,-1.4375 q 1.0625,-1.59375 2.65625,-2.46875 1.625,-0.875 3.375,-0.875 2.0625,0 3.5,1.34375 1.46875,1.3125 1.46875,3.25 0,1.125 -0.5,2.15625 -0.5,1.03125 -1.34375,1.78125 1.40625,0.84375 2.78125,1.25 1.375,0.40625 2.625,0.40625 0.3125,0 0.84375,-0.1875 0.53125,-0.21875 1.21875,-0.625 v -7.5 h -3.75 v -1.875 h 17.90625 v 1.875 H 254.125 V 250 h -2.09375 v -18.9375 h -6.4375 V 250 H 243.5 v -9.375 q -0.5,0.4375 -1.03125,0.65625 -0.5,0.1875 -1.03125,0.1875 -0.875,0 -1.59375,-0.15625 -0.71875,-0.1875 -1.125,-0.46875 0.40625,0.34375 0.625,0.9375 0.21875,0.59375 0.21875,1.34375 0,2.25 -1.53125,3.84375 -1.5,1.5625 -3.6875,1.5625 z"
         id="path213" />
      <path
         d="m 256.8125,231.0625 v -1.875 h 3.46875 q -0.0625,-0.0312 -0.0937,-1.125 0,-0.75 0,-1.6875 0,-2.78125 2.28125,-4.375 2.28125,-1.5625 6,-1.53125 5.78125,0 9.375,2.4375 3.59375,2.4375 5.8125,6.3125 h -2.46875 q -1.75,-3 -4.6875,-4.9375 -2.90625,-1.96875 -8.03125,-1.96875 -3.1875,0 -4.625,1.0625 -1.53125,1.125 -1.59375,3 -0.0312,1.28125 0,1.6875 0.15625,0.78125 0.0937,1.125 h 3.625 v 1.875 h -3.5625 V 250 h -2.0625 v -18.9375 z"
         id="path215" />
      <path
         d="m 272.53125,242.9375 q 1.125,0 1.90625,-0.90625 0.78125,-0.9375 0.78125,-2.21875 v -8.75 h -5.625 v 8.75 q 0,1.28125 0.84375,2.21875 0.875,0.90625 2.09375,0.90625 z m 0,2.0625 q -2.09375,0 -3.5625,-1.5 -1.4375,-1.53125 -1.4375,-3.6875 v -8.75 H 265.125 v -1.875 h 21.75 v 1.875 h -3.53125 V 250 H 281.25 v -18.9375 h -3.9375 v 8.75 q 0,2.15625 -1.4375,3.6875 -1.40625,1.5 -3.34375,1.5 z"
         id="path217" />
      <path
         d="m 316.28125,223.78125 v -3.125 h 3.125 v 3.125 z m -20.375,7.28125 v -1.875 h 3.53125 q -0.28125,-0.375 -0.46875,-1.0625 -0.15625,-0.6875 -0.15625,-1.625 0,-2.5 1.9375,-4.25 1.96875,-1.78125 4.71875,-1.78125 3.28125,0 6.4375,2.21875 3.1875,2.21875 5.40625,6.09375 h -2.28125 q -1.75,-3 -4.3125,-4.71875 -2.53125,-1.75 -5.25,-1.75 -1.90625,0 -3.25,1.25 -1.34375,1.21875 -1.34375,2.9375 0,0.9375 0.15625,1.625 0.1875,0.6875 0.46875,1.0625 h 3.5625 v 1.875 H 301.5 V 250 h -2.0625 v -18.9375 z"
         id="path219" />
      <path
         d="m 304.21875,231.0625 v -1.875 h 17.3125 v 1.875 h -3.34375 v 5 h -8.53125 q -0.40625,0 -0.71875,0.1875 -0.3125,0.1875 -0.3125,0.4375 0,0.84375 0.625,1.625 0.625,0.78125 1.65625,1.28125 0.65625,-0.28125 1.4375,-0.4375 0.8125,-0.1875 1.6875,-0.1875 2.34375,0 3.96875,1.34375 1.65625,1.3125 1.65625,3.25 0,1.0625 -0.4375,1.96875 -0.4375,0.875 -1.25,1.34375 l -1.65625,-1.4375 q 0.59375,-0.34375 0.90625,-0.84375 0.34375,-0.5 0.34375,-1.03125 0,-1.0625 -1.03125,-1.78125 -1.03125,-0.71875 -2.5,-0.71875 -2.25,0 -3.84375,1.03125 -1.5625,1.03125 -1.5625,2.5 0,1.90625 2.6875,3.25 2.6875,1.3125 6.46875,1.3125 l -0.4375,1.875 q -4.46875,0 -7.65625,-1.875 -3.15625,-1.90625 -3.15625,-4.5625 0,-1.21875 0.59375,-2.28125 0.625,-1.0625 1.6875,-1.6875 -1.0625,-0.90625 -1.6875,-1.9375 -0.59375,-1.03125 -0.59375,-2 0,-1.125 0.90625,-1.90625 0.9375,-0.8125 2.21875,-0.8125 h 6.46875 v -2.90625 z"
         id="path221" />
      <path
         d="m 320.4375,231.0625 v -1.875 h 18 v 1.875 h -3.3125 v 5.40625 H 327 q -1.21875,0 -2.0625,0.875 -0.84375,0.84375 -0.84375,2.03125 0,2.25 2.375,3.84375 2.375,1.59375 5.75,1.59375 0,-1.46875 0.65625,-2.5 0.65625,-1.0625 1.625,-1.0625 0.6875,0 1.15625,0.5 0.5,0.46875 0.5,1.1875 0,0.8125 -0.5,1.65625 -0.5,0.84375 -1.375,1.4375 L 336.5625,250 l -1.875,0.84375 -2.28125,-4.1875 q -4.3125,0 -7.375,-2.125 Q 322,242.375 322,239.375 q 0,-2.0625 1.4375,-3.5 1.46875,-1.46875 3.5625,-1.46875 h 6.03125 v -3.34375 z"
         id="path223" />
      <path
         d="m 337.59375,231.0625 v -1.875 h 3.53125 q -0.53125,-3 -1.96875,-4.9375 -1.40625,-1.9375 -3.03125,-1.9375 -1.21875,0 -2.0625,0.8125 -0.84375,0.78125 -0.84375,1.90625 0,1 0.4375,2 0.4375,0.96875 1.21875,1.75 h -2.28125 q -0.71875,-0.71875 -1.09375,-1.6875 -0.375,-0.96875 -0.375,-2.0625 0,-1.90625 1.46875,-3.21875 1.4375,-1.34375 3.53125,-1.34375 2.40625,0 4.40625,2.46875 2,2.46875 2.65625,6.25 h 3.5625 v 1.875 h -3.5625 V 250 h -2.0625 v -18.9375 z"
         id="path225" />
      <path
         d="M 346.84375,254 348.5,246.71875 h 3.03125 L 348.40625,254 Z"
         id="path227" />
      <path
         d="m 371.125,239.8125 q 0,-0.34375 0.28125,-0.59375 0.3125,-0.25 0.75,-0.25 h 1.65625 v -6.03125 q 0,-0.875 -0.5625,-1.46875 -0.53125,-0.625 -1.3125,-0.625 -0.78125,0 -1.34375,0.4375 -0.53125,0.4375 -0.53125,1.03125 0,0.71875 0.53125,1.1875 0.5625,0.46875 1.34375,0.46875 v 2.09375 q -1.625,0 -2.78125,-1.09375 Q 368,233.84375 368,232.3125 q 0,-1.46875 1.15625,-2.5 1.15625,-1.03125 2.78125,-1.03125 1.625,0 2.78125,1.21875 1.1875,1.21875 1.1875,2.9375 v 6.03125 H 382.75 v -7.90625 h -5.40625 v -1.875 H 388.375 v 1.875 h -3.53125 V 250 H 382.75 v -8.9375 h -6.84375 v 1.65625 q 0,0.34375 -0.3125,0.59375 -0.3125,0.25 -0.75,0.25 -0.625,0 -2.1875,-1.5625 -1.53125,-1.5625 -1.53125,-2.1875 z"
         id="path229" />
      <path
         d="m 387.53125,231.0625 v -1.875 h 9.15625 v 1.875 H 393.125 V 250 h -2.0625 v -18.9375 z"
         id="path231" />
      <path
         d="m 395.84375,231.0625 v -1.875 h 17.8125 v 1.875 h -3.5625 V 250 h -2.0625 v -6.65625 q -0.84375,1 -2,1.5625 -1.125,0.53125 -2.375,0.53125 -2.59375,0 -4.4375,-1.65625 -1.8125,-1.65625 -1.8125,-3.96875 0,-2.34375 1.8125,-3.96875 1.84375,-1.65625 4.4375,-1.65625 0.75,0 1.4375,0.21875 0.6875,0.1875 1.28125,0.625 l -1.0625,1.65625 q -0.375,-0.28125 -0.78125,-0.4375 -0.40625,-0.1875 -0.875,-0.1875 -1.71875,0 -2.9375,1.09375 Q 399.5,238.25 399.5,239.8125 q 0,1.4375 1.21875,2.5 1.21875,1.03125 2.9375,1.03125 1.21875,0 2.375,-0.8125 1.15625,-0.84375 2,-2.3125 v -9.15625 z"
         id="path233" />
      <path
         d="m 413.84375,237.53125 q 0,-0.4375 0.4375,-0.75 0.4375,-0.3125 1.03125,-0.3125 h 11 v -5.40625 h -13.5 v -1.875 h 19.125 v 1.875 h -3.53125 V 250 h -2.09375 v -11.4375 h -6.03125 q -0.5,0 -0.875,0.25 -0.375,0.25 -0.375,0.5625 v 2.09375 q 0,0.5 -0.3125,0.875 -0.3125,0.375 -0.71875,0.375 -0.71875,0 -2.4375,-2.15625 -1.71875,-2.1875 -1.71875,-3.03125 z"
         id="path235" />
      <path
         d="m 431.09375,231.0625 v -1.875 H 440.25 v 1.875 h -3.5625 V 250 h -2.0625 v -18.9375 z"
         id="path237" />
      <path
         d="m 449.28125,231.0625 v -1.875 h 16 v 1.875 h -2.5 v 6.09375 q 0,1.6875 -0.6875,2.96875 -0.65625,1.25 -1.78125,1.5625 l -1.25,-1.46875 q 0.75,-0.21875 1.1875,-1.09375 0.46875,-0.875 0.46875,-2.03125 v -6.03125 h -7.0625 v 7.90625 q 0,0.78125 0.25,1.5 0.28125,0.71875 0.78125,1.21875 l 7.28125,6.84375 q 0.78125,0.6875 1.21875,1.34375 0.4375,0.625 0.4375,1.15625 0,0.9375 -0.6875,1.71875 -0.6875,0.78125 -1.8125,1.21875 L 459.46875,252.5 q 0.84375,-0.125 1.34375,-0.5625 0.53125,-0.40625 0.53125,-0.90625 0,-0.28125 -0.21875,-0.65625 Q 460.9375,250 460.5,249.59375 L 452.8125,242.5 q -0.59375,-0.5625 -0.9375,-1.46875 -0.3125,-0.9375 -0.3125,-1.96875 v -8 z"
         id="path239" />
      <path
         d="m 464.46875,231.0625 v -1.875 h 24.25 v 1.875 h -11 v 5.625 q 0.6875,-1.15625 1.84375,-1.8125 1.15625,-0.6875 2.53125,-0.6875 2,0 3.375,1.65625 1.40625,1.625 1.40625,3.96875 0,2 -1.03125,3.96875 -1.03125,1.9375 -2.90625,3.5 l -1.875,-1.25 q 1.75,-1.21875 2.75,-2.875 1,-1.65625 1,-3.34375 0,-1.46875 -0.8125,-2.5 -0.78125,-1.03125 -1.90625,-1.03125 -1.4375,0 -2.6875,1.09375 -1.21875,1.09375 -1.6875,2.84375 V 250 h -2.0625 v -6.25 q -0.75,0.875 -1.84375,1.375 -1.0625,0.5 -2.3125,0.5 -2.25,0 -3.84375,-1.5625 -1.5625,-1.59375 -1.5625,-3.84375 0,-2.5 1.8125,-4.25 1.84375,-1.78125 4.40625,-1.78125 0.75,0 1.28125,0.125 0.5625,0.0937 0.8125,0.28125 L 474,236.6875 q -0.375,-0.21875 -0.8125,-0.3125 -0.40625,-0.0937 -0.875,-0.0937 -1.6875,0 -2.9375,1.15625 -1.21875,1.15625 -1.21875,2.78125 0,1.375 0.96875,2.375 1,0.96875 2.375,0.96875 1.1875,0 2.3125,-0.71875 1.125,-0.75 1.84375,-2 v -9.78125 z"
         id="path241" />
      <path
         d="m 487.875,231.0625 v -1.875 h 9.15625 v 1.875 h -3.5625 V 250 h -2.0625 v -18.9375 z"
         id="path243" />
      <path
         d="m 506.0625,231.0625 v -1.875 h 14.46875 v 1.875 h -2.8125 v 4.78125 q 0,1.9375 -1.3125,3.28125 -1.28125,1.3125 -3.0625,1.3125 -0.25,0 -0.6875,-0.0937 -0.40625,-0.125 -1,-0.34375 1.34375,2.34375 3.15625,4.5 1.84375,2.125 4.125,4.03125 L 517.71875,250 q -3.34375,-2.78125 -6.03125,-6.3125 -2.6875,-3.5625 -4.59375,-7.625 l 1.875,-1.03125 q 0.53125,1.5 1.71875,2.40625 1.21875,0.90625 2.65625,0.90625 0.9375,0 1.59375,-0.71875 0.6875,-0.71875 0.6875,-1.78125 v -4.78125 z"
         id="path245" />
      <path
         d="m 519.6875,231.0625 v -1.875 h 9.15625 v 1.875 h -3.5625 V 250 h -2.0625 v -18.9375 z"
         id="path247" />
      <path
         d="m 522.875,224 v -2.90625 H 526 V 224 Z"
         id="path249" />
      <path
         d="m 528,231.0625 v -1.875 h 17 v 1.875 h -3.53125 V 250 h -2.0625 V 231.0625 H 534.1875 V 241.25 q 0,0.5 -0.3125,0.875 -0.3125,0.375 -0.71875,0.375 -0.78125,0 -2.46875,-1.9375 Q 529,238.59375 529,237.71875 q 0,-0.3125 0.25,-0.5625 0.25,-0.25 0.5625,-0.25 h 1.46875 q 0.34375,0 0.59375,-0.3125 0.25,-0.3125 0.25,-0.75 v -4.78125 z"
         id="path251" />
      <path
         d="m 539,229.1875 -7.6875,-9.15625 1.4375,-1.25 8.3125,10.40625 z"
         id="path253" />
      <path
         d="m 545.90625,239.8125 q 0,-2 1.28125,-3.375 1.28125,-1.40625 3.0625,-1.40625 h 8.125 v -3.96875 h -14.21875 v -1.875 H 564 v 1.875 h -3.53125 V 250 H 558.375 v -12.90625 h -8.125 q -0.9375,0 -1.625,0.8125 -0.65625,0.78125 -0.65625,1.90625 0,2 1.40625,4.28125 1.4375,2.28125 4,4.4375 L 552.125,250 q -2.9375,-2.5 -4.59375,-5.15625 -1.625,-2.65625 -1.625,-5.03125 z"
         id="path255" />
      <path
         d="m 573.03125,231.0625 v -1.875 h 23 v 1.875 H 592.5 V 250 h -2.09375 v -10 h -8.875 q -0.84375,0.625 -1.9375,0.625 -0.25,0 -0.5,-0.0625 Q 578.875,240.5 578.75,240.4375 l 6.25,8.71875 -1.65625,1.0625 -9.375,-13.3125 1.6875,-1.25 q 0.65625,1.40625 1.53125,2.25 0.90625,0.84375 1.78125,0.84375 0.875,0 1.46875,-0.59375 0.625,-0.59375 0.625,-1.46875 v -5.625 z m 9.90625,6.875 h 7.46875 v -6.875 H 583.125 v 5.625 q 0,0.65625 -0.1875,1.25 z"
         id="path257" />
      <path
         d="m 595.1875,231.0625 v -1.875 h 9.15625 v 1.875 h -3.5625 V 250 h -2.0625 v -18.9375 z"
         id="path259" />
      <path
         d="m 598.375,224 v -2.90625 H 601.5 V 224 Z"
         id="path261" />
      <path
         d="m 603.5,231.0625 v -1.875 h 17 v 1.875 h -3.53125 V 250 h -2.0625 V 231.0625 H 609.6875 V 241.25 q 0,0.5 -0.3125,0.875 -0.3125,0.375 -0.71875,0.375 -0.78125,0 -2.46875,-1.9375 -1.6875,-1.96875 -1.6875,-2.84375 0,-0.3125 0.25,-0.5625 0.25,-0.25 0.5625,-0.25 h 1.46875 q 0.34375,0 0.59375,-0.3125 0.25,-0.3125 0.25,-0.75 v -4.78125 z"
         id="path263" />
      <path
         d="m 627.0625,242.9375 q 1.125,0 1.90625,-0.90625 0.78125,-0.9375 0.78125,-2.21875 v -8.75 h -5.625 v 8.75 q 0,1.28125 0.84375,2.21875 0.875,0.90625 2.09375,0.90625 z m 0,2.0625 q -2.09375,0 -3.5625,-1.5 -1.4375,-1.53125 -1.4375,-3.6875 v -8.75 h -2.40625 v -1.875 h 21.75 v 1.875 H 637.875 V 250 h -2.09375 v -18.9375 h -3.9375 v 8.75 q 0,2.15625 -1.4375,3.6875 Q 629,245 627.0625,245 Z"
         id="path265" />
      <path
         d="m 640.5625,231.0625 v -1.875 h 9.15625 v 1.875 h -3.5625 V 250 h -2.0625 v -18.9375 z"
         id="path267" />
      <path
         d="m 648.875,231.0625 v -1.875 h 14.46875 v 1.875 h -2.8125 v 4.78125 q 0,1.9375 -1.3125,3.28125 -1.28125,1.3125 -3.0625,1.3125 -0.25,0 -0.6875,-0.0937 -0.40625,-0.125 -1,-0.34375 1.34375,2.34375 3.15625,4.5 1.84375,2.125 4.125,4.03125 L 660.53125,250 q -3.34375,-2.78125 -6.03125,-6.3125 -2.6875,-3.5625 -4.59375,-7.625 l 1.875,-1.03125 q 0.53125,1.5 1.71875,2.40625 1.21875,0.90625 2.65625,0.90625 0.9375,0 1.59375,-0.71875 0.6875,-0.71875 0.6875,-1.78125 v -4.78125 z"
         id="path269" />
      <path
         d="m 658.15625,229.1875 -7.6875,-9.15625 1.4375,-1.25 8.3125,10.40625 z"
         id="path271" />
      <path
         d="m 665.25,250 v -3.28125 h 2.65625 V 250 Z"
         id="path273" />
    </g>
  </g>
</svg>
